<svg xmlns="http://www.w3.org/2000/svg" xmlns:xlink="http://www.w3.org/1999/xlink" width="54" height="62" viewBox="0 0 54 62"><defs><path id="dgrda" d="M446.922 1120.914c-.416-.346-.832-.624-1.387-.693v-8.115a.547.547 0 0 0-.555-.555c-.347 0-.555.208-.555.555v8.115a2.707 2.707 0 0 0-1.803 1.179l-19.42-11.306c.277-.416.416-.97.416-1.525 0-.347-.07-.694-.208-1.04l4.924-3.191c.208-.139.278-.486.14-.694-.14-.208-.486-.277-.695-.138l-4.924 3.19c-.555-.555-1.248-.902-2.08-.902h-.14v-22.333h.14c.624 0 1.248-.208 1.733-.624l3.26 1.734c.07.07.139.07.278.07.208 0 .346-.07.485-.278.139-.278.07-.555-.208-.694l-3.052-1.595c.208-.416.416-.902.416-1.387 0-.347-.069-.763-.208-1.04l19.143-11.098c.347.763 1.04 1.318 1.873 1.526v9.502c0 .277.208.555.555.555.346 0 .554-.208.554-.555v-9.502a2.898 2.898 0 0 0 1.665-.971l18.935 10.959c-.208.416-.347.832-.347 1.317 0 .278.07.555.139.833l-7.352 4.508c-.278.139-.347.485-.139.693.07.14.277.278.416.278.07 0 .208 0 .278-.07l7.352-4.508c.416.486.97.902 1.664.971v22.611a3.529 3.529 0 0 0-1.11.902l-3.606-2.29c-.208-.138-.555-.069-.694.14-.138.208-.07.554.139.693l3.745 2.428c-.138.277-.138.485-.138.693v.278zm22.403-14.426h-.208v-22.333c1.318-.278 2.22-1.388 2.22-2.775a2.782 2.782 0 0 0-2.775-2.774c-.694 0-1.318.277-1.803.624l-19.004-11.028c.069-.277.138-.555.138-.901a2.782 2.782 0 0 0-2.774-2.775 2.782 2.782 0 0 0-2.774 2.775v.138l-19.49 11.306a2.729 2.729 0 0 0-2.011-.902 2.782 2.782 0 0 0-2.775 2.774c0 1.11.625 2.081 1.596 2.497v22.888c-1.04.555-1.665 1.526-1.665 2.636a2.782 2.782 0 0 0 2.774 2.774c.625 0 1.18-.208 1.665-.555l19.836 11.514v.555a2.782 2.782 0 0 0 2.775 2.774 2.782 2.782 0 0 0 2.774-2.774c0-.416-.139-.833-.278-1.249l19.282-11.166c.485.901 1.387 1.526 2.497 1.526a2.782 2.782 0 0 0 2.774-2.775c0-1.526-1.179-2.774-2.774-2.774z"/></defs><g><g transform="translate(-418 -1064)"><use fill="#fff" xlink:href="#dgrda"/></g></g></svg>