<svg xmlns="http://www.w3.org/2000/svg" xmlns:xlink="http://www.w3.org/1999/xlink" width="43" height="31" viewBox="0 0 43 31"><defs><path id="w1fua" d="M56.106 135.32h-7.754a3.246 3.246 0 0 1-3.235-3.235 3.246 3.246 0 0 1 3.235-3.234h7.754zm-7.73-7.482a4.22 4.22 0 0 0-4.222 4.223 4.237 4.237 0 0 0 4.223 4.222h8.741v-8.445z"/><path id="w1fub" d="M49.957 132.06c0 .692-.568 1.235-1.235 1.235a1.238 1.238 0 0 1-1.234-1.234c0-.667.568-1.235 1.234-1.235.667 0 1.235.543 1.235 1.235z"/><path id="w1fuc" d="M54.797 128.332v-4.272a5.76 5.76 0 0 0-5.754-5.753H19.337v28.125h29.706a5.76 5.76 0 0 0 5.754-5.753v-4.865h-.988v4.865a4.769 4.769 0 0 1-4.766 4.766H20.325v-26.151h28.718a4.769 4.769 0 0 1 4.766 4.766v4.272z"/><path id="w1fud" d="M39.413 121.788H24.202v.988H47.463v-.988h-6.667z"/><path id="w1fue" d="M24.202 142.679v-.988h23.261v.988z"/><path id="w1fuf" d="M49 142.5a6.5 6.5 0 1 1 13 0 6.5 6.5 0 0 1-13 0z"/><path id="w1fug" d="M56.597 145.068h-2.149v-2.499h2.686c.66 0 1.198.537 1.198 1.198v.103c0 .661-.537 1.198-1.198 1.198zm-2.148-4.916h2.21c.495 0 .888.393.888.889v.103a.882.882 0 0 1-.888.888h-2.21zm3.717 1.963c.248-.248.393-.6.393-.971v-.103c0-.785-.64-1.426-1.425-1.426h-.558V138.5h-.744v1.115h-.578V138.5h-.744v1.115h-2.086v.537c.475 0 .868.393.868.868v3.16a.873.873 0 0 1-.868.868v.537h2.086v1.115h.744v-1.115h.578v1.115h.744v-1.115h1.012a1.71 1.71 0 0 0 1.714-1.715v-.124c.021-.743-.454-1.384-1.136-1.631z"/></defs><g><g transform="translate(-19 -118)"><g><g><g><g><g><g><use fill="#6d6fb2" xlink:href="#w1fua"/></g></g></g></g></g><g><g><g><g><g><use fill="#6d6fb2" xlink:href="#w1fub"/></g></g></g></g></g><g><g><use fill="#6d6fb2" xlink:href="#w1fuc"/></g><g><use fill="#6d6fb2" xlink:href="#w1fud"/></g></g><g><g><g><g><g><use fill="#6d6fb2" xlink:href="#w1fue"/></g></g></g></g></g></g></g><g transform="translate(-19 -118)"><use fill="#e8e9ff" xlink:href="#w1fuf"/></g><g transform="translate(-19 -118)"><g><g><g><g><use fill="#303392" xlink:href="#w1fug"/></g></g></g></g></g></g></svg>