<svg xmlns="http://www.w3.org/2000/svg" xmlns:xlink="http://www.w3.org/1999/xlink" width="23" height="28" viewBox="0 0 25 28"><defs><path id="29iea" d="M1003.09 37.594c-.16-.133-.319-.239-.532-.266v-3.111a.21.21 0 0 0-.213-.213c-.133 0-.212.08-.212.213v3.111a1.038 1.038 0 0 0-.692.453l-7.446-4.335c.106-.16.16-.373.16-.585 0-.133-.027-.266-.08-.4l1.888-1.223a.206.206 0 0 0 .053-.266.206.206 0 0 0-.266-.053l-1.888 1.223a1.106 1.106 0 0 0-.798-.345h-.053v-8.564h.053c.24 0 .479-.08.665-.24l1.25.666c.026.026.053.026.106.026.08 0 .133-.026.186-.106.053-.107.027-.213-.08-.266l-1.17-.612c.08-.16.16-.345.16-.532a.972.972 0 0 0-.08-.399l7.34-4.255c.133.293.4.506.718.585v3.644c0 .106.08.213.213.213s.213-.08.213-.213V18.1c.266-.053.478-.186.638-.372l7.26 4.202a1.1 1.1 0 0 0-.132.505c0 .107.026.213.053.32l-2.82 1.728c-.106.053-.132.186-.053.266.027.053.107.106.16.106.027 0 .08 0 .106-.026l2.82-1.729c.159.186.372.346.638.372v8.67c-.16.08-.32.213-.426.346l-1.383-.877a.206.206 0 0 0-.266.053.206.206 0 0 0 .054.266l1.436.93c-.054.107-.054.187-.054.266v.107zm8.59-5.531h-.08v-8.564a1.06 1.06 0 0 0 .851-1.064c0-.585-.478-1.064-1.063-1.064-.266 0-.506.107-.692.24l-7.287-4.229c.027-.106.053-.213.053-.346 0-.585-.478-1.063-1.063-1.063s-1.064.478-1.064 1.063v.054l-7.473 4.335a1.046 1.046 0 0 0-.772-.346c-.585 0-1.063.479-1.063 1.064 0 .425.239.798.611.957v8.777c-.399.212-.638.585-.638 1.01 0 .585.479 1.064 1.064 1.064.24 0 .452-.08.638-.213l7.606 4.415v.213c0 .585.479 1.063 1.064 1.063.585 0 1.064-.478 1.064-1.063 0-.16-.053-.32-.107-.479l7.394-4.282a1.067 1.067 0 0 0 2.021-.479 1.05 1.05 0 0 0-1.064-1.063z"/><path id="29ieb" d="M1006.494 30.467c-.319.372-.771.612-1.303.612-.08 0-.16 0-.24-.027a1.684 1.684 0 0 1-1.409-1.649c0-.85.612-1.542 1.41-1.649.08 0 .16-.026.24-.026.531 0 .983.239 1.302.611.24.293.373.665.373 1.064 0 .4-.133.771-.373 1.064zm2.128-3.085a4.154 4.154 0 0 0-1.862-1.649 3.85 3.85 0 0 0-1.569-.32c-.532 0-1.037.107-1.49.293a3.66 3.66 0 0 0-.398-1.063c0-.027-.027-.054-.027-.054a1.336 1.336 0 0 0-.213-.319 3.248 3.248 0 0 0-.797-.798c-.24-.186-.426-.319-.585-.372-.266-.106-.426-.106-.426-.106v6.649a3.95 3.95 0 0 0 3.963 3.75 3.85 3.85 0 0 0 1.569-.32c.771-.345 1.436-.904 1.861-1.649a3.925 3.925 0 0 0 .532-1.994c-.026-.772-.212-1.463-.558-2.048z"/><path id="29iec" d="M999.314 22.701a3.973 3.973 0 0 0-3.963 3.963c0 .771.213 1.49.612 2.1.718 1.091 1.941 1.836 3.35 1.836a3.78 3.78 0 0 0 1.118-.16v-2.526a1.665 1.665 0 0 1-1.117.425c-.08 0-.16 0-.24-.026a1.684 1.684 0 0 1-1.41-1.65c0-.85.612-1.542 1.41-1.648.08 0 .16-.027.24-.027.425 0 .824.16 1.117.426V22.888a3.283 3.283 0 0 0-1.117-.187z"/><path id="29ied" d="M1004.626 18.43a6.046 6.046 0 1 1 12.092.001 6.046 6.046 0 0 1-12.092 0z"/></defs><g><g transform="translate(-992 -12)"><g><use fill="#fff" xlink:href="#29iea"/></g><g><g><use fill="#fff" xlink:href="#29ieb"/></g></g><g><g><g><use fill="#fff" xlink:href="#29iec"/></g></g></g></g></g></svg>
