<svg xmlns="http://www.w3.org/2000/svg" xmlns:xlink="http://www.w3.org/1999/xlink" width="34" height="42" viewBox="0 0 34 42"><defs><path id="hkz5a" d="M522.342 403.503c0-4.051-3.336-7.387-7.387-7.387-4.05 0-7.387 3.336-7.387 7.387 0 4.05 3.336 7.387 7.387 7.387s7.387-3.336 7.387-7.387zm9.055-.238c0 1.906-.477 3.812-1.191 5.48-1.192 3.098-3.098 5.958-5.004 8.817-2.622 3.574-5.481 6.91-8.34 10.247l-.477.476c-.715.953-1.668.953-2.383 0-1.192-1.43-2.621-2.86-3.813-4.29-2.86-3.335-5.719-6.91-7.863-10.722-.954-1.668-1.907-3.336-2.622-5.243-1.43-3.097-1.43-5.957-.476-9.055 1.906-6.434 6.434-10.484 12.868-11.676 8.578-1.668 16.68 3.813 18.824 12.153.239.715.239 1.191.477 1.906v1.907z"/></defs><g><g transform="translate(-498 -387)"><g><g><use fill="#2d3b92" xlink:href="#hkz5a"/></g></g></g></g></svg>