<svg xmlns="http://www.w3.org/2000/svg" xmlns:xlink="http://www.w3.org/1999/xlink" width="24" height="35" viewBox="0 0 24 35"><defs><path id="on4ia" d="M516.683 684.703c-.578 0-1.156.002-1.734 0-.79-.003-1.26-.575-1.104-1.35.167-.833.332-1.667.515-2.496.037-.17-.03-.202-.156-.237a13.959 13.959 0 0 1-3.375-1.455 12.636 12.636 0 0 1-2.414-1.858c-.465-.46-.486-1.096-.03-1.563.687-.704 1.383-1.4 2.087-2.087.431-.42 1.03-.413 1.461.011a9.546 9.546 0 0 0 5.116 2.65c1.454.262 2.908.3 4.332-.186.628-.214 1.184-.543 1.612-1.067.658-.807.735-2.05.162-2.82-.338-.453-.799-.766-1.306-.983a95.045 95.045 0 0 0-3.28-1.33c-1.213-.466-2.432-.912-3.562-1.562-1.195-.688-2.255-1.525-3-2.71a6.298 6.298 0 0 1-.93-2.678c-.182-1.588.028-3.11.772-4.536.748-1.436 1.91-2.447 3.34-3.17 1.17-.59 2.411-.94 3.706-1.11.394-.052.79-.09 1.187-.12.126-.01.157-.064.179-.173.157-.772.323-1.542.48-2.314.133-.646.521-.975 1.178-.977 1.163-.002 2.326-.003 3.489 0 .82.003 1.287.593 1.117 1.398-.183.864-.358 1.73-.545 2.595-.037.17.016.236.176.292a15.353 15.353 0 0 1 4.901 2.823c.488.414.554 1.204.085 1.657-.638.617-1.233 1.277-1.851 1.913-.445.458-1.003.473-1.486.051-1.45-1.264-3.133-2.035-5.022-2.37-.801-.141-1.608-.204-2.419-.116-.882.095-1.735.286-2.46.843a2.13 2.13 0 0 0-.28 3.151c.447.488 1.008.814 1.61 1.055 1.139.457 2.29.883 3.44 1.314 1.476.554 2.923 1.166 4.218 2.084 1.14.81 2.05 1.81 2.535 3.146.357.984.441 2 .355 3.041-.094 1.133-.386 2.2-.935 3.193-.871 1.574-2.181 2.67-3.787 3.433-1.187.565-2.44.902-3.742 1.071-.326.043-.652.09-.98.113-.14.01-.193.068-.217.19-.153.751-.312 1.502-.46 2.255-.14.711-.52 1.024-1.245 1.02-.578-.003-1.155 0-1.733 0v-.03z"/></defs><g><g transform="translate(-508 -650)"><use fill="#b0b1cd" xlink:href="#on4ia"/></g></g></svg>