<svg xmlns="http://www.w3.org/2000/svg" xmlns:xlink="http://www.w3.org/1999/xlink" width="105" height="37" viewBox="0 0 105 37"><defs><path id="6rosa" d="M495.401 799.886c-.765-.152-1.177-.63-1.1-1.461.068-.73.24-1.46.455-2.162 1.036-3.38 2.656-6.49 4.566-9.446 4.151-6.426 9.252-12.011 15.179-16.835 2.634-2.143 5.482-3.975 8.621-5.317 1.75-.748 3.552-1.297 5.475-1.333 1.99-.038 3.713.614 5.123 2.032.318.32.696.676.527 1.174-.17.498-.689.533-1.132.604-6.397 1.025-12.28 3.308-17.513 7.17-2.036 1.503-3.848 3.266-5.63 5.056-3.833 3.85-7.344 7.969-10.325 12.522-1.595 2.436-3.008 4.97-4.096 7.678-.04.1-.092.197-.15.318z"/><path id="6rosb" d="M474.738 782.342c.62.219 1.634.265 2.555.126 1.691-.254 2.987-1.392 3.344-2.935.384-1.665-.322-2.983-1.887-3.262-.847-.151-1.742-.05-2.615-.032-.106.002-.278.183-.302.303-.375 1.923-.73 3.85-1.095 5.8zm-1.795 9.37h-3.03c.198-1.057.388-2.078.582-3.097.893-4.697 1.793-9.392 2.672-14.091.068-.362.208-.498.559-.553 2.07-.323 4.143-.53 6.212-.056 1.908.436 3.353 1.441 3.787 3.482.571 2.682-.83 5.485-3.336 6.71-1.828.895-3.767 1.114-5.771.882-.107-.013-.214-.023-.368-.04l-1.307 6.762z"/><path id="6rosc" d="M492.095 781.008c-1.508-.318-2.815-.076-3.964.874a6.427 6.427 0 0 0-1.883 2.606c-.478 1.192-.736 2.419-.385 3.694.308 1.118 1.287 1.615 2.375 1.213.303-.113.596-.284.854-.48.706-.533 1.174-1.259 1.546-2.048.868-1.84.965-3.867 1.457-5.859zm3.477-1.958c-.426 2.133-.838 4.215-1.26 6.295-.424 2.089-.655 4.197-.635 6.363h-2.865l.214-2.89c-.125.194-.201.307-.273.423-.775 1.25-1.761 2.24-3.233 2.632-2.464.655-4.588-.744-4.954-3.268-.546-3.763 1.68-9.185 7.513-10.018 1.85-.264 3.66-.048 5.493.463z"/><path id="6rosd" d="M519.643 783.634c-.087-.314-.19-.942-.434-1.508-.343-.79-1.013-1.189-1.884-1.244-.963-.06-1.758.306-2.369 1.011-1.384 1.6-1.943 3.48-1.648 5.568.202 1.425 1.296 2.277 2.639 2.165.889-.074 1.563-.552 2.108-1.223 1.051-1.296 1.478-2.817 1.588-4.77zm-9.64 2.836c.19-2.915 1.243-5.309 3.712-6.91 1.579-1.024 3.33-1.312 5.169-.943 2.046.41 3.496 1.96 3.84 4.168.436 2.8-.7 6.403-3.67 8.208-1.59.966-3.317 1.277-5.14.874-2.124-.469-3.6-2.147-3.833-4.308-.04-.381-.055-.766-.078-1.089z"/><path id="6rose" d="M523.412 791.738l2.389-12.94h2.708l-.278 2.301.343-.413c1.242-1.52 2.804-2.352 4.806-2.182 1.551.132 2.583 1.152 2.805 2.702.164 1.136-.043 2.24-.248 3.347-.42 2.264-.842 4.528-1.265 6.792-.023.12-.058.238-.092.375h-3.096c.153-.818.308-1.619.451-2.421.358-1.996.717-3.992 1.057-5.992.05-.291.023-.603-.01-.9-.115-1.035-.853-1.572-1.883-1.377-.983.186-1.653.823-2.217 1.592-.764 1.042-1.118 2.245-1.346 3.498a512.629 512.629 0 0 1-.994 5.295c-.022.117-.146.307-.226.309-.956.021-1.912.014-2.904.014z"/><path id="6rosf" d="M553.007 784.181c1.153-.12 2.255-.204 3.345-.367.42-.063.84-.26 1.209-.48a1.34 1.34 0 0 0 .627-1.556c-.153-.552-.625-.904-1.292-.963-1.79-.157-3.533 1.29-3.889 3.366zm-.33 2.295c-.148 1.774.932 3.028 2.699 3.074a9.14 9.14 0 0 0 1.958-.162c.64-.123 1.254-.373 1.926-.582.086.673.18 1.375.259 2.079.006.055-.072.151-.132.177-2.301.974-4.656 1.433-7.058.439-1.62-.671-2.426-2.05-2.609-3.726-.365-3.357.758-6.144 3.523-8.14 1.592-1.148 3.42-1.462 5.328-.936 1.399.386 2.314 1.309 2.541 2.771.24 1.54-.234 2.823-1.59 3.693-1.065.683-2.268.962-3.5 1.09-1.101.113-2.21.15-3.346.223z"/><path id="6rosg" d="M540.977 784.093c1.108.008 2.213-.006 3.291-.272a4.54 4.54 0 0 0 1.308-.554c.528-.332.682-.884.541-1.48-.135-.573-.577-.85-1.122-.951-1.769-.331-3.914 1.39-4.018 3.257zm-.354 2.381c-.27 1.586.858 2.965 2.536 3.08a7.488 7.488 0 0 0 3.608-.633c.1-.044.202-.085.304-.124.024-.009.053-.001.111-.001.09.673.187 1.346.26 2.023.01.084-.09.23-.174.267-2.04.881-4.153 1.276-6.332.672-2.09-.58-3.135-2.124-3.313-4.198-.285-3.309.866-6.048 3.624-7.977 1.57-1.098 3.358-1.4 5.221-.89 1.526.418 2.442 1.44 2.604 3.036.155 1.534-.435 2.735-1.776 3.528-1.035.613-2.184.88-3.363.997-1.09.108-2.187.148-3.31.22z"/><path id="6rosh" d="M566.236 778.795l-.268 2.61c1.1-1.773 2.416-3.157 4.794-2.89l-.603 2.997c-.271 0-.542-.02-.809.004-1.276.11-2.128.857-2.78 1.887-.705 1.111-1.003 2.36-1.236 3.634a324.119 324.119 0 0 1-.836 4.401c-.022.113-.16.286-.248.288-.945.021-1.89.013-2.874.013.725-4.33 1.799-8.564 2.145-12.944z"/><path id="6rosi" d="M501.875 775.448a16.5 16.5 0 0 1-.88 4.879 2.71 2.71 0 0 1-.408.752c-.27.355-.641.356-.876-.025-.21-.342-.397-.728-.478-1.118-.772-3.751-1.531-7.505-2.265-11.264-.168-.858-.234-1.736-.33-2.607-.045-.412.146-.578.546-.44.289.1.594.25.807.462 1.992 1.987 3.198 4.388 3.658 7.158.121.726.153 1.468.226 2.203z"/><path id="6rosj" d="M573.461 778.706c-.685-.032-1.3.532-1.346 1.233-.046.7.538 1.337 1.252 1.368.69.03 1.304-.532 1.345-1.233.042-.705-.533-1.335-1.25-1.368zm-1.577 1.298c0-.85.694-1.54 1.543-1.532a1.55 1.55 0 0 1 1.527 1.515c.013.834-.69 1.55-1.53 1.558a1.54 1.54 0 0 1-1.54-1.54z"/><path id="6rosk" d="M573.268 779.246l-.102.132v.549c.288.019.583.029.543-.322-.016-.135-.287-.24-.441-.36zm.487.8l.28.85c-.463-.158-.236-.942-.865-.737l-.092.689-.128-.013v-1.655c.333-.043.726-.166.935.218.085.157-.036.426-.064.644z"/></defs><g><g opacity=".46" transform="translate(-470 -763)"><g opacity=".46"><use fill="#303392" xlink:href="#6rosa"/></g><g opacity=".46"><use fill="#303392" xlink:href="#6rosb"/></g><g opacity=".46"><use fill="#303392" xlink:href="#6rosc"/></g><g opacity=".46"><use fill="#303392" xlink:href="#6rosd"/></g><g opacity=".46"><use fill="#303392" xlink:href="#6rose"/></g><g opacity=".46"><use fill="#303392" xlink:href="#6rosf"/></g><g opacity=".46"><use fill="#303392" xlink:href="#6rosg"/></g><g opacity=".46"><use fill="#303392" xlink:href="#6rosh"/></g><g opacity=".46"><use fill="#303392" xlink:href="#6rosi"/></g><g opacity=".46"><use fill="#303392" xlink:href="#6rosj"/></g><g opacity=".46"><use fill="#303392" xlink:href="#6rosk"/></g></g></g></svg>