<svg xmlns="http://www.w3.org/2000/svg" xmlns:xlink="http://www.w3.org/1999/xlink" width="36" height="36" viewBox="0 0 36 36"><defs><path id="1tqza" d="M342.698 788.005c1.013.291 1.985.602 2.972.848 1.344.335 2.702.227 4.028-.085a9.673 9.673 0 0 0 4.383-2.336c1.718-1.58 2.785-3.54 3.085-5.841.23-1.764.06-3.52-.722-5.175-1.715-3.632-4.601-5.58-8.565-5.928-1.45-.127-2.86.186-4.212.738-3.791 1.547-6.124 5.037-6.172 9.02-.063 5.118-.007 10.239-.014 15.358-.001.402.116.546.529.54 1.357-.023 2.714-.012 4.072-.013.617 0 .616.001.616-.595v-6.531zM365 770.38v24.088c-.121.43-.216.87-.367 1.29-.811 2.236-2.342 3.636-4.727 4.036-.138.023-.265.108-.397.165h-24.353c-.132-.057-.26-.127-.397-.167-.488-.144-1.008-.215-1.464-.427-1.927-.896-3.13-2.368-3.468-4.504-.027-.17-.164-.321-.25-.481v-24c.087-.17.202-.33.259-.51.192-.609.275-1.27.56-1.831 1.164-2.289 3.12-3.322 5.637-3.326 7.525-.011 15.05-.01 22.576.004.954.002 1.913.092 2.793.536 1.926.968 3.158 2.446 3.43 4.64.02.167.11.325.168.487z"/><path id="1tqzb" d="M347.362 783.85c2.596.135 4.701-2.142 4.684-4.58a4.637 4.637 0 0 0-4.59-4.616c-2.61-.023-4.718 1.954-4.734 4.61-.015 2.545 2.079 4.672 4.64 4.585zm-4.664 4.155v6.53c0 .597.001.596-.617.596-1.357.001-2.714-.01-4.071.012-.413.007-.53-.137-.53-.539.008-5.12-.048-10.24.015-15.358.048-3.983 2.38-7.473 6.172-9.02 1.353-.552 2.762-.865 4.212-.738 3.964.348 6.85 2.296 8.565 5.928.782 1.655.951 3.41.722 5.175-.3 2.301-1.367 4.262-3.085 5.841a9.672 9.672 0 0 1-4.383 2.336c-1.326.312-2.684.42-4.028.085-.987-.246-1.959-.557-2.972-.848z"/><path id="1tqzc" d="M347.362 783.85c-2.561.086-4.655-2.041-4.64-4.586.016-2.656 2.124-4.633 4.734-4.61a4.637 4.637 0 0 1 4.59 4.615c.017 2.439-2.088 4.716-4.684 4.58z"/></defs><g><g opacity=".46" transform="translate(-329 -764)"><g opacity=".46"><g opacity=".46"><use fill="#303392" xlink:href="#1tqza"/></g><g opacity=".46"><use fill="#fff" xlink:href="#1tqzb"/></g><g opacity=".46"><use fill="#303392" xlink:href="#1tqzc"/></g></g></g></g></svg>