<svg xmlns="http://www.w3.org/2000/svg" xmlns:xlink="http://www.w3.org/1999/xlink" width="110" height="22" viewBox="0 0 110 22"><defs><path id="muw7a" d="M308.075 654.825c.742 1.226 1.077 2.49 1.077 4.085 0 5.089-4.344 11.7-7.87 16.34h-8.053L290 655.94l7.052-.67 1.707 13.741c1.596-2.599 3.565-6.684 3.565-9.468 0-1.525-.261-2.563-.67-3.418z"/><path id="muw7b" d="M317.064 667.006c0 2.267 1.26 3.156 2.932 3.156 1.82 0 3.562-.444 5.827-1.595l-.853 5.792c-1.596.78-4.083 1.3-6.496 1.3-6.123 0-8.314-3.713-8.314-8.355 0-6.017 3.564-12.405 10.913-12.405 4.046 0 6.308 2.266 6.308 5.423 0 5.088-6.53 6.647-10.317 6.684zm.149-3.677c1.298 0 4.564-.594 4.564-2.45 0-.892-.63-1.336-1.373-1.336-1.3 0-3.005 1.558-3.191 3.786z"/><path id="muw7c" d="M347.73 659.357c0 .743-.113 1.82-.225 2.524l-2.116 13.37h-6.866l1.93-12.256c.037-.333.15-1.002.15-1.373 0-.892-.558-1.114-1.227-1.114-.89 0-1.781.408-2.375.706l-2.189 14.037h-6.904l3.154-20.018h5.976l.075 1.598c1.41-.928 3.267-1.932 5.9-1.932 3.49 0 4.717 1.783 4.717 4.458z"/><path id="muw7d" d="M368.112 657.09c1.967-1.41 3.823-2.191 6.384-2.191 3.525 0 4.751 1.783 4.751 4.458 0 .743-.112 1.82-.224 2.524l-2.113 13.37h-6.868l1.967-12.515c.036-.335.112-.743.112-1.002 0-1.004-.557-1.226-1.227-1.226-.853 0-1.705.37-2.338.706l-2.188 14.037h-6.866l1.966-12.515c.037-.335.11-.743.11-1.002 0-1.004-.557-1.226-1.224-1.226-.892 0-1.781.408-2.375.706l-2.19 14.037h-6.903l3.154-20.017h5.903l.185 1.67c1.374-1 3.228-2.005 5.715-2.005 2.153 0 3.563.928 4.27 2.19z"/><path id="muw7e" d="M381.035 667.118c0-6.313 3.34-12.22 11.024-12.22 5.79 0 7.906 3.418 7.906 8.135 0 6.24-3.304 12.701-11.173 12.701-5.827 0-7.757-3.826-7.757-8.616zm11.876-4.197c0-1.634-.408-2.748-1.632-2.748-2.71 0-3.266 4.79-3.266 7.24 0 1.86.52 3.01 1.743 3.01 2.562 0 3.155-5.051 3.155-7.502z"/></defs><g><g transform="translate(-290 -654)"><g><use fill="#b0b1cd" xlink:href="#muw7a"/></g><g><use fill="#b0b1cd" xlink:href="#muw7b"/></g><g><use fill="#b0b1cd" xlink:href="#muw7c"/></g><g><use fill="#b0b1cd" xlink:href="#muw7d"/></g><g><use fill="#b0b1cd" xlink:href="#muw7e"/></g></g></g></svg>
