<svg xmlns="http://www.w3.org/2000/svg" xmlns:xlink="http://www.w3.org/1999/xlink" width="82" height="35" viewBox="0 0 82 35"><defs><path id="7mwva" d="M663.793 673.244c3.262 0 6.183.05 9.1-.026 1.101-.03 1.721.305 2.15 1.328.296.71.872 1.301 1.318 1.949.196.286.38.581.77 1.178h-7.974v4.667h-4.465c0-1.213-.037-2.401.013-3.586.033-.78-.238-1.064-1.028-1.046-1.838.044-3.678-.008-5.516.03-.817.017-1.057-.28-1.13-1.107-.168-1.859.365-3.325 1.573-4.794 3.476-4.23 6.792-8.593 10.168-12.906.205-.261.39-.538.686-.951-.405-.048-.676-.106-.947-.107-3.227-.008-6.455-.033-9.682.006-.907.01-1.328-.248-1.249-1.209.061-.746.054-1.502.012-2.25-.045-.804.324-1.048 1.075-1.035 1.688.03 3.378-.02 5.066.02.743.018.993-.261.97-.982-.04-1.19-.011-2.382-.011-3.729 1.39 0 2.658-.033 3.92.036.191.01.492.489.51.766.063.971.058 1.951.012 2.925-.033.724.215 1 .96.983 1.726-.041 3.453.012 5.179-.026.826-.018 1.06.295 1.125 1.116.14 1.776-.367 3.188-1.516 4.595-3.347 4.094-6.542 8.311-9.795 12.48-.362.465-.72.932-1.294 1.675z"/><path id="7mwvb" d="M690.254 665.697c-.501-2.538-2.332-3.848-4.825-3.724-2.19.11-4.192 1.864-4.07 3.724zm-9.023 3.772c.039 1.902 1.11 3.385 2.848 3.878 2.453.695 4.783.427 6.76-1.307.649-.568 1.028-.552 1.532.113.611.805 1.295 1.555 2.077 2.483-.64.949-1.854 1.716-3.145 2.377-4.489 2.296-10.458 1.156-13.335-2.52-3.576-4.571-2.566-14.523 5.333-16.285 6.651-1.483 11.99 2.85 11.878 9.664-.026 1.512-.107 1.595-1.592 1.595-3.716.002-7.432.001-11.148.002h-1.208z"/><path id="7mwvc" d="M730.41 665.675c-.325-2.4-2.115-3.786-4.627-3.691-2.373.089-4.094 1.553-4.244 3.691zm-8.908 3.789c-.109 2.046 1.246 3.672 3.43 4.064 2.27.408 4.431.089 6.198-1.559.554-.516.894-.474 1.373.08.536.62 1.148 1.186 1.78 1.71.47.387.627.702.136 1.176-3.323 3.208-7.292 3.882-11.579 2.707-3.837-1.052-5.971-3.83-6.47-7.691-.545-4.238.383-8.116 4.257-10.526 3.423-2.129 7.123-2.124 10.57-.022 3.361 2.048 4.311 5.387 4.18 9.14-.03.855-.524.93-1.199.928-3.79-.014-7.58-.007-11.37-.007h-1.306z"/><path id="7mwvd" d="M707.695 662.873c0-3.529.027-7.058-.018-10.586-.012-.936.287-1.295 1.223-1.212.708.063 1.433.08 2.137 0 1.067-.118 1.416.231 1.407 1.35-.053 6.306-.025 12.613-.022 18.92 0 .374-.01.752.03 1.124.08.785.483 1.294 1.323 1.176.783-.11 1.132.235 1.439.907.308.675.855 1.239 1.175 1.91.127.266.055.855-.148 1.015-2.505 1.974-7.625.325-8.344-2.684-.18-.756-.193-1.564-.198-2.348-.021-3.19-.01-6.382-.01-9.572z"/><path id="7mwve" d="M697.627 662.576c0-3.414.03-6.827-.019-10.24-.014-.99.301-1.358 1.29-1.26a11.34 11.34 0 0 0 2.249 0c1.022-.104 1.264.323 1.258 1.287-.04 6.189-.027 12.378-.028 18.567 0 .487.003.976.028 1.462.044.854.48 1.382 1.359 1.26.914-.126 1.162.284 1.289 1.092.109.692.376 1.375.67 2.017.295.645.178 1.108-.52 1.12-1.552.025-3.159.162-4.645-.177-1.701-.389-2.75-1.742-2.782-3.547-.068-3.859-.02-7.72-.02-11.58z"/><path id="7mwvf" d="M735.574 653.663a1.5 1.5 0 0 1 .345-.033c.394 0 .575.164.575.41 0 .28-.28.395-.625.395h-.295zm-.017 1.215h.296c.345 0 .51.132.559.428.082.312.131.558.213.657h.674c-.066-.099-.115-.263-.197-.674-.082-.361-.23-.558-.493-.657v-.033c.329-.099.558-.328.558-.624a.748.748 0 0 0-.262-.592c-.198-.115-.427-.197-.937-.197-.443 0-.789.033-1.035.082v2.695h.624zm.428-2.48c1.199 0 2.07.969 2.07 2.168 0 1.183-.871 2.136-2.054 2.136-1.216 0-2.103-.953-2.103-2.152 0-1.183.887-2.152 2.087-2.152zm0-.543c-1.545 0-2.777 1.2-2.777 2.695 0 1.528 1.232 2.727 2.777 2.727 1.56 0 2.76-1.199 2.76-2.727 0-1.495-1.2-2.695-2.76-2.695z"/></defs><g><g transform="translate(-657 -648)"><g><g><g><use fill="#b0b1cd" xlink:href="#7mwva"/></g><g><use fill="#b0b1cd" xlink:href="#7mwvb"/></g><g><use fill="#b0b1cd" xlink:href="#7mwvc"/></g><g><use fill="#b0b1cd" xlink:href="#7mwvd"/></g><g><use fill="#b0b1cd" xlink:href="#7mwve"/></g></g></g><g><g><use fill="#b0b1cd" xlink:href="#7mwvf"/></g></g></g></g></svg>