<svg xmlns="http://www.w3.org/2000/svg" xmlns:xlink="http://www.w3.org/1999/xlink" width="43" height="31" viewBox="0 0 43 31"><defs><path id="rjxba" d="M610.106 215.32h-7.754a3.246 3.246 0 0 1-3.235-3.235 3.246 3.246 0 0 1 3.235-3.234h7.754zm-7.73-7.482a4.22 4.22 0 0 0-4.222 4.223 4.237 4.237 0 0 0 4.223 4.222h8.741v-8.445z"/><path id="rjxbb" d="M603.957 212.06c0 .692-.568 1.235-1.235 1.235a1.238 1.238 0 0 1-1.234-1.234c0-.667.568-1.235 1.234-1.235.667 0 1.235.543 1.235 1.235z"/><path id="rjxbc" d="M608.797 208.332v-4.272a5.76 5.76 0 0 0-5.754-5.753h-29.706v28.125h29.706a5.76 5.76 0 0 0 5.754-5.753v-4.865h-.988v4.865a4.769 4.769 0 0 1-4.766 4.766h-28.718v-26.151h28.718a4.769 4.769 0 0 1 4.766 4.766v4.272z"/><path id="rjxbd" d="M593.413 201.788H578.202v.988H601.463v-.988h-6.667z"/><path id="rjxbe" d="M578.202 222.679v-.988h23.261v.988z"/><path id="rjxbf" d="M603 222.5a6.5 6.5 0 1 1 13 0 6.5 6.5 0 0 1-13 0z"/></defs><g><g transform="translate(-573 -198)"><g><g><g><g><g><g><g><use fill="#f7941d" xlink:href="#rjxba"/></g></g></g></g></g><g><g><g><g><g><use fill="#f7941d" xlink:href="#rjxbb"/></g></g></g></g></g><g><g><use fill="#f7941d" xlink:href="#rjxbc"/></g><g><use fill="#f7941d" xlink:href="#rjxbd"/></g></g><g><g><g><g><g><use fill="#f7941d" xlink:href="#rjxbe"/></g></g></g></g></g></g></g><g><use fill="#f7941d" xlink:href="#rjxbf"/></g><g><g><text fill="#fff" style="font-kerning:normal" dominant-baseline="text-before-edge" font-family="'Mukta','Mukta-Bold'" font-size="10" font-style="none" font-weight="700" letter-spacing="-.8" transform="translate(607 214)"><tspan>$</tspan></text></g></g></g></g></svg>