<svg width="80" height="93" viewBox="0 0 80 93" fill="none" xmlns="http://www.w3.org/2000/svg">
<path opacity="0.6" d="M56.5591 44.591C54.9853 41.1813 55.9033 37.0503 56.5591 35.411C57.3241 34.8646 59.1819 33.1815 60.4934 30.821C62.1327 27.8702 62.4605 24.5916 62.4605 21.3131C62.4605 18.6902 62.8977 15.193 63.1162 13.7723C61.5425 1.7071 52.6248 0.439387 48.3626 1.31368C32.9532 0.00223792 35.5761 18.0345 35.5761 23.9359C35.5761 28.6571 38.6361 33.116 40.1661 34.7553C40.494 37.4874 40.494 43.0173 37.8711 43.2796C34.5925 43.6075 19.1832 48.8532 16.5603 52.7875C14.462 55.935 13.0631 62.6233 12.626 65.574L35.2482 89.1798C37.2154 95.737 79.1813 93.1142 79.5092 86.8848C79.8371 80.6555 79.8371 57.0497 77.542 52.7875C75.706 49.3778 73.717 48.7439 72.952 48.8532C69.8046 47.5418 60.7119 45.4653 56.5591 44.591Z" fill="#FFE37B"/>
<path fill-rule="evenodd" clip-rule="evenodd" d="M35.9065 12.9475C35.9072 16.0374 36.0415 22.8302 36.5488 25.8741C36.7811 27.2679 37.5276 28.8916 38.424 30.4016C39.2503 31.7935 40.1594 33.0152 40.782 33.7617L47.3185 36.8743C47.8467 36.9232 48.6007 36.9762 49.3199 36.9928C49.7203 37.002 50.0967 36.9996 50.4109 36.9809C50.7478 36.9609 50.935 36.926 51.0018 36.9038C51.1101 36.8677 51.3788 36.7436 51.8049 36.5186C52.2077 36.3058 52.6943 36.0336 53.2072 35.7386C54.2132 35.1599 55.2975 34.5067 56.0035 34.0728C59.9085 31.125 61.0533 27.1473 61.1486 25.6513C61.2593 23.5479 61.4749 19.3132 61.4749 18.8232C61.4749 18.6389 61.5008 18.328 61.5297 17.9917C61.5361 17.9168 61.543 17.8382 61.5501 17.756C61.5775 17.4405 61.6096 17.0714 61.6417 16.6563C61.7216 15.6258 61.8004 14.3322 61.8027 12.9804C61.169 7.77038 59.0268 5.10013 56.5586 3.67685C54.0101 2.20728 50.9566 1.97173 48.3628 1.97173C43.389 1.97173 40.3706 3.77539 38.5499 5.98281C36.7044 8.2203 36.0125 10.9692 35.9065 12.9475ZM39.2492 35.0022C38.5636 34.1776 37.603 32.8812 36.7285 31.4081C35.7889 29.8253 34.8961 27.9518 34.6039 26.1982C34.0634 22.9556 33.9347 15.9641 33.9347 12.9218V12.8965L33.936 12.8713C34.053 10.5892 34.8384 7.38379 37.0288 4.7282C39.2517 2.03321 42.8451 0 48.3628 0C51.0148 0 54.5185 0.224381 57.5435 1.96875C60.6398 3.75415 63.0809 7.03735 63.7675 12.8052L63.7745 12.8633V12.9218C63.7745 14.3665 63.6905 15.7389 63.6076 16.8086C63.5746 17.2338 63.5416 17.6145 63.5141 17.9305C63.5071 18.0115 63.5004 18.0883 63.4942 18.1605C63.4616 18.5396 63.4466 18.7452 63.4466 18.8232C63.4466 19.382 63.2253 23.7088 63.1174 25.7601L63.1171 25.7649L63.1168 25.7698C62.9918 27.7698 61.6063 32.3354 57.1508 35.677L57.1145 35.7042L57.076 35.7279C56.3598 36.1687 55.2364 36.846 54.1903 37.4478C53.6677 37.7484 53.1583 38.0336 52.7258 38.262C52.3165 38.4782 51.9104 38.6793 51.6253 38.7743C51.2986 38.8832 50.893 38.9275 50.5277 38.9492C50.1397 38.9722 49.7047 38.9739 49.2745 38.964C48.4133 38.9442 47.5187 38.8766 46.9533 38.82L46.7825 38.8029L41.3814 36.231C41.5216 38.8628 40.6926 40.8475 39.6725 42.1835C41.0233 42.8895 42.9431 43.6704 45.143 44.1547C47.9797 44.7792 51.2078 44.8946 54.2582 43.7965C54.7705 43.6121 55.3353 43.8779 55.5197 44.3901C55.7041 44.9024 55.4383 45.4672 54.9261 45.6517C51.4193 46.9141 47.7901 46.7564 44.7191 46.0803C42.0384 45.4902 39.7264 44.4931 38.2021 43.6277C38.025 43.7539 37.8508 43.8625 37.683 43.9528L37.6141 43.9899L23.3127 48.9788L23.1756 48.9868C21.3503 49.0942 19.807 50.2391 18.5332 51.8647C17.2664 53.4814 16.3746 55.4413 15.8457 56.8694C15.6566 57.38 15.0894 57.6406 14.5788 57.4515C14.0682 57.2624 13.8076 56.6952 13.9967 56.1846C14.5606 54.6619 15.5376 52.4909 16.9812 50.6486C18.3917 48.8485 20.3537 47.2329 22.9175 47.0284L36.8105 42.182C36.9916 42.0774 37.2145 41.9189 37.455 41.7C38.5586 40.6954 39.9133 38.5297 39.2492 35.0022Z" fill="#FFBE1B"/>
<path d="M1.49243 64.3794C1.49243 63.143 2.49469 62.1407 3.73104 62.1407H44.026C45.2624 62.1407 46.2646 63.143 46.2646 64.3794V89.0041C46.2646 90.2404 45.2624 91.2427 44.026 91.2427H3.73104C2.49469 91.2427 1.49243 90.2404 1.49243 89.0041V64.3794Z" fill="#6857E5"/>
<path fill-rule="evenodd" clip-rule="evenodd" d="M3.73102 60.6483H44.026C46.0866 60.6483 47.757 62.3187 47.757 64.3793V89.004C47.757 91.0646 46.0866 92.7351 44.026 92.7351H3.73102C1.67043 92.7351 0 91.0646 0 89.004V64.3793C0 62.3187 1.67043 60.6483 3.73102 60.6483ZM3.73102 62.1407C2.49467 62.1407 1.49241 63.143 1.49241 64.3793V89.004C1.49241 90.2404 2.49467 91.2427 3.73102 91.2427H44.026C45.2624 91.2427 46.2646 90.2404 46.2646 89.004V64.3793C46.2646 63.143 45.2624 62.1407 44.026 62.1407H3.73102Z" fill="#303392"/>
<rect x="5.22339" y="70.349" width="20.8937" height="2.23861" rx="1.11931" fill="#FFE37B"/>
<rect x="5.22339" y="77.0648" width="23.8785" height="2.23861" rx="1.11931" fill="#FFE37B"/>
<rect x="5.22339" y="83.7806" width="8.20824" height="2.23861" rx="1.11931" fill="#FFE37B"/>
<rect x="14.9243" y="83.7806" width="17.9089" height="2.23861" rx="1.11931" fill="#FFE37B"/>
<path d="M34.3252 68.4394C34.3252 67.0214 35.4747 65.8718 36.8928 65.8718H55.9892C57.4072 65.8718 58.5568 67.0214 58.5568 68.4394V78.2283C58.5568 79.6464 57.4072 80.7959 55.9892 80.7959H36.8928C35.4747 80.7959 34.3252 79.6464 34.3252 78.2283V68.4394Z" fill="#FFE37B"/>
<mask id="path-10-inside-1" fill="white">
<path fill-rule="evenodd" clip-rule="evenodd" d="M55.9892 66.6742H36.8928C35.9179 66.6742 35.1276 67.4645 35.1276 68.4394V78.2283C35.1276 79.2032 35.9179 79.9935 36.8928 79.9935H55.9892C56.9641 79.9935 57.7544 79.2032 57.7544 78.2283V68.4394C57.7544 67.4645 56.9641 66.6742 55.9892 66.6742ZM36.8928 65.8718C35.4747 65.8718 34.3252 67.0214 34.3252 68.4394V78.2283C34.3252 79.6464 35.4747 80.7959 36.8928 80.7959H55.9892C57.4072 80.7959 58.5568 79.6464 58.5568 78.2283V68.4394C58.5568 67.0214 57.4072 65.8718 55.9892 65.8718H36.8928Z"/>
</mask>
<path fill-rule="evenodd" clip-rule="evenodd" d="M55.9892 66.6742H36.8928C35.9179 66.6742 35.1276 67.4645 35.1276 68.4394V78.2283C35.1276 79.2032 35.9179 79.9935 36.8928 79.9935H55.9892C56.9641 79.9935 57.7544 79.2032 57.7544 78.2283V68.4394C57.7544 67.4645 56.9641 66.6742 55.9892 66.6742ZM36.8928 65.8718C35.4747 65.8718 34.3252 67.0214 34.3252 68.4394V78.2283C34.3252 79.6464 35.4747 80.7959 36.8928 80.7959H55.9892C57.4072 80.7959 58.5568 79.6464 58.5568 78.2283V68.4394C58.5568 67.0214 57.4072 65.8718 55.9892 65.8718H36.8928Z" fill="#303392"/>
<path d="M36.8928 76.6742H55.9892V56.6742H36.8928V76.6742ZM45.1276 68.4394C45.1276 72.9874 41.4407 76.6742 36.8928 76.6742V56.6742C30.395 56.6742 25.1276 61.9417 25.1276 68.4394H45.1276ZM45.1276 78.2283V68.4394H25.1276V78.2283H45.1276ZM36.8928 69.9935C41.4407 69.9935 45.1276 73.6804 45.1276 78.2283H25.1276C25.1276 84.7261 30.395 89.9935 36.8928 89.9935V69.9935ZM55.9892 69.9935H36.8928V89.9935H55.9892V69.9935ZM47.7544 78.2283C47.7544 73.6804 51.4412 69.9935 55.9892 69.9935V89.9935C62.4869 89.9935 67.7544 84.7261 67.7544 78.2283H47.7544ZM47.7544 68.4394V78.2283H67.7544V68.4394H47.7544ZM55.9892 76.6742C51.4412 76.6742 47.7544 72.9874 47.7544 68.4394H67.7544C67.7544 61.9417 62.4869 56.6742 55.9892 56.6742V76.6742ZM44.3252 68.4394C44.3252 72.5442 40.9976 75.8718 36.8928 75.8718V55.8718C29.9519 55.8718 24.3252 61.4985 24.3252 68.4394H44.3252ZM44.3252 78.2283V68.4394H24.3252V78.2283H44.3252ZM36.8928 70.7959C40.9976 70.7959 44.3252 74.1235 44.3252 78.2283H24.3252C24.3252 85.1692 29.9519 90.7959 36.8928 90.7959V70.7959ZM55.9892 70.7959H36.8928V90.7959H55.9892V70.7959ZM48.5568 78.2283C48.5568 74.1235 51.8844 70.7959 55.9892 70.7959V90.7959C62.9301 90.7959 68.5568 85.1692 68.5568 78.2283H48.5568ZM48.5568 68.4394V78.2283H68.5568V68.4394H48.5568ZM55.9892 75.8718C51.8844 75.8718 48.5568 72.5442 48.5568 68.4394H68.5568C68.5568 61.4985 62.9301 55.8718 55.9892 55.8718V75.8718ZM36.8928 75.8718H55.9892V55.8718H36.8928V75.8718Z" fill="#303392" mask="url(#path-10-inside-1)"/>
<path d="M40.2546 73.7809C39.1404 73.7809 38.2371 74.5535 38.2371 76.3788H42.2722C42.2722 74.5535 41.3689 73.7809 40.2546 73.7809Z" fill="#303392"/>
<path d="M41.5404 72.1648C41.5404 72.8721 40.967 73.4455 40.2597 73.4455C39.5524 73.4455 38.979 72.8721 38.979 72.1648C38.979 71.4574 39.5524 70.884 40.2597 70.884C40.967 70.884 41.5404 71.4574 41.5404 72.1648Z" fill="#303392"/>
<path d="M35.1282 68.4394C35.1282 67.4645 35.9185 66.6742 36.8934 66.6742H55.9898C56.9647 66.6742 57.755 67.4645 57.755 68.4394V69.1615H35.1282V68.4394Z" fill="#6857E5"/>
<path d="M40.9434 68.3592H40.7554V67.4465H40.9434V68.3592Z" fill="white"/>
<path d="M41.3109 68.3592V67.4465H41.5917C41.672 67.4465 41.7436 67.4647 41.8067 67.501C41.8702 67.537 41.9198 67.5884 41.9553 67.6552C41.9908 67.7217 42.0086 67.7973 42.0086 67.8822V67.9242C42.0086 68.009 41.991 68.0844 41.9559 68.1505C41.9212 68.2165 41.8721 68.2677 41.8086 68.304C41.7451 68.3404 41.6734 68.3588 41.5936 68.3592H41.3109ZM41.4989 67.5988V68.2081H41.5898C41.6634 68.2081 41.7196 68.1841 41.7585 68.136C41.7973 68.088 41.8172 68.0192 41.818 67.9298V67.8815C41.818 67.7888 41.7988 67.7186 41.7603 67.6709C41.7219 67.6229 41.6657 67.5988 41.5917 67.5988H41.4989Z" fill="white"/>
<path d="M42.8875 67.9636H42.5265V68.2081H42.9502V68.3592H42.3384V67.4465H42.949V67.5988H42.5265V67.8163H42.8875V67.9636Z" fill="white"/>
<path d="M43.9953 68.3592H43.8073L43.4412 67.7587V68.3592H43.2531V67.4465H43.4412L43.8079 68.0483V67.4465H43.9953V68.3592Z" fill="white"/>
<path d="M45.0203 67.5988H44.7408V68.3592H44.5527V67.5988H44.2769V67.4465H45.0203V67.5988Z" fill="white"/>
<path d="M45.5207 68.3592H45.3326V67.4465H45.5207V68.3592Z" fill="white"/>
<path d="M46.5564 67.5988H46.2768V68.3592H46.0887V67.5988H45.8129V67.4465H46.5564V67.5988Z" fill="white"/>
<path d="M47.1815 67.8577L47.3714 67.4465H47.577L47.2774 68.0282V68.3592H47.0862V68.0282L46.7866 67.4465H46.9928L47.1815 67.8577Z" fill="white"/>
<path d="M49.0817 68.0552C49.0746 68.1534 49.0382 68.2307 48.9726 68.2871C48.9074 68.3435 48.8214 68.3717 48.7144 68.3717C48.5974 68.3717 48.5052 68.3324 48.4379 68.2539C48.3711 68.1749 48.3376 68.0667 48.3376 67.9292V67.8734C48.3376 67.7856 48.3531 67.7083 48.384 67.6414C48.4149 67.5746 48.459 67.5234 48.5163 67.4879C48.574 67.4519 48.6408 67.434 48.7169 67.434C48.8222 67.434 48.907 67.4622 48.9714 67.5186C49.0357 67.575 49.0729 67.6542 49.083 67.7562H48.8949C48.8903 67.6972 48.8738 67.6546 48.8454 67.6283C48.8174 67.6015 48.7746 67.5882 48.7169 67.5882C48.6542 67.5882 48.6072 67.6107 48.5758 67.6559C48.5449 67.7006 48.529 67.7702 48.5282 67.8646V67.9336C48.5282 68.0322 48.543 68.1043 48.5727 68.1498C48.6028 68.1954 48.65 68.2182 48.7144 68.2182C48.7725 68.2182 48.8157 68.205 48.8441 68.1787C48.873 68.1519 48.8895 68.1108 48.8937 68.0552H49.0817Z" fill="white"/>
<path d="M49.913 68.1711H49.5833L49.5206 68.3592H49.3207L49.6604 67.4465H49.8347L50.1763 68.3592H49.9764L49.913 68.1711ZM49.6341 68.0188H49.8623L49.7476 67.6772L49.6341 68.0188Z" fill="white"/>
<path d="M50.792 68.0251H50.6422V68.3592H50.4541V67.4465H50.7933C50.9011 67.4465 50.9842 67.4705 51.0427 67.5186C51.1013 67.5666 51.1305 67.6346 51.1305 67.7223C51.1305 67.7846 51.1169 67.8366 51.0898 67.8784C51.063 67.9198 51.0223 67.9528 50.9675 67.9774L51.165 68.3504V68.3592H50.9631L50.792 68.0251ZM50.6422 67.8728H50.7939C50.8411 67.8728 50.8777 67.8608 50.9036 67.837C50.9295 67.8128 50.9425 67.7796 50.9425 67.7374C50.9425 67.6943 50.9301 67.6605 50.9055 67.6358C50.8812 67.6111 50.8438 67.5988 50.7933 67.5988H50.6422V67.8728Z" fill="white"/>
<path d="M51.4666 68.3592V67.4465H51.7475C51.8277 67.4465 51.8994 67.4647 51.9625 67.501C52.026 67.537 52.0755 67.5884 52.111 67.6552C52.1465 67.7217 52.1643 67.7973 52.1643 67.8822V67.9242C52.1643 68.009 52.1468 68.0844 52.1117 68.1505C52.077 68.2165 52.0279 68.2677 51.9643 68.304C51.9008 68.3404 51.8292 68.3588 51.7493 68.3592H51.4666ZM51.6547 67.5988V68.2081H51.7456C51.8191 68.2081 51.8753 68.1841 51.9142 68.136C51.9531 68.088 51.9729 68.0192 51.9737 67.9298V67.8815C51.9737 67.7888 51.9545 67.7186 51.9161 67.6709C51.8776 67.6229 51.8214 67.5988 51.7475 67.5988H51.6547Z" fill="white"/>
<rect x="44.4351" y="70.9268" width="10.6715" height="1.12332" rx="0.561659" fill="#FFBE1B"/>
<rect x="44.4351" y="73.0129" width="8.9063" height="1.12332" rx="0.561659" fill="#FFBE1B"/>
<rect x="44.4043" y="75.1752" width="10.66" height="0.969095" rx="0.484548" fill="#FFBE1B"/>
<rect x="36.4575" y="78.4701" width="19.9634" height="0.581457" rx="0.290729" fill="#6857E5"/>
<path d="M41.414 66.9911L39.1754 68.8566L36.1906 66.9911L32.8327 67.3642L31.3403 65.4986L28.3555 65.8717L26.1169 64.3793H23.8783L21.6396 63.26V55.4249L22.3859 54.6787C25.0722 53.7832 25.9925 55.3005 26.1169 56.1711L26.8631 53.9325C30.221 52.8132 31.3403 54.6787 31.3403 56.1711L31.7134 52.067L33.2058 51.6939C35.8175 50.9477 36.5637 52.9376 36.5637 53.5594L37.683 53.1863C40.6678 53.1863 41.414 55.1762 41.414 56.1711V66.9911Z" fill="#FFE37B"/>
<path d="M22.4537 54.6787C21.8025 54.6787 21.6396 55.4871 21.6396 55.8913V62.2079C21.6396 63.4072 22.6119 64.3794 23.8111 64.3794H24.1556C24.8904 64.3794 25.5955 64.0888 26.1169 63.571V63.571" stroke="#FFBE1B" stroke-width="2" stroke-linecap="round"/>
<path d="M27.0664 53.9325C26.3066 53.9325 26.1167 54.9274 26.1167 55.4249V63.3771C26.1167 64.7549 27.2336 65.8718 28.6113 65.8718H29.015C29.8934 65.8718 30.7336 65.5122 31.3401 64.8768V64.8768" stroke="#FFBE1B" stroke-width="2" stroke-linecap="round"/>
<path d="M36.5638 66.0583V66.0583C35.9671 66.8787 35.0138 67.3641 33.9994 67.3641H33.6521C32.3753 67.3641 31.3403 66.3291 31.3403 65.0524V53.6526C31.3403 53.136 31.3403 52.444 31.8109 51.9929C32.082 51.7331 32.4828 51.6938 32.8582 51.6938H33.952" stroke="#FFBE1B" stroke-width="2" stroke-linecap="round"/>
<path d="M41.4138 56.5442V66.4314C41.4138 67.7708 40.328 68.8566 38.9886 68.8566V68.8566C37.6493 68.8566 36.5635 67.7708 36.5635 66.4314V55.1451C36.5635 54.6284 36.5635 53.9365 37.0341 53.4853C37.3051 53.2255 37.7059 53.1863 38.0813 53.1863H39.1752" stroke="#FFBE1B" stroke-width="2" stroke-linecap="round"/>
<path opacity="0.35" d="M42.4609 1.96939C46.9198 8.78885 57.8703 11.5866 62.7882 12.133C62.7882 10.8216 61.8046 7.2807 57.8703 3.60868C53.936 -0.0633395 45.9581 0.985809 42.4609 1.96939Z" fill="#FFBE1B"/>
<path fill-rule="evenodd" clip-rule="evenodd" d="M42.0767 1.76393C42.3713 1.55184 42.782 1.6187 42.9941 1.91328C45.2495 5.04576 48.9962 7.30863 52.8377 8.85978C56.6682 10.4065 60.5113 11.2129 62.8622 11.48C63.2229 11.521 63.482 11.8466 63.4411 12.2073C63.4001 12.5679 63.0745 12.8271 62.7138 12.7861C60.2561 12.5068 56.2962 11.6739 52.3455 10.0787C48.4058 8.48783 44.3932 6.10603 41.9274 2.68134C41.7153 2.38676 41.7822 1.97603 42.0767 1.76393Z" fill="#FFBE1B"/>
<path opacity="0.35" d="M43.4448 10.4938C41.6088 11.8053 37.2154 12.3517 35.2483 12.461C35.7729 5.11695 40.0569 2.62522 42.1333 2.29736C44.2316 4.65795 46.9419 6.55953 48.0348 7.21525C48.0348 8.00211 44.9748 9.72883 43.4448 10.4938Z" fill="#FFBE1B"/>
<path fill-rule="evenodd" clip-rule="evenodd" d="M43.9796 10.1117C44.1906 10.4071 44.1222 10.8176 43.8268 11.0285C42.7847 11.7729 41.1036 12.2573 39.5244 12.5726C37.9158 12.8938 36.2944 13.061 35.2848 13.1171C34.9224 13.1372 34.6122 12.8598 34.5921 12.4973C34.572 12.1349 34.8494 11.8248 35.2119 11.8046C36.1694 11.7514 37.7283 11.5908 39.2671 11.2836C40.8354 10.9705 42.2689 10.526 43.0628 9.9589C43.3582 9.74792 43.7686 9.81633 43.9796 10.1117Z" fill="#FFBE1B"/>
</svg>
