<svg width="310" height="136" viewBox="0 0 310 136" fill="none" xmlns="http://www.w3.org/2000/svg">
<path d="M309.957 135.957C269.036 129.371 215.607 121.202 157.113 120.731C96.6553 120.247 41.5335 127.803 0 134.147C0 134.147 59.8814 124.096 157.134 124.88C254.387 125.664 310 136 310 136" fill="#FF8E00"/>
<path d="M88.2591 106.567V106.652H106.514L106.6 95.732V95.6179V94.8053V94.2921V74.8891C106.6 59.7487 107.61 48.2438 100.595 40.4028C100.51 40.2887 100.41 40.1889 100.325 40.0891L99.9977 39.6899C99.6705 39.362 99.3432 39.0484 98.9875 38.749L98.5749 38.4924C98.3614 38.3071 98.1196 38.1645 97.8919 37.9792L97.3512 37.58C96.0982 36.6871 94.7588 35.923 93.353 35.299C92.7554 35.0281 92.1578 34.7715 91.5601 34.5434L91.2329 34.4293C86.9192 32.9049 82.3886 32.0866 77.8153 32.0057C76.2643 31.9202 74.685 31.8632 73.006 31.8632C68.8041 31.9363 64.6116 32.2889 60.4563 32.9181C56.1961 33.463 51.9982 34.4179 47.9208 35.7694V49.199C51.3647 47.9896 54.928 47.1532 58.5496 46.7041C62.3759 46.0745 66.2412 45.7126 70.1176 45.6206C73.7922 45.4661 77.4695 45.8553 81.0309 46.7754C82.0947 47.0882 83.0755 47.6343 83.9024 48.374C84.7293 49.1137 85.3815 50.0287 85.8118 51.0523C86.5174 52.725 86.9128 54.5125 86.9785 56.3272L87.192 60.7894H72.508C69.2319 60.7894 65.888 60.9463 62.6181 61.3353C56.7086 62.0385 51.7057 63.7263 47.9208 67.4757C42.9977 72.3372 42.2294 79.8075 42.2294 84.669C42.2294 84.8258 42.2294 84.9683 42.2294 85.1252C42.2326 86.2168 42.3038 87.3071 42.4428 88.3899C42.5282 89.117 42.5993 89.5447 42.5993 89.5447C43.4264 94.0139 45.7932 98.0503 49.2868 100.95C54.0296 104.97 60.3472 106.98 68.2394 106.98C75.3519 107.224 82.3592 105.208 88.2591 101.221V105.883V106.567ZM80.4191 92.4957C77.9372 93.0637 75.3947 93.3223 72.8495 93.2656C69.6597 93.4474 66.4991 92.5704 63.8569 90.7707C62.7939 89.9702 61.9416 88.9224 61.3739 87.7176C60.8062 86.5127 60.54 85.1875 60.5986 83.8563C60.5374 82.5334 60.8231 81.2173 61.4273 80.0392C62.0313 78.8612 62.9328 77.8621 64.0419 77.1416C66.347 75.6019 69.4488 74.9603 74.998 74.9603L87.5619 74.775L87.9745 89.0314C85.6161 90.498 83.076 91.6483 80.4191 92.453V92.4957Z" fill="white"/>
<path d="M87.1921 60.7039L79.0218 60.7736L87.5645 74.8748L87.1921 60.7039Z" fill="#FF8E00"/>
<path d="M87.5701 74.8748L70.5679 75.1414L79.0162 60.7625L87.5701 74.8748Z" fill="#EA0000"/>
<path d="M62.6191 61.3312C65.6848 60.9776 68.7676 60.792 71.8535 60.7752H79.0106L75.0265 67.5898L70.5729 75.1457L62.6191 61.3312Z" fill="#6C54EE"/>
<path d="M116.631 106.652H135.014V33.6024L116.631 44.7082V106.652Z" fill="white"/>
<path d="M157.837 66.5348L186.181 33.3458H163.97L136.195 66.5348L165.307 107.023H187.518L157.837 66.5348Z" fill="white"/>
<path d="M135.014 11.6333L116.674 22.6209L116.631 0.55603L135.014 11.6333Z" fill="#FF8E00"/>
<path d="M135.015 11.6332V33.6028L116.677 22.6154L135.015 11.6332Z" fill="#EA0000"/>
<path d="M135.019 33.5973L116.674 44.6845V22.6094L135.019 33.5973Z" fill="#6C54EE"/>
<path d="M262.802 46.6898C259.742 40.9814 254.898 36.4346 249.015 33.745C243.634 31.3419 237.83 30.0336 231.94 29.8958C224.409 29.8958 218.656 30.9151 214.577 32.968L196.141 44.0952V106.638H210.498L210.683 100.693C216.561 104.33 223.312 106.301 230.219 106.396C242.104 106.396 251.33 102.974 257.894 96.1311C264.457 89.288 267.744 79.9168 267.754 68.0174C267.959 60.6001 266.254 53.2549 262.802 46.6898ZM243.366 86.2086C239.571 90.1149 234.179 92.068 227.188 92.068C222.699 92.1697 218.288 90.8856 214.553 88.3899V46.7896C218.705 44.9547 223.223 44.101 227.757 44.2947C241.929 44.2947 249.015 52.5445 249.015 69.0439C249.015 76.5808 247.132 82.3024 243.366 86.2086Z" fill="white"/>
<path d="M196.141 44.0947V22.142L214.582 32.9624L196.141 44.0947Z" fill="#6C54EE"/>
<path d="M214.577 11.071L196.135 22.1365V0L214.577 11.071Z" fill="#FF8E00"/>
<path d="M214.581 11.0773V32.968L196.141 22.1365L214.581 11.0773Z" fill="#EA0000"/>
</svg>
