<svg width="154" height="70" viewBox="0 0 154 70" fill="none" xmlns="http://www.w3.org/2000/svg">
<path d="M0.0327735 9.89697H51.0253C58.4317 9.89697 63.7406 11.3389 67.0178 14.2228C70.295 17.1067 71.9008 21.793 71.9008 28.3146V60.2013H58.53V30.0515C58.53 26.3483 57.9729 23.9232 56.8586 22.7434C55.7444 21.5636 53.4504 20.9737 49.9438 20.9737H42.4719V60.2341H28.9045V20.941H13.3708V60.2013H0V9.89697H0.0327735Z" fill="#434142"/>
<path d="M94.5134 60.103H80.5854V9.79871H94.5134V60.103Z" fill="#434142"/>
<path d="M147.996 14.5505C144.588 11.47 139.541 9.89702 132.889 9.83147V0H122.369V9.83147H105.262V20.22H127.449C129.579 20.22 131.381 20.3511 132.889 20.6133C134.593 20.9082 135.904 21.3998 136.821 22.0225C138.591 23.235 139.443 25.3324 139.443 28.3146V29.5599H121.976C114.799 29.5599 109.654 30.8052 106.573 33.2959C103.493 35.7865 101.952 39.883 101.952 45.5852C101.952 50.206 103.296 53.7781 105.983 56.3015C108.67 58.8249 112.505 60.0702 117.519 60.0702H122.369V70H132.889V60.0702H144.457C149.34 59.8081 153.207 55.7444 153.207 50.7959V28.5768C153.207 22.383 151.47 17.6966 147.996 14.5505ZM139.541 46.4373C139.541 48.4036 137.968 49.9766 136.002 49.9766H122.926C122.729 49.9766 122.566 49.9766 122.369 49.9766C119.747 49.9438 118.01 49.5833 117.125 48.9279C116.175 48.2397 115.716 46.9944 115.716 45.2247C115.716 43.1273 116.306 41.6854 117.486 40.8333C118.469 40.1451 120.108 39.7191 122.402 39.6208C122.893 39.588 123.385 39.588 123.909 39.588H139.574V46.4373H139.541Z" fill="#70A63B"/>
</svg>
