<svg width="39" height="28" viewBox="0 0 39 28" fill="none" xmlns="http://www.w3.org/2000/svg">
<g clip-path="url(#clip0)">
<path d="M35 0H3.5C1.567 0 0 1.567 0 3.5V24.5C0 26.433 1.567 28 3.5 28H35C36.933 28 38.5 26.433 38.5 24.5V3.5C38.5 1.567 36.933 0 35 0Z" fill="white"/>
<path d="M24.3777 7.15869H15.6064V20.8388H24.3777V7.15869Z" fill="#6C6BBD"/>
<path d="M16.51 13.9997C16.5089 12.6824 16.8216 11.3822 17.4245 10.1974C18.0273 9.01251 18.9045 7.97413 19.9895 7.16082C18.6455 6.15221 17.0316 5.52499 15.332 5.3509C13.6323 5.17679 11.9157 5.46283 10.3783 6.17629C8.84086 6.88976 7.54464 8.00189 6.63777 9.38554C5.73092 10.7692 5.25 12.3686 5.25 14.0009C5.25 15.6333 5.73092 17.2326 6.63777 18.6162C7.54464 20 8.84086 21.1121 10.3783 21.8256C11.9157 22.539 13.6323 22.825 15.332 22.651C17.0316 22.4769 18.6455 21.8497 19.9895 20.841C18.9042 20.0274 18.0267 18.9886 17.4239 17.8034C16.821 16.6182 16.5085 15.3174 16.51 13.9997Z" fill="#EB001B"/>
<path d="M33.86 19.3915V19.1111H33.9866V19.0532H33.6854V19.1111H33.8042V19.3915H33.86ZM34.4445 19.3915V19.0532H34.3534L34.2471 19.2947L34.1409 19.0532H34.0497V19.3915H34.1155V19.1353L34.2142 19.3553H34.2827L34.3814 19.1353V19.3915H34.4445Z" fill="#0099DF"/>
<path d="M34.7305 13.9997C34.7305 15.6322 34.2494 17.2317 33.3424 18.6154C32.4354 19.9991 31.139 21.1112 29.6014 21.8245C28.0637 22.538 26.3469 22.8238 24.6472 22.6495C22.9476 22.475 21.3334 21.8476 19.9895 20.8386C21.0742 20.0246 21.9511 18.986 22.5542 17.8011C23.1572 16.6161 23.4705 15.3159 23.4705 13.9985C23.4705 12.6811 23.1572 11.3809 22.5542 10.196C21.9511 9.01109 21.0742 7.97245 19.9895 7.15841C21.3334 6.14948 22.9476 5.52196 24.6472 5.34761C26.3469 5.17327 28.0637 5.45912 29.6014 6.17247C31.139 6.88584 32.4354 7.99795 33.3424 9.38166C34.2494 10.7654 34.7305 12.3649 34.7305 13.9973V13.9997Z" fill="#0099DF"/>
</g>
<defs>
<clipPath id="clip0">
<rect width="38.5" height="28" fill="white"/>
</clipPath>
</defs>
</svg>
