<svg width="40" height="28" viewBox="0 0 40 28" fill="none" xmlns="http://www.w3.org/2000/svg">
<path d="M36.3636 0H3.63636C1.62806 0 0 1.567 0 3.5V24.5C0 26.433 1.62806 28 3.63636 28H36.3636C38.3719 28 40 26.433 40 24.5V3.5C40 1.567 38.3719 0 36.3636 0Z" fill="white"/>
<path d="M25.3275 7.15869H16.2145V20.8388H25.3275V7.15869Z" fill="#FF5F00"/>
<path d="M17.1532 13.9997C17.1521 12.6824 17.477 11.3822 18.1033 10.1974C18.7297 9.01251 19.6411 7.97413 20.7684 7.16082C19.372 6.15221 17.6952 5.52499 15.9293 5.3509C14.1635 5.17679 12.38 5.46283 10.7827 6.17629C9.18532 6.88976 7.8386 8.00189 6.8964 9.38554C5.95421 10.7692 5.45456 12.3686 5.45456 14.0009C5.45456 15.6333 5.95421 17.2326 6.8964 18.6162C7.8386 20 9.18532 21.1121 10.7827 21.8256C12.38 22.539 14.1635 22.825 15.9293 22.651C17.6952 22.4769 19.372 21.8497 20.7684 20.841C19.6407 20.0274 18.7291 18.9886 18.1028 17.8034C17.4764 16.6182 17.1517 15.3174 17.1532 13.9997Z" fill="#EB001B"/>
<path d="M35.1793 19.3915V19.1111H35.3107V19.0532H34.9978V19.1111H35.1213V19.3915H35.1793ZM35.7865 19.3915V19.0532H35.6918L35.5815 19.2947L35.4711 19.0532H35.3764V19.3915H35.4447V19.1353L35.5473 19.3553H35.6184L35.7209 19.1353V19.3915H35.7865Z" fill="#F79E1B"/>
<path d="M36.0836 13.9997C36.0836 15.6322 35.5838 17.2317 34.6415 18.6154C33.6991 19.9991 32.3522 21.1112 30.7547 21.8245C29.1571 22.538 27.3735 22.8238 25.6075 22.6495C23.8416 22.475 22.1646 21.8476 20.7684 20.8386C21.8953 20.0246 22.8064 18.986 23.4329 17.8011C24.0595 16.6161 24.3849 15.3159 24.3849 13.9985C24.3849 12.6811 24.0595 11.3809 23.4329 10.196C22.8064 9.01109 21.8953 7.97245 20.7684 7.15841C22.1646 6.14948 23.8416 5.52196 25.6075 5.34761C27.3735 5.17327 29.1571 5.45912 30.7547 6.17247C32.3522 6.88584 33.6991 7.99795 34.6415 9.38166C35.5838 10.7654 36.0836 12.3649 36.0836 13.9973V13.9997Z" fill="#F79E1B"/>
</svg>
