<svg width="40" height="28" viewBox="0 0 40 28" fill="none" xmlns="http://www.w3.org/2000/svg">
<path d="M36.3636 0H3.63636C1.62806 0 0 1.567 0 3.5V24.5C0 26.433 1.62806 28 3.63636 28H36.3636C38.3719 28 40 26.433 40 24.5V3.5C40 1.567 38.3719 0 36.3636 0Z" fill="white"/>
<path d="M19.8626 5.60496C13.9128 5.60496 7.96308 5.60146 2.01459 5.61314C1.63322 5.61429 1.50652 5.54895 1.51793 5.17091C1.55087 4.12312 1.53946 3.07298 1.52173 2.02401C1.51666 1.74281 1.59394 1.65647 1.90942 1.6623C2.98509 1.68097 4.06077 1.6693 5.13769 1.6693C15.9768 1.6693 26.8158 1.67163 37.6549 1.66113C38.0693 1.66113 38.2149 1.73231 38.1996 2.14653C38.1616 3.15115 38.168 4.15694 38.1971 5.16157C38.2073 5.52212 38.1111 5.61429 37.7118 5.61314C31.7622 5.60029 25.8124 5.60496 19.8626 5.60496Z" fill="#1A1F71"/>
<path d="M19.8094 26.155C13.89 26.155 7.97067 26.1503 2.05258 26.1655C1.60786 26.1665 1.50777 26.05 1.51917 25.6625C1.54831 24.6579 1.54451 23.6509 1.52044 22.6464C1.51284 22.3102 1.60279 22.2112 1.98288 22.2122C5.79652 22.2262 9.61141 22.2205 13.425 22.2205C21.4971 22.2205 29.5676 22.2252 37.6396 22.21C38.1084 22.2087 38.2136 22.322 38.1984 22.7362C38.1629 23.7256 38.168 24.7186 38.1971 25.708C38.2073 26.0675 38.1109 26.1655 37.7093 26.1643C31.7418 26.1503 25.7756 26.155 19.8094 26.155Z" fill="#F6B500"/>
<path d="M26.2089 19.0716C27.3707 15.9633 28.4996 12.9086 29.6589 9.86552C29.8578 9.34162 30.086 9.04876 30.8842 9.09776C31.3567 9.12693 31.8369 9.13626 32.3069 9.09193C32.6389 9.06043 32.7251 9.24362 32.7618 9.44081C32.9987 10.715 33.2065 11.9938 33.4409 13.2679C33.6702 14.5118 33.9249 15.7533 34.1644 16.9959C34.2745 17.5689 34.3811 18.1429 34.4811 18.7181C34.5204 18.9433 34.4925 19.1021 34.1516 19.0798C33.6791 19.0483 33.2027 19.0566 32.7289 19.0776C32.4489 19.0903 32.3107 18.9783 32.3069 18.7484C32.3031 18.5163 32.1916 18.3074 32.1916 18.0706C32.1916 17.7239 32.0282 17.5374 31.5658 17.5712C30.8424 17.6237 30.1113 17.5922 29.384 17.5804C29.1838 17.5769 29.0862 17.6109 29.0369 17.8127C28.9482 18.1686 28.7809 18.5093 28.7036 18.8663C28.6656 19.0413 28.6073 19.0741 28.4415 19.0728C27.7129 19.0693 26.9856 19.0716 26.2089 19.0716ZM31.0158 11.7954C30.6218 13.0124 30.2595 14.1617 29.8731 15.3029C29.792 15.5421 29.8667 15.5806 30.0935 15.5759C30.5369 15.5689 30.9804 15.5607 31.4225 15.5782C31.7153 15.5899 31.7571 15.5012 31.7038 15.2492C31.4656 14.1221 31.2516 12.9902 31.0158 11.7954Z" fill="#1A1F71"/>
<path d="M11.8515 15.8395C12.0771 15.2327 12.2722 14.738 12.447 14.2362C13.0261 12.5712 13.5949 10.9027 14.1765 9.23763C14.2221 9.10694 14.3032 9.00427 14.5122 9.00894C15.2382 9.02644 15.9655 9.01594 16.7206 9.01594C16.2708 10.2574 15.8413 11.4732 15.3915 12.6821C14.6415 14.696 13.8686 16.7029 13.1325 18.7215C13.0337 18.9923 12.931 19.0948 12.6282 19.0773C12.2494 19.0553 11.8693 19.0728 11.4892 19.0728C10.4237 19.0728 10.4579 19.0668 10.2602 18.0984C9.9574 16.6095 9.60392 15.13 9.26816 13.647C9.09838 12.8991 8.85132 12.1593 8.76643 11.4032C8.65621 10.4161 7.9771 9.99606 7.08389 9.71486C6.72152 9.60167 6.3617 9.48499 6.00061 9.36715C5.94487 9.34965 5.81943 9.39748 5.85998 9.28431C5.88278 9.21896 5.88278 9.09877 6.02089 9.10344C6.1311 9.10694 6.24259 9.10229 6.35283 9.10229C7.49185 9.10229 8.63214 9.10229 9.77116 9.10229C10.3071 9.10229 10.8532 9.52584 10.9292 10.0217C11.156 11.5024 11.3726 12.9854 11.5994 14.4661C11.6615 14.8827 11.7502 15.2946 11.8515 15.8395Z" fill="#1A1F71"/>
<path d="M22.2535 19.2549C21.4298 19.2759 20.6533 19.1194 19.9145 18.7987C19.7764 18.7392 19.7169 18.6622 19.7549 18.4942C19.8791 17.9387 19.964 17.3763 20.0793 16.8186C20.1185 16.6307 20.1856 16.5304 20.4544 16.6704C21.0929 17.0029 21.7935 17.1569 22.5373 17.1534C22.8604 17.1523 23.1555 17.0508 23.4229 16.9399C24.064 16.6715 24.1171 15.8186 23.5395 15.4335C23.1922 15.2014 22.8362 14.9808 22.4751 14.765C21.7162 14.3123 21.046 13.7767 20.804 12.9121C20.5709 12.079 20.7367 11.296 21.174 10.5691C21.8075 9.51314 22.84 9.06859 24.1171 8.90524C24.9065 8.8049 25.6173 8.96942 26.3458 9.12343C26.6702 9.19228 26.9109 9.3428 26.7309 9.76868C26.5725 10.1444 26.5573 10.575 26.5105 10.9833C26.4725 11.3054 26.4167 11.4921 25.996 11.289C25.2929 10.9507 24.5327 10.918 23.7827 11.1117C23.0516 11.2995 22.892 11.9296 23.4089 12.4185C23.8562 12.8421 24.4251 13.1209 24.9445 13.4465C26.4395 14.3846 26.6335 15.9481 26.0189 17.2374C25.3069 18.7322 23.9144 19.228 22.2535 19.2549Z" fill="#1A1F71"/>
<path d="M20.0007 9.10342C19.6967 10.7556 19.4053 12.3891 19.0949 14.0204C18.8236 15.4439 18.5184 16.8616 18.2587 18.2862C18.2131 18.5372 18.2549 18.9047 18.0939 19.0084C17.8887 19.1404 17.5212 19.0657 17.2235 19.0704C16.8764 19.0762 16.5267 19.0517 16.1808 19.0774C15.8729 19.1007 15.8324 18.9572 15.8716 18.7424C16.0047 18.0155 16.139 17.2886 16.2809 16.5617C16.4887 15.5022 16.7104 14.4451 16.9118 13.3844C17.1728 12.0158 17.4262 10.6448 17.667 9.27261C17.6974 9.09992 17.7835 9.10107 17.9153 9.10107C18.6096 9.10342 19.3051 9.10342 20.0007 9.10342Z" fill="#1A1F71"/>
<path d="M31.0158 11.7954C31.2515 12.9902 31.4656 14.122 31.7038 15.2492C31.7569 15.5012 31.714 15.5899 31.4226 15.5782C30.9804 15.5607 30.5369 15.5689 30.0935 15.5759C29.8655 15.5794 29.7918 15.5421 29.8729 15.3028C30.2595 14.1617 30.6218 13.0136 31.0158 11.7954Z" fill="#FEFEFE"/>
</svg>
