<svg width="326" height="262" viewBox="0 0 326 262" fill="none" xmlns="http://www.w3.org/2000/svg">
<g clip-path="url(#clip0)">
<path d="M189.408 29.9518C168.508 29.3501 148.604 23.7296 129.61 17.5798C110.616 11.43 91.7608 4.62799 71.3619 1.37036C58.2426 -0.724733 43.2395 -1.02088 32.6684 4.83593C22.4942 10.4722 19.2089 20.2041 17.4418 29.2367C16.1094 36.0292 15.3282 43.1809 18.9726 49.5386C21.4925 53.9493 25.9938 57.6638 29.0996 61.8918C39.9038 76.6078 32.2684 94.7516 20.557 109.118C15.0636 115.857 8.69131 122.287 4.45153 129.461C0.211754 136.635 -1.74119 144.861 1.95995 152.17C5.6359 159.416 14.3958 164.87 23.8865 168.704C43.1608 176.485 65.8748 178.713 88.0218 179.976C137.047 182.768 186.337 181.551 235.494 180.348C253.685 179.901 271.958 179.447 289.855 177.103C299.793 175.802 310.053 173.738 317.26 168.754C326.42 162.428 328.688 151.713 322.552 143.78C312.258 130.472 283.808 127.167 276.598 112.886C272.635 105.025 276.705 96.267 282.46 88.9767C294.807 73.3376 315.505 59.6171 316.595 41.7411C317.342 29.4541 307.394 17.167 292.01 11.3575C275.886 5.26755 253.524 6.03312 241.611 16.1148C229.387 26.4926 207.86 30.4969 189.408 29.9518Z" fill="#F7FAFF"/>
<path d="M137.163 262C187.743 262 228.747 257.864 228.747 252.763C228.747 247.661 187.743 243.525 137.163 243.525C86.5826 243.525 45.5792 247.661 45.5792 252.763C45.5792 257.864 86.5826 262 137.163 262Z" fill="#F7FAFF"/>
<path opacity="0.05" d="M137.163 262C187.743 262 228.747 257.864 228.747 252.763C228.747 247.661 187.743 243.525 137.163 243.525C86.5826 243.525 45.5792 247.661 45.5792 252.763C45.5792 257.864 86.5826 262 137.163 262Z" fill="black"/>
<path d="M53.3815 251.761C53.3815 251.761 49.3181 228.734 34.2364 217.323C27.9082 212.534 23.2778 206.022 21.2556 198.606C20.3039 195.092 19.6942 191.494 19.4349 187.862" stroke="#535461" stroke-width="2" stroke-miterlimit="10"/>
<path d="M9.97894 180.616C11.2389 183.083 19.6586 188.076 19.6586 188.076C19.6586 188.076 20.717 178.748 19.4476 176.278C18.1782 173.808 15.0377 172.777 12.417 173.975C9.79624 175.172 8.70952 178.146 9.97894 180.616Z" fill="#6857E5"/>
<path d="M9.17572 197.877C11.6641 199.298 21.599 199.172 21.599 199.172C21.599 199.172 17.1166 190.798 14.6377 189.377C12.1587 187.956 8.91742 188.706 7.41176 191.053C5.90611 193.4 6.69044 196.457 9.17572 197.877Z" fill="#6857E5"/>
<path d="M21.5265 221.104C24.4307 221.145 32.9386 216.299 32.9386 216.299C32.9386 216.299 24.5945 211.208 21.6872 211.164C18.7798 211.12 16.389 213.312 16.3323 216.056C16.2756 218.801 18.6191 221.053 21.5265 221.104Z" fill="#6857E5"/>
<path d="M35.0585 236.676C37.9123 237.183 47.1668 233.762 47.1668 233.762C47.1668 233.762 39.8527 227.404 37.002 226.906C34.1513 226.409 31.3952 228.167 30.8597 230.876C30.3242 233.586 32.2015 236.172 35.0585 236.676Z" fill="#6857E5"/>
<path d="M31.7857 195.095C30.7935 197.675 22.966 203.46 22.966 203.46C22.966 203.46 20.8934 194.285 21.8856 191.705C22.8778 189.125 25.8986 187.792 28.6295 188.728C31.3605 189.664 32.778 192.518 31.7857 195.095Z" fill="#6857E5"/>
<path d="M47.3683 213.507C45.6044 215.69 36.3058 218.998 36.3058 218.998C36.3058 218.998 37.2508 209.657 39.0022 207.477C39.8869 206.419 41.138 205.734 42.5056 205.559C43.8732 205.384 45.2566 205.731 46.3793 206.532C46.9243 206.907 47.3855 207.392 47.7338 207.955C48.0821 208.518 48.3099 209.147 48.4029 209.802C48.4958 210.458 48.4519 211.126 48.2738 211.763C48.0957 212.401 47.7874 212.995 47.3683 213.507Z" fill="#6857E5"/>
<path d="M59.9113 233.365C58.5632 235.797 49.9923 240.542 49.9923 240.542C49.9923 240.542 49.2394 231.188 50.5876 228.756C51.9358 226.324 55.114 225.385 57.6906 226.658C60.2673 227.93 61.2563 230.933 59.9113 233.365Z" fill="#6857E5"/>
<path opacity="0.25" d="M9.97894 180.616C11.2389 183.083 19.6586 188.076 19.6586 188.076C19.6586 188.076 20.717 178.748 19.4476 176.278C18.1782 173.808 15.0377 172.777 12.417 173.975C9.79624 175.172 8.70952 178.146 9.97894 180.616Z" fill="black"/>
<path opacity="0.25" d="M9.17572 197.877C11.6641 199.298 21.599 199.172 21.599 199.172C21.599 199.172 17.1166 190.798 14.6377 189.377C12.1587 187.956 8.91742 188.706 7.41176 191.053C5.90611 193.4 6.69044 196.457 9.17572 197.877Z" fill="black"/>
<path opacity="0.25" d="M21.5265 221.104C24.4307 221.145 32.9386 216.299 32.9386 216.299C32.9386 216.299 24.5945 211.208 21.6872 211.164C18.7798 211.12 16.389 213.312 16.3323 216.056C16.2756 218.801 18.6191 221.053 21.5265 221.104Z" fill="black"/>
<path opacity="0.25" d="M35.0585 236.676C37.9123 237.183 47.1668 233.762 47.1668 233.762C47.1668 233.762 39.8527 227.404 37.002 226.906C34.1513 226.409 31.3952 228.167 30.8597 230.876C30.3242 233.586 32.2015 236.172 35.0585 236.676Z" fill="black"/>
<path opacity="0.25" d="M31.7857 195.095C30.7935 197.675 22.966 203.46 22.966 203.46C22.966 203.46 20.8934 194.285 21.8856 191.705C22.8778 189.125 25.8986 187.792 28.6295 188.728C31.3605 189.664 32.778 192.518 31.7857 195.095Z" fill="black"/>
<path opacity="0.25" d="M47.3683 213.507C45.6044 215.69 36.3058 218.998 36.3058 218.998C36.3058 218.998 37.2508 209.657 39.0022 207.477C39.8869 206.419 41.138 205.734 42.5056 205.559C43.8732 205.384 45.2566 205.731 46.3793 206.532C46.9243 206.907 47.3855 207.392 47.7338 207.955C48.0821 208.518 48.3099 209.147 48.4029 209.802C48.4958 210.458 48.4519 211.126 48.2738 211.763C48.0957 212.401 47.7874 212.995 47.3683 213.507Z" fill="black"/>
<path opacity="0.25" d="M59.9113 233.365C58.5632 235.797 49.9923 240.542 49.9923 240.542C49.9923 240.542 49.2394 231.188 50.5876 228.756C51.9358 226.324 55.114 225.385 57.6906 226.658C60.2673 227.93 61.2563 230.933 59.9113 233.365Z" fill="black"/>
<path d="M52.8713 251.156C52.8713 251.156 59.0356 228.548 50.1466 212.341C46.4171 205.543 44.9776 197.817 46.3132 190.263C46.9543 186.67 47.9406 183.149 49.2583 179.746" stroke="#535461" stroke-width="2" stroke-miterlimit="10"/>
<path d="M43.7208 169.504C43.8216 172.245 49.3686 180.03 49.3686 180.03C49.3686 180.03 54.3391 171.904 54.2383 169.16C54.1375 166.416 51.7026 164.271 48.7984 164.365C45.8942 164.46 43.6168 166.76 43.7208 169.504Z" fill="#6857E5"/>
<path d="M35.5814 184.979C37.2446 187.229 46.3793 190.915 46.3793 190.915C46.3793 190.915 45.8753 181.545 44.2122 179.292C43.371 178.201 42.1488 177.468 40.7903 177.24C39.4318 177.011 38.0371 177.304 36.8855 178.061C36.3258 178.412 35.8448 178.876 35.4726 179.422C35.1004 179.968 34.8451 180.585 34.7227 181.235C34.6003 181.885 34.6133 182.552 34.7611 183.197C34.9089 183.841 35.1882 184.448 35.5814 184.979Z" fill="#6857E5"/>
<path d="M36.9043 210.93C39.544 212.08 49.4032 210.908 49.4032 210.908C49.4032 210.908 43.957 203.057 41.3173 201.907C38.6777 200.757 35.553 201.844 34.334 204.336C33.115 206.828 34.2679 209.78 36.9043 210.93Z" fill="#6857E5"/>
<path d="M42.59 230.353C44.9871 231.91 54.9124 232.323 54.9124 232.323C54.9124 232.323 50.9498 223.719 48.5559 222.165C47.4022 221.414 46.007 221.126 44.6501 221.359C43.2931 221.593 42.0746 222.331 41.2387 223.426C40.8459 223.96 40.5682 224.57 40.4232 225.217C40.2781 225.865 40.2687 226.535 40.3957 227.186C40.5227 227.837 40.7832 228.454 41.1609 229C41.5386 229.545 42.0252 230.006 42.59 230.353Z" fill="#6857E5"/>
<path d="M57.4449 191.088C55.4289 193.066 45.7902 195.363 45.7902 195.363C45.7902 195.363 47.8345 186.179 49.8473 184.201C50.8434 183.246 52.1624 182.701 53.5418 182.676C54.9212 182.65 56.2597 183.145 57.2905 184.062C57.786 184.499 58.1855 185.033 58.4639 185.632C58.7424 186.231 58.8936 186.881 58.9081 187.541C58.9226 188.201 58.8001 188.857 58.5482 189.468C58.2964 190.078 57.9207 190.63 57.4449 191.088Z" fill="#6857E5"/>
<path d="M63.7762 213.882C61.228 215.202 51.3089 214.669 51.3089 214.669C51.3089 214.669 56.1692 206.478 58.7175 205.167C61.2658 203.857 64.4661 204.73 65.8615 207.137C67.2569 209.544 66.3371 212.562 63.7762 213.882Z" fill="#6857E5"/>
<path d="M66.734 236.837C64.4566 238.545 54.5848 239.603 54.5848 239.603C54.5848 239.603 57.9111 230.76 60.1885 229.052C61.2955 228.23 62.6717 227.857 64.0422 228.006C65.4127 228.155 66.6765 228.815 67.5813 229.855C68.0091 230.359 68.3281 230.945 68.5182 231.578C68.7082 232.211 68.7653 232.876 68.6857 233.532C68.6061 234.188 68.3916 234.82 68.0557 235.389C67.7198 235.958 67.2698 236.451 66.734 236.837Z" fill="#6857E5"/>
<path d="M312.537 119.14C312.726 118.623 311.309 115.759 311.309 115.617C311.309 115.476 309.844 113.878 309.844 112.987C309.844 112.095 307.904 110.17 307.904 110.17C307.904 110.17 305.305 109.089 305.022 106.742C304.738 104.395 301.906 104.345 301.9 104.345C301.9 104.345 301.9 104.131 301.919 103.806C301.919 103.075 301.897 101.771 301.569 101.059C301.232 100.411 300.654 99.9208 299.96 99.6946C299.96 99.6946 299.676 97.8641 299.109 97.3002C298.792 96.9692 298.565 96.563 298.449 96.1198C298.333 95.6766 298.331 95.2111 298.445 94.7672C298.728 93.8756 298.067 91.6167 296.693 91.3016C295.32 90.9866 293.764 90.4573 293.764 90.4573C293.764 90.4573 293.609 90.4856 293.386 90.5171L293.197 90.4573C292.868 90.5179 292.535 90.559 292.201 90.5801C291.912 90.5904 291.628 90.4965 291.401 90.3155C290.926 89.7988 287.095 88.8127 286.387 88.8127C285.678 88.8127 283.643 87.8675 283.643 87.8675L281.615 86.3175C281.045 85.8827 279.989 84.1121 279.835 83.8632L279.816 83.8286C279.642 83.4285 279.499 83.0156 279.388 82.5936C280.079 81.8705 280.67 81.0578 281.145 80.1771C281.196 80.0858 281.24 79.9913 281.284 79.8999C281.391 79.8981 281.497 79.8811 281.599 79.8495C281.64 79.8495 281.681 79.818 281.722 79.8022C282.201 79.5497 282.562 79.1185 282.727 78.6019C282.761 78.5011 282.793 78.3971 282.818 78.2868C282.818 78.2522 282.818 78.2144 282.84 78.1797C282.862 78.1451 282.871 78.0379 282.884 77.9655C282.897 77.893 282.9 77.8836 282.906 77.8458C282.912 77.808 282.928 77.704 282.938 77.6315C282.947 77.5591 282.938 77.5528 282.938 77.5149C282.938 77.4236 282.96 77.3354 282.972 77.2472C283.004 76.914 283.054 76.5827 283.12 76.2547C283.404 74.9945 284.169 73.9045 284.714 72.7262C284.793 72.5592 284.865 72.3859 284.931 72.2126C284.998 72.0394 285.064 71.8346 285.117 71.6424L285.165 71.466C285.199 71.3273 285.231 71.1856 285.259 71.0438C285.259 70.9808 285.284 70.9178 285.294 70.8548C285.325 70.6594 285.354 70.4641 285.369 70.2656C285.471 69.1404 285.31 68.007 284.9 66.9544C284.544 66.0723 284.018 65.2784 283.659 64.3962C283.114 63.0604 282.972 61.5607 282.308 60.2753C281.196 58.1393 278.575 57.0713 276.42 57.8746C275.39 58.2558 274.499 58.9994 273.456 59.3333C272.058 59.7775 270.565 59.4436 269.119 59.242C267.673 59.0403 266.073 59.0246 264.911 59.9697C263.572 61.0567 263.203 63.1013 261.947 64.2954C261.421 64.7963 260.762 65.1177 260.205 65.5808C259.813 65.8946 259.512 66.3066 259.332 66.7748C259.332 66.8095 259.31 66.841 259.301 66.8757C259.291 66.9103 259.279 66.9544 259.269 66.9954C259.26 67.0363 259.25 67.0899 259.244 67.1372C259.238 67.1844 259.244 67.2033 259.244 67.2348C259.238 67.3187 259.238 67.403 259.244 67.4869C259.253 67.5664 259.267 67.6453 259.285 67.7232C259.285 67.7452 259.285 67.7673 259.285 67.7893C259.285 67.8114 259.323 67.9185 259.345 67.9846C259.343 67.9972 259.343 68.0099 259.345 68.0224C259.37 68.0949 259.398 68.1642 259.427 68.2367L259.474 68.3438L259.512 68.432C259.696 68.7786 259.843 69.1441 259.95 69.5221C260.008 69.7613 259.994 70.0126 259.909 70.2436C259.78 70.505 259.602 70.7384 259.383 70.9304C258.442 71.9092 257.716 73.0734 257.25 74.3487C257.197 74.4936 257.143 74.6385 257.096 74.7898L257.162 74.8055C257.297 74.8468 257.435 74.8773 257.575 74.8969C257.653 74.8969 257.732 74.9158 257.814 74.9221C258.137 74.9391 258.461 74.9137 258.778 74.8465C258.857 74.8307 258.938 74.8118 259.017 74.7898C259.342 74.7001 259.658 74.5832 259.962 74.4401C259.962 74.5346 259.962 74.6322 259.962 74.7268C259.962 74.8213 259.962 74.8339 259.962 74.8874C259.965 76.9646 260.548 78.9998 261.643 80.7645C262.739 82.5292 264.304 83.9536 266.164 84.8777C266.164 84.9785 266.193 85.0825 266.205 85.1928C266.218 85.303 266.227 85.3629 266.237 85.448L266.111 85.3251C266.111 85.3251 265.257 84.9029 264.454 86.1222C263.651 87.3414 262.139 87.9085 262.139 87.9085C262.139 87.9085 253.533 89.2695 253.202 90.3974L249.183 90.6305C249.183 90.6305 247.763 90.8196 247.608 93.7811C247.454 96.7425 246.71 97.0229 246.71 97.0229C246.71 97.0229 245.057 99.934 245.199 101.434C245.34 102.933 243.939 103.689 243.939 103.689L243.75 106.364C243.75 106.364 242.175 106.131 241.762 107.962C241.349 109.792 240.581 110.639 240.581 110.639C240.581 110.639 237.979 112.801 237.837 114.631L236.231 115.617C236.231 115.617 232.495 114.773 231.644 113.27L231.383 113.024C231.374 113.013 231.367 113 231.361 112.987C231.36 112.993 231.36 112.999 231.361 113.006C230.8 112.476 229.616 111.374 229.786 111.626C229.896 111.862 229.923 112.128 229.862 112.382L229.584 112.067L228.841 111.241C228.841 111.241 222.803 105.57 219.256 105.136C219.209 105.044 218.982 104.153 218.377 104.71C217.875 105.169 217.473 105.728 217.197 106.35C216.921 106.972 216.777 107.645 216.774 108.326C216.77 109.006 216.908 109.68 217.178 110.305C217.448 110.93 217.844 111.492 218.342 111.956L223.996 117.24L224.141 117.347L225.357 118.922C225.152 119.414 224.979 119.889 224.837 120.324C224.837 120.324 224.837 120.353 224.822 120.365C224.793 120.46 224.762 120.548 224.734 120.636L224.705 120.731C224.68 120.819 224.652 120.907 224.626 120.989C224.601 121.071 224.598 121.093 224.582 121.143C224.567 121.194 224.582 121.203 224.557 121.232C224.425 121.704 224.337 122.066 224.293 122.268L223.978 122.17L224.293 122.303C224.293 122.318 224.293 122.337 224.293 122.353L224.274 122.451L224.563 122.577C226.22 123.298 234.489 126.924 234.914 127.476C235.387 128.084 238.505 129.87 241.343 128.367C244.181 126.865 244.808 124.562 244.808 124.562C244.808 124.562 247.548 120.759 247.643 120.195C247.737 119.631 249.867 118.973 249.867 118.973C249.867 118.973 250.056 125.274 248.969 127.567C247.882 129.861 245.847 140.062 245.847 140.062C245.98 140.036 246.116 140.027 246.251 140.037C246.175 140.406 246.131 140.626 246.131 140.626C246.296 140.596 246.466 140.596 246.632 140.626C246.481 141.785 245.611 147.167 245.611 147.167C245.611 147.167 245.328 149.608 244.855 150.453C244.383 151.297 244.335 155.714 244.335 155.714L243.579 158.905C243.666 159.094 243.761 159.278 243.866 159.457C243.866 159.457 244.679 161.259 246.043 162.27C245.98 162.772 245.852 163.264 245.662 163.732C245.366 164.444 245.236 165.215 245.284 165.985C245.284 165.985 244.48 169.601 244.575 170.635C244.669 171.668 244.055 174.204 244.055 174.204L243.176 182.352C243.176 182.352 242.609 189.443 242.893 191.371C243.176 193.3 242.701 195.924 242.701 195.924C242.701 195.924 243.268 201.513 243.126 202.124C242.984 202.735 242.275 205.363 242.701 206.822C243.126 208.28 242.893 212.269 242.893 212.269C242.893 212.269 243.176 217.527 243.504 219.219C243.831 220.911 243.409 223.072 243.409 223.072C243.409 223.072 243.094 226.686 242.937 226.686C242.779 226.686 241.567 229.174 244.071 231.619C246.575 234.064 245.016 233.683 245.016 233.683C245.016 233.683 243.031 232.697 243.264 234.716C243.491 236.638 243.803 236.137 243.831 236.084L243.359 237.627L243.674 237.675L243.4 237.99C243.116 238.348 242.8 238.679 242.455 238.979C241.885 239.401 241.825 240.34 241.825 240.34C241.825 240.34 238.329 244.146 235.065 246.071C233.349 247.085 231.868 247.942 231.222 248.651C230.64 249.281 230.734 249.804 231.944 250.204C234.498 251.049 238.987 251.464 242.203 250.393C244.12 249.752 245.844 248.637 247.214 247.151C247.214 247.151 249.249 246.118 251.237 246.493C253.224 246.868 257.193 244.288 257.193 244.288L257.121 243.62L256.91 241.701C256.776 241.539 256.678 241.352 256.621 241.15C256.564 240.948 256.55 240.737 256.579 240.529C256.603 239.961 256.546 239.393 256.412 238.84C256.381 238.654 256.343 238.468 256.308 238.295L256.67 238.229C256.67 238.229 256.201 235.832 257.052 235.362C257.902 234.893 257.663 228.746 257.663 228.746C257.663 228.746 256.579 227.338 256.009 227.105C255.439 226.871 255.962 223.954 256.059 223.579C256.157 223.204 256.91 215.923 256.91 215.923C256.91 215.923 256.626 213.624 257.004 212.637C257.382 211.651 256.551 207.871 256.551 207.871C256.551 207.871 256.267 207.401 256.79 206.837C257.313 206.273 257.105 201.248 257.105 201.248C257.105 201.248 257.061 198.712 257.061 198.054C257.061 197.395 257.628 195.001 258.148 194.204C258.668 193.407 258.337 190.915 258.337 190.915L258.365 190.729C258.365 190.656 258.39 190.568 258.409 190.461L258.45 190.212C258.681 188.828 258.993 187.46 259.386 186.113C260.016 184.141 260.709 180.666 260.709 180.666L265.119 169.198L265.169 169.063C265.169 169.063 267.201 172.821 267.201 176.309C267.201 176.309 267.72 180.49 267.579 181.617C267.437 182.745 267.998 188.022 267.998 188.022C267.998 188.022 268.612 195.631 268.612 195.962C268.612 196.293 269.368 202.162 269.843 203.054C270.319 203.945 269.368 206.67 269.084 206.951C268.801 207.231 269.179 214.137 269.179 214.137C269.179 214.137 268.47 219.584 268.328 220.712C268.187 221.84 267.62 226.163 268.092 227.851C268.565 229.54 268.376 229.776 268.376 229.776C268.376 229.776 270.08 231.515 269.084 231.667C268.722 231.745 268.382 231.901 268.085 232.122C267.788 232.343 267.542 232.626 267.363 232.95C267.184 233.274 267.076 233.633 267.047 234.002C267.018 234.372 267.068 234.743 267.194 235.091C267.783 236.813 268.479 238.497 269.276 240.132C269.276 240.132 269.569 240.066 270.058 239.968V240.526L270.114 243.323C270.114 243.323 270.429 246.001 270.256 246.613C270.117 247.06 269.941 249.164 269.837 250.264C269.802 250.664 269.784 250.932 269.784 250.932C269.784 250.932 269.784 253.421 275.031 252.671C280.279 251.921 281.224 249.854 281.224 249.854C281.224 249.854 281.224 249.757 281.262 249.596C281.341 249.12 281.511 248.112 281.649 247.551C281.838 246.798 280.137 243.418 280.137 243.418C280.137 243.418 279.854 241.118 279.378 240.601C279.183 240.303 279.054 239.967 279 239.615C278.956 239.426 278.918 239.228 278.887 239.036C279.004 239.051 279.121 239.072 279.236 239.099C279.236 239.099 278.953 237.454 280.043 236.937C281.133 236.421 280.846 235.343 280.704 234.871C280.563 234.398 281.13 231.77 281.13 231.77C281.053 231.509 281.048 231.233 281.115 230.969C281.181 230.706 281.317 230.465 281.508 230.271C282.172 229.609 282.689 225.01 282.689 225.01L282.783 207.256C282.783 207.256 283.117 204.106 282.739 202.846C282.361 201.585 281.98 199.137 282.5 198.479C283.02 197.821 282.547 194.771 282.547 194.771C282.547 194.771 282.547 188.334 283.259 186.74C283.971 185.146 283.731 175.045 283.731 175.045L283.917 168.429C283.917 168.429 285.464 166.968 285.098 159.346C286.746 159.242 288.604 159.183 288.878 159.409C289.398 159.835 292.756 161.993 294.74 160.632C295.166 160.443 297.103 158.801 297.103 158.801L296.271 144.719C296.791 145.503 297.106 146.026 297.106 146.026C297.106 144.054 302.684 137.665 302.684 137.665C302.684 137.665 307.885 130.951 309.019 130.151C310.153 129.35 312.377 125.126 312.377 125.126C312.705 124.32 313.085 123.536 313.514 122.778C314.052 121.912 312.348 119.656 312.537 119.14ZM300.335 124.067C298.917 124.209 295.925 127.451 295.89 128.163C295.868 128.534 295.553 129.032 295.26 129.423C295.238 129.139 295.213 128.849 295.191 128.556C294.857 124.407 294.495 119.351 294.658 118.859C294.945 118.015 294.847 114.212 294.847 114.212L294.898 114.14C295.843 117.085 298.813 120.56 298.813 120.56C298.813 120.56 299.333 122.063 299.947 122.111C300.561 122.158 300.335 124.067 300.335 124.067Z" fill="url(#paint0_linear)"/>
<path d="M224.529 122.999C224.529 122.999 226.252 113.957 231.799 113.91L235.853 122.253L233.15 124.118C233.15 124.118 227.279 124.304 224.529 122.999Z" fill="#65617D"/>
<path opacity="0.1" d="M235.853 122.253L233.15 124.118C233.15 124.118 229.017 124.25 226.063 123.523C225.536 123.398 225.022 123.223 224.529 123C224.529 123 224.529 122.949 224.56 122.855C224.56 122.855 224.56 122.833 224.56 122.82C224.815 121.685 225.166 120.574 225.609 119.499C225.782 119.093 225.975 118.674 226.183 118.255C226.995 116.68 228.135 115.161 229.698 114.402C230.275 114.118 230.904 113.954 231.547 113.92H231.711H231.793L231.881 114.106L233.251 116.922L235.853 122.253Z" fill="black"/>
<path d="M281.892 159.819C281.892 159.819 287.719 159.261 288.229 159.68C288.74 160.099 292.05 162.242 294.009 160.89C295.969 159.539 294.662 154.832 294.662 154.646C294.662 154.46 294.476 147.794 294.476 147.794L290.979 143.087L286.601 134.839L277.655 133.95L277.888 147.05L277.841 153.761L281.892 159.819Z" fill="#65617D"/>
<path opacity="0.1" d="M281.892 159.819C281.892 159.819 287.719 159.261 288.229 159.68C288.74 160.099 292.05 162.242 294.009 160.89C295.969 159.539 294.662 154.832 294.662 154.646C294.662 154.46 294.476 147.794 294.476 147.794L290.979 143.087L286.601 134.839L277.655 133.95L277.888 147.05L277.841 153.761L281.892 159.819Z" fill="black"/>
<path d="M230.633 113.671C230.633 113.671 230.167 119.357 226.627 119.449C226.627 119.449 225.622 118.844 224.27 117.836C221.158 115.507 216.222 111.03 217.586 106.865C219.542 100.902 229.049 111.906 229.049 111.906L229.776 112.725L230.633 113.671Z" fill="#FBBEBE"/>
<path opacity="0.1" d="M230.633 113.671C230.633 113.671 230.167 119.357 226.627 119.449C226.627 119.449 225.622 118.844 224.27 117.836L223.971 117.448C224.572 117.762 225.234 117.94 225.912 117.971C226.444 117.992 226.97 117.851 227.421 117.566C227.871 117.28 228.223 116.865 228.431 116.374C228.804 115.643 229.131 114.889 229.411 114.118C229.583 113.669 229.706 113.202 229.776 112.726L230.633 113.671Z" fill="black"/>
<path d="M229.096 123.979L228.299 122.952L225.616 119.486L224.249 117.719C224.849 118.034 225.511 118.212 226.189 118.242C227.08 118.264 228.079 117.926 228.709 116.647C229.081 115.915 229.408 115.161 229.688 114.388C230.129 113.128 230.123 112.498 229.966 112.268C229.808 112.038 230.955 113.112 231.506 113.635L231.525 113.654L231.783 113.897L231.878 114.086L233.229 116.786C233.229 116.786 233.229 116.824 233.229 116.899C233.361 117.766 233.818 123.207 229.096 123.979Z" fill="#E7EFFD"/>
<path d="M257.011 243.947C257.011 243.947 253.095 246.512 251.139 246.153C249.183 245.793 247.177 246.808 247.177 246.808C245.828 248.281 244.127 249.388 242.234 250.025C239.085 251.096 234.643 250.674 232.126 249.836C230.936 249.439 230.838 248.928 231.411 248.295C232.041 247.589 233.509 246.742 235.191 245.734C238.407 243.824 241.853 240.063 241.853 240.063C241.853 240.063 241.901 239.118 242.461 238.714C242.806 238.417 243.123 238.088 243.406 237.731C243.907 237.139 244.376 236.521 244.376 236.521L255.892 236.855C255.892 236.855 256.088 237.684 256.242 238.532C256.374 239.081 256.428 239.646 256.403 240.211C256.373 240.416 256.386 240.625 256.44 240.825C256.494 241.025 256.589 241.211 256.718 241.373L256.926 243.264L257.011 243.947Z" fill="#65617D"/>
<path d="M281.101 247.164C280.963 247.721 280.786 248.72 280.72 249.189L280.679 249.448C280.679 249.448 279.734 251.499 274.578 252.245C269.421 252.992 269.406 250.519 269.406 250.519C269.406 250.519 269.424 250.254 269.456 249.854C269.547 248.764 269.733 246.675 269.872 246.231C270.054 245.626 269.73 242.967 269.73 242.967L269.676 240.192L269.635 238.263L278.213 237.375C278.266 238.017 278.358 238.654 278.49 239.284C278.542 239.634 278.67 239.968 278.865 240.264C279.331 240.778 279.608 243.062 279.608 243.062C279.608 243.062 281.287 246.417 281.101 247.164Z" fill="#65617D"/>
<path opacity="0.1" d="M255.892 236.855C255.892 236.855 256.088 237.684 256.242 238.531C254.998 238.761 249.561 239.703 248.204 239.045C246.663 238.298 243.356 237.879 243.356 237.879L243.409 237.69C243.91 237.098 244.38 236.48 244.38 236.48L255.892 236.855Z" fill="black"/>
<path opacity="0.1" d="M278.49 239.284C276.316 238.916 271.56 239.807 269.67 240.192L269.629 238.263L278.206 237.375C278.261 238.017 278.356 238.654 278.49 239.284Z" fill="black"/>
<path d="M283.325 168.628L283.139 175.2C283.139 175.2 283.372 185.222 282.673 186.807C281.974 188.391 281.974 194.777 281.974 194.777C281.974 194.777 282.44 197.805 281.926 198.457C281.413 199.109 281.788 201.532 282.16 202.792C282.531 204.053 282.207 207.175 282.207 207.175L282.112 224.792C282.112 224.792 281.602 229.357 280.947 230.013C280.759 230.206 280.625 230.446 280.56 230.708C280.495 230.97 280.5 231.244 280.575 231.503C280.575 231.503 280.018 234.112 280.156 234.581C280.295 235.05 280.575 236.118 279.504 236.629C278.433 237.139 278.71 238.774 278.71 238.774C276.149 238.166 268.879 239.801 268.879 239.801C268.094 238.182 267.409 236.515 266.829 234.811C266.704 234.466 266.653 234.098 266.682 233.732C266.71 233.367 266.816 233.011 266.992 232.689C267.169 232.367 267.412 232.087 267.705 231.867C267.998 231.646 268.335 231.491 268.694 231.412C269.67 231.27 267.994 229.547 267.994 229.547C267.994 229.547 268.18 229.313 267.714 227.637C267.248 225.961 267.805 221.651 267.947 220.549C268.089 219.446 268.785 214.024 268.785 214.024C268.785 214.024 268.413 207.175 268.694 206.894C268.974 206.614 269.903 203.911 269.44 203.025C268.977 202.14 268.224 196.315 268.224 195.987C268.224 195.66 267.623 188.111 267.623 188.111C267.623 188.111 267.062 182.843 267.204 181.725C267.345 180.606 266.829 176.46 266.829 176.46C266.829 172.995 264.826 169.28 264.826 169.28L264.775 169.416L260.457 180.795C260.457 180.795 259.757 184.242 259.153 186.199C258.77 187.529 258.466 188.881 258.242 190.247L258.201 190.496C258.201 190.6 258.17 190.688 258.16 190.757L258.132 190.946C258.132 190.946 258.447 193.416 257.943 194.21C257.439 195.004 256.872 197.38 256.872 198.032C256.872 198.684 256.919 201.201 256.919 201.201C256.919 201.201 257.105 206.189 256.604 206.749C256.103 207.31 256.368 207.773 256.368 207.773C256.368 207.773 257.206 211.554 256.834 212.527C256.463 213.501 256.743 215.788 256.743 215.788C256.743 215.788 255.996 223.015 255.905 223.387C255.814 223.759 255.297 226.651 255.858 226.884C256.418 227.117 257.486 228.513 257.486 228.513C257.486 228.513 257.722 234.622 256.881 235.085C256.04 235.548 256.507 237.921 256.507 237.921C256.507 237.921 249.753 239.225 248.216 238.478C246.679 237.732 243.368 237.313 243.368 237.313L243.831 235.781C243.803 235.835 243.494 236.333 243.274 234.424C243.044 232.42 245 233.396 245 233.396C245 233.396 246.537 233.771 244.055 231.349C241.573 228.926 242.795 226.453 242.937 226.453C243.079 226.453 243.406 222.867 243.406 222.867C243.406 222.867 243.825 220.722 243.497 219.043C243.17 217.363 242.893 212.143 242.893 212.143C242.893 212.143 243.126 208.183 242.707 206.74C242.288 205.297 242.984 202.682 243.126 202.077C243.268 201.472 242.691 195.94 242.691 195.94C242.691 195.94 243.157 193.331 242.877 191.422C242.597 189.513 243.157 182.472 243.157 182.472L243.995 174.362C243.995 174.362 244.6 171.842 244.509 170.818C244.417 169.794 245.211 166.205 245.211 166.205C245.163 165.441 245.291 164.676 245.583 163.969C246.049 163.023 246.235 159.961 246.235 159.961L250.711 149.706L252.916 140.664L282.503 140.384C282.503 140.384 282.613 141.168 282.793 142.589C282.972 144.01 283.224 146.121 283.505 148.726C283.763 151.092 284.046 153.874 284.32 156.971C285.215 166.858 283.325 168.628 283.325 168.628Z" fill="#3F3D56"/>
<path d="M280.588 87.0177L273.689 94.3836C273.689 94.3836 264.838 90.8393 265.771 89.6295C266.13 89.1601 266.085 87.6793 265.865 86.0474C265.55 83.4639 264.838 80.493 264.838 80.493C264.838 80.493 280.307 77.9726 279.013 80.5844C278.537 81.5295 278.619 82.6511 278.915 83.6813C279.29 84.8761 279.855 86.0027 280.588 87.0177Z" fill="#FBBEBE"/>
<path opacity="0.1" d="M279.003 80.5905C278.528 81.5357 278.301 81.6365 278.597 82.6667C276.575 84.8311 274.001 87.2066 270.801 87.2066C269.088 87.2092 267.398 86.8134 265.865 86.0504C265.55 83.4669 264.838 80.496 264.838 80.496C264.838 80.496 280.307 77.9756 279.003 80.5905Z" fill="black"/>
<path d="M281.895 75.8292C281.846 78.7393 280.656 81.5136 278.581 83.5542C276.506 85.5948 273.713 86.7384 270.803 86.7384C267.893 86.7384 265.099 85.5948 263.024 83.5542C260.949 81.5136 259.759 78.7393 259.71 75.8292C259.71 75.7757 259.71 75.7221 259.71 75.6717C259.731 72.7297 260.92 69.9164 263.014 67.8509C264.051 66.8281 265.28 66.0197 266.63 65.4718C267.979 64.9238 269.423 64.6472 270.88 64.6575C272.336 64.6678 273.776 64.965 275.118 65.5321C276.46 66.0991 277.677 66.9249 278.699 67.9623C279.722 68.9996 280.53 70.2283 281.078 71.5781C281.626 72.928 281.902 74.3725 281.892 75.8292H281.895Z" fill="#FBBEBE"/>
<path opacity="0.1" d="M283.498 149.013C282.03 149.013 277.139 149.066 271.67 149.151H271.604L269.799 149.183H269.743C263.26 149.287 256.869 148.02 254.308 148.26C248.859 148.77 256.267 143.219 256.267 143.219C260.33 144.206 264.509 144.63 268.687 144.479L270.262 144.397C275.214 144.117 280.194 143.65 282.796 142.869C282.969 144.312 283.218 146.407 283.498 149.013Z" fill="black"/>
<path d="M283.498 148.733C282.03 148.733 277.139 148.787 271.67 148.872H271.604L269.799 148.903H269.743C263.26 149.007 256.869 147.741 254.308 147.98C248.859 148.494 256.267 142.939 256.267 142.939C260.33 143.927 264.509 144.351 268.687 144.2L270.262 144.118C275.214 143.837 280.194 143.371 282.796 142.593C282.969 144.036 283.218 146.121 283.498 148.733Z" fill="#5F5D7E"/>
<path opacity="0.1" d="M267.821 90.0921L259.247 94.1027L252.632 145.277C252.632 145.277 256.545 143.506 258.784 144.624C261.024 145.743 267.919 144.719 267.919 144.719C267.919 144.719 272.959 144.438 273.699 144.999C274.439 145.56 283.199 142.655 283.199 142.655C283.199 142.655 284.774 139.114 283.571 138.56C282.367 138.005 283.955 132.507 283.955 132.507L283.199 95.5929L281.706 90.8388L277.699 88.416L273.604 91.6768L271.648 91.9572L267.821 90.0921Z" fill="black"/>
<path d="M267.821 89.5347L259.247 93.5421L252.632 144.719C252.632 144.719 256.545 142.949 258.784 144.067C261.024 145.185 267.919 144.158 267.919 144.158C267.919 144.158 272.959 143.881 273.699 144.439C274.439 144.996 283.205 142.107 283.205 142.107C283.205 142.107 284.78 138.566 283.577 138.012C282.374 137.457 283.955 131.944 283.955 131.944L283.199 95.0323L281.706 90.2814L277.699 87.8555L273.604 91.1194L271.648 91.3998L267.821 89.5347Z" fill="#E7EFFD"/>
<path opacity="0.1" d="M267.679 91.9101C267.679 91.9101 270.149 94.8464 270.105 95.4544C270.061 96.0625 269.963 97.5054 269.963 97.5054L268.098 101.286C268.098 101.286 267.075 105.993 267.075 106.973C267.075 107.953 265.443 116.424 265.443 116.424L263.481 129.477L261.011 146.584L263.531 150.916L266.511 148.396L270.473 117.911L271.311 111.9C271.311 111.9 272.196 101.088 272.196 99.9691C272.196 98.8507 271.686 95.9144 271.686 95.9144C271.686 95.9144 272.291 93.1168 274.808 92.4488C277.324 91.7809 274.622 92.3071 274.622 92.3071L273.176 91.1445L271.916 91.6549C271.916 91.6549 268.426 90.6058 267.679 91.9101Z" fill="black"/>
<path d="M267.399 91.6324C267.399 91.6324 269.872 94.5687 269.824 95.1736C269.777 95.7785 269.683 97.2246 269.683 97.2246L267.821 101.005C267.821 101.005 266.794 105.712 266.794 106.692C266.794 107.672 265.163 116.143 265.163 116.143L263.206 129.193L260.737 146.3L263.257 150.635L266.24 148.115L270.199 117.634L271.04 111.626C271.04 111.626 271.925 100.813 271.925 99.6946C271.925 98.5762 271.415 95.6399 271.415 95.6399C271.415 95.6399 272.02 92.8422 274.537 92.1901C277.053 91.5379 274.351 92.0514 274.351 92.0514L272.905 90.8857L271.645 91.3993C271.645 91.3993 268.146 90.3249 267.399 91.6324Z" fill="#6857E5"/>
<path opacity="0.1" d="M265.771 86.7373C265.771 86.7373 265.396 87.0177 265.304 88.8828C265.213 90.7479 263.906 94.9412 263.906 94.9412C263.906 94.9412 268.753 91.5859 271.176 91.9577L265.771 86.7373Z" fill="black"/>
<path d="M265.771 86.1787C265.771 86.1787 265.396 86.456 265.304 88.3211C265.213 90.1862 263.906 94.3795 263.906 94.3795C263.906 94.3795 268.753 91.0242 271.176 91.3991L265.771 86.1787Z" fill="#E7EFFD"/>
<path opacity="0.1" d="M279.003 85.2471L271.355 91.9577C271.355 91.9577 277.787 95.7792 278.625 96.7118C279.463 97.6443 280.301 87.5753 280.301 87.5753L279.003 85.2471Z" fill="black"/>
<path d="M279.284 84.6865L271.642 91.4003C271.642 91.4003 278.071 95.2218 278.915 96.1544C279.759 97.0869 280.591 87.0179 280.591 87.0179L279.284 84.6865Z" fill="#E7EFFD"/>
<path opacity="0.1" d="M266.048 86.737C266.048 86.737 265.21 86.3179 264.419 87.5309C263.837 88.3215 263.046 88.9346 262.136 89.3015C262.136 89.3015 253.653 90.653 253.316 91.7715L249.353 92.0046C249.353 92.0046 247.955 92.1905 247.816 95.1268C247.678 98.0631 246.931 98.3434 246.931 98.3434C246.931 98.3434 245.299 101.232 245.441 102.723C245.583 104.213 244.181 104.963 244.181 104.963L250.005 120.11C250.005 120.11 250.194 126.355 249.12 128.639C248.046 130.923 246.046 141.036 246.046 141.036C246.046 141.036 246.884 140.85 246.836 141.408C246.789 141.965 245.841 148.074 245.841 148.074C245.841 148.074 245.561 150.497 245.095 151.338C244.628 152.179 244.581 156.556 244.581 156.556L243.838 159.725C243.838 159.725 245.608 163.688 248.311 163.128C251.013 162.567 255.905 151.99 255.905 151.99L259.03 140.57L261.452 129.291L262.151 121.648L263.27 104.73L264.901 93.5421C264.901 93.5421 266.703 87.5214 266.048 86.737Z" fill="black"/>
<path d="M265.771 86.1786C265.771 86.1786 264.93 85.7596 264.139 86.9694C263.558 87.7611 262.767 88.3744 261.855 88.7399C261.855 88.7399 253.376 90.0915 253.035 91.2099L249.073 91.4431C249.073 91.4431 247.677 91.6321 247.536 94.5684C247.394 97.5047 246.651 97.7819 246.651 97.7819C246.651 97.7819 245.019 100.674 245.161 102.164C245.302 103.654 243.901 104.401 243.901 104.401L249.728 119.549C249.728 119.549 249.914 125.793 248.843 128.077C247.772 130.361 245.766 140.478 245.766 140.478C245.766 140.478 246.603 140.289 246.559 140.849C246.515 141.41 245.532 147.513 245.532 147.513C245.532 147.513 245.252 149.939 244.786 150.777C244.32 151.615 244.276 155.997 244.276 155.997L243.529 159.167C243.529 159.167 245.299 163.127 248.002 162.569C250.705 162.011 255.606 151.429 255.606 151.429L258.727 140.011L261.15 128.733L261.849 121.086L262.967 104.168L264.599 92.9837C264.599 92.9837 266.423 86.9693 265.771 86.1786Z" fill="#6857E5"/>
<path opacity="0.1" d="M235.853 122.253L233.15 124.118C233.15 124.118 229.017 124.25 226.063 123.522L224.56 122.855L224.245 122.722L224.56 122.82C226.12 123.283 227.339 123.274 228.293 122.952C232.117 121.664 231.695 115.347 231.547 113.92C231.547 113.775 231.522 113.683 231.515 113.649C231.515 113.643 231.515 113.636 231.515 113.63L231.537 113.668C231.59 113.754 231.649 113.836 231.714 113.913C231.767 113.973 231.824 114.036 231.884 114.096L233.235 116.796C233.235 116.796 233.235 116.834 233.235 116.91L235.853 122.253Z" fill="black"/>
<path d="M245.211 104.03L243.904 104.402L243.718 107.058C243.718 107.058 242.181 106.825 241.762 108.633C241.343 110.442 240.596 111.292 240.596 111.292C240.596 111.292 238.032 113.435 237.894 115.252L236.319 116.232C236.319 116.232 232.637 115.391 231.799 113.901C231.799 113.901 233.478 125.926 224.529 122.99C224.529 122.99 234.549 127.369 235.015 127.977C235.481 128.585 238.555 130.353 241.352 128.863C244.15 127.372 244.754 125.082 244.754 125.082C244.754 125.082 247.457 121.301 247.548 120.747C247.64 120.192 249.753 119.534 249.753 119.534L253.76 109.84L245.211 104.03Z" fill="#6857E5"/>
<path opacity="0.1" d="M277.932 90.8395L279.284 84.6865C279.284 84.6865 279.888 86.6903 280.496 87.1565L282.5 88.6971C282.5 88.6971 284.503 89.6265 285.202 89.6265C285.902 89.6265 289.675 90.6063 290.141 91.1199C290.608 91.6334 292.472 91.2585 292.472 91.2585C292.472 91.2585 294.009 91.772 295.361 92.0965C296.712 92.421 297.364 94.6611 297.084 95.5621C296.97 96.0031 296.97 96.4657 297.084 96.9066C297.198 97.3474 297.423 97.7521 297.736 98.0825C298.296 98.6433 298.577 100.461 298.577 100.461C299.259 100.687 299.825 101.172 300.152 101.813C300.618 102.837 300.467 105.074 300.467 105.074L293.537 114.862C293.537 114.862 293.628 118.643 293.351 119.478C293.074 120.313 294.328 134.578 294.328 134.578L295.773 159.092C295.773 159.092 293.861 160.724 293.442 160.91C293.024 161.096 292.605 152.243 292.605 151.915C292.605 151.588 281.841 135.788 281.841 135.788C281.841 135.788 280.396 133.46 280.396 132.952C280.396 132.445 279.044 127.732 279.044 127.732L276.994 118.643L277.932 90.8395Z" fill="black"/>
<path d="M301.062 104.535C301.062 104.85 301.062 105.07 301.062 105.07L294.132 114.837C294.132 114.837 294.227 118.618 293.95 119.449C293.786 119.938 294.142 124.953 294.473 129.074C294.706 132.045 294.926 134.55 294.926 134.55L295.54 144.946L296.369 159.061C296.369 159.061 294.46 160.693 294.041 160.879C293.622 161.064 293.203 152.212 293.203 151.884C293.203 151.556 282.437 135.76 282.437 135.76C282.437 135.76 280.991 133.425 280.991 132.924C280.991 132.423 279.64 127.704 279.64 127.704L277.592 118.614L278.521 90.8363L279.284 84.6865C279.284 84.6865 280.449 86.6934 281.054 87.1565L283.057 88.694C283.057 88.694 285.061 89.6391 285.76 89.6391C286.459 89.6391 290.236 90.6158 290.702 91.1293C291.168 91.6429 293.03 91.268 293.03 91.268C293.03 91.268 294.567 91.7815 295.918 92.106C297.27 92.4305 297.925 94.6705 297.644 95.5716C297.53 96.0125 297.53 96.4753 297.644 96.9162C297.758 97.3572 297.983 97.7618 298.297 98.092C298.854 98.6496 299.134 100.467 299.134 100.467C299.817 100.695 300.382 101.181 300.709 101.822C301.043 102.5 301.075 103.794 301.062 104.535Z" fill="#6857E5"/>
<path opacity="0.1" d="M244.102 228.708C244.332 228.708 254.119 229.08 253.933 230.664C253.747 232.249 244.102 228.708 244.102 228.708Z" fill="black"/>
<path opacity="0.1" d="M246.292 231.364C246.292 231.364 252.862 232.435 251.136 233.415C249.41 234.395 246.292 231.364 246.292 231.364Z" fill="black"/>
<path opacity="0.1" d="M270.725 227.682C270.725 227.682 281.63 228.627 279.999 229.827C278.367 231.028 274.499 231.223 274.329 231.27C274.159 231.317 270.725 227.682 270.725 227.682Z" fill="black"/>
<path opacity="0.1" d="M269.406 232.482C269.406 232.482 275.463 233.506 275.649 234.688C275.834 235.869 269.406 232.482 269.406 232.482Z" fill="black"/>
<path opacity="0.1" d="M272.76 204.424C272.76 204.424 278.304 205.728 278.632 206.629L272.76 204.424Z" fill="black"/>
<path opacity="0.1" d="M251.369 208.432C251.369 208.432 248.481 209.27 251.278 210.952C254.075 212.634 251.369 208.432 251.369 208.432Z" fill="black"/>
<path opacity="0.1" d="M264.186 163.64C264.501 163.64 269.591 161.964 271.362 162.695C272.629 163.171 273.968 163.426 275.321 163.448L264.186 163.64Z" fill="black"/>
<path opacity="0.1" d="M264.838 168.953L264.788 169.416L260.457 180.796C260.457 180.796 259.757 184.242 259.153 186.199C258.77 187.529 258.466 188.881 258.242 190.247L262.088 166.392L264.838 168.953Z" fill="black"/>
<path d="M271.604 148.871L269.799 148.903H269.743L268.684 144.205L270.259 144.12L271.604 148.871Z" fill="#3F3D56"/>
<path d="M293.591 143.181L292.428 144.127L288.557 147.318C288.557 147.318 278.071 152.913 275.183 147.598C272.637 142.917 284.525 139.574 287.388 138.846C287.776 138.749 287.996 138.698 287.996 138.698L293.591 143.181Z" fill="#FBBEBE"/>
<path opacity="0.1" d="M248.808 97.3633C248.808 97.3633 250.859 98.3084 251.328 99.6002C251.798 100.892 248.808 97.3633 248.808 97.3633Z" fill="black"/>
<path opacity="0.1" d="M242.471 111.346C242.471 111.346 239.488 114.981 240.7 116.387C241.913 117.792 242.471 111.346 242.471 111.346Z" fill="black"/>
<path opacity="0.1" d="M295.78 99.415C295.78 99.415 292.983 99.6954 292.891 102.118L295.78 99.415Z" fill="black"/>
<path opacity="0.1" d="M269.872 137.633C270.149 137.353 276.581 127.844 278.061 128.685L269.872 137.633Z" fill="black"/>
<path opacity="0.1" d="M281.895 75.8292C281.898 77.6565 281.446 79.4558 280.581 81.0654L280.5 81.0496C279.797 80.9016 279.432 80.0824 278.893 79.572C278.563 79.2571 278.142 79.0537 277.69 78.9904C277.238 78.9271 276.777 79.0071 276.373 79.2192C275.966 79.4639 275.635 79.8172 275.417 80.2395C275.198 80.6618 275.102 81.1365 275.138 81.6104C274.783 80.1171 274.896 78.5324 274.549 77.0359C274.203 75.5394 273.16 74.0271 271.73 74.0019C271.1 74.0019 270.398 74.2256 269.951 73.7656C269.683 73.4884 269.636 73.0505 269.428 72.7102C268.407 71.0593 265.298 71.8942 264.029 72.7417C262.759 73.5892 261.288 74.9471 259.71 75.6717C259.731 72.7297 260.92 69.9164 263.014 67.8509C264.051 66.8281 265.28 66.0197 266.63 65.4718C267.979 64.9238 269.423 64.6472 270.88 64.6575C272.336 64.6678 273.776 64.965 275.118 65.5321C276.46 66.0991 277.677 66.9249 278.699 67.9623C279.722 68.9996 280.53 70.2283 281.078 71.5781C281.626 72.928 281.902 74.3725 281.892 75.8292H281.895Z" fill="black"/>
<path d="M269.431 72.4337C269.632 72.7708 269.686 73.2087 269.954 73.486C270.398 73.9491 271.119 73.7097 271.733 73.7223C273.163 73.7475 274.206 75.2597 274.553 76.7562C274.899 78.2527 274.786 79.8374 275.142 81.3308C275.105 80.8564 275.201 80.3813 275.42 79.9588C275.639 79.5363 275.971 79.1833 276.38 78.9395C276.784 78.7275 277.244 78.6474 277.696 78.7107C278.148 78.774 278.569 78.9774 278.899 79.2924C279.438 79.8028 279.803 80.6219 280.506 80.77C281.208 80.918 281.886 80.2438 282.141 79.5098C282.396 78.7757 282.377 77.9566 282.544 77.1878C282.859 75.7354 283.804 74.5414 284.333 73.1583C284.957 71.4766 284.94 69.6238 284.286 67.9537C283.936 67.0778 283.416 66.2902 283.06 65.4175C282.525 64.088 282.386 62.582 281.731 61.3218C280.635 59.2015 278.052 58.143 275.926 58.9401C274.915 59.3181 274.036 60.0553 273.006 60.3861C271.629 60.8304 270.155 60.4964 268.732 60.2979C267.308 60.0994 265.73 60.0805 264.583 61.0162C263.263 62.0969 262.904 64.1258 261.663 65.3104C261.143 65.8082 260.498 66.1264 259.95 66.5706C259.401 67.0148 258.926 67.7142 259.005 68.4609C259.086 69.425 260.031 70.3008 259.682 71.1956C259.556 71.455 259.38 71.6873 259.165 71.8792C258.128 72.9672 257.356 74.2805 256.91 75.7165C259.401 76.4979 262.101 73.7475 264.054 72.4463C265.304 71.6177 268.41 70.7797 269.431 72.4337Z" fill="#7C5C5C"/>
<path opacity="0.1" d="M293.591 143.181L292.428 144.127C291.405 142.425 287.206 139.023 287.206 139.023L287.388 138.846C287.776 138.749 287.996 138.698 287.996 138.698L293.591 143.181Z" fill="black"/>
<path d="M294.709 141.455C294.709 141.455 294.29 142.495 293.862 143.39C293.433 144.285 292.961 145.104 292.939 144.439C292.891 143.135 287.486 138.752 287.486 138.752L288.22 138.04L289.067 137.215L294.709 141.455Z" fill="#E7EFFD"/>
<path opacity="0.1" d="M294.895 134.556L295.509 144.952C294.06 142.7 290.085 136.928 287.53 137.114L293.72 129.991C293.978 129.704 294.215 129.399 294.432 129.08C294.665 132.051 294.895 134.556 294.895 134.556Z" fill="black"/>
<path opacity="0.1" d="M294.709 141.455C294.709 141.455 294.29 142.495 293.861 143.389C292.236 141.162 290.003 138.531 288.22 138.033L289.067 137.208L294.709 141.455Z" fill="black"/>
<path d="M299.368 103.75L301.046 105.054C301.046 105.054 303.84 105.102 304.121 107.433C304.401 109.764 306.956 110.836 306.956 110.836C306.956 110.836 308.864 112.745 308.864 113.63C308.864 114.515 310.31 116.1 310.31 116.242C310.31 116.384 311.709 119.225 311.52 119.736C311.331 120.246 313.013 122.486 312.499 123.324C312.078 124.077 311.705 124.856 311.381 125.656C311.381 125.656 309.192 129.852 308.074 130.643C306.956 131.434 301.828 138.1 301.828 138.1C301.828 138.1 296.331 144.439 296.331 146.395C296.331 146.395 290.976 137.448 287.801 137.681L294 130.548C294 130.548 295.071 129.386 295.118 128.686C295.166 127.987 298.101 124.77 299.5 124.632C299.5 124.632 299.73 122.719 299.125 122.672C298.52 122.625 298.007 121.135 298.007 121.135C298.007 121.135 293.912 116.289 293.858 113.211C293.805 110.133 299.368 103.75 299.368 103.75Z" fill="#6857E5"/>
<path opacity="0.1" d="M301.837 108.176C301.837 108.176 297.925 111.068 298.763 111.997C299.601 112.927 301.837 108.176 301.837 108.176Z" fill="black"/>
<path opacity="0.1" d="M302.023 120.11C302.023 120.11 309.293 117.779 310.039 120.11H302.023Z" fill="black"/>
<path opacity="0.1" d="M257.011 243.947C257.011 243.947 253.095 246.512 251.139 246.153C249.183 245.794 247.177 246.808 247.177 246.808C245.828 248.281 244.127 249.388 242.234 250.025C239.085 251.096 234.643 250.674 232.126 249.836C230.936 249.439 230.838 248.928 231.411 248.295C234.149 248.84 240.263 249.927 241.91 249.136C244.052 248.109 247.129 245.872 247.129 245.872C247.129 245.872 251.139 245.315 251.697 245.315C252.094 245.315 255.19 244.036 256.938 243.305L257.011 243.947Z" fill="black"/>
<path opacity="0.1" d="M280.72 249.189L280.679 249.448C280.679 249.448 279.734 251.499 274.578 252.245C269.421 252.992 269.406 250.519 269.406 250.519C269.406 250.519 269.424 250.254 269.456 249.854C271.094 250.475 274.666 251.168 280.72 249.189Z" fill="black"/>
<path opacity="0.1" d="M250.742 107.618C250.742 107.618 250.742 118.245 249.832 119.294C248.922 120.343 250.742 107.618 250.742 107.618Z" fill="black"/>
<path opacity="0.1" d="M292.75 111.043L294.101 114.842C294.101 114.842 294.64 111.112 292.75 111.043Z" fill="black"/>
<g opacity="0.1">
<path opacity="0.1" d="M259.802 70.3035C260.142 69.4276 259.247 68.5707 259.131 67.6318C259.012 67.8967 258.961 68.1868 258.983 68.4762C259.042 69.1819 259.562 69.8404 259.701 70.4957C259.74 70.4346 259.774 70.3703 259.802 70.3035Z" fill="black"/>
<path opacity="0.1" d="M275.268 80.3407C274.934 78.8726 275.031 77.3162 274.691 75.845C274.351 74.3737 273.302 72.8362 271.875 72.811C271.245 72.811 270.54 73.0378 270.095 72.5779C269.825 72.3006 269.78 71.8595 269.569 71.5224C268.549 69.8684 265.443 70.7065 264.17 71.554C262.28 72.8142 259.647 75.47 257.203 74.8714C257.086 75.1518 256.979 75.4385 256.888 75.7315C259.379 76.5129 262.079 73.7625 264.032 72.4613C265.292 71.617 268.41 70.7789 269.431 72.4329C269.632 72.77 269.686 73.208 269.954 73.4852C270.398 73.9483 271.119 73.7089 271.733 73.7215C273.163 73.7467 274.206 75.259 274.553 76.7554C274.899 78.2519 274.786 79.8367 275.142 81.33C275.119 80.9952 275.161 80.6591 275.268 80.3407Z" fill="black"/>
<path opacity="0.1" d="M282.273 78.5958C282.021 79.333 281.356 80.0135 280.638 79.856C279.92 79.6985 279.57 78.8888 279.035 78.3752C278.702 78.0637 278.282 77.8628 277.83 77.8002C277.379 77.7376 276.92 77.8163 276.515 78.0255C276.126 78.2571 275.807 78.5884 275.589 78.985C275.371 79.3816 275.264 79.8291 275.277 80.2813C275.466 79.7122 275.857 79.2323 276.376 78.9329C276.78 78.7208 277.241 78.6408 277.693 78.7041C278.145 78.7674 278.566 78.9708 278.896 79.2857C279.435 79.7961 279.8 80.6153 280.503 80.7633C281.205 80.9114 281.882 80.2372 282.137 79.5031C282.27 79.0672 282.356 78.6183 282.393 78.1641C282.362 78.3104 282.322 78.4546 282.273 78.5958Z" fill="black"/>
<path opacity="0.1" d="M284.465 72.2446C283.942 73.6277 282.991 74.8186 282.676 76.2741C282.613 76.5671 282.575 76.8664 282.541 77.1689C282.856 75.7196 283.801 74.5319 284.327 73.152C284.559 72.5312 284.704 71.8813 284.758 71.2207C284.687 71.5689 284.589 71.9112 284.465 72.2446Z" fill="black"/>
</g>
<path d="M217.124 105.993C217.186 105.993 217.237 105.942 217.237 105.879C217.237 105.817 217.186 105.766 217.124 105.766C217.061 105.766 217.01 105.817 217.01 105.879C217.01 105.942 217.061 105.993 217.124 105.993Z" fill="#E6E8EC"/>
<path opacity="0.1" d="M257.36 252.385C272.38 252.385 284.557 251.143 284.557 249.61C284.557 248.077 272.38 246.834 257.36 246.834C242.34 246.834 230.164 248.077 230.164 249.61C230.164 251.143 242.34 252.385 257.36 252.385Z" fill="#6857E5"/>
<path d="M157.354 67.5444L74.9805 120.996L128.737 217.969C128.988 218.422 129.33 218.819 129.742 219.133C130.154 219.448 130.627 219.674 131.131 219.796L179.838 231.68C180.672 231.882 181.551 231.792 182.327 231.424C183.103 231.057 183.73 230.434 184.103 229.66L208.263 179.457L234.741 144.055L171.906 69.7025C170.158 67.6344 167.716 66.2745 165.037 65.8773C162.359 65.4801 159.627 66.0727 157.354 67.5444Z" fill="#DCDFED"/>
<path opacity="0.1" d="M235.579 144.473L235.346 144.788L219.835 165.528L219.555 165.903L209.101 179.882L188.437 222.827L187.858 224.027L184.941 230.086C184.568 230.86 183.94 231.484 183.162 231.851C182.385 232.219 181.505 232.308 180.669 232.105L131.962 220.215C131.459 220.093 130.986 219.867 130.574 219.553C130.162 219.238 129.819 218.841 129.568 218.388L124.885 209.954L124.044 208.435L90.2355 147.422L89.9457 146.902L75.8152 121.415L77.5225 120.306L90.4655 111.91L90.7647 111.714L118.021 94.0274L119.741 92.9121L158.185 67.9632C160.459 66.4887 163.192 65.8942 165.872 66.2909C168.552 66.6876 170.995 68.0484 172.744 70.1181L201.409 104.049L202.668 105.561L223.474 130.18L223.587 130.315L234.048 142.69L235.365 144.25L235.579 144.473Z" fill="black"/>
<path opacity="0.1" d="M222.781 129.896L220.242 147.539L219.476 152.863L219.038 164.205L219.004 165.09L216.726 224.352C216.704 224.901 216.562 225.44 216.309 225.928C216.057 226.417 215.7 226.844 215.264 227.18C214.828 227.516 214.324 227.752 213.787 227.871C213.25 227.99 212.693 227.99 212.156 227.871L187.605 222.389L187.341 222.329L124.377 208.275L123.221 208.016L88.6069 200.285L89.4007 147.003L89.4259 145.223L89.6653 129.096L89.9299 111.295L117.186 93.6084L118.906 92.4932C144.187 95.086 177.809 100.073 200.586 103.63L201.846 105.142L222.636 129.761L222.781 129.896Z" fill="black"/>
<path d="M225.656 108.976L222.667 129.77L219.927 148.812L219.161 154.123L218.724 165.465L216.411 225.612C216.39 226.161 216.247 226.7 215.994 227.188C215.742 227.677 215.385 228.104 214.949 228.44C214.513 228.776 214.009 229.012 213.472 229.131C212.935 229.25 212.378 229.25 211.841 229.131L187.026 223.589L124.062 209.535L88.292 201.545L89.111 146.483L89.3504 130.356L89.6307 111.491L89.9173 92.0865C95.8329 91.8061 105.566 92.4393 117.186 93.6082C143.204 96.22 178.672 101.503 201.862 105.142C216.062 107.37 225.656 108.976 225.656 108.976Z" fill="#6857E5"/>
<path opacity="0.1" d="M233.241 142.271L219.927 148.802L151.974 182.135L89.3503 130.368L76.6908 119.887L74.9836 120.996L89.1141 146.483L88.2951 201.545L124.066 209.535L128.74 217.969C128.991 218.422 129.333 218.819 129.745 219.133C130.157 219.448 130.63 219.674 131.134 219.796L179.841 231.68C180.675 231.881 181.553 231.79 182.328 231.423C183.104 231.055 183.73 230.433 184.103 229.66L187.02 223.602L211.835 229.143C212.372 229.263 212.928 229.263 213.465 229.144C214.002 229.024 214.507 228.788 214.943 228.453C215.379 228.117 215.735 227.69 215.988 227.201C216.241 226.712 216.383 226.174 216.405 225.624L218.717 165.478L234.508 144.369L234.552 143.837L233.241 142.271Z" fill="black"/>
<path d="M74.9805 120.996L69.3642 217.191C69.3122 218.081 69.5787 218.961 70.116 219.673C70.6533 220.384 71.4264 220.882 72.2967 221.075L221.451 254.203C221.974 254.318 222.516 254.319 223.039 254.207C223.563 254.095 224.056 253.872 224.487 253.554C224.917 253.236 225.275 252.829 225.535 252.361C225.796 251.893 225.953 251.375 225.997 250.841L234.738 144.055L151.974 184.655L74.9805 120.996Z" fill="#DCDFED"/>
<path opacity="0.1" d="M70.3911 219.392L147.879 171.577C149.026 170.881 150.383 170.613 151.708 170.82C153.034 171.028 154.244 171.698 155.124 172.711L224.478 253.613C224.73 253.903 224.853 253.695 224.478 253.613L70.3911 219.392C69.9501 219.294 70.0068 219.622 70.3911 219.392Z" fill="black"/>
<path d="M70.9454 219.313L147.633 172.978C148.845 172.246 150.277 171.965 151.677 172.185C153.076 172.406 154.352 173.113 155.281 174.182L224.009 253.238C224.123 253.369 224.192 253.533 224.208 253.707C224.223 253.88 224.183 254.054 224.095 254.203C224.006 254.353 223.872 254.471 223.713 254.54C223.553 254.609 223.376 254.626 223.206 254.589L71.1942 220.828C71.0324 220.793 70.8848 220.711 70.7707 220.591C70.6565 220.471 70.5811 220.319 70.5543 220.155C70.5275 219.992 70.5504 219.824 70.6202 219.674C70.6899 219.524 70.8032 219.398 70.9454 219.313Z" fill="#E3E5F1"/>
</g>
<defs>
<linearGradient id="paint0_linear" x1="265.21" y1="252.803" x2="265.21" y2="57.6068" gradientUnits="userSpaceOnUse">
<stop stop-color="#808080" stop-opacity="0.25"/>
<stop offset="0.54" stop-color="#808080" stop-opacity="0.12"/>
<stop offset="1" stop-color="#808080" stop-opacity="0.1"/>
</linearGradient>
<clipPath id="clip0">
<rect width="326" height="262" fill="white"/>
</clipPath>
</defs>
</svg>
