<svg width="432" height="696" viewBox="0 0 432 696" fill="none" xmlns="http://www.w3.org/2000/svg">
<path opacity="0.05" fill-rule="evenodd" clip-rule="evenodd" d="M394.652 -195.362C449.329 -206.411 507.207 -196.63 559.614 -177.527C612.299 -158.322 669.777 -133.045 698.186 -84.7159C727.808 -34.3234 705.358 30.7334 715.834 88.2346C723.785 131.88 736.814 173.525 752.774 214.92C773.484 268.636 830.223 313.074 824.612 370.367C819.321 424.381 768.504 464.909 725.096 497.513C684.166 528.257 628.684 529.083 582.875 551.938C540.961 572.849 506.967 605.201 465.519 627.018C415.317 653.444 367.144 703.663 311.069 695.011C255.634 686.457 233.312 614.99 186.582 583.979C141.374 553.978 73.3211 558.602 40.4686 515.432C7.64056 472.295 19.975 410.303 13.4635 356.497C7.60923 308.121 -6.76651 259.467 3.73386 211.883C14.0141 165.295 52.2224 130.945 72.7403 87.8712C93.5854 44.1104 94.3212 -9.65991 126.524 -45.8959C158.91 -82.3368 211.065 -91.9577 253.654 -115.699C301.21 -142.208 341.28 -184.576 394.652 -195.362Z" fill="white"/>
</svg>
