<svg width="377" height="696" viewBox="0 0 377 696" fill="none" xmlns="http://www.w3.org/2000/svg">
<path opacity="0.05" fill-rule="evenodd" clip-rule="evenodd" d="M-31.071 -109.844C19.8117 -115.695 69.1907 -146.98 119.102 -135.483C168.621 -124.077 201.44 -78.0829 241.657 -47.0237C284.281 -14.106 342.887 5.79266 365.385 54.7191C387.993 103.883 372.342 162.446 362.444 215.645C353.628 263.029 317.245 301.564 310.577 349.298C302.745 405.365 353.869 471.823 320.292 517.406C286.928 562.701 205.778 527.722 157.667 556.886C110.132 585.701 100.014 659.065 49.2468 681.708C0.201538 703.583 -61.7495 699.177 -110.406 676.45C-159.839 653.361 -176.671 590.148 -219.401 556.227C-256.992 526.386 -313.3 525.076 -345.697 489.666C-378.252 454.083 -386.692 403.391 -401.284 357.425C-416.137 310.633 -431.425 263.941 -432.925 214.872C-434.498 163.376 -438.158 106.633 -410.272 63.3102C-382.074 19.5036 -323.651 7.79163 -280.674 -21.6599C-242.326 -47.9388 -212.266 -86.9326 -168.433 -102.419C-124.827 -117.825 -77.0159 -104.56 -31.071 -109.844Z" fill="white"/>
</svg>
