<svg viewBox="0 0 330 301" fill="none" xmlns="http://www.w3.org/2000/svg">
<path opacity="0.06" fill-rule="evenodd" clip-rule="evenodd" d="M169.331 15.6093C143.073 19.2935 115.349 17.4604 93.1221 31.9001C70.9503 46.304 61.846 72.5754 47.4904 94.7627C30.4102 121.161 -5.96149 143.844 0.836243 174.533C7.78342 205.896 51.3566 204.837 72 229.469C87 259.469 85.15 286.483 117 295.469C148.987 304.493 171.119 274.242 203.143 265.349C235.972 256.232 277.099 288.039 303.292 266.271C328.355 245.442 312.13 203.737 316.167 171.422C320.11 139.861 336.997 108.649 326.745 78.5364C316.184 47.513 291.125 20.5679 260.666 8.39182C231.726 -3.17688 200.199 11.2781 169.331 15.6093Z" fill="#6857E5"/>
<path opacity="0.06" fill-rule="evenodd" clip-rule="evenodd" d="M72.0352 260.711C71.4377 252.098 69.5012 239.659 62.5442 233.799C55.2524 227.657 46.784 221.109 36.9117 222.1C24.4526 223.352 18 235.167 18 247.093C18 259.02 24.5741 260.332 30.3082 270.491C35.6663 279.983 26.0928 294.549 36.9117 298.651C48.5577 303.067 63.2145 297.964 71.3462 289.18C78.414 281.545 72.7265 270.678 72.0352 260.711Z" fill="#6857E5"/>
<path opacity="0.5" fill-rule="evenodd" clip-rule="evenodd" d="M167.312 283.386C166.409 283.386 165.677 284.118 165.677 285.021C165.677 285.923 166.409 286.655 167.312 286.655L175.386 286.655L175.386 294.73C175.386 295.632 176.118 296.364 177.021 296.364C177.924 296.364 178.655 295.632 178.655 294.73L178.655 286.655H186.73C187.633 286.655 188.365 285.923 188.365 285.021C188.365 284.118 187.633 283.386 186.73 283.386H178.655L178.655 275.311C178.655 274.409 177.924 273.677 177.021 273.677C176.118 273.677 175.386 274.409 175.386 275.311L175.386 283.386L167.312 283.386Z" fill="#DC3545"/>
<path opacity="0.4" fill-rule="evenodd" clip-rule="evenodd" d="M30.2191 104.72C30.2191 103.658 31.08 102.797 32.1421 102.797C33.2042 102.797 34.0652 103.658 34.0652 104.72L34.0652 114.22H43.5646C44.6267 114.22 45.4877 115.08 45.4877 116.143C45.4877 117.205 44.6267 118.066 43.5646 118.066L34.0652 118.066L34.0652 127.565C34.0652 128.627 33.2042 129.488 32.1421 129.488C31.08 129.488 30.2191 128.627 30.2191 127.565L30.2191 118.066L20.7196 118.066C19.6576 118.066 18.7966 117.205 18.7966 116.143C18.7966 115.08 19.6576 114.22 20.7196 114.22L30.2191 114.22L30.2191 104.72Z" fill="#1DBA44"/>
<path opacity="0.3" fill-rule="evenodd" clip-rule="evenodd" d="M121.553 1.90367C121.553 1.16021 122.156 0.557514 122.899 0.557514C123.643 0.557514 124.246 1.16021 124.246 1.90367L124.246 8.55326H130.895C131.639 8.55326 132.241 9.15595 132.241 9.89941C132.241 10.6429 131.639 11.2456 130.895 11.2456L124.246 11.2456V17.8952C124.246 18.6386 123.643 19.2413 122.899 19.2413C122.156 19.2413 121.553 18.6386 121.553 17.8952L121.553 11.2456L114.904 11.2456C114.16 11.2456 113.558 10.6429 113.558 9.89941C113.558 9.15595 114.16 8.55326 114.904 8.55326L121.553 8.55326L121.553 1.90367Z" fill="#303392"/>
<path opacity="0.3" fill-rule="evenodd" clip-rule="evenodd" d="M309.436 106.545C309.436 105.551 310.242 104.745 311.236 104.745C312.23 104.745 313.036 105.551 313.036 106.545L313.036 115.436H321.926C322.92 115.436 323.726 116.241 323.726 117.235C323.726 118.229 322.92 119.035 321.926 119.035L313.036 119.035L313.036 127.926C313.036 128.92 312.23 129.726 311.236 129.726C310.242 129.726 309.436 128.92 309.436 127.926L309.436 119.035L300.545 119.035C299.551 119.035 298.746 118.229 298.746 117.235C298.746 116.241 299.551 115.436 300.545 115.436L309.436 115.436L309.436 106.545Z" fill="#FFC107"/>
<path opacity="0.3" fill-rule="evenodd" clip-rule="evenodd" d="M54 193.6C57.0928 193.6 59.6 191.093 59.6 188C59.6 184.907 57.0928 182.4 54 182.4C50.9072 182.4 48.4 184.907 48.4 188C48.4 191.093 50.9072 193.6 54 193.6ZM54 196C58.4183 196 62 192.418 62 188C62 183.582 58.4183 180 54 180C49.5817 180 46 183.582 46 188C46 192.418 49.5817 196 54 196Z" fill="#38A1DC"/>
<path opacity="0.3" fill-rule="evenodd" clip-rule="evenodd" d="M301 50C304.866 50 308 46.866 308 43C308 39.134 304.866 36 301 36C297.134 36 294 39.134 294 43C294 46.866 297.134 50 301 50ZM301 53C306.523 53 311 48.5228 311 43C311 37.4772 306.523 33 301 33C295.477 33 291 37.4772 291 43C291 48.5228 295.477 53 301 53Z" fill="#4F4B6C"/>
<path d="M176 34C141.892 34 114.243 61.6497 114.243 95.7574V124.746H139.45V97.0178C139.45 76.8316 155.814 60.4675 176 60.4675C196.186 60.4675 212.55 76.8316 212.55 97.0178V124.746H237.757V95.7574C237.757 61.6497 210.108 34 176 34Z" fill="#6857E5"/>
<rect x="89" y="124" width="174" height="122" rx="8" fill="#4F4B6C"/>
<path opacity="0.5" fill-rule="evenodd" clip-rule="evenodd" d="M182.302 171.213C186.069 169.034 188.604 164.961 188.604 160.296C188.604 153.335 182.961 147.692 176 147.692C169.039 147.692 163.396 153.335 163.396 160.296C163.396 164.961 165.931 169.034 169.698 171.213V184.024C169.698 186.233 171.489 188.024 173.698 188.024H178.302C180.511 188.024 182.302 186.233 182.302 184.024V171.213Z" fill="#ACA9BC"/>
<rect x="89" y="206" width="174" height="17" fill="#ACA9BC"/>
</svg>
