<svg viewBox="0 0 330 316" fill="none" xmlns="http://www.w3.org/2000/svg">
<path opacity="0.06" fill-rule="evenodd" clip-rule="evenodd" d="M169.331 30.6093C143.073 34.2935 115.349 32.4604 93.1221 46.9001C70.9503 61.304 61.846 87.5754 47.4904 109.763C30.4102 136.161 -5.96149 158.844 0.836243 189.533C7.78342 220.896 51.3566 219.837 72 244.469C87 274.469 85.15 301.483 117 310.469C148.987 319.493 171.119 289.242 203.143 280.349C235.972 271.232 277.099 303.039 303.292 281.271C328.355 260.442 312.13 218.737 316.167 186.422C320.11 154.861 336.997 123.649 326.745 93.5364C316.184 62.513 291.125 35.5679 260.666 23.3918C231.726 11.8231 200.199 26.2781 169.331 30.6093Z" fill="#6857E5"/>
<path opacity="0.06" fill-rule="evenodd" clip-rule="evenodd" d="M72.0352 275.711C71.4377 267.098 69.5012 254.659 62.5442 248.799C55.2524 242.657 46.784 236.109 36.9117 237.1C24.4526 238.352 18 250.167 18 262.093C18 274.02 24.5741 275.332 30.3082 285.491C35.6663 294.983 26.0928 309.549 36.9117 313.651C48.5577 318.067 63.2145 312.964 71.3462 304.18C78.414 296.545 72.7265 285.678 72.0352 275.711Z" fill="#6857E5"/>
<path opacity="0.3" fill-rule="evenodd" clip-rule="evenodd" d="M107 139C110.866 139 114 135.866 114 132C114 128.134 110.866 125 107 125C103.134 125 100 128.134 100 132C100 135.866 103.134 139 107 139ZM107 142C112.523 142 117 137.523 117 132C117 126.477 112.523 122 107 122C101.477 122 97 126.477 97 132C97 137.523 101.477 142 107 142Z" fill="#4F4B6C"/>
<path opacity="0.4" fill-rule="evenodd" clip-rule="evenodd" d="M308.219 158.72C308.219 157.658 309.08 156.797 310.142 156.797C311.204 156.797 312.065 157.658 312.065 158.72L312.065 168.22H321.565C322.627 168.22 323.488 169.08 323.488 170.143C323.488 171.205 322.627 172.066 321.565 172.066L312.065 172.066L312.065 181.565C312.065 182.627 311.204 183.488 310.142 183.488C309.08 183.488 308.219 182.627 308.219 181.565L308.219 172.066L298.72 172.066C297.658 172.066 296.797 171.205 296.797 170.143C296.797 169.08 297.658 168.22 298.72 168.22L308.219 168.22L308.219 158.72Z" fill="#1DBA44"/>
<path opacity="0.3" fill-rule="evenodd" clip-rule="evenodd" d="M121.553 16.9037C121.553 16.1602 122.156 15.5575 122.899 15.5575C123.643 15.5575 124.246 16.1602 124.246 16.9037L124.246 23.5533H130.895C131.639 23.5533 132.241 24.156 132.241 24.8994C132.241 25.6429 131.639 26.2456 130.895 26.2456H124.246L124.246 32.8952C124.246 33.6386 123.643 34.2413 122.899 34.2413C122.156 34.2413 121.553 33.6386 121.553 32.8952L121.553 26.2456L114.904 26.2456C114.16 26.2456 113.558 25.6429 113.558 24.8994C113.558 24.156 114.16 23.5533 114.904 23.5533L121.553 23.5533L121.553 16.9037Z" fill="#303392"/>
<path opacity="0.3" fill-rule="evenodd" clip-rule="evenodd" d="M90.436 64.5449C90.436 63.5509 91.2418 62.7451 92.2358 62.7451C93.2298 62.7451 94.0356 63.5509 94.0356 64.5449L94.0356 73.4355H102.926C103.92 73.4355 104.726 74.2413 104.726 75.2354C104.726 76.2294 103.92 77.0352 102.926 77.0352L94.0356 77.0352L94.0356 85.9258C94.0356 86.9198 93.2298 87.7256 92.2358 87.7256C91.2418 87.7256 90.436 86.9198 90.436 85.9258L90.436 77.0352L81.5454 77.0352C80.5513 77.0352 79.7455 76.2294 79.7455 75.2354C79.7455 74.2413 80.5513 73.4355 81.5454 73.4355L90.436 73.4355L90.436 64.5449Z" fill="#FFC107"/>
<path opacity="0.5" fill-rule="evenodd" clip-rule="evenodd" d="M82.3117 286.386C81.4089 286.386 80.6771 287.118 80.6771 288.021C80.6771 288.923 81.4089 289.655 82.3117 289.655L90.3862 289.655L90.3862 297.73C90.3862 298.632 91.118 299.364 92.0208 299.364C92.9236 299.364 93.6554 298.632 93.6554 297.73L93.6554 289.655H101.73C102.633 289.655 103.365 288.923 103.365 288.021C103.365 287.118 102.633 286.386 101.73 286.386H93.6554L93.6554 278.311C93.6554 277.409 92.9236 276.677 92.0208 276.677C91.118 276.677 90.3862 277.409 90.3862 278.311L90.3862 286.386L82.3117 286.386Z" fill="#DC3545"/>
<path opacity="0.3" fill-rule="evenodd" clip-rule="evenodd" d="M18 181.6C21.0928 181.6 23.6 179.093 23.6 176C23.6 172.907 21.0928 170.4 18 170.4C14.9072 170.4 12.4 172.907 12.4 176C12.4 179.093 14.9072 181.6 18 181.6ZM18 184C22.4183 184 26 180.418 26 176C26 171.582 22.4183 168 18 168C13.5817 168 10 171.582 10 176C10 180.418 13.5817 184 18 184Z" fill="#38A1DC"/>
<path fill-rule="evenodd" clip-rule="evenodd" d="M16.0264 206.162C17.6798 167.117 97.378 168.915 151.249 159.593C187.714 153.283 227.091 145.933 252.833 165.184C293.176 195.355 337.716 239.364 301.833 272.209C266.872 304.21 201.384 274.732 146.906 262.143C93.2865 249.752 14.3444 245.883 16.0264 206.162Z" fill="#1DBA44"/>
<path opacity="0.24" fill-rule="evenodd" clip-rule="evenodd" d="M49.6068 208.466C51.0745 176.06 121.821 177.552 169.641 169.815C202.011 164.578 236.965 158.478 259.815 174.456C295.627 199.496 335.165 236.021 303.312 263.282C272.278 289.841 214.145 265.376 165.786 254.927C118.189 244.643 48.1137 241.432 49.6068 208.466Z" fill="white"/>
<ellipse opacity="0.15" cx="175.792" cy="228.647" rx="13" ry="3.79274" fill="black"/>
<rect x="172.542" y="11.3779" width="5.95837" height="216.727" rx="2.97919" fill="#FFE37B"/>
<g clip-path="url(#clip0)">
<path fill-rule="evenodd" clip-rule="evenodd" d="M176.875 11.3779H373.703V19.3833H176.875V11.3779ZM176.875 27.3887H373.703V35.394H176.875V27.3887ZM176.875 43.3791H373.703V51.4047H176.875V43.3791ZM176.875 59.3898H373.703V67.3952H176.875V59.3898ZM176.875 75.4005H373.703V83.4059H176.875V75.4005ZM176.875 91.3909H373.703V99.3963H176.875V91.3909ZM176.875 107.402H373.703V115.407H176.875V107.402Z" fill="#BD3D44"/>
<path fill-rule="evenodd" clip-rule="evenodd" d="M176.875 19.3828H373.703V27.3882H176.875V19.3828ZM176.875 35.3935H373.703V43.3786H176.875V35.3935ZM176.875 51.3839H373.703V59.3893H176.875V51.3839ZM176.875 67.3947H373.703V75.4H176.875V67.3947ZM176.875 83.4054H373.703V91.4108H176.875V83.4054ZM176.875 99.3958H373.703V107.401H176.875V99.3958Z" fill="white"/>
<path fill-rule="evenodd" clip-rule="evenodd" d="M176.875 11.3779H255.602V67.3952H176.875V11.3779Z" fill="#192F5D"/>
<path fill-rule="evenodd" clip-rule="evenodd" d="M183.43 13.7754L184.159 15.9901H186.465L184.604 17.3514L185.312 19.5864L183.43 18.2048L181.569 19.5661L182.277 17.3514L180.396 15.9901H182.743L183.43 13.7754ZM196.562 13.7754L197.27 15.9901H199.597L197.715 17.3514L198.423 19.5864L196.562 18.2048L194.68 19.5661L195.388 17.3514L193.527 15.9901H195.833L196.562 13.7754ZM209.673 13.7754L210.401 15.9901H212.688L210.826 17.3514L211.534 19.5864L209.653 18.2048L207.791 19.5661L208.499 17.3514L206.618 15.9901H208.945L209.673 13.7754ZM222.804 13.7754L223.512 15.9901H225.839L223.958 17.3514L224.686 19.5864L222.804 18.2048L220.923 19.5661L221.651 17.3514L219.769 15.9901H222.076L222.804 13.7754ZM235.915 13.7754L236.644 15.9901H238.95L237.089 17.3514L237.797 19.5864L235.915 18.2048L234.054 19.5661L234.762 17.3514L232.901 15.9901H235.207L235.915 13.7754ZM249.047 13.7754L249.755 15.9901H252.082L250.2 17.3514L250.928 19.5864L249.047 18.2048L247.165 19.5661L247.893 17.3514L246.012 15.9901H248.338L249.047 13.7754ZM190.006 19.3832L190.714 21.5979H193.041L191.16 22.9592L191.847 25.1739L190.027 23.8126L188.145 25.1739L188.813 22.9592L186.992 21.5979H189.298L190.006 19.3832ZM203.117 19.3832L203.846 21.5979H206.152L204.271 22.9592L204.999 25.1739L203.117 23.8126L201.236 25.1739L201.964 22.9592L200.082 21.5979H202.409L203.117 19.3832ZM216.249 19.3832L216.957 21.5979H219.284L217.402 22.9592L218.11 25.1739L216.249 23.8126L214.367 25.1739L215.075 22.9592L213.214 21.5979H215.52L216.249 19.3832ZM229.36 19.3832L230.088 21.5979H232.395L230.513 22.9592L231.241 25.1739L229.36 23.8126L227.498 25.1739L228.206 22.9592L226.325 21.5979H228.672L229.36 19.3832ZM242.491 19.3832L243.199 21.5979H245.526L243.644 22.9592L244.353 25.1739L242.491 23.8126L240.609 25.1739L241.318 22.9592L239.456 21.5979H241.763L242.491 19.3832ZM183.43 24.9707L184.159 27.226H186.465L184.604 28.5873L185.312 30.802L183.43 29.4204L181.569 30.802L182.277 28.567L180.396 27.2057H182.743L183.43 24.9707ZM196.562 24.9707L197.27 27.2057H199.597L197.715 28.567L198.423 30.7817L196.562 29.4001L194.68 30.7817L195.388 28.5467L193.527 27.1854H195.833L196.562 24.9707ZM209.673 24.9707L210.401 27.2057H212.688L210.826 28.567L211.534 30.7817L209.653 29.4001L207.791 30.7817L208.499 28.5467L206.618 27.1854H208.945L209.673 24.9707ZM222.804 24.9707L223.512 27.2057H225.839L223.958 28.567L224.686 30.7817L222.804 29.4001L220.923 30.7817L221.651 28.5467L219.769 27.1854H222.076L222.804 24.9707ZM235.915 24.9707L236.644 27.2057H238.95L237.089 28.567L237.797 30.7817L235.915 29.4001L234.054 30.7817L234.762 28.5467L232.901 27.1854H235.207L235.915 24.9707ZM249.047 24.9707L249.755 27.2057H252.082L250.2 28.567L250.928 30.7817L249.047 29.4001L247.165 30.7817L247.893 28.5467L246.012 27.1854H248.338L249.047 24.9707ZM190.006 30.5785L190.714 32.7932H193.041L191.16 34.1545L191.868 36.3895L190.006 35.0079L188.125 36.3692L188.833 34.1545L186.971 32.7932H189.278L190.006 30.5785ZM203.117 30.5785L203.846 32.7932H206.152L204.271 34.1545L204.999 36.3895L203.117 35.0079L201.236 36.3692L201.964 34.1545L200.082 32.7932H202.409L203.117 30.5785ZM216.249 30.5785L216.957 32.7932H219.284L217.402 34.1545L218.11 36.3895L216.249 35.0079L214.367 36.3692L215.075 34.1545L213.214 32.7932H215.52L216.249 30.5785ZM229.36 30.5785L230.088 32.7932H232.395L230.533 34.1545L231.241 36.3895L229.36 35.0079L227.498 36.3692L228.206 34.1545L226.325 32.7932H228.672L229.36 30.5785ZM242.491 30.5785L243.199 32.7932H245.526L243.644 34.1545L244.353 36.3895L242.491 35.0079L240.609 36.3692L241.318 34.1545L239.456 32.7932H241.763L242.491 30.5785ZM183.43 36.1863L184.159 38.401H186.465L184.604 39.7623L185.312 41.9973L183.43 40.6157L181.569 41.977L182.277 39.7623L180.396 38.401H182.743L183.43 36.1863ZM196.562 36.1863L197.27 38.401H199.597L197.715 39.7623L198.423 41.977L196.562 40.6157L194.68 41.977L195.388 39.7623L193.527 38.401H195.833L196.562 36.1863ZM209.673 36.1863L210.401 38.401H212.688L210.826 39.7623L211.534 41.9973L209.653 40.6157L207.791 41.977L208.499 39.7623L206.618 38.401H208.945L209.673 36.1863ZM222.804 36.1863L223.512 38.401H225.839L223.958 39.7623L224.686 41.9973L222.804 40.6157L220.923 41.977L221.651 39.7623L219.769 38.401H222.076L222.804 36.1863ZM235.915 36.1863L236.644 38.401H238.95L237.089 39.7623L237.797 41.9973L235.915 40.6157L234.054 41.977L234.762 39.7623L232.901 38.401H235.207L235.915 36.1863ZM249.047 36.1863L249.755 38.401H252.082L250.2 39.7623L250.928 41.9973L249.047 40.6157L247.165 41.977L247.893 39.7623L246.012 38.401H248.338L249.047 36.1863ZM190.006 41.7942L190.714 44.0088H193.041L191.16 45.3702L191.868 47.5848L190.006 46.2032L188.125 47.5848L188.833 45.3498L186.971 43.9885H189.278L190.006 41.7942ZM203.117 41.7942L203.846 44.0088H206.152L204.271 45.3702L204.999 47.5848L203.117 46.2032L201.236 47.5848L201.964 45.3498L200.082 43.9885H202.409L203.117 41.7942ZM216.249 41.7942L216.957 44.0088H219.284L217.402 45.3702L218.11 47.5848L216.249 46.2032L214.367 47.5848L215.075 45.3498L213.214 43.9885H215.52L216.249 41.7942ZM229.36 41.7942L230.088 44.0088H232.395L230.533 45.3702L231.241 47.5848L229.36 46.2032L227.498 47.5848L228.206 45.3498L226.325 43.9885H228.672L229.36 41.7942ZM242.491 41.7942L243.199 44.0088H245.526L243.644 45.3702L244.353 47.5848L242.491 46.2032L240.609 47.5848L241.318 45.3498L239.456 43.9885H241.763L242.491 41.7942ZM183.43 47.3817L184.159 49.6167H186.465L184.604 50.978L185.312 53.1723L183.43 51.811L181.569 53.1723L182.277 50.9577L180.396 49.5963H182.743L183.43 47.3817ZM196.562 47.3817L197.27 49.6167H199.597L197.715 50.978L198.444 53.1723L196.562 51.811L194.68 53.1723L195.409 50.9577L193.527 49.5963H195.833L196.562 47.3817ZM209.673 47.3817L210.401 49.6167H212.688L210.826 50.978L211.534 53.1723L209.653 51.811L207.791 53.1723L208.499 50.9577L206.618 49.5963H208.945L209.673 47.3817ZM222.804 47.3817L223.512 49.6167H225.839L223.958 50.978L224.686 53.1723L222.804 51.811L220.923 53.1723L221.651 50.9577L219.769 49.5963H222.076L222.804 47.3817ZM235.915 47.3817L236.644 49.6167H238.95L237.089 50.978L237.797 53.1723L235.915 51.811L234.054 53.1723L234.762 50.9577L232.901 49.5963H235.207L235.915 47.3817ZM249.047 47.3817L249.755 49.6167H252.082L250.2 50.978L250.928 53.1723L249.047 51.811L247.165 53.1723L247.893 50.9577L246.012 49.5963H248.338L249.047 47.3817ZM190.006 52.9895L190.714 55.2042H193.041L191.16 56.5655L191.868 58.8005L190.006 57.4188L188.125 58.7802L188.833 56.5655L186.971 55.2042H189.278L190.006 52.9895ZM203.117 52.9895L203.846 55.2042H206.152L204.271 56.5655L204.999 58.8005L203.117 57.4188L201.236 58.7802L201.964 56.5655L200.082 55.2042H202.409L203.117 52.9895ZM216.249 52.9895L216.957 55.2042H219.284L217.402 56.5655L218.11 58.8005L216.249 57.4188L214.367 58.7802L215.075 56.5655L213.214 55.2042H215.52L216.249 52.9895ZM229.36 52.9895L230.088 55.2042H232.395L230.533 56.5655L231.241 58.8005L229.36 57.4188L227.498 58.7802L228.206 56.5655L226.325 55.2042H228.672L229.36 52.9895ZM242.491 52.9895L243.199 55.2042H245.526L243.644 56.5655L244.353 58.8005L242.491 57.4188L240.609 58.7802L241.318 56.5655L239.456 55.2042H241.763L242.491 52.9895ZM183.43 58.5973L184.159 60.812H186.465L184.604 62.1733L185.312 64.388L183.43 63.0266L181.569 64.388L182.277 62.153L180.396 60.7917H182.743L183.43 58.5973ZM196.562 58.5973L197.27 60.812H199.597L197.715 62.1733L198.444 64.388L196.562 63.0266L194.68 64.388L195.409 62.153L193.527 60.7917H195.833L196.562 58.5973ZM209.673 58.5973L210.401 60.812H212.688L210.867 62.1733L211.575 64.388L209.693 63.0266L207.832 64.388L208.54 62.153L206.658 60.7917H208.985L209.673 58.5973ZM222.804 58.5973L223.512 60.812H225.839L223.958 62.1733L224.686 64.388L222.804 63.0266L220.923 64.388L221.651 62.153L219.769 60.7917H222.076L222.804 58.5973ZM235.915 58.5973L236.644 60.812H238.95L237.089 62.1733L237.797 64.388L235.915 63.0266L234.054 64.388L234.762 62.153L232.901 60.7917H235.207L235.915 58.5973ZM249.047 58.5973L249.755 60.812H252.082L250.2 62.1733L250.928 64.388L249.047 63.0266L247.165 64.388L247.893 62.153L246.012 60.7917H248.338L249.047 58.5973Z" fill="white"/>
</g>
<defs>
<clipPath id="clip0">
<path d="M176.875 11.3779H305C310.523 11.3779 315 15.8551 315 21.3779V105.407C315 110.93 310.523 115.407 305 115.407H176.875V11.3779Z" fill="white"/>
</clipPath>
</defs>
</svg>
