<svg viewBox="0 0 330 298" fill="none" xmlns="http://www.w3.org/2000/svg">
<path opacity="0.06" fill-rule="evenodd" clip-rule="evenodd" d="M156.354 24.7047C193.796 20.0784 236.993 -15.7447 265.61 8.77608C295.046 33.9984 264.796 83.5934 269.863 121.966C273.586 150.162 300.089 175.42 291.18 202.436C282.275 229.442 250.042 239.048 226.143 254.544C203.724 269.08 182.612 284.815 156.354 289.856C125.29 295.82 89.027 304.823 63.8683 285.698C38.735 266.593 45.9954 227.634 35.4271 197.932C24.4222 167.004 -5.08124 140.625 0.756943 108.327C6.74847 75.1819 35.413 49.5227 65.1423 33.5452C92.7078 18.7306 125.278 28.5443 156.354 24.7047Z" fill="#6857E5"/>
<path opacity="0.06" fill-rule="evenodd" clip-rule="evenodd" d="M306.247 82.4984C315.111 83.7965 313.5 98.2695 317.5 109.27C321.5 120.27 330.674 124.537 329.5 133.77C328.215 143.87 325.996 150.935 318.911 155.708C311.641 160.604 302.808 157.827 295.543 152.865C288.742 148.219 284.665 139.894 282.143 130.592C279.13 119.476 275.483 107.032 280.438 97.1442C285.775 86.497 296.393 81.0552 306.247 82.4984Z" fill="#6857E5"/>
<path opacity="0.5" fill-rule="evenodd" clip-rule="evenodd" d="M222.312 19.3859C221.409 19.3859 220.677 20.1177 220.677 21.0205C220.677 21.9233 221.409 22.6551 222.312 22.6551L230.386 22.6551L230.386 30.7296C230.386 31.6324 231.118 32.3642 232.021 32.3642C232.924 32.3642 233.655 31.6324 233.655 30.7296L233.655 22.6551H241.73C242.633 22.6551 243.365 21.9233 243.365 21.0205C243.365 20.1177 242.633 19.3859 241.73 19.3859H233.655L233.655 11.3114C233.655 10.4086 232.924 9.67677 232.021 9.67677C231.118 9.67677 230.386 10.4086 230.386 11.3114L230.386 19.3859L222.312 19.3859Z" fill="#DC3545"/>
<path opacity="0.3" fill-rule="evenodd" clip-rule="evenodd" d="M35 59.8695C38.0928 59.8695 40.6 57.3623 40.6 54.2695C40.6 51.1767 38.0928 48.6695 35 48.6695C31.9072 48.6695 29.4 51.1767 29.4 54.2695C29.4 57.3623 31.9072 59.8695 35 59.8695ZM35 62.2695C39.4183 62.2695 43 58.6878 43 54.2695C43 49.8513 39.4183 46.2695 35 46.2695C30.5817 46.2695 27 49.8513 27 54.2695C27 58.6878 30.5817 62.2695 35 62.2695Z" fill="#38A1DC"/>
<path opacity="0.3" fill-rule="evenodd" clip-rule="evenodd" d="M270 238C273.866 238 277 234.866 277 231C277 227.134 273.866 224 270 224C266.134 224 263 227.134 263 231C263 234.866 266.134 238 270 238ZM270 241C275.523 241 280 236.523 280 231C280 225.477 275.523 221 270 221C264.477 221 260 225.477 260 231C260 236.523 264.477 241 270 241Z" fill="#4F4B6C"/>
<path opacity="0.4" fill-rule="evenodd" clip-rule="evenodd" d="M19.0769 140.347C19.0769 139.285 19.9379 138.424 21 138.424C22.0621 138.424 22.9231 139.285 22.9231 140.347L22.9231 149.846H32.4225C33.4846 149.846 34.3456 150.707 34.3456 151.77C34.3456 152.832 33.4846 153.693 32.4225 153.693L22.9231 153.693L22.9231 163.192C22.9231 164.254 22.0621 165.115 21 165.115C19.9379 165.115 19.0769 164.254 19.0769 163.192L19.0769 153.693L9.57749 153.693C8.51541 153.693 7.65441 152.832 7.65441 151.77C7.65441 150.707 8.51541 149.846 9.57749 149.846L19.0769 149.846L19.0769 140.347Z" fill="#1DBA44"/>
<path opacity="0.3" fill-rule="evenodd" clip-rule="evenodd" d="M31.5533 242.904C31.5533 242.16 32.156 241.558 32.8995 241.558C33.643 241.558 34.2456 242.16 34.2456 242.904L34.2456 249.553H40.8952C41.6387 249.553 42.2414 250.156 42.2414 250.899C42.2414 251.643 41.6387 252.246 40.8952 252.246H34.2456L34.2456 258.895C34.2456 259.639 33.643 260.241 32.8995 260.241C32.156 260.241 31.5533 259.639 31.5533 258.895L31.5533 252.246L24.9037 252.246C24.1603 252.246 23.5576 251.643 23.5576 250.899C23.5576 250.156 24.1603 249.553 24.9037 249.553L31.5533 249.553L31.5533 242.904Z" fill="#303392"/>
<path opacity="0.3" fill-rule="evenodd" clip-rule="evenodd" d="M269.775 111.175C269.775 110.326 270.464 109.637 271.314 109.637C272.163 109.637 272.852 110.326 272.852 111.175L272.852 118.775H280.452C281.301 118.775 281.99 119.464 281.99 120.313C281.99 121.163 281.301 121.852 280.452 121.852H272.852L272.852 129.451C272.852 130.301 272.163 130.99 271.314 130.99C270.464 130.99 269.775 130.301 269.775 129.451L269.775 121.852L262.176 121.852C261.326 121.852 260.637 121.163 260.637 120.313C260.637 119.464 261.326 118.775 262.176 118.775L269.775 118.775L269.775 111.175Z" fill="#FFC107"/>
<path fill-rule="evenodd" clip-rule="evenodd" d="M151 37V282.5C58.0002 239.5 58 199.5 58 69.5C58 69.5 90.0178 69.8701 109.501 62.5C127.026 55.8702 151 37 151 37ZM151.001 37V282.5C244 239.5 244.001 199.5 244.001 69.5C244.001 69.5 211.983 69.8701 192.5 62.5C174.974 55.8702 151.001 37 151.001 37Z" fill="#4F4B6C"/>
<path d="M151 248.183V71.3174C151 71.3174 133.729 84.9121 121.103 89.6884C107.067 94.998 84 94.7314 84 94.7314C84 188.387 84.0002 217.205 151 248.183Z" fill="#6857E5"/>
<path d="M151.001 248.183V71.3174C151.001 71.3174 168.272 84.9121 180.898 89.6884C194.934 94.998 218.001 94.7314 218.001 94.7314C218.001 188.387 218 217.205 151.001 248.183Z" fill="#303392"/>
<path fill-rule="evenodd" clip-rule="evenodd" d="M199.536 118.464C201.488 120.417 201.488 123.583 199.536 125.536L132.536 192.536C130.583 194.488 127.417 194.488 125.464 192.536L101.464 168.536C99.5118 166.583 99.5118 163.417 101.464 161.464C103.417 159.512 106.583 159.512 108.536 161.464L129 181.929L192.464 118.464C194.417 116.512 197.583 116.512 199.536 118.464Z" fill="white"/>
</svg>
