<svg viewBox="0 0 330 301" fill="none" xmlns="http://www.w3.org/2000/svg">
<path opacity="0.06" fill-rule="evenodd" clip-rule="evenodd" d="M169.331 15.6093C143.073 19.2935 115.349 17.4604 93.1221 31.9001C70.9503 46.304 61.846 72.5754 47.4904 94.7627C30.4102 121.161 -5.96149 143.844 0.836243 174.533C7.78342 205.896 51.3566 204.837 72 229.469C87 259.469 85.15 286.483 117 295.469C148.987 304.493 171.119 274.242 203.143 265.349C235.972 256.232 277.099 288.039 303.292 266.271C328.355 245.442 312.13 203.737 316.167 171.422C320.11 139.861 336.997 108.649 326.745 78.5364C316.184 47.513 291.125 20.5679 260.666 8.39182C231.726 -3.17688 200.199 11.2781 169.331 15.6093Z" fill="#6857E5"/>
<path opacity="0.06" fill-rule="evenodd" clip-rule="evenodd" d="M72.0352 260.711C71.4377 252.098 69.5012 239.659 62.5442 233.799C55.2524 227.657 46.784 221.109 36.9117 222.1C24.4526 223.352 18 235.167 18 247.093C18 259.02 24.5741 260.332 30.3082 270.491C35.6663 279.983 26.0928 294.549 36.9117 298.651C48.5577 303.067 63.2145 297.964 71.3462 289.18C78.414 281.545 72.7265 270.678 72.0352 260.711Z" fill="#6857E5"/>
<path d="M145.135 39.5195C145.135 36.1734 147.848 33.4609 151.194 33.4609H205.721C209.067 33.4609 211.779 36.1734 211.779 39.5195V66.7828H145.135V39.5195Z" fill="url(#paint0_linear)"/>
<path fill-rule="evenodd" clip-rule="evenodd" d="M214.808 69.812H142.106V39.5194C142.106 34.5004 146.175 30.4316 151.194 30.4316H205.721C210.74 30.4316 214.808 34.5004 214.808 39.5194V69.812ZM151.194 33.4609C147.848 33.4609 145.135 36.1734 145.135 39.5194V66.7828H211.779V39.5194C211.779 36.1734 209.067 33.4609 205.721 33.4609H151.194Z" fill="#FFBE1B"/>
<path d="M163.662 44.215L162.742 41.7504C162.697 41.6411 162.65 41.5113 162.601 41.361C162.552 41.2107 162.503 41.0484 162.454 40.8742C162.409 41.0484 162.362 41.2124 162.313 41.3661C162.264 41.5164 162.217 41.6479 162.172 41.7606L161.257 44.215H163.662ZM166.147 47.0126H165.059C164.937 47.0126 164.837 46.9836 164.761 46.9255C164.684 46.8641 164.627 46.7889 164.588 46.7001L164.023 45.1885H160.891L160.326 46.7001C160.298 46.7787 160.244 46.8504 160.164 46.9153C160.083 46.9802 159.984 47.0126 159.865 47.0126H158.767L161.743 39.6035H163.176L166.147 47.0126Z" fill="white"/>
<path d="M171.898 45.2654C171.975 45.2654 172.043 45.2944 172.102 45.3525L172.657 45.9417C172.35 46.3141 171.971 46.5993 171.522 46.7974C171.075 46.9956 170.538 47.0946 169.911 47.0946C169.349 47.0946 168.844 47.0007 168.394 46.8128C167.948 46.6249 167.566 46.3636 167.249 46.0289C166.931 45.6941 166.687 45.2944 166.516 44.8299C166.349 44.3653 166.265 43.858 166.265 43.3081C166.265 42.7513 166.356 42.2423 166.537 41.7811C166.719 41.3166 166.973 40.9169 167.301 40.5821C167.632 40.2474 168.026 39.9878 168.483 39.8033C168.94 39.6154 169.445 39.5215 170 39.5215C170.551 39.5215 171.039 39.6103 171.464 39.7879C171.893 39.9656 172.257 40.1978 172.557 40.4848L172.086 41.1253C172.059 41.1663 172.022 41.2021 171.977 41.2329C171.935 41.2636 171.876 41.279 171.799 41.279C171.747 41.279 171.692 41.2653 171.637 41.238C171.581 41.2073 171.52 41.1714 171.454 41.1304C171.387 41.086 171.311 41.0382 171.224 40.9869C171.136 40.9357 171.035 40.8896 170.92 40.8486C170.805 40.8042 170.671 40.7683 170.517 40.741C170.368 40.7102 170.193 40.6949 169.994 40.6949C169.656 40.6949 169.346 40.7546 169.064 40.8742C168.785 40.9903 168.544 41.1611 168.342 41.3866C168.14 41.6086 167.983 41.8819 167.871 42.2064C167.759 42.5275 167.704 42.8947 167.704 43.3081C167.704 43.7248 167.763 44.0954 167.882 44.4199C168.004 44.7445 168.167 45.0177 168.373 45.2398C168.579 45.4618 168.821 45.6326 169.1 45.7522C169.379 45.8683 169.679 45.9264 170 45.9264C170.191 45.9264 170.364 45.9161 170.517 45.8956C170.674 45.8751 170.817 45.8427 170.946 45.7983C171.079 45.7539 171.203 45.6975 171.318 45.6292C171.436 45.5575 171.553 45.4703 171.668 45.3679C171.703 45.3371 171.74 45.3132 171.778 45.2961C171.816 45.2756 171.856 45.2654 171.898 45.2654Z" fill="white"/>
<path d="M178.65 45.2654C178.727 45.2654 178.795 45.2944 178.854 45.3525L179.409 45.9417C179.102 46.3141 178.723 46.5993 178.274 46.7974C177.827 46.9956 177.29 47.0946 176.663 47.0946C176.101 47.0946 175.596 47.0007 175.146 46.8128C174.7 46.6249 174.318 46.3636 174.001 46.0289C173.683 45.6941 173.439 45.2944 173.269 44.8299C173.101 44.3653 173.018 43.858 173.018 43.3081C173.018 42.7513 173.108 42.2423 173.289 41.7811C173.471 41.3166 173.725 40.9169 174.053 40.5821C174.384 40.2474 174.778 39.9878 175.235 39.8033C175.692 39.6154 176.197 39.5215 176.752 39.5215C177.303 39.5215 177.791 39.6103 178.216 39.7879C178.645 39.9656 179.009 40.1978 179.309 40.4848L178.839 41.1253C178.811 41.1663 178.774 41.2021 178.729 41.2329C178.687 41.2636 178.628 41.279 178.551 41.279C178.499 41.279 178.445 41.2653 178.389 41.238C178.333 41.2073 178.272 41.1714 178.206 41.1304C178.139 41.086 178.063 41.0382 177.976 40.9869C177.888 40.9357 177.787 40.8896 177.672 40.8486C177.557 40.8042 177.423 40.7683 177.27 40.741C177.12 40.7102 176.945 40.6949 176.747 40.6949C176.408 40.6949 176.098 40.7546 175.816 40.8742C175.537 40.9903 175.296 41.1611 175.094 41.3866C174.892 41.6086 174.735 41.8819 174.623 42.2064C174.512 42.5275 174.456 42.8947 174.456 43.3081C174.456 43.7248 174.515 44.0954 174.634 44.4199C174.756 44.7445 174.919 45.0177 175.125 45.2398C175.331 45.4618 175.573 45.6326 175.852 45.7522C176.131 45.8683 176.431 45.9264 176.752 45.9264C176.944 45.9264 177.116 45.9161 177.27 45.8956C177.426 45.8751 177.569 45.8427 177.698 45.7983C177.831 45.7539 177.955 45.6975 178.07 45.6292C178.188 45.5575 178.305 45.4703 178.42 45.3679C178.455 45.3371 178.492 45.3132 178.53 45.2961C178.568 45.2756 178.608 45.2654 178.65 45.2654Z" fill="white"/>
<path d="M181.784 40.7V42.7547H184.431V43.8153H181.784V45.911H185.142V47.0126H180.372V39.6035H185.142V40.7H181.784Z" fill="white"/>
<path d="M188.847 43.3286C189.105 43.3286 189.33 43.2978 189.522 43.2363C189.713 43.1714 189.872 43.0809 189.998 42.9648C190.127 42.8452 190.223 42.7017 190.285 42.5343C190.348 42.3635 190.379 42.174 190.379 41.9656C190.379 41.7675 190.348 41.5881 190.285 41.4276C190.223 41.267 190.128 41.1304 190.003 41.0177C189.877 40.9049 189.719 40.8195 189.527 40.7615C189.335 40.7 189.109 40.6692 188.847 40.6692H187.796V43.3286H188.847ZM188.847 39.6035C189.353 39.6035 189.79 39.6615 190.16 39.7777C190.529 39.8938 190.834 40.0561 191.075 40.2645C191.316 40.4728 191.493 40.7222 191.608 41.0125C191.727 41.3029 191.786 41.6206 191.786 41.9656C191.786 42.3243 191.725 42.6539 191.603 42.9545C191.481 43.2517 191.298 43.5079 191.054 43.7231C190.81 43.9383 190.503 44.1057 190.134 44.2252C189.768 44.3448 189.339 44.4046 188.847 44.4046H187.796V47.0126H186.389V39.6035H188.847Z" fill="white"/>
<path d="M198.148 40.7359H195.867V47.0126H194.46V40.7359H192.18V39.6035H198.148V40.7359Z" fill="white"/>
<path d="M161.804 50.748H172.894C174.505 50.748 175.66 51.06 176.372 51.6841C177.085 52.3081 177.435 53.3221 177.435 54.7332V61.6327H174.526V55.109C174.526 54.3077 174.405 53.783 174.163 53.5277C173.921 53.2724 173.422 53.1448 172.659 53.1448H171.034V61.6398H168.083V53.1377H164.704V61.6327H161.796V50.748H161.804Z" fill="white"/>
<path d="M182.353 61.6132H179.323V50.7285H182.353V61.6132Z" fill="white"/>
<path d="M193.985 51.7558C193.244 51.0893 192.146 50.7489 190.699 50.7347V48.6074H188.411V50.7347H184.691V52.9825H189.516C189.979 52.9825 190.371 53.0109 190.699 53.0676C191.07 53.1315 191.355 53.2378 191.554 53.3725C191.939 53.6349 192.125 54.0887 192.125 54.734V55.0035H188.326C186.765 55.0035 185.646 55.2729 184.976 55.8118C184.306 56.3508 183.971 57.2371 183.971 58.471C183.971 59.4708 184.263 60.2437 184.847 60.7897C185.432 61.3357 186.266 61.6052 187.356 61.6052H188.411V63.7537H190.699V61.6052H193.215C194.277 61.5484 195.118 60.6692 195.118 59.5984V54.7908C195.118 53.4506 194.741 52.4365 193.985 51.7558ZM192.146 58.6553C192.146 59.0808 191.804 59.4212 191.376 59.4212H188.532C188.49 59.4212 188.454 59.4212 188.411 59.4212C187.841 59.4141 187.463 59.3361 187.271 59.1942C187.064 59.0453 186.964 58.7759 186.964 58.393C186.964 57.9391 187.093 57.6271 187.349 57.4428C187.563 57.2939 187.919 57.2017 188.418 57.1804C188.525 57.1733 188.632 57.1733 188.746 57.1733H192.153V58.6553H192.146Z" fill="white"/>
<rect x="55.7722" y="237.936" width="243.855" height="13.6317" fill="#4F4B6C"/>
<rect x="70.9186" y="231.879" width="213.563" height="6.0585" fill="#8985A4"/>
<rect x="78.4917" y="125.854" width="199.931" height="106.024" fill="#4F4B6C"/>
<path d="M78 96H101V126.75C101 132.963 95.8513 138 89.5 138C83.1487 138 78 132.963 78 126.75V96Z" fill="#6857E5"/>
<path d="M101 96H122V127.5C122 133.299 117.299 138 111.5 138C105.701 138 101 133.299 101 127.5V96Z" fill="#303392"/>
<path d="M122 96H145V126.75C145 132.963 139.851 138 133.5 138C127.149 138 122 132.963 122 126.75V96Z" fill="#6857E5"/>
<path d="M145 96H168V126.75C168 132.963 162.851 138 156.5 138C150.149 138 145 132.963 145 126.75V96Z" fill="#303392"/>
<path d="M168 96H189V127.5C189 133.299 184.299 138 178.5 138C172.701 138 168 133.299 168 127.5V96Z" fill="#6857E5"/>
<path d="M189 96H212V126.75C212 132.963 206.851 138 200.5 138C194.149 138 189 132.963 189 126.75V96Z" fill="#303392"/>
<path d="M212 96H234V126.75C234 132.963 229.075 138 223 138C216.925 138 212 132.963 212 126.75V96Z" fill="#6857E5"/>
<path d="M234 96H256V127.5C256 133.299 251.075 138 245 138C238.925 138 234 133.299 234 127.5V96Z" fill="#303392"/>
<path d="M256 96H278V126.75C278 132.963 273.075 138 267 138C260.925 138 256 132.963 256 126.75V96Z" fill="#6857E5"/>
<path d="M86.7799 71.9933C87.8771 68.9931 90.7146 67 93.8885 67H262.111C265.285 67 268.123 68.9931 269.22 71.9933L278 96H78L86.7799 71.9933Z" fill="#4F4B6C"/>
<rect x="101.211" y="148.574" width="60.5852" height="39.3804" fill="#ACA9BC"/>
<path d="M211.779 154.633C211.779 151.287 214.492 148.574 217.838 148.574H255.703C259.05 148.574 261.762 151.287 261.762 154.633V231.879H211.779V154.633Z" fill="#ACA9BC"/>
<path d="M217.838 187.956C217.838 187.12 218.516 186.441 219.352 186.441C220.189 186.441 220.867 187.12 220.867 187.956V197.044C220.867 197.88 220.189 198.558 219.352 198.558C218.516 198.558 217.838 197.88 217.838 197.044V187.956Z" fill="#4F4B6C"/>
<rect x="103.993" y="160.836" width="15.2022" height="2.5337" rx="1.26685" transform="rotate(-45 103.993 160.836)" fill="#8985A4"/>
<rect width="8.48727" height="2.5337" rx="1.26685" transform="matrix(0.707106 -0.707108 0.707106 0.707108 102.726 157.355)" fill="#8985A4"/>
<rect width="8.48724" height="2.5337" rx="1.26685" transform="matrix(0.707108 -0.707105 0.707108 0.707105 111.594 158.623)" fill="#8985A4"/>
<rect x="101.211" y="168.266" width="60.5852" height="1.51462" fill="#4F4B6C"/>
<rect x="133.018" y="148.574" width="39.3804" height="1.51463" transform="rotate(90 133.018 148.574)" fill="#4F4B6C"/>
<path d="M98.1819 190.982C98.1819 189.309 99.5381 187.953 101.211 187.953H161.796C163.469 187.953 164.826 189.309 164.826 190.982C164.826 192.655 163.469 194.012 161.796 194.012H101.211C99.5381 194.012 98.1819 192.655 98.1819 190.982Z" fill="#8985A4"/>
<path opacity="0.5" fill-rule="evenodd" clip-rule="evenodd" d="M167.312 283.387C166.409 283.387 165.677 284.119 165.677 285.021C165.677 285.924 166.409 286.656 167.312 286.656L175.386 286.656L175.386 294.731C175.386 295.633 176.118 296.365 177.021 296.365C177.924 296.365 178.655 295.633 178.655 294.731L178.655 286.656H186.73C187.633 286.656 188.365 285.924 188.365 285.021C188.365 284.119 187.633 283.387 186.73 283.387H178.655L178.655 275.312C178.655 274.41 177.924 273.678 177.021 273.678C176.118 273.678 175.386 274.41 175.386 275.312L175.386 283.387L167.312 283.387Z" fill="#DC3545"/>
<path opacity="0.4" fill-rule="evenodd" clip-rule="evenodd" d="M30.2191 104.72C30.2191 103.658 31.08 102.797 32.1421 102.797C33.2042 102.797 34.0652 103.658 34.0652 104.72L34.0652 114.22H43.5646C44.6267 114.22 45.4877 115.08 45.4877 116.143C45.4877 117.205 44.6267 118.066 43.5646 118.066L34.0652 118.066L34.0652 127.565C34.0652 128.627 33.2042 129.488 32.1421 129.488C31.08 129.488 30.2191 128.627 30.2191 127.565L30.2191 118.066L20.7196 118.066C19.6576 118.066 18.7966 117.205 18.7966 116.143C18.7966 115.08 19.6576 114.22 20.7196 114.22L30.2191 114.22L30.2191 104.72Z" fill="#1DBA44"/>
<path opacity="0.3" fill-rule="evenodd" clip-rule="evenodd" d="M121.553 1.90464C121.553 1.16118 122.156 0.55849 122.899 0.55849C123.643 0.55849 124.246 1.16118 124.246 1.90464L124.246 8.55424H130.895C131.639 8.55424 132.241 9.15693 132.241 9.90039C132.241 10.6439 131.639 11.2465 130.895 11.2465L124.246 11.2465V17.8961C124.246 18.6396 123.643 19.2423 122.899 19.2423C122.156 19.2423 121.553 18.6396 121.553 17.8961L121.553 11.2465L114.904 11.2465C114.16 11.2465 113.558 10.6439 113.558 9.90039C113.558 9.15693 114.16 8.55424 114.904 8.55424L121.553 8.55424L121.553 1.90464Z" fill="#303392"/>
<path opacity="0.3" fill-rule="evenodd" clip-rule="evenodd" d="M309.436 106.546C309.436 105.552 310.242 104.746 311.236 104.746C312.23 104.746 313.036 105.552 313.036 106.546L313.036 115.437H321.926C322.92 115.437 323.726 116.242 323.726 117.236C323.726 118.23 322.92 119.036 321.926 119.036L313.036 119.036L313.036 127.927C313.036 128.921 312.23 129.727 311.236 129.727C310.242 129.727 309.436 128.921 309.436 127.927L309.436 119.036L300.545 119.036C299.551 119.036 298.746 118.23 298.746 117.236C298.746 116.242 299.551 115.437 300.545 115.437L309.436 115.437L309.436 106.546Z" fill="#FFC107"/>
<path opacity="0.3" fill-rule="evenodd" clip-rule="evenodd" d="M54 193.6C57.0928 193.6 59.6 191.093 59.6 188C59.6 184.907 57.0928 182.4 54 182.4C50.9072 182.4 48.4 184.907 48.4 188C48.4 191.093 50.9072 193.6 54 193.6ZM54 196C58.4183 196 62 192.418 62 188C62 183.582 58.4183 180 54 180C49.5817 180 46 183.582 46 188C46 192.418 49.5817 196 54 196Z" fill="#38A1DC"/>
<path opacity="0.3" fill-rule="evenodd" clip-rule="evenodd" d="M301 50C304.866 50 308 46.866 308 43C308 39.134 304.866 36 301 36C297.134 36 294 39.134 294 43C294 46.866 297.134 50 301 50ZM301 53C306.523 53 311 48.5228 311 43C311 37.4772 306.523 33 301 33C295.477 33 291 37.4772 291 43C291 48.5228 295.477 53 301 53Z" fill="#4F4B6C"/>
<defs>
<linearGradient id="paint0_linear" x1="145.135" y1="50.1219" x2="211.779" y2="50.1219" gradientUnits="userSpaceOnUse">
<stop stop-color="#FFA738"/>
<stop offset="1" stop-color="#EA4343"/>
</linearGradient>
</defs>
</svg>
