<svg viewBox="0 0 330 348" fill="none" xmlns="http://www.w3.org/2000/svg">
<path opacity="0.06" fill-rule="evenodd" clip-rule="evenodd" d="M160.669 11.6043C186.927 15.2869 214.651 13.4546 236.878 27.8881C259.05 42.2858 268.154 68.546 282.51 90.7238C299.59 117.111 335.961 139.784 329.164 170.459C322.217 201.809 273.224 201.162 252.58 225.783C231.337 251.119 241.542 303.969 209.692 312.951C177.704 321.971 158.881 270.126 126.857 261.237C94.0279 252.124 52.9015 283.917 26.7084 262.159C1.64468 241.339 17.8703 199.651 13.8332 167.351C9.89032 135.803 -6.99658 104.604 3.25482 74.5045C13.8162 43.4944 38.8754 16.5608 69.3344 4.38993C98.2739 -7.17381 129.801 7.27497 160.669 11.6043Z" fill="#6857E5"/>
<path opacity="0.06" fill-rule="evenodd" clip-rule="evenodd" d="M136.499 281.527C129.996 275.862 119.853 268.432 110.838 269.168C101.39 269.939 90.8301 271.248 84.6124 278.866C76.7654 288.481 80.5899 301.349 89.0143 309.773C97.4386 318.198 102.973 314.518 114.167 317.676C124.627 320.626 128.207 337.624 138.686 332.94C149.966 327.898 156.632 314.023 156.126 302.12C155.685 291.774 144.023 288.083 136.499 281.527Z" fill="#6857E5"/>
<path opacity="0.5" fill-rule="evenodd" clip-rule="evenodd" d="M15.3117 67.3869C14.4089 67.3869 13.6771 68.1187 13.6771 69.0215C13.6771 69.9243 14.4089 70.6561 15.3117 70.6561L23.3862 70.6561L23.3862 78.7306C23.3862 79.6334 24.118 80.3652 25.0208 80.3652C25.9236 80.3652 26.6554 79.6334 26.6554 78.7306L26.6554 70.6561H34.7299C35.6327 70.6561 36.3646 69.9243 36.3646 69.0215C36.3646 68.1187 35.6327 67.3869 34.7299 67.3869H26.6554L26.6554 59.3124C26.6554 58.4096 25.9236 57.6777 25.0208 57.6777C24.118 57.6777 23.3862 58.4096 23.3862 59.3124L23.3862 67.3869L15.3117 67.3869Z" fill="#DC3545"/>
<path opacity="0.3" fill-rule="evenodd" clip-rule="evenodd" d="M39 144.6C42.0928 144.6 44.6 142.093 44.6 139C44.6 135.907 42.0928 133.4 39 133.4C35.9072 133.4 33.4 135.907 33.4 139C33.4 142.093 35.9072 144.6 39 144.6ZM39 147C43.4183 147 47 143.418 47 139C47 134.582 43.4183 131 39 131C34.5817 131 31 134.582 31 139C31 143.418 34.5817 147 39 147Z" fill="#38A1DC"/>
<path opacity="0.3" fill-rule="evenodd" clip-rule="evenodd" d="M299 81C302.866 81 306 77.866 306 74C306 70.134 302.866 67 299 67C295.134 67 292 70.134 292 74C292 77.866 295.134 81 299 81ZM299 84C304.523 84 309 79.5228 309 74C309 68.4772 304.523 64 299 64C293.477 64 289 68.4772 289 74C289 79.5228 293.477 84 299 84Z" fill="#4F4B6C"/>
<path opacity="0.4" fill-rule="evenodd" clip-rule="evenodd" d="M74.2191 273.72C74.2191 272.658 75.08 271.797 76.1421 271.797C77.2042 271.797 78.0652 272.658 78.0652 273.72L78.0652 283.22H87.5646C88.6267 283.22 89.4877 284.08 89.4877 285.143C89.4877 286.205 88.6267 287.066 87.5646 287.066L78.0652 287.066L78.0652 296.565C78.0652 297.627 77.2042 298.488 76.1421 298.488C75.08 298.488 74.2191 297.627 74.2191 296.565L74.2191 287.066L64.7196 287.066C63.6576 287.066 62.7966 286.205 62.7966 285.143C62.7966 284.08 63.6576 283.22 64.7196 283.22L74.2191 283.22L74.2191 273.72Z" fill="#1DBA44"/>
<path opacity="0.3" fill-rule="evenodd" clip-rule="evenodd" d="M297.553 185.903C297.553 185.159 298.156 184.557 298.899 184.557C299.643 184.557 300.246 185.159 300.246 185.903L300.246 192.552H306.895C307.639 192.552 308.241 193.155 308.241 193.898C308.241 194.642 307.639 195.245 306.895 195.245L300.246 195.245V201.894C300.246 202.638 299.643 203.24 298.899 203.24C298.156 203.24 297.553 202.638 297.553 201.894L297.553 195.245L290.904 195.245C290.16 195.245 289.558 194.642 289.558 193.898C289.558 193.155 290.16 192.552 290.904 192.552L297.553 192.552L297.553 185.903Z" fill="#303392"/>
<path opacity="0.3" fill-rule="evenodd" clip-rule="evenodd" d="M148.775 23.1765C148.775 22.3268 149.464 21.638 150.314 21.638C151.163 21.638 151.852 22.3268 151.852 23.1765L151.852 30.776H159.452C160.301 30.776 160.99 31.4648 160.99 32.3145C160.99 33.1641 160.301 33.8529 159.452 33.8529H151.852L151.852 41.4524C151.852 42.3021 151.163 42.9909 150.314 42.9909C149.464 42.9909 148.775 42.3021 148.775 41.4524L148.775 33.8529L141.176 33.8529C140.326 33.8529 139.637 33.1641 139.637 32.3145C139.637 31.4648 140.326 30.776 141.176 30.776L148.775 30.776L148.775 23.1765Z" fill="#FFC107"/>
<path d="M56.3842 125.85L174.855 140.427L168.377 193.08L49.9055 178.504L56.3842 125.85Z" fill="#6857E5"/>
<path fill-rule="evenodd" clip-rule="evenodd" d="M169.802 144.259L60.3575 130.793L54.9586 174.671L164.404 188.137L169.802 144.259ZM56.3842 125.85L49.9055 178.504L168.377 193.08L174.855 140.427L56.3842 125.85Z" fill="#303392"/>
<ellipse cx="112.945" cy="159.536" rx="19.3257" ry="18.7889" transform="rotate(7.01453 112.945 159.536)" fill="#303392"/>
<ellipse cx="144.109" cy="163.075" rx="5.49821" ry="5.34549" transform="rotate(7.01453 144.109 163.075)" fill="#303392"/>
<ellipse cx="81.3526" cy="155.352" rx="5.49821" ry="5.34549" transform="rotate(7.01453 81.3526 155.352)" fill="#303392"/>
<path d="M44.6495 154.203L163.561 143.811L168.18 196.66L49.2684 207.053L44.6495 154.203Z" fill="#6857E5"/>
<path fill-rule="evenodd" clip-rule="evenodd" d="M159.416 148.611L49.5643 158.211L53.4134 202.253L163.265 192.652L159.416 148.611ZM44.6495 154.203L49.2684 207.053L168.18 196.66L163.561 143.811L44.6495 154.203Z" fill="#303392"/>
<ellipse cx="106.981" cy="175.383" rx="19.3257" ry="18.7889" transform="rotate(-4.9948 106.981 175.383)" fill="#303392"/>
<ellipse cx="138.199" cy="172.358" rx="5.49821" ry="5.34549" transform="rotate(-4.9948 138.199 172.358)" fill="#303392"/>
<ellipse cx="75.2099" cy="177.864" rx="5.49821" ry="5.34549" transform="rotate(-4.9948 75.2099 177.864)" fill="#303392"/>
<path d="M42.6417 177.139L159.609 153.337L170.188 205.323L53.2201 229.124L42.6417 177.139Z" fill="#6857E5"/>
<path fill-rule="evenodd" clip-rule="evenodd" d="M156.035 158.576L47.9791 180.564L56.7945 223.885L164.85 201.898L156.035 158.576ZM42.6417 177.139L53.2201 229.124L170.188 205.323L159.609 153.337L42.6417 177.139Z" fill="#303392"/>
<ellipse cx="106.972" cy="191.119" rx="19.3257" ry="18.7889" transform="rotate(-11.5019 106.972 191.119)" fill="#303392"/>
<ellipse cx="137.646" cy="184.577" rx="5.49821" ry="5.34549" transform="rotate(-11.5019 137.646 184.577)" fill="#303392"/>
<ellipse cx="75.6867" cy="197.185" rx="5.49821" ry="5.34549" transform="rotate(-11.5019 75.6867 197.185)" fill="#303392"/>
<path d="M144.313 97.2734L276.691 75.5732L286.335 134.408L153.957 156.108L144.313 97.2734Z" fill="#98D55D"/>
<path fill-rule="evenodd" clip-rule="evenodd" d="M272.452 81.3028L150.159 101.35L158.197 150.379L280.489 130.332L272.452 81.3028ZM144.313 97.2734L153.957 156.108L286.335 134.408L276.691 75.5732L144.313 97.2734Z" fill="#70A63B"/>
<ellipse cx="215.954" cy="115.736" rx="21.7187" ry="21.1154" transform="rotate(-9.30946 215.954 115.736)" fill="#70A63B"/>
<ellipse cx="250.683" cy="109.708" rx="6.17903" ry="6.00739" transform="rotate(-9.30946 250.683 109.708)" fill="#70A63B"/>
<ellipse cx="180.56" cy="121.204" rx="6.17903" ry="6.00739" transform="rotate(-9.30946 180.56 121.204)" fill="#70A63B"/>
<path d="M219.695 119.021C219.582 118.328 219.252 117.795 218.707 117.423C218.16 117.043 217.307 116.764 216.147 116.585C214.986 116.399 214.074 116.2 213.412 115.99C211.209 115.304 209.943 113.96 209.616 111.96C209.393 110.605 209.652 109.419 210.391 108.401C211.131 107.383 212.243 106.668 213.727 106.257L213.29 103.588L215.387 103.244L215.828 105.938C217.382 105.893 218.656 106.304 219.651 107.172C220.644 108.032 221.272 109.262 221.534 110.862L218.362 111.382C218.194 110.353 217.812 109.586 217.218 109.08C216.631 108.564 215.914 108.376 215.066 108.514C214.228 108.652 213.607 108.972 213.205 109.473C212.803 109.975 212.666 110.622 212.796 111.414C212.913 112.124 213.238 112.657 213.772 113.014C214.313 113.361 215.174 113.635 216.356 113.835C217.537 114.036 218.473 114.247 219.165 114.469C219.856 114.691 220.455 114.978 220.961 115.331C221.466 115.676 221.882 116.102 222.207 116.61C222.533 117.119 222.756 117.74 222.876 118.475C223.102 119.854 222.831 121.047 222.063 122.053C221.304 123.058 220.129 123.77 218.538 124.19L218.929 126.578L216.845 126.919L216.456 124.544C214.696 124.648 213.269 124.287 212.174 123.461C211.087 122.633 210.411 121.411 210.146 119.795L213.331 119.273C213.499 120.301 213.905 121.052 214.548 121.525C215.199 121.996 216.032 122.149 217.045 121.983C218.041 121.82 218.76 121.471 219.202 120.938C219.653 120.403 219.817 119.764 219.695 119.021Z" fill="white"/>
<path d="M171.871 113.08L305.622 123.365L301.051 182.809L167.301 172.525L171.871 113.08Z" fill="#98D55D"/>
<path fill-rule="evenodd" clip-rule="evenodd" d="M300.145 127.926L176.586 118.426L172.777 167.963L296.336 177.464L300.145 127.926ZM171.871 113.08L167.301 172.525L301.051 182.809L305.622 123.365L171.871 113.08Z" fill="#70A63B"/>
<ellipse cx="237.098" cy="147.994" rx="21.7187" ry="21.1154" transform="rotate(4.397 237.098 147.994)" fill="#70A63B"/>
<ellipse cx="272.266" cy="150.368" rx="6.17903" ry="6.00739" transform="rotate(4.397 272.266 150.368)" fill="#70A63B"/>
<ellipse cx="201.416" cy="144.919" rx="6.17903" ry="6.00739" transform="rotate(4.397 201.416 144.919)" fill="#70A63B"/>
<path d="M239.955 152.07C240.008 151.369 239.814 150.773 239.373 150.283C238.932 149.784 238.169 149.311 237.084 148.863C236.001 148.406 235.162 147.997 234.568 147.636C232.59 146.447 231.679 144.842 231.835 142.822C231.94 141.453 232.472 140.361 233.432 139.547C234.391 138.733 235.641 138.302 237.181 138.255L237.388 135.558L239.507 135.721L239.297 138.443C240.818 138.767 241.958 139.468 242.719 140.547C243.48 141.618 243.798 142.962 243.674 144.578L240.47 144.332C240.55 143.293 240.361 142.457 239.903 141.824C239.455 141.184 238.803 140.831 237.947 140.765C237.099 140.7 236.421 140.864 235.911 141.256C235.401 141.648 235.116 142.244 235.054 143.044C234.999 143.762 235.189 144.357 235.623 144.83C236.067 145.296 236.839 145.766 237.939 146.24C239.039 146.715 239.898 147.142 240.517 147.521C241.136 147.901 241.65 148.322 242.059 148.785C242.468 149.239 242.77 149.752 242.966 150.323C243.162 150.894 243.231 151.55 243.174 152.293C243.067 153.686 242.521 154.781 241.536 155.576C240.56 156.372 239.25 156.786 237.605 156.817L237.419 159.23L235.314 159.068L235.499 156.668C233.765 156.352 232.463 155.663 231.595 154.6C230.735 153.539 230.368 152.191 230.494 150.558L233.712 150.806C233.632 151.845 233.848 152.671 234.36 153.282C234.882 153.895 235.654 154.241 236.678 154.319C237.684 154.397 238.465 154.229 239.021 153.815C239.586 153.402 239.897 152.82 239.955 152.07Z" fill="white"/>
<path d="M159.791 105.605L293.695 97.568L297.267 157.081L163.363 165.118L159.791 105.605Z" fill="#98D55D"/>
<path fill-rule="evenodd" clip-rule="evenodd" d="M288.892 102.834L165.19 110.259L168.167 159.853L291.868 152.428L288.892 102.834ZM159.791 105.605L163.363 165.118L297.267 157.081L293.695 97.568L159.791 105.605Z" fill="#70A63B"/>
<ellipse cx="229.167" cy="131.305" rx="21.7187" ry="21.1154" transform="rotate(-3.43501 229.167 131.305)" fill="#70A63B"/>
<ellipse cx="264.33" cy="128.865" rx="6.17903" ry="6.00739" transform="rotate(-3.43501 264.33 128.865)" fill="#70A63B"/>
<ellipse cx="193.399" cy="133.122" rx="6.17903" ry="6.00739" transform="rotate(-3.43501 193.399 133.122)" fill="#70A63B"/>
<path d="M232.552 134.954C232.51 134.252 232.237 133.689 231.732 133.263C231.227 132.83 230.407 132.464 229.272 132.168C228.136 131.863 227.249 131.573 226.612 131.296C224.491 130.387 223.369 128.922 223.248 126.899C223.166 125.528 223.544 124.374 224.384 123.437C225.223 122.5 226.403 121.903 227.922 121.646L227.76 118.946L229.881 118.819L230.044 121.544C231.594 121.658 232.82 122.197 233.72 123.163C234.62 124.12 235.119 125.407 235.216 127.026L232.008 127.218C231.945 126.178 231.645 125.375 231.105 124.811C230.574 124.238 229.88 123.977 229.023 124.029C228.174 124.08 227.524 124.334 227.073 124.792C226.621 125.25 226.42 125.88 226.468 126.681C226.511 127.399 226.78 127.963 227.274 128.372C227.777 128.773 228.606 129.134 229.761 129.454C230.915 129.774 231.825 130.08 232.49 130.371C233.155 130.663 233.721 131.01 234.189 131.413C234.656 131.808 235.025 132.274 235.297 132.813C235.569 133.352 235.727 133.993 235.772 134.736C235.856 136.132 235.464 137.29 234.597 138.213C233.739 139.134 232.497 139.722 230.871 139.978L231.016 142.393L228.908 142.519L228.764 140.116C227.003 140.04 225.621 139.534 224.615 138.6C223.619 137.666 223.072 136.381 222.974 134.746L226.195 134.553C226.258 135.593 226.584 136.382 227.175 136.918C227.775 137.454 228.588 137.691 229.613 137.629C230.62 137.569 231.371 137.296 231.865 136.81C232.368 136.324 232.597 135.706 232.552 134.954Z" fill="white"/>
<path d="M85.0119 34.5072C85.0119 33.2232 86.2045 32.2718 87.4563 32.5572L210.327 60.5646C211.692 60.8757 212.661 62.0895 212.661 63.4895V219.719H85.0119L85.0119 34.5072Z" fill="#4F4B6C"/>
<path d="M101.907 90.3125C101.907 89.2079 102.802 88.3125 103.907 88.3125H141.205C142.309 88.3125 143.205 89.2079 143.205 90.3125V110.839H101.907V90.3125Z" fill="#323352"/>
<rect x="101.907" y="110.84" width="41.2981" height="1.87717" fill="#8985A4"/>
<path d="M101.907 125.98C101.907 124.876 102.802 123.98 103.907 123.98H141.205C142.309 123.98 143.205 124.876 143.205 125.98V146.507H101.907V125.98Z" fill="#323352"/>
<rect x="101.907" y="146.508" width="41.2981" height="1.87717" fill="#8985A4"/>
<path d="M101.907 161.646C101.907 160.542 102.802 159.646 103.907 159.646H141.205C142.309 159.646 143.205 160.542 143.205 161.646V182.173H101.907V161.646Z" fill="#323352"/>
<rect x="101.907" y="182.176" width="41.2981" height="1.87721" fill="#8985A4"/>
<path d="M154.468 90.3125C154.468 89.2079 155.363 88.3125 156.468 88.3125H193.766C194.87 88.3125 195.766 89.2079 195.766 90.3125V110.839H154.468V90.3125Z" fill="#323352"/>
<rect x="154.468" y="110.84" width="41.2981" height="1.87717" fill="#8985A4"/>
<path d="M154.468 125.98C154.468 124.876 155.363 123.98 156.468 123.98H193.766C194.87 123.98 195.766 124.876 195.766 125.98V146.507H154.468V125.98Z" fill="#323352"/>
<rect x="154.468" y="146.508" width="41.2981" height="1.87717" fill="#8985A4"/>
<path d="M154.468 161.646C154.468 160.542 155.363 159.646 156.468 159.646H193.766C194.87 159.646 195.766 160.542 195.766 161.646V182.173H154.468V161.646Z" fill="#323352"/>
<rect x="154.468" y="182.176" width="41.2981" height="1.87721" fill="#8985A4"/>
<rect x="69.9944" y="219.721" width="157.684" height="11.2631" fill="#ACA9BC"/>
<rect x="49.3453" y="230.98" width="198.982" height="15.0175" fill="#4F4B6C"/>
<path d="M148.836 200.947C138.469 200.947 130.064 209.352 130.064 219.719H167.608C167.608 209.352 159.204 200.947 148.836 200.947Z" fill="#ACA9BC"/>
<path d="M104.893 221.65C104.893 223.782 103.025 226.159 98.9657 228.093C95.0178 229.973 89.4585 231.177 83.2366 231.177C77.0147 231.177 71.4554 229.973 67.5076 228.093C63.4479 226.159 61.5804 223.782 61.5804 221.65C61.5804 219.518 63.4479 217.14 67.5076 215.207C71.4554 213.327 77.0147 212.123 83.2366 212.123C89.4585 212.123 95.0178 213.327 98.9657 215.207C103.025 217.14 104.893 219.518 104.893 221.65Z" fill="#FFE37B" stroke="#FFBE1B" stroke-width="3"/>
<path d="M71.8125 237.558C71.8125 239.69 69.945 242.068 65.8853 244.001C61.9375 245.881 56.3781 247.085 50.1563 247.085C43.9344 247.085 38.375 245.881 34.4272 244.001C30.3675 242.068 28.5 239.69 28.5 237.558C28.5 235.426 30.3675 233.048 34.4272 231.115C38.375 229.235 43.9344 228.031 50.1563 228.031C56.3781 228.031 61.9375 229.235 65.8853 231.115C69.945 233.048 71.8125 235.426 71.8125 237.558Z" fill="#FFE37B" stroke="#FFBE1B" stroke-width="3"/>
<path d="M71.8125 230.39C71.8125 232.522 69.945 234.9 65.8853 236.833C61.9375 238.713 56.3781 239.917 50.1563 239.917C43.9344 239.917 38.375 238.713 34.4272 236.833C30.3675 234.9 28.5 232.522 28.5 230.39C28.5 228.258 30.3675 225.88 34.4272 223.947C38.375 222.067 43.9344 220.863 50.1563 220.863C56.3781 220.863 61.9375 222.067 65.8853 223.947C69.945 225.88 71.8125 228.258 71.8125 230.39Z" fill="#FFE37B" stroke="#FFBE1B" stroke-width="3"/>
<path d="M71.8125 223.224C71.8125 225.356 69.945 227.734 65.8853 229.667C61.9375 231.547 56.3781 232.751 50.1563 232.751C43.9344 232.751 38.375 231.547 34.4272 229.667C30.3675 227.734 28.5 225.356 28.5 223.224C28.5 221.092 30.3675 218.714 34.4272 216.781C38.375 214.901 43.9344 213.697 50.1563 213.697C56.3781 213.697 61.9375 214.901 65.8853 216.781C69.945 218.714 71.8125 221.092 71.8125 223.224Z" fill="#FFE37B" stroke="#FFBE1B" stroke-width="3"/>
<path d="M121.433 242.05C121.433 244.182 119.566 246.56 115.506 248.493C111.558 250.373 105.999 251.577 99.7768 251.577C93.5549 251.577 87.9956 250.373 84.0478 248.493C79.9881 246.56 78.1205 244.182 78.1205 242.05C78.1205 239.918 79.9881 237.541 84.0478 235.607C87.9956 233.727 93.5549 232.523 99.7768 232.523C105.999 232.523 111.558 233.727 115.506 235.607C119.566 237.541 121.433 239.918 121.433 242.05Z" fill="#FFE37B" stroke="#FFBE1B" stroke-width="3"/>
<path d="M121.433 234.882C121.433 237.014 119.566 239.392 115.506 241.325C111.558 243.205 105.999 244.409 99.7768 244.409C93.5549 244.409 87.9956 243.205 84.0477 241.325C79.988 239.392 78.1205 237.014 78.1205 234.882C78.1205 232.75 79.988 230.373 84.0477 228.439C87.9956 226.56 93.5549 225.355 99.7768 225.355C105.999 225.355 111.558 226.56 115.506 228.439C119.566 230.373 121.433 232.75 121.433 234.882Z" fill="#FFE37B" stroke="#FFBE1B" stroke-width="3"/>
<path d="M72.9943 207.356C69.8757 219.863 57.2067 227.474 44.6967 224.355C32.1919 221.237 24.5793 208.569 27.6993 196.063C30.8164 183.554 43.4855 175.942 55.9918 179.06C68.501 182.178 76.1128 194.848 72.9943 207.356Z" fill="#FFBE1B"/>
<path d="M69.6607 206.525C67.0011 217.191 56.1969 223.683 45.5284 221.023C34.8642 218.364 28.3722 207.56 31.0329 196.895C33.6912 186.227 44.4954 179.735 55.1609 182.395C65.8288 185.054 72.3202 195.859 69.6607 206.525Z" fill="#FFE37B"/>
<path d="M58.4366 199.021C58.8113 196.511 56.9045 195.161 54.2972 194.261L55.143 190.86L53.078 190.344L52.2546 193.655C51.7117 193.52 51.1542 193.392 50.6001 193.265L51.4294 189.932L49.3656 189.416L48.5193 192.816C48.0699 192.713 47.6288 192.612 47.2006 192.505L47.203 192.494L44.3552 191.781L43.8058 193.992C43.8058 193.992 45.338 194.344 45.3056 194.366C46.142 194.576 46.2931 195.13 46.2678 195.57L45.3044 199.444C45.3621 199.459 45.4368 199.48 45.5191 199.513C45.4503 199.496 45.3768 199.477 45.3009 199.459L43.9505 204.886C43.8482 205.141 43.5888 205.523 43.0042 205.378C43.0248 205.408 41.5032 205.002 41.5032 205.002L40.4781 207.372L43.1653 208.044C43.6653 208.169 44.1552 208.301 44.6375 208.424L43.7829 211.864L45.8455 212.38L46.6919 208.977C47.2553 209.13 47.8023 209.272 48.3375 209.405L47.4941 212.792L49.5591 213.308L50.4137 209.875C53.9349 210.543 56.5828 210.273 57.6973 207.081C58.5954 204.51 57.6526 203.027 55.8 202.06C57.1492 201.749 58.1655 200.859 58.4366 199.021ZM53.7185 205.653C53.0804 208.224 48.7628 206.834 47.363 206.486L48.4969 201.929C49.8967 202.279 54.3855 202.973 53.7185 205.653ZM54.3572 198.984C53.775 201.322 50.1814 200.134 49.0157 199.843L50.0438 195.71C51.2095 196.001 54.9636 196.545 54.3572 198.984Z" fill="white"/>
<g opacity="0.5">
<path fill-rule="evenodd" clip-rule="evenodd" d="M64.8315 56.3928C63.5916 55.1529 61.5815 55.1529 60.3416 56.3928C59.1018 57.6326 59.1018 59.6428 60.3416 60.8826L65.75 66.291C44.4977 69.1737 28.1173 87.3908 28.1173 109.434C28.1173 111.438 29.7417 113.062 31.7456 113.062C33.7495 113.062 35.374 111.438 35.374 109.434C35.374 91.7799 47.982 77.0708 64.6848 73.8196L60.3416 78.1628C59.1018 79.4027 59.1018 81.4128 60.3416 82.6527C61.5815 83.8925 63.5916 83.8925 64.8315 82.6527L75.7165 71.7676C76.9563 70.5278 76.9563 68.5176 75.7165 67.2778L64.8315 56.3928Z" fill="#ACA9BC"/>
</g>
<g opacity="0.5">
<path fill-rule="evenodd" clip-rule="evenodd" d="M239.923 279.722C241.162 280.962 243.173 280.962 244.412 279.722C245.652 278.483 245.652 276.472 244.412 275.233L239.004 269.824C260.256 266.941 276.637 248.724 276.637 226.681C276.637 224.678 275.012 223.053 273.008 223.053C271.005 223.053 269.38 224.678 269.38 226.681C269.38 244.335 256.772 259.044 240.069 262.296L244.412 257.952C245.652 256.713 245.652 254.702 244.412 253.463C243.173 252.223 241.162 252.223 239.923 253.463L229.038 264.348C227.798 265.587 227.798 267.598 229.038 268.837L239.923 279.722Z" fill="#ACA9BC"/>
</g>
</svg>
