<svg width="415" height="322" viewBox="0 0 415 322" fill="none" xmlns="http://www.w3.org/2000/svg">
<g clip-path="url(#clip0)">
<path d="M365.638 299.458C365.608 299.325 362.683 286.028 368.656 274.985C374.63 263.941 387.38 259.071 387.509 259.023L388.091 258.805L388.229 259.41C388.259 259.543 391.184 272.84 385.211 283.884C379.238 294.927 366.487 299.798 366.359 299.846L365.776 300.064L365.638 299.458ZM387.292 260.282C384.738 261.378 374.658 266.171 369.613 275.499C364.567 284.827 366.09 295.858 366.575 298.586C369.128 297.493 379.204 292.707 384.254 283.37C389.299 274.042 387.778 263.012 387.292 260.282Z" fill="#4F4B6C"/>
<path d="M380.646 280.01C369.912 286.448 365.777 299.237 365.777 299.237C365.777 299.237 379.047 301.587 389.782 295.148C400.516 288.71 404.65 275.921 404.65 275.921C404.65 275.921 391.38 273.571 380.646 280.01Z" fill="#8985A4"/>
<path d="M147.421 241.268C146.144 241.268 144.855 241.248 143.589 241.209L143.618 240.292C145.435 240.349 147.29 240.364 149.116 240.339L149.129 241.256C148.56 241.264 147.991 241.268 147.421 241.268ZM154.665 241.055L154.611 240.14C156.431 240.033 158.275 239.882 160.09 239.693L160.187 240.605C158.357 240.796 156.5 240.948 154.665 241.055ZM138.058 240.912C136.222 240.772 134.368 240.589 132.545 240.366L132.657 239.455C134.466 239.676 136.306 239.859 138.128 239.998L138.058 240.912ZM165.681 239.904L165.543 238.997C167.352 238.723 169.174 238.406 170.958 238.052L171.137 238.952C169.339 239.308 167.504 239.628 165.681 239.904ZM127.064 239.568C125.25 239.262 123.42 238.91 121.624 238.521L121.819 237.624C123.602 238.01 125.418 238.36 127.217 238.663L127.064 239.568ZM176.545 237.751L176.324 236.86C178.099 236.423 179.885 235.939 181.63 235.423L181.892 236.303C180.133 236.823 178.334 237.31 176.545 237.751ZM116.239 237.225C114.46 236.753 112.67 236.235 110.919 235.682L111.196 234.808C112.934 235.356 114.71 235.871 116.475 236.338L116.239 237.225ZM187.165 234.61L186.863 233.744C188.586 233.147 190.318 232.501 192.014 231.825L192.355 232.677C190.647 233.358 188.901 234.008 187.165 234.61ZM105.662 233.892C103.935 233.259 102.197 232.576 100.497 231.861L100.854 231.016C102.541 231.724 104.266 232.402 105.98 233.031L105.662 233.892ZM197.438 230.512L197.057 229.677C198.712 228.928 200.375 228.128 202 227.299L202.419 228.116C200.781 228.951 199.105 229.757 197.438 230.512ZM207.284 225.495L206.828 224.698C208.415 223.796 209.998 222.847 211.535 221.878L212.026 222.653C210.478 223.629 208.883 224.586 207.284 225.495ZM216.634 219.597L216.108 218.845C217.602 217.805 219.092 216.715 220.539 215.607L221.099 216.334C219.642 217.451 218.14 218.549 216.634 219.597ZM76.3872 218.305C74.9021 217.23 73.4185 216.103 71.9773 214.956L72.5515 214.239C73.9816 215.378 75.454 216.496 76.9277 217.563L76.3872 218.305ZM225.411 212.872L224.818 212.17C226.211 210.999 227.596 209.778 228.938 208.542L229.562 209.216C228.211 210.461 226.815 211.691 225.411 212.872ZM67.726 211.411C66.3428 210.203 64.9686 208.947 63.6418 207.677L64.2789 207.015C65.5958 208.276 66.9594 209.522 68.3321 210.721L67.726 211.411ZM233.542 205.374L232.887 204.73C234.171 203.433 235.441 202.091 236.661 200.741L237.344 201.355C236.115 202.715 234.836 204.067 233.542 205.374ZM59.7333 203.763C58.4642 202.433 57.2109 201.058 56.0081 199.676L56.7032 199.075C57.8968 200.446 59.1404 201.81 60.4001 203.131L59.7333 203.763ZM240.959 197.167L240.248 196.585C241.408 195.178 242.55 193.726 243.643 192.269L244.38 192.818C243.278 194.287 242.128 195.75 240.959 197.167ZM52.4741 195.426C51.3344 193.99 50.2123 192.508 49.1387 191.02L49.8854 190.484C50.9509 191.96 52.0645 193.431 53.1956 194.857L52.4741 195.426ZM247.598 188.317L246.836 187.802C247.863 186.296 248.868 184.746 249.823 183.193L250.608 183.674C249.644 185.237 248.631 186.8 247.598 188.317ZM46.0092 186.469C45.0066 184.937 44.0253 183.36 43.0923 181.782L43.8849 181.316C44.8109 182.882 45.7848 184.447 46.7798 185.967L46.0092 186.469ZM253.402 178.896L252.597 178.452C253.48 176.859 254.338 175.222 255.148 173.587L255.973 173.994C255.157 175.641 254.292 177.29 253.402 178.896ZM258.316 168.979L257.473 168.61C258.206 166.941 258.91 165.231 259.566 163.529L260.425 163.858C259.764 165.574 259.054 167.296 258.316 168.979ZM35.6777 166.999C34.9723 165.311 34.2967 163.585 33.6699 161.866L34.5349 161.553C35.1567 163.258 35.8271 164.971 36.5269 166.646L35.6777 166.999ZM262.295 158.644L261.421 158.355C261.996 156.63 262.537 154.867 263.032 153.115L263.918 153.363C263.419 155.129 262.873 156.906 262.295 158.644ZM31.8975 156.634C31.35 154.885 30.8355 153.099 30.3685 151.325L31.2585 151.092C31.722 152.853 32.2326 154.626 32.7758 156.36L31.8975 156.634ZM265.294 148.013L264.398 147.805C264.81 146.037 265.186 144.231 265.517 142.439L266.422 142.605C266.089 144.411 265.709 146.23 265.294 148.013ZM29.0871 145.951C28.7033 144.16 28.356 142.334 28.055 140.525L28.9626 140.375C29.2616 142.17 29.6062 143.982 29.987 145.76L29.0871 145.951ZM267.299 137.152L266.387 137.028C266.635 135.231 266.844 133.399 267.008 131.582L267.925 131.664C267.759 133.496 267.548 135.342 267.299 137.152ZM27.2736 135.058C27.0566 133.242 26.8785 131.392 26.7439 129.56L27.6618 129.493C27.7951 131.311 27.9721 133.147 28.1875 134.949L27.2736 135.058ZM268.3 126.155L267.381 126.114C267.462 124.296 267.504 122.452 267.504 120.634H268.424C268.424 122.466 268.382 124.324 268.3 126.155ZM26.4651 124.044C26.4337 122.919 26.4177 121.772 26.4175 120.634C26.4175 119.928 26.4235 119.223 26.4357 118.52L27.3559 118.536C27.3437 119.234 27.3377 119.933 27.3377 120.634C27.3379 121.763 27.3538 122.902 27.3848 124.019L26.4651 124.044ZM27.5742 113.06L26.6558 113.002C26.7706 111.169 26.9292 109.318 27.1267 107.5L28.0415 107.598C27.8454 109.403 27.6883 111.24 27.5742 113.06ZM266.91 107.463C266.726 105.654 266.473 104.773 266.206 102.972L267.117 102.838C267.385 104.652 267.616 106.037 267.802 107.86L266.91 107.463ZM28.7579 102.165L27.8485 102.024C28.1305 100.21 28.458 98.3805 28.8222 96.5872L29.7239 96.769C29.3627 98.5487 29.0376 100.364 28.7579 102.165ZM265.278 97.5706C264.927 95.7811 264.531 93.9797 264.101 92.2167L264.995 91.9999C265.428 93.7763 265.827 95.5916 266.181 97.3945L265.278 97.5706ZM30.9375 91.4236L30.045 91.2005C30.4918 89.4238 30.9867 87.6323 31.516 85.8755L32.3971 86.1393C31.8721 87.8827 31.381 89.6605 30.9375 91.4236ZM262.677 86.9223C262.164 85.1756 261.603 83.4186 261.011 81.6994L261.881 81.4011C262.478 83.1334 263.043 84.9043 263.561 86.6643L262.677 86.9223ZM34.1051 80.9135L33.2371 80.6093C33.8486 78.8752 34.5088 77.1327 35.1994 75.4303L36.0526 75.7743C35.3672 77.4635 34.7119 79.1927 34.1051 80.9135ZM259.104 76.5584C258.433 74.8702 257.714 73.1758 256.967 71.5223L257.806 71.1456C258.559 72.8119 259.283 74.5192 259.959 76.2202L259.104 76.5584ZM38.2351 70.7319L37.399 70.3489C38.1675 68.6804 38.9855 67.0071 39.8302 65.3757L40.6479 65.7963C39.8095 67.4154 38.9978 69.0759 38.2351 70.7319ZM254.6 66.5874C253.777 64.9679 252.904 63.345 252.007 61.7645L252.808 61.3125C253.712 62.9054 254.591 64.5406 255.421 66.1726L254.6 66.5874ZM43.2856 60.9779L42.488 60.5201C43.406 58.9311 44.374 57.3405 45.3654 55.7929L46.1409 56.2865C45.1571 57.8225 44.1963 59.401 43.2856 60.9779ZM249.194 57.063C248.222 55.5199 247.204 53.9825 246.168 52.4936L246.924 51.9709C247.968 53.4712 248.994 55.0202 249.974 56.5752L249.194 57.063ZM49.2083 51.7315L48.4562 51.2029C49.517 49.703 50.6261 48.208 51.7534 46.7594L52.4804 47.3215C51.3618 48.7594 50.2608 50.243 49.2083 51.7315ZM242.935 48.0656C241.826 46.6176 240.672 45.1782 239.502 43.7873L240.207 43.1981C241.386 44.5997 242.549 46.0499 243.667 47.5088L242.935 48.0656ZM55.9501 43.0664L55.2497 42.4715C56.4401 41.0776 57.6809 39.6901 58.9373 38.3476L59.6099 38.9734C58.3631 40.3058 57.1318 41.6829 55.9501 43.0664ZM235.877 39.6684C234.641 38.327 233.359 36.9976 232.066 35.7174L232.715 35.0665C234.017 36.3568 235.309 37.6961 236.555 39.0475L235.877 39.6684ZM63.4517 35.0522L62.8083 34.3964C64.1241 33.1131 65.4857 31.8443 66.855 30.6255L67.4678 31.3099C66.1089 32.5193 64.7576 33.7785 63.4517 35.0522ZM228.08 31.9424C226.725 30.7175 225.326 29.5094 223.923 28.3517L224.51 27.6449C225.924 28.8113 227.333 30.0286 228.698 31.2629L228.08 31.9424ZM71.6497 27.7538L71.0688 27.0424C72.492 25.887 73.9627 24.7474 75.4406 23.6554L75.9887 24.3922C74.5219 25.4762 73.0621 26.607 71.6497 27.7538ZM80.4752 21.2325L79.9617 20.4715C81.4848 19.4497 83.0529 18.4493 84.6226 17.4972L85.1006 18.2811C83.5431 19.2258 81.9869 20.2188 80.4752 21.2325ZM89.8554 15.5442L89.4137 14.7393C91.0252 13.8602 92.6775 13.0073 94.3246 12.2039L94.729 13.0281C93.0944 13.8252 91.4547 14.6716 89.8554 15.5442ZM200.907 13.4187C199.27 12.6055 197.593 11.8198 195.922 11.0837L196.294 10.2447C197.978 10.9865 199.668 11.7782 201.318 12.5977L200.907 13.4187ZM99.7114 10.7381L99.3456 9.8964C101.03 9.16874 102.752 8.47085 104.465 7.82202L104.792 8.67982C103.092 9.32351 101.383 10.016 99.7114 10.7381ZM190.833 8.97927C189.129 8.32059 187.385 7.69213 185.65 7.1116L185.943 6.24172C187.691 6.82694 189.448 7.4601 191.165 8.12416L190.833 8.97927ZM109.975 6.85247L109.689 5.98079C111.437 5.40923 113.222 4.87104 114.991 4.38166L115.237 5.26544C113.481 5.75123 111.711 6.28518 109.975 6.85247ZM180.398 5.48851C178.643 4.98974 176.853 4.52523 175.078 4.10798L175.289 3.21525C177.078 3.63564 178.882 4.10372 180.651 4.60608L180.398 5.48851ZM120.567 3.92186L120.363 3.02756C122.155 2.61927 123.982 2.24726 125.79 1.92206L125.954 2.82465C124.159 3.14761 122.346 3.51671 120.567 3.92186ZM169.699 2.97381C167.907 2.63851 166.082 2.34021 164.274 2.08713L164.402 1.17871C166.224 1.43381 168.063 1.73438 169.869 2.07212L169.699 2.97381ZM131.385 1.97559L131.263 1.06628C133.085 0.823951 134.937 0.620141 136.769 0.461124L136.849 1.37491C135.031 1.53303 133.193 1.73503 131.385 1.97559ZM158.814 1.44927C157.001 1.27905 155.157 1.1478 153.33 1.05979L153.375 0.143314C155.215 0.23223 157.074 0.36437 158.9 0.53595L158.814 1.44927ZM142.336 1.02306L142.297 0.106605C143.989 0.0362793 145.712 0.000449511 147.421 0L147.837 0.000668402L147.835 0.918038L147.421 0.917369C145.725 0.917796 144.014 0.953401 142.336 1.02306Z" fill="#4F4B6C"/>
<path d="M415 299.196H77.7551V300.114H415V299.196Z" fill="#4F4B6C"/>
<path d="M275.138 144.956L279.739 216.052C279.739 216.052 290.781 244.032 290.321 270.636C290.321 270.636 286.18 281.185 289.401 283.02C292.621 284.855 294.462 286.231 292.621 287.607C290.781 288.983 289.401 292.194 290.781 293.111C292.161 294.029 292.621 295.405 292.161 295.405H278.359C278.359 295.405 281.119 288.524 276.978 286.69C272.838 284.855 275.138 280.268 275.138 280.268L244.312 190.366L219.927 272.929C219.927 272.929 224.068 275.681 220.847 277.057C217.627 278.433 216.247 275.681 217.627 278.433C219.007 281.185 217.167 282.561 217.167 283.02C217.167 283.479 203.364 281.644 203.364 281.644C203.364 281.644 210.265 275.681 207.045 274.305C203.824 272.929 202.444 271.553 203.364 270.636C204.284 269.718 207.965 261.003 207.965 261.003C207.965 261.003 209.805 227.978 210.265 226.602C210.726 225.226 210.265 218.804 210.265 215.594C210.265 212.383 209.805 199.54 211.186 196.329C212.566 193.118 213.946 153.671 221.308 149.084C228.669 144.497 275.138 144.956 275.138 144.956Z" fill="#2F2E41"/>
<path d="M216.707 280.727C216.707 280.727 225.909 299.533 219.467 301.826C213.026 304.119 204.744 302.285 202.904 305.037C201.064 307.789 180.82 311 180.36 304.119C179.9 297.239 202.444 284.396 202.444 284.396L205.381 279.682L216.707 280.727Z" fill="#2F2E41"/>
<path d="M291.241 294.487C291.241 294.487 300.443 313.293 294.002 315.587C287.56 317.88 279.279 316.045 277.439 318.798C275.598 321.55 255.354 324.76 254.894 317.88C254.434 311 276.978 298.157 276.978 298.157L279.915 293.442L291.241 294.487Z" fill="#2F2E41"/>
<path d="M248.683 58.4939C257.068 58.4939 263.866 51.717 263.866 43.3573C263.866 34.9976 257.068 28.2207 248.683 28.2207C240.298 28.2207 233.5 34.9976 233.5 43.3573C233.5 51.717 240.298 58.4939 248.683 58.4939Z" fill="#A0616A"/>
<path d="M259.035 51.3838L257.195 64.6856L243.392 75.2354L239.711 70.1899V52.7598L259.035 51.3838Z" fill="#A0616A"/>
<path d="M237.411 68.355C237.411 68.355 251.674 69.7311 259.035 64.6855L273.758 151.377C273.758 151.377 221.768 155.505 219.467 152.753V125.691L228.669 81.6569L237.411 68.355Z" fill="#E7EFFD"/>
<path d="M257.768 60.541L262.716 64.6858C262.716 64.6858 282.96 67.8966 281.579 73.4008L276.058 138.534L277.899 160.551C277.899 160.551 262.256 156.423 250.293 160.551C238.331 164.679 247.835 71.8397 247.835 71.8397C247.835 71.8397 258.802 61.9005 257.768 60.541Z" fill="#6857E5"/>
<path d="M239.711 65.5615C239.711 65.5615 224.988 76.1528 223.148 83.0331C221.308 89.9133 215.326 162.385 215.326 162.385C215.326 162.385 218.087 161.009 219.467 163.303C220.847 165.596 242.012 69.1895 239.711 65.5615Z" fill="#6857E5"/>
<path d="M233.507 42.6975C233.507 42.6975 231.864 40.2396 232.496 37.5926C232.874 36.0897 233.023 34.5388 232.938 32.9918C232.938 32.9918 234.266 28.7061 235.593 26.3112C236.921 23.9163 236.289 22.9079 240.461 22.1516C244.634 21.3953 242.927 15.9753 253.926 21.8365C254.298 22.3531 254.814 22.7485 255.41 22.9728C256.006 23.1972 256.656 23.2404 257.277 23.097C259.553 22.6558 260.375 25.807 260.375 25.807C260.375 25.807 261.892 24.9247 262.461 26.1852C263.03 27.4457 267.086 25.4287 267.086 33.9369C267.086 42.4452 262.47 50.0453 262.47 50.0453C262.47 50.0453 262.808 35.7334 255.286 34.2838C247.763 32.8342 239.671 28.6116 237.711 34.0317C236.653 37.0737 235.242 39.9821 233.507 42.6975Z" fill="#2F2E41"/>
<path d="M262.635 46.1012C263.454 46.1012 264.119 45.2181 264.119 44.1287C264.119 43.0393 263.454 42.1562 262.635 42.1562C261.815 42.1562 261.151 43.0393 261.151 44.1287C261.151 45.2181 261.815 46.1012 262.635 46.1012Z" fill="#A0616A"/>
<path d="M200.277 185.973C196.636 183.791 192.247 183.957 190.578 184.124C191.213 185.671 193.12 189.616 196.761 191.8C200.41 193.988 204.794 193.816 206.461 193.651C205.825 192.105 203.918 188.157 200.277 185.973Z" fill="#8985A4"/>
<path d="M217.385 229.284H194.63C193.273 229.284 191.97 229.822 191.01 230.779C190.05 231.736 189.511 233.035 189.511 234.388C189.511 235.742 190.05 237.04 191.01 237.997C191.97 238.955 193.273 239.492 194.63 239.492H217.385C218.742 239.491 220.042 238.953 221.002 237.996C221.961 237.039 222.499 235.741 222.499 234.388C222.499 233.035 221.961 231.738 221.002 230.781C220.042 229.824 218.742 229.285 217.385 229.284Z" fill="#8985A4"/>
<path d="M320.423 175.408H192.848C191.364 175.408 189.894 175.7 188.523 176.266C187.152 176.832 185.906 177.662 184.857 178.708C183.807 179.754 182.975 180.996 182.407 182.363C181.839 183.73 181.547 185.195 181.547 186.675V248.642C181.547 251.63 182.737 254.496 184.857 256.609C186.976 258.722 189.851 259.909 192.848 259.909H320.423C321.907 259.909 323.377 259.617 324.748 259.051C326.119 258.485 327.365 257.655 328.414 256.609C329.464 255.563 330.296 254.321 330.864 252.954C331.432 251.587 331.724 250.122 331.724 248.642V186.675C331.724 185.195 331.432 183.73 330.864 182.363C330.296 180.996 329.464 179.754 328.414 178.708C327.365 177.662 326.119 176.832 324.748 176.266C323.377 175.7 321.907 175.408 320.423 175.408ZM189.691 183.094C189.943 183.048 195.917 182.035 200.864 185.002C205.81 187.969 207.71 193.706 207.789 193.949L207.989 194.567L207.347 194.681C206.431 194.823 205.505 194.891 204.578 194.883C202.332 194.883 199.077 194.513 196.174 192.772C191.228 189.805 189.328 184.068 189.249 183.826L189.049 183.207L189.691 183.094ZM217.385 240.627H194.631C192.971 240.627 191.379 239.969 190.206 238.8C189.032 237.63 188.373 236.043 188.373 234.388C188.373 232.734 189.032 231.147 190.206 229.977C191.379 228.807 192.971 228.15 194.631 228.15H217.385C219.044 228.15 220.636 228.807 221.809 229.977C222.983 231.147 223.642 232.734 223.642 234.388C223.642 236.043 222.983 237.63 221.809 238.8C220.636 239.969 219.044 240.627 217.385 240.627ZM320.916 239.492C320.911 241.296 320.19 243.024 318.911 244.299C317.632 245.574 315.899 246.293 314.09 246.298H297.024C295.215 246.293 293.482 245.574 292.203 244.299C290.924 243.024 290.203 241.296 290.198 239.492V229.284C290.203 227.481 290.924 225.753 292.203 224.478C293.482 223.203 295.215 222.484 297.024 222.479H314.09C315.899 222.484 317.632 223.203 318.911 224.478C320.19 225.753 320.911 227.481 320.916 229.284L320.916 239.492Z" fill="#8985A4"/>
<path d="M302.428 237.508H295.033C294.505 237.508 293.999 237.717 293.625 238.089C293.252 238.461 293.042 238.966 293.042 239.493C293.042 240.019 293.252 240.524 293.625 240.896C293.999 241.269 294.505 241.478 295.033 241.478H302.428C302.956 241.478 303.463 241.269 303.836 240.896C304.21 240.524 304.419 240.019 304.419 239.493C304.419 238.966 304.21 238.461 303.836 238.089C303.463 237.717 302.956 237.508 302.428 237.508ZM302.428 240.343H295.033C294.921 240.344 294.81 240.322 294.706 240.279C294.602 240.237 294.508 240.174 294.429 240.095C294.349 240.016 294.286 239.922 294.243 239.819C294.2 239.715 294.178 239.605 294.178 239.493C294.178 239.381 294.2 239.27 294.243 239.167C294.286 239.063 294.349 238.97 294.429 238.891C294.508 238.812 294.602 238.749 294.706 238.706C294.81 238.664 294.921 238.642 295.033 238.642H302.428C302.541 238.642 302.652 238.664 302.755 238.706C302.859 238.749 302.954 238.812 303.033 238.891C303.112 238.97 303.175 239.063 303.218 239.167C303.261 239.27 303.284 239.381 303.284 239.493C303.284 239.605 303.261 239.715 303.218 239.819C303.175 239.922 303.112 240.016 303.033 240.095C302.954 240.174 302.859 240.237 302.755 240.279C302.652 240.322 302.541 240.344 302.428 240.343Z" fill="#8985A4"/>
<path d="M316.081 237.508H308.686C308.424 237.507 308.165 237.558 307.923 237.658C307.681 237.758 307.461 237.904 307.276 238.088C307.091 238.272 306.944 238.491 306.844 238.732C306.743 238.973 306.692 239.232 306.692 239.493C306.692 239.754 306.743 240.012 306.844 240.253C306.944 240.494 307.091 240.713 307.276 240.897C307.461 241.082 307.681 241.228 307.923 241.327C308.165 241.427 308.424 241.478 308.686 241.478H316.081C316.609 241.478 317.115 241.269 317.489 240.896C317.862 240.524 318.072 240.019 318.072 239.493C318.072 238.966 317.862 238.461 317.489 238.089C317.115 237.717 316.609 237.508 316.081 237.508ZM316.081 240.343H308.686C308.573 240.344 308.462 240.322 308.359 240.279C308.255 240.237 308.16 240.174 308.081 240.095C308.002 240.016 307.939 239.922 307.896 239.819C307.853 239.715 307.83 239.605 307.83 239.493C307.83 239.381 307.853 239.27 307.896 239.167C307.939 239.063 308.002 238.97 308.081 238.891C308.16 238.812 308.255 238.749 308.359 238.706C308.462 238.664 308.573 238.642 308.686 238.642H316.081C316.307 238.643 316.523 238.732 316.683 238.892C316.842 239.051 316.932 239.267 316.932 239.493C316.932 239.718 316.842 239.934 316.683 240.094C316.523 240.253 316.307 240.343 316.081 240.343Z" fill="#8985A4"/>
<path d="M302.428 232.403H295.033C294.505 232.403 293.999 232.612 293.625 232.985C293.252 233.357 293.042 233.862 293.042 234.388C293.042 234.915 293.252 235.42 293.625 235.792C293.999 236.164 294.505 236.373 295.033 236.373H302.428C302.69 236.374 302.949 236.322 303.191 236.223C303.433 236.123 303.653 235.977 303.838 235.793C304.023 235.608 304.17 235.39 304.27 235.149C304.371 234.908 304.422 234.649 304.422 234.388C304.422 234.127 304.371 233.869 304.27 233.628C304.17 233.387 304.023 233.168 303.838 232.984C303.653 232.799 303.433 232.653 303.191 232.554C302.949 232.454 302.69 232.403 302.428 232.403ZM302.428 235.239H295.033C294.807 235.239 294.59 235.149 294.43 234.99C294.27 234.83 294.18 234.614 294.18 234.388C294.18 234.163 294.27 233.946 294.43 233.787C294.59 233.627 294.807 233.538 295.033 233.538H302.428C302.655 233.538 302.872 233.627 303.032 233.787C303.192 233.946 303.282 234.163 303.282 234.388C303.282 234.614 303.192 234.83 303.032 234.99C302.872 235.149 302.655 235.239 302.428 235.239Z" fill="#8985A4"/>
<path d="M316.081 232.403H308.686C308.424 232.403 308.165 232.454 307.923 232.554C307.681 232.653 307.461 232.799 307.276 232.984C307.091 233.168 306.944 233.387 306.844 233.628C306.743 233.869 306.692 234.127 306.692 234.388C306.692 234.649 306.743 234.908 306.844 235.149C306.944 235.39 307.091 235.608 307.276 235.793C307.461 235.977 307.681 236.123 307.923 236.223C308.165 236.322 308.424 236.374 308.686 236.373H316.081C316.609 236.373 317.115 236.164 317.489 235.792C317.862 235.42 318.072 234.915 318.072 234.388C318.072 233.862 317.862 233.357 317.489 232.985C317.115 232.612 316.609 232.403 316.081 232.403ZM316.081 235.239H308.686C308.459 235.239 308.242 235.149 308.082 234.99C307.922 234.83 307.832 234.614 307.832 234.388C307.832 234.163 307.922 233.946 308.082 233.787C308.242 233.627 308.459 233.538 308.686 233.538H316.081C316.307 233.538 316.524 233.627 316.684 233.787C316.844 233.946 316.934 234.163 316.934 234.388C316.934 234.614 316.844 234.83 316.684 234.99C316.524 235.149 316.307 235.239 316.081 235.239Z" fill="#8985A4"/>
<path d="M302.428 227.3H295.033C294.505 227.3 293.999 227.509 293.625 227.881C293.252 228.253 293.042 228.758 293.042 229.285C293.042 229.811 293.252 230.316 293.625 230.688C293.999 231.061 294.505 231.27 295.033 231.27H302.428C302.956 231.27 303.463 231.061 303.836 230.688C304.21 230.316 304.419 229.811 304.419 229.285C304.419 228.758 304.21 228.253 303.836 227.881C303.463 227.509 302.956 227.3 302.428 227.3ZM302.428 230.135H295.033C294.807 230.135 294.59 230.046 294.43 229.886C294.27 229.727 294.18 229.51 294.18 229.285C294.18 229.059 294.27 228.843 294.43 228.683C294.59 228.524 294.807 228.434 295.033 228.434H302.428C302.655 228.434 302.872 228.524 303.032 228.683C303.192 228.843 303.282 229.059 303.282 229.285C303.282 229.51 303.192 229.727 303.032 229.886C302.872 230.046 302.655 230.135 302.428 230.135Z" fill="#8985A4"/>
<path d="M316.081 227.3H308.686C308.424 227.299 308.165 227.35 307.923 227.45C307.681 227.55 307.461 227.696 307.276 227.88C307.091 228.064 306.944 228.283 306.844 228.524C306.743 228.765 306.692 229.024 306.692 229.285C306.692 229.546 306.743 229.804 306.844 230.045C306.944 230.286 307.091 230.505 307.276 230.689C307.461 230.874 307.681 231.02 307.923 231.119C308.165 231.219 308.424 231.27 308.686 231.27H316.081C316.608 231.269 317.114 231.059 317.487 230.687C317.859 230.315 318.069 229.811 318.069 229.285C318.069 228.759 317.859 228.254 317.487 227.882C317.114 227.51 316.608 227.301 316.081 227.3ZM316.081 230.135H308.686C308.459 230.135 308.242 230.046 308.082 229.886C307.922 229.727 307.832 229.51 307.832 229.285C307.832 229.059 307.922 228.843 308.082 228.683C308.242 228.524 308.459 228.434 308.686 228.434H316.081C316.307 228.434 316.524 228.524 316.684 228.683C316.844 228.843 316.934 229.059 316.934 229.285C316.934 229.51 316.844 229.727 316.684 229.886C316.524 230.046 316.307 230.135 316.081 230.135Z" fill="#8985A4"/>
<path d="M280.199 161.469L276.901 172.198C276.901 172.198 276.058 192.2 265.016 189.448C253.974 186.696 268.237 163.303 268.237 163.303L271.457 158.258L280.199 161.469Z" fill="#A0616A"/>
<path d="M217.627 161.469L214.329 172.198C214.329 172.198 213.486 192.2 202.444 189.448C191.402 186.696 205.665 163.303 205.665 163.303L208.885 158.258L217.627 161.469Z" fill="#A0616A"/>
<path d="M277.899 70.1906C277.899 70.1906 285.26 68.3558 287.561 80.7403C289.861 93.1248 292.622 128.444 292.622 128.444L281.579 165.597C281.579 165.597 270.537 159.634 268.237 160.551L276.926 128.296L269.617 95.4182C269.617 95.4182 276.058 70.1906 277.899 70.1906Z" fill="#6857E5"/>
<path opacity="0.15" d="M267.195 96.0459L276.857 128.154L267.195 160.72L272.716 128.154L267.195 96.0459Z" fill="black"/>
<path d="M223.148 95.418L206.585 160.551C206.585 160.551 215.322 163.426 218.542 165.719L223.148 95.418Z" fill="#6857E5"/>
<path d="M49.3961 259.103C74.8061 259.103 95.405 238.567 95.405 213.235C95.405 187.902 74.8061 167.366 49.3961 167.366C23.9861 167.366 3.38721 187.902 3.38721 213.235C3.38721 238.567 23.9861 259.103 49.3961 259.103Z" fill="#FFBE1B"/>
<path d="M49.396 252.682C71.2486 252.682 88.9637 235.021 88.9637 213.235C88.9637 191.449 71.2486 173.788 49.396 173.788C27.5434 173.788 9.82837 191.449 9.82837 213.235C9.82837 235.021 27.5434 252.682 49.396 252.682Z" fill="#FFE37B"/>
<path d="M47.5002 236.512V230.771C44.5891 230.714 41.5774 229.69 39.8208 228.269L41.0253 224.461C43.1129 226.02 45.6445 226.877 48.253 226.905C51.8168 226.905 54.226 224.574 54.226 221.334C54.226 218.208 52.2685 216.275 48.5542 214.569C43.4346 212.296 40.2725 209.681 40.2725 204.735C40.2725 200.017 43.2339 196.436 47.8516 195.583V189.842H50.9635V195.356C53.2839 195.387 55.5474 196.078 57.4886 197.345L56.2336 201.097C54.3718 199.827 52.1656 199.152 49.9094 199.164C46.0448 199.164 44.5891 201.779 44.5891 204.053C44.5891 207.009 46.4462 208.487 50.813 210.534C55.9827 212.921 58.5929 215.877 58.5929 220.936C58.5929 225.427 55.8322 229.634 50.6623 230.6V236.512H47.5002Z" fill="white"/>
<path d="M97.9989 306.536C65.5123 311.366 32.4867 311.366 0 306.536V295.527C32.5211 299.869 65.4778 299.869 97.9989 295.527V306.536Z" fill="#FFBE1B"/>
<path d="M97.9989 289.564C65.5123 294.394 32.4867 294.394 0 289.564V278.556C32.5211 282.898 65.4778 282.898 97.9989 278.556V289.564Z" fill="#FFBE1B"/>
<path d="M97.9989 272.593C65.5123 277.423 32.4867 277.423 0 272.593V261.585C32.5211 265.927 65.4778 265.927 97.9989 261.585V272.593Z" fill="#FFBE1B"/>
</g>
<defs>
<clipPath id="clip0">
<rect width="415" height="322" fill="white"/>
</clipPath>
</defs>
</svg>
