<svg viewBox="0 0 330 304" fill="none" xmlns="http://www.w3.org/2000/svg">
<path opacity="0.06" fill-rule="evenodd" clip-rule="evenodd" d="M156.354 31.4351C193.796 26.8088 236.993 -9.01427 265.61 15.5065C295.046 40.7289 264.796 90.3239 269.863 128.696C273.586 156.893 300.089 182.15 291.18 209.167C282.275 236.173 250.042 245.778 226.143 261.274C203.724 275.81 182.612 291.545 156.354 296.586C125.29 302.55 89.027 311.553 63.8683 292.428C38.735 273.323 45.9954 234.364 35.4271 204.663C24.4222 173.734 -5.08124 147.355 0.756943 115.058C6.74847 81.9124 35.413 56.2532 65.1423 40.2757C92.7078 25.461 125.278 35.2748 156.354 31.4351Z" fill="#6857E5"/>
<path opacity="0.06" fill-rule="evenodd" clip-rule="evenodd" d="M306.247 89.2288C315.111 90.5269 313.5 105 317.5 116C321.5 127 330.674 131.268 329.5 140.5C328.215 150.6 325.996 157.666 318.911 162.438C311.641 167.335 302.808 164.558 295.543 159.595C288.742 154.949 284.665 146.625 282.143 137.323C279.13 126.206 275.483 113.762 280.438 103.875C285.775 93.2275 296.393 87.7857 306.247 89.2288Z" fill="#6857E5"/>
<path d="M86.4642 23.9701C86.4642 22.6861 87.6568 21.7347 88.9087 22.0201L227.577 53.6283C228.942 53.9395 229.91 55.1533 229.91 56.5533V232.413H86.4642L86.4642 23.9701Z" fill="#4F4B6C"/>
<path d="M105.45 86.748C105.45 85.6435 106.345 84.748 107.45 84.748H149.859C150.963 84.748 151.859 85.6435 151.859 86.748V110.062H105.45V86.748Z" fill="#323352"/>
<rect x="105.45" y="110.062" width="46.4091" height="2.10949" fill="#8985A4"/>
<path d="M105.45 126.828C105.45 125.724 106.345 124.828 107.45 124.828H149.859C150.963 124.828 151.859 125.724 151.859 126.828V150.142H105.45V126.828Z" fill="#323352"/>
<rect x="105.45" y="150.143" width="46.4091" height="2.10948" fill="#8985A4"/>
<path d="M105.45 166.91C105.45 165.806 106.345 164.91 107.45 164.91H149.859C150.963 164.91 151.859 165.806 151.859 166.91V190.224H105.45V166.91Z" fill="#323352"/>
<rect x="105.45" y="190.227" width="46.4091" height="2.10953" fill="#8985A4"/>
<path d="M164.516 86.748C164.516 85.6435 165.411 84.748 166.516 84.748H208.925C210.029 84.748 210.925 85.6435 210.925 86.748V110.062H164.516V86.748Z" fill="#323352"/>
<rect x="164.516" y="110.062" width="46.4091" height="2.10949" fill="#8985A4"/>
<path d="M164.516 126.828C164.516 125.724 165.411 124.828 166.516 124.828H208.925C210.029 124.828 210.925 125.724 210.925 126.828V150.142H164.516V126.828Z" fill="#323352"/>
<rect x="164.516" y="150.143" width="46.4091" height="2.10948" fill="#8985A4"/>
<path d="M164.516 166.91C164.516 165.806 165.411 164.91 166.516 164.91H208.925C210.029 164.91 210.925 165.806 210.925 166.91V190.224H164.516V166.91Z" fill="#323352"/>
<rect x="164.516" y="190.227" width="46.4091" height="2.10953" fill="#8985A4"/>
<rect x="69.5882" y="232.414" width="177.198" height="12.657" fill="#ACA9BC"/>
<rect x="46.3836" y="245.068" width="223.607" height="16.876" fill="#4F4B6C"/>
<path d="M158.187 211.318C146.537 211.318 137.092 220.763 137.092 232.413H179.282C179.282 220.763 169.838 211.318 158.187 211.318Z" fill="#ACA9BC"/>
<rect x="172.954" y="78.4199" width="8.43802" height="92.8182" rx="3" fill="#303392"/>
<path d="M177.173 91.0742H270.21C272.419 91.0742 274.21 92.8651 274.21 95.0742V154.578C274.21 156.787 272.419 158.578 270.21 158.578H177.173V91.0742Z" fill="#6857E5"/>
<path opacity="0.75" d="M177.173 99.5156H198.377C199.482 99.5156 200.377 100.411 200.377 101.516V114.392C200.377 115.496 199.482 116.392 198.377 116.392H177.173V99.5156Z" fill="white"/>
<rect opacity="0.75" x="246.786" y="135.377" width="18.9855" height="12.657" rx="2" fill="white"/>
<path opacity="0.75" d="M177.173 139.596H180.392C180.944 139.596 181.392 140.043 181.392 140.596V142.815C181.392 143.367 180.944 143.815 180.392 143.815H177.173V139.596Z" fill="white"/>
<rect opacity="0.75" x="183.501" y="139.596" width="6.32851" height="4.21902" rx="1" fill="white"/>
<rect opacity="0.75" x="191.939" y="139.596" width="6.32851" height="4.21902" rx="1" fill="white"/>
<rect opacity="0.75" x="200.377" y="139.596" width="6.32851" height="4.21902" rx="1" fill="white"/>
<rect opacity="0.75" x="208.815" y="139.596" width="6.32851" height="4.21902" rx="1" fill="white"/>
<circle opacity="0.75" cx="259.443" cy="103.735" r="4.21901" fill="white"/>
<path fill-rule="evenodd" clip-rule="evenodd" d="M122.326 65.7617H196.158C201.984 65.7617 206.706 70.484 206.706 76.3092V86.8567H202.487V76.3092C202.487 72.8141 199.654 69.9807 196.158 69.9807H122.326V65.7617Z" fill="#1DBA44"/>
<path d="M111.778 67.8706L120.216 59.4326L120.216 76.3086L111.778 67.8706Z" fill="#1DBA44"/>
<path d="M107.559 67.8724C107.559 79.5228 98.1146 88.9674 86.4641 88.9674C74.8137 88.9674 65.3691 79.5228 65.3691 67.8724C65.3691 56.2219 74.8137 46.7773 86.4641 46.7773C98.1146 46.7773 107.559 56.2219 107.559 67.8724Z" fill="#1DBA44"/>
<path fill-rule="evenodd" clip-rule="evenodd" d="M86.4641 86.8579C96.9496 86.8579 105.45 78.3578 105.45 67.8724C105.45 57.387 96.9496 48.8868 86.4641 48.8868C75.9787 48.8868 67.4786 57.387 67.4786 67.8724C67.4786 78.3578 75.9787 86.8579 86.4641 86.8579ZM86.4641 88.9674C98.1146 88.9674 107.559 79.5228 107.559 67.8724C107.559 56.2219 98.1146 46.7773 86.4641 46.7773C74.8137 46.7773 65.3691 56.2219 65.3691 67.8724C65.3691 79.5228 74.8137 88.9674 86.4641 88.9674Z" fill="white"/>
<path fill-rule="evenodd" clip-rule="evenodd" d="M95.6481 60.7953C96.06 61.2072 96.06 61.875 95.6481 62.2869L82.9911 74.9439C82.5792 75.3558 81.9113 75.3558 81.4994 74.9439L77.2804 70.7249C76.8685 70.313 76.8685 69.6452 77.2804 69.2333C77.6923 68.8214 78.3602 68.8214 78.7721 69.2333L82.2453 72.7065L94.1565 60.7953C94.5684 60.3834 95.2362 60.3834 95.6481 60.7953Z" fill="white"/>
<path fill-rule="evenodd" clip-rule="evenodd" d="M122.326 120.609H166.625V124.828H122.326V120.609Z" fill="#1DBA44"/>
<path d="M111.778 122.72L120.216 114.282L120.216 131.158L111.778 122.72Z" fill="#1DBA44"/>
<path fill-rule="evenodd" clip-rule="evenodd" d="M191.939 162.801V169.129C191.939 174.955 187.217 179.677 181.392 179.677H122.326V175.458H181.392C184.887 175.458 187.72 172.624 187.72 169.129V162.801H191.939Z" fill="#1DBA44"/>
<path d="M111.778 177.566L120.216 169.128L120.216 186.004L111.778 177.566Z" fill="#1DBA44"/>
<path d="M107.559 122.72C107.559 134.37 98.1146 143.815 86.4641 143.815C74.8137 143.815 65.3691 134.37 65.3691 122.72C65.3691 111.07 74.8137 101.625 86.4641 101.625C98.1146 101.625 107.559 111.07 107.559 122.72Z" fill="#1DBA44"/>
<path fill-rule="evenodd" clip-rule="evenodd" d="M86.4641 141.706C96.9496 141.706 105.45 133.205 105.45 122.72C105.45 112.235 96.9496 103.735 86.4641 103.735C75.9787 103.735 67.4786 112.235 67.4786 122.72C67.4786 133.205 75.9787 141.706 86.4641 141.706ZM86.4641 143.815C98.1146 143.815 107.559 134.37 107.559 122.72C107.559 111.07 98.1146 101.625 86.4641 101.625C74.8137 101.625 65.3691 111.07 65.3691 122.72C65.3691 134.37 74.8137 143.815 86.4641 143.815Z" fill="white"/>
<path fill-rule="evenodd" clip-rule="evenodd" d="M95.6481 115.645C96.06 116.057 96.06 116.725 95.6481 117.137L82.9911 129.794C82.5792 130.205 81.9113 130.205 81.4994 129.794L77.2804 125.575C76.8685 125.163 76.8685 124.495 77.2804 124.083C77.6923 123.671 78.3602 123.671 78.7721 124.083L82.2453 127.556L94.1565 115.645C94.5684 115.233 95.2362 115.233 95.6481 115.645Z" fill="white"/>
<path d="M107.559 177.564C107.559 189.214 98.1146 198.659 86.4641 198.659C74.8137 198.659 65.3691 189.214 65.3691 177.564C65.3691 165.913 74.8137 156.469 86.4641 156.469C98.1146 156.469 107.559 165.913 107.559 177.564Z" fill="#1DBA44"/>
<path fill-rule="evenodd" clip-rule="evenodd" d="M86.4641 196.549C96.9496 196.549 105.45 188.049 105.45 177.564C105.45 167.078 96.9496 158.578 86.4641 158.578C75.9787 158.578 67.4786 167.078 67.4786 177.564C67.4786 188.049 75.9787 196.549 86.4641 196.549ZM86.4641 198.659C98.1146 198.659 107.559 189.214 107.559 177.564C107.559 165.913 98.1146 156.469 86.4641 156.469C74.8137 156.469 65.3691 165.913 65.3691 177.564C65.3691 189.214 74.8137 198.659 86.4641 198.659Z" fill="white"/>
<path fill-rule="evenodd" clip-rule="evenodd" d="M95.6481 170.493C96.06 170.904 96.06 171.572 95.6481 171.984L82.9911 184.641C82.5792 185.053 81.9113 185.053 81.4994 184.641L77.2804 180.422C76.8685 180.01 76.8685 179.342 77.2804 178.931C77.6923 178.519 78.3602 178.519 78.7721 178.931L82.2453 182.404L94.1565 170.493C94.5684 170.081 95.2362 170.081 95.6481 170.493Z" fill="white"/>
<path opacity="0.5" fill-rule="evenodd" clip-rule="evenodd" d="M147.312 287.387C146.409 287.387 145.677 288.119 145.677 289.021C145.677 289.924 146.409 290.656 147.312 290.656L155.386 290.656L155.386 298.731C155.386 299.633 156.118 300.365 157.021 300.365C157.924 300.365 158.655 299.633 158.655 298.731L158.655 290.656H166.73C167.633 290.656 168.365 289.924 168.365 289.021C168.365 288.119 167.633 287.387 166.73 287.387H158.655L158.655 279.312C158.655 278.41 157.924 277.678 157.021 277.678C156.118 277.678 155.386 278.41 155.386 279.312L155.386 287.387L147.312 287.387Z" fill="#DC3545"/>
<path opacity="0.3" fill-rule="evenodd" clip-rule="evenodd" d="M276 209.6C279.093 209.6 281.6 207.093 281.6 204C281.6 200.907 279.093 198.4 276 198.4C272.907 198.4 270.4 200.907 270.4 204C270.4 207.093 272.907 209.6 276 209.6ZM276 212C280.418 212 284 208.418 284 204C284 199.582 280.418 196 276 196C271.582 196 268 199.582 268 204C268 208.418 271.582 212 276 212Z" fill="#38A1DC"/>
<path opacity="0.3" fill-rule="evenodd" clip-rule="evenodd" d="M35 109C38.866 109 42 105.866 42 102C42 98.134 38.866 95 35 95C31.134 95 28 98.134 28 102C28 105.866 31.134 109 35 109ZM35 112C40.5228 112 45 107.523 45 102C45 96.4772 40.5228 92 35 92C29.4772 92 25 96.4772 25 102C25 107.523 29.4772 112 35 112Z" fill="#4F4B6C"/>
<path opacity="0.4" fill-rule="evenodd" clip-rule="evenodd" d="M245.219 30.7201C245.219 29.658 246.08 28.797 247.142 28.797C248.204 28.797 249.065 29.658 249.065 30.7201L249.065 40.2195H258.565C259.627 40.2195 260.488 41.0805 260.488 42.1426C260.488 43.2047 259.627 44.0657 258.565 44.0657H249.065V53.5651C249.065 54.6272 248.204 55.4881 247.142 55.4882C246.08 55.4881 245.219 54.6272 245.219 53.5651L245.219 44.0657L235.72 44.0657C234.658 44.0657 233.797 43.2047 233.797 42.1426C233.797 41.0805 234.658 40.2195 235.72 40.2195L245.219 40.2195L245.219 30.7201Z" fill="#1DBA44"/>
<path opacity="0.3" fill-rule="evenodd" clip-rule="evenodd" d="M31.7752 198.176C31.7752 197.327 32.464 196.638 33.3137 196.638C34.1634 196.638 34.8522 197.327 34.8522 198.176L34.8522 205.776H42.4517C43.3014 205.776 43.9902 206.465 43.9902 207.314C43.9902 208.164 43.3014 208.853 42.4517 208.853H34.8522L34.8522 216.452C34.8522 217.302 34.1634 217.991 33.3137 217.991C32.464 217.991 31.7752 217.302 31.7752 216.452L31.7752 208.853L24.1757 208.853C23.326 208.853 22.6373 208.164 22.6373 207.314C22.6373 206.465 23.326 205.776 24.1757 205.776L31.7752 205.776L31.7752 198.176Z" fill="#FFC107"/>
</svg>
