<svg viewBox="0 0 330 297" fill="none" xmlns="http://www.w3.org/2000/svg">
<path opacity="0.06" fill-rule="evenodd" clip-rule="evenodd" d="M156.354 24.4351C193.796 19.8088 236.993 -16.0143 265.61 8.50655C295.046 33.7289 264.796 83.3239 269.863 121.696C273.586 149.893 300.089 175.15 291.18 202.167C282.275 229.173 250.042 238.778 226.143 254.274C203.724 268.81 182.612 284.545 156.354 289.586C125.29 295.55 89.027 304.553 63.8683 285.428C38.735 266.323 45.9954 227.364 35.4271 197.663C24.4222 166.734 -5.08124 140.355 0.756943 108.058C6.74847 74.9124 35.413 49.2532 65.1423 33.2757C92.7078 18.461 125.278 28.2748 156.354 24.4351Z" fill="#6857E5"/>
<path opacity="0.06" fill-rule="evenodd" clip-rule="evenodd" d="M306.247 82.2288C315.111 83.5269 313.5 98 317.5 109C321.5 120 330.674 124.268 329.5 133.5C328.215 143.6 325.996 150.666 318.911 155.438C311.641 160.335 302.808 157.558 295.543 152.595C288.742 147.949 284.665 139.625 282.143 130.323C279.13 119.206 275.483 106.762 280.438 96.8747C285.775 86.2275 296.393 80.7857 306.247 82.2288Z" fill="#6857E5"/>
<path opacity="0.5" fill-rule="evenodd" clip-rule="evenodd" d="M89.3117 265.386C88.4089 265.386 87.6771 266.118 87.6771 267.021C87.6771 267.923 88.4089 268.655 89.3117 268.655L97.3862 268.655L97.3862 276.73C97.3862 277.632 98.118 278.364 99.0208 278.364C99.9236 278.364 100.655 277.632 100.655 276.73L100.655 268.655H108.73C109.633 268.655 110.365 267.923 110.365 267.021C110.365 266.118 109.633 265.386 108.73 265.386H100.655L100.655 257.311C100.655 256.409 99.9236 255.677 99.0208 255.677C98.118 255.677 97.3862 256.409 97.3862 257.311L97.3862 265.386L89.3117 265.386Z" fill="#DC3545"/>
<path opacity="0.3" fill-rule="evenodd" clip-rule="evenodd" d="M221 204.6C224.093 204.6 226.6 202.093 226.6 199C226.6 195.907 224.093 193.4 221 193.4C217.907 193.4 215.4 195.907 215.4 199C215.4 202.093 217.907 204.6 221 204.6ZM221 207C225.418 207 229 203.418 229 199C229 194.582 225.418 191 221 191C216.582 191 213 194.582 213 199C213 203.418 216.582 207 221 207Z" fill="#38A1DC"/>
<path opacity="0.3" fill-rule="evenodd" clip-rule="evenodd" d="M55 102C58.866 102 62 98.866 62 95C62 91.134 58.866 88 55 88C51.134 88 48 91.134 48 95C48 98.866 51.134 102 55 102ZM55 105C60.5228 105 65 100.523 65 95C65 89.4772 60.5228 85 55 85C49.4772 85 45 89.4772 45 95C45 100.523 49.4772 105 55 105Z" fill="#4F4B6C"/>
<path opacity="0.4" fill-rule="evenodd" clip-rule="evenodd" d="M262.219 108.72C262.219 107.658 263.08 106.797 264.142 106.797C265.204 106.797 266.065 107.658 266.065 108.72L266.065 118.22H275.565C276.627 118.22 277.488 119.08 277.488 120.143C277.488 121.205 276.627 122.066 275.565 122.066L266.065 122.066L266.065 131.565C266.065 132.627 265.204 133.488 264.142 133.488C263.08 133.488 262.219 132.627 262.219 131.565L262.219 122.066L252.72 122.066C251.658 122.066 250.797 121.205 250.797 120.143C250.797 119.08 251.658 118.22 252.72 118.22L262.219 118.22L262.219 108.72Z" fill="#1DBA44"/>
<path opacity="0.3" fill-rule="evenodd" clip-rule="evenodd" d="M43.7752 154.175C43.7752 153.326 44.464 152.637 45.3137 152.637C46.1634 152.637 46.8522 153.326 46.8522 154.175L46.8522 161.775H54.4517C55.3014 161.775 55.9902 162.464 55.9902 163.313C55.9902 164.163 55.3014 164.852 54.4517 164.852H46.8522L46.8522 172.451C46.8522 173.301 46.1634 173.99 45.3137 173.99C44.464 173.99 43.7752 173.301 43.7752 172.451L43.7752 164.852L36.1757 164.852C35.326 164.852 34.6373 164.163 34.6373 163.313C34.6373 162.464 35.326 161.775 36.1757 161.775L43.7752 161.775L43.7752 154.175Z" fill="#FFC107"/>
<path opacity="0.3" fill-rule="evenodd" clip-rule="evenodd" d="M155.019 235.914C155.019 235.103 155.677 234.446 156.488 234.446C157.299 234.446 157.956 235.103 157.956 235.914L157.956 243.168L165.211 243.168C166.022 243.168 166.679 243.826 166.679 244.637C166.679 245.448 166.022 246.105 165.211 246.105H157.956L157.956 253.359C157.956 254.17 157.299 254.828 156.488 254.828C155.677 254.828 155.019 254.17 155.019 253.359L155.019 246.105L147.766 246.105C146.955 246.105 146.297 245.448 146.297 244.637C146.297 243.826 146.955 243.168 147.766 243.168L155.019 243.168L155.019 235.914Z" fill="#303392"/>
<path d="M131.942 137.728H182.124L179.096 208.88L163.955 221.469L177.931 236.247L165.685 246.646L177 258.14L176.068 280.033L156.601 297L137.134 280.033L131.942 137.728Z" fill="#4F4B6C"/>
<path opacity="0.5" fill-rule="evenodd" clip-rule="evenodd" d="M144.727 218.679L142 152.134L145.27 152L147.997 218.545L144.727 218.679Z" fill="#8985A4"/>
<path opacity="0.3" fill-rule="evenodd" clip-rule="evenodd" d="M147.454 218.657L144.727 152.112L146.907 152.022L149.634 218.568L147.454 218.657Z" fill="white"/>
<path fill-rule="evenodd" clip-rule="evenodd" d="M95.0008 33C90.2547 33 86.5522 37.1082 87.0439 41.8288L96.2863 130.556C96.7108 134.631 100.146 137.727 104.243 137.727H209.823C213.921 137.727 217.356 134.631 217.78 130.556L227.023 41.8288C227.514 37.1082 223.812 33 219.066 33H95.0008ZM107.982 48.2727C106.795 48.2727 105.869 49.3012 105.993 50.4821L107.754 67.2094C107.861 68.2273 108.719 69 109.743 69H204.324C205.347 69 206.206 68.2273 206.313 67.2094L208.073 50.4821C208.198 49.3012 207.272 48.2727 206.084 48.2727H107.982Z" fill="url(#paint0_linear)"/>
<g opacity="0.35">
<path d="M158.124 138.273V118.091" stroke="white" stroke-width="3"/>
<path d="M124.306 137.727V115.363L111.215 111.545V100.636" stroke="white" stroke-width="3"/>
<path d="M195.215 137.727V119.727L208.306 107.182V96.2725" stroke="white" stroke-width="3"/>
<path d="M133.033 137.727V115.363L146.124 107.182V90.2725" stroke="white" stroke-width="3"/>
<path d="M186.488 137.727V125.182L173.397 117V96.8184" stroke="white" stroke-width="3"/>
<circle cx="146.124" cy="87.5453" r="4.36364" fill="white"/>
<circle r="4.36364" transform="matrix(-1 0 0 1 173.397 92.9994)" fill="white"/>
<circle cx="111.215" cy="97.3636" r="4.36364" fill="white"/>
<circle r="4.36364" transform="matrix(-1 0 0 1 208.306 92.9994)" fill="white"/>
<circle cx="158.124" cy="114.818" r="4.36364" fill="white"/>
</g>
<defs>
<linearGradient id="paint0_linear" x1="87" y1="34.4545" x2="242.997" y2="99.5518" gradientUnits="userSpaceOnUse">
<stop stop-color="#303392"/>
<stop offset="1" stop-color="#6857E5"/>
</linearGradient>
</defs>
</svg>
