<svg viewBox="0 0 331 301" fill="none" xmlns="http://www.w3.org/2000/svg">
<path opacity="0.06" fill-rule="evenodd" clip-rule="evenodd" d="M169.331 15.6093C143.073 19.2935 115.349 17.4604 93.1221 31.9001C70.9503 46.304 61.846 72.5754 47.4904 94.7627C30.4102 121.161 -5.96149 143.844 0.836243 174.533C7.78342 205.896 51.3566 204.837 72 229.469C87 259.469 85.15 286.483 117 295.469C148.987 304.493 171.119 274.242 203.143 265.349C235.972 256.232 277.099 288.039 303.292 266.271C328.355 245.442 312.13 203.737 316.167 171.422C320.11 139.861 336.997 108.649 326.745 78.5364C316.184 47.513 291.125 20.5679 260.666 8.39182C231.726 -3.17688 200.199 11.2781 169.331 15.6093Z" fill="#6857E5"/>
<path opacity="0.06" fill-rule="evenodd" clip-rule="evenodd" d="M72.0352 260.711C71.4377 252.097 69.5012 239.659 62.5442 233.799C55.2524 227.657 46.784 221.109 36.9117 222.1C24.4526 223.351 18 235.167 18 247.093C18 259.019 24.5741 260.332 30.3082 270.491C35.6663 279.983 26.0928 294.549 36.9117 298.651C48.5577 303.067 63.2145 297.964 71.3462 289.18C78.414 281.545 72.7265 270.677 72.0352 260.711Z" fill="#6857E5"/>
<path opacity="0.5" fill-rule="evenodd" clip-rule="evenodd" d="M149.312 247.386C148.409 247.386 147.677 248.118 147.677 249.021C147.677 249.924 148.409 250.655 149.312 250.655L157.386 250.655L157.386 258.73C157.386 259.633 158.118 260.364 159.021 260.364C159.924 260.364 160.655 259.633 160.655 258.73L160.655 250.655H168.73C169.633 250.655 170.365 249.924 170.365 249.021C170.365 248.118 169.633 247.386 168.73 247.386H160.655L160.655 239.312C160.655 238.409 159.924 237.677 159.021 237.677C158.118 237.677 157.386 238.409 157.386 239.312L157.386 247.386L149.312 247.386Z" fill="#DC3545"/>
<path opacity="0.4" fill-rule="evenodd" clip-rule="evenodd" d="M314.219 144.72C314.219 143.658 315.08 142.797 316.142 142.797C317.204 142.797 318.065 143.658 318.065 144.72L318.065 154.219H327.565C328.627 154.219 329.488 155.08 329.488 156.142C329.488 157.204 328.627 158.065 327.565 158.065L318.065 158.065L318.065 167.565C318.065 168.627 317.204 169.488 316.142 169.488C315.08 169.488 314.219 168.627 314.219 167.565L314.219 158.065L304.72 158.065C303.658 158.065 302.797 157.204 302.797 156.142C302.797 155.08 303.658 154.219 304.72 154.219L314.219 154.219L314.219 144.72Z" fill="#1DBA44"/>
<path opacity="0.3" fill-rule="evenodd" clip-rule="evenodd" d="M203.553 1.90373C203.553 1.16027 204.156 0.557575 204.899 0.557576C205.643 0.557575 206.246 1.16027 206.246 1.90373L206.246 8.55332L212.895 8.55332C213.639 8.55332 214.241 9.15601 214.241 9.89947C214.241 10.6429 213.639 11.2456 212.895 11.2456L206.246 11.2456V17.8952C206.246 18.6387 205.643 19.2414 204.899 19.2414C204.156 19.2414 203.553 18.6387 203.553 17.8952V11.2456L196.904 11.2456C196.16 11.2456 195.558 10.6429 195.558 9.89947C195.558 9.15601 196.16 8.55332 196.904 8.55332L203.553 8.55332L203.553 1.90373Z" fill="#303392"/>
<path opacity="0.3" fill-rule="evenodd" clip-rule="evenodd" d="M29.436 97.5454C29.436 96.5514 30.2418 95.7456 31.2358 95.7456C32.2298 95.7456 33.0356 96.5514 33.0356 97.5454L33.0356 106.436H41.9262C42.9202 106.436 43.7261 107.242 43.7261 108.236C43.7261 109.23 42.9202 110.036 41.9262 110.036L33.0356 110.036L33.0356 118.926C33.0356 119.92 32.2298 120.726 31.2358 120.726C30.2418 120.726 29.436 119.92 29.436 118.926L29.436 110.036L20.5454 110.036C19.5513 110.036 18.7455 109.23 18.7455 108.236C18.7455 107.242 19.5513 106.436 20.5454 106.436L29.436 106.436L29.436 97.5454Z" fill="#FFC107"/>
<path opacity="0.3" fill-rule="evenodd" clip-rule="evenodd" d="M67 258.6C70.0928 258.6 72.6 256.093 72.6 253C72.6 249.907 70.0928 247.4 67 247.4C63.9072 247.4 61.4 249.907 61.4 253C61.4 256.093 63.9072 258.6 67 258.6ZM67 261C71.4183 261 75 257.418 75 253C75 248.582 71.4183 245 67 245C62.5817 245 59 248.582 59 253C59 257.418 62.5817 261 67 261Z" fill="#38A1DC"/>
<path opacity="0.3" fill-rule="evenodd" clip-rule="evenodd" d="M301 50C304.866 50 308 46.866 308 43C308 39.134 304.866 36 301 36C297.134 36 294 39.134 294 43C294 46.866 297.134 50 301 50ZM301 53C306.523 53 311 48.5228 311 43C311 37.4772 306.523 33 301 33C295.477 33 291 37.4772 291 43C291 48.5228 295.477 53 301 53Z" fill="#4F4B6C"/>
<path d="M70.5862 178.943C70.5862 179.699 69.9073 180.682 68.1162 181.535C66.3997 182.352 63.958 182.885 61.2069 182.885C58.4557 182.885 56.0141 182.352 54.2975 181.535C52.5064 180.682 51.8276 179.699 51.8276 178.943C51.8276 178.186 52.5064 177.203 54.2975 176.35C56.0141 175.533 58.4557 175 61.2069 175C63.958 175 66.3997 175.533 68.1162 176.35C69.9073 177.203 70.5862 178.186 70.5862 178.943Z" fill="#FFE37B" stroke="#FFBE1B" stroke-width="2"/>
<path d="M55.7586 186.074C55.7586 186.83 55.0798 187.813 53.2887 188.666C51.5721 189.483 49.1305 190.016 46.3793 190.016C43.6282 190.016 41.1865 189.483 39.47 188.666C37.6788 187.813 37 186.83 37 186.074C37 185.318 37.6788 184.335 39.47 183.482C41.1865 182.664 43.6282 182.131 46.3793 182.131C49.1305 182.131 51.5721 182.664 53.2887 183.482C55.0798 184.335 55.7586 185.318 55.7586 186.074Z" fill="#FFE37B" stroke="#FFBE1B" stroke-width="2"/>
<path d="M55.7586 182.861C55.7586 183.617 55.0798 184.6 53.2887 185.453C51.5721 186.271 49.1305 186.804 46.3793 186.804C43.6282 186.804 41.1865 186.271 39.47 185.453C37.6788 184.6 37 183.617 37 182.861C37 182.105 37.6788 181.122 39.47 180.269C41.1865 179.452 43.6282 178.919 46.3793 178.919C49.1305 178.919 51.5721 179.452 53.2887 180.269C55.0798 181.122 55.7586 182.105 55.7586 182.861Z" fill="#FFE37B" stroke="#FFBE1B" stroke-width="2"/>
<path d="M55.7586 179.649C55.7586 180.405 55.0798 181.388 53.2887 182.241C51.5721 183.058 49.1305 183.591 46.3793 183.591C43.6282 183.591 41.1865 183.058 39.47 182.241C37.6788 181.388 37 180.405 37 179.649C37 178.892 37.6788 177.909 39.47 177.057C41.1865 176.239 43.6282 175.706 46.3793 175.706C49.1305 175.706 51.5721 176.239 53.2887 177.057C55.0798 177.909 55.7586 178.892 55.7586 179.649Z" fill="#FFE37B" stroke="#FFBE1B" stroke-width="2"/>
<path d="M78 188.086C78 188.842 77.3212 189.825 75.5301 190.678C73.8135 191.496 71.3718 192.029 68.6207 192.029C65.8696 192.029 63.4279 191.496 61.7114 190.678C59.9202 189.825 59.2414 188.842 59.2414 188.086C59.2414 187.33 59.9202 186.347 61.7114 185.494C63.4279 184.677 65.8696 184.144 68.6207 184.144C71.3718 184.144 73.8135 184.677 75.5301 185.494C77.3212 186.347 78 187.33 78 188.086Z" fill="#FFE37B" stroke="#FFBE1B" stroke-width="2"/>
<path d="M78 184.874C78 185.63 77.3212 186.613 75.5301 187.466C73.8135 188.283 71.3718 188.816 68.6207 188.816C65.8696 188.816 63.4279 188.283 61.7114 187.466C59.9202 186.613 59.2414 185.63 59.2414 184.874C59.2414 184.117 59.9202 183.134 61.7114 182.282C63.4279 181.464 65.8696 180.931 68.6207 180.931C71.3718 180.931 73.8135 181.464 75.5301 182.282C77.3212 183.134 78 184.117 78 184.874Z" fill="#FFE37B" stroke="#FFBE1B" stroke-width="2"/>
<path d="M276.121 131.084L210.605 113.529L202.58 143.479L268.096 161.034L276.121 131.084Z" fill="#98D55D"/>
<path fill-rule="evenodd" clip-rule="evenodd" d="M212.432 116.694L272.956 132.911L266.269 157.869L205.745 141.652L212.432 116.694ZM276.121 131.084L268.096 161.034L202.58 143.479L210.605 113.529L276.121 131.084Z" fill="#70A63B"/>
<circle r="10.9815" transform="matrix(-0.965926 -0.258819 -0.258819 0.965926 239.039 137.198)" fill="#70A63B"/>
<circle r="3.12427" transform="matrix(-0.965926 -0.258819 -0.258819 0.965926 221.869 132.42)" fill="#70A63B"/>
<circle r="3.12427" transform="matrix(-0.965926 -0.258819 -0.258819 0.965926 256.573 141.719)" fill="#70A63B"/>
<path d="M236.977 138.716C237.072 138.363 237.267 138.103 237.561 137.937C237.857 137.767 238.302 137.664 238.896 137.627C239.491 137.586 239.961 137.527 240.306 137.45C241.452 137.201 242.162 136.567 242.435 135.549C242.62 134.859 242.553 134.233 242.236 133.672C241.918 133.11 241.396 132.687 240.671 132.404L241.035 131.045L239.997 130.767L239.63 132.138C238.849 132.041 238.185 132.192 237.638 132.593C237.091 132.99 236.709 133.596 236.49 134.41L238.06 134.831C238.2 134.307 238.434 133.929 238.76 133.696C239.084 133.457 239.455 133.394 239.875 133.507C240.29 133.618 240.585 133.813 240.761 134.092C240.936 134.37 240.97 134.711 240.862 135.114C240.765 135.476 240.573 135.736 240.285 135.895C239.993 136.048 239.545 136.148 238.939 136.195C238.333 136.242 237.85 136.307 237.49 136.388C237.13 136.47 236.812 136.59 236.538 136.748C236.265 136.902 236.033 137.103 235.842 137.35C235.65 137.597 235.505 137.907 235.404 138.281C235.216 138.984 235.289 139.613 235.621 140.17C235.95 140.726 236.503 141.15 237.282 141.443L236.957 142.659L237.988 142.935L238.312 141.726C239.193 141.864 239.931 141.746 240.527 141.371C241.119 140.995 241.525 140.396 241.746 139.573L240.17 139.151C240.03 139.674 239.785 140.043 239.436 140.257C239.082 140.469 238.654 140.508 238.153 140.374C237.66 140.242 237.316 140.027 237.123 139.73C236.924 139.432 236.876 139.094 236.977 138.716Z" fill="white"/>
<path d="M281.467 114.179L214.009 107.114L210.779 137.952L278.237 145.017L281.467 114.179Z" fill="#98D55D"/>
<path fill-rule="evenodd" clip-rule="evenodd" d="M216.31 109.953L278.628 116.479L275.937 142.178L213.618 135.651L216.31 109.953ZM281.467 114.179L278.237 145.017L210.779 137.952L214.009 107.114L281.467 114.179Z" fill="#70A63B"/>
<circle r="10.9815" transform="matrix(-0.994561 -0.10416 -0.10416 0.994561 245.802 126.031)" fill="#70A63B"/>
<circle r="3.12427" transform="matrix(-0.994561 -0.10416 -0.10416 0.994561 228.095 124.005)" fill="#70A63B"/>
<circle r="3.12427" transform="matrix(-0.994561 -0.10416 -0.10416 0.994561 263.829 127.747)" fill="#70A63B"/>
<path d="M244.004 127.854C244.042 127.491 244.194 127.204 244.459 126.994C244.724 126.779 245.148 126.607 245.728 126.478C246.309 126.344 246.764 126.212 247.093 126.082C248.186 125.656 248.788 124.919 248.898 123.87C248.972 123.16 248.808 122.553 248.407 122.048C248.005 121.543 247.423 121.207 246.662 121.041L246.809 119.642L245.74 119.53L245.592 120.942C244.806 120.968 244.174 121.222 243.696 121.704C243.219 122.181 242.936 122.839 242.848 123.678L244.464 123.847C244.521 123.308 244.692 122.898 244.978 122.616C245.26 122.33 245.617 122.21 246.049 122.255C246.476 122.3 246.799 122.446 247.016 122.694C247.233 122.941 247.32 123.273 247.276 123.688C247.237 124.06 247.088 124.347 246.828 124.549C246.564 124.746 246.137 124.916 245.546 125.057C244.955 125.199 244.488 125.338 244.145 125.475C243.802 125.612 243.508 125.78 243.262 125.979C243.017 126.174 242.819 126.409 242.668 126.683C242.518 126.957 242.423 127.286 242.383 127.671C242.307 128.395 242.477 129.005 242.893 129.503C243.305 130 243.918 130.332 244.733 130.5L244.602 131.751L245.664 131.863L245.794 130.618C246.686 130.616 247.396 130.383 247.927 129.92C248.452 129.456 248.76 128.8 248.848 127.953L247.225 127.783C247.169 128.322 246.985 128.724 246.674 128.99C246.358 129.256 245.942 129.361 245.425 129.307C244.918 129.254 244.545 129.096 244.307 128.833C244.064 128.57 243.963 128.244 244.004 127.854Z" fill="white"/>
<path d="M287.882 129.149L227.344 98.5602L213.361 126.235L273.899 156.824L287.882 129.149Z" fill="#98D55D"/>
<path fill-rule="evenodd" clip-rule="evenodd" d="M228.485 102.032L284.411 130.29L272.758 153.352L216.832 125.094L228.485 102.032ZM287.882 129.149L273.899 156.824L213.361 126.235L227.344 98.5602L287.882 129.149Z" fill="#70A63B"/>
<circle r="10.9815" transform="matrix(-0.892532 -0.450984 -0.450984 0.892532 250.333 127.546)" fill="#70A63B"/>
<circle r="3.12427" transform="matrix(-0.892532 -0.450984 -0.450984 0.892532 234.504 119.356)" fill="#70A63B"/>
<circle r="3.12427" transform="matrix(-0.892532 -0.450984 -0.450984 0.892532 266.572 135.559)" fill="#70A63B"/>
<path d="M248.005 128.611C248.17 128.284 248.413 128.07 248.736 127.968C249.06 127.862 249.517 127.852 250.106 127.937C250.696 128.019 251.169 128.057 251.522 128.053C252.695 128.043 253.52 127.568 253.995 126.627C254.317 125.99 254.38 125.364 254.184 124.749C253.988 124.134 253.564 123.614 252.912 123.188L253.546 121.932L252.587 121.448L251.947 122.715C251.203 122.459 250.522 122.472 249.904 122.753C249.288 123.029 248.79 123.544 248.409 124.296L249.86 125.029C250.104 124.545 250.41 124.223 250.778 124.061C251.143 123.894 251.519 123.909 251.907 124.104C252.29 124.298 252.54 124.549 252.655 124.858C252.769 125.167 252.733 125.507 252.545 125.88C252.376 126.214 252.134 126.429 251.82 126.526C251.503 126.616 251.043 126.623 250.441 126.545C249.838 126.467 249.352 126.431 248.983 126.437C248.614 126.443 248.279 126.496 247.978 126.594C247.679 126.689 247.411 126.838 247.173 127.041C246.935 127.244 246.729 127.518 246.554 127.863C246.226 128.512 246.168 129.143 246.38 129.756C246.588 130.367 247.043 130.896 247.745 131.343L247.178 132.466L248.131 132.947L248.695 131.83C249.529 132.145 250.276 132.18 250.937 131.936C251.593 131.689 252.113 131.185 252.497 130.425L251.041 129.689C250.797 130.173 250.482 130.484 250.096 130.622C249.706 130.757 249.28 130.708 248.816 130.474C248.361 130.244 248.069 129.964 247.94 129.633C247.807 129.301 247.828 128.96 248.005 128.611Z" fill="white"/>
<path d="M228.241 91.5236L293.757 73.9687L301.782 103.919L236.266 121.474L228.241 91.5236Z" fill="#98D55D"/>
<path fill-rule="evenodd" clip-rule="evenodd" d="M291.929 77.1333L231.405 93.3507L238.093 118.309L298.617 102.092L291.929 77.1333ZM228.241 91.5236L236.266 121.474L301.782 103.919L293.757 73.9687L228.241 91.5236Z" fill="#70A63B"/>
<circle cx="265.323" cy="97.6376" r="10.9815" transform="rotate(-15 265.323 97.6376)" fill="#70A63B"/>
<circle cx="282.493" cy="92.8595" r="3.12427" transform="rotate(-15 282.493 92.8595)" fill="#70A63B"/>
<circle cx="247.788" cy="102.159" r="3.12427" transform="rotate(-15 247.788 102.159)" fill="#70A63B"/>
<path d="M267.385 99.1559C267.29 98.8027 267.095 98.5431 266.8 98.3771C266.505 98.207 266.06 98.1035 265.466 98.0666C264.871 98.0256 264.401 97.9667 264.056 97.8899C262.909 97.6405 262.2 97.0067 261.927 95.9886C261.742 95.2989 261.808 94.6731 262.126 94.1115C262.444 93.5498 262.965 93.1272 263.691 92.8437L263.327 91.4849L264.365 91.2068L264.732 92.5781C265.512 92.4804 266.176 92.632 266.724 93.0331C267.271 93.43 267.653 94.0356 267.871 94.8501L266.302 95.2707C266.161 94.7471 265.928 94.3687 265.601 94.1356C265.278 93.8971 264.907 93.8341 264.487 93.9465C264.072 94.0577 263.777 94.2526 263.601 94.5313C263.425 94.8099 263.392 95.1508 263.5 95.5539C263.596 95.9154 263.789 96.1755 264.077 96.3344C264.369 96.4879 264.817 96.5881 265.423 96.6351C266.029 96.6821 266.512 96.7465 266.872 96.8281C267.232 96.9097 267.549 97.0296 267.823 97.1878C268.096 97.3418 268.329 97.5423 268.52 97.7894C268.711 98.0366 268.857 98.3471 268.957 98.7211C269.145 99.4234 269.073 100.053 268.74 100.61C268.412 101.165 267.858 101.59 267.079 101.883L267.405 103.099L266.374 103.375L266.05 102.166C265.169 102.304 264.431 102.185 263.834 101.811C263.242 101.435 262.836 100.836 262.616 100.013L264.192 99.5905C264.332 100.114 264.577 100.483 264.926 100.696C265.28 100.909 265.707 100.948 266.209 100.814C266.702 100.682 267.045 100.467 267.239 100.17C267.437 99.8721 267.486 99.534 267.385 99.1559Z" fill="white"/>
<path d="M222.895 74.6183L290.353 67.5535L293.582 98.3915L226.124 105.456L222.895 74.6183Z" fill="#98D55D"/>
<path fill-rule="evenodd" clip-rule="evenodd" d="M288.052 70.3925L225.734 76.919L228.425 102.617L290.743 96.0908L288.052 70.3925ZM222.895 74.6183L226.124 105.456L293.582 98.3915L290.353 67.5535L222.895 74.6183Z" fill="#70A63B"/>
<circle cx="258.56" cy="86.4712" r="10.9815" transform="rotate(-5.97876 258.56 86.4712)" fill="#70A63B"/>
<circle cx="276.267" cy="84.4446" r="3.12427" transform="rotate(-5.97876 276.267 84.4446)" fill="#70A63B"/>
<circle cx="240.533" cy="88.1869" r="3.12427" transform="rotate(-5.97876 240.533 88.1869)" fill="#70A63B"/>
<path d="M260.358 88.2941C260.319 87.9304 260.168 87.6435 259.903 87.4333C259.637 87.2189 259.214 87.047 258.634 86.9174C258.052 86.7837 257.597 86.6518 257.269 86.5219C256.175 86.0957 255.574 85.3585 255.464 84.3102C255.39 83.6 255.553 82.9924 255.955 82.4875C256.357 81.9826 256.938 81.6471 257.7 81.4808L257.553 80.0817L258.622 79.9698L258.769 81.3817C259.555 81.4076 260.187 81.6615 260.665 82.1434C261.143 82.6211 261.426 83.2793 261.514 84.1179L259.897 84.2871C259.841 83.748 259.67 83.3377 259.384 83.0563C259.102 82.77 258.745 82.6495 258.313 82.6948C257.885 82.7395 257.563 82.8857 257.346 83.1334C257.129 83.3811 257.042 83.7124 257.086 84.1274C257.125 84.4997 257.274 84.7868 257.534 84.9889C257.797 85.1862 258.225 85.3555 258.816 85.4969C259.407 85.6383 259.873 85.7776 260.216 85.9147C260.559 86.0518 260.854 86.2199 261.1 86.4191C261.345 86.614 261.543 86.8485 261.693 87.1225C261.843 87.3966 261.939 87.7262 261.979 88.1113C262.055 88.8343 261.885 89.4447 261.469 89.9425C261.057 90.4398 260.444 90.7722 259.629 90.9397L259.76 92.1912L258.698 92.3024L258.567 91.0574C257.676 91.0555 256.965 90.8229 256.435 90.3593C255.909 89.8953 255.602 89.2398 255.514 88.3926L257.136 88.2227C257.193 88.7618 257.377 89.1642 257.688 89.4301C258.004 89.6954 258.42 89.8011 258.937 89.747C259.444 89.6938 259.817 89.5359 260.055 89.273C260.298 89.0097 260.398 88.6834 260.358 88.2941Z" fill="white"/>
<path d="M216.48 89.5889L277.017 59L291.001 86.6744L230.463 117.263L216.48 89.5889Z" fill="#98D55D"/>
<path fill-rule="evenodd" clip-rule="evenodd" d="M275.876 62.4715L219.951 90.7298L231.604 113.792L287.529 85.5335L275.876 62.4715ZM216.48 89.5889L230.463 117.263L291.001 86.6744L277.017 59L216.48 89.5889Z" fill="#70A63B"/>
<circle cx="254.028" cy="87.986" r="10.9815" transform="rotate(-26.8069 254.028 87.986)" fill="#70A63B"/>
<circle cx="269.857" cy="79.7957" r="3.12427" transform="rotate(-26.8069 269.857 79.7957)" fill="#70A63B"/>
<circle cx="237.79" cy="95.9992" r="3.12427" transform="rotate(-26.8069 237.79 95.9992)" fill="#70A63B"/>
<path d="M256.357 89.0504C256.192 88.724 255.948 88.5098 255.626 88.4076C255.301 88.3016 254.845 88.2913 254.256 88.3768C253.665 88.4583 253.193 88.4969 252.84 88.4923C251.666 88.4827 250.842 88.0076 250.367 87.0669C250.045 86.4295 249.981 85.8034 250.177 85.1887C250.373 84.5739 250.798 84.0535 251.45 83.6275L250.816 82.3719L251.774 81.8874L252.415 83.1545C253.158 82.8992 253.839 82.9118 254.458 83.1923C255.074 83.4689 255.572 83.9835 255.952 84.7361L254.502 85.4689C254.258 84.9851 253.952 84.6625 253.584 84.5012C253.219 84.3339 252.842 84.3482 252.455 84.5441C252.071 84.7379 251.822 84.9891 251.707 85.2978C251.592 85.6065 251.629 85.947 251.817 86.3195C251.986 86.6535 252.228 86.8688 252.542 86.9653C252.859 87.0559 253.318 87.0623 253.921 86.9843C254.524 86.9064 255.01 86.8705 255.379 86.8767C255.748 86.8829 256.083 86.9354 256.384 87.0341C256.683 87.129 256.951 87.2778 257.189 87.4805C257.427 87.6833 257.633 87.9574 257.807 88.303C258.135 88.9519 258.193 89.5829 257.981 90.196C257.774 90.8071 257.319 91.3359 256.616 91.7823L257.184 92.9054L256.231 93.3869L255.666 92.2696C254.832 92.5849 254.085 92.6201 253.425 92.3754C252.769 92.1286 252.249 91.6251 251.864 90.8649L253.321 90.129C253.565 90.6128 253.88 90.9236 254.266 91.0613C254.655 91.1971 255.082 91.1478 255.545 90.9136C256.001 90.6835 256.293 90.4033 256.422 90.073C256.555 89.7407 256.533 89.3998 256.357 89.0504Z" fill="white"/>
<path d="M207.926 174.921L273.442 157.366L281.467 187.316L215.951 204.871L207.926 174.921Z" fill="#98D55D"/>
<path fill-rule="evenodd" clip-rule="evenodd" d="M271.615 160.53L211.091 176.748L217.778 201.706L278.302 185.489L271.615 160.53ZM207.926 174.921L215.951 204.871L281.467 187.316L273.442 157.366L207.926 174.921Z" fill="#70A63B"/>
<circle cx="245.008" cy="181.035" r="10.9815" transform="rotate(-15 245.008 181.035)" fill="#70A63B"/>
<circle cx="262.178" cy="176.257" r="3.12427" transform="rotate(-15 262.178 176.257)" fill="#70A63B"/>
<circle cx="227.474" cy="185.556" r="3.12427" transform="rotate(-15 227.474 185.556)" fill="#70A63B"/>
<path d="M247.07 182.553C246.975 182.2 246.78 181.94 246.486 181.774C246.19 181.604 245.745 181.501 245.151 181.464C244.556 181.423 244.086 181.364 243.741 181.287C242.595 181.038 241.885 180.404 241.612 179.386C241.427 178.696 241.494 178.07 241.811 177.509C242.129 176.947 242.651 176.525 243.376 176.241L243.012 174.882L244.05 174.604L244.417 175.975C245.198 175.878 245.862 176.029 246.409 176.43C246.956 176.827 247.338 177.433 247.557 178.247L245.987 178.668C245.847 178.144 245.613 177.766 245.287 177.533C244.963 177.294 244.592 177.231 244.172 177.344C243.757 177.455 243.462 177.65 243.286 177.929C243.111 178.207 243.077 178.548 243.185 178.951C243.282 179.313 243.474 179.573 243.763 179.732C244.054 179.885 244.503 179.985 245.108 180.032C245.714 180.079 246.197 180.144 246.557 180.225C246.918 180.307 247.235 180.427 247.509 180.585C247.782 180.739 248.014 180.94 248.205 181.187C248.397 181.434 248.542 181.744 248.643 182.118C248.831 182.821 248.758 183.45 248.426 184.007C248.097 184.563 247.544 184.987 246.765 185.28L247.09 186.496L246.059 186.772L245.735 185.563C244.854 185.701 244.116 185.583 243.52 185.208C242.928 184.832 242.522 184.233 242.301 183.41L243.877 182.988C244.018 183.511 244.262 183.88 244.612 184.094C244.965 184.306 245.393 184.345 245.894 184.211C246.387 184.079 246.731 183.864 246.924 183.567C247.123 183.269 247.171 182.931 247.07 182.553Z" fill="white"/>
<path d="M202.58 158.016L270.038 150.951L273.268 181.789L205.81 188.854L202.58 158.016Z" fill="#98D55D"/>
<path fill-rule="evenodd" clip-rule="evenodd" d="M267.737 153.79L205.419 160.316L208.11 186.015L270.429 179.488L267.737 153.79ZM202.58 158.016L205.81 188.854L273.268 181.789L270.038 150.951L202.58 158.016Z" fill="#70A63B"/>
<circle cx="238.245" cy="169.869" r="10.9815" transform="rotate(-5.97876 238.245 169.869)" fill="#70A63B"/>
<circle cx="255.952" cy="167.842" r="3.12427" transform="rotate(-5.97876 255.952 167.842)" fill="#70A63B"/>
<circle cx="220.218" cy="171.584" r="3.12427" transform="rotate(-5.97876 220.218 171.584)" fill="#70A63B"/>
<path d="M240.043 171.691C240.005 171.327 239.853 171.041 239.588 170.83C239.323 170.616 238.9 170.444 238.319 170.315C237.738 170.181 237.283 170.049 236.954 169.919C235.861 169.493 235.259 168.756 235.149 167.707C235.075 166.997 235.239 166.39 235.64 165.885C236.042 165.38 236.624 165.044 237.385 164.878L237.238 163.479L238.307 163.367L238.455 164.779C239.241 164.805 239.873 165.059 240.351 165.541C240.828 166.018 241.111 166.676 241.199 167.515L239.583 167.684C239.526 167.145 239.355 166.735 239.069 166.453C238.787 166.167 238.43 166.047 237.998 166.092C237.571 166.137 237.248 166.283 237.031 166.531C236.814 166.778 236.727 167.11 236.771 167.525C236.81 167.897 236.959 168.184 237.219 168.386C237.483 168.583 237.91 168.753 238.501 168.894C239.092 169.035 239.559 169.175 239.902 169.312C240.245 169.449 240.539 169.617 240.785 169.816C241.03 170.011 241.228 170.246 241.379 170.52C241.529 170.794 241.624 171.123 241.664 171.508C241.74 172.231 241.57 172.842 241.154 173.34C240.742 173.837 240.129 174.169 239.314 174.337L239.445 175.588L238.383 175.7L238.253 174.454C237.361 174.453 236.651 174.22 236.12 173.756C235.595 173.292 235.288 172.637 235.199 171.79L236.822 171.62C236.878 172.159 237.062 172.561 237.373 172.827C237.689 173.093 238.105 173.198 238.622 173.144C239.13 173.091 239.502 172.933 239.74 172.67C239.983 172.407 240.084 172.081 240.043 171.691Z" fill="white"/>
<path d="M196.165 172.986L256.703 142.397L270.686 170.072L210.148 200.66L196.165 172.986Z" fill="#98D55D"/>
<path fill-rule="evenodd" clip-rule="evenodd" d="M255.562 145.869L199.636 174.127L211.289 197.189L267.215 168.931L255.562 145.869ZM196.165 172.986L210.148 200.66L270.686 170.072L256.703 142.397L196.165 172.986Z" fill="#70A63B"/>
<circle cx="233.714" cy="171.383" r="10.9815" transform="rotate(-26.8069 233.714 171.383)" fill="#70A63B"/>
<circle cx="249.543" cy="163.193" r="3.12427" transform="rotate(-26.8069 249.543 163.193)" fill="#70A63B"/>
<circle cx="217.475" cy="179.396" r="3.12427" transform="rotate(-26.8069 217.475 179.396)" fill="#70A63B"/>
<path d="M236.042 172.448C235.877 172.121 235.634 171.907 235.311 171.805C234.987 171.699 234.53 171.689 233.941 171.774C233.351 171.856 232.879 171.894 232.525 171.889C231.352 171.88 230.527 171.405 230.052 170.464C229.73 169.827 229.667 169.201 229.863 168.586C230.059 167.971 230.483 167.451 231.135 167.025L230.501 165.769L231.46 165.285L232.1 166.552C232.844 166.296 233.525 166.309 234.143 166.589C234.759 166.866 235.257 167.381 235.638 168.133L234.187 168.866C233.943 168.382 233.637 168.06 233.27 167.898C232.904 167.731 232.528 167.745 232.14 167.941C231.757 168.135 231.507 168.386 231.392 168.695C231.278 169.004 231.314 169.344 231.502 169.717C231.671 170.051 231.913 170.266 232.228 170.363C232.544 170.453 233.004 170.459 233.606 170.382C234.209 170.304 234.695 170.268 235.064 170.274C235.433 170.28 235.768 170.333 236.069 170.431C236.368 170.526 236.636 170.675 236.874 170.878C237.112 171.08 237.318 171.355 237.493 171.7C237.821 172.349 237.879 172.98 237.667 173.593C237.459 174.204 237.004 174.733 236.302 175.18L236.869 176.303L235.916 176.784L235.352 175.667C234.518 175.982 233.771 176.017 233.11 175.773C232.454 175.526 231.934 175.022 231.55 174.262L233.006 173.526C233.251 174.01 233.566 174.321 233.951 174.459C234.341 174.594 234.767 174.545 235.231 174.311C235.686 174.081 235.978 173.8 236.107 173.47C236.24 173.138 236.219 172.797 236.042 172.448Z" fill="white"/>
<path d="M78.5536 59H241.625C246.043 59 249.625 62.5817 249.625 67V200.687C249.625 205.105 246.043 208.687 241.625 208.687H78.5536V59Z" fill="#4F4B6C"/>
<path d="M70 67C70 62.5817 73.5817 59 78 59H78.5536V208.687H78C73.5817 208.687 70 205.105 70 200.687V67Z" fill="#ACA9BC"/>
<path d="M112.768 208.687H127.736V213.241C127.736 215.45 125.946 217.241 123.736 217.241H116.768C114.559 217.241 112.768 215.45 112.768 213.241V208.687Z" fill="#ACA9BC"/>
<path d="M200.442 208.687H215.41V213.241C215.41 215.45 213.62 217.241 211.41 217.241H204.442C202.233 217.241 200.442 215.45 200.442 213.241V208.687Z" fill="#ACA9BC"/>
<rect x="230.379" y="101.768" width="6.41516" height="68.4284" rx="3.20758" fill="#ACA9BC"/>
<circle cx="190.819" cy="133.844" r="22.4531" fill="#ACA9BC"/>
<path fill-rule="evenodd" clip-rule="evenodd" d="M194.579 134.765C196.188 133.6 197.234 131.705 197.234 129.567C197.234 126.024 194.362 123.152 190.819 123.152C187.276 123.152 184.404 126.024 184.404 129.567C184.404 131.705 185.45 133.6 187.059 134.765L185.473 144.535H196.165L194.579 134.765Z" fill="white"/>
<path opacity="0.25" d="M78.5536 108.183H114.372C115.848 108.183 117.045 109.38 117.045 110.856C117.045 112.332 115.848 113.529 114.372 113.529H78.5536V108.183Z" fill="#ACA9BC"/>
<path opacity="0.25" d="M78.5536 130.636H114.372C115.848 130.636 117.045 131.833 117.045 133.309C117.045 134.785 115.848 135.982 114.372 135.982H78.5536V130.636Z" fill="#ACA9BC"/>
<path opacity="0.25" d="M78.5536 153.089H114.372C115.848 153.089 117.045 154.286 117.045 155.762C117.045 157.238 115.848 158.435 114.372 158.435H78.5536V153.089Z" fill="#ACA9BC"/>
<path d="M291 215.667C291 216.899 289.916 218.313 287.47 219.478C285.098 220.607 281.751 221.333 278 221.333C274.249 221.333 270.902 220.607 268.53 219.478C266.084 218.313 265 216.899 265 215.667C265 214.434 266.084 213.02 268.53 211.855C270.902 210.726 274.249 210 278 210C281.751 210 285.098 210.726 287.47 211.855C289.916 213.02 291 214.434 291 215.667Z" fill="#FFE37B" stroke="#FFBE1B" stroke-width="2"/>
<path d="M271 225.286C271 226.518 269.916 227.932 267.47 229.097C265.098 230.226 261.751 230.952 258 230.952C254.249 230.952 250.902 230.226 248.53 229.097C246.084 227.932 245 226.518 245 225.286C245 224.053 246.084 222.64 248.53 221.475C250.902 220.345 254.249 219.619 258 219.619C261.751 219.619 265.098 220.345 267.47 221.475C269.916 222.64 271 224.053 271 225.286Z" fill="#FFE37B" stroke="#FFBE1B" stroke-width="2"/>
<path d="M271 220.952C271 222.185 269.916 223.599 267.47 224.764C265.098 225.893 261.751 226.619 258 226.619C254.249 226.619 250.902 225.893 248.53 224.764C246.084 223.599 245 222.185 245 220.952C245 219.72 246.084 218.306 248.53 217.141C250.902 216.012 254.249 215.286 258 215.286C261.751 215.286 265.098 216.012 267.47 217.141C269.916 218.306 271 219.72 271 220.952Z" fill="#FFE37B" stroke="#FFBE1B" stroke-width="2"/>
<path d="M271 216.619C271 217.851 269.916 219.265 267.47 220.43C265.098 221.56 261.751 222.286 258 222.286C254.249 222.286 250.902 221.56 248.53 220.43C246.084 219.265 245 217.851 245 216.619C245 215.387 246.084 213.973 248.53 212.808C250.902 211.678 254.249 210.952 258 210.952C261.751 210.952 265.098 211.678 267.47 212.808C269.916 213.973 271 215.387 271 216.619Z" fill="#FFE37B" stroke="#FFBE1B" stroke-width="2"/>
<path d="M301 228C301 229.232 299.916 230.646 297.47 231.811C295.098 232.941 291.751 233.667 288 233.667C284.249 233.667 280.902 232.941 278.53 231.811C276.084 230.646 275 229.232 275 228C275 226.768 276.084 225.354 278.53 224.189C280.902 223.059 284.249 222.333 288 222.333C291.751 222.333 295.098 223.059 297.47 224.189C299.916 225.354 301 226.768 301 228Z" fill="#FFE37B" stroke="#FFBE1B" stroke-width="2"/>
<path d="M301 223.667C301 224.899 299.916 226.313 297.47 227.478C295.098 228.607 291.751 229.333 288 229.333C284.249 229.333 280.902 228.607 278.53 227.478C276.084 226.313 275 224.899 275 223.667C275 222.434 276.084 221.02 278.53 219.855C280.902 218.726 284.249 218 288 218C291.751 218 295.098 218.726 297.47 219.855C299.916 221.02 301 222.434 301 223.667Z" fill="#FFE37B" stroke="#FFBE1B" stroke-width="2"/>
</svg>
