<svg viewBox="0 0 330 297" fill="none" xmlns="http://www.w3.org/2000/svg">
<path opacity="0.06" fill-rule="evenodd" clip-rule="evenodd" d="M156.354 24.4351C193.796 19.8088 236.993 -16.0143 265.61 8.50655C295.046 33.7289 264.796 83.3239 269.863 121.696C273.586 149.893 300.089 175.15 291.18 202.167C282.275 229.173 250.042 238.778 226.143 254.274C203.724 268.81 182.612 284.545 156.354 289.586C125.29 295.55 89.027 304.553 63.8683 285.428C38.735 266.323 45.9954 227.364 35.4271 197.663C24.4222 166.734 -5.08124 140.355 0.756943 108.058C6.74847 74.9124 35.413 49.2532 65.1423 33.2757C92.7078 18.461 125.278 28.2748 156.354 24.4351Z" fill="#6857E5"/>
<path opacity="0.06" fill-rule="evenodd" clip-rule="evenodd" d="M306.247 82.2288C315.111 83.5269 313.5 98 317.5 109C321.5 120 330.674 124.268 329.5 133.5C328.215 143.6 325.996 150.666 318.911 155.438C311.641 160.335 302.808 157.558 295.543 152.595C288.742 147.949 284.665 139.625 282.143 130.323C279.13 119.206 275.483 106.762 280.438 96.8747C285.775 86.2275 296.393 80.7857 306.247 82.2288Z" fill="#6857E5"/>
<rect x="58" y="75" width="201" height="147" rx="6" fill="#4F4B6C"/>
<path d="M87.1243 123.769C88.5181 123.584 89.57 123.116 90.2801 122.364C91.0033 121.599 91.3649 120.603 91.3649 119.376C91.3649 118.875 91.2728 118.44 91.0888 118.071C90.9178 117.688 90.668 117.352 90.3392 117.061C90.0237 116.771 89.6489 116.521 89.215 116.31C88.7811 116.099 88.3077 115.901 87.7949 115.716L87.1243 123.769ZM85.8619 102.855C85.1256 102.947 84.501 103.106 83.9882 103.33C83.4753 103.541 83.0546 103.805 82.7258 104.121C82.3971 104.438 82.1538 104.794 81.9961 105.19C81.8514 105.586 81.7791 106.001 81.7791 106.436C81.7791 106.938 81.8646 107.38 82.0355 107.762C82.2196 108.131 82.4629 108.468 82.7653 108.771C83.0809 109.061 83.449 109.325 83.8698 109.563C84.2906 109.787 84.7508 109.998 85.2505 110.196L85.8619 102.855ZM88.1696 111.145C89.1164 111.436 90.0565 111.759 90.9901 112.115C91.9237 112.458 92.7587 112.906 93.4951 113.46C94.2446 114.014 94.8494 114.707 95.3097 115.538C95.7699 116.356 96 117.385 96 118.625C96 119.851 95.7962 121.006 95.3886 122.087C94.9809 123.156 94.3826 124.105 93.5937 124.936C92.8047 125.754 91.8383 126.427 90.6943 126.955C89.5503 127.469 88.2419 127.772 86.7692 127.865L86.5325 130.773C86.5194 131.077 86.3879 131.354 86.1381 131.604C85.9014 131.868 85.5989 132 85.2308 132H83.4359L83.7909 127.766C82.2525 127.555 80.806 127.133 79.4517 126.499C78.0973 125.866 76.9467 125.081 76 124.145L77.499 121.909C77.6305 121.711 77.8014 121.553 78.0118 121.434C78.2354 121.302 78.4721 121.236 78.7219 121.236C79.0112 121.236 79.3202 121.342 79.6489 121.553C79.9776 121.751 80.3524 121.988 80.7732 122.265C81.194 122.529 81.6739 122.799 82.213 123.076C82.7521 123.353 83.3899 123.558 84.1262 123.69L84.856 114.845C83.9224 114.582 82.9954 114.272 82.075 113.916C81.1677 113.559 80.3458 113.091 79.6095 112.511C78.8863 111.917 78.3011 111.172 77.854 110.275C77.407 109.378 77.1834 108.257 77.1834 106.911C77.1834 105.909 77.3807 104.933 77.7751 103.983C78.1696 103.02 78.7482 102.163 79.5108 101.411C80.2867 100.659 81.2334 100.039 82.3511 99.5508C83.4688 99.0627 84.7508 98.7857 86.1972 98.7198L86.4142 96.2267C86.4405 95.9102 86.572 95.6266 86.8087 95.3759C87.0454 95.1253 87.3544 95 87.7357 95H89.5306L89.215 98.8781C90.6088 99.1023 91.812 99.5046 92.8245 100.085C93.8369 100.652 94.7114 101.292 95.4477 102.004L94.2643 103.805C94.0934 104.069 93.9158 104.266 93.7318 104.398C93.5477 104.53 93.3241 104.596 93.0611 104.596C92.8639 104.596 92.6272 104.537 92.3511 104.418C92.0749 104.286 91.7659 104.135 91.4241 103.963C91.0822 103.778 90.6943 103.594 90.2604 103.409C89.8396 103.224 89.3728 103.073 88.86 102.954L88.1696 111.145Z" fill="white"/>
<rect opacity="0.25" x="70" y="149" width="177" height="10" rx="3" fill="#ACA9BC"/>
<rect opacity="0.25" x="70" y="169" width="177" height="10" rx="3" fill="#ACA9BC"/>
<rect opacity="0.25" x="70" y="189" width="177" height="10" rx="3" fill="#ACA9BC"/>
<rect x="151" y="104" width="28" height="20" rx="3" fill="#ACA9BC"/>
<rect x="185" y="104" width="28" height="20" rx="3" fill="#ACA9BC"/>
<rect x="219" y="104" width="28" height="20" rx="3" fill="#ACA9BC"/>
<path fill-rule="evenodd" clip-rule="evenodd" d="M247 112C259.15 112 269 102.15 269 90C269 77.8497 259.15 68 247 68C234.85 68 225 77.8497 225 90C225 96.1972 227.562 101.796 231.685 105.794C231.319 106.418 230.861 107.176 230.315 108.041C228.663 110.66 226.207 114.26 223.005 118.164C216.571 126.007 207.263 134.907 195.555 139.685C182.104 145.176 170.485 147.266 159.482 149.246C158.494 149.424 157.511 149.601 156.532 149.779C144.673 151.94 133.378 154.326 121.709 161.359C109.15 168.929 99.9407 178.271 93.8752 185.707C93.7326 185.882 93.5917 186.056 93.4526 186.229C87.609 179.937 79.2642 176 70 176C52.3269 176 38 190.327 38 208C38 225.673 52.3269 240 70 240C87.6731 240 102 225.673 102 208C102 201.437 100.024 195.336 96.6352 190.258C96.9935 189.803 97.365 189.34 97.7497 188.868C103.559 181.746 112.35 172.838 124.291 165.641C135.122 159.113 145.633 156.848 157.428 154.698C158.41 154.519 159.401 154.341 160.401 154.162C171.387 152.187 183.487 150.011 197.445 144.315C210.237 139.093 220.179 129.493 226.87 121.336C230.23 117.24 232.805 113.465 234.544 110.709C234.972 110.03 235.35 109.412 235.677 108.866C238.985 110.856 242.859 112 247 112Z" fill="url(#paint0_linear)"/>
<path d="M253.519 97.5214C253.519 94.1982 250.6 91.5043 247 91.5043C243.4 91.5043 240.482 94.1982 240.482 97.5214" stroke="white" stroke-width="2" stroke-linecap="round"/>
<circle cx="247" cy="85.9886" r="3.50997" fill="white"/>
<path d="M79 218.385C79 213.796 74.9706 210.077 70 210.077C65.0294 210.077 61 213.796 61 218.385" stroke="white" stroke-width="2" stroke-linecap="round"/>
<circle cx="70" cy="202.462" r="4.84615" fill="white"/>
<g filter="url(#filter0_d)">
<circle cx="162" cy="150" r="15" fill="#1DBA44"/>
</g>
<path d="M156 151.235L159.84 155L168 147" stroke="white" stroke-width="2" stroke-linecap="round" stroke-linejoin="round"/>
<rect x="108" y="105" width="26" height="4" rx="2" fill="#FFBE1B"/>
<rect x="108" y="112" width="26" height="4" rx="2" fill="#FFBE1B"/>
<rect x="108" y="119" width="26" height="4" rx="2" fill="#FFBE1B"/>
<path opacity="0.5" fill-rule="evenodd" clip-rule="evenodd" d="M142.291 47.8654C141.388 47.8654 140.656 48.5972 140.656 49.5C140.656 50.4028 141.388 51.1346 142.291 51.1346L150.365 51.1346L150.365 59.2091C150.365 60.1119 151.097 60.8437 152 60.8437C152.903 60.8437 153.635 60.1119 153.635 59.2091L153.635 51.1346H161.709C162.612 51.1346 163.344 50.4028 163.344 49.5C163.344 48.5972 162.612 47.8654 161.709 47.8654H153.635L153.635 39.7909C153.635 38.8881 152.903 38.1563 152 38.1563C151.097 38.1563 150.365 38.8881 150.365 39.7909L150.365 47.8654L142.291 47.8654Z" fill="#DC3545"/>
<path opacity="0.3" fill-rule="evenodd" clip-rule="evenodd" d="M35 59.6C38.0928 59.6 40.6 57.0928 40.6 54C40.6 50.9072 38.0928 48.4 35 48.4C31.9072 48.4 29.4 50.9072 29.4 54C29.4 57.0928 31.9072 59.6 35 59.6ZM35 62C39.4183 62 43 58.4183 43 54C43 49.5817 39.4183 46 35 46C30.5817 46 27 49.5817 27 54C27 58.4183 30.5817 62 35 62Z" fill="#38A1DC"/>
<path opacity="0.3" fill-rule="evenodd" clip-rule="evenodd" d="M237 256C240.866 256 244 252.866 244 249C244 245.134 240.866 242 237 242C233.134 242 230 245.134 230 249C230 252.866 233.134 256 237 256ZM237 259C242.523 259 247 254.523 247 249C247 243.477 242.523 239 237 239C231.477 239 227 243.477 227 249C227 254.523 231.477 259 237 259Z" fill="#4F4B6C"/>
<path opacity="0.4" fill-rule="evenodd" clip-rule="evenodd" d="M19.0769 140.078C19.0769 139.015 19.9379 138.154 21 138.154C22.0621 138.154 22.9231 139.015 22.9231 140.078L22.9231 149.577H32.4225C33.4846 149.577 34.3456 150.438 34.3456 151.5C34.3456 152.562 33.4846 153.423 32.4225 153.423H22.9231V162.922C22.9231 163.985 22.0621 164.846 21 164.846C19.9379 164.846 19.0769 163.985 19.0769 162.922L19.0769 153.423L9.57749 153.423C8.5154 153.423 7.65441 152.562 7.65441 151.5C7.65441 150.438 8.5154 149.577 9.57749 149.577L19.0769 149.577L19.0769 140.078Z" fill="#1DBA44"/>
<path opacity="0.3" fill-rule="evenodd" clip-rule="evenodd" d="M146.154 241.004C146.154 240.261 146.757 239.658 147.5 239.658C148.243 239.658 148.846 240.261 148.846 241.004L148.846 247.654H155.496C156.239 247.654 156.842 248.257 156.842 249C156.842 249.743 156.239 250.346 155.496 250.346H148.846L148.846 256.996C148.846 257.739 148.243 258.342 147.5 258.342C146.757 258.342 146.154 257.739 146.154 256.996L146.154 250.346L139.504 250.346C138.761 250.346 138.158 249.743 138.158 249C138.158 248.257 138.761 247.654 139.504 247.654L146.154 247.654L146.154 241.004Z" fill="#303392"/>
<path opacity="0.3" fill-rule="evenodd" clip-rule="evenodd" d="M284.462 174.862C284.462 174.012 285.15 173.324 286 173.324C286.85 173.324 287.538 174.012 287.538 174.862L287.538 182.462H295.138C295.988 182.462 296.676 183.15 296.676 184C296.676 184.85 295.988 185.538 295.138 185.538H287.538L287.538 193.138C287.538 193.988 286.85 194.676 286 194.676C285.15 194.676 284.462 193.988 284.462 193.138L284.462 185.538L276.862 185.538C276.012 185.538 275.324 184.85 275.324 184C275.324 183.15 276.012 182.462 276.862 182.462L284.462 182.462L284.462 174.862Z" fill="#FFC107"/>
<defs>
<filter id="filter0_d" x="125" y="113" width="74" height="74" filterUnits="userSpaceOnUse" color-interpolation-filters="sRGB">
<feFlood flood-opacity="0" result="BackgroundImageFix"/>
<feColorMatrix in="SourceAlpha" type="matrix" values="0 0 0 0 0 0 0 0 0 0 0 0 0 0 0 0 0 0 127 0"/>
<feOffset/>
<feGaussianBlur stdDeviation="11"/>
<feColorMatrix type="matrix" values="0 0 0 0 0.113725 0 0 0 0 0.729412 0 0 0 0 0.266667 0 0 0 1 0"/>
<feBlend mode="normal" in2="BackgroundImageFix" result="effect1_dropShadow"/>
<feBlend mode="normal" in="SourceGraphic" in2="effect1_dropShadow" result="shape"/>
</filter>
<linearGradient id="paint0_linear" x1="38" y1="154" x2="274" y2="154" gradientUnits="userSpaceOnUse">
<stop stop-color="#6857E5"/>
<stop offset="1" stop-color="#00B67A"/>
</linearGradient>
</defs>
</svg>
