<svg viewBox="0 0 330 280" fill="none" xmlns="http://www.w3.org/2000/svg">
<path opacity="0.06" fill-rule="evenodd" clip-rule="evenodd" d="M182.734 16.3584C205.57 19.5601 229.681 17.9671 249.012 30.516C268.295 43.0337 276.213 65.865 288.698 85.1469C303.552 108.089 335.185 127.801 329.273 154.471C323.231 181.728 280.622 181.165 262.668 202.571C244.193 224.599 253.068 270.548 225.368 278.357C197.549 286.199 181.178 241.124 153.327 233.396C124.776 225.473 89.0083 253.114 66.2283 234.197C44.4304 216.096 58.5417 179.851 55.0307 151.768C51.6016 124.34 36.9151 97.2151 45.8307 71.0455C55.0159 44.0845 76.8098 20.6677 103.3 10.086C128.468 0.0321865 155.888 12.5943 182.734 16.3584Z" fill="#6857E5"/>
<path opacity="0.06" fill-rule="evenodd" clip-rule="evenodd" d="M46.5719 149.901C46.0569 142.418 44.3879 131.611 38.3918 126.52C32.1071 121.184 24.8083 115.495 16.2996 116.356C5.56137 117.443 6.74481e-07 127.708 5.50921e-07 138.07C4.27362e-07 148.431 5.66609 149.572 10.6082 158.398C15.2263 166.645 6.97504 179.3 16.2996 182.863C26.3371 186.7 38.9695 182.266 45.978 174.635C52.0696 168.002 47.1677 158.56 46.5719 149.901Z" fill="#6857E5"/>
<path opacity="0.5" fill-rule="evenodd" clip-rule="evenodd" d="M9.3117 46.6555C8.40892 46.6555 7.67708 47.3874 7.67708 48.2902C7.67708 49.1929 8.40892 49.9248 9.3117 49.9248L17.3862 49.9248L17.3862 57.9993C17.3862 58.9021 18.118 59.6339 19.0208 59.6339C19.9236 59.6339 20.6554 58.9021 20.6554 57.9993L20.6554 49.9248H28.7299C29.6327 49.9248 30.3646 49.1929 30.3646 48.2902C30.3646 47.3874 29.6327 46.6555 28.7299 46.6555H20.6554L20.6554 38.581C20.6554 37.6783 19.9236 36.9464 19.0208 36.9464C18.118 36.9464 17.3862 37.6783 17.3862 38.581L17.3862 46.6555L9.3117 46.6555Z" fill="#DC3545"/>
<path opacity="0.3" fill-rule="evenodd" clip-rule="evenodd" d="M33 123.869C36.0928 123.869 38.6 121.362 38.6 118.269C38.6 115.176 36.0928 112.669 33 112.669C29.9072 112.669 27.4 115.176 27.4 118.269C27.4 121.362 29.9072 123.869 33 123.869ZM33 126.269C37.4183 126.269 41 122.688 41 118.269C41 113.851 37.4183 110.269 33 110.269C28.5817 110.269 25 113.851 25 118.269C25 122.688 28.5817 126.269 33 126.269Z" fill="#38A1DC"/>
<path opacity="0.3" fill-rule="evenodd" clip-rule="evenodd" d="M293 60.2693C296.866 60.2693 300 57.1353 300 53.2693C300 49.4033 296.866 46.2693 293 46.2693C289.134 46.2693 286 49.4033 286 53.2693C286 57.1353 289.134 60.2693 293 60.2693ZM293 63.2693C298.523 63.2693 303 58.7921 303 53.2693C303 47.7464 298.523 43.2693 293 43.2693C287.477 43.2693 283 47.7464 283 53.2693C283 58.7921 287.477 63.2693 293 63.2693Z" fill="#4F4B6C"/>
<path opacity="0.4" fill-rule="evenodd" clip-rule="evenodd" d="M68.2191 252.989C68.2191 251.927 69.08 251.066 70.1421 251.066C71.2042 251.066 72.0652 251.927 72.0652 252.989L72.0652 262.488H81.5646C82.6267 262.488 83.4877 263.349 83.4877 264.411C83.4877 265.473 82.6267 266.334 81.5646 266.334L72.0652 266.334L72.0652 275.834C72.0652 276.896 71.2042 277.757 70.1421 277.757C69.08 277.757 68.2191 276.896 68.2191 275.834L68.2191 266.334L58.7196 266.334C57.6576 266.334 56.7966 265.473 56.7966 264.411C56.7966 263.349 57.6576 262.488 58.7196 262.488L68.2191 262.488L68.2191 252.989Z" fill="#1DBA44"/>
<path opacity="0.3" fill-rule="evenodd" clip-rule="evenodd" d="M291.553 165.173C291.553 164.43 292.156 163.827 292.899 163.827C293.643 163.827 294.246 164.43 294.246 165.173L294.246 171.823H300.895C301.639 171.823 302.241 172.425 302.241 173.169C302.241 173.912 301.639 174.515 300.895 174.515H294.246L294.246 181.165C294.246 181.908 293.643 182.511 292.899 182.511C292.156 182.511 291.553 181.908 291.553 181.165L291.553 174.515L284.904 174.515C284.16 174.515 283.558 173.912 283.558 173.169C283.558 172.425 284.16 171.823 284.904 171.823L291.553 171.823L291.553 165.173Z" fill="#303392"/>
<path opacity="0.3" fill-rule="evenodd" clip-rule="evenodd" d="M142.775 2.44501C142.775 1.59534 143.464 0.90655 144.314 0.906551C145.163 0.906551 145.852 1.59534 145.852 2.44501L145.852 10.0445H153.452C154.301 10.0445 154.99 10.7333 154.99 11.583C154.99 12.4327 154.301 13.1215 153.452 13.1215H145.852L145.852 20.721C145.852 21.5707 145.163 22.2595 144.314 22.2595C143.464 22.2595 142.775 21.5707 142.775 20.721L142.775 13.1215L135.176 13.1215C134.326 13.1215 133.637 12.4327 133.637 11.583C133.637 10.7333 134.326 10.0445 135.176 10.0445L142.775 10.0445L142.775 2.44501Z" fill="#FFC107"/>
<path d="M70 47.8237H262V216.715C262 220.029 259.314 222.715 256 222.715H76C72.6863 222.715 70 220.029 70 216.715V47.8237Z" fill="#4F4B6C"/>
<path d="M70 45.2693C70 41.9556 72.6863 39.2693 76 39.2693H256C259.314 39.2693 262 41.9556 262 45.2693V47.8026H70V45.2693Z" fill="#ACA9BC"/>
<rect opacity="0.2" x="89.0099" y="177.091" width="158.733" height="18.0594" rx="2" fill="black"/>
<circle cx="198.838" cy="191.103" r="23.8686" fill="#FFE37B" stroke="#FFBE1B" stroke-width="5"/>
<path d="M201.106 194.309L201.106 194.309L201.113 194.316C201.523 194.743 201.752 195.341 201.752 196.167C201.752 196.938 201.509 197.506 201.053 197.927C200.594 198.34 199.943 198.574 199.041 198.574C197.952 198.574 197.185 198.255 196.66 197.677C196.137 197.078 195.84 196.182 195.84 194.917V194.417H195.34H190.456H189.956V194.917C189.956 197.321 190.615 199.303 191.978 200.812L191.978 200.812L191.981 200.815C193.268 202.216 195.03 203.056 197.223 203.368V206.273V206.773H197.723H200.41H200.91V206.273V203.353C202.884 203.079 204.494 202.355 205.698 201.151C206.998 199.85 207.635 198.162 207.635 196.133C207.635 195.058 207.47 194.096 207.125 193.257C206.785 192.419 206.292 191.676 205.649 191.033C205.013 190.386 204.241 189.817 203.338 189.325C202.446 188.827 201.316 188.306 199.954 187.761C198.626 187.225 197.793 186.728 197.374 186.291C196.984 185.883 196.769 185.329 196.769 184.575C196.769 183.744 196.995 183.162 197.387 182.761L197.387 182.761L197.391 182.757C197.781 182.351 198.351 182.117 199.176 182.117C199.973 182.117 200.57 182.397 201.019 182.948L201.019 182.948L201.025 182.955C201.48 183.491 201.752 184.361 201.752 185.656V186.156H202.252H207.135H207.635V185.656C207.635 183.372 207.048 181.466 205.833 179.983C204.701 178.591 203.166 177.726 201.265 177.373V174.131V173.631H200.765H198.061H197.561V174.131V177.304C195.654 177.573 194.075 178.306 192.857 179.523C191.536 180.844 190.886 182.537 190.886 184.558C190.886 185.713 191.068 186.736 191.451 187.614L191.451 187.614L191.454 187.619C191.841 188.478 192.374 189.23 193.053 189.872L193.053 189.872L193.06 189.879C193.738 190.498 194.542 191.046 195.465 191.525L195.465 191.525L195.469 191.527C196.379 191.988 197.456 192.451 198.696 192.918C199.898 193.37 200.678 193.843 201.106 194.309Z" fill="white" stroke="#FFBE1B"/>
<circle cx="165.438" cy="185.829" r="18.5949" fill="#FFE37B" stroke="#FFBE1B" stroke-width="5"/>
<path d="M167.179 188.462L167.178 188.462L167.186 188.469C167.491 188.788 167.669 189.239 167.669 189.881C167.669 190.473 167.483 190.9 167.142 191.215C166.798 191.524 166.304 191.706 165.6 191.706C164.75 191.706 164.166 191.458 163.77 191.022C163.374 190.567 163.139 189.878 163.139 188.88V188.38H162.639H158.732H158.232V188.88C158.232 190.822 158.765 192.434 159.876 193.663L159.875 193.663L159.878 193.666C160.91 194.789 162.313 195.466 164.046 195.728V197.965V198.465H164.546H166.695H167.195V197.965V195.716C168.753 195.486 170.032 194.903 170.996 193.939C172.058 192.877 172.576 191.499 172.576 189.854C172.576 188.984 172.442 188.2 172.16 187.515C171.883 186.832 171.481 186.227 170.957 185.703C170.441 185.177 169.815 184.717 169.086 184.319C168.368 183.918 167.46 183.5 166.368 183.063C165.308 182.635 164.658 182.244 164.339 181.91C164.048 181.606 163.883 181.19 163.883 180.607C163.883 179.961 164.058 179.523 164.349 179.226L164.349 179.226L164.352 179.222C164.641 178.921 165.068 178.741 165.708 178.741C166.318 178.741 166.766 178.953 167.105 179.368L167.105 179.368L167.111 179.375C167.453 179.779 167.669 180.447 167.669 181.472V181.972H168.169H172.076H172.576V181.472C172.576 179.627 172.101 178.079 171.111 176.87C170.205 175.756 168.983 175.058 167.479 174.763V172.252V171.752H166.979H164.816H164.316V172.252V174.704C162.811 174.931 161.556 175.521 160.582 176.495C159.505 177.572 158.976 178.953 158.976 180.593C158.976 181.528 159.124 182.361 159.437 183.078L159.437 183.078L159.439 183.083C159.754 183.782 160.189 184.395 160.741 184.917L160.741 184.917L160.748 184.924C161.298 185.426 161.948 185.869 162.693 186.255L162.693 186.255L162.697 186.258C163.43 186.628 164.294 187.001 165.289 187.375C166.245 187.734 166.852 188.106 167.179 188.462Z" fill="white" stroke="#FFBE1B"/>
<circle cx="136.432" cy="199.893" r="22.1107" fill="#FFE37B" stroke="#FFBE1B" stroke-width="5"/>
<path d="M138.525 202.907L138.525 202.907L138.532 202.915C138.907 203.306 139.118 203.854 139.118 204.619C139.118 205.331 138.895 205.851 138.477 206.237C138.056 206.615 137.458 206.832 136.622 206.832C135.613 206.832 134.906 206.537 134.424 206.006C133.944 205.455 133.668 204.628 133.668 203.452V202.952H133.168H128.609H128.109V203.452C128.109 205.702 128.726 207.561 130.005 208.976L130.005 208.976L130.008 208.979C131.21 210.288 132.852 211.074 134.891 211.369V214.051V214.551H135.391H137.899H138.399V214.051V211.355C140.235 211.095 141.734 210.418 142.858 209.294C144.08 208.073 144.677 206.488 144.677 204.588C144.677 203.581 144.522 202.678 144.198 201.891C143.878 201.104 143.416 200.407 142.813 199.804C142.217 199.197 141.493 198.665 140.649 198.204C139.814 197.738 138.758 197.251 137.486 196.742C136.248 196.243 135.476 195.781 135.09 195.378C134.734 195.005 134.535 194.496 134.535 193.799C134.535 193.03 134.744 192.497 135.102 192.13L135.102 192.13L135.106 192.126C135.462 191.755 135.984 191.539 136.748 191.539C137.483 191.539 138.03 191.797 138.443 192.302L138.443 192.302L138.448 192.309C138.865 192.801 139.118 193.603 139.118 194.809V195.309H139.618H144.177H144.677V194.809C144.677 192.671 144.127 190.885 142.987 189.493C141.93 188.193 140.5 187.384 138.73 187.05V184.052V183.552H138.23H135.707H135.207V184.052V186.985C133.434 187.24 131.963 187.925 130.827 189.061C129.587 190.301 128.977 191.89 128.977 193.784C128.977 194.865 129.148 195.825 129.508 196.649L129.508 196.649L129.51 196.655C129.873 197.46 130.373 198.166 131.01 198.768L131.01 198.768L131.017 198.774C131.653 199.355 132.405 199.867 133.269 200.316L133.268 200.316L133.273 200.318C134.124 200.749 135.13 201.182 136.288 201.617C137.408 202.039 138.131 202.478 138.525 202.907Z" fill="white" stroke="#FFBE1B"/>
<circle cx="181.259" cy="225.382" r="18.5949" fill="#FFE37B" stroke="#FFBE1B" stroke-width="5"/>
<path d="M183 228.014L183 228.014L183.007 228.022C183.313 228.341 183.49 228.792 183.49 229.434C183.49 230.026 183.304 230.452 182.964 230.768C182.619 231.077 182.125 231.259 181.421 231.259C180.572 231.259 179.988 231.011 179.591 230.575C179.195 230.12 178.961 229.43 178.961 228.433V227.933H178.461H174.554H174.054V228.433C174.054 230.375 174.586 231.987 175.697 233.216L175.697 233.216L175.7 233.219C176.731 234.342 178.134 235.019 179.867 235.281V237.518V238.018H180.367H182.516H183.016V237.518V235.269C184.574 235.038 185.853 234.455 186.817 233.491C187.879 232.429 188.397 231.052 188.397 229.407C188.397 228.537 188.263 227.753 187.981 227.068C187.704 226.385 187.302 225.78 186.779 225.256C186.262 224.73 185.636 224.27 184.907 223.872C184.189 223.471 183.281 223.053 182.189 222.616C181.129 222.188 180.479 221.797 180.16 221.463C179.87 221.159 179.704 220.742 179.704 220.16C179.704 219.514 179.879 219.076 180.17 218.779L180.17 218.779L180.174 218.775C180.462 218.474 180.889 218.294 181.529 218.294C182.14 218.294 182.588 218.506 182.927 218.921L182.927 218.921L182.932 218.928C183.274 219.331 183.49 219.999 183.49 221.025V221.525H183.99H187.897H188.397V221.025C188.397 219.18 187.922 217.631 186.932 216.423C186.026 215.309 184.804 214.611 183.3 214.316V211.805V211.305H182.8H180.637H180.137V211.805V214.257C178.632 214.484 177.377 215.074 176.404 216.048C175.326 217.125 174.797 218.506 174.797 220.146C174.797 221.081 174.945 221.913 175.258 222.631L175.258 222.631L175.26 222.636C175.575 223.335 176.01 223.947 176.562 224.47L176.562 224.47L176.569 224.477C177.119 224.979 177.769 225.422 178.514 225.808L178.514 225.808L178.519 225.81C179.251 226.181 180.116 226.553 181.11 226.927C182.066 227.287 182.673 227.659 183 228.014Z" fill="white" stroke="#FFBE1B"/>
<rect x="92.8119" y="159.982" width="146.376" height="17.1089" fill="#4F4B6C"/>
<rect opacity="0.2" x="89.0099" y="62.0812" width="158.733" height="97.901" rx="6" fill="black"/>
<rect opacity="0.3" x="99.4653" y="71.5862" width="92.198" height="64.6337" rx="7" fill="#38A1DC"/>
<rect opacity="0.5" x="101.957" y="74.4376" width="87.2143" height="58.9307" rx="4" fill="#38A1DC"/>
<circle cx="146.04" cy="103.903" r="14.2574" fill="#1DBA44"/>
<path d="M140.337 105.077L143.987 108.655L151.743 101.052" stroke="white" stroke-width="2" stroke-linecap="round" stroke-linejoin="round"/>
<rect x="95.6634" y="147.626" width="96.3002" height="5.70297" rx="2.85149" fill="#ACA9BC"/>
<rect x="198.317" y="147.626" width="43.7228" height="5.70297" rx="2.85149" fill="#ACA9BC"/>
<rect opacity="0.2" x="199.267" y="81.0911" width="38.0198" height="9.50495" rx="3" fill="#ACA9BC"/>
<rect opacity="0.2" x="199.267" y="98.2001" width="38.0198" height="9.50495" rx="3" fill="#ACA9BC"/>
<rect opacity="0.2" x="199.267" y="115.309" width="38.0198" height="9.50495" rx="3" fill="#ACA9BC"/>
</svg>
