<svg viewBox="0 0 330 279" fill="none" xmlns="http://www.w3.org/2000/svg">
<path opacity="0.06" fill-rule="evenodd" clip-rule="evenodd" d="M182.734 12.0891C205.57 15.2909 229.681 13.6978 249.012 26.2467C268.295 38.7644 276.213 61.5957 288.698 80.8777C303.552 103.819 335.185 123.532 329.273 150.202C323.231 177.458 280.622 176.896 262.668 198.302C244.193 220.33 253.068 266.279 225.368 274.088C197.549 281.93 181.178 236.855 153.327 229.126C124.776 221.204 89.0083 248.845 66.2283 229.928C44.4304 211.826 58.5417 175.582 55.0307 147.499C51.6016 120.071 36.9151 92.9458 45.8307 66.7762C55.0159 39.8152 76.8098 16.3984 103.3 5.81672C128.468 -4.2371 155.888 8.32506 182.734 12.0891Z" fill="#6857E5"/>
<path opacity="0.06" fill-rule="evenodd" clip-rule="evenodd" d="M46.5719 145.632C46.0569 138.148 44.3879 127.342 38.3918 122.251C32.1071 116.915 24.8083 111.226 16.2996 112.087C5.56137 113.174 6.74481e-07 123.439 5.50921e-07 133.801C4.27362e-07 144.162 5.66609 145.303 10.6082 154.128C15.2263 162.375 6.97504 175.03 16.2996 178.594C26.3371 182.43 38.9695 177.997 45.978 170.365C52.0696 163.732 47.1677 154.291 46.5719 145.632Z" fill="#6857E5"/>
<path opacity="0.5" fill-rule="evenodd" clip-rule="evenodd" d="M15.3117 46.3861C14.4089 46.3861 13.6771 47.118 13.6771 48.0208C13.6771 48.9235 14.4089 49.6554 15.3117 49.6554L23.3862 49.6554L23.3862 57.7299C23.3862 58.6326 24.118 59.3645 25.0208 59.3645C25.9236 59.3645 26.6554 58.6326 26.6554 57.7299L26.6554 49.6554H34.7299C35.6327 49.6554 36.3646 48.9235 36.3646 48.0208C36.3646 47.118 35.6327 46.3861 34.7299 46.3861H26.6554L26.6554 38.3116C26.6554 37.4089 25.9236 36.677 25.0208 36.677C24.118 36.677 23.3862 37.4089 23.3862 38.3116L23.3862 46.3861L15.3117 46.3861Z" fill="#DC3545"/>
<path opacity="0.3" fill-rule="evenodd" clip-rule="evenodd" d="M39 123.6C42.0928 123.6 44.6 121.093 44.6 118C44.6 114.907 42.0928 112.4 39 112.4C35.9072 112.4 33.4 114.907 33.4 118C33.4 121.093 35.9072 123.6 39 123.6ZM39 126C43.4183 126 47 122.418 47 118C47 113.582 43.4183 110 39 110C34.5817 110 31 113.582 31 118C31 122.418 34.5817 126 39 126Z" fill="#38A1DC"/>
<path opacity="0.3" fill-rule="evenodd" clip-rule="evenodd" d="M299 60C302.866 60 306 56.866 306 53C306 49.134 302.866 46 299 46C295.134 46 292 49.134 292 53C292 56.866 295.134 60 299 60ZM299 63C304.523 63 309 58.5228 309 53C309 47.4772 304.523 43 299 43C293.477 43 289 47.4772 289 53C289 58.5228 293.477 63 299 63Z" fill="#4F4B6C"/>
<path opacity="0.4" fill-rule="evenodd" clip-rule="evenodd" d="M74.2191 252.72C74.2191 251.658 75.08 250.797 76.1421 250.797C77.2042 250.797 78.0652 251.658 78.0652 252.72L78.0652 262.219H87.5646C88.6267 262.219 89.4877 263.08 89.4877 264.142C89.4877 265.204 88.6267 266.065 87.5646 266.065L78.0652 266.065L78.0652 275.565C78.0652 276.627 77.2042 277.488 76.1421 277.488C75.08 277.488 74.2191 276.627 74.2191 275.565L74.2191 266.065L64.7196 266.065C63.6576 266.065 62.7966 265.204 62.7966 264.142C62.7966 263.08 63.6576 262.219 64.7196 262.219L74.2191 262.219L74.2191 252.72Z" fill="#1DBA44"/>
<path opacity="0.3" fill-rule="evenodd" clip-rule="evenodd" d="M297.553 164.904C297.553 164.16 298.156 163.558 298.899 163.558C299.643 163.558 300.246 164.16 300.246 164.904L300.246 171.553H306.895C307.639 171.553 308.241 172.156 308.241 172.899C308.241 173.643 307.639 174.246 306.895 174.246H300.246L300.246 180.895C300.246 181.639 299.643 182.241 298.899 182.241C298.156 182.241 297.553 181.639 297.553 180.895L297.553 174.246L290.904 174.246C290.16 174.246 289.558 173.643 289.558 172.899C289.558 172.156 290.16 171.553 290.904 171.553L297.553 171.553L297.553 164.904Z" fill="#303392"/>
<path opacity="0.3" fill-rule="evenodd" clip-rule="evenodd" d="M148.775 2.17572C148.775 1.32606 149.464 0.637263 150.314 0.637264C151.163 0.637264 151.852 1.32606 151.852 2.17573L151.852 9.77526H159.452C160.301 9.77526 160.99 10.4641 160.99 11.3137C160.99 12.1634 160.301 12.8522 159.452 12.8522H151.852L151.852 20.4517C151.852 21.3014 151.163 21.9902 150.314 21.9902C149.464 21.9902 148.775 21.3014 148.775 20.4517L148.775 12.8522L141.176 12.8522C140.326 12.8522 139.637 12.1634 139.637 11.3137C139.637 10.4641 140.326 9.77526 141.176 9.77526L148.775 9.77526L148.775 2.17572Z" fill="#FFC107"/>
<path d="M59.3001 113.331L165.337 126.378L159.538 173.505L53.5014 160.458L59.3001 113.331Z" fill="#6857E5"/>
<path fill-rule="evenodd" clip-rule="evenodd" d="M160.814 129.808L62.8564 117.755L58.0242 157.028L155.982 169.081L160.814 129.808ZM59.3001 113.331L53.5014 160.458L159.538 173.505L165.337 126.378L59.3001 113.331Z" fill="#303392"/>
<ellipse cx="109.924" cy="143.479" rx="17.2973" ry="16.8169" transform="rotate(7.01453 109.924 143.479)" fill="#303392"/>
<ellipse cx="137.817" cy="146.647" rx="4.92114" ry="4.78444" transform="rotate(7.01453 137.817 146.647)" fill="#303392"/>
<ellipse cx="81.6479" cy="139.736" rx="4.92114" ry="4.78444" transform="rotate(7.01453 81.6479 139.736)" fill="#303392"/>
<path d="M48.797 138.708L155.228 129.407L159.362 176.709L52.9312 186.011L48.797 138.708Z" fill="#6857E5"/>
<path fill-rule="evenodd" clip-rule="evenodd" d="M151.518 133.703L53.1961 142.296L56.6412 181.715L154.963 173.122L151.518 133.703ZM48.797 138.708L52.9312 186.011L159.362 176.709L155.228 129.407L48.797 138.708Z" fill="#303392"/>
<ellipse cx="104.586" cy="157.664" rx="17.2973" ry="16.8169" transform="rotate(-4.9948 104.586 157.664)" fill="#303392"/>
<ellipse cx="132.528" cy="154.959" rx="4.92114" ry="4.78444" transform="rotate(-4.9948 132.528 154.959)" fill="#303392"/>
<ellipse cx="76.15" cy="159.886" rx="4.92114" ry="4.78444" transform="rotate(-4.9948 76.15 159.886)" fill="#303392"/>
<path d="M47 159.237L151.691 137.934L161.159 184.463L56.4681 205.767L47 159.237Z" fill="#6857E5"/>
<path fill-rule="evenodd" clip-rule="evenodd" d="M148.492 142.623L51.7772 162.303L59.6673 201.078L156.382 181.398L148.492 142.623ZM47 159.237L56.4681 205.767L161.159 184.463L151.691 137.934L47 159.237Z" fill="#303392"/>
<ellipse cx="104.578" cy="171.749" rx="17.2973" ry="16.8169" transform="rotate(-11.5019 104.578 171.749)" fill="#303392"/>
<ellipse cx="132.033" cy="165.894" rx="4.92114" ry="4.78444" transform="rotate(-11.5019 132.033 165.894)" fill="#303392"/>
<ellipse cx="76.5767" cy="177.179" rx="4.92114" ry="4.78444" transform="rotate(-11.5019 76.5767 177.179)" fill="#303392"/>
<ellipse cx="171.584" cy="143.025" rx="52.2866" ry="52.9321" fill="#4F4B6C"/>
<circle opacity="0.5" cx="172.23" cy="143.025" r="38.7308" fill="#ACA9BC"/>
<path fill-rule="evenodd" clip-rule="evenodd" d="M166.782 129.517C168.802 128.983 170.946 128.5 172.23 128.5C173.512 128.5 175.657 128.983 177.677 129.517C179.479 130.001 181.268 130.527 183.045 131.095C184.068 131.421 184.838 132.302 184.988 133.388C186.097 141.516 183.523 147.539 180.404 151.524C179.074 153.234 177.496 154.736 175.721 155.978C175.104 156.41 174.452 156.79 173.771 157.113C173.248 157.353 172.69 157.549 172.23 157.549C171.769 157.549 171.211 157.353 170.688 157.113C170.007 156.79 169.355 156.411 168.738 155.978C166.964 154.736 165.386 153.234 164.057 151.524C160.934 147.539 158.362 141.516 159.472 133.388C159.546 132.862 159.768 132.367 160.111 131.961C160.455 131.555 160.907 131.255 161.414 131.095C163.191 130.527 164.981 130.001 166.782 129.517ZM173.227 142.848C173.865 142.615 174.402 142.164 174.742 141.576C175.083 140.988 175.207 140.298 175.092 139.628C174.976 138.958 174.63 138.35 174.112 137.909C173.595 137.468 172.939 137.223 172.259 137.216C171.579 137.209 170.918 137.44 170.392 137.87C169.865 138.3 169.506 138.902 169.377 139.569C169.248 140.237 169.357 140.928 169.685 141.524C170.014 142.119 170.541 142.58 171.174 142.827C171.133 142.91 171.105 142.999 171.089 143.09L170.444 146.963C170.421 147.102 170.428 147.244 170.466 147.38C170.503 147.515 170.57 147.641 170.66 147.748C170.751 147.855 170.864 147.942 170.992 148.001C171.119 148.06 171.258 148.09 171.399 148.091H173.016C173.157 148.091 173.296 148.06 173.424 148C173.552 147.941 173.666 147.854 173.757 147.746C173.848 147.638 173.914 147.512 173.951 147.376C173.988 147.239 173.995 147.097 173.971 146.958L173.299 143.085C173.285 143.003 173.261 142.924 173.227 142.848Z" fill="#4F4B6C"/>
<path d="M182.171 176.592C182.171 179.04 180.035 181.703 175.541 183.842C171.16 185.929 165.001 187.261 158.117 187.261C151.234 187.261 145.075 185.929 140.693 183.842C136.2 181.703 134.064 179.04 134.064 176.592C134.064 174.145 136.2 171.482 140.693 169.342C145.075 167.256 151.234 165.924 158.117 165.924C165.001 165.924 171.16 167.256 175.541 169.342C180.035 171.482 182.171 174.145 182.171 176.592Z" fill="#FFE37B" stroke="#FFBE1B" stroke-width="3"/>
<path d="M145.666 194.15C145.666 196.597 143.53 199.26 139.037 201.399C134.655 203.486 128.496 204.818 121.612 204.818C114.729 204.818 108.57 203.486 104.188 201.399C99.6948 199.26 97.559 196.597 97.559 194.15C97.559 191.702 99.6948 189.039 104.188 186.9C108.57 184.813 114.729 183.481 121.612 183.481C128.496 183.481 134.655 184.813 139.037 186.9C143.53 189.039 145.666 191.702 145.666 194.15Z" fill="#FFE37B" stroke="#FFBE1B" stroke-width="3"/>
<path d="M145.666 186.24C145.666 188.687 143.53 191.35 139.037 193.49C134.655 195.576 128.496 196.908 121.612 196.908C114.729 196.908 108.57 195.576 104.188 193.49C99.6948 191.35 97.559 188.687 97.559 186.24C97.559 183.793 99.6948 181.13 104.188 178.99C108.57 176.903 114.729 175.572 121.612 175.572C128.496 175.572 134.655 176.903 139.037 178.99C143.53 181.13 145.666 183.793 145.666 186.24Z" fill="#FFE37B" stroke="#FFBE1B" stroke-width="3"/>
<path d="M145.666 178.331C145.666 180.778 143.53 183.441 139.037 185.581C134.655 187.667 128.496 188.999 121.612 188.999C114.729 188.999 108.57 187.667 104.188 185.581C99.6948 183.441 97.559 180.778 97.559 178.331C97.559 175.883 99.6948 173.22 104.188 171.081C108.57 168.994 114.729 167.662 121.612 167.662C128.496 167.662 134.655 168.994 139.037 171.081C143.53 173.22 145.666 175.883 145.666 178.331Z" fill="#FFE37B" stroke="#FFBE1B" stroke-width="3"/>
<path d="M200.423 199.104C200.423 201.551 198.287 204.214 193.794 206.354C189.412 208.441 183.254 209.772 176.37 209.772C169.486 209.772 163.327 208.441 158.946 206.354C154.452 204.214 152.316 201.551 152.316 199.104C152.316 196.657 154.452 193.994 158.946 191.854C163.327 189.768 169.486 188.436 176.37 188.436C183.254 188.436 189.412 189.768 193.794 191.854C198.287 193.994 200.423 196.657 200.423 199.104Z" fill="#FFE37B" stroke="#FFBE1B" stroke-width="3"/>
<path d="M200.423 191.194C200.423 193.641 198.287 196.304 193.794 198.444C189.412 200.531 183.254 201.862 176.37 201.862C169.486 201.862 163.327 200.531 158.946 198.444C154.452 196.304 152.316 193.641 152.316 191.194C152.316 188.747 154.452 186.084 158.946 183.944C163.327 181.858 169.486 180.526 176.37 180.526C183.254 180.526 189.412 181.858 193.794 183.944C198.287 186.084 200.423 188.747 200.423 191.194Z" fill="#FFE37B" stroke="#FFBE1B" stroke-width="3"/>
<path d="M146.815 160.819C143.373 174.621 129.393 183.021 115.588 179.579C101.788 176.138 93.3878 162.158 96.8308 148.357C100.271 134.554 114.251 126.153 128.052 129.594C141.856 133.035 150.256 147.017 146.815 160.819Z" fill="#FFBE1B"/>
<path d="M143.136 159.902C140.201 171.672 128.278 178.836 116.505 175.901C104.737 172.966 97.5732 161.044 100.509 149.274C103.443 137.503 115.366 130.339 127.135 133.273C138.907 136.208 146.071 148.131 143.136 159.902Z" fill="#FFE37B"/>
<path d="M130.75 151.622C131.163 148.852 129.059 147.362 126.182 146.369L127.115 142.616L124.837 142.047L123.928 145.701C123.329 145.551 122.714 145.41 122.102 145.27L123.017 141.592L120.74 141.023L119.806 144.774C119.31 144.661 118.823 144.549 118.351 144.431L118.353 144.42L115.211 143.633L114.605 146.073C114.605 146.073 116.295 146.461 116.26 146.485C117.183 146.716 117.349 147.329 117.321 147.814L116.258 152.089C116.322 152.105 116.404 152.129 116.495 152.165C116.419 152.146 116.338 152.126 116.254 152.105L114.764 158.095C114.651 158.376 114.365 158.797 113.72 158.637C113.743 158.67 112.064 158.223 112.064 158.223L110.932 160.838L113.898 161.579C114.449 161.717 114.99 161.862 115.522 161.999L114.579 165.795L116.855 166.364L117.789 162.609C118.411 162.778 119.015 162.934 119.605 163.081L118.675 166.819L120.953 167.388L121.897 163.599C125.782 164.337 128.704 164.039 129.934 160.516C130.925 157.679 129.885 156.043 127.84 154.976C129.329 154.632 130.451 153.65 130.75 151.622ZM125.543 158.941C124.839 161.778 120.075 160.244 118.53 159.86L119.781 154.831C121.326 155.217 126.279 155.983 125.543 158.941ZM126.248 151.581C125.606 154.161 121.64 152.85 120.354 152.529L121.488 147.968C122.775 148.29 126.917 148.889 126.248 151.581Z" fill="white"/>
<path d="M159.622 60.4226L278.106 41L286.738 93.6596L168.254 113.082L159.622 60.4226Z" fill="#98D55D"/>
<path fill-rule="evenodd" clip-rule="evenodd" d="M274.311 46.1282L164.855 64.071L172.048 107.954L281.505 90.0112L274.311 46.1282ZM159.622 60.4226L168.254 113.082L286.738 93.6596L278.106 41L159.622 60.4226Z" fill="#70A63B"/>
<ellipse cx="223.744" cy="76.9478" rx="19.4392" ry="18.8992" transform="rotate(-9.30946 223.744 76.9478)" fill="#70A63B"/>
<ellipse cx="254.828" cy="71.553" rx="5.53049" ry="5.37687" transform="rotate(-9.30946 254.828 71.553)" fill="#70A63B"/>
<ellipse cx="192.065" cy="81.8418" rx="5.53049" ry="5.37687" transform="rotate(-9.30946 192.065 81.8418)" fill="#70A63B"/>
<path d="M227.092 79.8869C226.991 79.2658 226.696 78.789 226.207 78.4564C225.718 78.1165 224.954 77.8665 223.916 77.7066C222.877 77.5393 222.061 77.3618 221.468 77.1739C219.497 76.5593 218.364 75.357 218.07 73.567C217.872 72.3542 218.103 71.2921 218.765 70.3809C219.426 69.4697 220.422 68.8301 221.751 68.4622L221.359 66.0731L223.236 65.7655L223.631 68.1765C225.022 68.1361 226.162 68.5043 227.052 69.2812C227.941 70.0508 228.503 71.1516 228.738 72.5836L225.899 73.0489C225.748 72.1283 225.407 71.4415 224.875 70.9886C224.35 70.527 223.708 70.3584 222.949 70.4827C222.198 70.6058 221.643 70.8919 221.283 71.341C220.923 71.7902 220.801 72.3691 220.917 73.0778C221.021 73.7134 221.313 74.1909 221.79 74.5102C222.275 74.8209 223.046 75.0659 224.103 75.2452C225.16 75.4245 225.998 75.6135 226.617 75.8121C227.236 76.0108 227.772 76.2681 228.225 76.5839C228.677 76.8924 229.049 77.2741 229.34 77.729C229.632 78.1839 229.831 78.7401 229.939 79.3977C230.142 80.6324 229.899 81.7 229.212 82.6005C228.532 83.4997 227.48 84.1372 226.056 84.5132L226.406 86.6503L224.541 86.956L224.193 84.8299C222.618 84.923 221.341 84.5997 220.36 83.8602C219.387 83.1193 218.783 82.0256 218.545 80.579L221.396 80.1117C221.547 81.0323 221.91 81.7042 222.485 82.1276C223.068 82.5497 223.813 82.6864 224.72 82.5377C225.612 82.3916 226.255 82.0797 226.651 81.6023C227.054 81.1235 227.201 80.5517 227.092 79.8869Z" fill="white"/>
<path d="M184.288 74.5698L304 83.7749L299.909 136.98L180.197 127.775L184.288 74.5698Z" fill="#98D55D"/>
<path fill-rule="evenodd" clip-rule="evenodd" d="M299.099 87.858L188.507 79.3543L185.098 123.692L295.689 132.196L299.099 87.858ZM184.288 74.5698L180.197 127.775L299.909 136.98L304 83.7749L184.288 74.5698Z" fill="#70A63B"/>
<ellipse cx="242.668" cy="105.819" rx="19.4392" ry="18.8992" transform="rotate(4.397 242.668 105.819)" fill="#70A63B"/>
<ellipse cx="274.145" cy="107.943" rx="5.53049" ry="5.37687" transform="rotate(4.397 274.145 107.943)" fill="#70A63B"/>
<ellipse cx="210.732" cy="103.067" rx="5.53049" ry="5.37687" transform="rotate(4.397 210.732 103.067)" fill="#70A63B"/>
<path d="M245.225 109.467C245.273 108.84 245.1 108.307 244.704 107.868C244.31 107.422 243.627 106.998 242.656 106.597C241.686 106.188 240.936 105.822 240.404 105.499C238.634 104.435 237.819 102.998 237.958 101.19C238.052 99.9643 238.528 98.9873 239.387 98.2588C240.246 97.5303 241.364 97.1448 242.743 97.1023L242.928 94.6884L244.824 94.8342L244.637 97.2702C245.998 97.5605 247.018 98.1885 247.699 99.1542C248.38 100.112 248.666 101.315 248.554 102.762L245.686 102.541C245.758 101.611 245.589 100.863 245.179 100.297C244.778 99.7241 244.194 99.4082 243.428 99.3492C242.67 99.2909 242.062 99.4373 241.606 99.7883C241.15 100.139 240.894 100.673 240.839 101.389C240.79 102.031 240.96 102.564 241.348 102.987C241.745 103.404 242.436 103.825 243.421 104.25C244.406 104.674 245.175 105.056 245.729 105.396C246.283 105.736 246.743 106.113 247.108 106.527C247.474 106.934 247.745 107.393 247.92 107.904C248.096 108.415 248.158 109.002 248.107 109.667C248.011 110.914 247.522 111.894 246.641 112.606C245.768 113.318 244.595 113.689 243.122 113.716L242.956 115.876L241.072 115.731L241.237 113.583C239.685 113.3 238.52 112.683 237.743 111.732C236.974 110.782 236.645 109.576 236.758 108.115L239.637 108.336C239.566 109.266 239.759 110.005 240.218 110.553C240.685 111.101 241.376 111.41 242.293 111.481C243.193 111.55 243.892 111.399 244.39 111.029C244.895 110.66 245.174 110.139 245.225 109.467Z" fill="white"/>
<path d="M173.475 67.8818L293.325 60.688L296.522 113.955L176.673 121.148L173.475 67.8818Z" fill="#98D55D"/>
<path fill-rule="evenodd" clip-rule="evenodd" d="M289.026 65.4009L178.307 72.0467L180.972 116.435L291.69 109.79L289.026 65.4009ZM173.475 67.8818L176.673 121.148L296.522 113.955L293.325 60.688L173.475 67.8818Z" fill="#70A63B"/>
<ellipse cx="235.569" cy="90.8841" rx="19.4392" ry="18.8992" transform="rotate(-3.43501 235.569 90.8841)" fill="#70A63B"/>
<ellipse cx="267.042" cy="88.6992" rx="5.53049" ry="5.37687" transform="rotate(-3.43501 267.042 88.6992)" fill="#70A63B"/>
<ellipse cx="203.556" cy="92.51" rx="5.53049" ry="5.37687" transform="rotate(-3.43501 203.556 92.51)" fill="#70A63B"/>
<path d="M238.6 94.1502C238.562 93.522 238.317 93.0175 237.866 92.6367C237.414 92.2485 236.68 91.9217 235.663 91.6563C234.647 91.3836 233.853 91.1234 233.283 90.8758C231.384 90.0627 230.381 88.7508 230.272 86.9401C230.198 85.7133 230.537 84.6806 231.289 83.8418C232.04 83.0031 233.096 82.4688 234.455 82.2388L234.31 79.8222L236.209 79.7082L236.355 82.1471C237.742 82.2492 238.839 82.7322 239.645 83.5961C240.451 84.4527 240.897 85.6052 240.984 87.0537L238.113 87.226C238.057 86.2948 237.787 85.5767 237.305 85.0717C236.829 84.5588 236.208 84.3254 235.441 84.3714C234.681 84.417 234.099 84.6448 233.695 85.0547C233.291 85.4646 233.111 86.028 233.154 86.7449C233.192 87.3879 233.433 87.8926 233.876 88.2591C234.326 88.6178 235.068 88.9404 236.101 89.227C237.135 89.5135 237.949 89.7873 238.544 90.0483C239.139 90.3092 239.646 90.62 240.065 90.9805C240.483 91.3337 240.813 91.7514 241.057 92.2338C241.3 92.7161 241.442 93.2898 241.482 93.955C241.557 95.204 241.206 96.2411 240.43 97.0665C239.662 97.8914 238.55 98.4179 237.095 98.6462L237.225 100.808L235.338 100.921L235.209 98.7705C233.633 98.7019 232.396 98.2496 231.496 97.4136C230.604 96.5771 230.115 95.4272 230.027 93.9639L232.91 93.7908C232.966 94.722 233.258 95.4276 233.787 95.9076C234.324 96.3872 235.051 96.5994 235.969 96.5443C236.871 96.4902 237.543 96.2459 237.985 95.8114C238.435 95.3765 238.64 94.8227 238.6 94.1502Z" fill="white"/>
<g opacity="0.5">
<path fill-rule="evenodd" clip-rule="evenodd" d="M127.861 54.8323C126.751 53.7226 124.952 53.7226 123.842 54.8323C122.732 55.942 122.732 57.7412 123.842 58.8509L128.684 63.6922C109.661 66.2722 95 82.5774 95 102.307C95 104.1 96.454 105.554 98.2475 105.554C100.041 105.554 101.495 104.1 101.495 102.307C101.495 86.5063 112.779 73.3412 127.729 70.4309L123.842 74.3174C122.732 75.4271 122.732 77.2263 123.842 78.336C124.952 79.4457 126.751 79.4457 127.861 78.336L137.603 68.5935C138.713 67.4838 138.713 65.6846 137.603 64.5749L127.861 54.8323Z" fill="#ACA9BC"/>
</g>
<g opacity="0.5">
<path fill-rule="evenodd" clip-rule="evenodd" d="M227.575 208.722C228.685 209.832 230.484 209.832 231.593 208.722C232.703 207.612 232.703 205.813 231.593 204.704L226.752 199.862C245.774 197.282 260.436 180.977 260.436 161.248C260.436 159.454 258.982 158 257.188 158C255.395 158 253.941 159.454 253.941 161.248C253.941 177.048 242.656 190.213 227.707 193.124L231.593 189.237C232.703 188.127 232.703 186.328 231.593 185.218C230.484 184.109 228.685 184.109 227.575 185.218L217.832 194.961C216.723 196.071 216.723 197.87 217.832 198.98L227.575 208.722Z" fill="#ACA9BC"/>
</g>
</svg>
