<svg viewBox="0 0 330 326" fill="none" xmlns="http://www.w3.org/2000/svg">
<path opacity="0.06" fill-rule="evenodd" clip-rule="evenodd" d="M156.354 53.4351C193.796 48.8088 236.993 12.9857 265.61 37.5065C295.046 62.7289 264.796 112.324 269.863 150.696C273.586 178.893 300.089 204.15 291.18 231.167C282.275 258.173 250.042 267.778 226.143 283.274C203.724 297.81 182.612 313.545 156.354 318.586C125.29 324.55 89.027 333.553 63.8683 314.428C38.735 295.323 45.9954 256.364 35.4271 226.663C24.4222 195.734 -5.08124 169.355 0.756943 137.058C6.74847 103.912 35.413 78.2532 65.1423 62.2757C92.7078 47.461 125.278 57.2748 156.354 53.4351Z" fill="#6857E5"/>
<path opacity="0.06" fill-rule="evenodd" clip-rule="evenodd" d="M306.247 111.229C315.111 112.527 313.5 127 317.5 138C321.5 149 330.674 153.268 329.5 162.5C328.215 172.6 325.996 179.666 318.911 184.438C311.641 189.335 302.808 186.558 295.543 181.595C288.742 176.949 284.665 168.625 282.143 159.323C279.13 148.206 275.483 135.762 280.438 125.875C285.775 115.228 296.393 109.786 306.247 111.229Z" fill="#6857E5"/>
<path opacity="0.5" fill-rule="evenodd" clip-rule="evenodd" d="M89.3117 294.386C88.4089 294.386 87.6771 295.118 87.6771 296.021C87.6771 296.923 88.4089 297.655 89.3117 297.655L97.3862 297.655L97.3862 305.73C97.3862 306.632 98.118 307.364 99.0208 307.364C99.9236 307.364 100.655 306.632 100.655 305.73L100.655 297.655H108.73C109.633 297.655 110.365 296.923 110.365 296.021C110.365 295.118 109.633 294.386 108.73 294.386H100.655L100.655 286.311C100.655 285.409 99.9236 284.677 99.0208 284.677C98.118 284.677 97.3862 285.409 97.3862 286.311L97.3862 294.386L89.3117 294.386Z" fill="#DC3545"/>
<path opacity="0.3" fill-rule="evenodd" clip-rule="evenodd" d="M221 233.6C224.093 233.6 226.6 231.093 226.6 228C226.6 224.907 224.093 222.4 221 222.4C217.907 222.4 215.4 224.907 215.4 228C215.4 231.093 217.907 233.6 221 233.6ZM221 236C225.418 236 229 232.418 229 228C229 223.582 225.418 220 221 220C216.582 220 213 223.582 213 228C213 232.418 216.582 236 221 236Z" fill="#38A1DC"/>
<path opacity="0.3" fill-rule="evenodd" clip-rule="evenodd" d="M55 131C58.866 131 62 127.866 62 124C62 120.134 58.866 117 55 117C51.134 117 48 120.134 48 124C48 127.866 51.134 131 55 131ZM55 134C60.5228 134 65 129.523 65 124C65 118.477 60.5228 114 55 114C49.4772 114 45 118.477 45 124C45 129.523 49.4772 134 55 134Z" fill="#4F4B6C"/>
<path opacity="0.4" fill-rule="evenodd" clip-rule="evenodd" d="M262.219 137.72C262.219 136.658 263.08 135.797 264.142 135.797C265.204 135.797 266.065 136.658 266.065 137.72L266.065 147.22H275.565C276.627 147.22 277.488 148.08 277.488 149.143C277.488 150.205 276.627 151.066 275.565 151.066L266.065 151.066L266.065 160.565C266.065 161.627 265.204 162.488 264.142 162.488C263.08 162.488 262.219 161.627 262.219 160.565L262.219 151.066L252.72 151.066C251.658 151.066 250.797 150.205 250.797 149.143C250.797 148.08 251.658 147.22 252.72 147.22L262.219 147.22L262.219 137.72Z" fill="#1DBA44"/>
<path opacity="0.3" fill-rule="evenodd" clip-rule="evenodd" d="M9.77525 219.175C9.77525 218.326 10.464 217.637 11.3137 217.637C12.1634 217.637 12.8522 218.326 12.8522 219.175L12.8522 226.775H20.4517C21.3014 226.775 21.9902 227.464 21.9902 228.313C21.9902 229.163 21.3014 229.852 20.4517 229.852H12.8522L12.8522 237.451C12.8522 238.301 12.1634 238.99 11.3137 238.99C10.464 238.99 9.77525 238.301 9.77525 237.451L9.77525 229.852L2.17571 229.852C1.32604 229.852 0.637252 229.163 0.637252 228.313C0.637252 227.464 1.32604 226.775 2.17571 226.775L9.77525 226.775L9.77525 219.175Z" fill="#FFC107"/>
<rect x="206.575" y="172.363" width="32.8566" height="10.1785" fill="#FFCDBF"/>
<path d="M162.766 211.613C162.766 206.534 164.782 201.664 168.37 198.073C170.347 196.094 172.733 194.573 175.36 193.617L220.329 177.251C222.056 176.622 223.949 176.622 225.676 177.251L270.646 193.617C273.273 194.573 275.659 196.094 277.636 198.073C281.224 201.664 283.24 206.534 283.24 211.613V269.45C283.24 273.774 279.737 277.28 275.417 277.28H170.589C166.268 277.28 162.766 273.774 162.766 269.45L162.766 211.613Z" fill="#4F4B6C"/>
<path d="M233.955 198.201H212.051L215.962 209.163L208.139 258.489L223.003 270.234L237.867 258.489L230.044 209.163L233.955 198.201Z" fill="#6857E5"/>
<path d="M215.6 178.626L222.849 198.482L210.656 204.237C209.73 204.674 208.642 204.118 208.451 203.112L204.578 182.657L215.6 178.626Z" fill="#8985A4"/>
<path d="M229.856 178.626L222.607 198.482L234.8 204.237C235.725 204.674 236.814 204.118 237.004 203.112L240.878 182.657L229.856 178.626Z" fill="#8985A4"/>
<path opacity="0.25" d="M182.323 219.34C182.323 218.043 183.374 216.991 184.67 216.991C185.966 216.991 187.017 218.043 187.017 219.34V277.279H182.323V219.34Z" fill="#ACA9BC"/>
<path opacity="0.25" d="M258.989 219.34C258.989 218.043 260.039 216.991 261.336 216.991C262.632 216.991 263.682 218.043 263.682 219.34V277.279H258.989V219.34Z" fill="#ACA9BC"/>
<path d="M196.405 135.608C196.405 133.689 197.57 131.963 199.349 131.248L225.973 120.546C235.422 116.748 246 122.446 248.036 132.432V153.572C248.036 167.842 236.478 179.41 222.221 179.41C207.963 179.41 196.405 167.842 196.405 153.572V135.608Z" fill="#FFBEAB"/>
<path d="M205 141C205 141 206 138 209 138C212 138 213 141 213 141" stroke="#4F4B6C" stroke-width="2" stroke-linecap="round"/>
<path d="M209 155H229C229 159.418 225.418 163 221 163H217C212.582 163 209 159.418 209 155Z" fill="white"/>
<path d="M225 141C225 141 226 138 229 138C232 138 233 141 233 141" stroke="#4F4B6C" stroke-width="2" stroke-linecap="round"/>
<path d="M248.036 126.951V132.432C246 122.446 235.422 116.748 225.973 120.546L199.349 131.248C197.57 131.963 196.405 133.689 196.405 135.607V126.951C196.405 112.681 207.963 101.113 222.221 101.113C236.478 101.113 248.036 112.681 248.036 126.951Z" fill="#4F4B6C"/>
<path d="M248.036 151.222C251.061 151.222 253.513 148.768 253.513 145.741C253.513 142.715 251.061 140.261 248.036 140.261V151.222Z" fill="#FFCDBF"/>
<path d="M196.405 151.222C193.38 151.222 190.929 148.768 190.929 145.741C190.929 142.715 193.38 140.261 196.405 140.261V151.222Z" fill="#FFCDBF"/>
<rect x="80.8883" y="172.363" width="32.8566" height="10.1785" fill="#FFCDBF"/>
<path d="M37.0796 211.613C37.0796 206.534 39.0954 201.664 42.6835 198.073C44.6604 196.094 47.0465 194.573 49.6739 193.617L94.6432 177.251C96.3702 176.622 98.2631 176.622 99.9901 177.251L144.959 193.617C147.587 194.573 149.973 196.094 151.95 198.073C155.538 201.664 157.554 206.534 157.554 211.613V269.45C157.554 273.774 154.051 277.28 149.731 277.28H44.9026C40.5821 277.28 37.0796 273.774 37.0796 269.45L37.0796 211.613Z" fill="#4F4B6C"/>
<path d="M108.269 198.201H86.3644L90.2759 209.163L82.4529 258.489L97.3166 270.234L112.18 258.489L104.357 209.163L108.269 198.201Z" fill="#6857E5"/>
<path d="M89.9133 178.626L97.1623 198.482L84.9695 204.237C84.044 204.674 82.9555 204.118 82.7649 203.112L78.8915 182.657L89.9133 178.626Z" fill="#8985A4"/>
<path d="M104.17 178.626L96.9205 198.482L109.113 204.237C110.039 204.674 111.127 204.118 111.318 203.112L115.191 182.657L104.17 178.626Z" fill="#8985A4"/>
<path opacity="0.25" d="M56.6371 219.34C56.6371 218.043 57.6878 216.991 58.984 216.991C60.2801 216.991 61.3309 218.043 61.3309 219.34V277.279H56.6371V219.34Z" fill="#ACA9BC"/>
<path opacity="0.25" d="M133.302 219.34C133.302 218.043 134.353 216.991 135.649 216.991C136.945 216.991 137.996 218.043 137.996 219.34V277.279H133.302V219.34Z" fill="#ACA9BC"/>
<path d="M70.7184 135.608C70.7184 133.689 71.884 131.963 73.6628 131.248L100.287 120.546C109.736 116.748 120.314 122.446 122.35 132.432V153.572C122.35 167.842 110.792 179.41 96.5343 179.41C82.2766 179.41 70.7184 167.842 70.7184 153.572V135.608Z" fill="#FFBEAB"/>
<path d="M86 140C86 140 87 137 90 137C93 137 94 140 94 140" stroke="#4F4B6C" stroke-width="2" stroke-linecap="round"/>
<path d="M90 154H110C110 158.418 106.418 162 102 162H98C93.5817 162 90 158.418 90 154Z" fill="white"/>
<path d="M106 140C106 140 107 137 110 137C113 137 114 140 114 140" stroke="#4F4B6C" stroke-width="2" stroke-linecap="round"/>
<path d="M122.35 126.951V132.432C120.314 122.446 109.736 116.748 100.287 120.546L73.6628 131.248C71.884 131.963 70.7184 133.689 70.7184 135.607V126.951C70.7184 112.681 82.2766 101.113 96.5343 101.113C110.792 101.113 122.35 112.681 122.35 126.951Z" fill="#4F4B6C"/>
<path d="M122.35 151.222C125.375 151.222 127.826 148.768 127.826 145.741C127.826 142.715 125.375 140.261 122.35 140.261V151.222Z" fill="#FFCDBF"/>
<path d="M70.7184 151.222C67.694 151.222 65.2423 148.768 65.2423 145.741C65.2423 142.715 67.694 140.261 70.7184 140.261V151.222Z" fill="#FFCDBF"/>
<path fill-rule="evenodd" clip-rule="evenodd" d="M195.697 100.071C197.909 94.917 199.14 89.2015 199.14 83.1852C199.14 60.4025 181.489 41.9336 159.715 41.9336C137.942 41.9336 120.291 60.4025 120.291 83.1852C120.291 89.2015 121.522 94.917 123.734 100.071H195.697ZM165.162 124.046H154.269C156.049 124.304 157.867 124.437 159.715 124.437C161.563 124.437 163.382 124.304 165.162 124.046Z" fill="#FFE37B"/>
<path d="M126.186 104.688C125.81 104.022 126.292 103.197 127.057 103.197H192.374C193.139 103.197 193.621 104.022 193.245 104.688L185.56 118.324C185.382 118.639 185.049 118.833 184.689 118.833H134.742C134.381 118.833 134.048 118.639 133.871 118.324L126.186 104.688Z" fill="#FFBE1B"/>
<path d="M136.729 123.495C136.308 122.829 136.787 121.961 137.574 121.961H181.856C182.644 121.961 183.122 122.829 182.702 123.495L177.612 131.557C177.557 131.645 177.491 131.721 177.408 131.785C176.52 132.462 170.701 136.555 159.715 136.555C148.73 136.555 142.911 132.462 142.023 131.785C141.94 131.721 141.874 131.645 141.819 131.557L136.729 123.495Z" fill="#FFBE1B"/>
<rect width="17.9213" height="4.48361" rx="2.24181" transform="matrix(0.965871 -0.259023 0.258615 0.965981 203.346 63.6152)" fill="#FFBE1B"/>
<rect width="17.9253" height="4.48262" rx="2.24131" transform="matrix(0.818924 -0.573902 0.573251 0.81938 190.259 40.6533)" fill="#FFBE1B"/>
<rect width="17.9213" height="4.48361" rx="2.2418" transform="matrix(0.965871 0.259023 -0.258615 0.96598 98.7754 58.9717)" fill="#FFBE1B"/>
<rect width="17.9253" height="4.48262" rx="2.24131" transform="matrix(0.818924 0.573902 -0.573251 0.81938 114.942 31.2715)" fill="#FFBE1B"/>
<rect x="161.798" y="17.7207" width="17.7208" height="5.20763" rx="2.60381" transform="rotate(90 161.798 17.7207)" fill="#FFBE1B"/>
</svg>
