<svg viewBox="0 0 330 298" fill="none" xmlns="http://www.w3.org/2000/svg">
<path opacity="0.06" fill-rule="evenodd" clip-rule="evenodd" d="M156.354 25.4351C193.796 20.8088 236.993 -15.0143 265.61 9.50655C295.046 34.7289 264.796 84.3239 269.863 122.696C273.586 150.893 300.089 176.15 291.18 203.167C282.275 230.173 250.042 239.778 226.143 255.274C203.724 269.81 182.612 285.545 156.354 290.586C125.29 296.55 89.027 305.553 63.8683 286.428C38.735 267.323 45.9954 228.364 35.4271 198.663C24.4222 167.734 -5.08124 141.355 0.756943 109.058C6.74847 75.9124 35.413 50.2532 65.1423 34.2757C92.7078 19.461 125.278 29.2748 156.354 25.4351Z" fill="#6857E5"/>
<path opacity="0.06" fill-rule="evenodd" clip-rule="evenodd" d="M306.247 83.2288C315.111 84.5269 313.5 99 317.5 110C321.5 121 330.674 125.268 329.5 134.5C328.215 144.6 325.996 151.666 318.911 156.438C311.641 161.335 302.808 158.558 295.543 153.595C288.742 148.949 284.665 140.625 282.143 131.323C279.13 120.206 275.483 107.762 280.438 97.8747C285.775 87.2275 296.393 81.7857 306.247 83.2288Z" fill="#6857E5"/>
<path opacity="0.3" fill-rule="evenodd" clip-rule="evenodd" d="M121 285.6C124.093 285.6 126.6 283.093 126.6 280C126.6 276.907 124.093 274.4 121 274.4C117.907 274.4 115.4 276.907 115.4 280C115.4 283.093 117.907 285.6 121 285.6ZM121 288C125.418 288 129 284.418 129 280C129 275.582 125.418 272 121 272C116.582 272 113 275.582 113 280C113 284.418 116.582 288 121 288Z" fill="#38A1DC"/>
<path opacity="0.3" fill-rule="evenodd" clip-rule="evenodd" d="M31 64C34.866 64 38 60.866 38 57C38 53.134 34.866 50 31 50C27.134 50 24 53.134 24 57C24 60.866 27.134 64 31 64ZM31 67C36.5228 67 41 62.5228 41 57C41 51.4772 36.5228 47 31 47C25.4772 47 21 51.4772 21 57C21 62.5228 25.4772 67 31 67Z" fill="#4F4B6C"/>
<path opacity="0.3" fill-rule="evenodd" clip-rule="evenodd" d="M31.7752 235.175C31.7752 234.326 32.464 233.637 33.3137 233.637C34.1634 233.637 34.8522 234.326 34.8522 235.175L34.8522 242.775H42.4517C43.3014 242.775 43.9902 243.464 43.9902 244.313C43.9902 245.163 43.3014 245.852 42.4517 245.852H34.8522L34.8522 253.451C34.8522 254.301 34.1634 254.99 33.3137 254.99C32.464 254.99 31.7752 254.301 31.7752 253.451L31.7752 245.852L24.1757 245.852C23.326 245.852 22.6373 245.163 22.6373 244.313C22.6373 243.464 23.326 242.775 24.1757 242.775L31.7752 242.775L31.7752 235.175Z" fill="#FFC107"/>
<path opacity="0.5" fill-rule="evenodd" clip-rule="evenodd" d="M151.312 40.3859C150.409 40.3859 149.677 41.1177 149.677 42.0205C149.677 42.9233 150.409 43.6551 151.312 43.6551L159.386 43.6551L159.386 51.7296C159.386 52.6324 160.118 53.3642 161.021 53.3642C161.924 53.3642 162.655 52.6324 162.655 51.7296L162.655 43.6551H170.73C171.633 43.6551 172.365 42.9233 172.365 42.0205C172.365 41.1177 171.633 40.3859 170.73 40.3859H162.655L162.655 32.3114C162.655 31.4086 161.924 30.6768 161.021 30.6768C160.118 30.6768 159.386 31.4086 159.386 32.3114L159.386 40.3859L151.312 40.3859Z" fill="#DC3545"/>
<path d="M258.424 79.6094H56.6342C51.1114 79.6094 46.6342 84.0865 46.6342 89.6094V217.772C46.6342 223.295 51.1114 227.772 56.6342 227.772H115.061C117.538 227.772 119.926 228.691 121.764 230.351L151.306 257.035C155.143 260.501 160.99 260.47 164.79 256.963L193.552 230.423C195.4 228.718 197.821 227.772 200.334 227.772H258.424C263.947 227.772 268.424 223.295 268.424 217.772V89.6094C268.424 84.0865 263.947 79.6094 258.424 79.6094Z" fill="#4F4B6C"/>
<rect x="76.5759" y="111.675" width="166.342" height="13.2683" rx="6.63415" fill="#8985A4"/>
<rect x="76.5759" y="140.423" width="72.0817" height="13.2683" rx="6.63415" fill="#8985A4"/>
<rect x="76.5759" y="169.171" width="114.222" height="13.2683" rx="6.63415" fill="#8985A4"/>
<path d="M250.126 32.1768L284.7 52.0792L216.917 169.139C216.644 169.61 216.248 169.998 215.771 170.262L186.952 186.214C184.969 187.311 182.533 185.908 182.494 183.648L181.94 150.787C181.931 150.243 182.07 149.707 182.343 149.236L250.126 32.1768Z" fill="#6857E5"/>
<path d="M257.985 18.605C260.752 13.8256 266.876 12.1848 271.662 14.9401L288.903 24.8646C293.689 27.62 295.326 33.7281 292.558 38.5075L287.589 47.0896L253.015 27.1872L257.985 18.605Z" fill="#303392"/>
<path fill-rule="evenodd" clip-rule="evenodd" d="M280.283 19.9026L270.302 37.1386L287.589 47.0898L292.558 38.5077C295.326 33.7283 293.689 27.6202 288.903 24.8648L280.283 19.9026Z" fill="#6857E5"/>
<path fill-rule="evenodd" clip-rule="evenodd" d="M267.413 42.1278L250.126 32.1766L182.343 149.236C182.07 149.707 181.931 150.243 181.94 150.787L182.495 183.648C182.514 184.778 183.132 185.693 183.994 186.19L267.413 42.1278Z" fill="#303392"/>
<path d="M190.648 156.751C190.614 155.963 191.465 155.447 192.149 155.841L206.276 163.973C206.96 164.367 206.938 165.36 206.237 165.725L195.522 171.293C195.218 171.451 194.855 171.443 194.559 171.272L191.668 169.608C191.372 169.438 191.184 169.128 191.169 168.787L190.648 156.751Z" fill="white"/>
<path opacity="0.4" fill-rule="evenodd" clip-rule="evenodd" d="M283.219 170.72C283.219 169.658 284.08 168.797 285.142 168.797C286.204 168.797 287.065 169.658 287.065 170.72L287.065 180.22H296.565C297.627 180.22 298.488 181.08 298.488 182.143C298.488 183.205 297.627 184.066 296.565 184.066L287.065 184.066L287.065 193.565C287.065 194.627 286.204 195.488 285.142 195.488C284.08 195.488 283.219 194.627 283.219 193.565L283.219 184.066L273.72 184.066C272.658 184.066 271.797 183.205 271.797 182.143C271.797 181.08 272.658 180.22 273.72 180.22L283.219 180.22L283.219 170.72Z" fill="#1DBA44"/>
</svg>
