<svg viewBox="0 0 330 340" fill="none" xmlns="http://www.w3.org/2000/svg">
<path opacity="0.06" fill-rule="evenodd" clip-rule="evenodd" d="M181.69 30.1428C209.557 31.1711 229.299 55.8216 253.453 69.7673C279.094 84.5717 317.88 86.8033 328.022 114.632C338.318 142.881 305.302 168.912 300.4 198.578C295.656 227.283 318.992 262.047 300.018 284.094C281.059 306.124 243.176 287.902 215.613 297.1C186.428 306.84 166.157 341.202 135.47 339.005C104.497 336.788 74.5982 314.03 61.1173 286.04C48.076 258.962 71.6802 227.693 67.5225 197.925C63.3915 168.348 28.9477 144.191 37.3011 115.52C45.4905 87.4122 81.2521 79.2377 106.443 64.3425C130.65 50.0287 153.591 29.1059 181.69 30.1428Z" fill="#6857E5"/>
<path opacity="0.06" fill-rule="evenodd" clip-rule="evenodd" d="M28.6301 166.228C17.3411 167.581 14.8218 182.277 8.52798 191.794C3.37929 199.58 -1.14936 204.733 0.260841 213.974C1.74611 223.707 6.92733 230.646 15.2494 235.84C25.4817 242.226 37.0144 253.278 47.584 247.473C58.0953 241.7 53.4659 225.907 55.0642 213.974C56.3609 204.292 60.5266 194.664 55.8007 186.128C50.0675 175.772 40.3368 164.825 28.6301 166.228Z" fill="#6857E5"/>
<path opacity="0.5" fill-rule="evenodd" clip-rule="evenodd" d="M288.312 274.492C287.409 274.492 286.677 275.224 286.677 276.126C286.677 277.029 287.409 277.761 288.312 277.761L296.386 277.761L296.386 285.836C296.386 286.738 297.118 287.47 298.021 287.47C298.924 287.47 299.655 286.738 299.655 285.836L299.655 277.761H307.73C308.633 277.761 309.365 277.029 309.365 276.126C309.365 275.224 308.633 274.492 307.73 274.492H299.655L299.655 266.417C299.655 265.515 298.924 264.783 298.021 264.783C297.118 264.783 296.386 265.515 296.386 266.417L296.386 274.492L288.312 274.492Z" fill="#DC3545"/>
<path opacity="0.4" fill-rule="evenodd" clip-rule="evenodd" d="M284.219 100.825C284.219 99.7632 285.08 98.9022 286.142 98.9022C287.204 98.9022 288.065 99.7632 288.065 100.825L288.065 110.325H297.565C298.627 110.325 299.488 111.186 299.488 112.248C299.488 113.31 298.627 114.171 297.565 114.171L288.065 114.171L288.065 123.67C288.065 124.732 287.204 125.593 286.142 125.593C285.08 125.593 284.219 124.732 284.219 123.67L284.219 114.171L274.72 114.171C273.658 114.171 272.797 113.31 272.797 112.248C272.797 111.186 273.658 110.325 274.72 110.325L284.219 110.325L284.219 100.825Z" fill="#1DBA44"/>
<path opacity="0.3" fill-rule="evenodd" clip-rule="evenodd" d="M55.5534 271.009C55.5534 270.266 56.1561 269.663 56.8995 269.663C57.643 269.663 58.2457 270.266 58.2457 271.009L58.2457 277.659H64.8953C65.6388 277.659 66.2415 278.262 66.2415 279.005C66.2415 279.749 65.6388 280.351 64.8953 280.351H58.2457L58.2457 287.001C58.2457 287.744 57.643 288.347 56.8995 288.347C56.1561 288.347 55.5534 287.744 55.5534 287.001L55.5534 280.351L48.9038 280.351C48.1603 280.351 47.5576 279.749 47.5576 279.005C47.5576 278.262 48.1603 277.659 48.9038 277.659L55.5534 277.659L55.5534 271.009Z" fill="#303392"/>
<path opacity="0.3" fill-rule="evenodd" clip-rule="evenodd" d="M27.7752 84.2814C27.7752 83.4318 28.464 82.743 29.3137 82.743C30.1634 82.743 30.8522 83.4318 30.8522 84.2814L30.8522 91.881H38.4517C39.3014 91.881 39.9902 92.5698 39.9902 93.4194C39.9902 94.2691 39.3014 94.9579 38.4517 94.9579H30.8522L30.8522 102.557C30.8522 103.407 30.1634 104.096 29.3137 104.096C28.464 104.096 27.7752 103.407 27.7752 102.557L27.7752 94.9579L20.1757 94.9579C19.326 94.9579 18.6373 94.2691 18.6373 93.4194C18.6373 92.5698 19.326 91.881 20.1757 91.881L27.7752 91.881L27.7752 84.2814Z" fill="#FFC107"/>
<path d="M174.472 137.876C177.75 151.624 168.386 166.886 153.555 171.964C138.729 177.038 124.048 170.008 120.771 156.259C117.49 142.51 126.854 127.248 141.681 122.172C156.511 117.094 171.192 124.127 174.472 137.876Z" fill="#FFBE1B"/>
<path d="M169.214 139.676C171.851 150.733 164.32 163.007 152.393 167.09C140.47 171.171 128.664 165.517 126.028 154.46C123.389 143.403 130.919 131.129 142.843 127.047C154.77 122.963 166.576 128.619 169.214 139.676Z" fill="#FFE37B"/>
<path d="M154.438 139.651C153.558 137.174 150.968 137.129 147.899 137.914L147.048 134.352L144.716 135.15L145.545 138.618C144.932 138.828 144.308 139.053 143.688 139.278L142.854 135.787L140.523 136.584L141.373 140.145C140.871 140.327 140.377 140.506 139.894 140.671L139.891 140.66L136.674 141.76L137.228 144.075C137.228 144.075 138.943 143.455 138.921 143.495C139.866 143.172 140.295 143.576 140.49 143.986L141.46 148.043C141.525 148.021 141.611 147.995 141.71 147.974C141.632 148.001 141.549 148.029 141.464 148.059L142.822 153.743C142.846 154.033 142.777 154.534 142.117 154.761C142.153 154.775 140.422 155.34 140.422 155.34L140.577 158.088L143.612 157.05C144.177 156.857 144.735 156.676 145.281 156.492L146.143 160.094L148.473 159.298L147.621 155.734C148.264 155.527 148.884 155.32 149.488 155.113L150.335 158.661L152.667 157.863L151.808 154.267C155.679 152.717 158.204 150.86 157.726 147.321C157.343 144.47 155.654 143.718 153.31 143.982C154.509 142.88 155.085 141.463 154.438 139.651ZM153.016 148.47C153.661 151.161 148.629 152.551 147.049 153.093L145.909 148.32C147.49 147.78 152.345 145.662 153.016 148.47ZM150.322 142.107C150.907 144.557 146.703 145.685 145.387 146.136L144.352 141.807C145.669 141.357 149.711 139.553 150.322 142.107Z" fill="white"/>
<path d="M196.727 113.418C200.528 128.407 191.414 144.263 176.369 148.834C161.33 153.402 146.053 144.955 142.254 129.966C138.451 114.977 147.565 99.1194 162.606 94.5503C177.649 89.9794 192.926 98.4284 196.727 113.418V113.418Z" fill="#FFBE1B"/>
<path d="M191.393 115.054C194.448 127.109 187.117 139.859 175.018 143.532C162.923 147.202 150.638 140.406 147.585 128.351C144.528 116.295 151.858 103.545 163.954 99.8732C176.053 96.2004 188.338 102.998 191.393 115.054V115.054Z" fill="#FFE37B"/>
<path d="M176.242 114.134C175.262 111.416 172.605 111.211 169.484 111.87L168.497 107.987L166.132 108.704L167.092 112.485C166.47 112.674 165.837 112.879 165.209 113.083L164.243 109.277L161.879 109.994L162.863 113.876C162.354 114.042 161.853 114.204 161.363 114.353L161.36 114.341L158.096 115.33L158.738 117.854C158.738 117.854 160.477 117.291 160.456 117.332C161.414 117.042 161.867 117.503 162.079 117.955L163.203 122.379C163.269 122.359 163.356 122.336 163.457 122.32C163.378 122.344 163.294 122.369 163.207 122.396L164.78 128.593C164.815 128.908 164.76 129.442 164.09 129.646C164.127 129.664 162.371 130.167 162.371 130.167L162.617 133.132L165.696 132.199C166.269 132.026 166.835 131.864 167.389 131.7L168.388 135.627L170.751 134.911L169.764 131.025C170.416 130.842 171.046 130.657 171.659 130.47L172.64 134.339L175.005 133.621L174.011 129.7C177.93 128.266 180.46 126.421 179.858 122.584C179.374 119.494 177.619 118.583 175.223 118.726C176.418 117.612 176.963 116.122 176.242 114.134V114.134ZM175.065 123.536C175.812 126.471 170.697 127.662 169.094 128.15L167.773 122.946C169.377 122.46 174.288 120.475 175.065 123.536ZM172.101 116.528C172.778 119.198 168.504 120.159 167.168 120.564L165.97 115.844C167.306 115.439 171.393 113.743 172.101 116.528Z" fill="white"/>
<path d="M209.465 74.6719C220.962 85.7402 221.838 103.707 211.42 114.801C201.006 125.89 183.239 125.91 171.743 114.841C160.244 103.773 159.367 85.806 169.782 74.7151C180.199 63.6211 197.967 63.6031 209.465 74.6719V74.6719Z" fill="#FFBE1B"/>
<path d="M205.772 78.6055C215.018 87.5067 215.723 101.955 207.345 110.877C198.969 119.795 184.681 119.811 175.436 110.909C166.188 102.008 165.483 87.5591 173.859 78.6399C182.236 69.7182 196.525 69.7039 205.772 78.6055V78.6055Z" fill="#FFE37B"/>
<path d="M192.198 85.4109C189.908 83.5841 187.557 84.6517 185.28 86.6619L182.357 83.8585L180.749 85.5655L183.595 88.295C183.172 88.7438 182.749 89.2113 182.329 89.6761L179.465 86.9282L177.858 88.6341L180.779 91.4374C180.439 91.8144 180.104 92.1842 179.771 92.5383L179.761 92.5298L177.543 94.8832L179.443 96.7053C179.443 96.7053 180.606 95.4208 180.61 95.465C181.262 94.7738 181.892 94.9501 182.315 95.2309L185.645 98.4245C185.69 98.377 185.751 98.3168 185.827 98.256C185.773 98.3129 185.716 98.3734 185.657 98.4365L190.322 102.911C190.52 103.159 190.761 103.634 190.307 104.118C190.347 104.115 189.137 105.358 189.137 105.358L190.942 107.735L193.035 105.514C193.425 105.101 193.816 104.701 194.194 104.304L197.151 107.139L198.758 105.434L195.833 102.629C196.284 102.17 196.715 101.721 197.131 101.278L200.042 104.072L201.65 102.365L198.7 99.5338C201.232 96.4996 202.37 93.7684 199.797 90.825C197.725 88.4543 195.754 88.507 193.811 89.7449C194.219 88.2515 193.876 86.7451 192.198 85.4109V85.4109ZM196.269 93.8616C198.479 95.9795 194.808 99.3675 193.719 100.525L189.803 96.7682C190.894 95.6114 193.965 91.6514 196.269 93.8616ZM189.995 89.3552C192.004 91.2835 188.918 94.0851 188.01 95.0487L184.458 91.6414C185.366 90.6778 187.898 87.3447 189.995 89.3552Z" fill="white"/>
<path d="M171.664 110.03C161.264 121.105 143.524 121.123 132.041 110.069C120.563 99.0195 119.687 81.0808 130.088 70.0081C140.488 58.9313 158.228 58.9125 169.707 69.9631C181.189 81.0156 182.064 98.9554 171.664 110.03V110.03Z" fill="#FFBE1B"/>
<path d="M167.593 106.112C159.229 115.019 144.962 115.033 135.728 106.144C126.498 97.2578 125.793 82.8312 134.158 73.9263C142.521 65.0182 156.788 65.0029 166.019 73.8898C175.253 82.7782 175.957 97.2057 167.593 106.112V106.112Z" fill="#FFE37B"/>
<path d="M160.557 92.2024C162.292 89.9344 161.097 87.461 158.954 85.0168L161.645 82.1456L159.84 80.4053L157.22 83.2009C156.746 82.7434 156.252 82.2848 155.762 81.8294L158.4 79.0157L156.597 77.2761L153.906 80.1458C153.508 79.7767 153.118 79.4137 152.743 79.0531L152.751 79.044L150.264 76.6426L148.515 78.5096C148.515 78.5096 149.87 79.7702 149.826 79.7726C150.556 80.4778 150.409 81.1182 150.146 81.5396L147.08 84.8106C147.13 84.8595 147.194 84.925 147.259 85.0067C147.199 84.9488 147.135 84.8863 147.069 84.8231L142.773 89.4047C142.532 89.5965 142.064 89.8213 141.553 89.3296C141.557 89.3717 140.242 88.0641 140.242 88.0641L137.927 89.8054L140.275 92.0703C140.712 92.4923 141.135 92.9142 141.554 93.3239L138.833 96.2285L140.635 97.9673L143.328 95.0942C143.814 95.5814 144.289 96.0472 144.757 96.4978L142.076 99.3569L143.88 101.097L146.598 98.1991C149.789 100.957 152.606 102.264 155.456 99.7596C157.751 97.7432 157.601 95.7111 156.255 93.6496C157.784 94.1428 159.29 93.8646 160.557 92.2024V92.2024ZM152.213 95.9764C150.18 98.1474 146.575 94.2002 145.352 93.0217L148.958 89.1748C150.181 90.355 154.335 93.7132 152.213 95.9764ZM156.462 89.7389C154.611 91.7126 151.627 88.3961 150.609 87.4137L153.879 83.9244C154.898 84.9069 158.392 87.6794 156.462 89.7389Z" fill="white"/>
<path d="M142.483 144.157C127.442 148.722 112.166 140.27 108.366 125.277C104.569 110.29 113.683 94.4351 128.725 89.8719C143.767 85.3043 159.043 93.7561 162.842 108.745C166.642 123.736 157.526 139.591 142.483 144.157V144.157Z" fill="#FFBE1B"/>
<path d="M141.136 138.842C129.039 142.513 116.755 135.716 113.699 123.659C110.644 111.606 117.974 98.8558 130.071 95.1859C142.168 91.5125 154.453 98.3093 157.508 110.363C160.565 122.419 153.233 135.17 141.136 138.842V138.842Z" fill="#FFE37B"/>
<path d="M142.5 123.264C145.188 122.166 145.514 119.526 145.022 116.467L148.843 115.308L148.258 113L144.538 114.128C144.384 113.521 144.215 112.905 144.047 112.292L147.792 111.157L147.207 108.85L143.387 110.008C143.25 109.511 143.117 109.023 142.995 108.545L143.007 108.541L142.201 105.357L139.718 106.111C139.718 106.111 140.182 107.806 140.143 107.787C140.38 108.722 139.91 109.192 139.46 109.424L135.107 110.744C135.123 110.809 135.142 110.894 135.153 110.993C135.134 110.916 135.113 110.834 135.091 110.749L128.993 112.598C128.686 112.647 128.169 112.617 128.003 111.964C127.984 112.002 127.578 110.286 127.578 110.286L124.684 110.67L125.445 113.674C125.586 114.233 125.716 114.786 125.849 115.327L121.985 116.5L122.569 118.806L126.392 117.646C126.54 118.283 126.69 118.897 126.842 119.495L123.035 120.649L123.62 122.957L127.478 121.788C128.686 125.6 130.359 128.017 134.116 127.241C137.142 126.616 138.112 124.836 138.087 122.472C139.112 123.602 140.534 124.071 142.5 123.264V123.264ZM133.419 122.541C130.531 123.418 129.616 118.411 129.219 116.847L134.339 115.295C134.735 116.86 136.431 121.628 133.419 122.541ZM140.371 119.277C137.743 120.073 137.013 115.887 136.683 114.584L141.327 113.176C141.657 114.479 143.111 118.445 140.371 119.277Z" fill="white"/>
<path d="M121.866 111.309C134.204 118.625 139.158 134.343 132.928 146.416C126.701 158.485 111.648 162.341 99.3102 155.024C86.9698 147.71 82.0155 131.992 88.2433 119.922C94.4718 107.849 109.526 103.994 121.866 111.309V111.309Z" fill="#FFBE1B"/>
<path d="M119.658 115.59C129.58 121.473 133.564 134.113 128.554 143.823C123.546 153.528 111.44 156.629 101.518 150.745C91.5941 144.863 87.6097 132.223 92.6181 122.516C97.6271 112.807 109.734 109.707 119.658 115.59V115.59Z" fill="#FFE37B"/>
<path d="M109.722 124.598C107.356 123.479 105.617 124.925 104.161 127.186L101.03 125.342L100.07 127.192L103.119 128.988C102.866 129.474 102.618 129.977 102.372 130.477L99.3031 128.669L98.343 130.518L101.473 132.363C101.273 132.768 101.077 133.166 100.878 133.55L100.868 133.544L99.5423 136.095L101.578 137.294C101.578 137.294 102.261 135.912 102.275 135.95C102.664 135.2 103.239 135.22 103.662 135.377L107.229 137.478C107.256 137.426 107.294 137.36 107.344 137.29C107.312 137.352 107.277 137.418 107.243 137.486L112.239 140.429C112.465 140.605 112.781 140.972 112.51 141.496C112.544 141.485 111.811 142.841 111.811 142.841L113.896 144.549L115.146 142.141C115.38 141.693 115.616 141.257 115.844 140.826L119.011 142.69L119.971 140.843L116.837 138.997C117.112 138.496 117.371 138.008 117.619 137.528L120.738 139.366L121.698 137.515L118.537 135.653C119.968 132.434 120.291 129.782 117.423 127.74C115.113 126.094 113.458 126.564 112.104 128.072C112.099 126.668 111.455 125.414 109.722 124.598V124.598ZM115.149 131.174C117.516 132.567 115.205 136.342 114.555 137.596L110.36 135.125C111.011 133.871 112.681 129.72 115.149 131.174ZM108.783 128.548C110.936 129.817 108.982 132.949 108.439 133.994L104.634 131.753C105.176 130.708 106.538 127.226 108.783 128.548Z" fill="white"/>
<path d="M122.19 86.4349C129.867 99.2127 125.731 115.797 112.951 123.477C100.175 131.153 83.5903 127.019 75.9148 114.241C68.2351 101.463 72.3704 84.8776 85.1474 77.2003C97.9269 69.5206 114.512 73.6566 122.19 86.4349Z" fill="#FFBE1B"/>
<path d="M117.659 89.158C123.834 99.434 120.508 112.771 110.229 118.947C99.9551 125.12 86.6177 121.795 80.4448 111.519C74.2687 101.243 77.5942 87.9051 87.8695 81.7311C98.1467 75.5552 111.485 78.8815 117.659 89.158Z" fill="#FFE37B"/>
<path d="M103.218 92.027C101.57 89.8021 99.0593 90.2318 96.3545 91.5481L94.3842 88.2734L92.3939 89.468L94.3123 92.6563C93.7891 92.9704 93.2605 93.3017 92.7355 93.6312L90.8048 90.4215L88.8155 91.6152L90.7844 94.8894C90.3588 95.1568 89.9404 95.4188 89.5279 95.6667L89.5216 95.6567L86.7758 97.303L88.0572 99.4316C88.0572 99.4316 89.5101 98.5216 89.502 98.5634C90.3083 98.0798 90.8527 98.3911 91.1724 98.7498L93.4171 102.48C93.4729 102.447 93.5469 102.406 93.6358 102.368C93.5696 102.408 93.4983 102.45 93.4257 102.494L96.5695 107.721C96.687 107.996 96.7816 108.491 96.219 108.83C96.258 108.837 94.7719 109.698 94.7719 109.698L95.8086 112.316L98.3988 110.761C98.8811 110.472 99.3603 110.196 99.8277 109.92L101.821 113.231L103.81 112.038L101.838 108.761C102.391 108.445 102.922 108.132 103.437 107.822L105.399 111.085L107.389 109.89L105.401 106.584C108.631 104.383 110.465 102.134 108.863 98.8123C107.573 96.1374 105.702 95.721 103.528 96.404C104.328 95.1231 104.426 93.6532 103.218 92.027ZM104.694 100.78C106.184 103.254 101.783 105.512 100.435 106.323L97.7949 101.934C99.1444 101.125 103.141 98.1982 104.694 100.78ZM100.043 95.1441C101.397 97.3963 97.7099 99.2514 96.5863 99.9257L94.192 95.9457C95.3155 95.2714 98.6297 92.7956 100.043 95.1441Z" fill="white"/>
<path d="M94.9893 165.906L220.541 93.4191C224.254 91.275 228.953 93.6061 229.493 97.8602L238.954 172.445C239.236 174.663 238.26 176.854 236.423 178.129L140.489 244.715L94.9893 165.906Z" fill="#4F4B6C"/>
<path fill-rule="evenodd" clip-rule="evenodd" d="M63.2921 145.452C61.0829 145.452 59.2921 147.243 59.2921 149.452C59.2921 151.661 61.083 153.452 63.2921 153.452L83.1799 153.452L136.249 245.371C135.015 252.487 137.285 261.939 145.994 265.667C147.152 266.163 148.477 266.084 149.568 265.454L257.821 202.954C259.734 201.849 260.39 199.403 259.285 197.49C258.181 195.576 255.734 194.921 253.821 196.026L147.547 257.383C144.401 254.994 143.205 250.264 144.304 245.919C144.629 244.886 144.537 243.726 143.953 242.715L88.9534 147.452C88.2389 146.214 86.9184 145.452 85.4893 145.452L63.2921 145.452Z" fill="#ACA9BC"/>
<ellipse cx="173.712" cy="268.258" rx="12" ry="12" transform="rotate(-30 173.712 268.258)" fill="#4F4B6C"/>
<ellipse cx="244.726" cy="227.258" rx="12" ry="12" transform="rotate(-30 244.726 227.258)" fill="#4F4B6C"/>
<circle r="4" transform="matrix(0.866026 -0.499999 0.500001 0.866025 194.824 134.825)" fill="#ACA9BC"/>
<path opacity="0.25" d="M107.953 180.361L182.432 137.361C184.345 136.256 186.791 136.912 187.896 138.825C189 140.738 188.345 143.184 186.432 144.289L111.953 187.289L107.953 180.361Z" fill="#ACA9BC"/>
<path opacity="0.25" d="M119.953 201.145L170.183 172.145C172.096 171.041 174.542 171.696 175.647 173.609C176.752 175.523 176.096 177.969 174.183 179.074L123.953 208.073L119.953 201.145Z" fill="#ACA9BC"/>
<path opacity="0.25" d="M179.111 171.609C178.007 169.696 178.662 167.25 180.575 166.145L202.226 153.645C204.139 152.541 206.585 153.196 207.69 155.11C208.795 157.023 208.139 159.469 206.226 160.574L184.575 173.074C182.662 174.178 180.216 173.523 179.111 171.609Z" fill="#ACA9BC"/>
<rect x="91" y="278.106" width="121" height="8" rx="4" fill="#4F4B6C"/>
<rect x="216" y="278.106" width="41" height="8" rx="4" fill="#4F4B6C"/>
<path opacity="0.3" fill-rule="evenodd" clip-rule="evenodd" d="M57 224.106C60.866 224.106 64 220.972 64 217.106C64 213.24 60.866 210.106 57 210.106C53.134 210.106 50 213.24 50 217.106C50 220.972 53.134 224.106 57 224.106ZM57 227.106C62.5228 227.106 67 222.629 67 217.106C67 211.583 62.5228 207.106 57 207.106C51.4772 207.106 47 211.583 47 217.106C47 222.629 51.4772 227.106 57 227.106Z" fill="#38A1DC"/>
<path opacity="0.3" fill-rule="evenodd" clip-rule="evenodd" d="M244 55.7057C247.093 55.7057 249.6 53.1985 249.6 50.1057C249.6 47.0129 247.093 44.5057 244 44.5057C240.907 44.5057 238.4 47.0129 238.4 50.1057C238.4 53.1985 240.907 55.7057 244 55.7057ZM244 58.1057C248.418 58.1057 252 54.524 252 50.1057C252 45.6874 248.418 42.1057 244 42.1057C239.582 42.1057 236 45.6874 236 50.1057C236 54.524 239.582 58.1057 244 58.1057Z" fill="#38A1DC"/>
<path opacity="0.3" fill-rule="evenodd" clip-rule="evenodd" d="M291.5 182.556C294.786 182.556 297.45 179.892 297.45 176.606C297.45 173.32 294.786 170.656 291.5 170.656C288.214 170.656 285.55 173.32 285.55 176.606C285.55 179.892 288.214 182.556 291.5 182.556ZM291.5 185.106C296.194 185.106 300 181.3 300 176.606C300 171.911 296.194 168.106 291.5 168.106C286.806 168.106 283 171.911 283 176.606C283 181.3 286.806 185.106 291.5 185.106Z" fill="#4F4B6C"/>
</svg>
