<svg viewBox="0 0 675 676" fill="none" xmlns="http://www.w3.org/2000/svg">
<path opacity="0.06" fill-rule="evenodd" clip-rule="evenodd" d="M347.605 201.557C388.548 196.49 435.782 157.258 467.074 184.112C499.261 211.735 466.184 266.049 471.724 308.072C475.795 338.952 504.776 366.613 495.035 396.2C485.296 425.776 450.051 436.296 423.918 453.266C399.404 469.185 376.318 486.418 347.605 491.938C313.638 498.47 273.985 508.329 246.474 487.385C218.992 466.461 226.931 423.796 215.375 391.268C203.341 357.396 171.08 328.507 177.464 293.137C184.015 256.837 215.359 228.736 247.868 211.238C278.01 195.014 313.624 205.762 347.605 201.557Z" fill="#6857E5"/>
<path opacity="0.06" fill-rule="evenodd" clip-rule="evenodd" d="M512.049 265.194C521.733 266.614 527.917 277.877 533.106 288.434C537.372 297.113 538.834 306.979 537.551 317.076C536.147 328.124 533.626 340.048 525.884 345.268C517.942 350.624 508.291 347.586 500.354 342.158C492.923 337.076 488.47 327.972 485.715 317.798C482.422 305.638 478.438 292.028 483.852 281.213C489.682 269.568 501.282 263.616 512.049 265.194Z" fill="#6857E5"/>
<ellipse opacity="0.3" cx="337.515" cy="338.427" rx="80.6926" ry="80.6773" fill="#ACA9BC"/>
<g filter="url(#filter0_d)">
<ellipse cx="337.515" cy="338.429" rx="73.0076" ry="72.9937" fill="url(#paint0_radial)"/>
</g>
<ellipse cx="337.515" cy="338.427" rx="65.3226" ry="65.3102" fill="white" fill-opacity="0.12"/>
<path d="M396.418 364.023C381.032 361.542 360.943 358.465 338.95 358.288C316.219 358.106 295.494 360.951 279.878 363.341C279.878 363.341 302.392 359.555 338.958 359.851C375.524 360.146 396.434 364.039 396.434 364.039" fill="#FF8E00"/>
<path d="M313.062 352.953V352.985H319.926L319.958 348.872V348.829V348.523V348.33V341.022C319.958 335.319 320.338 330.986 317.7 328.033C317.668 327.99 317.631 327.952 317.599 327.915L317.476 327.764C317.353 327.641 317.23 327.523 317.096 327.41L316.941 327.313C316.86 327.243 316.769 327.19 316.684 327.12L316.481 326.97C316.009 326.633 315.506 326.346 314.977 326.11C314.753 326.008 314.528 325.912 314.303 325.826L314.18 325.783C312.558 325.209 310.855 324.901 309.135 324.87C308.552 324.838 307.958 324.816 307.327 324.816C305.747 324.844 304.171 324.977 302.609 325.214C301.007 325.419 299.428 325.779 297.895 326.288V331.346C299.19 330.89 300.53 330.575 301.892 330.406C303.33 330.169 304.784 330.033 306.241 329.998C307.623 329.94 309.005 330.086 310.344 330.433C310.744 330.551 311.113 330.757 311.424 331.035C311.735 331.314 311.98 331.658 312.142 332.044C312.407 332.674 312.556 333.347 312.581 334.031L312.661 335.711H307.14C305.908 335.711 304.651 335.77 303.421 335.917C301.199 336.182 299.318 336.817 297.895 338.23C296.044 340.061 295.755 342.874 295.755 344.705C295.755 344.764 295.755 344.818 295.755 344.877C295.757 345.288 295.783 345.699 295.836 346.107C295.868 346.381 295.895 346.542 295.895 346.542C296.206 348.225 297.095 349.745 298.409 350.838C300.192 352.352 302.568 353.109 305.535 353.109C308.209 353.201 310.844 352.441 313.062 350.94V352.695V352.953ZM310.114 347.653C309.181 347.867 308.225 347.965 307.268 347.943C306.069 348.012 304.881 347.681 303.887 347.004C303.487 346.702 303.167 346.307 302.954 345.854C302.74 345.4 302.64 344.901 302.662 344.399C302.639 343.901 302.746 343.405 302.974 342.962C303.201 342.518 303.54 342.142 303.957 341.87C304.823 341.29 305.99 341.049 308.076 341.049L312.8 340.979L312.955 346.349C312.068 346.901 311.113 347.334 310.114 347.637V347.653Z" fill="white"/>
<path d="M312.661 335.679L309.589 335.705L312.801 341.017L312.661 335.679Z" fill="#FF8E00"/>
<path d="M312.803 341.017L306.41 341.117L309.587 335.701L312.803 341.017Z" fill="#EA0000"/>
<path d="M303.422 335.915C304.574 335.782 305.734 335.712 306.894 335.706H309.585L308.087 338.273L306.412 341.119L303.422 335.915Z" fill="#6C54EE"/>
<path d="M323.73 352.986H330.641V325.472L323.73 329.655V352.986Z" fill="white"/>
<path d="M339.223 337.875L349.879 325.375H341.528L331.086 337.875L342.031 353.125H350.382L339.223 337.875Z" fill="white"/>
<path d="M330.641 317.197L323.746 321.336L323.73 313.025L330.641 317.197Z" fill="#FF8E00"/>
<path d="M330.642 317.197V325.472L323.747 321.333L330.642 317.197Z" fill="#EA0000"/>
<path d="M330.643 325.47L323.746 329.646V321.331L330.643 325.47Z" fill="#6C54EE"/>
<path d="M378.688 330.401C377.537 328.251 375.716 326.538 373.504 325.525C371.481 324.62 369.299 324.127 367.084 324.075C364.253 324.075 362.09 324.459 360.556 325.233L353.624 329.424V352.98H359.022L359.092 350.741C361.302 352.111 363.84 352.853 366.437 352.889C370.906 352.889 374.375 351.6 376.842 349.023C379.31 346.445 380.546 342.916 380.55 338.434C380.627 335.64 379.986 332.874 378.688 330.401ZM371.38 345.285C369.953 346.757 367.926 347.492 365.298 347.492C363.61 347.531 361.951 347.047 360.547 346.107V330.438C362.108 329.747 363.807 329.426 365.512 329.499C370.84 329.499 373.504 332.606 373.504 338.82C373.504 341.659 372.796 343.814 371.38 345.285Z" fill="white"/>
<path d="M353.624 329.423V321.155L360.558 325.23L353.624 329.423Z" fill="#6C54EE"/>
<path d="M360.556 316.985L353.622 321.153V312.815L360.556 316.985Z" fill="#FF8E00"/>
<path d="M360.558 316.988V325.233L353.624 321.153L360.558 316.988Z" fill="#EA0000"/>
<circle cx="337.5" cy="338.427" r="152.024" stroke="#6857E5" stroke-dasharray="10 10"/>
<path d="M528.387 322.546C528.643 325.867 528.816 329.212 528.902 332.578L528.402 332.591C528.445 334.261 528.466 335.936 528.466 337.616C528.466 339.296 528.445 340.97 528.402 342.64L528.902 342.653C528.816 346.019 528.643 349.364 528.387 352.685L527.888 352.646C527.63 355.993 527.286 359.316 526.859 362.613L527.355 362.677C526.922 366.013 526.405 369.322 525.804 372.602L525.313 372.512C524.709 375.81 524.021 379.079 523.251 382.316L523.738 382.432C522.961 385.701 522.1 388.938 521.159 392.14L520.679 391.999C519.735 395.214 518.708 398.393 517.603 401.534L518.074 401.7C516.96 404.867 515.765 407.996 514.492 411.085L514.03 410.894C512.755 413.989 511.401 417.043 509.971 420.054L510.423 420.269C508.984 423.3 507.468 426.287 505.879 429.227L505.439 428.99C503.847 431.933 502.182 434.83 500.444 437.677L500.871 437.938C499.124 440.8 497.305 443.614 495.416 446.375L495.003 446.092C493.115 448.852 491.156 451.559 489.131 454.212L489.528 454.516C487.494 457.179 485.392 459.788 483.225 462.339L482.844 462.015C480.681 464.562 478.452 467.051 476.161 469.481L476.524 469.824C474.226 472.26 471.865 474.636 469.443 476.95L469.098 476.588C466.683 478.895 464.207 481.14 461.675 483.319L462.001 483.698C459.463 485.881 456.867 487.999 454.217 490.049L453.911 489.653C451.27 491.696 448.574 493.67 445.827 495.574L446.112 495.985C443.361 497.891 440.559 499.726 437.707 501.489L437.444 501.064C434.605 502.818 431.718 504.499 428.784 506.106L429.024 506.544C426.091 508.15 423.111 509.682 420.088 511.135L419.871 510.685C416.867 512.129 413.819 513.497 410.731 514.786L410.923 515.248C407.84 516.535 404.716 517.743 401.554 518.87L401.386 518.399C398.249 519.517 395.074 520.555 391.863 521.511L392.006 521.99C388.807 522.942 385.572 523.813 382.306 524.6L382.189 524.113C378.954 524.892 375.687 525.589 372.39 526.2L372.481 526.691C369.202 527.299 365.894 527.823 362.559 528.261L362.494 527.765C359.198 528.198 355.876 528.546 352.53 528.808L352.569 529.306C349.248 529.566 345.903 529.741 342.537 529.828L342.524 529.328C340.855 529.371 339.18 529.393 337.5 529.393C335.82 529.393 334.145 529.371 332.476 529.328L332.463 529.828C329.097 529.741 325.752 529.566 322.431 529.306L322.47 528.808C319.124 528.546 315.802 528.198 312.506 527.765L312.441 528.261C309.106 527.823 305.798 527.299 302.519 526.691L302.61 526.2C299.313 525.589 296.046 524.892 292.811 524.113L292.694 524.6C289.428 523.813 286.193 522.942 282.994 521.99L283.137 521.511C279.926 520.555 276.751 519.517 273.614 518.399L273.446 518.87C270.284 517.743 267.16 516.535 264.077 515.248L264.269 514.786C261.181 513.497 258.133 512.129 255.129 510.685L254.912 511.135C251.889 509.682 248.909 508.15 245.976 506.544L246.216 506.106C243.282 504.499 240.395 502.818 237.556 501.064L237.293 501.489C234.441 499.726 231.639 497.891 228.889 495.985L229.173 495.574C226.426 493.67 223.73 491.696 221.089 489.653L220.783 490.049C218.133 487.999 215.537 485.881 212.999 483.698L213.325 483.319C210.793 481.14 208.318 478.895 205.902 476.588L205.557 476.95C203.135 474.636 200.774 472.26 198.476 469.824L198.84 469.481C196.548 467.051 194.319 464.562 192.156 462.015L191.775 462.339C189.608 459.788 187.506 457.179 185.472 454.516L185.869 454.212C183.844 451.559 181.885 448.852 179.997 446.092L179.585 446.375C177.695 443.614 175.876 440.8 174.129 437.938L174.556 437.677C172.818 434.83 171.153 431.933 169.561 428.99L169.121 429.227C167.532 426.287 166.016 423.3 164.577 420.269L165.029 420.054C163.599 417.043 162.245 413.989 160.97 410.894L160.508 411.085C159.235 407.996 158.04 404.867 156.926 401.7L157.397 401.534C156.292 398.392 155.265 395.213 154.321 391.999L153.841 392.14C152.9 388.938 152.039 385.701 151.262 382.432L151.749 382.316C150.979 379.079 150.291 375.81 149.687 372.512L149.196 372.602C148.595 369.322 148.078 366.013 147.645 362.677L148.141 362.613C147.714 359.316 147.37 355.993 147.112 352.646L146.613 352.685C146.357 349.364 146.184 346.019 146.098 342.653L146.598 342.64C146.555 340.97 146.534 339.296 146.534 337.616C146.534 335.936 146.555 334.261 146.598 332.591L146.098 332.578C146.184 329.212 146.357 325.867 146.613 322.546L147.112 322.585C147.37 319.238 147.714 315.915 148.141 312.618L147.645 312.554C148.078 309.218 148.595 305.909 149.196 302.629L149.687 302.719C150.291 299.421 150.979 296.152 151.749 292.915L151.262 292.799C152.039 289.53 152.9 286.293 153.841 283.091L154.321 283.232C155.265 280.018 156.292 276.838 157.397 273.697L156.926 273.531C158.04 270.364 159.235 267.235 160.508 264.146L160.97 264.337C162.245 261.242 163.599 258.188 165.029 255.177L164.577 254.962C166.016 251.931 167.532 248.944 169.121 246.004L169.561 246.242C171.153 243.298 172.818 240.401 174.556 237.554L174.129 237.293C175.876 234.431 177.695 231.618 179.585 228.856L179.997 229.139C181.885 226.379 183.844 223.672 185.869 221.019L185.472 220.715C187.506 218.052 189.608 215.443 191.775 212.892L192.156 213.216C194.319 210.669 196.548 208.18 198.84 205.751L198.476 205.407C200.774 202.971 203.135 200.595 205.557 198.281L205.902 198.643C208.318 196.336 210.793 194.091 213.325 191.912L212.999 191.533C215.537 189.35 218.133 187.232 220.783 185.182L221.089 185.578C223.73 183.536 226.426 181.561 229.173 179.657L228.889 179.246C231.639 177.34 234.441 175.505 237.294 173.742L237.556 174.167C240.395 172.413 243.282 170.732 246.216 169.125L245.976 168.687C248.909 167.081 251.889 165.55 254.912 164.096L255.129 164.546C258.133 163.102 261.181 161.734 264.269 160.445L264.077 159.983C267.16 158.696 270.284 157.488 273.446 156.361L273.614 156.832C276.751 155.714 279.926 154.676 283.137 153.72L282.994 153.241C286.193 152.289 289.428 151.418 292.694 150.631L292.811 151.118C296.046 150.339 299.313 149.642 302.61 149.031L302.519 148.54C305.798 147.932 309.106 147.408 312.441 146.97L312.506 147.466C315.802 147.033 319.124 146.685 322.47 146.423L322.431 145.925C325.752 145.665 329.097 145.49 332.463 145.403L332.476 145.903C334.145 145.86 335.82 145.838 337.5 145.838C339.18 145.838 340.855 145.86 342.524 145.903L342.537 145.403C345.903 145.49 349.248 145.665 352.569 145.925L352.53 146.423C355.876 146.685 359.198 147.033 362.494 147.466L362.559 146.97C365.894 147.408 369.202 147.932 372.481 148.54L372.39 149.031C375.687 149.642 378.954 150.339 382.189 151.118L382.306 150.631C385.573 151.418 388.807 152.289 392.006 153.241L391.863 153.72C395.074 154.676 398.249 155.714 401.386 156.832L401.554 156.361C404.716 157.488 407.84 158.696 410.923 159.983L410.731 160.445C413.819 161.734 416.867 163.102 419.871 164.546L420.088 164.096C423.111 165.55 426.091 167.081 429.024 168.687L428.784 169.125C431.718 170.732 434.605 172.413 437.444 174.167L437.707 173.742C440.559 175.505 443.361 177.34 446.112 179.246L445.827 179.657C448.574 181.561 451.27 183.536 453.911 185.578L454.217 185.182C456.867 187.232 459.463 189.35 462.001 191.533L461.675 191.912C464.207 194.091 466.683 196.336 469.098 198.643L469.443 198.281C471.865 200.595 474.226 202.971 476.524 205.407L476.161 205.751C478.452 208.18 480.681 210.669 482.844 213.216L483.225 212.892C485.392 215.443 487.494 218.052 489.528 220.715L489.131 221.019C491.156 223.672 493.115 226.379 495.003 229.139L495.416 228.856C497.305 231.618 499.124 234.431 500.871 237.293L500.444 237.554C502.182 240.401 503.848 243.298 505.439 246.242L505.879 246.004C507.468 248.944 508.984 251.931 510.423 254.962L509.972 255.177C511.401 258.188 512.755 261.242 514.03 264.337L514.492 264.146C515.765 267.235 516.96 270.364 518.074 273.531L517.603 273.697C518.708 276.839 519.735 280.018 520.679 283.232L521.159 283.091C522.1 286.293 522.961 289.53 523.738 292.799L523.251 292.915C524.021 296.152 524.709 299.421 525.313 302.719L525.804 302.629C526.405 305.909 526.922 309.218 527.355 312.554L526.859 312.619C527.286 315.915 527.63 319.238 527.888 322.585L528.387 322.546Z" stroke="#6857E5" stroke-dasharray="10 10"/>
<circle opacity="0.7" cx="337.5" cy="338.427" r="231.531" stroke="#6857E5" stroke-dasharray="10 10"/>
<path opacity="0.5" d="M621.053 322.434C621.231 325.786 621.35 329.153 621.409 332.535L620.91 332.544C620.939 334.231 620.954 335.922 620.954 337.616C620.954 339.31 620.939 341 620.91 342.687L621.409 342.696C621.35 346.078 621.231 349.446 621.053 352.798L620.554 352.771C620.375 356.151 620.136 359.515 619.839 362.862L620.337 362.907C620.037 366.28 619.679 369.637 619.262 372.975L618.765 372.913C618.347 376.264 617.869 379.596 617.334 382.909L617.828 382.988C617.288 386.329 616.69 389.65 616.034 392.95L615.544 392.853C614.885 396.167 614.169 399.461 613.395 402.733L613.882 402.848C613.103 406.139 612.268 409.408 611.375 412.654L610.893 412.521C609.999 415.774 609.048 419.003 608.041 422.208L608.518 422.358C607.504 425.585 606.434 428.788 605.308 431.964L604.837 431.797C603.71 434.978 602.527 438.133 601.29 441.261L601.755 441.445C600.512 444.587 599.215 447.702 597.864 450.788L597.406 450.587C596.054 453.676 594.648 456.737 593.189 459.767L593.64 459.984C592.174 463.029 590.655 466.044 589.084 469.028L588.642 468.795C587.071 471.779 585.448 474.732 583.775 477.652L584.208 477.9C582.529 480.83 580.799 483.727 579.019 486.59L578.595 486.326C576.815 489.189 574.985 492.017 573.107 494.811L573.522 495.09C571.638 497.892 569.705 500.659 567.724 503.39L567.319 503.096C565.34 505.824 563.314 508.515 561.241 511.169L561.635 511.477C559.557 514.136 557.432 516.758 555.262 519.341L554.879 519.02C552.712 521.599 550.499 524.14 548.242 526.64L548.613 526.975C546.352 529.48 544.046 531.945 541.698 534.368L541.338 534.02C538.994 536.439 536.607 538.816 534.178 541.15L534.524 541.51C532.091 543.849 529.617 546.144 527.102 548.395L526.768 548.022C524.259 550.268 521.709 552.47 519.12 554.627L519.44 555.011C516.848 557.17 514.217 559.284 511.549 561.351L511.243 560.955C508.581 563.017 505.881 565.033 503.145 567.001L503.437 567.407C500.699 569.376 497.924 571.298 495.114 573.172L494.836 572.755C492.036 574.622 489.2 576.441 486.33 578.21L486.592 578.636C483.723 580.404 480.819 582.123 477.883 583.792L477.636 583.357C474.71 585.02 471.752 586.632 468.762 588.192L468.994 588.635C466.005 590.195 462.984 591.704 459.934 593.16L459.718 592.708C456.683 594.157 453.618 595.553 450.525 596.896L450.724 597.354C447.634 598.695 444.515 599.983 441.37 601.217L441.187 600.751C438.056 601.979 434.898 603.153 431.713 604.271L431.879 604.743C428.699 605.86 425.494 606.922 422.263 607.929L422.115 607.451C418.908 608.45 415.676 609.393 412.422 610.281L412.553 610.763C409.306 611.648 406.035 612.477 402.743 613.249L402.628 612.762C399.355 613.53 396.06 614.241 392.745 614.894L392.841 615.384C389.54 616.035 386.217 616.628 382.876 617.163L382.797 616.669C379.483 617.2 376.151 617.673 372.8 618.088L372.861 618.585C369.522 618.998 366.166 619.354 362.792 619.651L362.748 619.153C359.4 619.447 356.036 619.684 352.656 619.862L352.682 620.361C349.33 620.537 345.962 620.655 342.58 620.714L342.572 620.214C340.885 620.244 339.194 620.259 337.5 620.259C335.806 620.259 334.115 620.244 332.428 620.214L332.42 620.714C329.038 620.655 325.67 620.537 322.318 620.361L322.344 619.862C318.964 619.684 315.6 619.447 312.252 619.153L312.208 619.651C308.835 619.354 305.478 618.998 302.139 618.585L302.2 618.088C298.849 617.673 295.517 617.2 292.203 616.669L292.124 617.163C288.783 616.628 285.46 616.035 282.159 615.384L282.256 614.894C278.94 614.241 275.645 613.53 272.372 612.762L272.257 613.249C268.965 612.477 265.694 611.648 262.447 610.763L262.578 610.281C259.324 609.393 256.092 608.45 252.885 607.451L252.737 607.929C249.506 606.922 246.301 605.86 243.121 604.743L243.287 604.272C240.102 603.153 236.944 601.979 233.813 600.751L233.63 601.217C230.485 599.983 227.366 598.696 224.276 597.354L224.475 596.896C221.382 595.553 218.317 594.157 215.282 592.708L215.066 593.16C212.016 591.704 208.995 590.195 206.006 588.635L206.238 588.192C203.248 586.632 200.29 585.02 197.364 583.357L197.117 583.792C194.181 582.123 191.277 580.404 188.408 578.636L188.67 578.21C185.8 576.441 182.964 574.622 180.164 572.755L179.886 573.172C177.076 571.298 174.301 569.376 171.563 567.407L171.855 567.001C169.119 565.033 166.419 563.017 163.757 560.955L163.451 561.351C160.783 559.284 158.152 557.17 155.56 555.011L155.88 554.627C153.291 552.47 150.741 550.268 148.232 548.022L147.898 548.395C145.383 546.144 142.909 543.849 140.476 541.511L140.822 541.15C138.393 538.816 136.006 536.439 133.662 534.02L133.303 534.368C130.954 531.945 128.648 529.48 126.387 526.975L126.758 526.64C124.501 524.14 122.288 521.599 120.121 519.02L119.738 519.341C117.568 516.758 115.443 514.137 113.365 511.477L113.759 511.169C111.686 508.515 109.66 505.824 107.681 503.096L107.276 503.39C105.295 500.659 103.362 497.892 101.478 495.09L101.893 494.811C100.015 492.017 98.1851 489.189 96.4054 486.326L95.9808 486.59C94.2009 483.727 92.4707 480.83 90.7916 477.9L91.2254 477.652C89.552 474.732 87.9292 471.779 86.3584 468.795L85.916 469.028C84.3452 466.044 82.8263 463.029 81.3604 459.984L81.8109 459.767C80.3523 456.737 78.9462 453.676 77.594 450.587L77.1359 450.788C75.785 447.702 74.4876 444.587 73.2449 441.445L73.7099 441.261C72.4729 438.134 71.2902 434.979 70.163 431.797L69.6917 431.964C68.5662 428.788 67.4959 425.585 66.482 422.358L66.9591 422.208C65.9523 419.003 65.0012 415.774 64.1069 412.521L63.6248 412.654C62.7325 409.408 61.8966 406.139 61.1183 402.848L61.6049 402.733C60.8312 399.461 60.1145 396.168 59.4559 392.853L58.9655 392.95C58.3098 389.65 57.7116 386.329 57.172 382.989L57.6656 382.909C57.1305 379.596 56.6531 376.264 56.2345 372.913L55.7384 372.975C55.3213 369.637 54.9625 366.28 54.663 362.907L55.161 362.863C54.8639 359.515 54.6253 356.151 54.4462 352.771L53.9469 352.798C53.7693 349.446 53.6501 346.078 53.5904 342.696L54.0904 342.687C54.0606 341 54.0457 339.31 54.0457 337.616C54.0457 335.922 54.0606 334.231 54.0904 332.544L53.5904 332.535C53.6501 329.153 53.7693 325.786 53.9469 322.434L54.4462 322.46C54.6253 319.08 54.8639 315.716 55.161 312.369L54.663 312.325C54.9625 308.951 55.3213 305.595 55.7384 302.256L56.2345 302.318C56.6531 298.968 57.1305 295.636 57.6656 292.323L57.172 292.243C57.7116 288.902 58.3098 285.581 58.9655 282.281L59.4559 282.379C60.1145 279.064 60.8312 275.77 61.6049 272.498L61.1183 272.383C61.8966 269.092 62.7324 265.823 63.6248 262.577L64.1069 262.71C65.0012 259.457 65.9522 256.228 66.959 253.023L66.482 252.874C67.4959 249.646 68.5662 246.444 69.6917 243.267L70.163 243.434C71.2901 240.253 72.4728 237.098 73.7098 233.97L73.2449 233.786C74.4875 230.644 75.7849 227.529 77.1359 224.444L77.5939 224.644C78.9462 221.555 80.3522 218.495 81.8109 215.465L81.3603 215.248C82.8263 212.202 84.3452 209.187 85.916 206.203L86.3584 206.436C87.9292 203.452 89.5519 200.5 91.2254 197.58L90.7915 197.331C92.4707 194.401 94.2008 191.504 95.9807 188.641L96.4054 188.905C98.185 186.043 100.015 183.214 101.893 180.421L101.478 180.142C103.362 177.339 105.295 174.572 107.276 171.842L107.681 172.135C109.66 169.407 111.686 166.716 113.759 164.063L113.365 163.755C115.443 161.095 117.568 158.473 119.738 155.89L120.121 156.212C122.288 153.632 124.501 151.092 126.758 148.592L126.387 148.256C128.648 145.751 130.954 143.287 133.302 140.864L133.661 141.212C136.006 138.793 138.393 136.416 140.822 134.081L140.476 133.721C142.909 131.383 145.383 129.088 147.898 126.837L148.232 127.209C150.741 124.963 153.291 122.761 155.88 120.604L155.56 120.22C158.152 118.061 160.783 115.948 163.451 113.881L163.757 114.276C166.419 112.214 169.119 110.199 171.855 108.231L171.563 107.825C174.301 105.855 177.076 103.933 179.886 102.06L180.164 102.476C182.964 100.609 185.8 98.7904 188.67 97.0215L188.408 96.5958C191.277 94.8271 194.181 93.108 197.117 91.4396L197.364 91.8743C200.29 90.2118 203.248 88.5998 206.238 87.0395L206.006 86.5962C208.995 85.0361 212.016 83.5276 215.066 82.0717L215.282 82.523C218.317 81.0745 221.382 79.6783 224.475 78.3356L224.276 77.8769C227.366 76.5359 230.485 75.248 233.63 74.0145L233.813 74.48C236.944 73.2523 240.102 72.0785 243.287 70.9599L243.121 70.4881C246.301 69.3712 249.506 68.309 252.737 67.3029L252.885 67.7803C256.092 66.7815 259.324 65.8379 262.578 64.9508L262.447 64.4684C265.694 63.5832 268.965 62.7541 272.257 61.9822L272.371 62.469C275.645 61.7016 278.94 60.9908 282.255 60.3376L282.159 59.847C285.46 59.1967 288.782 58.6034 292.124 58.0683L292.203 58.562C295.517 58.0314 298.849 57.558 302.2 57.143L302.139 56.6467C305.478 56.2332 308.834 55.8774 312.208 55.5805L312.252 56.0786C315.6 55.7839 318.964 55.5473 322.344 55.3698L322.318 54.8704C325.67 54.6944 329.038 54.5762 332.419 54.5171L332.428 55.017C334.115 54.9875 335.806 54.9727 337.5 54.9727C339.194 54.9727 340.885 54.9875 342.572 55.017L342.58 54.5171C345.962 54.5762 349.33 54.6943 352.682 54.8704L352.656 55.3698C356.036 55.5473 359.4 55.7839 362.748 56.0786L362.792 55.5805C366.165 55.8774 369.522 56.2332 372.861 56.6467L372.8 57.1429C376.15 57.558 379.483 58.0314 382.797 58.562L382.876 58.0683C386.217 58.6034 389.539 59.1967 392.841 59.847L392.744 60.3376C396.06 60.9907 399.355 61.7016 402.628 62.4689L402.742 61.9821C406.035 62.7541 409.306 63.5832 412.553 64.4683L412.422 64.9507C415.676 65.8379 418.908 66.7814 422.114 67.7802L422.263 67.3029C425.494 68.309 428.699 69.3711 431.879 70.4881L431.713 70.9598C434.897 72.0785 438.056 73.2523 441.187 74.48L441.369 74.0145C444.515 75.248 447.634 76.5358 450.724 77.8769L450.525 78.3356C453.618 79.6783 456.683 81.0745 459.718 82.523L459.934 82.0717C462.984 83.5275 466.005 85.0361 468.994 86.5962L468.762 87.0394C471.752 88.5998 474.71 90.2118 477.636 91.8743L477.883 91.4396C480.819 93.108 483.723 94.8271 486.592 96.5958L486.33 97.0214C489.2 98.7903 492.036 100.609 494.836 102.476L495.114 102.06C497.924 103.933 500.699 105.855 503.437 107.825L503.145 108.231C505.881 110.199 508.581 112.214 511.242 114.276L511.549 113.881C514.217 115.948 516.848 118.061 519.44 120.22L519.12 120.604C521.709 122.761 524.259 124.963 526.768 127.209L527.102 126.837C529.617 129.088 532.091 131.383 534.524 133.721L534.178 134.081C536.607 136.416 538.994 138.793 541.338 141.211L541.697 140.863C544.046 143.286 546.352 145.751 548.613 148.256L548.242 148.591C550.499 151.092 552.712 153.632 554.879 156.212L555.262 155.89C557.432 158.473 559.556 161.095 561.635 163.755L561.241 164.063C563.314 166.716 565.34 169.407 567.319 172.135L567.724 171.842C569.705 174.572 571.638 177.339 573.522 180.142L573.107 180.421C574.985 183.214 576.815 186.043 578.595 188.905L579.019 188.641C580.799 191.504 582.529 194.401 584.208 197.331L583.775 197.58C585.448 200.5 587.071 203.452 588.641 206.436L589.084 206.203C590.655 209.187 592.174 212.202 593.64 215.248L593.189 215.465C594.648 218.495 596.054 221.555 597.406 224.644L597.864 224.443C599.215 227.529 600.512 230.644 601.755 233.786L601.29 233.97C602.527 237.098 603.71 240.253 604.837 243.434L605.308 243.267C606.434 246.444 607.504 249.646 608.518 252.873L608.041 253.023C609.048 256.228 609.999 259.457 610.893 262.71L611.375 262.577C612.267 265.823 613.103 269.092 613.882 272.383L613.395 272.498C614.169 275.77 614.885 279.064 615.544 282.378L616.034 282.281C616.69 285.581 617.288 288.902 617.828 292.243L617.334 292.322C617.869 295.635 618.347 298.968 618.765 302.318L619.262 302.256C619.679 305.595 620.037 308.951 620.337 312.325L619.839 312.369C620.136 315.716 620.375 319.08 620.554 322.46L621.053 322.434Z" stroke="#6857E5" stroke-dasharray="10 10"/>
<circle opacity="0.4" cx="337.5" cy="338.427" r="337" stroke="#6857E5" stroke-dasharray="10 10"/>
<defs>
<filter id="filter0_d" x="234.508" y="243.435" width="206.015" height="205.987" filterUnits="userSpaceOnUse" color-interpolation-filters="sRGB">
<feFlood flood-opacity="0" result="BackgroundImageFix"/>
<feColorMatrix in="SourceAlpha" type="matrix" values="0 0 0 0 0 0 0 0 0 0 0 0 0 0 0 0 0 0 127 0"/>
<feOffset dy="8"/>
<feGaussianBlur stdDeviation="15"/>
<feColorMatrix type="matrix" values="0 0 0 0 0.345098 0 0 0 0 0.301961 0 0 0 0 0.803922 0 0 0 0.25 0"/>
<feBlend mode="normal" in2="BackgroundImageFix" result="effect1_dropShadow"/>
<feBlend mode="normal" in="SourceGraphic" in2="effect1_dropShadow" result="shape"/>
</filter>
<radialGradient id="paint0_radial" cx="0" cy="0" r="1" gradientUnits="userSpaceOnUse" gradientTransform="translate(326.628 308.335) rotate(65.4651) scale(104.873 104.886)">
<stop stop-color="#6857E5"/>
<stop offset="1" stop-color="#303392"/>
</radialGradient>
</defs>
</svg>
