<svg width="107" height="20" viewBox="0 0 107 20" fill="none" xmlns="http://www.w3.org/2000/svg">
<g clip-path="url(#clip0)">
<path d="M20.0481 0H0V20H20.0481V0Z" fill="#FFCE00"/>
<path d="M41.7668 0H21.7188V20H41.7668V0Z" fill="#FFCE00"/>
<path d="M63.4856 0H43.4375V20H63.4856V0Z" fill="#FFCE00"/>
<path d="M85.2043 0H65.1562V20H85.2043V0Z" fill="#DCDCE6"/>
<path d="M106.923 0H86.875V20H106.923V0Z" fill="#DCDCE6"/>
<path d="M10.024 13.4792L13.073 12.7083L14.3469 16.625L10.024 13.4792ZM17.0409 8.41667H11.6738L10.024 3.375L8.37425 8.41667H3.00722L7.35097 11.5417L5.70118 16.5833L10.0449 13.4583L12.718 11.5417L17.0409 8.41667Z" fill="white"/>
<path d="M31.7428 13.4792L34.7918 12.7083L36.0657 16.625L31.7428 13.4792ZM38.7596 8.41667H33.3926L31.7428 3.375L30.093 8.41667H24.726L29.0697 11.5417L27.4199 16.5833L31.7637 13.4583L34.4367 11.5417L38.7596 8.41667Z" fill="white"/>
<path d="M53.4615 13.4792L56.5105 12.7083L57.7844 16.625L53.4615 13.4792ZM60.4784 8.41667H55.1113L53.4615 3.375L51.8117 8.41667H46.4447L50.7885 11.5417L49.1387 16.5833L53.4824 13.4583L56.1555 11.5417L60.4784 8.41667Z" fill="white"/>
<path d="M75.1803 13.4792L78.2293 12.7083L79.5032 16.625L75.1803 13.4792ZM82.1971 8.41667H76.8301L75.1803 3.375L73.5305 8.41667H68.1635L72.5072 11.5417L70.8574 16.5833L75.2012 13.4583L77.8743 11.5417L82.1971 8.41667Z" fill="white"/>
<path d="M96.899 13.4792L99.948 12.7083L101.222 16.625L96.899 13.4792ZM103.916 8.41667H98.5488L96.899 3.375L95.2493 8.41667H89.8822L94.226 11.5417L92.5762 16.5833L96.9199 13.4583L99.593 11.5417L103.916 8.41667Z" fill="white"/>
</g>
<defs>
<clipPath id="clip0">
<rect width="106.923" height="20" fill="white"/>
</clipPath>
</defs>
</svg>
