<svg width="82" height="20" viewBox="0 0 82 20" fill="none" xmlns="http://www.w3.org/2000/svg">
<g clip-path="url(#clip0)">
<path d="M21.3198 7.10645H29.5431V8.62929H26.3959V17.2587H24.67V8.62929H21.3198V7.10645ZM29.2386 9.84756H30.7614V11.2689C30.8629 11.0658 30.8629 10.8628 31.066 10.6597C31.1675 10.4567 31.3706 10.2537 31.5736 10.1521C31.7766 9.94908 31.9797 9.84756 32.1827 9.74604C32.3858 9.64452 32.6904 9.64452 32.8934 9.64452C33.0964 9.64452 33.198 9.64452 33.2995 9.64452C33.401 9.64452 33.401 9.64452 33.5025 9.64452V11.1674C33.401 11.1674 33.2995 11.1674 33.198 11.0658C33.0964 11.0658 32.9949 11.0658 32.8934 11.0658C32.5888 11.0658 32.3858 11.1674 32.0812 11.2689C31.8782 11.3704 31.6751 11.5735 31.4721 11.7765C31.269 11.9795 31.1675 12.2841 31.066 12.5887C30.9645 12.8932 30.8629 13.2993 30.8629 13.7054V17.1572H29.2386V9.84756ZM41.0152 17.2587H39.3909V16.2435C39.1878 16.6496 38.8832 16.9542 38.4772 17.1572C38.0711 17.3603 37.665 17.4618 37.2589 17.4618C36.3452 17.4618 35.6345 17.2587 35.1269 16.7511C34.7208 16.2435 34.5178 15.5328 34.5178 14.5176V9.84756H36.1421V14.3146C36.1421 14.9237 36.2437 15.4313 36.5482 15.6344C36.7513 15.9389 37.1574 16.0405 37.5634 16.0405C37.868 16.0405 38.1726 15.9389 38.3756 15.8374C38.5787 15.7359 38.7817 15.6344 38.8832 15.4313C38.9848 15.2283 39.0863 15.0252 39.1878 14.8222C39.2893 14.6191 39.2893 14.3146 39.2893 14.01V9.84756H40.9137L41.0152 17.2587ZM43.7563 14.9237C43.8579 15.4313 43.9594 15.7359 44.264 15.9389C44.5685 16.142 44.9746 16.2435 45.3807 16.2435C45.4822 16.2435 45.6853 16.2435 45.8883 16.2435C46.0914 16.2435 46.2944 16.142 46.3959 16.142C46.599 16.0405 46.7005 15.9389 46.802 15.8374C46.9035 15.7359 47.0051 15.5328 46.9035 15.3298C46.9035 15.1267 46.802 14.9237 46.7005 14.8222C46.599 14.7207 46.3959 14.6191 46.1929 14.5176C45.9898 14.4161 45.6853 14.4161 45.4822 14.3146C45.1777 14.213 44.8731 14.213 44.5685 14.1115C44.264 14.01 43.9594 14.01 43.6548 13.9085C43.3503 13.807 43.1472 13.7054 42.9442 13.5024C42.7411 13.2993 42.5381 13.0963 42.4365 12.8932C42.335 12.5887 42.2335 12.3856 42.2335 11.9795C42.2335 11.5735 42.335 11.2689 42.5381 10.9643C42.7411 10.6597 42.9442 10.4567 43.2487 10.3552C43.5533 10.1521 43.8579 10.0506 44.264 10.0506C44.67 9.94908 44.9746 9.94908 45.2792 9.94908C45.6853 9.94908 45.9898 9.94908 46.3959 10.0506C46.7005 10.1521 47.1066 10.2537 47.3096 10.4567C47.6142 10.6597 47.8173 10.8628 48.0203 11.1674C48.2233 11.4719 48.3249 11.7765 48.3249 12.1826H46.7005C46.599 11.7765 46.3959 11.5735 46.1929 11.3704C45.8883 11.2689 45.5837 11.1674 45.2792 11.1674C45.1777 11.1674 44.9746 11.1674 44.8731 11.1674C44.67 11.1674 44.5685 11.2689 44.467 11.2689C44.3655 11.3704 44.1624 11.3704 44.1624 11.4719C44.1624 11.5735 44.0609 11.675 44.0609 11.878C44.0609 12.0811 44.1624 12.1826 44.264 12.3856C44.3655 12.4872 44.5685 12.5887 44.7716 12.6902C44.9746 12.7917 45.2792 12.7917 45.4822 12.8932C45.7868 12.9948 46.0914 12.9948 46.3959 13.0963C46.7005 13.1978 47.0051 13.1978 47.3096 13.2993C47.6142 13.4009 47.8173 13.5024 48.0203 13.7054C48.2233 13.9085 48.4264 14.1115 48.5279 14.3146C48.6294 14.5176 48.731 14.8222 48.731 15.2283C48.731 15.6344 48.6294 16.0405 48.4264 16.345C48.2233 16.6496 47.9188 16.8526 47.6142 17.0557C47.3096 17.2587 46.9036 17.3603 46.599 17.4618C46.1929 17.5633 45.7868 17.5633 45.4822 17.5633C44.9746 17.5633 44.5685 17.4618 44.1624 17.3603C43.7563 17.2587 43.4518 17.0557 43.1472 16.8526C42.8426 16.6496 42.6396 16.345 42.4365 16.0405C42.2335 15.7359 42.132 15.3298 42.132 14.9237H43.7563ZM49.1371 9.84756H50.3553V7.61406H51.9797V9.84756H53.401V11.0658H51.9797V15.0252C51.9797 15.2283 51.9797 15.3298 51.9797 15.4313C51.9797 15.5328 52.0812 15.6344 52.0812 15.7359C52.1827 15.8374 52.1827 15.8374 52.2843 15.9389C52.3858 15.9389 52.4873 16.0405 52.6904 16.0405C52.7919 16.0405 52.8934 16.0405 52.9949 16.0405C53.0964 16.0405 53.198 16.0405 53.2995 15.9389V17.1572C53.0964 17.1572 52.9949 17.1572 52.7919 17.2587C52.5888 17.2587 52.4873 17.2587 52.2843 17.2587C51.8782 17.2587 51.4721 17.2587 51.269 17.1572C50.9645 17.0557 50.7614 16.9542 50.6599 16.8526C50.5584 16.6496 50.4568 16.5481 50.3553 16.2435C50.2538 16.0405 50.2538 15.7359 50.2538 15.4313V11.0658H49.0355V9.84756H49.1371ZM54.5178 9.84756H56.0406V10.8628C56.2437 10.4567 56.5482 10.1521 56.9543 9.94908C57.3604 9.74604 57.7665 9.64452 58.2741 9.64452C58.8832 9.64452 59.3909 9.74604 59.797 9.94908C60.203 10.1521 60.6091 10.4567 60.9137 10.7613C61.2183 11.0658 61.4213 11.5735 61.5228 11.9795C61.6244 12.4872 61.7259 12.9948 61.7259 13.5024C61.7259 14.01 61.6244 14.5176 61.5228 14.9237C61.4213 15.4313 61.2183 15.8374 60.9137 16.142C60.6091 16.4465 60.3046 16.7511 59.8985 16.9542C59.4924 17.1572 58.9848 17.2587 58.4771 17.2587C58.2741 17.2587 57.9695 17.2587 57.7665 17.1572C57.5634 17.1572 57.2589 17.0557 57.0558 16.9542C56.8528 16.8526 56.6497 16.7511 56.4467 16.5481C56.2436 16.4465 56.1421 16.2435 55.9391 16.0405V19.6953H54.3147L54.5178 9.84756ZM60.203 13.6039C60.203 13.2993 60.203 12.9948 60.1015 12.6902C60 12.3856 59.8985 12.0811 59.6954 11.878C59.4924 11.675 59.2893 11.4719 59.0863 11.2689C58.7817 11.1674 58.5787 11.0658 58.1726 11.0658C57.4619 11.0658 56.9543 11.2689 56.6497 11.7765C56.3452 12.2841 56.1421 12.8932 56.1421 13.7054C56.1421 14.1115 56.1421 14.4161 56.2437 14.7207C56.3452 15.0252 56.4467 15.3298 56.6497 15.5328C56.8528 15.7359 57.0558 15.9389 57.2589 16.0405C57.5634 16.142 57.7665 16.2435 58.1726 16.2435C58.5787 16.2435 58.8832 16.142 59.0863 16.0405C59.3909 15.9389 59.5939 15.7359 59.6954 15.4313C59.8985 15.2283 60 14.9237 60 14.6191C60.203 14.213 60.203 13.9085 60.203 13.6039ZM63.1472 7.10645H64.7716V8.62929H63.1472V7.10645ZM63.1472 9.84756H64.7716V17.2587H63.1472V9.84756ZM66.1929 7.10645H67.8173V17.2587H66.1929V7.10645ZM72.7919 17.4618C72.1827 17.4618 71.6751 17.3603 71.269 17.1572C70.7614 16.9542 70.4568 16.6496 70.1523 16.345C69.8477 16.0405 69.6447 15.6344 69.4416 15.1267C69.2386 14.6191 69.1371 14.1115 69.1371 13.6039C69.1371 13.0963 69.2386 12.4872 69.4416 12.0811C69.6447 11.5734 69.8477 11.1674 70.1523 10.8628C70.4568 10.5582 70.8629 10.2537 71.269 10.0506C71.7766 9.84756 72.2843 9.74604 72.7919 9.74604C73.401 9.74604 73.9086 9.84756 74.3147 10.0506C74.8223 10.2537 75.1269 10.5582 75.4315 10.8628C75.736 11.1674 75.9391 11.5734 76.1421 12.0811C76.3452 12.5887 76.4467 13.0963 76.4467 13.6039C76.4467 14.213 76.3452 14.7207 76.1421 15.1267C75.9391 15.6344 75.736 16.0405 75.4315 16.345C75.1269 16.6496 74.7208 16.9542 74.3147 17.1572C73.9086 17.3603 73.401 17.4618 72.7919 17.4618ZM72.7919 16.142C73.0964 16.142 73.5025 16.0405 73.7056 15.9389C74.0101 15.8374 74.2132 15.6344 74.3147 15.3298C74.4162 15.0252 74.6193 14.8222 74.7208 14.5176C74.8223 14.213 74.8223 13.9085 74.8223 13.6039C74.8223 13.2993 74.8223 12.9948 74.7208 12.6902C74.6193 12.3856 74.5178 12.0811 74.3147 11.878C74.1117 11.675 73.9086 11.4719 73.7056 11.2689C73.401 11.1674 73.0964 11.0658 72.7919 11.0658C72.4873 11.0658 72.0812 11.1674 71.8782 11.2689C71.5736 11.3704 71.3706 11.5735 71.269 11.878C71.066 12.0811 70.9645 12.3856 70.8629 12.6902C70.7614 12.9948 70.7614 13.2993 70.7614 13.6039C70.7614 13.9085 70.7614 14.213 70.8629 14.5176C70.9645 14.8222 71.066 15.1267 71.269 15.3298C71.4721 15.5328 71.6751 15.7359 71.8782 15.9389C72.0812 16.0405 72.3858 16.142 72.7919 16.142ZM76.9543 9.84756H78.1726V7.61406H79.7969V9.84756H81.2183V11.0658H79.7969V15.0252C79.7969 15.2283 79.7969 15.3298 79.7969 15.4313C79.7969 15.5328 79.8985 15.6344 79.8985 15.7359C80 15.8374 80 15.8374 80.1015 15.9389C80.203 15.9389 80.3046 16.0405 80.5076 16.0405C80.6091 16.0405 80.7107 16.0405 80.8122 16.0405C80.9137 16.0405 81.0152 16.0405 81.1167 15.9389V17.1572C80.9137 17.1572 80.8122 17.1572 80.6091 17.2587C80.4061 17.2587 80.3046 17.2587 80.1015 17.2587C79.6954 17.2587 79.2893 17.2587 79.0863 17.1572C78.7817 17.0557 78.5787 16.9542 78.4772 16.8526C78.3756 16.6496 78.2741 16.5481 78.1726 16.2435C78.0711 16.0405 78.0711 15.7359 78.0711 15.4313V11.0658H76.8528V9.84756H76.9543Z" fill="#4F4B6C"/>
<path d="M19.4924 7.1066H12.0812L9.74619 0L7.41117 7.1066H0L5.98985 11.4721L3.65482 18.5787L9.64467 14.2132L15.6345 18.5787L13.2995 11.4721L19.4924 7.1066Z" fill="#00B67A"/>
<path d="M14.0102 12.995L13.5025 11.3706L9.74619 14.1117L14.0102 12.995Z" fill="#005128"/>
</g>
<defs>
<clipPath id="clip0">
<rect width="81.3198" height="20" fill="white"/>
</clipPath>
</defs>
</svg>
