<svg width="81" height="20" viewBox="0 0 81 20" fill="none" xmlns="http://www.w3.org/2000/svg">
<g clip-path="url(#clip0)">
<path d="M21 7H29.1V8.5H26V17H24.3V8.5H21V7ZM28.8 9.7H30.3V11.1C30.4 10.9 30.4 10.7 30.6 10.5C30.7 10.3 30.9 10.1 31.1 10C31.3 9.8 31.5 9.7 31.7 9.6C31.9 9.5 32.2 9.5 32.4 9.5C32.6 9.5 32.7 9.5 32.8 9.5C32.9 9.5 32.9 9.5 33 9.5V11C32.9 11 32.8 11 32.7 10.9C32.6 10.9 32.5 10.9 32.4 10.9C32.1 10.9 31.9 11 31.6 11.1C31.4 11.2 31.2 11.4 31 11.6C30.8 11.8 30.7 12.1 30.6 12.4C30.5 12.7 30.4 13.1 30.4 13.5V16.9H28.8V9.7ZM40.4 17H38.8V16C38.6 16.4 38.3 16.7 37.9 16.9C37.5 17.1 37.1 17.2 36.7 17.2C35.8 17.2 35.1 17 34.6 16.5C34.2 16 34 15.3 34 14.3V9.7H35.6V14.1C35.6 14.7 35.7 15.2 36 15.4C36.2 15.7 36.6 15.8 37 15.8C37.3 15.8 37.6 15.7 37.8 15.6C38 15.5 38.2 15.4 38.3 15.2C38.4 15 38.5 14.8 38.6 14.6C38.7 14.4 38.7 14.1 38.7 13.8V9.7H40.3L40.4 17ZM43.1 14.7C43.2 15.2 43.3 15.5 43.6 15.7C43.9 15.9 44.3 16 44.7 16C44.8 16 45 16 45.2 16C45.4 16 45.6 15.9 45.7 15.9C45.9 15.8 46 15.7 46.1 15.6C46.2 15.5 46.3 15.3 46.2 15.1C46.2 14.9 46.1 14.7 46 14.6C45.9 14.5 45.7 14.4 45.5 14.3C45.3 14.2 45 14.2 44.8 14.1C44.5 14 44.2 14 43.9 13.9C43.6 13.8 43.3 13.8 43 13.7C42.7 13.6 42.5 13.5 42.3 13.3C42.1 13.1 41.9 12.9 41.8 12.7C41.7 12.4 41.6 12.2 41.6 11.8C41.6 11.4 41.7 11.1 41.9 10.8C42.1 10.5 42.3 10.3 42.6 10.2C42.9 10 43.2 9.9 43.6 9.9C44 9.8 44.3 9.8 44.6 9.8C45 9.8 45.3 9.8 45.7 9.9C46 10 46.4 10.1 46.6 10.3C46.9 10.5 47.1 10.7 47.3 11C47.5 11.3 47.6 11.6 47.6 12H46C45.9 11.6 45.7 11.4 45.5 11.2C45.2 11.1 44.9 11 44.6 11C44.5 11 44.3 11 44.2 11C44 11 43.9 11.1 43.8 11.1C43.7 11.2 43.5 11.2 43.5 11.3C43.5 11.4 43.4 11.5 43.4 11.7C43.4 11.9 43.5 12 43.6 12.2C43.7 12.3 43.9 12.4 44.1 12.5C44.3 12.6 44.6 12.6 44.8 12.7C45.1 12.8 45.4 12.8 45.7 12.9C46 13 46.3 13 46.6 13.1C46.9 13.2 47.1 13.3 47.3 13.5C47.5 13.7 47.7 13.9 47.8 14.1C47.9 14.3 48 14.6 48 15C48 15.4 47.9 15.8 47.7 16.1C47.5 16.4 47.2 16.6 46.9 16.8C46.6 17 46.2 17.1 45.9 17.2C45.5 17.3 45.1 17.3 44.8 17.3C44.3 17.3 43.9 17.2 43.5 17.1C43.1 17 42.8 16.8 42.5 16.6C42.2 16.4 42 16.1 41.8 15.8C41.6 15.5 41.5 15.1 41.5 14.7H43.1ZM48.4 9.7H49.6V7.5H51.2V9.7H52.6V10.9H51.2V14.8C51.2 15 51.2 15.1 51.2 15.2C51.2 15.3 51.3 15.4 51.3 15.5C51.4 15.6 51.4 15.6 51.5 15.7C51.6 15.7 51.7 15.8 51.9 15.8C52 15.8 52.1 15.8 52.2 15.8C52.3 15.8 52.4 15.8 52.5 15.7V16.9C52.3 16.9 52.2 16.9 52 17C51.8 17 51.7 17 51.5 17C51.1 17 50.7 17 50.5 16.9C50.2 16.8 50 16.7 49.9 16.6C49.8 16.4 49.7 16.3 49.6 16C49.5 15.8 49.5 15.5 49.5 15.2V10.9H48.3V9.7H48.4ZM53.7 9.7H55.2V10.7C55.4 10.3 55.7 10 56.1 9.8C56.5 9.6 56.9 9.5 57.4 9.5C58 9.5 58.5 9.6 58.9 9.8C59.3 10 59.7 10.3 60 10.6C60.3 10.9 60.5 11.4 60.6 11.8C60.7 12.3 60.8 12.8 60.8 13.3C60.8 13.8 60.7 14.3 60.6 14.7C60.5 15.2 60.3 15.6 60 15.9C59.7 16.2 59.4 16.5 59 16.7C58.6 16.9 58.1 17 57.6 17C57.4 17 57.1 17 56.9 16.9C56.7 16.9 56.4 16.8 56.2 16.7C56 16.6 55.8 16.5 55.6 16.3C55.4 16.2 55.3 16 55.1 15.8V19.4H53.5L53.7 9.7ZM59.3 13.4C59.3 13.1 59.3 12.8 59.2 12.5C59.1 12.2 59 11.9 58.8 11.7C58.6 11.5 58.4 11.3 58.2 11.1C57.9 11 57.7 10.9 57.3 10.9C56.6 10.9 56.1 11.1 55.8 11.6C55.5 12.1 55.3 12.7 55.3 13.5C55.3 13.9 55.3 14.2 55.4 14.5C55.5 14.8 55.6 15.1 55.8 15.3C56 15.5 56.2 15.7 56.4 15.8C56.7 15.9 56.9 16 57.3 16C57.7 16 58 15.9 58.2 15.8C58.5 15.7 58.7 15.5 58.8 15.2C59 15 59.1 14.7 59.1 14.4C59.3 14 59.3 13.7 59.3 13.4ZM62.2 7H63.8V8.5H62.2V7ZM62.2 9.7H63.8V17H62.2V9.7ZM65.2 7H66.8V17H65.2V7ZM71.7 17.2C71.1 17.2 70.6 17.1 70.2 16.9C69.7 16.7 69.4 16.4 69.1 16.1C68.8 15.8 68.6 15.4 68.4 14.9C68.2 14.4 68.1 13.9 68.1 13.4C68.1 12.9 68.2 12.3 68.4 11.9C68.6 11.4 68.8 11 69.1 10.7C69.4 10.4 69.8 10.1 70.2 9.9C70.7 9.7 71.2 9.6 71.7 9.6C72.3 9.6 72.8 9.7 73.2 9.9C73.7 10.1 74 10.4 74.3 10.7C74.6 11 74.8 11.4 75 11.9C75.2 12.4 75.3 12.9 75.3 13.4C75.3 14 75.2 14.5 75 14.9C74.8 15.4 74.6 15.8 74.3 16.1C74 16.4 73.6 16.7 73.2 16.9C72.8 17.1 72.3 17.2 71.7 17.2ZM71.7 15.9C72 15.9 72.4 15.8 72.6 15.7C72.9 15.6 73.1 15.4 73.2 15.1C73.3 14.8 73.5 14.6 73.6 14.3C73.7 14 73.7 13.7 73.7 13.4C73.7 13.1 73.7 12.8 73.6 12.5C73.5 12.2 73.4 11.9 73.2 11.7C73 11.5 72.8 11.3 72.6 11.1C72.3 11 72 10.9 71.7 10.9C71.4 10.9 71 11 70.8 11.1C70.5 11.2 70.3 11.4 70.2 11.7C70 11.9 69.9 12.2 69.8 12.5C69.7 12.8 69.7 13.1 69.7 13.4C69.7 13.7 69.7 14 69.8 14.3C69.9 14.6 70 14.9 70.2 15.1C70.4 15.3 70.6 15.5 70.8 15.7C71 15.8 71.3 15.9 71.7 15.9ZM75.8 9.7H77V7.5H78.6V9.7H80V10.9H78.6V14.8C78.6 15 78.6 15.1 78.6 15.2C78.6 15.3 78.7 15.4 78.7 15.5C78.8 15.6 78.8 15.6 78.9 15.7C79 15.7 79.1 15.8 79.3 15.8C79.4 15.8 79.5 15.8 79.6 15.8C79.7 15.8 79.8 15.8 79.9 15.7V16.9C79.7 16.9 79.6 16.9 79.4 17C79.2 17 79.1 17 78.9 17C78.5 17 78.1 17 77.9 16.9C77.6 16.8 77.4 16.7 77.3 16.6C77.2 16.4 77.1 16.3 77 16C76.9 15.8 76.9 15.5 76.9 15.2V10.9H75.7V9.7H75.8Z" fill="white"/>
<path d="M19.2 7H11.9L9.6 0L7.3 7H0L5.9 11.3L3.6 18.3L9.5 14L15.4 18.3L13.1 11.3L19.2 7Z" fill="#00B67A"/>
<path d="M13.8 12.8L13.3 11.2L9.60001 13.9L13.8 12.8Z" fill="#005128"/>
</g>
<defs>
<clipPath id="clip0">
<rect width="80.1" height="19.7" fill="white"/>
</clipPath>
</defs>
</svg>
