<?xml version="1.0" encoding="UTF-8" standalone="no"?>
<svg
   xmlns:dc="http://purl.org/dc/elements/1.1/"
   xmlns:cc="http://creativecommons.org/ns#"
   xmlns:rdf="http://www.w3.org/1999/02/22-rdf-syntax-ns#"
   xmlns:svg="http://www.w3.org/2000/svg"
   xmlns="http://www.w3.org/2000/svg"
   xmlns:xlink="http://www.w3.org/1999/xlink"
   id="svg36"
   version="1.1"
   viewBox="0 0 4972.6813 3645.3627"
   height="462.9032"
   width="631.4516">
  <metadata
     id="metadata40">
    <rdf:RDF>
      <cc:Work
         rdf:about="">
        <dc:format>image/svg+xml</dc:format>
        <dc:type
           rdf:resource="http://purl.org/dc/dcmitype/StillImage" />
        <dc:title></dc:title>
      </cc:Work>
    </rdf:RDF>
  </metadata>
  <defs
     id="defs8">
    <clipPath
       id="b">
      <path
         id="path2"
         d="M 0,0 V 1.5 H 7 V 3 H 6 Z M 6,0 H 3 V 3.5 H 0 V 3 Z" />
    </clipPath>
    <path
       d="M 0,-360 69.421,-144.155 281.459,-224.456 155.99,-35.603 350.975,80.107 125.094,99.758 156.199,324.348 0,160 l -156.198,164.349 31.105,-224.59 -225.881,-19.651 194.986,-115.711 -125.471,-188.853 212.038,80.301 z"
       id="a" />
    <path
       d="M 0,-210 54.86,-75.508 199.722,-64.894 88.765,28.842 123.435,169.894 0,93.334 -123.435,169.894 -88.765,28.842 -199.722,-64.894 -54.86,-75.508 Z"
       id="d" />
    <use
       height="100%"
       width="100%"
       y="0"
       x="0"
       transform="scale(2.1)"
       xlink:href="#a"
       id="c" />
    <g
       transform="translate(0,-36)"
       id="d-3">
      <g
         id="c-6">
        <g
           id="b-7">
          <path
             style="fill:#ffffff"
             d="m 0,-5 -1.5,4.8 2.8,0.9 z"
             id="a-5" />
          <use
             y="0"
             x="0"
             id="use3"
             xlink:href="#a-5"
             transform="scale(-1,1)"
             height="120"
             width="180" />
        </g>
        <use
           y="0"
           x="0"
           id="use6"
           xlink:href="#b-7"
           transform="rotate(72)"
           height="120"
           width="180" />
      </g>
      <use
         y="0"
         x="0"
         id="use9"
         xlink:href="#b-7"
         transform="rotate(-72)"
         height="120"
         width="180" />
      <use
         y="0"
         x="0"
         id="use11"
         xlink:href="#c-6"
         transform="rotate(144)"
         height="120"
         width="180" />
    </g>
    <linearGradient
       id="grad1"
       y2="277.57999"
       gradientUnits="userSpaceOnUse"
       x2="601.38"
       gradientTransform="matrix(1.146366,0,0,1.1711652,33.178489,82.1384)"
       y1="342.29999"
       x1="597.91998">
      <stop
         stop-color="#fff"
         offset="0"
         id="stop37" />
      <stop
         stop-color="#1ea8d1"
         offset="1"
         id="stop39" />
    </linearGradient>
    <linearGradient
       id="grad2"
       y2="399.5"
       gradientUnits="userSpaceOnUse"
       x2="600.31"
       gradientTransform="matrix(1.146366,0,0,1.1711652,33.178489,82.1384)"
       y1="326.42999"
       x1="599.96002">
      <stop
         stop-color="#FFF"
         offset="0"
         id="stop42" />
      <stop
         stop-color="#c1d3e8"
         offset="0.1312"
         id="stop44" />
      <stop
         stop-color="#88b0d5"
         offset="0.2994"
         id="stop46" />
      <stop
         stop-color="#5998c6"
         offset="0.4634"
         id="stop48" />
      <stop
         stop-color="#2c87bc"
         offset="0.6191"
         id="stop50" />
      <stop
         stop-color="#007db5"
         offset="0.7645"
         id="stop52" />
      <stop
         stop-color="#0077b0"
         offset="0.8956"
         id="stop54" />
      <stop
         stop-color="#0075af"
         offset="1"
         id="stop56" />
    </linearGradient>
    <clipPath
       id="clipPath327"
       clipPathUnits="userSpaceOnUse">
      <path
         d="M 88.99732,121.40226 H 5061.6787 V 3766.7649 H 88.99732 Z"
         id="path329"
         style="fill:#012169;stroke-width:0.59733808" />
    </clipPath>
  </defs>
  <path
     style="fill:#012169;stroke-width:0.59733802"
     id="path10"
     d="M 4e-6,0 H 4972.6814 V 3645.3626 H 4e-6 Z" />
  <g
     transform="translate(-88.997318,-121.40226)"
     clip-path="url(#clipPath327)"
     id="g323">
    <path
       d="M 88.997318,121.40226 2575.338,1944.0837 m 0,-1822.68144 L 88.997318,1944.0837"
       id="path12"
       style="stroke:#ffffff;stroke-width:301.05834961" />
    <path
       d="M 0,0 6,3 M 6,0 0,3"
       clip-path="url(#b)"
       transform="matrix(414.39011,0,0,607.56043,88.997318,121.40226)"
       id="path14"
       style="stroke:#e4002b;stroke-width:0.40000001" />
    <path
       d="M 1332.1677,121.40226 V 2247.8639 M 88.997318,1032.743 H 2989.7281"
       id="path16"
       style="stroke:#ffffff;stroke-width:501.76391602" />
    <path
       d="M 1332.1677,121.40226 V 2247.8639 M 88.997318,1032.743 H 2989.7281"
       id="path18"
       style="stroke:#e4002b;stroke-width:301.05834961" />
  </g>
  <path
     style="fill:#012169;stroke-width:0.59733802"
     id="path20"
     d="M 0,1822.6814 H 2486.3407 V 0 H 3315.121 V 2430.2417 H 0 Z" />
  <use
     transform="matrix(0.73698732,0,0,0.73698732,-543.19466,-123.9795)"
     xlink:href="#c"
     x="2520"
     y="3780"
     id="use22"
     width="100%"
     height="100%"
     style="fill:#ffffff" />
  <use
     transform="matrix(0.68614808,0,0,0.68614808,-1375.5667,-51.464996)"
     xlink:href="#a"
     x="7560"
     y="4200"
     id="use24"
     width="100%"
     height="100%"
     style="fill:#ffffff" />
  <use
     transform="matrix(0.68614808,0,0,0.68614808,-1375.5667,-51.464996)"
     xlink:href="#a"
     x="6300"
     y="2205"
     id="use26"
     width="100%"
     height="100%"
     style="fill:#ffffff" />
  <use
     transform="matrix(0.68614808,0,0,0.68614808,-1375.5667,-51.464996)"
     xlink:href="#a"
     x="7560"
     y="840"
     id="use28"
     width="100%"
     height="100%"
     style="fill:#ffffff" />
  <use
     transform="matrix(0.68614808,0,0,0.68614808,-1375.5667,-51.464996)"
     xlink:href="#a"
     x="8680"
     y="1869"
     id="use30"
     width="100%"
     height="100%"
     style="fill:#ffffff" />
  <use
     transform="matrix(0.68614808,0,0,0.68614808,-1375.5667,-51.464996)"
     xlink:href="#d"
     x="8064"
     y="2730"
     id="use32"
     width="100%"
     height="100%"
     style="fill:#ffffff" />
</svg>
