<svg width="64" height="64" viewBox="0 0 64 64" fill="none" xmlns="http://www.w3.org/2000/svg">
<rect width="64" height="64" fill="#F7931A"/>
<path d="M45.534 28.291C46.171 24.033 42.929 21.744 38.496 20.217L39.934 14.449L36.423 13.574L35.023 19.19C34.1 18.96 33.152 18.743 32.21 18.528L33.62 12.875L30.111 12L28.672 17.766C27.908 17.592 27.158 17.42 26.43 17.239L26.434 17.221L21.592 16.012L20.658 19.762C20.658 19.762 23.263 20.359 23.208 20.396C24.63 20.751 24.887 21.692 24.844 22.438L23.206 29.009C23.304 29.034 23.431 29.07 23.571 29.126C23.454 29.097 23.329 29.065 23.2 29.034L20.904 38.239C20.73 38.671 20.289 39.319 19.295 39.073C19.33 39.124 16.743 38.436 16.743 38.436L15 42.455L19.569 43.594C20.419 43.807 21.252 44.03 22.072 44.24L20.619 50.074L24.126 50.949L25.565 45.177C26.523 45.437 27.453 45.677 28.363 45.903L26.929 51.648L30.44 52.523L31.893 46.7C37.88 47.833 42.382 47.376 44.277 41.961C45.804 37.601 44.201 35.086 41.051 33.446C43.345 32.917 45.073 31.408 45.534 28.291V28.291ZM37.512 39.54C36.427 43.9 29.086 41.543 26.706 40.952L28.634 33.223C31.014 33.817 38.646 34.993 37.512 39.54ZM38.598 28.228C37.608 32.194 31.498 30.179 29.516 29.685L31.264 22.675C33.246 23.169 39.629 24.091 38.598 28.228Z" fill="white"/>
</svg>
