<?xml version="1.0" encoding="UTF-8" standalone="no"?>
<svg
   xmlns:dc="http://purl.org/dc/elements/1.1/"
   xmlns:cc="http://creativecommons.org/ns#"
   xmlns:rdf="http://www.w3.org/1999/02/22-rdf-syntax-ns#"
   xmlns:svg="http://www.w3.org/2000/svg"
   xmlns="http://www.w3.org/2000/svg"
   xmlns:xlink="http://www.w3.org/1999/xlink"
   version="1.1"
   viewBox="0 0 640 480"
   id="flag-icon-css-ve">
  <metadata
     id="metadata35">
    <rdf:RDF>
      <cc:Work
         rdf:about="">
        <dc:format>image/svg+xml</dc:format>
        <dc:type
           rdf:resource="http://purl.org/dc/dcmitype/StillImage" />
        <dc:title></dc:title>
      </cc:Work>
    </rdf:RDF>
  </metadata>
  <defs
     id="defs14">
    <g
       transform="translate(0 -36)"
       id="d">
      <g
         id="c">
        <g
           id="b">
          <path
             d="M0-5L-1.5-.2l2.8.9z"
             fill="#fff"
             id="a" />
          <use
             id="use3"
             xlink:href="#a"
             transform="scale(-1 1)"
             height="120"
             width="180" />
        </g>
        <use
           id="use6"
           xlink:href="#b"
           transform="rotate(72)"
           height="120"
           width="180" />
      </g>
      <use
         id="use9"
         xlink:href="#b"
         transform="rotate(-72)"
         height="120"
         width="180" />
      <use
         id="use11"
         xlink:href="#c"
         transform="rotate(144)"
         height="120"
         width="180" />
    </g>
    <linearGradient
       id="grad1"
       y2="277.58"
       gradientUnits="userSpaceOnUse"
       x2="601.38"
       gradientTransform="matrix(1.146366,0,0,1.1711652,33.178489,82.1384)"
       y1="342.3"
       x1="597.92">
      <stop
         stop-color="#fff"
         offset="0"
         id="stop37" />
      <stop
         stop-color="#1ea8d1"
         offset="1"
         id="stop39" />
    </linearGradient>
    <linearGradient
       id="grad2"
       y2="399.5"
       gradientUnits="userSpaceOnUse"
       x2="600.31"
       gradientTransform="matrix(1.146366,0,0,1.1711652,33.178489,82.1384)"
       y1="326.43"
       x1="599.96">
      <stop
         stop-color="#FFF"
         offset="0"
         id="stop42" />
      <stop
         stop-color="#c1d3e8"
         offset="0.1312"
         id="stop44" />
      <stop
         stop-color="#88b0d5"
         offset="0.2994"
         id="stop46" />
      <stop
         stop-color="#5998c6"
         offset="0.4634"
         id="stop48" />
      <stop
         stop-color="#2c87bc"
         offset="0.6191"
         id="stop50" />
      <stop
         stop-color="#007db5"
         offset="0.7645"
         id="stop52" />
      <stop
         stop-color="#0077b0"
         offset="0.8956"
         id="stop54" />
      <stop
         stop-color="#0075af"
         offset="1"
         id="stop56" />
    </linearGradient>
  </defs>
  <g
     transform="translate(-764.47458,99.932699)"
     id="g10622">
</g>
  <g
     transform="translate(-764.47458,99.932699)"
     id="g10624">
</g>
  <g
     transform="translate(-764.47458,99.932699)"
     id="g10626">
</g>
  <g
     transform="translate(-764.47458,99.932699)"
     id="g10628">
</g>
  <g
     transform="translate(-764.47458,99.932699)"
     id="g10630">
</g>
  <g
     transform="translate(-764.47458,99.932699)"
     id="g10632">
</g>
  <g
     transform="translate(-764.47458,99.932699)"
     id="g10634">
</g>
  <g
     transform="translate(-764.47458,99.932699)"
     id="g10636">
</g>
  <g
     transform="translate(-764.47458,99.932699)"
     id="g10638">
</g>
  <g
     transform="translate(-764.47458,99.932699)"
     id="g10640">
</g>
  <g
     transform="translate(-764.47458,99.932699)"
     id="g10642">
</g>
  <g
     transform="translate(-764.47458,99.932699)"
     id="g10644">
</g>
  <g
     transform="translate(-764.47458,99.932699)"
     id="g10646">
</g>
  <g
     transform="translate(-764.47458,99.932699)"
     id="g10648">
</g>
  <g
     transform="translate(-764.47458,99.932699)"
     id="g10650">
</g>
  <g
     transform="translate(-658.71186,-83.118636)"
     id="g11061">
</g>
  <g
     transform="translate(-658.71186,-83.118636)"
     id="g11063">
</g>
  <g
     transform="translate(-658.71186,-83.118636)"
     id="g11065">
</g>
  <g
     transform="translate(-658.71186,-83.118636)"
     id="g11067">
</g>
  <g
     transform="translate(-658.71186,-83.118636)"
     id="g11069">
</g>
  <g
     transform="translate(-658.71186,-83.118636)"
     id="g11071">
</g>
  <g
     transform="translate(-658.71186,-83.118636)"
     id="g11073">
</g>
  <g
     transform="translate(-658.71186,-83.118636)"
     id="g11075">
</g>
  <g
     transform="translate(-658.71186,-83.118636)"
     id="g11077">
</g>
  <g
     transform="translate(-658.71186,-83.118636)"
     id="g11079">
</g>
  <g
     transform="translate(-658.71186,-83.118636)"
     id="g11081">
</g>
  <g
     transform="translate(-658.71186,-83.118636)"
     id="g11083">
</g>
  <g
     transform="translate(-658.71186,-83.118636)"
     id="g11085">
</g>
  <g
     transform="translate(-658.71186,-83.118636)"
     id="g11087">
</g>
  <g
     transform="translate(-658.71186,-83.118636)"
     id="g11089">
</g>
  <g
     transform="translate(-717.69492,-81.084738)"
     id="g11579">
</g>
  <g
     transform="translate(-717.69492,-81.084738)"
     id="g11581">
</g>
  <g
     transform="translate(-717.69492,-81.084738)"
     id="g11583">
</g>
  <g
     transform="translate(-717.69492,-81.084738)"
     id="g11585">
</g>
  <g
     transform="translate(-717.69492,-81.084738)"
     id="g11587">
</g>
  <g
     transform="translate(-717.69492,-81.084738)"
     id="g11589">
</g>
  <g
     transform="translate(-717.69492,-81.084738)"
     id="g11591">
</g>
  <g
     transform="translate(-717.69492,-81.084738)"
     id="g11593">
</g>
  <g
     transform="translate(-717.69492,-81.084738)"
     id="g11595">
</g>
  <g
     transform="translate(-717.69492,-81.084738)"
     id="g11597">
</g>
  <g
     transform="translate(-717.69492,-81.084738)"
     id="g11599">
</g>
  <g
     transform="translate(-717.69492,-81.084738)"
     id="g11601">
</g>
  <g
     transform="translate(-717.69492,-81.084738)"
     id="g11603">
</g>
  <g
     transform="translate(-717.69492,-81.084738)"
     id="g11605">
</g>
  <g
     transform="translate(-717.69492,-81.084738)"
     id="g11607">
</g>
  <g
     transform="translate(-786.84746,61.288143)"
     id="g11832">
</g>
  <g
     transform="translate(-786.84746,61.288143)"
     id="g11834">
</g>
  <g
     transform="translate(-786.84746,61.288143)"
     id="g11836">
</g>
  <g
     transform="translate(-786.84746,61.288143)"
     id="g11838">
</g>
  <g
     transform="translate(-786.84746,61.288143)"
     id="g11840">
</g>
  <g
     transform="translate(-786.84746,61.288143)"
     id="g11842">
</g>
  <g
     transform="translate(-786.84746,61.288143)"
     id="g11844">
</g>
  <g
     transform="translate(-786.84746,61.288143)"
     id="g11846">
</g>
  <g
     transform="translate(-786.84746,61.288143)"
     id="g11848">
</g>
  <g
     transform="translate(-786.84746,61.288143)"
     id="g11850">
</g>
  <g
     transform="translate(-786.84746,61.288143)"
     id="g11852">
</g>
  <g
     transform="translate(-786.84746,61.288143)"
     id="g11854">
</g>
  <g
     transform="translate(-786.84746,61.288143)"
     id="g11856">
</g>
  <g
     transform="translate(-786.84746,61.288143)"
     id="g11858">
</g>
  <g
     transform="translate(-786.84746,61.288143)"
     id="g11860">
</g>
  <g
     transform="matrix(1.2499999,0,0,0.93749087,-0.0037244,2.0463858e-7)"
     id="g12179">
	<rect
   id="rect12175"
   height="53.895"
   width="512"
   style="fill:#ff4b55"
   x="0.003"
   y="0" />

	<rect
   id="rect12177"
   height="53.895"
   width="512"
   style="fill:#ff4b55"
   y="458.10999"
   x="0.003" />

</g>
  <rect
     id="rect12181"
     height="378.94318"
     width="639.99994"
     style="fill:#41479b;stroke-width:1.08252645"
     y="50.528412"
     x="3.0517578e-05" />
  <g
     transform="translate(860.74843,-64.813903)"
     id="g12980">
    <path
       style="fill:#f5f5f5;stroke-width:0.93749088"
       d="m -407.86158,202.64877 c 103.87305,164.79965 -70.25275,338.92545 -235.05239,235.0524 -12.40113,-7.8168 -22.90572,-18.32045 -30.72158,-30.72158 -103.87211,-164.80058 70.25182,-338.925445 235.05146,-235.05333 12.40207,7.8168 22.90665,18.32045 30.72251,30.72251 z"
       id="path12183" />
    <g
       id="g12189"
       transform="matrix(0.93749087,0,0,0.93749087,-780.74857,64.816052)">
	<path
   style="fill:#82afff"
   d="m 222.393,348.104 -27.021,4.504 c -3.406,0.568 -6.507,-2.059 -6.507,-5.512 v -10.168 h 33.528 z"
   id="path12185" />

	<path
   style="fill:#82afff"
   d="m 289.449,348.104 27.021,4.504 c 3.406,0.568 6.507,-2.059 6.507,-5.512 v -10.168 h -33.528 z"
   id="path12187" />

</g>
    <g
       id="g12203"
       transform="matrix(0.93749087,0,0,0.93749087,-780.74857,64.816052)">
	<path
   style="fill:#965032"
   d="m 250.333,166.326 h -2.336 c -2.805,0 -5.326,-1.561 -6.581,-4.065 l -4.134,-8.267 3.749,-1.877 4.134,8.267 c 0.54,1.08 1.626,1.752 2.832,1.752 h 2.336 z"
   id="path12191" />

	
		<rect
   x="200.89101"
   y="163.47"
   transform="matrix(0.4472,0.8944,-0.8944,0.4472,263.4179,-95.0869)"
   style="fill:#965032"
   width="15.491"
   height="4.1929998"
   id="rect12193" />

	<path
   style="fill:#965032"
   d="m 263.604,230.757 -11.452,-11.449 c -2.488,-2.488 -3.915,-5.932 -3.915,-9.452 v -3.853 c 0,-1.413 -0.336,-2.832 -0.969,-4.098 l -2.854,-5.708 c -0.595,-1.19 -1.793,-1.932 -3.124,-1.932 h -9.855 c -2.93,0 -5.563,-1.626 -6.873,-4.246 l -4.044,-8.087 3.749,-1.877 4.044,8.087 c 0.595,1.19 1.793,1.932 3.124,1.932 h 9.855 c 2.93,0 5.563,1.626 6.873,4.246 l 2.854,5.708 c 0.922,1.85 1.411,3.913 1.411,5.975 v 3.853 c 0,2.417 0.98,4.78 2.688,6.483 l 4.297,4.3 v -19.525 c 0,-5.293 -1.823,-10.483 -5.13,-14.619 -3.899,-4.879 -6.046,-10.996 -6.046,-17.239 v -16.202 h 4.191 v 16.202 c 0,5.293 1.823,10.483 5.13,14.619 3.899,4.879 6.046,10.996 6.046,17.239 z"
   id="path12195" />

	<path
   style="fill:#965032"
   d="m 253.635,219.919 h -6.221 c -3.836,0 -7.31,-2.417 -8.647,-6.008 l -1.574,-4.246 3.929,-1.462 1.574,4.246 c 0.729,1.965 2.625,3.28 4.718,3.28 h 6.221 z"
   id="path12197" />

	<polygon
   style="fill:#965032"
   points="274.603,148.312 251.062,201.813 247.225,200.121 270.767,146.621 "
   id="polygon12199" />

	<polygon
   style="fill:#965032"
   points="260.112,194.266 260.112,190.075 276.177,190.075 276.177,169.818 280.367,169.818 280.367,194.266 "
   id="polygon12201" />

</g>
    <g
       id="g12223"
       transform="matrix(0.93749087,0,0,0.93749087,-780.74857,64.816052)">
	<path
   style="fill:#73af00"
   d="m 245.355,214.522 h -23.574 c -2.749,0 -4.977,-2.228 -4.977,-4.977 v -6.81 c 0,-2.749 2.228,-4.977 4.977,-4.977 h 23.574 c 2.749,0 4.977,2.228 4.977,4.977 v 6.81 c 0.001,2.749 -2.227,4.977 -4.977,4.977 z"
   id="path12205" />

	<path
   style="fill:#73af00"
   d="m 284.471,214.522 h -23.574 c -2.749,0 -4.977,-2.228 -4.977,-4.977 v -6.81 c 0,-2.749 2.228,-4.977 4.977,-4.977 h 23.574 c 2.749,0 4.977,2.228 4.977,4.977 v 6.81 c 0.001,2.749 -2.228,4.977 -4.977,4.977 z"
   id="path12207" />

	<path
   style="fill:#73af00"
   d="m 301.236,197.758 h -29.162 c -2.749,0 -4.977,-2.228 -4.977,-4.977 v -6.81 c 0,-2.749 2.228,-4.977 4.977,-4.977 h 29.162 c 2.749,0 4.977,2.228 4.977,4.977 v 6.81 c -0.001,2.749 -2.229,4.977 -4.977,4.977 z"
   id="path12209" />

	<path
   style="fill:#73af00"
   d="m 306.824,175.406 h -45.926 c -2.749,0 -4.977,-2.228 -4.977,-4.977 v -6.81 c 0,-2.749 2.228,-4.977 4.977,-4.977 h 45.926 c 2.749,0 4.977,2.228 4.977,4.977 v 6.81 c 0,2.749 -2.228,4.977 -4.977,4.977 z"
   id="path12211" />

	<path
   style="fill:#73af00"
   d="m 284.471,153.054 h -17.986 c -2.749,0 -4.977,-2.228 -4.977,-4.977 v -6.81 c 0,-2.749 2.228,-4.977 4.977,-4.977 h 17.986 c 2.749,0 4.977,2.228 4.977,4.977 v 6.81 c 0.001,2.749 -2.228,4.977 -4.977,4.977 z"
   id="path12213" />

	<path
   style="fill:#73af00"
   d="m 211.829,164.23 h -12.398 c -2.749,0 -4.977,-2.228 -4.977,-4.977 v -6.81 c 0,-2.749 2.228,-4.977 4.977,-4.977 h 12.398 c 2.749,0 4.977,2.228 4.977,4.977 v 6.81 c -0.001,2.749 -2.229,4.977 -4.977,4.977 z"
   id="path12215" />

	<path
   style="fill:#73af00"
   d="m 250.943,158.642 h -23.574 c -2.749,0 -4.977,-2.228 -4.977,-4.977 v -6.81 c 0,-2.749 2.228,-4.977 4.977,-4.977 h 23.574 c 2.749,0 4.977,2.228 4.977,4.977 v 6.81 c 0.001,2.749 -2.227,4.977 -4.977,4.977 z"
   id="path12217" />

	<path
   style="fill:#73af00"
   d="m 245.355,186.582 h -40.338 c -2.749,0 -4.977,-2.228 -4.977,-4.977 v -6.81 c 0,-2.749 2.228,-4.977 4.977,-4.977 h 40.338 c 2.749,0 4.977,2.228 4.977,4.977 v 6.81 c 0.001,2.749 -2.227,4.977 -4.977,4.977 z"
   id="path12219" />

	<path
   style="fill:#73af00"
   d="M 339.741,303.4 H 172.102 c -6.172,0 -11.176,5.003 -11.176,11.176 0,6.172 5.004,11.176 11.176,11.176 h 44.704 c 0,6.172 5.004,11.176 11.176,11.176 h 55.88 c 6.172,0 11.176,-5.004 11.176,-11.176 h 44.704 c 6.172,0 11.176,-5.004 11.176,-11.176 -0.001,-6.172 -5.005,-11.176 -11.177,-11.176 z"
   id="path12221" />

</g>
    <path
       style="fill:#be7855;stroke-width:0.93749088"
       d="m -436.37911,256.26481 c -0.39093,-0.78561 -2.4356,0.14719 -3.71059,-0.32718 -15.82578,-5.88369 -37.07495,-16.60015 -50.96294,-23.90696 l -2.7881,-4.41464 -26.32474,-12.79488 c -1.6753,-0.81468 -3.69465,-0.18843 -4.61621,1.43155 l -1.29749,2.28185 c -0.98999,1.74093 -0.33655,3.95622 1.44093,4.88058 l 25.06757,13.04144 7.08368,-0.52406 27.53129,14.15424 c 0,0 18.70482,9.56803 19.6995,10.27115 0.99468,0.70312 1.56467,4.63776 3.41996,4.31058 1.32749,-0.23437 7.15118,-4.99964 5.45714,-8.40367 z"
       id="path12225" />
    <g
       id="g12231"
       transform="matrix(0.93749087,0,0,0.93749087,-780.74857,64.816052)">
	<path
   style="fill:#ffbe3c"
   d="m 182.113,311.782 c 0,0 1.863,8.266 0.116,9.197 -1.746,0.931 -11.06,0.931 -10.827,-1.048 0.233,-1.979 1.513,-8.964 1.513,-8.964 z"
   id="path12227" />

	<path
   style="fill:#ffbe3c"
   d="m 197.596,307.358 c 0,0 -1.513,6.17 1.513,6.403 3.027,0.233 20.14,0.116 20.606,-0.349 0.466,-0.466 1.048,-1.63 1.048,-1.63 l -15.833,-4.424 z"
   id="path12229" />

</g>
    <path
       style="fill:#eaf3f5;stroke-width:0.93749088"
       d="m -611.79303,280.82051 c 0,0 -3.90183,9.27647 -5.32026,41.41835 -0.37781,8.55179 0.65437,6.54837 -3.60184,34.05154 l 5.0512,2.63716 c 1.47093,0.76781 3.23716,0.71156 4.65652,-0.14812 l 4.91714,-2.98028 c 0,0 -2.40092,-30.77689 5.45713,-48.45797 0,0 4.14746,7.63961 4.14746,13.31518 0,5.67557 -0.21843,32.96031 -0.21843,32.96031 0,0 9.16772,1.52811 13.31518,1.09124 0,0 -2.61935,-59.20818 -5.2387,-73.15054 z"
       id="path12233" />
    <g
       id="g12239"
       transform="matrix(0.93749087,0,0,0.93749087,-780.74857,64.816052)">
	<path
   style="fill:#965032"
   d="m 181.007,226.216 c 0,0 -1.659,1.222 -0.786,4.191 0,0 12.748,5.501 24.709,0.786 0,0 1.31,-1.921 -0.349,-4.278 z"
   id="path12235" />

	<path
   style="fill:#965032"
   d="m 163.952,195.948 c -7.255,2.697 -18.277,9.43 -17.579,14.785 0.699,5.355 4.494,4.049 5.677,2.734 1.183,-1.315 4.583,-5.535 5.644,-6.284 1.061,-0.75 18.219,-9.559 18.219,-9.559 l 45.431,-23.358 c 0,0 0.349,-2.27 -2.357,-4.104 0.001,0 -27.794,15.658 -55.035,25.786 z"
   id="path12237" />

</g>
    <path
       style="fill:#ffbe3c;stroke-width:0.93749088"
       d="m -606.96401,223.85013 -0.24563,1.80092 c 0,0 -0.65436,11.54145 3.1106,14.65204 0,0 0.81843,2.37373 -0.49125,3.51934 -1.30967,1.14562 -14.24236,7.69399 -14.24236,7.69399 0,0 -3.35621,6.95806 -3.27371,10.88708 0,0 -3.19216,-1.22811 -2.86498,-2.78341 0.32719,-1.5553 2.20967,-5.64838 1.63686,-7.61242 -0.5728,-1.96405 -2.70091,-1.39124 -2.70091,-1.39124 0,0 -1.06405,1.14561 0.65437,1.88248 l -0.57281,2.45529 -6.95805,4.09309 1.55529,1.88248 c 0,0 0.0816,14.40642 8.59492,16.2889 0,0 4.50183,0.32719 9.82209,-9.82209 0,0 2.86497,5.07464 1.88248,9.49491 0,0 9.33179,5.07463 22.10041,0.65437 l 0.16406,-8.84054 c 0,0 1.96405,13.58799 8.67648,12.27831 0,0 18.59326,-7.1568 15.49766,-9.8774 -7.20274,-6.32994 -15.90078,-0.98061 -15.90078,-0.98061 -0.42187,-9.19492 -1.19155,-21.08792 -2.37935,-22.3751 -1.96405,-2.1281 -8.02211,-0.98249 -9.2221,-3.71059 -1.19999,-2.7281 -0.8728,-7.53086 0.43687,-13.09675 1.30968,-5.56588 -5.34745,-9.4949 -5.34745,-9.4949 z"
       id="path12241" />
    <path
       style="fill:#464655;stroke-width:0.93749088"
       d="m -607.2087,225.65105 c 0,0 6.68431,1.69123 11.92301,-0.38156 l 2.29217,5.67557 h 1.30967 c 0,0 3.1556,-10.50271 -1.03499,-10.3799 0,0 -0.0159,-3.40965 -7.33399,-3.26622 -6.28681,0.12281 -8.46554,4.20465 -7.15587,8.35211 z"
       id="path12243" />
    <g
       id="g12249"
       transform="matrix(0.93749087,0,0,0.93749087,-780.74857,64.816052)">
	<path
   style="fill:#965032"
   d="m 330.65,311.782 c 0,0 -1.863,8.266 -0.116,9.197 1.746,0.931 11.06,0.931 10.827,-1.048 -0.233,-1.979 -1.513,-8.964 -1.513,-8.964 z"
   id="path12245" />

	<path
   style="fill:#965032"
   d="m 315.167,307.358 c 0,0 1.513,6.17 -1.513,6.403 -3.027,0.233 -20.14,0.116 -20.606,-0.349 -0.466,-0.466 -1.048,-1.63 -1.048,-1.63 l 15.833,-4.424 z"
   id="path12247" />

</g>
    <path
       style="fill:#eaf3f5;stroke-width:0.93749088"
       d="m -468.99348,280.82051 c 0,0 3.90184,9.27647 5.32026,41.41835 0.37781,8.55179 -0.65437,6.54837 3.60184,34.05154 l -5.0512,2.63716 c -1.47092,0.76781 -3.23716,0.71156 -4.65652,-0.14812 l -4.91714,-2.98028 c 0,0 2.40092,-30.77689 -5.45713,-48.45797 0,0 -4.14746,7.63961 -4.14746,13.31518 0,5.67557 0.21843,32.96031 0.21843,32.96031 0,0 -9.16772,1.52811 -13.31518,1.09124 0,0 2.61935,-59.20818 5.2387,-73.15054 z"
       id="path12251" />
    <path
       style="fill:#be7855;stroke-width:0.93749088"
       d="m -469.73129,276.89149 c 0,0 1.5553,1.14561 0.73687,3.92902 0,0 -11.95113,5.15714 -23.16446,0.73687 0,0 -1.22811,-1.80092 0.32718,-4.01059 z"
       id="path12253" />
    <path
       style="fill:#965032;stroke-width:0.93749088"
       d="m -473.8225,223.85013 0.24563,1.80092 c 0,0 0.6553,11.54145 -3.1106,14.65204 0,0 -0.81843,2.37373 0.49125,3.51934 1.30967,1.14562 14.24236,7.69399 14.24236,7.69399 0,0 3.35622,6.95806 3.27372,10.88708 0,0 3.19215,-1.22811 2.86497,-2.78341 -0.32719,-1.5553 -2.20967,-5.64838 -1.63686,-7.61242 0.57281,-1.96405 2.70091,-1.39124 2.70091,-1.39124 0,0 1.06405,1.14561 -0.65531,1.88248 l 0.57281,2.45529 6.95806,4.09309 -1.5553,1.88248 c 0,0 -0.0816,14.40642 -8.59492,16.2889 0,0 -4.50183,0.32719 -9.82209,-9.82209 0,0 -2.86497,5.07464 -1.88248,9.49491 0,0 -9.33178,5.07463 -22.10041,0.65437 l -0.16406,-8.84054 c 0,0 -1.96404,13.58799 -8.67648,12.27831 0,0 -18.59325,-7.1568 -15.49766,-9.8774 7.20274,-6.32994 15.90078,-0.98061 15.90078,-0.98061 0.42187,-9.19492 1.19155,-21.08792 2.37936,-22.3751 1.96404,-2.1281 8.0221,-0.98249 9.22209,-3.71059 1.19999,-2.7281 0.87281,-7.53086 -0.43687,-13.09675 -1.30967,-5.56588 5.34745,-9.4949 5.34745,-9.4949 z"
       id="path12255" />
    <path
       style="fill:#464655;stroke-width:0.93749088"
       d="m -473.57781,225.65105 c 0,0 -6.68431,1.69123 -11.92301,-0.38156 l -2.29217,5.67557 h -1.30967 c 0,0 -3.15559,-10.50271 1.03499,-10.3799 0,0 0.0159,-3.40965 7.33399,-3.26622 6.28588,0.12281 8.46554,4.20465 7.15587,8.35211 z"
       id="path12257" />
    <path
       style="fill:#eaf3f5;stroke-width:0.93749088"
       d="m -585.87703,230.02538 c -0.54656,-1.32936 0.36937,-1.69498 0.36937,-1.69498 0,0 6.62525,-3.63653 7.39587,-3.57466 1.27405,0.10313 2.83497,2.34186 2.83497,4.25246 0,1.91061 2.4881,6.86994 7.60399,8.10274 0,0 -6.38432,8.67647 -15.24642,7.49055 0,-9.4e-4 0.59437,-5.93526 -2.95778,-14.57611 z"
       id="path12259" />
    <path
       style="fill:#82afff;stroke-width:0.93749088"
       d="m -576.59118,270.67123 c -1.96311,0 -3.55497,1.6978 -3.55497,3.79122 v 43.35614 c 0,10.4774 4.91152,47.14829 39.29024,57.62569 34.37873,-10.4774 39.29025,-47.14829 39.29025,-57.62569 v -43.35614 c 0,-2.09436 -1.59186,-3.79122 -3.55497,-3.79122 z"
       id="path12261" />
    <path
       style="fill:#ffe15a;stroke-width:0.93749088"
       d="m -501.56566,317.81859 v -43.35614 c 0,-2.09436 -1.59093,-3.79122 -3.55497,-3.79122 h -35.73528 v 36.6709 l 34.53529,34.53529 c 3.82215,-10.09303 4.75496,-19.527 4.75496,-24.05883 z"
       id="path12263" />
    <path
       style="fill:#eaf3f5;stroke-width:0.93749088"
       d="m -580.14615,317.81859 v -43.35614 c 0,-2.09436 1.59092,-3.79122 3.55497,-3.79122 h 35.73527 v 36.6709 l -34.53435,34.53529 c -3.82496,-10.09303 -4.75589,-19.527 -4.75589,-24.05883 z"
       id="path12265" />
    <polygon
       style="fill:#8c5a28"
       points="240.87,304.593 267.879,304.593 273.604,297.254 267.018,299.889 245.191,299.889 231.174,294.338 "
       id="polygon12267"
       transform="matrix(0.93749087,0,0,0.93749087,-780.74857,64.816052)" />
    <path
       style="fill:#f5f5f5;stroke-width:0.93749088"
       d="m -554.23484,328.34849 -1.38748,13.99486 -6.31588,-2.41123 c 0,0 2.90528,-6.74431 7.70336,-11.58363 z"
       id="path12269" />
    <g
       id="g12277"
       transform="matrix(0.93749087,0,0,0.93749087,-780.74857,64.816052)">
	<rect
   x="254.91"
   y="275.19"
   style="fill:#8c5a28"
   width="0.99599999"
   height="25.42"
   id="rect12271" />

	<rect
   x="264.12"
   y="277.34"
   style="fill:#8c5a28"
   width="0.99599999"
   height="23.268999"
   id="rect12273" />

	<rect
   x="245.73"
   y="277.34"
   style="fill:#8c5a28"
   width="0.99599999"
   height="23.268999"
   id="rect12275" />

</g>
    <g
       id="g12297"
       transform="matrix(0.93749087,0,0,0.93749087,-780.74857,64.816052)">
	<path
   style="fill:#f5f5f5"
   d="m 259.108,298.195 h -7.391 c -0.271,0 -0.491,-0.22 -0.491,-0.491 v -4.381 c 0,-0.271 0.22,-0.491 0.491,-0.491 h 7.391 c 0.271,0 0.491,0.22 0.491,0.491 v 4.381 c 0,0.271 -0.22,0.491 -0.491,0.491 z"
   id="path12279" />

	<path
   style="fill:#f5f5f5"
   d="m 259.108,291.045 h -7.391 c -0.271,0 -0.491,-0.22 -0.491,-0.491 v -4.381 c 0,-0.271 0.22,-0.491 0.491,-0.491 h 7.391 c 0.271,0 0.491,0.22 0.491,0.491 v 4.381 c 0,0.271 -0.22,0.491 -0.491,0.491 z"
   id="path12281" />

	<path
   style="fill:#f5f5f5"
   d="m 259.108,284.459 h -7.391 c -0.271,0 -0.491,-0.22 -0.491,-0.491 v -4.381 c 0,-0.271 0.22,-0.491 0.491,-0.491 h 7.391 c 0.271,0 0.491,0.22 0.491,0.491 v 4.381 c 0,0.271 -0.22,0.491 -0.491,0.491 z"
   id="path12283" />

	<path
   style="fill:#f5f5f5"
   d="m 267.754,298.195 h -6.262 c -0.271,0 -0.491,-0.22 -0.491,-0.491 v -4.381 c 0,-0.271 0.22,-0.491 0.491,-0.491 h 6.262 c 0.271,0 0.491,0.22 0.491,0.491 v 4.381 c 0,0.271 -0.219,0.491 -0.491,0.491 z"
   id="path12285" />

	<path
   style="fill:#f5f5f5"
   d="m 267.754,291.612 h -6.262 c -0.271,0 -0.491,-0.22 -0.491,-0.491 v -3.54 c 0,-0.271 0.22,-0.491 0.491,-0.491 h 6.262 c 0.271,0 0.491,0.22 0.491,0.491 v 3.54 c 0,0.271 -0.219,0.491 -0.491,0.491 z"
   id="path12287" />

	<path
   style="fill:#f5f5f5"
   d="m 267.754,285.086 h -6.262 c -0.271,0 -0.491,-0.22 -0.491,-0.491 v -2.814 c 0,-0.271 0.22,-0.491 0.491,-0.491 h 6.262 c 0.271,0 0.491,0.22 0.491,0.491 v 2.814 c 0,0.272 -0.219,0.491 -0.491,0.491 z"
   id="path12289" />

	<path
   style="fill:#f5f5f5"
   d="m 249.359,298.195 h -6.262 c -0.271,0 -0.491,-0.22 -0.491,-0.491 v -4.381 c 0,-0.271 0.22,-0.491 0.491,-0.491 h 6.262 c 0.271,0 0.491,0.22 0.491,0.491 v 4.381 c 0,0.271 -0.22,0.491 -0.491,0.491 z"
   id="path12291" />

	<path
   style="fill:#f5f5f5"
   d="m 249.359,291.612 h -6.262 c -0.271,0 -0.491,-0.22 -0.491,-0.491 v -3.54 c 0,-0.271 0.22,-0.491 0.491,-0.491 h 6.262 c 0.271,0 0.491,0.22 0.491,0.491 v 3.54 c 0,0.271 -0.22,0.491 -0.491,0.491 z"
   id="path12293" />

	<path
   style="fill:#f5f5f5"
   d="m 249.359,285.086 h -6.262 c -0.271,0 -0.491,-0.22 -0.491,-0.491 v -2.814 c 0,-0.271 0.22,-0.491 0.491,-0.491 h 6.262 c 0.271,0 0.491,0.22 0.491,0.491 v 2.814 c 0,0.272 -0.22,0.491 -0.491,0.491 z"
   id="path12295" />

</g>
    <g
       id="g12305"
       transform="matrix(0.93749087,0,0,0.93749087,-780.74857,64.816052)">
	<polygon
   style="fill:#ff4b55"
   points="264.121,280.35 259.694,278.819 264.121,277.343 "
   id="polygon12299" />

	<polygon
   style="fill:#ff4b55"
   points="245.738,280.35 241.313,278.819 245.738,277.343 "
   id="polygon12301" />

	<polygon
   style="fill:#ff4b55"
   points="254.947,278.189 250.521,276.659 254.947,275.182 "
   id="polygon12303" />

</g>
    <path
       style="fill:#4173cd;stroke-width:0.93749088"
       d="m -509.67308,349.25078 h -62.36471 c 0.92905,1.76623 1.94717,3.51653 3.09091,5.2387 h 56.18289 c 1.14374,-1.72217 2.16185,-3.47247 3.09091,-5.2387 z"
       id="path12307" />
    <path
       style="fill:#73af00;stroke-width:0.93749088"
       d="m -512.76399,354.48948 h -56.18289 v 0 c 2.48154,3.73496 5.52276,7.28243 9.1696,10.4774 h 37.84463 c 3.6459,-3.19497 6.68712,-6.74244 9.16866,-10.4774 z"
       id="path12309" />
    <path
       style="fill:#ffe15a;stroke-width:0.93749088"
       d="m -559.77822,364.96688 c 5.02776,4.40433 11.19739,8.12242 18.92231,10.4774 7.72493,-2.35498 13.89456,-6.07213 18.92232,-10.4774 z"
       id="path12311" />
    <path
       style="fill:#be7855;stroke-width:0.93749088"
       d="m -547.58522,310.41991 c 0,0 -0.38437,0.13406 -0.79593,0.0872 -0.31874,-0.13688 -0.97124,-0.15844 -0.57749,-1.3678 0.19125,-0.6 0.59249,-1.44561 0.30093,-1.66499 -0.23531,-0.27281 -0.4903,-0.56812 -0.76218,-0.88311 -0.54374,-0.63 -1.1578,-1.34155 -1.8281,-2.11686 -1.37624,-1.51686 -3.00747,-3.26059 -4.90964,-4.97995 -0.94968,-0.86155 -1.9303,-1.75217 -2.92685,-2.65685 -1.03218,-0.87093 -1.98654,-1.84592 -3.11153,-2.65685 -0.63656,-0.33468 -1.44467,-0.50249 -2.15154,-0.76405 -0.69,-0.27844 -1.12218,-0.80249 -1.62749,-1.24686 -0.98811,-0.91312 -1.96123,-1.81124 -2.90247,-2.68029 -1.91154,-1.71092 -3.58965,-3.40966 -5.02589,-4.86745 -1.39217,-1.39218 -2.5181,-2.60248 -3.31121,-3.48372 -0.75656,-0.83999 -0.70875,-2.11685 0.10406,-2.90247 l 2.32779,-2.24623 c 0.81374,-0.78468 2.09154,-0.78655 2.90434,-9.4e-4 0.85312,0.82499 2.02217,1.99311 3.36372,3.43403 1.40624,1.4878 3.04403,3.22591 4.68464,5.19651 0.83531,0.97218 1.6978,1.97623 2.57435,2.99716 0.42656,0.52125 0.93468,0.97124 1.18874,1.67155 0.23625,0.71624 0.37593,1.52998 0.68718,2.17779 0.76968,1.15311 1.70998,2.14123 2.54341,3.20434 0.86906,1.02843 1.72311,2.03998 2.55092,3.01966 1.64998,1.96311 3.33465,3.65528 4.80089,5.08495 0.75093,0.6975 1.43998,1.33593 2.05029,1.90311 0.30562,0.28312 0.59062,0.54843 0.85499,0.79312 0.20906,0.29812 1.06874,-0.0722 1.67436,-0.24188 1.22249,-0.35062 1.22155,0.30281 1.34624,0.62625 0.0319,0.41343 -0.11531,0.79311 -0.11531,0.79311 z"
       id="path12313" />
    <path
       style="fill:#965032;stroke-width:0.93749088"
       d="m -573.24247,314.54487 c -0.40405,0 -0.81093,-0.12281 -1.16342,-0.38343 -0.87187,-0.645 -1.05937,-1.87217 -0.41437,-2.74685 l 18.66263,-25.31882 c 0.64218,-0.86999 1.86467,-1.06405 2.74685,-0.41437 0.87186,0.64499 1.05936,1.87217 0.41437,2.74685 l -18.66263,25.31882 c -0.38344,0.52124 -0.97968,0.7978 -1.58343,0.7978 z"
       id="path12315" />
    <polygon
       style="fill:#f5f5f5"
       points="242.417,227.148 237.295,234.249 247.656,241.118 252.079,234.948 "
       id="polygon12317"
       transform="matrix(0.93749087,0,0,0.93749087,-780.74857,64.816052)" />
    <path
       style="fill:#965032;stroke-width:0.93749088"
       d="m -532.47474,281.93331 24.89132,30.69627 c 0,0 3.49872,0.15937 3.02154,-2.62404 l -25.766,-30.21908 z"
       id="path12319" />
    <path
       style="fill:#eaf3f5;stroke-width:0.93749088"
       d="m -538.0425,286.14733 c 0,0 6.99837,-1.27217 9.94022,-5.6465 l 3.9759,4.69214 c 0,0 -6.52119,4.61245 -7.15681,9.6224 0,0 -5.32682,-1.43061 -6.75931,-8.66804 z"
       id="path12321" />
    <g
       id="g12327"
       transform="matrix(0.93749087,0,0,0.93749087,-780.74857,64.816052)">
	<path
   style="fill:#965032"
   d="m 287.561,232.866 c -0.488,0 -0.957,-0.265 -1.201,-0.726 -0.755,-1.431 -0.885,-2.725 -0.387,-3.849 0.697,-1.575 2.338,-2.036 2.521,-2.084 0.74,-0.164 1.466,0.254 1.654,0.976 0.186,0.721 -0.244,1.458 -0.962,1.649 -0.151,0.048 -0.596,0.244 -0.737,0.567 -0.133,0.318 -0.021,0.843 0.313,1.479 0.35,0.663 0.095,1.484 -0.57,1.834 -0.201,0.106 -0.416,0.154 -0.631,0.154 z"
   id="path12323" />

	<path
   style="fill:#965032"
   d="m 265.747,253.067 c 0,-0.488 -0.265,-0.957 -0.726,-1.201 -1.431,-0.755 -2.725,-0.885 -3.849,-0.387 -1.575,0.697 -2.036,2.338 -2.084,2.521 -0.164,0.74 0.254,1.466 0.975,1.654 0.721,0.186 1.458,-0.244 1.649,-0.962 0.048,-0.151 0.244,-0.596 0.567,-0.737 0.318,-0.133 0.843,-0.021 1.479,0.313 0.663,0.35 1.484,0.095 1.834,-0.57 0.109,-0.202 0.155,-0.416 0.155,-0.631 z"
   id="path12325" />

</g>
    <polygon
       style="fill:#eaf3f5"
       points="293.781,236.259 288.466,229.812 263.47,254.355 269.352,260.915 "
       id="polygon12329"
       transform="matrix(0.93749087,0,0,0.93749087,-780.74857,64.816052)" />
    <path
       style="fill:#ffbe3c;stroke-width:0.93749088"
       d="m -629.33629,247.09709 c 1.56936,-0.36375 2.94653,1.74654 1.52811,3.27372 -1.41843,1.52717 -5.51901,4.28808 -6.76681,4.03777 -2.18436,-0.43593 -3.71059,-5.23776 5.2387,-7.31149 z"
       id="path12331" />
    <path
       style="fill:#965032;stroke-width:0.93749088"
       d="m -451.54021,249.30676 c -1.45593,-0.36375 -2.73185,1.74654 -1.41655,3.27371 1.3153,1.52718 5.11682,4.28809 6.27369,4.03778 2.02404,-0.43594 3.43965,-5.23776 -4.85714,-7.31149 z"
       id="path12333" />
    <path
       style="fill:#464655;stroke-width:0.93749088"
       d="m -505.12157,270.67123 c 1.96311,0 3.55497,1.6978 3.55497,3.79122 v 43.35614 c 0,10.4774 -4.91152,47.14829 -39.29024,57.62569 -34.37873,-10.4774 -39.29025,-47.14829 -39.29025,-57.62569 v -43.35614 c 0,-2.09342 1.59186,-3.79122 3.55497,-3.79122 h 71.47055 m 0,-2.61934 h -71.46961 c -3.40403,0 -6.17432,2.87622 -6.17432,6.41056 v 43.35614 c 0,2.5031 0.3375,15.70953 7.00025,29.92471 7.08368,15.11235 18.89137,25.55694 34.14529,30.20595 l 0.76312,0.2325 0.76311,-0.2325 c 15.25392,-4.64901 27.06162,-15.0936 34.1453,-30.20595 6.66274,-14.21518 7.00024,-27.42161 7.00024,-29.92471 v -43.35614 c 9.4e-4,-3.53528 -2.76747,-6.41056 -6.17338,-6.41056 z"
       id="path12335" />
    <path
       style="fill:#eaf3f5;stroke-width:0.93749088"
       d="m -477.96058,376.05833 c -11.13177,-3.73121 -23.07446,-2.00904 -34.33748,5.50495 -14.39611,9.59709 -23.93977,9.59709 -28.52597,9.59709 -4.58621,0 -14.12986,0 -28.52597,-9.59709 -11.26114,-7.5093 -23.20853,-9.23335 -34.33748,-5.50495 v 11.23021 c 7.01337,-3.35247 16.90108,-4.75496 28.52597,2.99247 17.03608,11.3577 29.16065,11.3577 34.33748,11.3577 5.17682,0 17.30233,0 34.33748,-11.3577 11.62582,-7.75586 21.5126,-6.34869 28.52597,-2.99435 z"
       id="path12337" />
    <path
       style="fill:#965032;stroke-width:0.93749088"
       d="m -540.82497,435.68932 c -73.65866,0 -133.58589,-59.92723 -133.58589,-133.58589 0,-73.65866 59.92723,-133.58589 133.58589,-133.58589 73.65866,0 133.58589,59.92723 133.58589,133.58589 0,73.65866 -59.92723,133.58589 -133.58589,133.58589 z m 0,-261.93402 c -70.77025,0 -128.34719,57.57413 -128.34719,128.34719 0,70.77306 57.57694,128.34719 128.34719,128.34719 70.77025,0 128.34719,-57.57413 128.34719,-128.34719 0,-70.77306 -57.57694,-128.34719 -128.34719,-128.34719 z"
       id="path12339" />
    <g
       id="g12469"
       transform="matrix(0.93749087,0,0,0.93749087,-780.74857,64.816052)">
	<path
   style="fill:#73af00"
   d="m 100.04,264.983 c 0,0 -0.582,-17.462 16.182,-17.462 0,0 0.349,6.869 -5.704,9.895 -4.896,2.447 -10.478,7.567 -10.478,7.567 z"
   id="path12341" />

	<path
   style="fill:#73af00"
   d="m 132.407,264.983 c 0,0 0.582,-17.462 -16.182,-17.462 0,0 -0.349,6.869 5.704,9.895 4.896,2.447 10.478,7.567 10.478,7.567 z"
   id="path12343" />

	<path
   style="fill:#73af00"
   d="m 411.686,247.521 c 0,0 0.582,17.462 -16.182,17.462 0,0 -0.349,-6.869 5.704,-9.895 4.895,-2.448 10.478,-7.567 10.478,-7.567 z"
   id="path12345" />

	<path
   style="fill:#73af00"
   d="m 379.318,247.521 c 0,0 -0.582,17.462 16.182,17.462 0,0 0.349,-6.869 -5.704,-9.895 -4.895,-2.448 -10.478,-7.567 -10.478,-7.567 z"
   id="path12347" />

	<path
   style="fill:#73af00"
   d="m 264.594,412.075 c 0,0 -17.462,0.582 -17.462,-16.182 0,0 6.869,-0.349 9.895,5.704 2.447,4.895 7.567,10.478 7.567,10.478 z"
   id="path12349" />

	<path
   style="fill:#73af00"
   d="m 264.594,379.707 c 0,0 -17.462,-0.582 -17.462,16.182 0,0 6.869,0.349 9.895,-5.704 2.447,-4.895 7.567,-10.478 7.567,-10.478 z"
   id="path12351" />

	<path
   style="fill:#73af00"
   d="m 247.132,100.429 c 0,0 17.462,-0.582 17.462,16.182 0,0 -6.869,0.349 -9.895,-5.704 -2.448,-4.896 -7.567,-10.478 -7.567,-10.478 z"
   id="path12353" />

	<path
   style="fill:#73af00"
   d="m 247.132,132.796 c 0,0 17.462,0.582 17.462,-16.182 0,0 -6.869,-0.349 -9.895,5.704 -2.448,4.896 -7.567,10.478 -7.567,10.478 z"
   id="path12355" />

	<path
   style="fill:#73af00"
   d="m 151.853,372.609 c 0,0 -12.759,-11.936 -0.906,-23.79 0,0 5.104,4.61 2.963,11.031 -1.73,5.192 -2.057,12.759 -2.057,12.759 z"
   id="path12357" />

	<path
   style="fill:#73af00"
   d="m 174.741,349.722 c 0,0 -11.936,-12.759 -23.79,-0.906 0,0 4.61,5.104 11.031,2.963 5.191,-1.73 12.759,-2.057 12.759,-2.057 z"
   id="path12359" />

	<path
   style="fill:#73af00"
   d="m 359.871,139.895 c 0,0 12.759,11.936 0.905,23.79 0,0 -5.104,-4.61 -2.963,-11.031 1.731,-5.192 2.058,-12.759 2.058,-12.759 z"
   id="path12361" />

	<path
   style="fill:#73af00"
   d="m 336.984,162.782 c 0,0 11.936,12.759 23.79,0.906 0,0 -4.61,-5.104 -11.031,-2.963 -5.191,1.729 -12.759,2.057 -12.759,2.057 z"
   id="path12363" />

	<path
   style="fill:#73af00"
   d="m 372.22,360.261 c 0,0 -11.936,12.759 -23.79,0.906 0,0 4.61,-5.104 11.031,-2.963 5.191,1.73 12.759,2.057 12.759,2.057 z"
   id="path12365" />

	<path
   style="fill:#73af00"
   d="m 349.332,337.374 c 0,0 -12.759,11.936 -0.906,23.79 0,0 5.104,-4.61 2.963,-11.031 -1.729,-5.191 -2.057,-12.759 -2.057,-12.759 z"
   id="path12367" />

	<path
   style="fill:#73af00"
   d="m 139.506,152.242 c 0,0 11.936,-12.759 23.79,-0.906 0,0 -4.61,5.104 -11.031,2.963 -5.192,-1.729 -12.759,-2.057 -12.759,-2.057 z"
   id="path12369" />

	<path
   style="fill:#73af00"
   d="m 162.393,175.13 c 0,0 12.759,-11.936 0.906,-23.79 0,0 -5.104,4.61 -2.963,11.031 1.728,5.191 2.057,12.759 2.057,12.759 z"
   id="path12371" />

	<path
   style="fill:#73af00"
   d="m 115.243,323.949 c 0,0 -7.22,-15.91 8.267,-22.326 0,0 2.951,6.212 -1.483,11.325 -3.586,4.135 -6.784,11.001 -6.784,11.001 z"
   id="path12373" />

	<path
   style="fill:#73af00"
   d="m 145.146,311.563 c 0,0 -6.145,-16.356 -21.633,-9.941 0,0 2.306,6.479 9.057,6.959 5.459,0.388 12.576,2.982 12.576,2.982 z"
   id="path12375" />

	<path
   style="fill:#73af00"
   d="m 396.483,188.554 c 0,0 7.22,15.91 -8.267,22.326 0,0 -2.951,-6.212 1.483,-11.325 3.586,-4.134 6.784,-11.001 6.784,-11.001 z"
   id="path12377" />

	<path
   style="fill:#73af00"
   d="m 366.579,200.941 c 0,0 6.145,16.356 21.633,9.941 0,0 -2.306,-6.479 -9.057,-6.959 -5.46,-0.389 -12.576,-2.982 -12.576,-2.982 z"
   id="path12379" />

	<path
   style="fill:#73af00"
   d="m 323.56,396.872 c 0,0 -15.91,7.22 -22.326,-8.267 0,0 6.212,-2.951 11.325,1.483 4.135,3.586 11.001,6.784 11.001,6.784 z"
   id="path12381" />

	<path
   style="fill:#73af00"
   d="m 311.173,366.969 c 0,0 -16.356,6.145 -9.941,21.633 0,0 6.479,-2.306 6.959,-9.057 0.388,-5.46 2.982,-12.576 2.982,-12.576 z"
   id="path12383" />

	<path
   style="fill:#73af00"
   d="m 188.165,115.632 c 0,0 15.91,-7.22 22.326,8.267 0,0 -6.212,2.951 -11.325,-1.483 -4.134,-3.586 -11.001,-6.784 -11.001,-6.784 z"
   id="path12385" />

	<path
   style="fill:#73af00"
   d="m 200.551,145.535 c 0,0 16.356,-6.145 9.941,-21.633 0,0 -6.479,2.306 -6.959,9.057 -0.388,5.459 -2.982,12.576 -2.982,12.576 z"
   id="path12387" />

	<path
   style="fill:#73af00"
   d="m 204.299,403.555 c 0,0 -16.356,-6.145 -9.941,-21.633 0,0 6.479,2.306 6.959,9.057 0.387,5.459 2.982,12.576 2.982,12.576 z"
   id="path12389" />

	<path
   style="fill:#73af00"
   d="m 216.685,373.651 c 0,0 -15.91,-7.22 -22.326,8.267 0,0 6.212,2.951 11.325,-1.483 4.134,-3.586 11.001,-6.784 11.001,-6.784 z"
   id="path12391" />

	<path
   style="fill:#73af00"
   d="m 307.427,108.949 c 0,0 16.356,6.145 9.941,21.633 0,0 -6.479,-2.306 -6.959,-9.057 -0.388,-5.459 -2.982,-12.576 -2.982,-12.576 z"
   id="path12393" />

	<path
   style="fill:#73af00"
   d="m 295.04,138.853 c 0,0 15.91,7.22 22.326,-8.267 0,0 -6.212,-2.951 -11.325,1.483 -4.135,3.585 -11.001,6.784 -11.001,6.784 z"
   id="path12395" />

	<path
   style="fill:#73af00"
   d="m 403.165,307.816 c 0,0 -6.145,16.356 -21.633,9.941 0,0 2.306,-6.479 9.057,-6.959 5.459,-0.388 12.576,-2.982 12.576,-2.982 z"
   id="path12397" />

	<path
   style="fill:#73af00"
   d="m 373.262,295.43 c 0,0 -7.22,15.91 8.267,22.326 0,0 2.951,-6.212 -1.483,-11.325 -3.585,-4.135 -6.784,-11.001 -6.784,-11.001 z"
   id="path12399" />

	<path
   style="fill:#73af00"
   d="m 108.56,204.688 c 0,0 6.145,-16.356 21.633,-9.941 0,0 -2.306,6.479 -9.057,6.959 -5.459,0.388 -12.576,2.982 -12.576,2.982 z"
   id="path12401" />

	<path
   style="fill:#73af00"
   d="m 138.464,217.074 c 0,0 7.22,-15.91 -8.268,-22.326 0,0 -2.951,6.212 1.483,11.325 3.585,4.135 6.785,11.001 6.785,11.001 z"
   id="path12403" />

	<path
   style="fill:#73af00"
   d="m 104.737,295.215 c 0,0 -3.978,-17.013 12.464,-20.284 0,0 1.683,6.668 -3.664,10.818 -4.323,3.356 -8.8,9.466 -8.8,9.466 z"
   id="path12405" />

	<path
   style="fill:#73af00"
   d="m 136.482,288.9 c 0,0 -2.836,-17.24 -19.278,-13.97 0,0 0.997,6.805 7.525,8.592 5.279,1.446 11.753,5.378 11.753,5.378 z"
   id="path12407" />

	<path
   style="fill:#73af00"
   d="m 406.987,217.289 c 0,0 3.978,17.013 -12.464,20.284 0,0 -1.683,-6.668 3.664,-10.818 4.325,-3.356 8.8,-9.466 8.8,-9.466 z"
   id="path12409" />

	<path
   style="fill:#73af00"
   d="m 375.242,223.603 c 0,0 2.836,17.24 19.278,13.97 0,0 -0.997,-6.805 -7.525,-8.592 -5.279,-1.446 -11.753,-5.378 -11.753,-5.378 z"
   id="path12411" />

	<path
   style="fill:#73af00"
   d="m 294.826,407.377 c 0,0 -17.013,3.978 -20.284,-12.464 0,0 6.668,-1.683 10.818,3.664 3.356,4.324 9.466,8.8 9.466,8.8 z"
   id="path12413" />

	<path
   style="fill:#73af00"
   d="m 288.51,375.632 c 0,0 -17.24,2.836 -13.97,19.278 0,0 6.805,-0.997 8.592,-7.525 1.446,-5.279 5.378,-11.753 5.378,-11.753 z"
   id="path12415" />

	<path
   style="fill:#73af00"
   d="m 216.9,105.126 c 0,0 17.013,-3.978 20.284,12.464 0,0 -6.668,1.683 -10.818,-3.664 -3.356,-4.323 -9.466,-8.8 -9.466,-8.8 z"
   id="path12417" />

	<path
   style="fill:#73af00"
   d="m 223.215,136.872 c 0,0 17.24,-2.836 13.97,-19.278 0,0 -6.805,0.997 -8.592,7.525 -1.447,5.279 -5.378,11.753 -5.378,11.753 z"
   id="path12419" />

	<path
   style="fill:#73af00"
   d="m 176.551,390.665 c 0,0 -14.843,-9.218 -5.529,-23.156 0,0 5.905,3.526 5.059,10.241 -0.685,5.429 0.47,12.915 0.47,12.915 z"
   id="path12421" />

	<path
   style="fill:#73af00"
   d="m 194.534,363.752 c 0,0 -14.196,-10.186 -23.51,3.753 0,0 5.517,4.106 11.397,0.755 4.755,-2.711 12.113,-4.508 12.113,-4.508 z"
   id="path12423" />

	<path
   style="fill:#73af00"
   d="m 335.173,121.839 c 0,0 14.843,9.218 5.529,23.156 0,0 -5.905,-3.526 -5.059,-10.241 0.685,-5.429 -0.47,-12.915 -0.47,-12.915 z"
   id="path12425" />

	<path
   style="fill:#73af00"
   d="m 317.19,148.752 c 0,0 14.196,10.186 23.51,-3.753 0,0 -5.517,-4.106 -11.397,-0.755 -4.754,2.71 -12.113,4.508 -12.113,4.508 z"
   id="path12427" />

	<path
   style="fill:#73af00"
   d="m 390.276,335.563 c 0,0 -9.218,14.843 -23.156,5.529 0,0 3.526,-5.905 10.241,-5.059 5.428,0.685 12.915,-0.47 12.915,-0.47 z"
   id="path12429" />

	<path
   style="fill:#73af00"
   d="m 363.362,317.58 c 0,0 -10.186,14.196 3.753,23.51 0,0 4.106,-5.517 0.755,-11.397 -2.71,-4.755 -4.508,-12.113 -4.508,-12.113 z"
   id="path12431" />

	<path
   style="fill:#73af00"
   d="m 121.45,176.941 c 0,0 9.218,-14.843 23.156,-5.529 0,0 -3.526,5.905 -10.241,5.059 -5.429,-0.685 -12.915,0.47 -12.915,0.47 z"
   id="path12433" />

	<path
   style="fill:#73af00"
   d="m 148.363,194.923 c 0,0 10.186,-14.196 -3.753,-23.51 0,0 -4.106,5.517 -0.755,11.397 2.709,4.755 4.508,12.113 4.508,12.113 z"
   id="path12435" />

	<path
   style="fill:#73af00"
   d="m 131.152,350.082 c 0,0 -10.186,-14.196 3.753,-23.51 0,0 4.106,5.517 0.755,11.397 -2.711,4.755 -4.508,12.113 -4.508,12.113 z"
   id="path12437" />

	<path
   style="fill:#73af00"
   d="m 158.064,332.1 c 0,0 -9.218,-14.843 -23.156,-5.529 0,0 3.526,5.905 10.241,5.059 5.428,-0.686 12.915,0.47 12.915,0.47 z"
   id="path12439" />

	<path
   style="fill:#73af00"
   d="m 380.574,162.422 c 0,0 10.186,14.196 -3.753,23.51 0,0 -4.106,-5.517 -0.755,-11.397 2.71,-4.755 4.508,-12.113 4.508,-12.113 z"
   id="path12441" />

	<path
   style="fill:#73af00"
   d="m 353.661,180.404 c 0,0 9.218,14.843 23.156,5.529 0,0 -3.526,-5.905 -10.241,-5.059 -5.429,0.685 -12.915,-0.47 -12.915,-0.47 z"
   id="path12443" />

	<path
   style="fill:#73af00"
   d="m 349.693,380.963 c 0,0 -14.196,10.186 -23.51,-3.753 0,0 5.517,-4.106 11.397,-0.755 4.755,2.711 12.113,4.508 12.113,4.508 z"
   id="path12445" />

	<path
   style="fill:#73af00"
   d="m 331.711,354.051 c 0,0 -14.843,9.218 -5.529,23.156 0,0 5.905,-3.526 5.059,-10.241 -0.685,-5.43 0.47,-12.915 0.47,-12.915 z"
   id="path12447" />

	<path
   style="fill:#73af00"
   d="m 162.033,131.541 c 0,0 14.196,-10.186 23.51,3.753 0,0 -5.517,4.106 -11.397,0.755 -4.755,-2.711 -12.113,-4.508 -12.113,-4.508 z"
   id="path12449" />

	<path
   style="fill:#73af00"
   d="m 180.014,158.453 c 0,0 14.843,-9.218 5.529,-23.156 0,0 -5.905,3.526 -5.059,10.241 0.686,5.429 -0.47,12.915 -0.47,12.915 z"
   id="path12451" />

	<path
   style="fill:#73af00"
   d="m 234.027,410.784 c 0,0 -17.24,-2.836 -13.97,-19.278 0,0 6.805,0.997 8.592,7.525 1.445,5.279 5.378,11.753 5.378,11.753 z"
   id="path12453" />

	<path
   style="fill:#73af00"
   d="m 240.34,379.039 c 0,0 -17.013,-3.978 -20.284,12.464 0,0 6.668,1.683 10.818,-3.664 3.356,-4.324 9.466,-8.8 9.466,-8.8 z"
   id="path12455" />

	<path
   style="fill:#73af00"
   d="m 277.699,101.72 c 0,0 17.24,2.836 13.97,19.278 0,0 -6.805,-0.997 -8.592,-7.525 -1.447,-5.279 -5.378,-11.753 -5.378,-11.753 z"
   id="path12457" />

	<path
   style="fill:#73af00"
   d="m 271.384,133.465 c 0,0 17.013,3.978 20.284,-12.464 0,0 -6.668,-1.683 -10.818,3.664 -3.355,4.324 -9.466,8.8 -9.466,8.8 z"
   id="path12459" />

	<path
   style="fill:#73af00"
   d="m 410.395,278.088 c 0,0 -2.836,17.24 -19.278,13.97 0,0 0.997,-6.805 7.525,-8.592 5.279,-1.446 11.753,-5.378 11.753,-5.378 z"
   id="path12461" />

	<path
   style="fill:#73af00"
   d="m 378.65,271.773 c 0,0 -3.978,17.013 12.464,20.284 0,0 1.683,-6.668 -3.664,-10.818 -4.325,-3.355 -8.8,-9.466 -8.8,-9.466 z"
   id="path12463" />

	<path
   style="fill:#73af00"
   d="m 101.331,234.416 c 0,0 2.836,-17.24 19.278,-13.97 0,0 -0.997,6.805 -7.525,8.592 -5.279,1.446 -11.753,5.378 -11.753,5.378 z"
   id="path12465" />

	<path
   style="fill:#73af00"
   d="m 133.076,240.73 c 0,0 3.978,-17.013 -12.464,-20.284 0,0 -1.683,6.668 3.664,10.818 4.324,3.356 8.8,9.466 8.8,9.466 z"
   id="path12467" />

</g>
  </g>
  <g
     transform="matrix(0.93749087,0,0,0.93749087,-780.74857,64.816052)"
     id="g12471">
</g>
  <g
     transform="matrix(0.93749087,0,0,0.93749087,-780.74857,64.816052)"
     id="g12473">
</g>
  <g
     transform="matrix(0.93749087,0,0,0.93749087,-780.74857,64.816052)"
     id="g12475">
</g>
  <g
     transform="matrix(0.93749087,0,0,0.93749087,-780.74857,64.816052)"
     id="g12477">
</g>
  <g
     transform="matrix(0.93749087,0,0,0.93749087,-780.74857,64.816052)"
     id="g12479">
</g>
  <g
     transform="matrix(0.93749087,0,0,0.93749087,-780.74857,64.816052)"
     id="g12481">
</g>
  <g
     transform="matrix(0.93749087,0,0,0.93749087,-780.74857,64.816052)"
     id="g12483">
</g>
  <g
     transform="matrix(0.93749087,0,0,0.93749087,-780.74857,64.816052)"
     id="g12485">
</g>
  <g
     transform="matrix(0.93749087,0,0,0.93749087,-780.74857,64.816052)"
     id="g12487">
</g>
  <g
     transform="matrix(0.93749087,0,0,0.93749087,-780.74857,64.816052)"
     id="g12489">
</g>
  <g
     transform="matrix(0.93749087,0,0,0.93749087,-780.74857,64.816052)"
     id="g12491">
</g>
  <g
     transform="matrix(0.93749087,0,0,0.93749087,-780.74857,64.816052)"
     id="g12493">
</g>
  <g
     transform="matrix(0.93749087,0,0,0.93749087,-780.74857,64.816052)"
     id="g12495">
</g>
  <g
     transform="matrix(0.93749087,0,0,0.93749087,-780.74857,64.816052)"
     id="g12497">
</g>
  <g
     transform="matrix(0.93749087,0,0,0.93749087,-780.74857,64.816052)"
     id="g12499">
</g>
</svg>
