<?xml version="1.0" encoding="UTF-8" standalone="no"?>
<svg
   xmlns:dc="http://purl.org/dc/elements/1.1/"
   xmlns:cc="http://creativecommons.org/ns#"
   xmlns:rdf="http://www.w3.org/1999/02/22-rdf-syntax-ns#"
   xmlns:svg="http://www.w3.org/2000/svg"
   xmlns="http://www.w3.org/2000/svg"
   xmlns:xlink="http://www.w3.org/1999/xlink"
   version="1.1"
   viewBox="0 0 640 480"
   id="flag-icon-css-ve">
  <metadata
     id="metadata35">
    <rdf:RDF>
      <cc:Work
         rdf:about="">
        <dc:format>image/svg+xml</dc:format>
        <dc:type
           rdf:resource="http://purl.org/dc/dcmitype/StillImage" />
        <dc:title></dc:title>
      </cc:Work>
    </rdf:RDF>
  </metadata>
  <defs
     id="defs14">
    <g
       transform="translate(0 -36)"
       id="d">
      <g
         id="c">
        <g
           id="b">
          <path
             d="M0-5L-1.5-.2l2.8.9z"
             fill="#fff"
             id="a" />
          <use
             id="use3"
             xlink:href="#a"
             transform="scale(-1 1)"
             height="120"
             width="180" />
        </g>
        <use
           id="use6"
           xlink:href="#b"
           transform="rotate(72)"
           height="120"
           width="180" />
      </g>
      <use
         id="use9"
         xlink:href="#b"
         transform="rotate(-72)"
         height="120"
         width="180" />
      <use
         id="use11"
         xlink:href="#c"
         transform="rotate(144)"
         height="120"
         width="180" />
    </g>
    <linearGradient
       id="grad1"
       y2="277.58"
       gradientUnits="userSpaceOnUse"
       x2="601.38"
       gradientTransform="matrix(1.146366,0,0,1.1711652,33.178489,82.1384)"
       y1="342.3"
       x1="597.92">
      <stop
         stop-color="#fff"
         offset="0"
         id="stop37" />
      <stop
         stop-color="#1ea8d1"
         offset="1"
         id="stop39" />
    </linearGradient>
    <linearGradient
       id="grad2"
       y2="399.5"
       gradientUnits="userSpaceOnUse"
       x2="600.31"
       gradientTransform="matrix(1.146366,0,0,1.1711652,33.178489,82.1384)"
       y1="326.43"
       x1="599.96">
      <stop
         stop-color="#FFF"
         offset="0"
         id="stop42" />
      <stop
         stop-color="#c1d3e8"
         offset="0.1312"
         id="stop44" />
      <stop
         stop-color="#88b0d5"
         offset="0.2994"
         id="stop46" />
      <stop
         stop-color="#5998c6"
         offset="0.4634"
         id="stop48" />
      <stop
         stop-color="#2c87bc"
         offset="0.6191"
         id="stop50" />
      <stop
         stop-color="#007db5"
         offset="0.7645"
         id="stop52" />
      <stop
         stop-color="#0077b0"
         offset="0.8956"
         id="stop54" />
      <stop
         stop-color="#0075af"
         offset="1"
         id="stop56" />
    </linearGradient>
  </defs>
  <g
     transform="translate(764.47462,-46.600731)"
     id="g10841">
    <rect
       x="-764.47461"
       y="46.600739"
       style="fill:#f0f0f0;stroke-width:1.32581794"
       width="639.99994"
       height="480"
       id="rect10610" />
    <g
       id="g10616"
       transform="matrix(1.2499999,0,0,1.4062348,-764.47457,-73.394701)">
	<rect
   x="0"
   y="85.331001"
   style="fill:#338af3"
   width="170.66299"
   height="341.33701"
   id="rect10612" />

	<rect
   x="341.33701"
   y="85.331001"
   style="fill:#338af3"
   width="170.66299"
   height="341.33701"
   id="rect10614" />

</g>
    <polygon
       style="fill:#acabb1"
       points="239.029,255.624 207.917,286.736 224.887,303.706 256,272.594 287.113,303.706 304.083,286.736 272.971,255.624 302.586,226.008 301.244,210.366 292.766,201.886 256,238.652 219.234,201.886 210.756,210.366 209.414,226.008 "
       id="polygon10618"
       transform="translate(-700.47464,33.804739)" />
    <path
       style="fill:#6da544"
       d="m -399.21964,231.97274 -16.971,16.971 c 7.238,7.239 11.716,17.239 11.716,28.285 0,22.092 -17.909,40.001 -40.001,40.001 -22.092,0 -40.001,-17.909 -40.001,-40.001 0,-11.045 4.478,-21.045 11.716,-28.285 l -16.971,-16.971 c -11.581,11.582 -18.743,27.582 -18.743,45.256 0,35.346 28.654,64 64,64 35.346,0 64,-28.654 64,-64 0,-17.674 -7.164,-33.674 -18.745,-45.256 z"
       id="path10620" />
  </g>
  <g
     transform="translate(-764.47458,99.932699)"
     id="g10622">
</g>
  <g
     transform="translate(-764.47458,99.932699)"
     id="g10624">
</g>
  <g
     transform="translate(-764.47458,99.932699)"
     id="g10626">
</g>
  <g
     transform="translate(-764.47458,99.932699)"
     id="g10628">
</g>
  <g
     transform="translate(-764.47458,99.932699)"
     id="g10630">
</g>
  <g
     transform="translate(-764.47458,99.932699)"
     id="g10632">
</g>
  <g
     transform="translate(-764.47458,99.932699)"
     id="g10634">
</g>
  <g
     transform="translate(-764.47458,99.932699)"
     id="g10636">
</g>
  <g
     transform="translate(-764.47458,99.932699)"
     id="g10638">
</g>
  <g
     transform="translate(-764.47458,99.932699)"
     id="g10640">
</g>
  <g
     transform="translate(-764.47458,99.932699)"
     id="g10642">
</g>
  <g
     transform="translate(-764.47458,99.932699)"
     id="g10644">
</g>
  <g
     transform="translate(-764.47458,99.932699)"
     id="g10646">
</g>
  <g
     transform="translate(-764.47458,99.932699)"
     id="g10648">
</g>
  <g
     transform="translate(-764.47458,99.932699)"
     id="g10650">
</g>
</svg>
