<?xml version="1.0" encoding="UTF-8" standalone="no"?>
<svg
   xmlns:dc="http://purl.org/dc/elements/1.1/"
   xmlns:cc="http://creativecommons.org/ns#"
   xmlns:rdf="http://www.w3.org/1999/02/22-rdf-syntax-ns#"
   xmlns:svg="http://www.w3.org/2000/svg"
   xmlns="http://www.w3.org/2000/svg"
   xmlns:xlink="http://www.w3.org/1999/xlink"
   version="1.1"
   viewBox="0 0 640 480"
   id="flag-icon-css-ve">
  <metadata
     id="metadata35">
    <rdf:RDF>
      <cc:Work
         rdf:about="">
        <dc:format>image/svg+xml</dc:format>
        <dc:type
           rdf:resource="http://purl.org/dc/dcmitype/StillImage" />
        <dc:title></dc:title>
      </cc:Work>
    </rdf:RDF>
  </metadata>
  <defs
     id="defs14">
    <g
       transform="translate(0 -36)"
       id="d">
      <g
         id="c">
        <g
           id="b">
          <path
             d="M0-5L-1.5-.2l2.8.9z"
             fill="#fff"
             id="a" />
          <use
             id="use3"
             xlink:href="#a"
             transform="scale(-1 1)"
             height="120"
             width="180" />
        </g>
        <use
           id="use6"
           xlink:href="#b"
           transform="rotate(72)"
           height="120"
           width="180" />
      </g>
      <use
         id="use9"
         xlink:href="#b"
         transform="rotate(-72)"
         height="120"
         width="180" />
      <use
         id="use11"
         xlink:href="#c"
         transform="rotate(144)"
         height="120"
         width="180" />
    </g>
    <linearGradient
       id="grad1"
       y2="277.58"
       gradientUnits="userSpaceOnUse"
       x2="601.38"
       gradientTransform="matrix(1.146366,0,0,1.1711652,33.178489,82.1384)"
       y1="342.3"
       x1="597.92">
      <stop
         stop-color="#fff"
         offset="0"
         id="stop37" />
      <stop
         stop-color="#1ea8d1"
         offset="1"
         id="stop39" />
    </linearGradient>
    <linearGradient
       id="grad2"
       y2="399.5"
       gradientUnits="userSpaceOnUse"
       x2="600.31"
       gradientTransform="matrix(1.146366,0,0,1.1711652,33.178489,82.1384)"
       y1="326.43"
       x1="599.96">
      <stop
         stop-color="#FFF"
         offset="0"
         id="stop42" />
      <stop
         stop-color="#c1d3e8"
         offset="0.1312"
         id="stop44" />
      <stop
         stop-color="#88b0d5"
         offset="0.2994"
         id="stop46" />
      <stop
         stop-color="#5998c6"
         offset="0.4634"
         id="stop48" />
      <stop
         stop-color="#2c87bc"
         offset="0.6191"
         id="stop50" />
      <stop
         stop-color="#007db5"
         offset="0.7645"
         id="stop52" />
      <stop
         stop-color="#0077b0"
         offset="0.8956"
         id="stop54" />
      <stop
         stop-color="#0075af"
         offset="1"
         id="stop56" />
    </linearGradient>
  </defs>
  <g
     transform="translate(-764.47458,99.932699)"
     id="g10622">
</g>
  <g
     transform="translate(-764.47458,99.932699)"
     id="g10624">
</g>
  <g
     transform="translate(-764.47458,99.932699)"
     id="g10626">
</g>
  <g
     transform="translate(-764.47458,99.932699)"
     id="g10628">
</g>
  <g
     transform="translate(-764.47458,99.932699)"
     id="g10630">
</g>
  <g
     transform="translate(-764.47458,99.932699)"
     id="g10632">
</g>
  <g
     transform="translate(-764.47458,99.932699)"
     id="g10634">
</g>
  <g
     transform="translate(-764.47458,99.932699)"
     id="g10636">
</g>
  <g
     transform="translate(-764.47458,99.932699)"
     id="g10638">
</g>
  <g
     transform="translate(-764.47458,99.932699)"
     id="g10640">
</g>
  <g
     transform="translate(-764.47458,99.932699)"
     id="g10642">
</g>
  <g
     transform="translate(-764.47458,99.932699)"
     id="g10644">
</g>
  <g
     transform="translate(-764.47458,99.932699)"
     id="g10646">
</g>
  <g
     transform="translate(-764.47458,99.932699)"
     id="g10648">
</g>
  <g
     transform="translate(-764.47458,99.932699)"
     id="g10650">
</g>
  <g
     transform="translate(-658.71186,-83.118636)"
     id="g11061">
</g>
  <g
     transform="translate(-658.71186,-83.118636)"
     id="g11063">
</g>
  <g
     transform="translate(-658.71186,-83.118636)"
     id="g11065">
</g>
  <g
     transform="translate(-658.71186,-83.118636)"
     id="g11067">
</g>
  <g
     transform="translate(-658.71186,-83.118636)"
     id="g11069">
</g>
  <g
     transform="translate(-658.71186,-83.118636)"
     id="g11071">
</g>
  <g
     transform="translate(-658.71186,-83.118636)"
     id="g11073">
</g>
  <g
     transform="translate(-658.71186,-83.118636)"
     id="g11075">
</g>
  <g
     transform="translate(-658.71186,-83.118636)"
     id="g11077">
</g>
  <g
     transform="translate(-658.71186,-83.118636)"
     id="g11079">
</g>
  <g
     transform="translate(-658.71186,-83.118636)"
     id="g11081">
</g>
  <g
     transform="translate(-658.71186,-83.118636)"
     id="g11083">
</g>
  <g
     transform="translate(-658.71186,-83.118636)"
     id="g11085">
</g>
  <g
     transform="translate(-658.71186,-83.118636)"
     id="g11087">
</g>
  <g
     transform="translate(-658.71186,-83.118636)"
     id="g11089">
</g>
  <g
     transform="translate(-717.69492,-81.084738)"
     id="g11579">
</g>
  <g
     transform="translate(-717.69492,-81.084738)"
     id="g11581">
</g>
  <g
     transform="translate(-717.69492,-81.084738)"
     id="g11583">
</g>
  <g
     transform="translate(-717.69492,-81.084738)"
     id="g11585">
</g>
  <g
     transform="translate(-717.69492,-81.084738)"
     id="g11587">
</g>
  <g
     transform="translate(-717.69492,-81.084738)"
     id="g11589">
</g>
  <g
     transform="translate(-717.69492,-81.084738)"
     id="g11591">
</g>
  <g
     transform="translate(-717.69492,-81.084738)"
     id="g11593">
</g>
  <g
     transform="translate(-717.69492,-81.084738)"
     id="g11595">
</g>
  <g
     transform="translate(-717.69492,-81.084738)"
     id="g11597">
</g>
  <g
     transform="translate(-717.69492,-81.084738)"
     id="g11599">
</g>
  <g
     transform="translate(-717.69492,-81.084738)"
     id="g11601">
</g>
  <g
     transform="translate(-717.69492,-81.084738)"
     id="g11603">
</g>
  <g
     transform="translate(-717.69492,-81.084738)"
     id="g11605">
</g>
  <g
     transform="translate(-717.69492,-81.084738)"
     id="g11607">
</g>
  <g
     transform="scale(1.25,0.93750003)"
     id="g11748">
	<rect
   id="rect11744"
   height="170.67"
   width="512"
   style="fill:#41479b"
   x="0"
   y="0" />

	<rect
   id="rect11746"
   height="170.67"
   width="512"
   style="fill:#41479b"
   y="341.32999"
   x="0" />

</g>
  <rect
     id="rect11750"
     height="160.00313"
     width="640"
     style="fill:#f5f5f5;stroke-width:1.08253181"
     y="159.99844"
     x="0" />
  <g
     transform="translate(850.84776,-76.269765)"
     id="g12029">
    <polygon
       style="fill:#afebff"
       points="256,206.664 214.9,267.105 297.1,267.105 "
       id="polygon11752"
       transform="translate(-786.84746,61.288143)" />
    <polygon
       style="fill:#557de6"
       points="323.694,305.788 297.1,267.105 214.9,267.105 188.306,305.788 "
       id="polygon11754"
       transform="translate(-786.84746,61.288143)" />
    <g
       id="g11790"
       transform="translate(-786.84746,61.288143)">
	<path
   style="fill:#73af00"
   d="m 266.518,263.727 c 0.164,-0.338 0.336,-0.669 0.484,-1.014 -0.148,0.344 -0.32,0.677 -0.484,1.014 z"
   id="path11756" />

	<path
   style="fill:#73af00"
   d="m 267.649,260.941 c 0.1,-0.303 0.223,-0.599 0.309,-0.907 -0.086,0.308 -0.209,0.603 -0.309,0.907 z"
   id="path11758" />

	<path
   style="fill:#73af00"
   d="m 265.119,266.264 c 0.207,-0.331 0.413,-0.66 0.607,-1 -0.193,0.34 -0.4,0.67 -0.607,1 z"
   id="path11760" />

	<path
   style="fill:#73af00"
   d="m 271.402,255.004 c -0.367,0 -0.72,0.06 -1.045,0.17 0.325,-0.11 0.678,-0.17 1.045,-0.17 z"
   id="path11762" />

	<path
   style="fill:#73af00"
   d="m 269.478,255.642 c -0.513,0.399 -0.862,0.956 -0.941,1.592 l -10e-4,0.004 10e-4,-0.004 c 0.079,-0.636 0.428,-1.194 0.941,-1.592 z"
   id="path11764" />

	<path
   style="fill:#73af00"
   d="m 268.231,273.681 c 0.577,0.546 1.147,1.067 1.72,1.562 3.068,-2.656 6.27,-6.031 8.517,-9.979 -0.161,0.283 -0.336,0.557 -0.506,0.835 -2.098,-3.859 -3.206,-7.197 -3.743,-9.176 -0.307,-1.131 -1.476,-1.917 -2.811,-1.919 0.512,4.51 1.616,12.795 -3.177,18.677 z"
   id="path11766" />

	<path
   style="fill:#73af00"
   d="m 280.391,260.941 c 0.1,-0.303 0.223,-0.599 0.309,-0.907 -0.087,0.308 -0.209,0.603 -0.309,0.907 z"
   id="path11768" />

	<path
   style="fill:#73af00"
   d="m 282.219,255.642 c -0.513,0.399 -0.862,0.956 -0.941,1.592 l -0.001,0.004 0.001,-0.004 c 0.08,-0.636 0.429,-1.194 0.941,-1.592 z"
   id="path11770" />

	<path
   style="fill:#73af00"
   d="m 279.26,263.727 c 0.164,-0.338 0.336,-0.669 0.484,-1.014 -0.148,0.344 -0.321,0.677 -0.484,1.014 z"
   id="path11772" />

	<path
   style="fill:#73af00"
   d="m 305.36,276.776 c -4.66,0 -9.07,-2.236 -11.762,-6.04 -4.055,-5.73 -5.894,-11.072 -6.638,-13.813 -0.307,-1.132 -1.479,-1.919 -2.816,-1.919 l 0.005,0.001 c 0.612,5.381 2.073,16.142 -6.671,21.772 h -5.693 c -0.234,-0.186 -0.462,-0.362 -0.7,-0.558 0.005,0.004 0.01,0.009 0.016,0.014 -1.593,2.08 -4.78,2.663 -7.252,1.39 -10.347,-5.331 -8.739,-16.956 -8.095,-22.617 -1.335,0.002 -2.504,0.788 -2.811,1.919 -0.537,1.979 -1.645,5.317 -3.743,9.176 -0.171,-0.277 -0.345,-0.552 -0.506,-0.835 2.528,4.442 6.278,8.19 9.666,10.967 -1.593,2.08 -4.78,2.663 -7.252,1.39 -10.347,-5.331 -8.739,-16.956 -8.095,-22.617 -1.335,0.002 -2.504,0.788 -2.811,1.919 -0.537,1.979 -1.645,5.317 -3.743,9.176 -0.171,-0.277 -0.345,-0.552 -0.506,-0.835 2.528,4.442 6.278,8.19 9.666,10.967 -1.593,2.08 -4.78,2.663 -7.252,1.39 -10.347,-5.331 -8.739,-16.956 -8.095,-22.617 l 0.005,-0.001 c -1.337,0 -2.509,0.787 -2.816,1.919 -0.744,2.741 -2.583,8.082 -6.638,13.813 -2.692,3.804 -7.101,6.04 -11.762,6.04 h -3.829 v 4.835 h 99.124 2.418 v -4.835 h -1.414 z"
   id="path11774" />

	<path
   style="fill:#73af00"
   d="m 260.158,262.713 c 0.148,0.345 0.32,0.676 0.484,1.014 -0.164,-0.337 -0.337,-0.67 -0.484,-1.014 z"
   id="path11776" />

	<path
   style="fill:#73af00"
   d="m 259.201,260.034 c 0.086,0.308 0.209,0.604 0.309,0.907 -0.1,-0.304 -0.222,-0.599 -0.309,-0.907 z"
   id="path11778" />

	<path
   style="fill:#73af00"
   d="m 258.623,257.237 -10e-4,-0.004 c -0.079,-0.635 -0.428,-1.193 -0.941,-1.592 0.513,0.399 0.862,0.956 0.941,1.592 z"
   id="path11780" />

	<path
   style="fill:#73af00"
   d="m 261.433,265.264 c 0.193,0.34 0.399,0.669 0.606,1 -0.206,-0.33 -0.413,-0.66 -0.606,-1 z"
   id="path11782" />

	<path
   style="fill:#73af00"
   d="m 263.655,268.616 c -0.025,-0.032 -0.048,-0.066 -0.072,-0.099 0.207,-0.276 0.407,-0.555 0.606,-0.838 -0.198,0.282 -0.402,0.558 -0.609,0.833 -0.206,-0.275 -0.411,-0.552 -0.609,-0.833 0.223,0.318 0.45,0.628 0.684,0.937 z"
   id="path11784" />

	<path
   style="fill:#73af00"
   d="m 264.717,269.954 c 0.236,0.283 0.469,0.563 0.711,0.838 -0.241,-0.274 -0.476,-0.556 -0.711,-0.838 z"
   id="path11786" />

	<path
   style="fill:#73af00"
   d="m 267.299,272.79 c -0.225,-0.225 -0.446,-0.462 -0.669,-0.695 0.224,0.233 0.443,0.469 0.669,0.695 z"
   id="path11788" />

</g>
    <path
       style="fill:#ffe15a"
       d="m -502.69846,316.29214 -0.005,-0.001 c -0.735,0 -1.411,0.24 -1.924,0.638 -0.513,0.399 -0.862,0.956 -0.941,1.592 l -10e-4,0.004 c -0.119,0.953 -0.322,1.884 -0.578,2.797 -0.086,0.308 -0.209,0.604 -0.309,0.907 -0.198,0.598 -0.4,1.194 -0.647,1.773 -0.148,0.345 -0.32,0.676 -0.484,1.014 -0.251,0.519 -0.507,1.036 -0.792,1.537 -2.247,3.947 -5.449,7.323 -8.517,9.979 -0.573,-0.496 -1.143,-1.016 -1.72,-1.562 4.793,-5.882 3.689,-14.167 3.176,-18.676 l -0.005,-0.001 c -0.367,0 -0.72,0.06 -1.045,0.17 -0.325,0.11 -0.623,0.269 -0.879,0.468 -0.513,0.399 -0.862,0.956 -0.941,1.592 l -10e-4,0.004 c -0.119,0.953 -0.322,1.884 -0.578,2.797 -0.086,0.308 -0.209,0.604 -0.309,0.907 -0.198,0.598 -0.4,1.194 -0.647,1.773 -0.148,0.345 -0.32,0.676 -0.484,1.014 -0.251,0.519 -0.507,1.036 -0.792,1.537 -0.193,0.34 -0.399,0.669 -0.607,1 -0.3,0.479 -0.606,0.954 -0.931,1.415 -0.199,0.283 -0.399,0.562 -0.606,0.838 -0.208,-0.276 -0.412,-0.554 -0.612,-0.838 -0.325,-0.461 -0.631,-0.936 -0.931,-1.415 -0.207,-0.331 -0.413,-0.66 -0.606,-1 -0.286,-0.501 -0.541,-1.018 -0.792,-1.537 -0.164,-0.338 -0.336,-0.669 -0.484,-1.014 -0.248,-0.578 -0.449,-1.175 -0.647,-1.773 -0.1,-0.303 -0.223,-0.599 -0.309,-0.907 -0.256,-0.913 -0.458,-1.844 -0.578,-2.797 l -10e-4,-0.004 c -0.079,-0.636 -0.428,-1.193 -0.941,-1.592 -0.513,-0.398 -1.189,-0.638 -1.924,-0.638 l -0.005,0.001 c -0.644,5.661 -2.251,17.286 8.095,22.617 1.745,0.899 3.838,0.865 5.48,0.037 1.049,-0.529 2.174,-0.882 3.348,-0.882 h 4.801 c 8.746,-5.632 7.285,-16.392 6.673,-21.774 z"
       id="path11792" />
    <g
       id="g11802"
       transform="translate(-786.84746,61.288143)">
	<path
   style="fill:#73af00"
   d="m 246.459,260.034 c 0.086,0.308 0.209,0.604 0.309,0.907 -0.1,-0.304 -0.222,-0.599 -0.309,-0.907 z"
   id="path11794" />

	<path
   style="fill:#73af00"
   d="m 245.882,257.237 -0.001,-0.004 c -0.079,-0.635 -0.428,-1.193 -0.941,-1.592 0.513,0.399 0.862,0.956 0.941,1.592 z"
   id="path11796" />

	<path
   style="fill:#73af00"
   d="m 247.416,262.713 c 0.148,0.345 0.32,0.676 0.484,1.014 -0.164,-0.337 -0.337,-0.67 -0.484,-1.014 z"
   id="path11798" />

	<path
   style="fill:#73af00"
   d="m 243.016,255.004 v 0 c 0.367,0 0.72,0.06 1.045,0.17 -0.325,-0.11 -0.678,-0.17 -1.045,-0.17 z"
   id="path11800" />

</g>
    <path
       style="fill:#ffe15a"
       d="m -535.74146,338.90914 c 2.472,1.273 5.659,0.69 7.252,-1.39 -3.388,-2.777 -7.138,-6.525 -9.666,-10.967 -0.286,-0.501 -0.541,-1.018 -0.792,-1.537 -0.164,-0.338 -0.336,-0.669 -0.484,-1.014 -0.248,-0.578 -0.449,-1.175 -0.647,-1.773 -0.1,-0.303 -0.223,-0.599 -0.309,-0.907 -0.256,-0.913 -0.458,-1.844 -0.578,-2.797 l -10e-4,-0.004 c -0.079,-0.636 -0.428,-1.193 -0.941,-1.592 -0.256,-0.199 -0.554,-0.359 -0.879,-0.468 -0.325,-0.109 -0.678,-0.17 -1.045,-0.17 v 0 l -0.005,10e-4 v 0 c -0.644,5.662 -2.252,17.287 8.095,22.618 z"
       id="path11804" />
    <g
       id="g11812"
       transform="translate(-786.84746,61.288143)">
	<path
   style="fill:#73af00"
   d="m 233.718,260.034 c 0.086,0.308 0.209,0.604 0.309,0.907 -0.1,-0.304 -0.223,-0.599 -0.309,-0.907 z"
   id="path11806" />

	<path
   style="fill:#73af00"
   d="m 234.674,262.713 c 0.148,0.345 0.32,0.676 0.484,1.014 -0.164,-0.337 -0.336,-0.67 -0.484,-1.014 z"
   id="path11808" />

	<path
   style="fill:#73af00"
   d="m 233.14,257.237 -10e-4,-0.004 c -0.079,-0.635 -0.428,-1.193 -0.941,-1.592 0.513,0.399 0.862,0.956 0.941,1.592 z"
   id="path11810" />

</g>
    <path
       style="fill:#ffe15a"
       d="m -548.48346,338.90914 c 2.472,1.273 5.659,0.69 7.252,-1.39 -3.388,-2.777 -7.138,-6.525 -9.666,-10.967 -0.286,-0.501 -0.541,-1.018 -0.792,-1.537 -0.164,-0.338 -0.336,-0.669 -0.484,-1.014 -0.248,-0.578 -0.449,-1.175 -0.647,-1.773 -0.1,-0.303 -0.223,-0.599 -0.309,-0.907 -0.256,-0.913 -0.458,-1.844 -0.578,-2.797 l -10e-4,-0.004 c -0.079,-0.636 -0.428,-1.193 -0.941,-1.592 -0.513,-0.398 -1.189,-0.638 -1.924,-0.638 l -0.005,10e-4 c -0.644,5.662 -2.252,17.287 8.095,22.618 z"
       id="path11814" />
    <path
       style="fill:#41479b"
       d="m -551.21646,297.06814 c -0.201,0.771 -0.402,1.542 -0.603,2.314 6.6,-1.979 13.882,-3.168 21.787,-3.168 7.903,0.004 15.187,1.185 21.787,3.168 -0.201,-0.772 -0.402,-1.543 -0.603,-2.314 -6.565,-1.694 -13.631,-2.668 -21.184,-2.665 -7.552,-0.002 -14.618,0.97 -21.184,2.665 z"
       id="path11816" />
    <path
       style="fill:#5aa0e6"
       d="m -550.95446,296.06214 c -0.201,0.771 -0.402,1.542 -0.603,2.314 6.527,-1.984 13.721,-3.174 21.525,-3.178 7.804,0.003 14.999,1.193 21.525,3.178 -0.201,-0.772 -0.402,-1.543 -0.603,-2.314 -6.492,-1.706 -13.467,-2.672 -20.922,-2.675 -7.456,0.002 -14.43,0.972 -20.922,2.675 z"
       id="path11818" />
    <path
       style="fill:#9bc800"
       d="m -550.71146,295.13214 c -0.201,0.771 -0.402,1.542 -0.603,2.313 6.463,-1.991 13.572,-3.19 21.282,-3.187 7.712,0 14.821,1.196 21.282,3.187 -0.201,-0.771 -0.402,-1.542 -0.603,-2.313 -6.421,-1.705 -13.313,-2.684 -20.679,-2.684 -7.365,-0.002 -14.255,0.979 -20.679,2.684 z"
       id="path11820" />
    <path
       style="fill:#ffe14e"
       d="m -550.43446,294.06914 c -0.201,0.772 -0.402,1.543 -0.603,2.314 6.386,-1.997 13.401,-3.198 21.005,-3.198 7.605,0.003 14.619,1.2 21.005,3.198 -0.201,-0.771 -0.402,-1.542 -0.603,-2.314 -6.346,-1.713 -13.139,-2.693 -20.402,-2.695 -7.262,0.002 -14.057,0.982 -20.402,2.695 z"
       id="path11822" />
    <path
       style="fill:#ffb14e"
       d="m -550.16246,293.02614 c -0.201,0.771 -0.402,1.542 -0.603,2.313 6.313,-2.003 13.23,-3.207 20.733,-3.208 7.502,0.005 14.421,1.202 20.733,3.208 -0.201,-0.771 -0.402,-1.542 -0.603,-2.313 -6.268,-1.716 -12.968,-2.704 -20.13,-2.706 -7.159,0.003 -13.861,0.986 -20.13,2.706 z"
       id="path11824" />
    <path
       style="fill:#ff4b55"
       d="m -550.04646,292.58114 c -0.141,0.54 -0.281,1.08 -0.422,1.62 6.23,-2.005 13.049,-3.221 20.437,-3.22 7.389,-0.003 14.206,1.211 20.436,3.22 -0.141,-0.54 -0.281,-1.08 -0.422,-1.62 -6.234,-1.72 -12.897,-2.708 -20.014,-2.71 -7.118,-0.005 -13.78,0.987 -20.015,2.71 z"
       id="path11826" />
    <path
       style="fill:#ffe15a"
       d="m -463.15246,369.42314 h -135.39 c -0.892,0 -1.712,-0.491 -2.132,-1.275 -0.42,-0.789 -0.373,-1.742 0.12,-2.484 l 67.695,-101.542 c 0.897,-1.341 3.126,-1.341 4.023,0 l 67.695,101.542 c 0.493,0.741 0.541,1.695 0.12,2.484 -0.42,0.784 -1.239,1.275 -2.131,1.275 z m -130.873,-4.835 h 126.356 l -63.178,-94.766 z"
       id="path11828" />
    <path
       style="fill:#ff4b55"
       d="m -526.22346,306.50114 c 0,-2.126 -2.156,-5.361 -5.606,-5.361 -2.017,0 -3.652,1.232 -3.652,2.753 0,0.759 0.408,1.446 1.066,1.943 -0.003,0.028 -0.005,0.057 -0.008,0.084 -0.824,0.505 -1.361,1.265 -1.361,2.128 0,1.451 1.494,2.626 3.382,2.732 l 1.554,3.108 1.403,-2.805 c 1.843,-0.472 3.222,-2.34 3.222,-4.582 z"
       id="path11830" />
  </g>
  <g
     transform="translate(-786.84746,61.288143)"
     id="g11832">
</g>
  <g
     transform="translate(-786.84746,61.288143)"
     id="g11834">
</g>
  <g
     transform="translate(-786.84746,61.288143)"
     id="g11836">
</g>
  <g
     transform="translate(-786.84746,61.288143)"
     id="g11838">
</g>
  <g
     transform="translate(-786.84746,61.288143)"
     id="g11840">
</g>
  <g
     transform="translate(-786.84746,61.288143)"
     id="g11842">
</g>
  <g
     transform="translate(-786.84746,61.288143)"
     id="g11844">
</g>
  <g
     transform="translate(-786.84746,61.288143)"
     id="g11846">
</g>
  <g
     transform="translate(-786.84746,61.288143)"
     id="g11848">
</g>
  <g
     transform="translate(-786.84746,61.288143)"
     id="g11850">
</g>
  <g
     transform="translate(-786.84746,61.288143)"
     id="g11852">
</g>
  <g
     transform="translate(-786.84746,61.288143)"
     id="g11854">
</g>
  <g
     transform="translate(-786.84746,61.288143)"
     id="g11856">
</g>
  <g
     transform="translate(-786.84746,61.288143)"
     id="g11858">
</g>
  <g
     transform="translate(-786.84746,61.288143)"
     id="g11860">
</g>
</svg>
