<?xml version="1.0" encoding="UTF-8" standalone="no"?>
<svg
   xmlns:dc="http://purl.org/dc/elements/1.1/"
   xmlns:cc="http://creativecommons.org/ns#"
   xmlns:rdf="http://www.w3.org/1999/02/22-rdf-syntax-ns#"
   xmlns:svg="http://www.w3.org/2000/svg"
   xmlns="http://www.w3.org/2000/svg"
   xmlns:xlink="http://www.w3.org/1999/xlink"
   version="1.1"
   viewBox="0 0 640 480"
   id="flag-icon-css-ve">
  <metadata
     id="metadata35">
    <rdf:RDF>
      <cc:Work
         rdf:about="">
        <dc:format>image/svg+xml</dc:format>
        <dc:type
           rdf:resource="http://purl.org/dc/dcmitype/StillImage" />
        <dc:title></dc:title>
      </cc:Work>
    </rdf:RDF>
  </metadata>
  <defs
     id="defs14">
    <g
       transform="translate(0 -36)"
       id="d">
      <g
         id="c">
        <g
           id="b">
          <path
             d="M0-5L-1.5-.2l2.8.9z"
             fill="#fff"
             id="a" />
          <use
             id="use3"
             xlink:href="#a"
             transform="scale(-1 1)"
             height="120"
             width="180" />
        </g>
        <use
           id="use6"
           xlink:href="#b"
           transform="rotate(72)"
           height="120"
           width="180" />
      </g>
      <use
         id="use9"
         xlink:href="#b"
         transform="rotate(-72)"
         height="120"
         width="180" />
      <use
         id="use11"
         xlink:href="#c"
         transform="rotate(144)"
         height="120"
         width="180" />
    </g>
    <linearGradient
       id="grad1"
       y2="277.58"
       gradientUnits="userSpaceOnUse"
       x2="601.38"
       gradientTransform="matrix(1.146366,0,0,1.1711652,33.178489,82.1384)"
       y1="342.3"
       x1="597.92">
      <stop
         stop-color="#fff"
         offset="0"
         id="stop37" />
      <stop
         stop-color="#1ea8d1"
         offset="1"
         id="stop39" />
    </linearGradient>
    <linearGradient
       id="grad2"
       y2="399.5"
       gradientUnits="userSpaceOnUse"
       x2="600.31"
       gradientTransform="matrix(1.146366,0,0,1.1711652,33.178489,82.1384)"
       y1="326.43"
       x1="599.96">
      <stop
         stop-color="#FFF"
         offset="0"
         id="stop42" />
      <stop
         stop-color="#c1d3e8"
         offset="0.1312"
         id="stop44" />
      <stop
         stop-color="#88b0d5"
         offset="0.2994"
         id="stop46" />
      <stop
         stop-color="#5998c6"
         offset="0.4634"
         id="stop48" />
      <stop
         stop-color="#2c87bc"
         offset="0.6191"
         id="stop50" />
      <stop
         stop-color="#007db5"
         offset="0.7645"
         id="stop52" />
      <stop
         stop-color="#0077b0"
         offset="0.8956"
         id="stop54" />
      <stop
         stop-color="#0075af"
         offset="1"
         id="stop56" />
    </linearGradient>
  </defs>
  <g
     transform="translate(-764.47458,99.932699)"
     id="g10622">
</g>
  <g
     transform="translate(-764.47458,99.932699)"
     id="g10624">
</g>
  <g
     transform="translate(-764.47458,99.932699)"
     id="g10626">
</g>
  <g
     transform="translate(-764.47458,99.932699)"
     id="g10628">
</g>
  <g
     transform="translate(-764.47458,99.932699)"
     id="g10630">
</g>
  <g
     transform="translate(-764.47458,99.932699)"
     id="g10632">
</g>
  <g
     transform="translate(-764.47458,99.932699)"
     id="g10634">
</g>
  <g
     transform="translate(-764.47458,99.932699)"
     id="g10636">
</g>
  <g
     transform="translate(-764.47458,99.932699)"
     id="g10638">
</g>
  <g
     transform="translate(-764.47458,99.932699)"
     id="g10640">
</g>
  <g
     transform="translate(-764.47458,99.932699)"
     id="g10642">
</g>
  <g
     transform="translate(-764.47458,99.932699)"
     id="g10644">
</g>
  <g
     transform="translate(-764.47458,99.932699)"
     id="g10646">
</g>
  <g
     transform="translate(-764.47458,99.932699)"
     id="g10648">
</g>
  <g
     transform="translate(-764.47458,99.932699)"
     id="g10650">
</g>
  <g
     transform="scale(1.25,0.93750003)"
     id="g10915">
	<rect
   id="rect10911"
   height="170.67"
   width="512"
   style="fill:#41479b"
   x="0"
   y="0" />

	<rect
   id="rect10913"
   height="170.67"
   width="512"
   style="fill:#41479b"
   y="341.32999"
   x="0" />

</g>
  <rect
     id="rect10917"
     height="160.00313"
     width="640"
     style="fill:#f5f5f5;stroke-width:1.08253181"
     y="159.99844"
     x="0" />
  <g
     transform="translate(722.71186,70.487136)"
     id="g11351">
    <g
       id="g10971"
       transform="translate(-658.71186,-83.118636)">
	<path
   style="fill:#50af69"
   d="m 255.678,313.332 c -32.503,0 -58.947,-26.444 -58.947,-58.947 0,-13.885 4.921,-27.368 13.859,-37.97 l 2.576,2.171 c -8.426,9.993 -13.066,22.707 -13.066,35.799 0,30.645 24.933,55.579 55.579,55.579 z"
   id="path10919" />

	<path
   style="fill:#50af69"
   d="m 234.115,295.927 c -0.736,1.256 -1.099,2.98 -1.26,4.732 -0.666,-0.479 -1.37,-0.924 -2.138,-1.298 0,0 -1.158,4.081 -0.252,7.02 0,0 -3.072,0.381 -5.892,3.21 0,0 0.972,0.688 2.641,1.404 -2.801,2.186 -3.665,4.346 -3.665,4.346 16.53,8.265 24.452,-3.265 24.796,-3.782 -4.049,-11.555 -14.23,-15.632 -14.23,-15.632 z"
   id="path10921" />

	<path
   style="fill:#50af69"
   d="m 248.345,311.56 c 0.01,0.029 0.023,0.055 0.033,0.084 v -0.132 c 0.001,0 -0.025,0.036 -0.033,0.048 z"
   id="path10923" />

	<path
   style="fill:#50af69"
   d="m 218.85,284.909 c -1.08,0.79 -2.016,2.111 -2.792,3.528 -0.386,-0.647 -0.817,-1.28 -1.328,-1.876 0,0 -2.469,3.017 -2.779,5.826 0,0 -2.729,-0.802 -6.141,0.552 0,0 0.568,0.935 1.713,2.149 -3.16,0.818 -4.679,2.324 -4.679,2.324 10.912,13.012 21.807,6.189 22.286,5.879 0.813,-11.222 -6.28,-18.382 -6.28,-18.382 z"
   id="path10925" />

	<path
   style="fill:#50af69"
   d="m 225.13,303.291 c -0.002,0.028 -0.001,0.054 -0.003,0.083 l 0.048,-0.112 c 10e-4,0 -0.034,0.022 -0.045,0.029 z"
   id="path10927" />

	<path
   style="fill:#50af69"
   d="m 209.379,270.507 c -1.18,0.248 -2.438,0.987 -3.601,1.863 -0.077,-0.675 -0.197,-1.354 -0.396,-2.033 0,0 -3.146,1.563 -4.442,3.755 0,0 -1.944,-1.67 -5.249,-1.822 0,0 0.12,0.979 0.611,2.4 -2.899,-0.499 -4.704,0.175 -4.704,0.175 4.142,14.731 15.618,13.164 16.127,13.087 4.826,-8.916 1.654,-17.425 1.654,-17.425 z"
   id="path10929" />

	<path
   style="fill:#50af69"
   d="m 207.726,287.933 c -0.012,0.022 -0.021,0.044 -0.033,0.067 l 0.081,-0.074 c 0,0 -0.036,0.005 -0.048,0.007 z"
   id="path10931" />

	<path
   style="fill:#50af69"
   d="m 205.63,254.09 c -1.119,0.073 -2.421,0.561 -3.669,1.181 0.086,-0.595 0.133,-1.199 0.11,-1.811 0,0 -3.19,0.976 -4.859,2.721 0,0 -1.367,-1.684 -4.306,-2.216 0,0 -0.117,0.864 -0.001,2.156 -2.495,-0.783 -4.274,-0.417 -4.274,-0.417 0.348,13.282 11.037,13.31 11.513,13.305 6.389,-7.153 5.486,-14.919 5.486,-14.919 z"
   id="path10933" />

	<path
   style="fill:#50af69"
   d="m 200.145,269.008 c -0.016,0.018 -0.029,0.036 -0.045,0.054 l 0.09,-0.054 c -0.001,0 -0.035,0 -0.045,0 z"
   id="path10935" />

	<path
   style="fill:#50af69"
   d="m 206.872,240.496 c -0.957,-0.228 -2.176,-0.156 -3.383,0.042 0.226,-0.477 0.422,-0.971 0.561,-1.491 0,0 -2.928,-0.007 -4.78,1.025 0,0 -0.711,-1.766 -3.039,-2.973 0,0 -0.321,0.694 -0.559,1.809 -1.89,-1.303 -3.477,-1.456 -3.477,-1.456 -3.144,11.231 5.815,14.02 6.215,14.139 7.211,-4.347 8.462,-11.095 8.462,-11.095 z"
   id="path10937" />

	<path
   style="fill:#50af69"
   d="m 198.411,251.59 c -0.018,0.011 -0.033,0.023 -0.052,0.034 l 0.089,-0.022 c 0.001,0 -0.028,-0.009 -0.037,-0.012 z"
   id="path10939" />

	<path
   style="fill:#50af69"
   d="m 199.782,223.962 c 0,0 -3.053,8 1.684,12.632 0,0 6.175,-1.825 9.228,-8.246 l -2.596,-0.491 -1.333,-4 -4.421,1.965 z"
   id="path10941" />

	<path
   style="fill:#50af69"
   d="m 208.383,211.104 c 0,0 -4.785,7.101 -1.221,12.685 0,0 6.428,-0.378 10.856,-5.941 l -2.418,-1.067 -0.393,-4.198 -4.751,0.912 z"
   id="path10943" />

	<path
   style="fill:#50af69"
   d="m 256.322,313.332 v -3.368 c 30.646,0 55.579,-24.934 55.579,-55.579 0,-13.092 -4.64,-25.806 -13.066,-35.799 l 2.576,-2.171 c 8.938,10.602 13.859,24.086 13.859,37.97 0,32.503 -26.444,58.947 -58.948,58.947 z"
   id="path10945" />

	<path
   style="fill:#50af69"
   d="m 277.885,295.927 c 0.736,1.256 1.099,2.98 1.26,4.732 0.666,-0.479 1.371,-0.924 2.138,-1.298 0,0 1.158,4.081 0.252,7.02 0,0 3.072,0.381 5.892,3.21 0,0 -0.972,0.688 -2.641,1.404 2.801,2.186 3.665,4.346 3.665,4.346 -16.53,8.265 -24.452,-3.265 -24.796,-3.782 4.049,-11.555 14.23,-15.632 14.23,-15.632 z"
   id="path10947" />

	<path
   style="fill:#50af69"
   d="m 263.655,311.56 c -0.01,0.029 -0.023,0.055 -0.033,0.084 v -0.132 c -0.001,0 0.025,0.036 0.033,0.048 z"
   id="path10949" />

	<path
   style="fill:#50af69"
   d="m 293.15,284.909 c 1.08,0.79 2.016,2.111 2.792,3.528 0.386,-0.647 0.817,-1.28 1.328,-1.876 0,0 2.469,3.017 2.779,5.826 0,0 2.729,-0.802 6.141,0.552 0,0 -0.568,0.935 -1.713,2.149 3.16,0.818 4.679,2.324 4.679,2.324 -10.912,13.012 -21.807,6.189 -22.286,5.879 -0.813,-11.222 6.28,-18.382 6.28,-18.382 z"
   id="path10951" />

	<path
   style="fill:#50af69"
   d="m 286.87,303.291 c 0.002,0.028 10e-4,0.054 0.003,0.083 l -0.048,-0.112 c -10e-4,0 0.034,0.022 0.045,0.029 z"
   id="path10953" />

	<path
   style="fill:#50af69"
   d="m 302.621,270.507 c 1.18,0.248 2.438,0.987 3.601,1.863 0.077,-0.675 0.197,-1.354 0.396,-2.033 0,0 3.146,1.563 4.442,3.755 0,0 1.944,-1.67 5.249,-1.822 0,0 -0.12,0.979 -0.611,2.4 2.899,-0.499 4.704,0.175 4.704,0.175 -4.142,14.731 -15.618,13.164 -16.127,13.087 -4.826,-8.916 -1.654,-17.425 -1.654,-17.425 z"
   id="path10955" />

	<path
   style="fill:#50af69"
   d="m 304.274,287.933 c 0.012,0.022 0.021,0.044 0.033,0.067 l -0.081,-0.074 c 0,0 0.036,0.005 0.048,0.007 z"
   id="path10957" />

	<path
   style="fill:#50af69"
   d="m 306.37,254.09 c 1.119,0.073 2.421,0.561 3.669,1.181 -0.086,-0.595 -0.133,-1.199 -0.11,-1.811 0,0 3.19,0.976 4.859,2.721 0,0 1.367,-1.684 4.306,-2.216 0,0 0.117,0.864 0.001,2.156 2.495,-0.783 4.274,-0.417 4.274,-0.417 -0.348,13.282 -11.037,13.31 -11.513,13.305 -6.389,-7.153 -5.486,-14.919 -5.486,-14.919 z"
   id="path10959" />

	<path
   style="fill:#50af69"
   d="m 311.855,269.008 c 0.016,0.018 0.029,0.036 0.045,0.054 l -0.09,-0.054 c 10e-4,0 0.035,0 0.045,0 z"
   id="path10961" />

	<path
   style="fill:#50af69"
   d="m 305.128,240.496 c 0.957,-0.228 2.176,-0.156 3.383,0.042 -0.226,-0.477 -0.422,-0.971 -0.561,-1.491 0,0 2.928,-0.007 4.78,1.025 0,0 0.711,-1.766 3.039,-2.973 0,0 0.321,0.694 0.559,1.809 1.89,-1.303 3.477,-1.456 3.477,-1.456 3.144,11.231 -5.815,14.02 -6.215,14.139 -7.211,-4.347 -8.462,-11.095 -8.462,-11.095 z"
   id="path10963" />

	<path
   style="fill:#50af69"
   d="m 313.589,251.59 c 0.018,0.011 0.033,0.023 0.052,0.034 l -0.089,-0.022 c -0.001,0 0.028,-0.009 0.037,-0.012 z"
   id="path10965" />

	<path
   style="fill:#50af69"
   d="m 312.218,223.962 c 0,0 3.053,8 -1.684,12.632 0,0 -6.175,-1.825 -9.228,-8.246 l 2.596,-0.491 1.333,-4 4.421,1.965 z"
   id="path10967" />

	<path
   style="fill:#50af69"
   d="m 303.617,211.104 c 0,0 4.785,7.101 1.221,12.685 0,0 -6.428,-0.378 -10.856,-5.941 l 2.418,-1.067 0.393,-4.198 4.751,0.912 z"
   id="path10969" />

</g>
    <path
       style="fill:#41479b"
       d="m -402.71186,194.77636 -5.207,7.811 c -0.889,1.334 -0.714,3.111 0.42,4.244 l 4.787,4.787 4.787,-4.787 c 1.134,-1.134 1.31,-2.91 0.42,-4.244 z"
       id="path10973" />
    <path
       style="fill:#f5f5f5"
       d="m -400.49286,202.58736 -2.219,-7.811 -2.219,7.811 c -0.379,1.334 -0.304,3.11 0.179,4.244 l 2.04,4.787 2.04,-4.787 c 0.483,-1.134 0.558,-2.911 0.179,-4.244 z"
       id="path10975" />
    <g
       id="g10981"
       transform="translate(-658.71186,-83.118636)">
	<path
   style="fill:#41479b"
   d="m 256,208 v -21.053 c 0,0 -8,11.509 -6.737,28.351"
   id="path10977" />

	<path
   style="fill:#41479b"
   d="m 220.123,208.072 c -11.572,25.116 0.298,45.784 2.79,49.674 0.066,0.104 16.526,-26.522 16.526,-26.522 l -19.316,-23.152"
   id="path10979" />

</g>
    <path
       style="fill:#f5f5f5"
       d="m -426.40586,159.62336 c -1.825,-5.686 -2.09,-12.324 0.102,-19.943 l -7.161,-8.584 c -5.885,15.855 -3.449,27.563 2.44,35.962 1.447,-2.323 3.053,-4.909 4.619,-7.435 z"
       id="path10983" />
    <path
       style="fill:#ffe15a"
       d="m -419.55186,149.50936 c -0.502,0 -0.998,-0.224 -1.331,-0.651 l -21.12,-27.155 c -0.572,-0.734 -0.439,-1.793 0.294,-2.362 0.738,-0.572 1.793,-0.438 2.363,0.296 l 21.12,27.155 c 0.572,0.734 0.439,1.793 -0.294,2.362 -0.307,0.24 -0.672,0.355 -1.032,0.355 z"
       id="path10985" />
    <path
       style="fill:#41479b"
       d="m -453.23786,151.05336 c -6.737,67.368 47.158,50.526 50.526,43.789 l -33.684,-16.842 6.737,-13.474 -23.579,-13.473"
       id="path10987" />
    <path
       style="fill:#f5f5f5"
       d="m -436.95086,158.80436 -9.388,-5.633 c -2.112,40.032 19.266,46.699 35.033,44.713 -12.784,-1.716 -25.555,-11.155 -25.645,-39.08 z"
       id="path10989" />
    <path
       style="fill:#ffe15a"
       d="m -429.66286,166.20736 c -0.304,0 -0.613,-0.082 -0.891,-0.257 l -26.946,-16.839 c -0.788,-0.493 -1.028,-1.533 -0.535,-2.319 0.492,-0.793 1.53,-1.033 2.321,-0.536 l 26.946,16.839 c 0.788,0.493 1.028,1.533 0.535,2.319 -0.319,0.513 -0.869,0.793 -1.43,0.793 z"
       id="path10991" />
    <path
       style="fill:#41479b"
       d="m -366.83486,124.88736 c 11.572,25.116 -0.298,45.784 -2.79,49.674 -0.067,0.104 -16.526,-26.522 -16.526,-26.522 l 19.316,-23.152"
       id="path10993" />
    <path
       style="fill:#f5f5f5"
       d="m -379.01786,159.55636 c 1.825,-5.686 2.09,-12.324 -0.102,-19.943 l 7.161,-8.584 c 5.885,15.855 3.449,27.563 -2.44,35.962 -1.447,-2.323 -3.053,-4.909 -4.619,-7.435 z"
       id="path10995" />
    <path
       style="fill:#ffe15a"
       d="m -385.87186,149.44436 c -0.36,0 -0.725,-0.115 -1.033,-0.355 -0.734,-0.569 -0.867,-1.628 -0.294,-2.362 l 21.12,-27.155 c 0.572,-0.734 1.628,-0.865 2.363,-0.296 0.734,0.569 0.867,1.628 0.294,2.362 l -21.12,27.155 c -0.331,0.427 -0.828,0.651 -1.33,0.651 z"
       id="path10997" />
    <path
       style="fill:#41479b"
       d="m -352.18586,150.98636 c 6.737,67.368 -47.158,50.526 -50.526,43.789 l 33.684,-16.842 -6.737,-13.474 23.579,-13.473"
       id="path10999" />
    <path
       style="fill:#f5f5f5"
       d="m -368.47286,158.73736 9.388,-5.633 c 2.112,40.032 -19.266,46.699 -35.033,44.713 12.784,-1.715 25.555,-11.154 25.645,-39.08 z"
       id="path11001" />
    <path
       style="fill:#ffe15a"
       d="m -375.76086,166.14136 c -0.561,0 -1.11,-0.28 -1.429,-0.793 -0.493,-0.786 -0.253,-1.826 0.535,-2.319 l 26.946,-16.839 c 0.791,-0.497 1.829,-0.257 2.321,0.536 0.493,0.786 0.253,1.826 -0.535,2.319 l -26.946,16.839 c -0.279,0.175 -0.588,0.257 -0.892,0.257 z"
       id="path11003" />
    <circle
       style="fill:#ffe6e6"
       cx="-402.71185"
       cy="154.35136"
       r="13.474"
       id="circle11005" />
    <circle
       style="fill:#f5f5f5"
       cx="-402.71185"
       cy="154.35136"
       r="6.737"
       id="circle11007" />
    <path
       style="fill:#ffe15a"
       d="m -402.71186,176.24936 c -0.931,0 -1.684,-0.753 -1.684,-1.684 v -20.211 c 0,-0.931 0.753,-1.684 1.684,-1.684 0.931,0 1.684,0.753 1.684,1.684 v 20.211 c 0,0.931 -0.753,1.684 -1.684,1.684 z"
       id="path11009" />
    <polygon
       style="fill:#5aa0e6"
       points="302.035,277.614 211.789,277.614 222.316,257.584 289.965,257.584 "
       id="polygon11011"
       transform="translate(-658.71186,-83.118636)" />
    <path
       style="fill:#ffb750"
       d="m -399.97086,178.21436 h 23.47 l -7.301,-7.301 c -0.344,-0.344 -0.762,-0.602 -1.223,-0.756 l -2.541,-0.847 c -0.916,-0.305 -1.922,-0.171 -2.725,0.365 l -8.115,5.41 z"
       id="path11013" />
    <path
       style="fill:#ffc455"
       d="m -407.95186,179.47736 h 28.012 l -8.714,-8.714 c -0.41,-0.41 -0.91,-0.719 -1.46,-0.902 l -3.033,-1.011 c -1.093,-0.364 -2.294,-0.204 -3.253,0.436 l -9.685,6.457 z"
       id="path11015" />
    <path
       style="fill:#ffcd55"
       d="m -417.69686,180.88136 h 33.827 l -10.523,-10.523 c -0.495,-0.495 -1.099,-0.868 -1.763,-1.09 l -3.663,-1.221 c -1.32,-0.44 -2.77,-0.246 -3.928,0.526 l -11.695,7.797 z"
       id="path11017" />
    <path
       style="fill:#ffd25a"
       d="m -427.33886,182.14436 h 38.732 l -12.049,-12.049 c -0.567,-0.567 -1.258,-0.994 -2.019,-1.248 l -4.194,-1.398 c -1.512,-0.504 -3.172,-0.282 -4.498,0.602 l -13.391,8.928 z"
       id="path11019" />
    <path
       style="fill:#ffe15a"
       d="m -443.13286,184.67036 h 50.526 l -15.718,-15.718 c -0.74,-0.74 -1.641,-1.297 -2.633,-1.627 l -5.471,-1.824 c -1.972,-0.657 -4.138,-0.367 -5.867,0.786 l -17.469,11.646 z"
       id="path11021" />
    <g
       id="g11029"
       transform="translate(-658.71186,-83.118636)">
	<path
   style="fill:#ff4b55"
   d="m 259.636,240.495 h -7.283 l 1.677,-7.032 h 2.531 c 0.82,0 1.532,0.563 1.723,1.36 z"
   id="path11023" />

	<path
   style="fill:#ff4b55"
   d="m 259.217,241.625 h -6.538 c -0.535,0 -0.969,-0.434 -0.969,-0.969 v -0.323 c 0,-0.535 0.434,-0.969 0.969,-0.969 h 6.538 c 0.535,0 0.969,0.434 0.969,0.969 v 0.323 c -10e-4,0.535 -0.434,0.969 -0.969,0.969 z"
   id="path11025" />

	<path
   style="fill:#ff4b55"
   d="m 254.895,236.666 -1.636,-0.414 c -0.493,-0.125 -0.707,-0.705 -0.413,-1.12 l 1.183,-1.668 z"
   id="path11027" />

</g>
    <path
       style="fill:#41479b"
       d="m -411.11386,137.05236 c -0.08,0.619 -0.159,1.237 -0.239,1.856 2.617,-1.588 5.506,-2.542 8.641,-2.541 3.135,0.003 6.023,0.95 8.641,2.541 -0.08,-0.619 -0.159,-1.238 -0.239,-1.856 -2.604,-1.359 -5.406,-2.14 -8.402,-2.138 -2.995,-10e-4 -5.798,0.778 -8.402,2.138 z"
       id="path11031" />
    <path
       style="fill:#5aa0e6"
       d="m -411.00986,136.24536 c -0.08,0.619 -0.16,1.237 -0.239,1.856 2.589,-1.592 5.442,-2.546 8.537,-2.549 3.095,0.003 5.949,0.957 8.537,2.549 -0.08,-0.619 -0.159,-1.238 -0.239,-1.856 -2.575,-1.369 -5.341,-2.144 -8.298,-2.146 -2.957,0.002 -5.723,0.78 -8.298,2.146 z"
       id="path11033" />
    <path
       style="fill:#9bc800"
       d="m -410.91386,135.50036 c -0.08,0.619 -0.16,1.237 -0.239,1.856 2.563,-1.597 5.383,-2.559 8.441,-2.557 3.059,0 5.878,0.96 8.441,2.557 -0.08,-0.619 -0.16,-1.237 -0.239,-1.856 -2.547,-1.368 -5.28,-2.153 -8.202,-2.154 -2.921,-0.001 -5.654,0.785 -8.202,2.154 z"
       id="path11035" />
    <path
       style="fill:#ffe14e"
       d="m -410.80386,134.64736 c -0.08,0.619 -0.16,1.238 -0.239,1.856 2.533,-1.602 5.315,-2.566 8.331,-2.565 3.016,0.003 5.798,0.962 8.331,2.565 -0.08,-0.619 -0.16,-1.237 -0.239,-1.856 -2.517,-1.374 -5.211,-2.161 -8.092,-2.162 -2.88,0.001 -5.575,0.788 -8.092,2.162 z"
       id="path11037" />
    <path
       style="fill:#ffb14e"
       d="m -410.69586,133.81036 c -0.08,0.619 -0.16,1.237 -0.239,1.856 2.504,-1.607 5.247,-2.573 8.223,-2.574 2.975,0.004 5.719,0.964 8.223,2.574 -0.08,-0.619 -0.16,-1.237 -0.239,-1.856 -2.486,-1.377 -5.143,-2.169 -7.984,-2.171 -2.84,0.003 -5.498,0.791 -7.984,2.171 z"
       id="path11039" />
    <path
       style="fill:#ff4b55"
       d="m -410.64986,133.45336 c -0.056,0.433 -0.112,0.867 -0.167,1.3 2.471,-1.609 5.175,-2.584 8.105,-2.583 2.93,-0.002 5.634,0.972 8.105,2.583 -0.056,-0.433 -0.112,-0.867 -0.167,-1.3 -2.473,-1.379 -5.115,-2.173 -7.938,-2.174 -2.823,-0.004 -5.465,0.791 -7.938,2.174 z"
       id="path11041" />
    <g
       id="g11049"
       transform="translate(-658.71186,-83.118636)">
	<path
   style="fill:#ffe15a"
   d="m 303.158,279.579 h -94.316 c -0.622,0 -1.192,-0.342 -1.485,-0.888 -0.293,-0.549 -0.26,-1.214 0.084,-1.73 l 47.158,-70.737 c 0.625,-0.934 2.178,-0.934 2.803,0 l 47.158,70.737 c 0.344,0.516 0.377,1.181 0.084,1.73 -0.294,0.546 -0.864,0.888 -1.486,0.888 z m -91.17,-3.368 h 88.023 L 256,210.194 Z"
   id="path11043" />

	<path
   style="fill:#ffe15a"
   d="m 256,192 c -0.931,0 -1.684,-0.753 -1.684,-1.684 v -6.737 c 0,-0.931 0.753,-1.684 1.684,-1.684 0.931,0 1.684,0.753 1.684,1.684 v 6.737 c 0,0.931 -0.753,1.684 -1.684,1.684 z"
   id="path11045" />

	<path
   style="fill:#ffe15a"
   d="m 259.368,192 h -6.737 c -0.931,0 -1.684,-0.753 -1.684,-1.684 0,-0.931 0.753,-1.684 1.684,-1.684 h 6.737 c 0.931,0 1.684,0.753 1.684,1.684 10e-4,0.931 -0.753,1.684 -1.684,1.684 z"
   id="path11047" />

</g>
    <g
       id="g11059"
       transform="translate(-658.71186,-83.118636)">
	<path
   style="fill:#41479b"
   d="m 256,313.263 c -0.122,0 -0.245,-0.013 -0.365,-0.039 -1.648,-0.368 -7.15,-1.688 -8.771,-3.296 -2.059,-2.046 -2.072,-5.385 -0.028,-7.447 0.992,-0.997 2.311,-1.549 3.717,-1.553 h 0.018 c 1.4,0 2.715,0.543 3.709,1.53 1.622,1.612 2.984,7.099 3.362,8.743 0.13,0.563 -0.039,1.155 -0.446,1.566 -0.321,0.322 -0.752,0.496 -1.196,0.496 z m -5.429,-8.967 c -0.447,0.148 -0.987,0.201 -1.345,0.559 -0.735,0.74 -0.73,1.944 0.012,2.681 0.408,0.398 2.229,1.086 4.411,1.707 -0.638,-2.174 -1.339,-3.99 -1.742,-4.398 l 1.186,-1.194 -1.188,1.194 c -0.357,-0.355 -0.831,-0.549 -1.334,-0.549 z"
   id="path11051" />

	<path
   style="fill:#41479b"
   d="m 256,313.263 c -0.444,0 -0.875,-0.174 -1.196,-0.497 -0.406,-0.411 -0.576,-1.003 -0.446,-1.566 0.378,-1.645 1.74,-7.132 3.362,-8.743 v 0 c 0.998,-0.99 2.188,-1.441 3.727,-1.53 1.406,0.003 2.725,0.556 3.715,1.553 2.046,2.063 2.033,5.401 -0.025,7.444 -1.623,1.612 -7.125,2.931 -8.773,3.299 -0.119,0.027 -0.242,0.04 -0.364,0.04 z m 2.908,-9.612 1.186,1.194 c -0.403,0.408 -1.104,2.224 -1.742,4.398 2.183,-0.622 4.003,-1.309 4.413,-1.711 0.74,-0.734 0.745,-1.938 0.008,-2.678 -0.355,-0.359 -0.831,-0.559 -1.337,-0.559 h -0.007 c -0.503,0 -0.977,0.194 -1.334,0.549 z m 0,0 h 0.033 z"
   id="path11053" />

	<path
   style="fill:#41479b"
   d="m 249.263,323.368 c -0.931,0 -1.684,-0.753 -1.684,-1.684 0,-7.691 7.355,-11.454 7.668,-11.612 0.837,-0.418 1.839,-0.076 2.255,0.75 0.418,0.829 0.084,1.839 -0.743,2.26 -0.059,0.03 -5.811,3.016 -5.811,8.602 -0.001,0.931 -0.754,1.684 -1.685,1.684 z"
   id="path11055" />

	<path
   style="fill:#41479b"
   d="m 262.737,323.368 c -0.931,0 -1.684,-0.753 -1.684,-1.684 0,-5.586 -5.752,-8.572 -5.811,-8.602 -0.827,-0.421 -1.161,-1.431 -0.743,-2.26 0.419,-0.826 1.421,-1.168 2.255,-0.75 0.313,0.158 7.668,3.921 7.668,11.612 -0.001,0.931 -0.754,1.684 -1.685,1.684 z"
   id="path11057" />

</g>
  </g>
  <g
     transform="translate(-658.71186,-83.118636)"
     id="g11061">
</g>
  <g
     transform="translate(-658.71186,-83.118636)"
     id="g11063">
</g>
  <g
     transform="translate(-658.71186,-83.118636)"
     id="g11065">
</g>
  <g
     transform="translate(-658.71186,-83.118636)"
     id="g11067">
</g>
  <g
     transform="translate(-658.71186,-83.118636)"
     id="g11069">
</g>
  <g
     transform="translate(-658.71186,-83.118636)"
     id="g11071">
</g>
  <g
     transform="translate(-658.71186,-83.118636)"
     id="g11073">
</g>
  <g
     transform="translate(-658.71186,-83.118636)"
     id="g11075">
</g>
  <g
     transform="translate(-658.71186,-83.118636)"
     id="g11077">
</g>
  <g
     transform="translate(-658.71186,-83.118636)"
     id="g11079">
</g>
  <g
     transform="translate(-658.71186,-83.118636)"
     id="g11081">
</g>
  <g
     transform="translate(-658.71186,-83.118636)"
     id="g11083">
</g>
  <g
     transform="translate(-658.71186,-83.118636)"
     id="g11085">
</g>
  <g
     transform="translate(-658.71186,-83.118636)"
     id="g11087">
</g>
  <g
     transform="translate(-658.71186,-83.118636)"
     id="g11089">
</g>
</svg>
