<?xml version="1.0" standalone="no"?>
<!DOCTYPE svg PUBLIC "-//W3C//DTD SVG 20010904//EN"
 "http://www.w3.org/TR/2001/REC-SVG-20010904/DTD/svg10.dtd">
<svg version="1.0" xmlns="http://www.w3.org/2000/svg"
 width="1303.000000pt" height="1303.000000pt" viewBox="0 0 1303.000000 1303.000000"
 preserveAspectRatio="xMidYMid meet">
<metadata>
Created by potrace 1.11, written by Peter Selinger 2001-2013
</metadata>
<g transform="translate(0.000000,1303.000000) scale(0.100000,-0.100000)"
fill="#000000" stroke="none">
<path d="M6490 13020 c-152 -32 -303 -132 -386 -257 -70 -105 -103 -225 -98
-354 l2 -75 -131 -74 c-73 -41 -136 -77 -142 -79 -5 -2 -55 -30 -110 -61 -55
-31 -125 -70 -155 -87 -47 -26 -568 -317 -685 -383 -32 -18 -380 -212 -780
-435 -27 -15 -120 -67 -205 -115 -85 -48 -182 -102 -215 -120 -119 -65 -360
-201 -375 -210 -8 -6 -22 -13 -30 -17 -8 -4 -116 -64 -240 -133 -227 -128
-307 -172 -392 -219 -122 -68 -346 -193 -368 -206 -14 -8 -89 -50 -167 -94
l-141 -78 -58 53 c-319 294 -831 157 -976 -261 -29 -85 -33 -247 -8 -336 41
-150 130 -273 256 -354 l52 -33 -3 -174 c-2 -95 -7 -382 -10 -638 -3 -256 -8
-584 -10 -730 -2 -146 -6 -449 -9 -675 -4 -225 -8 -558 -11 -740 -6 -384 -12
-816 -21 -1425 -3 -239 -9 -438 -12 -441 -4 -4 -25 -12 -47 -19 -177 -56 -319
-196 -382 -376 -23 -68 -27 -95 -27 -194 0 -95 4 -127 23 -184 75 -219 246
-367 476 -411 35 -6 161 -7 190 -1 77 16 128 34 180 62 l60 32 245 -147 c135
-80 387 -231 560 -334 173 -104 322 -193 330 -198 8 -5 58 -34 110 -65 52 -32
104 -62 115 -68 26 -15 829 -494 865 -516 77 -49 183 -110 191 -110 5 0 9 -4
9 -10 0 -5 4 -10 9 -10 8 0 286 -165 1273 -755 120 -72 226 -134 235 -140 10
-5 78 -45 150 -89 l132 -79 0 -56 c0 -81 8 -124 36 -204 58 -169 197 -304 371
-363 375 -126 768 138 791 531 l6 92 171 96 c94 52 322 179 506 282 268 150
962 538 1235 690 213 119 272 152 285 158 8 4 24 13 35 20 29 17 148 84 280
157 33 18 94 52 135 76 41 24 102 58 136 76 33 18 143 80 244 137 102 56 198
110 214 120 17 9 71 39 120 67 50 28 123 68 161 89 39 21 120 66 180 100 61
35 141 79 179 100 38 20 83 45 100 55 17 10 96 54 175 98 l144 80 46 -36 c102
-78 230 -122 360 -122 326 0 591 248 606 567 7 178 -50 329 -175 454 -83 85
-154 126 -270 158 -40 11 -75 20 -79 19 -25 -3 -27 9 -25 130 1 70 5 339 8
597 4 259 9 601 11 760 3 160 7 461 10 670 13 940 15 1098 20 1380 2 165 7
514 11 775 3 261 7 476 8 477 1 2 31 5 67 8 171 14 278 62 396 181 157 158
210 381 143 599 -65 209 -244 367 -460 408 -244 45 -479 -54 -616 -261 -34
-50 -37 -52 -57 -39 -12 8 -139 84 -282 169 -143 85 -399 238 -570 340 -170
102 -402 240 -515 307 -113 68 -261 156 -330 198 -150 90 -80 48 -535 319
-209 125 -389 232 -400 238 -11 6 -200 119 -420 250 -220 131 -528 315 -685
409 -157 93 -301 180 -322 193 l-36 23 14 48 c46 149 4 371 -95 503 -85 114
-196 191 -325 227 -65 17 -218 25 -276 13z m-377 -937 c67 -100 179 -185 293
-223 l64 -22 1 -171 c0 -95 2 -271 4 -392 2 -121 6 -463 10 -760 4 -328 10
-553 17 -573 27 -87 160 -95 200 -13 16 33 15 -10 3 901 -12 956 -12 1003 5
1005 93 15 220 78 296 148 l54 49 111 -66 c61 -36 115 -66 120 -66 5 0 9 -4 9
-10 0 -5 5 -10 10 -10 6 0 39 -17 73 -39 34 -21 242 -146 462 -276 220 -131
501 -299 625 -373 373 -224 794 -474 815 -486 11 -6 256 -153 545 -325 289
-173 638 -381 775 -463 138 -82 334 -200 437 -261 l187 -112 -1 -50 c-2 -66 9
-136 31 -199 l18 -51 -427 -211 c-448 -223 -430 -211 -453 -285 -3 -9 3 -34
13 -56 18 -41 57 -66 103 -65 12 0 219 97 460 216 l437 217 28 -27 c15 -14 51
-39 79 -56 l53 -30 -5 -291 c-2 -161 -7 -479 -10 -707 -3 -228 -8 -552 -10
-720 -3 -168 -7 -487 -10 -710 -3 -223 -8 -533 -10 -690 -2 -157 -7 -487 -11
-735 -3 -247 -7 -547 -9 -665 -2 -118 -4 -247 -4 -285 l-1 -71 -37 -13 c-61
-21 -138 -68 -192 -117 -28 -25 -54 -44 -59 -42 -4 1 -61 35 -126 73 -65 39
-132 78 -149 89 -18 10 -205 122 -417 249 -212 126 -399 238 -417 248 -18 10
-84 50 -148 89 -64 38 -120 70 -125 70 -6 0 -10 5 -10 10 0 6 -4 10 -10 10 -5
0 -31 13 -57 29 -76 46 -122 45 -169 -4 -28 -30 -32 -41 -29 -75 3 -22 12 -51
22 -63 14 -19 234 -156 466 -291 18 -10 264 -157 549 -327 l516 -309 -14 -47
c-32 -102 -25 -248 16 -360 11 -29 16 -54 12 -56 -13 -8 -445 -250 -493 -277
-105 -57 -347 -192 -384 -214 -22 -12 -161 -90 -310 -173 -148 -83 -290 -162
-315 -175 -25 -14 -88 -49 -140 -79 -52 -29 -124 -69 -160 -89 -36 -20 -189
-105 -340 -190 -151 -84 -304 -170 -340 -190 -36 -21 -90 -51 -120 -68 -30
-16 -149 -82 -265 -147 -208 -117 -234 -132 -350 -195 -33 -18 -76 -42 -95
-53 -35 -20 -577 -323 -660 -369 -25 -14 -91 -51 -148 -83 -57 -32 -107 -54
-111 -49 -3 5 -24 36 -46 68 -72 107 -212 201 -351 236 -46 12 -51 16 -51 39
0 32 -12 371 -18 501 -3 52 -7 158 -10 235 -8 231 -16 448 -19 487 -8 104
-119 150 -190 79 -30 -30 -30 -32 -30 -128 1 -54 4 -170 8 -258 4 -88 9 -216
11 -285 3 -69 7 -177 10 -240 2 -63 7 -185 10 -271 l6 -156 -63 -22 c-121 -44
-268 -162 -314 -254 -9 -18 -18 -33 -19 -35 -1 -1 -116 66 -256 149 -140 84
-269 160 -286 170 -18 10 -61 36 -95 57 -35 22 -243 146 -463 277 -220 131
-443 263 -495 295 -52 32 -234 141 -405 242 -954 569 -1372 818 -1557 929
-114 68 -215 129 -225 134 -10 6 -53 31 -96 58 -43 26 -82 47 -87 47 -4 0 -10
3 -12 8 -2 4 -19 16 -38 26 -99 55 -113 66 -98 84 27 33 68 138 83 212 4 19 7
69 7 111 l-1 76 342 206 c189 113 351 214 360 225 23 25 31 80 18 114 -12 32
-65 68 -99 68 -25 0 -69 -18 -124 -52 -185 -113 -554 -334 -563 -336 -6 -2
-24 16 -40 40 -71 108 -196 198 -332 237 l-72 21 4 228 c2 125 7 425 10 667 9
667 14 973 30 2110 2 154 7 480 10 725 11 844 14 1013 17 1015 2 1 39 5 83 8
93 7 102 9 175 35 66 24 128 58 172 97 18 15 40 34 49 42 15 12 38 1 190 -90
147 -88 1004 -599 1457 -869 72 -44 141 -81 152 -83 62 -12 130 44 130 108 0
53 -26 82 -127 143 -54 32 -102 61 -108 64 -17 9 -758 451 -795 475 -19 12
-72 44 -118 71 -102 60 -84 50 -393 233 l-255 152 18 72 c27 104 24 224 -8
328 -3 12 12 26 58 52 35 19 86 47 113 62 59 33 802 447 860 480 182 102 549
307 585 327 25 14 178 99 340 190 162 91 315 176 340 190 25 14 140 78 255
143 116 65 239 134 275 153 36 19 94 52 130 72 53 30 533 299 805 451 33 18
123 68 200 111 77 43 141 78 141 78 1 0 13 -17 27 -37z"/>
<path d="M6350 9076 c-63 -29 -191 -88 -285 -131 -93 -42 -191 -88 -217 -100
-25 -13 -48 -21 -51 -19 -2 2 -10 -2 -17 -11 -7 -8 -17 -15 -22 -15 -5 0 -91
-38 -191 -84 -100 -46 -214 -98 -253 -116 l-72 -32 0 -732 1 -731 -114 -68
c-63 -38 -240 -143 -394 -234 -154 -91 -299 -177 -321 -192 -23 -14 -123 -73
-223 -131 -99 -58 -180 -107 -180 -110 0 -3 52 -35 117 -72 64 -36 309 -177
545 -312 235 -135 453 -260 485 -277 31 -17 63 -37 71 -44 11 -11 13 -134 13
-718 0 -387 3 -709 7 -715 5 -8 268 -164 526 -312 17 -9 134 -77 260 -150 127
-73 246 -142 265 -153 19 -10 61 -35 92 -54 32 -19 61 -32 65 -30 5 3 8 323 8
711 0 573 2 705 13 701 7 -2 144 -81 305 -174 313 -181 318 -184 483 -279 60
-35 116 -67 124 -72 8 -5 86 -50 173 -100 140 -81 160 -89 180 -79 22 12 388
223 885 511 151 87 277 158 280 158 11 0 67 48 62 53 -5 4 -990 565 -1080 615
-25 14 -85 48 -135 77 -49 29 -110 64 -135 77 -25 14 -137 78 -250 143 -113
64 -227 130 -255 145 -27 15 -101 57 -164 94 -62 36 -115 66 -117 66 -2 0 -33
18 -69 40 -36 22 -67 40 -70 40 -3 0 -33 17 -67 38 -35 21 -84 49 -110 62 -27
14 -48 28 -48 31 0 8 58 45 205 130 60 35 117 69 127 74 9 6 29 17 45 26 26
14 809 469 843 489 8 5 240 140 515 301 275 160 511 299 525 307 14 9 34 22
45 28 89 48 135 77 135 83 0 6 -204 136 -292 186 -10 6 -87 52 -171 104 -351
218 -721 443 -733 448 -7 3 -109 -53 -226 -124 -117 -70 -217 -130 -223 -132
-5 -2 -21 -12 -35 -21 -14 -9 -45 -29 -70 -42 -25 -14 -188 -112 -364 -217
-175 -105 -321 -191 -325 -191 -3 0 -6 290 -6 645 0 355 0 645 0 645 0 0 -52
-24 -115 -54z"/>
<path d="M4003 7827 c1 -7 -4 -11 -11 -9 -8 1 -11 -2 -8 -7 4 -5 1 -11 -6 -13
-8 -3 -4 -12 10 -26 12 -12 22 -18 22 -14 0 4 -5 13 -12 20 -13 13 8 46 24 36
7 -4 6 -9 -1 -14 -7 -3 -9 -14 -5 -24 6 -15 8 -15 22 5 11 16 12 23 2 29 -6 4
-10 11 -8 15 1 5 -5 9 -14 11 -10 1 -16 -3 -15 -9z"/>
<path d="M3989 4994 c-1 -2 -2 -7 -3 -11 -1 -5 -4 -13 -8 -19 -11 -16 3 -26
19 -13 15 13 18 -1 3 -19 -5 -7 -2 -6 7 2 13 12 14 18 3 30 -14 18 0 22 18 4
7 -7 8 -17 1 -29 -8 -15 -6 -17 6 -13 9 4 13 9 11 12 -3 3 0 12 7 20 8 11 8
14 0 9 -6 -4 -14 -3 -18 3 -3 5 -1 10 6 10 7 0 9 3 6 6 -7 8 -56 14 -58 8z"/>
</g>
</svg>
