<svg height="512" viewBox="0 0 64 64" width="512" xmlns="http://www.w3.org/2000/svg"><g id="Admin-Laptop-2" data-name="Admin-Laptop"><path d="m61.9 54.553-5.9-11.789v-31.764a3 3 0 0 0 -3-3h-7v2h7a1 1 0 0 1 1 1v31h-44v-31a1 1 0 0 1 1-1h7v-2h-7a3 3 0 0 0 -3 3v31.764l-5.895 11.789a1 1 0 0 0 -.105.447v5a2 2 0 0 0 2 2h56a2 2 0 0 0 2-2v-5a1 1 0 0 0 -.1-.447zm-7.518-10.553 5 10h-54.764l5-10zm-25.382 12h6v1h-6zm-25 4v-4h23v1a2 2 0 0 0 2 2h6a2 2 0 0 0 2-2v-1h23v4z"/><path d="m10 50h2v2h-2z"/><path d="m14 50h2v2h-2z"/><path d="m18 50h28v2h-28z"/><path d="m48 50h2v2h-2z"/><path d="m52 50h2v2h-2z"/><path d="m15 46h2v2h-2z"/><path d="m11 46h2v2h-2z"/><path d="m19 46h2v2h-2z"/><path d="m23 46h2v2h-2z"/><path d="m27 46h2v2h-2z"/><path d="m31 46h2v2h-2z"/><path d="m35 46h2v2h-2z"/><path d="m39 46h2v2h-2z"/><path d="m43 46h2v2h-2z"/><path d="m47 46h2v2h-2z"/><path d="m51 46h2v2h-2z"/><path d="m14 38v-24h3v-2h-4a1 1 0 0 0 -1 1v26a1 1 0 0 0 1 1h38a1 1 0 0 0 1-1v-26a1 1 0 0 0 -1-1h-4v2h3v24z"/><path d="m26 29.521v1.479a5.006 5.006 0 0 0 5 5h2a5.006 5.006 0 0 0 5-5v-1.479a13 13 0 0 0 7-11.521v-6c0-1.275-1.219-2.241-3.728-2.952a.475.475 0 0 0 -.054-.014c-.507-.14-1.052-.266-1.629-.379l.9-.9a1 1 0 0 0 0-1.414l-2.83-2.83a1 1 0 0 0 -1.414 0l-1.245 1.245v-1.756a1 1 0 0 0 -1-1h-4a1 1 0 0 0 -1 1v1.756l-1.243-1.243a1 1 0 0 0 -1.414 0l-2.83 2.83a1 1 0 0 0 0 1.414l.9.9c-.577.113-1.122.239-1.629.379-.018 0-.036.008-.055.014s-.049.016-.075.024a.468.468 0 0 0 -.053.017c-2.418.709-3.601 1.657-3.601 2.909v6a13 13 0 0 0 7 11.521zm10 1.479a3 3 0 0 1 -3 3h-2a3 3 0 0 1 -3-3v-.636a12.9 12.9 0 0 0 8 0zm6-19.584a2.907 2.907 0 0 1 .956.584 2.907 2.907 0 0 1 -.956.584zm-14.95-5.782 1.663 1.666a1 1 0 0 0 1.135.2 4.965 4.965 0 0 1 .481-.2 1 1 0 0 0 .671-.95v-2.35h2v2.35a1 1 0 0 0 .671.944 5.09 5.09 0 0 1 .482.2 1 1 0 0 0 1.134-.2l1.663-1.66 1.416 1.416-1.666 1.663a1 1 0 0 0 -.2 1.135 5.026 5.026 0 0 1 .2.484 1 1 0 0 0 .95.668h2.35v2h-2.35a1 1 0 0 0 -.943.668c-.01.03-.025.057-.035.086-.377.04-.76.075-1.152.105a3.949 3.949 0 0 0 .48-1.859 4 4 0 0 0 -8 0 3.949 3.949 0 0 0 .48 1.859c-.392-.03-.774-.065-1.151-.105-.011-.028-.024-.054-.035-.083a1 1 0 0 0 -.944-.671h-2.35v-2h2.35a1 1 0 0 0 .944-.671 4.965 4.965 0 0 1 .2-.481 1 1 0 0 0 -.2-1.135l-1.66-1.663zm2.95 6.366a2 2 0 1 1 2.065 1.993h-.13a2 2 0 0 1 -1.935-1.993zm-8-.584v1.168a2.93 2.93 0 0 1 -.957-.584 2.93 2.93 0 0 1 .957-.584zm-1 2.91a11.589 11.589 0 0 0 1.727.626c.019.006.037.01.055.014a26.5 26.5 0 0 0 3.592.7 44.868 44.868 0 0 0 5.626.334 44.964 44.964 0 0 0 5.629-.338 26.579 26.579 0 0 0 3.589-.7.475.475 0 0 0 .054-.014c.027-.007.048-.016.075-.023s.037-.01.055-.018a11.416 11.416 0 0 0 1.6-.585v3.678a11 11 0 0 1 -22 0z"/><path d="m32 27a5.957 5.957 0 0 0 4.8-2.4l-1.6-1.2a4 4 0 0 1 -6.4 0l-1.6 1.2a5.957 5.957 0 0 0 4.8 2.4z"/><path d="m58 30h2v2h-2z"/><path d="m4 30h2v2h-2z"/><path d="m4 24h2v2h-2z"/><path d="m4 18h2v2h-2z"/><path d="m58 24h2v2h-2z"/><path d="m58 18h2v2h-2z"/><path d="m57 5h2v2h-2z"/><path d="m5 5h2v2h-2z"/><path d="m36 18h2v2h-2z"/><path d="m26 18h2v2h-2z"/></g></svg>