<?xml version="1.0" encoding="UTF-8" standalone="no"?>
<svg
   xmlns:dc="http://purl.org/dc/elements/1.1/"
   xmlns:cc="http://creativecommons.org/ns#"
   xmlns:rdf="http://www.w3.org/1999/02/22-rdf-syntax-ns#"
   xmlns:svg="http://www.w3.org/2000/svg"
   xmlns="http://www.w3.org/2000/svg"
   xmlns:sodipodi="http://sodipodi.sourceforge.net/DTD/sodipodi-0.dtd"
   xmlns:inkscape="http://www.inkscape.org/namespaces/inkscape"
   width="404"
   height="118"
   viewBox="0 0 404 118"
   fill="none"
   version="1.1"
   id="svg32"
   sodipodi:docname="logoATH.svg"
   inkscape:version="0.92.4 5da689c313, 2019-01-14">
  <metadata
     id="metadata38">
    <rdf:RDF>
      <cc:Work
         rdf:about="">
        <dc:format>image/svg+xml</dc:format>
        <dc:type
           rdf:resource="http://purl.org/dc/dcmitype/StillImage" />
      </cc:Work>
    </rdf:RDF>
  </metadata>
  <defs
     id="defs36" />
  <sodipodi:namedview
     pagecolor="#ffffff"
     bordercolor="#666666"
     borderopacity="1"
     objecttolerance="10"
     gridtolerance="10"
     guidetolerance="10"
     inkscape:pageopacity="0"
     inkscape:pageshadow="2"
     inkscape:window-width="640"
     inkscape:window-height="480"
     id="namedview34"
     showgrid="false"
     inkscape:zoom="0.82673267"
     inkscape:cx="180.83234"
     inkscape:cy="59"
     inkscape:window-x="0"
     inkscape:window-y="0"
     inkscape:window-maximized="0"
     inkscape:current-layer="svg32" />
  <path
     d="M208.79 39.2617H196.549L192.098 48.2676H183.817L203.64 10.2773H213.293L217.097 48.2676H209.411L208.79 39.2617ZM208.402 32.5332L207.729 23.4756C207.556 21.2155 207.47 19.033 207.47 16.9282V15.9966C206.711 18.0669 205.771 20.258 204.649 22.5698L199.784 32.5332H208.402Z"
     fill="white"
     id="path2"
     style="fill:#4c66c1;fill-opacity:1" />
  <path
     d="M239.472 18.7915C243.25 18.7915 245.51 20.7583 246.252 24.6919H246.408C247.581 22.7941 248.961 21.3363 250.548 20.3184C252.153 19.3005 253.861 18.7915 255.672 18.7915C258.019 18.7915 259.804 19.5247 261.029 20.9912C262.271 22.4577 262.892 24.5021 262.892 27.1245C262.892 28.4357 262.694 29.9884 262.297 31.7827L258.855 48.2676H251.066L254.637 31.3687C254.913 30.1955 255.051 29.1689 255.051 28.2891C255.051 26.167 254.206 25.106 252.515 25.106C250.928 25.106 249.487 26.0721 248.193 28.0044C246.917 29.9367 245.899 32.6799 245.14 36.2339L242.655 48.2676H234.866L238.411 31.3687C238.687 30.1955 238.825 29.1689 238.825 28.2891C238.825 26.167 237.98 25.106 236.289 25.106C234.702 25.106 233.261 26.0894 231.967 28.0562C230.673 30.0229 229.655 32.7661 228.913 36.2856L226.377 48.2676H218.588L224.721 19.335H230.673L230.13 24.6919H230.285C232.804 20.7583 235.866 18.7915 239.472 18.7915Z"
     fill="white"
     id="path4"
     style="fill:#4c66c1;fill-opacity:1" />
  <path
     d="M280.971 24.4072C279.453 24.4072 278.021 25.0973 276.676 26.4775C275.33 27.8577 274.45 29.5399 274.036 31.5239H275.2C277.875 31.5239 279.954 31.1099 281.437 30.2817C282.938 29.4364 283.689 28.2977 283.689 26.8657C283.689 25.2267 282.783 24.4072 280.971 24.4072ZM276.727 48.7852C273.104 48.7852 270.292 47.8104 268.291 45.8608C266.29 43.9113 265.289 41.1595 265.289 37.6055C265.289 34.0342 265.996 30.7821 267.411 27.8491C268.843 24.8989 270.775 22.6561 273.208 21.1206C275.64 19.5679 278.392 18.7915 281.463 18.7915C284.517 18.7915 286.898 19.4989 288.606 20.9136C290.314 22.311 291.168 24.2347 291.168 26.6846C291.168 29.9108 289.727 32.4038 286.846 34.1636C283.965 35.9061 279.85 36.7773 274.502 36.7773H273.182L273.13 37.3208V37.8384C273.13 39.4084 273.57 40.6506 274.45 41.5649C275.347 42.4621 276.624 42.9106 278.28 42.9106C279.781 42.9106 281.144 42.7467 282.369 42.4189C283.594 42.0911 285.078 41.5132 286.82 40.6851V46.5596C283.853 48.0433 280.488 48.7852 276.727 48.7852Z"
     fill="white"
     id="path6"
     style="fill:#4c66c1;fill-opacity:1" />
  <path
     d="M311.654 18.7915C312.671 18.7915 313.5 18.8864 314.138 19.0762L312.43 26.5811C311.654 26.305 310.791 26.167 309.842 26.167C307.841 26.167 306.081 26.9606 304.563 28.5479C303.062 30.1178 301.992 32.3779 301.354 35.3281L298.611 48.2676H290.821L296.954 19.335H302.906L302.363 24.6919H302.518C305.054 20.7583 308.099 18.7915 311.654 18.7915Z"
     fill="white"
     id="path8"
     style="fill:#4c66c1;fill-opacity:1" />
  <path
     d="M317.854 12.5547C317.854 11.0537 318.26 9.92367 319.07 9.16455C319.899 8.38818 321.063 8 322.564 8C323.823 8 324.781 8.26742 325.437 8.80225C326.092 9.33708 326.42 10.1048 326.42 11.1055C326.42 12.4857 326.04 13.6071 325.281 14.4697C324.522 15.3151 323.349 15.7378 321.762 15.7378C319.157 15.7378 317.854 14.6768 317.854 12.5547ZM318.268 48.2676H310.479L316.612 19.335H324.401L318.268 48.2676Z"
     fill="white"
     id="path10"
     style="fill:#4c66c1;fill-opacity:1" />
  <path
     d="M335.7 48.7852C332.232 48.7852 329.567 47.8621 327.704 46.0161C325.858 44.1528 324.935 41.5304 324.935 38.1489C324.935 34.4914 325.573 31.1702 326.85 28.1855C328.144 25.1836 329.955 22.8717 332.284 21.25C334.613 19.611 337.27 18.7915 340.255 18.7915C343.395 18.7915 346.224 19.4126 348.743 20.6548L346.362 26.5811C345.431 26.1842 344.516 25.8392 343.619 25.5459C342.722 25.2526 341.704 25.106 340.565 25.106C339.099 25.106 337.771 25.658 336.58 26.7622C335.407 27.8664 334.484 29.3846 333.811 31.3169C333.155 33.2319 332.828 35.2936 332.828 37.502C332.828 39.1582 333.216 40.409 333.992 41.2544C334.786 42.0825 335.881 42.4966 337.279 42.4966C338.59 42.4966 339.806 42.2982 340.928 41.9014C342.049 41.4873 343.205 40.9784 344.396 40.3745V46.7407C341.773 48.1037 338.875 48.7852 335.7 48.7852Z"
     fill="white"
     id="path12"
     style="fill:#4c66c1;fill-opacity:1" />
  <path
     d="M356.082 48.7852C353.546 48.7852 351.545 47.8708 350.079 46.042C348.629 44.196 347.905 41.6167 347.905 38.3042C347.905 34.8882 348.526 31.6361 349.768 28.5479C351.01 25.4424 352.641 23.0443 354.659 21.3535C356.678 19.6455 358.895 18.7915 361.31 18.7915C362.983 18.7915 364.424 19.1538 365.632 19.8784C366.857 20.603 367.806 21.6554 368.478 23.0356H368.685L370.161 19.335H376.164L370.005 48.2676H364.079L364.441 44.5151H364.338C362.026 47.3618 359.274 48.7852 356.082 48.7852ZM359.136 42.4966C360.327 42.4966 361.474 41.9186 362.578 40.7627C363.682 39.6068 364.571 38.0454 365.244 36.0786C365.916 34.0946 366.253 31.8517 366.253 29.3501C366.253 28.1252 365.916 27.1159 365.244 26.3223C364.588 25.5114 363.717 25.106 362.63 25.106C361.457 25.106 360.335 25.7271 359.266 26.9692C358.213 28.2114 357.368 29.8504 356.729 31.8862C356.108 33.922 355.798 35.9406 355.798 37.9419C355.798 39.4601 356.082 40.5988 356.652 41.3579C357.238 42.117 358.066 42.4966 359.136 42.4966Z"
     fill="white"
     id="path14"
     style="fill:#4c66c1;fill-opacity:1" />
  <path
     d="M399.73 48.2676H391.94L395.486 31.3687C395.762 30.1955 395.9 29.1689 395.9 28.2891C395.9 26.167 394.968 25.106 393.105 25.106C391.518 25.106 390.077 26.0894 388.783 28.0562C387.489 30.0229 386.471 32.7661 385.729 36.2856L383.193 48.2676H375.404L381.537 19.335H387.489L386.946 24.6919H387.101C389.62 20.7583 392.682 18.7915 396.288 18.7915C398.669 18.7915 400.506 19.5161 401.8 20.9653C403.111 22.3973 403.767 24.4504 403.767 27.1245C403.767 28.384 403.568 29.9367 403.172 31.7827L399.73 48.2676Z"
     fill="white"
     id="path16"
     style="fill:#4c66c1;fill-opacity:1" />
  <path
     d="M206.517 110.268H196.092L204.773 69.1152H192.742L194.622 60.2969H229.144L227.264 69.1152H215.198L206.517 110.268Z"
     fill="white"
     id="path18"
     style="fill:#4c66c1;fill-opacity:1" />
  <path
     d="M239.299 110.268L249.963 60.2969H260.388L249.724 110.268H239.299Z"
     fill="white"
     id="path20"
     style="fill:#4c66c1;fill-opacity:1" />
  <path
     d="M301.989 97.6553L320.822 60.2969H335.28L324.718 110.268H315.148L320.104 86.6152C321.312 80.987 322.508 75.9626 323.693 71.542H323.522L304.074 110.268H294.469L292.384 71.542H292.247C291.997 73.5472 291.564 76.179 290.949 79.4375C290.333 82.696 288.203 92.9727 284.557 110.268H275.158L285.719 60.2969H299.528L301.852 97.6553H301.989Z"
     fill="white"
     id="path22"
     style="fill:#4c66c1;fill-opacity:1" />
  <path
     d="M377.974 110.268H350.049L360.611 60.2969H388.57L386.724 68.9785H369.224L366.934 79.9502H383.238L381.358 88.6318H365.054L362.32 101.518H379.82L377.974 110.268Z"
     fill="white"
     id="path24"
     style="fill:#4c66c1;fill-opacity:1" />
  <path
     fill-rule="evenodd"
     clip-rule="evenodd"
     d="M27.4165 16.6999C22.9658 17.6866 19.2057 20.6375 17.1965 24.7204L1.54929 56.5182C-3.00772 65.7789 2.96501 76.7554 13.2319 77.9883L21.6572 79L35.6108 46.7207C37.5595 42.2125 41.5945 38.9366 46.419 37.9456L118.005 23.2418L119.071 17.9245C121.199 7.31028 111.684 -1.98151 101.092 0.366644L27.4165 16.6999Z"
     fill="#4C66C1"
     id="path26" />
  <path
     fill-rule="evenodd"
     clip-rule="evenodd"
     d="M21.5484 78.6031L18.3469 86.0094C14.3751 95.1973 20.4006 105.605 30.3707 106.779L124.846 117.896C132.735 118.824 139.984 113.465 141.38 105.672L153.759 36.593C155.625 26.1805 146.351 17.1809 135.955 19.3163L117.412 23.1251L107.008 75.0193C105.478 82.6503 98.3201 87.8221 90.5753 86.892L21.5484 78.6031Z"
     fill="#8DC8FF"
     id="path28" />
  <path
     fill-rule="evenodd"
     clip-rule="evenodd"
     d="M117.765 23L107.323 75.0852C105.787 82.7443 98.6028 87.935 90.8294 87.0016L21.5486 78.6822L35.4831 46.4469C37.4293 41.9448 41.4588 38.6733 46.2767 37.6837L117.765 23Z"
     fill="#D0FFFF"
     id="path30" />
</svg>
