<svg xmlns="http://www.w3.org/2000/svg" xmlns:xlink="http://www.w3.org/1999/xlink" width="44" height="46" viewBox="0 0 44 46"><defs><path id="3oela" d="M295 738c0-11.046 8.954-20 20-20s20 8.954 20 20-8.954 20-20 20-20-8.954-20-20z"/><path id="3oelb" d="M315.894 723.972a3.23 3.23 0 0 0-3.225 3.226 3.23 3.23 0 0 0 3.225 3.225 3.23 3.23 0 0 0 3.226-3.225 3.23 3.23 0 0 0-3.226-3.226zm0 7.318a4.097 4.097 0 0 1-4.093-4.092 4.098 4.098 0 0 1 4.093-4.093 4.098 4.098 0 0 1 4.094 4.093 4.097 4.097 0 0 1-4.094 4.092z"/><path id="3oelc" d="M323.823 747.23a1.405 1.405 0 0 1-2.397.993c-.258-.26-.401-.6-.408-.964V745.794h2.805zm-11.838 1.404v-1.37l.002-.034v-2.302h-.002v-6.045h-.868v6.045h-2.81v-7.794a4.14 4.14 0 0 1 4.137-4.135h.91a2.856 2.856 0 0 0 2.818 2.419 2.856 2.856 0 0 0 2.817-2.42h.702a4.14 4.14 0 0 1 4.137 4.136v7.794h-2.81v-6.045h-.868v7.45l-.002.892.002.033v1.376zm-2.27 0a1.4 1.4 0 0 1-1.403-1.408l.003-1.432h2.803v1.47a1.404 1.404 0 0 1-1.402 1.37zm8.395-15.635a1.988 1.988 0 0 1-1.938 1.552c-.946 0-1.74-.664-1.939-1.552zm6.585 4.135a5.01 5.01 0 0 0-5.004-5.003h-.666v-.002h-5.707v.002h-.874a5.01 5.01 0 0 0-5.004 5.003v9.62h.005v.471a2.257 2.257 0 0 0 .663 1.609c.43.43 1 .666 1.608.666.529 0 1.015-.182 1.401-.486v.486h9.9v-.484a2.273 2.273 0 0 0 3.673-1.786v-.477h.005z"/><path id="3oeld" d="M332.559 718.441h-3.908a.651.651 0 0 1 0-1.302h3.908v-3.908a.651.651 0 0 1 1.302 0v3.908h3.908a.651.651 0 0 1 0 1.302h-3.908v3.908a.651.651 0 0 1-1.302 0z"/></defs><g><g transform="translate(-295 -712)"><g><use fill="#f7941d" xlink:href="#3oela"/></g></g><g transform="translate(-295 -712)"><g><g><g><g><g><use fill="#fff" xlink:href="#3oelb"/></g></g></g></g></g><g><use fill="#fff" xlink:href="#3oelc"/></g></g><g transform="translate(-295 -712)"><use fill="#ec9927" xlink:href="#3oeld"/></g></g></svg>