<svg xmlns="http://www.w3.org/2000/svg" xmlns:xlink="http://www.w3.org/1999/xlink" width="40" height="40" viewBox="0 0 40 40"><defs><path id="ww3qa" d="M292 463c0-11.046 8.954-20 20-20s20 8.954 20 20-8.954 20-20 20-20-8.954-20-20z"/><path id="ww3qb" d="M313.168 461.668a5.14 5.14 0 0 1-5.133-5.133 5.14 5.14 0 0 1 5.133-5.134 5.14 5.14 0 0 1 5.134 5.134 5.14 5.14 0 0 1-5.134 5.133zm0-12.168a7.043 7.043 0 0 0-7.035 7.035 7.032 7.032 0 0 0 3.055 5.797 12.121 12.121 0 0 0-4.624 2.9 12.089 12.089 0 0 0-3.564 8.604h1.901c0-5.66 4.606-10.267 10.267-10.267a7.043 7.043 0 0 0 7.035-7.034 7.043 7.043 0 0 0-7.035-7.035z"/><path id="ww3qc" d="M321.391 467.942v-3.992h-1.901v3.992h-3.993v1.902h3.993v3.992h1.901v-3.992h3.993v-1.902z"/></defs><g><g transform="translate(-292 -443)"><use fill="#f7941d" xlink:href="#ww3qa"/></g><g transform="translate(-292 -443)"><g><g><g><use fill="#fff" xlink:href="#ww3qb"/></g></g></g><g><g><g><use fill="#fff" xlink:href="#ww3qc"/></g></g></g></g></g></svg>