<svg xmlns="http://www.w3.org/2000/svg" xmlns:xlink="http://www.w3.org/1999/xlink" width="40" height="40" viewBox="0 0 40 40"><defs><path id="ezcba" d="M292 535c0-11.046 8.954-20 20-20s20 8.954 20 20-8.954 20-20 20-20-8.954-20-20z"/><path id="ezcbb" d="M322.391 526.942v-3.992h-1.901v3.992h-3.993v1.902h3.993v3.992h1.901v-3.992h3.993v-1.902z"/><path id="ezcbc" d="M315.388 546.566h-7.584c-.077 0-.153 0-.23-.004-2.194-.073-4.066-1.314-5.008-3.32a5.867 5.867 0 0 1 .665-6.114c3.092-3.993 5.14-7.04 5.765-8.58l.042-.106c.323-.708.13-1.726.128-1.736a3.811 3.811 0 0 0-3.752-3.256v-.568a4.378 4.378 0 0 1 4.312 3.728c.008.036.226 1.19-.168 2.061l-.034.088c-.828 2.036-3.635 5.864-5.844 8.717a5.302 5.302 0 0 0-.6 5.524c.85 1.808 2.537 2.928 4.514 2.995.07.002.14.004.21.004h7.584c.07 0 .14-.002.21-.004 1.977-.067 3.664-1.187 4.513-2.995a5.302 5.302 0 0 0-.6-5.524c-3.168-4.092-5.133-7.023-5.84-8.71-.41-.979-.216-2.093-.207-2.14.293-2.13 2.15-3.744 4.314-3.744v.568a3.802 3.802 0 0 0-3.753 3.266c-.004.02-.174 1.01.17 1.83.678 1.619 2.672 4.586 5.766 8.582a5.867 5.867 0 0 1 .664 6.113c-.941 2.007-2.814 3.248-5.008 3.321a5.12 5.12 0 0 1-.23.004z"/><path id="ezcbd" d="M313.672 539.529c0 .911-.641 1.552-1.727 1.64v1.082h-.598v-1.092a3.112 3.112 0 0 1-1.827-.876l.466-.559c.502.49 1.147.742 1.723.742.659 0 1.147-.327 1.147-.89 0-.641-.514-.855-1.339-1.112-.977-.314-1.867-.62-1.867-1.685 0-.867.607-1.525 1.697-1.578v-1.13h.598v1.17c.54.095 1.125.34 1.522.65l-.449.553c-.471-.34-1.064-.527-1.505-.527-.624 0-1.06.292-1.06.815 0 .558.541.763 1.287 1.008 1.1.349 1.932.641 1.932 1.788z"/><path id="ezcbe" d="M308.358 527.853v-.568h6.476v.568z"/></defs><g><g transform="translate(-292 -515)"><use fill="#f7941d" xlink:href="#ezcba"/></g><g transform="translate(-292 -515)"><g><g><use fill="#fff" xlink:href="#ezcbb"/></g></g></g><g transform="translate(-292 -515)"><g><g><g><g><g><g><use fill="#fff" xlink:href="#ezcbc"/><use fill="#fff" fill-opacity="0" stroke="#fff" stroke-miterlimit="50" xlink:href="#ezcbc"/></g></g></g></g></g><g><g><g><g><g><g><use fill="#fff" xlink:href="#ezcbd"/></g></g></g></g></g></g><g><g><g><g><g><use fill="#fff" xlink:href="#ezcbe"/><use fill="#fff" fill-opacity="0" stroke="#fff" stroke-miterlimit="50" xlink:href="#ezcbe"/></g></g></g></g></g></g></g></g></svg>