<svg xmlns="http://www.w3.org/2000/svg" width="41" height="35" viewBox="0 0 41 35"><g><g><g><path fill="#fff" d="M39.764 21.509a2.007 2.007 0 0 1-2.005 2.005H21.077A10.496 10.496 0 0 0 4.072 15.53V3.342a2.008 2.008 0 0 1 2.005-2.005h31.682a2.007 2.007 0 0 1 2.005 2.005zM10.58 33.273a9.509 9.509 0 1 1 9.51-9.509 9.52 9.52 0 0 1-9.51 9.509zM37.76.345H6.077a3 3 0 0 0-2.998 2.997v13.08a10.495 10.495 0 0 0 7.5 17.843c5.54 0 10.093-4.314 10.474-9.759H37.76a3 3 0 0 0 2.997-2.997V3.342A3 3 0 0 0 37.76.345z"/></g><g><path fill="#fff" d="M31.944 20.618c-.208 0-.416-.024-.62-.072a3.707 3.707 0 0 0 0-5.3 2.721 2.721 0 1 1 .62 5.372zm-.496-2.722c0 .867-.413 1.682-1.113 2.193a2.718 2.718 0 0 1 0-4.387 2.72 2.72 0 0 1 1.113 2.194zm-2.722 2.722a2.722 2.722 0 1 1 .619-5.372 3.706 3.706 0 0 0 0 5.3c-.203.048-.41.072-.62.072zm3.218-6.436c-.557 0-1.107.125-1.61.367a3.714 3.714 0 1 0 0 6.694 3.714 3.714 0 1 0 1.61-7.06z"/></g><g><path fill="#fff" d="M6.84 5.873h13.236a.496.496 0 0 0 0-.992H6.84a.496.496 0 1 0 0 .992z"/></g><g><path fill="#fff" d="M23.307 4.88h-1.433a.496.496 0 0 0 0 .993h1.433a.496.496 0 0 0 0-.992z"/></g><g><path fill="#fff" d="M7.458 7.382H6.84a.496.496 0 1 0 0 .992h.618a.496.496 0 1 0 0-.992z"/></g><g><path fill="#fff" d="M17.575 7.382H9.31a.496.496 0 1 0 0 .992h8.265a.496.496 0 0 0 0-.992z"/></g><g><path fill="#fff" d="M23.308 7.382h-3.935a.496.496 0 1 0 0 .992h3.935a.496.496 0 0 0 0-.992z"/></g><g><path fill="#fff" d="M14.713 23.268h-3.638V19.63a.496.496 0 1 0-.992 0v3.638H6.445a.496.496 0 0 0 0 .992h3.638v3.638a.496.496 0 1 0 .992 0V24.26h3.638a.496.496 0 1 0 0-.992z"/></g></g></g></svg>