<svg xmlns="http://www.w3.org/2000/svg" xmlns:xlink="http://www.w3.org/1999/xlink" width="44" height="46" viewBox="0 0 44 46"><defs><path id="vg9qa" d="M295 955c0-11.046 8.954-20 20-20s20 8.954 20 20-8.954 20-20 20-20-8.954-20-20z"/><path id="vg9qb" d="M305.883 943.623a3.282 3.282 0 0 0-3.278 3.278v17.533a3.281 3.281 0 0 0 3.278 3.277h18.165a3.281 3.281 0 0 0 3.279-3.277v-17.533a3.282 3.282 0 0 0-3.279-3.278zm18.165 24.762h-18.165a3.956 3.956 0 0 1-3.951-3.95V946.9a3.956 3.956 0 0 1 3.951-3.951h18.165A3.956 3.956 0 0 1 328 946.9v17.534a3.956 3.956 0 0 1-3.952 3.951z"/><path id="vg9qc" d="M323.541 964.436h-17.413v-17.345h17.413v3.467h-.673v-2.794H306.8v16h16.067v-2.903h.673z"/><path id="vg9qd" d="M322.545 960.525h1.319v-3.366h-1.319zm1.992.674h-2.665v-4.713h2.665z"/><path id="vg9qe" d="M322.545 954.26h1.319v-3.365h-1.319zm1.992.674h-2.665v-4.712h2.665z"/><path id="vg9qf" d="M314.689 952.507a3.357 3.357 0 0 0-3.353 3.353 3.357 3.357 0 0 0 3.353 3.352 3.357 3.357 0 0 0 3.353-3.352 3.357 3.357 0 0 0-3.353-3.353zm0 7.38a4.03 4.03 0 0 1-4.026-4.027 4.031 4.031 0 0 1 4.026-4.027 4.031 4.031 0 0 1 4.026 4.027 4.03 4.03 0 0 1-4.026 4.026z"/><path id="vg9qg" d="M314.689 954.347c-.834 0-1.513.678-1.513 1.512 0 .835.679 1.514 1.513 1.514.834 0 1.513-.679 1.513-1.514 0-.834-.679-1.512-1.513-1.512zm0 3.699a2.189 2.189 0 0 1-2.186-2.187c0-1.205.98-2.186 2.186-2.186 1.205 0 2.186.98 2.186 2.186s-.98 2.187-2.186 2.187z"/><path id="vg9qh" d="M314.352 959.55v-1.84h.674v1.84z"/><path id="vg9qi" d="M314.352 954.01v-1.84h.674v1.84z"/><path id="vg9qj" d="M316.539 956.196v-.674h1.84v.674z"/><path id="vg9qk" d="M311 956.196v-.674h1.84v.674z"/><path id="vg9ql" d="M322.868 956.822v-2.224h.673v2.224z"/><path id="vg9qm" d="M332.559 935.441h-3.908a.651.651 0 0 1 0-1.302h3.908v-3.908a.651.651 0 0 1 1.302 0v3.908h3.908a.651.651 0 0 1 0 1.302h-3.908v3.908a.651.651 0 0 1-1.302 0z"/></defs><g><g transform="translate(-295 -929)"><g><use fill="#f7941d" xlink:href="#vg9qa"/></g></g><g transform="translate(-295 -929)"><g><g><g><g><g><use fill="#fff" xlink:href="#vg9qb"/></g></g></g></g></g><g><g><g><g><g><use fill="#fff" xlink:href="#vg9qc"/></g></g></g></g></g><g><g><g><g><g><use fill="#fff" xlink:href="#vg9qd"/></g></g></g></g></g><g><g><g><g><g><use fill="#fff" xlink:href="#vg9qe"/></g></g></g></g></g><g><g><g><g><g><use fill="#fff" xlink:href="#vg9qf"/></g></g></g></g></g><g><g><g><g><g><use fill="#fff" xlink:href="#vg9qg"/></g></g></g></g></g><g><g><g><g><g><use fill="#fff" xlink:href="#vg9qh"/></g></g></g></g></g><g><g><g><g><g><use fill="#fff" xlink:href="#vg9qi"/></g></g></g></g></g><g><g><g><g><g><use fill="#fff" xlink:href="#vg9qj"/></g></g></g></g></g><g><g><g><g><g><use fill="#fff" xlink:href="#vg9qk"/></g></g></g></g></g><g><g><g><g><g><use fill="#fff" xlink:href="#vg9ql"/></g></g></g></g></g></g><g transform="translate(-295 -929)"><use fill="#ec9927" xlink:href="#vg9qm"/></g></g></svg>