<?xml version="1.0" encoding="UTF-8" standalone="no"?>
<svg
   xmlns:dc="http://purl.org/dc/elements/1.1/"
   xmlns:cc="http://creativecommons.org/ns#"
   xmlns:rdf="http://www.w3.org/1999/02/22-rdf-syntax-ns#"
   xmlns:svg="http://www.w3.org/2000/svg"
   xmlns="http://www.w3.org/2000/svg"
   id="svg26"
   version="1.1"
   viewBox="0 0 33 35"
   height="35"
   width="33">
  <metadata
     id="metadata32">
    <rdf:RDF>
      <cc:Work
         rdf:about="">
        <dc:format>image/svg+xml</dc:format>
        <dc:type
           rdf:resource="http://purl.org/dc/dcmitype/StillImage" />
        <dc:title></dc:title>
      </cc:Work>
    </rdf:RDF>
  </metadata>
  <defs
     id="defs30" />
  <g
     style="fill:#ffffff"
     id="g22">
    <path
       d="m 25.898,7.102 h -4.347 a 0.725,0.725 0 0 1 0,-1.45 h 4.347 V 1.305 a 0.725,0.725 0 0 1 1.45,0 v 4.347 h 4.347 a 0.725,0.725 0 0 1 0,1.45 h -4.347 v 4.347 a 0.725,0.725 0 0 1 -1.45,0 z"
       id="path20"
       style="fill:#ffffff" />
  </g>
  <g
     style="fill:#ffffff"
     transform="translate(0.91332193,13.124525)"
     id="g3781">
    <g
       style="fill:#ffffff"
       id="g3779">
      <g
         style="fill:#ffffff"
         id="g3741">
        <g
           style="fill:#ffffff"
           id="g3739">
          <path
             style="fill:#ffffff"
             d="m 18.192,5.342 a 1.68,1.68 0 0 1 -0.383,-0.044 2.293,2.293 0 0 0 0,-3.28 1.684,1.684 0 1 1 0.383,3.324 z M 17.885,3.658 c 0,0.537 -0.255,1.04 -0.688,1.358 a 1.682,1.682 0 0 1 0,-2.715 c 0.432,0.317 0.688,0.82 0.688,1.357 z m -1.684,1.684 a 1.684,1.684 0 1 1 0.383,-3.323 2.294,2.294 0 0 0 0,3.279 C 16.459,5.328 16.33,5.342 16.201,5.342 Z M 18.192,1.36 c -0.344,0 -0.685,0.077 -0.995,0.227 a 2.298,2.298 0 1 0 0,4.142 2.298,2.298 0 1 0 0.995,-4.369 z"
             id="path3737" />
        </g>
      </g>
      <g
         style="fill:#ffffff"
         id="g3747">
        <g
           style="fill:#ffffff"
           id="g3745">
          <path
             style="fill:#ffffff"
             d="m 2.85,10.552 h 8.189 a 0.307,0.307 0 0 0 0,-0.614 h -8.19 a 0.307,0.307 0 1 0 0,0.614 z"
             id="path3743" />
        </g>
      </g>
      <g
         style="fill:#ffffff"
         id="g3753">
        <g
           style="fill:#ffffff"
           id="g3751">
          <path
             style="fill:#ffffff"
             d="m 13.039,9.938 h -0.888 a 0.307,0.307 0 0 0 0,0.614 h 0.888 a 0.307,0.307 0 0 0 0,-0.614 z"
             id="path3749" />
        </g>
      </g>
      <g
         style="fill:#ffffff"
         id="g3759">
        <g
           style="fill:#ffffff"
           id="g3757">
          <path
             style="fill:#ffffff"
             d="M 3.232,11.485 H 2.849 a 0.307,0.307 0 1 0 0,0.614 h 0.383 a 0.307,0.307 0 1 0 0,-0.614 z"
             id="path3755" />
        </g>
      </g>
      <g
         style="fill:#ffffff"
         id="g3765">
        <g
           style="fill:#ffffff"
           id="g3763">
          <path
             style="fill:#ffffff"
             d="M 9.492,11.485 H 4.378 a 0.307,0.307 0 1 0 0,0.614 h 5.114 a 0.307,0.307 0 0 0 0,-0.614 z"
             id="path3761" />
        </g>
      </g>
      <g
         style="fill:#ffffff"
         id="g3771">
        <g
           style="fill:#ffffff"
           id="g3769">
          <path
             style="fill:#ffffff"
             d="m 13.039,11.485 h -2.435 a 0.307,0.307 0 1 0 0,0.614 h 2.435 a 0.307,0.307 0 0 0 0,-0.614 z"
             id="path3767" />
        </g>
      </g>
      <g
         style="fill:#ffffff"
         id="g3777">
        <g
           style="fill:#ffffff"
           id="g3775">
          <path
             style="fill:#ffffff"
             d="m 20.263,0.512 c 1.059,0 1.92,0.86 1.92,1.919 v 9.372 c 0,1.058 -0.861,1.92 -1.92,1.92 H 2.53 A 1.922,1.922 0 0 1 0.61,11.803 V 2.431 c 0,-1.058 0.861,-1.92 1.92,-1.92 z m 2.431,11.291 V 2.431 C 22.694,1.091 21.604,0 20.264,0 H 2.528 a 2.434,2.434 0 0 0 -2.43,2.431 v 9.372 c 0,1.34 1.09,2.431 2.43,2.431 h 17.735 c 1.34,0 2.431,-1.09 2.431,-2.431 z"
             id="path3773" />
        </g>
      </g>
    </g>
  </g>
</svg>
