<svg xmlns="http://www.w3.org/2000/svg" width="33" height="35" viewBox="0 0 33 35"><g><g><g><g><g><g><g><path fill="#fff" d="M11.531 1.738a4.145 4.145 0 0 1 4.14 4.14 4.144 4.144 0 0 1-4.14 4.14 4.144 4.144 0 0 1-4.14-4.14 4.145 4.145 0 0 1 4.14-4.14zm5.254 4.14A5.259 5.259 0 0 0 11.53.625a5.26 5.26 0 0 0-5.254 5.253 5.258 5.258 0 0 0 5.254 5.252 5.258 5.258 0 0 0 5.254-5.252z"/></g></g></g></g></g><g><path fill="#fff" d="M21.706 31.587a1.804 1.804 0 0 1-3.076 1.274 1.796 1.796 0 0 1-.524-1.236v-1.12l.001-.762h3.6zM6.514 33.39V31.63l.002-.043v-2.955h-.002v-7.757H5.4v7.757H1.794V18.63a5.314 5.314 0 0 1 5.308-5.308h1.17a3.666 3.666 0 0 0 3.615 3.105c1.83 0 3.345-1.35 3.615-3.105h.902a5.314 5.314 0 0 1 5.308 5.308v10.002h-3.606v-7.757h-1.113v9.56l-.002 1.146.002.042v1.766zm-2.913 0A1.799 1.799 0 0 1 1.8 31.582l.003-1.839H5.4v1.887a1.803 1.803 0 0 1-1.799 1.759zm10.773-20.067a2.552 2.552 0 0 1-2.487 1.993 2.552 2.552 0 0 1-2.488-1.993zm8.452 5.308c0-3.54-2.881-6.42-6.422-6.42h-.855v-.003H8.224v.003H7.102A6.429 6.429 0 0 0 .68 18.63v12.346h.008l-.001.605a2.898 2.898 0 0 0 .851 2.065 2.895 2.895 0 0 0 2.063.855c.68 0 1.303-.234 1.8-.625v.625h12.705v-.622a2.898 2.898 0 0 0 1.8.622 2.917 2.917 0 0 0 2.914-2.914v-.611h.006z"/></g></g><g><path fill="#fff" d="M25.898 7.102h-4.347a.725.725 0 0 1 0-1.45h4.347V1.305a.725.725 0 0 1 1.45 0v4.347h4.347a.725.725 0 0 1 0 1.45h-4.347v4.347a.725.725 0 0 1-1.45 0z"/></g></g></svg>