<?xml version="1.0" encoding="UTF-8" standalone="no"?>
<svg
   xmlns:dc="http://purl.org/dc/elements/1.1/"
   xmlns:cc="http://creativecommons.org/ns#"
   xmlns:rdf="http://www.w3.org/1999/02/22-rdf-syntax-ns#"
   xmlns:svg="http://www.w3.org/2000/svg"
   xmlns="http://www.w3.org/2000/svg"
   id="svg106"
   version="1.1"
   viewBox="0 0 200 200"
   height="200"
   width="200">
  <metadata
     id="metadata112">
    <rdf:RDF>
      <cc:Work
         rdf:about="">
        <dc:format>image/svg+xml</dc:format>
        <dc:type
           rdf:resource="http://purl.org/dc/dcmitype/StillImage" />
        <dc:title></dc:title>
      </cc:Work>
    </rdf:RDF>
  </metadata>
  <defs
     id="defs110" />
  <rect
     y="0"
     x="0"
     height="200"
     width="200"
     id="rect133"
     style="fill:#303392;fill-opacity:1;stroke:none;stroke-width:8.35076332;stroke-miterlimit:4;stroke-dasharray:none;stroke-opacity:1" />
  <g
     transform="matrix(2.1545565,0,0,2.1545565,27.815893,18.912189)"
     id="g253">
    <g
       style="opacity:0.23999999"
       id="g141">
      <g
         style="opacity:0.23999999"
         id="g139">
        <path
           style="fill:#ffffff"
           d="m 40.621,42.11 a 2.965,2.965 0 0 1 -3.922,1.427 2.965,2.965 0 0 1 -1.428,-3.922 2.965,2.965 0 0 1 3.923,-1.428 2.965,2.965 0 0 1 1.427,3.923 z"
           id="path137" />
      </g>
    </g>
    <g
       id="g149">
      <g
         id="g147">
        <g
           id="g145">
          <path
             style="fill:#f9ac58"
             d="M 66.81,55.881 50.02,65.574 0.615,37.049 16.873,27.43 Z"
             id="path143" />
        </g>
      </g>
    </g>
    <g
       id="g155">
      <g
         id="g153">
        <path
           style="fill:#4656cc"
           d="M 33.256,74.989 16.968,65.574 V 7.759 L 33.256,0.282 Z"
           id="path151" />
      </g>
    </g>
    <g
       id="g163">
      <g
         id="g161">
        <g
           id="g159">
          <path
             style="fill:#f7941d"
             d="M 65.989,17.59 49.805,7.67 0.614,37.05 16.757,46.288 Z"
             id="path157" />
        </g>
      </g>
    </g>
    <g
       style="opacity:0.3"
       id="g169">
      <g
         style="opacity:0.3"
         id="g167">
        <path
           style="fill:#ffffff"
           d="M 65.958,36.654 17.09,8.028 17.152,7.924 66.02,36.55 Z"
           id="path165" />
      </g>
    </g>
    <g
       style="opacity:0.3"
       id="g175">
      <g
         style="opacity:0.3"
         id="g173">
        <path
           style="fill:#ffffff"
           d="M 17.353,65.626 17.292,65.522 66.448,36.29 66.51,36.394 Z"
           id="path171" />
      </g>
    </g>
    <g
       style="opacity:0.3"
       id="g181">
      <g
         style="opacity:0.3"
         id="g179">
        <path
           style="fill:#ffffff"
           d="M 49.904,65.354 49.745,7.976 h 0.12 l 0.16,57.378 z"
           id="path177" />
      </g>
    </g>
    <g
       id="g195">
      <g
         id="g187">
        <g
           id="g185">
          <path
             style="fill:#ffffff"
             d="m 65.989,36.602 a 0.433,0.433 0 1 1 0.866,0 0.433,0.433 0 0 1 -0.866,0 z"
             id="path183" />
        </g>
      </g>
      <g
         id="g193">
        <g
           id="g191">
          <path
             style="fill:#ffffff"
             d="m 66.704,36.603 a 0.282,0.282 0 0 1 -0.563,0 0.2815,0.2815 0 1 1 0.563,0 z m 0.304,0 a 0.58600085,0.58600085 0 1 0 -1.172,0.002 0.58600085,0.58600085 0 0 0 1.172,-0.002 z"
             id="path189" />
        </g>
      </g>
    </g>
    <g
       id="g201">
      <g
         id="g199">
        <path
           d="M 16.757,46.287 33.301,55.92 33.177,36.844 Z"
           id="path197" />
      </g>
    </g>
    <g
       id="g207">
      <g
         id="g205">
        <path
           style="fill:#d30000"
           d="M 33.174,36.718 33.256,36.67 V 17.553 l -16.288,9.729 v 0.203 z"
           id="path203" />
      </g>
    </g>
    <g
       id="g213">
      <g
         id="g211">
        <path
           style="fill:#f4651e"
           d="M 16.84,46.165 V 27.485 L 16.744,27.43 0.486,37.05 16.629,46.287 Z"
           id="path209" />
      </g>
    </g>
    <g
       id="g219">
      <g
         id="g217">
        <path
           style="fill:#d30000"
           d="m 16.968,27.485 v 18.68 L 33.256,36.67 Z"
           id="path215" />
      </g>
    </g>
    <g
       style="opacity:0.3"
       id="g225">
      <g
         style="opacity:0.3"
         id="g223">
        <path
           style="fill:#ffffff"
           d="M 33.146,36.897 0.554,18.08 0.616,17.974 33.208,36.791 Z"
           id="path221" />
      </g>
    </g>
    <g
       id="g235">
      <g
         id="g229">
        <path
           style="fill:#ffffff"
           d="m 0.152,18.027 a 0.433,0.433 0 1 1 0.866,0 0.433,0.433 0 0 1 -0.866,0 z"
           id="path227" />
      </g>
      <g
         id="g233">
        <path
           style="fill:#ffffff"
           d="m 0.867,18.027 a 0.283,0.283 0 0 1 -0.282,0.282 0.283,0.283 0 0 1 0,-0.564 c 0.155,0 0.282,0.127 0.282,0.282 z m 0.303,0 a 0.58600021,0.58600021 0 1 0 -1.172,10e-4 0.58600021,0.58600021 0 0 0 1.172,-10e-4 z"
           id="path231" />
      </g>
    </g>
    <g
       style="opacity:0.3"
       id="g241">
      <g
         style="opacity:0.3"
         id="g239">
        <path
           style="fill:#ffffff"
           d="m 0.517,55.933 -0.061,-0.104 32.69,-19.037 0.062,0.104 z"
           id="path237" />
      </g>
    </g>
    <g
       id="g251">
      <g
         id="g245">
        <path
           style="fill:#ffffff"
           d="m 0.152,55.826 a 0.433,0.433 0 1 1 0.866,0 0.433,0.433 0 0 1 -0.866,0 z"
           id="path243" />
      </g>
      <g
         id="g249">
        <path
           style="fill:#ffffff"
           d="m 0.867,55.826 a 0.283,0.283 0 0 1 -0.282,0.282 0.282,0.282 0 1 1 0.282,-0.282 z m 0.303,0 a 0.586,0.586 0 0 0 -0.585,-0.585 0.586,0.586 0 0 0 0,1.17 0.586,0.586 0 0 0 0.585,-0.585 z"
           id="path247" />
      </g>
    </g>
  </g>
  <circle
     r="32.256355"
     cy="136.62076"
     cx="56.28178"
     id="path4875"
     style="opacity:0.59100001;fill:#000000;fill-opacity:1;stroke:none;stroke-width:7.87099981;stroke-miterlimit:4;stroke-dasharray:none;stroke-opacity:1" />
  <g
     transform="matrix(1.1804059,0,0,1.1804059,33.367741,119.30168)"
     id="g4853">
    <g
       id="g4851">
      <g
         id="g4833">
        <path
           style="fill:#ffffff"
           d="m 17.656,22.848 c 0,0.749 -0.609,1.357 -1.357,1.357 H 9.966 A 0.726,0.726 0 0 0 9.24,24.931 V 26.99 L 6.668,24.418 A 0.726,0.726 0 0 0 6.154,24.205 H 3.633 A 1.358,1.358 0 0 1 2.276,22.848 v -6.69 c 0,-0.749 0.609,-1.357 1.357,-1.357 h 5.285 v 0.203 a 4.15,4.15 0 0 0 4.145,4.145 h 4.593 z M 37.274,11.69 a 0.726,0.726 0 0 0 -0.726,0.726 v 2.588 a 2.696,2.696 0 0 1 -2.693,2.693 h -4.139 a 0.726,0.726 0 0 0 -0.513,0.212 l -5.018,5.018 V 18.423 A 0.726,0.726 0 0 0 23.459,17.697 H 13.063 A 2.696,2.696 0 0 1 10.37,15.004 V 4.02 a 2.696,2.696 0 0 1 2.693,-2.693 h 20.792 a 2.696,2.696 0 0 1 2.693,2.693 v 2.588 a 0.726,0.726 0 1 0 1.452,0 V 4.02 A 4.15,4.15 0 0 0 33.855,-0.125 H 13.063 A 4.15,4.15 0 0 0 8.918,4.02 v 9.328 H 3.633 a 2.812,2.812 0 0 0 -2.809,2.81 v 6.69 c 0,1.55 1.26,2.809 2.809,2.809 h 2.22 l 3.6,3.599 a 0.726,0.726 0 0 0 1.24,-0.513 v -3.086 h 5.606 a 2.812,2.812 0 0 0 2.809,-2.809 V 19.15 h 3.625 v 5.531 a 0.726,0.726 0 0 0 1.24,0.513 l 6.044,-6.044 h 3.838 A 4.15,4.15 0 0 0 38,15.004 v -2.588 c 0,-0.4 -0.325,-0.726 -0.726,-0.726 z"
           id="path4831" />
      </g>
      <g
         id="g4837">
        <path
           style="fill:#ffffff"
           d="M 30.538,4.633 H 16.38 a 0.7265,0.7265 0 0 0 0,1.453 h 14.158 a 0.7265,0.7265 0 1 0 0,-1.453 z"
           id="path4835" />
      </g>
      <g
         id="g4841">
        <path
           style="fill:#ffffff"
           d="M 31.264,9.28 A 0.726,0.726 0 0 0 30.538,8.554 H 16.38 a 0.7265,0.7265 0 0 0 0,1.453 h 14.158 c 0.401,0 0.726,-0.325 0.726,-0.726 z"
           id="path4839" />
      </g>
      <g
         id="g4845">
        <path
           style="fill:#ffffff"
           d="m 16.38,12.475 a 0.7265,0.7265 0 0 0 0,1.453 h 8.168 a 0.7265,0.7265 0 1 0 0,-1.453 z"
           id="path4843" />
      </g>
      <g
         id="g4849">
        <path
           style="fill:#ffffff"
           d="m 37.274,8.786 c -0.4,0 -0.726,0.326 -0.726,0.726 0,0.4 0.326,0.726 0.726,0.726 0.4,0 0.726,-0.326 0.726,-0.726 0,-0.4 -0.326,-0.726 -0.726,-0.726 z"
           id="path4847" />
      </g>
    </g>
  </g>
</svg>
