<svg xmlns="http://www.w3.org/2000/svg" width="17" height="15" viewBox="0 0 17 15"><g><g><g><g><path fill="#fff" d="M1.032 8.903l-.026-.006h11.42l-3.59 3.598a.934.934 0 0 0-.273.663c0 .25.097.486.273.662l.558.56c.176.175.41.272.66.272.25 0 .484-.096.66-.272l6.153-6.154a.925.925 0 0 0 .273-.66.925.925 0 0 0-.273-.663L10.713.749a.926.926 0 0 0-.66-.272.927.927 0 0 0-.659.272l-.558.559a.924.924 0 0 0-.273.659c0 .25.097.472.273.647l3.63 3.618H1.02a.967.967 0 0 0-.946.958v.79c0 .514.445.923.96.923z"/></g></g></g></g></svg>