<svg width="14" height="14" viewBox="0 0 14 14" fill="none" xmlns="http://www.w3.org/2000/svg">
<path d="M13 7C13 10.3137 10.3137 13 7 13C3.68629 13 1 10.3137 1 7C1 3.68629 3.68629 1 7 1C10.3137 1 13 3.68629 13 7Z" fill="#FFC107"/>
<path fill-rule="evenodd" clip-rule="evenodd" d="M14 7C14 10.866 10.866 14 7 14C3.13401 14 0 10.866 0 7C0 3.13401 3.13401 0 7 0C10.866 0 14 3.13401 14 7ZM7 13C10.3137 13 13 10.3137 13 7C13 3.68629 10.3137 1 7 1C3.68629 1 1 3.68629 1 7C1 10.3137 3.68629 13 7 13Z" fill="white"/>
<path fill-rule="evenodd" clip-rule="evenodd" d="M5.61583 4C5.17684 4 4.87912 4.36296 5.04796 4.69231L6.23102 7L5.04796 9.30769C4.87912 9.63704 5.17684 10 5.61583 10L8.38417 10C8.82316 10 9.12088 9.63704 8.95204 9.30769L7.76898 7L8.95204 4.69231C9.12088 4.36296 8.82316 4 8.38417 4H5.61583Z" fill="white"/>
</svg>
