<svg xmlns="http://www.w3.org/2000/svg" width="29" height="24" viewBox="0 0 29 24"><g><g><g><path fill="#303392" d="M7.625 20.51v-5.2a1.774 1.774 0 0 0 1.313-2.72h-.826a1.156 1.156 0 0 1 .499.956c0 .643-.523 1.166-1.166 1.166h-1.18v.608h.752v5.18h-.753v.609h1.181a1.167 1.167 0 0 1 0 2.332h-3.44a1.167 1.167 0 0 1 0-2.332h1.181v-.61h-.724v-5.18h.723v-.607h-1.18a1.167 1.167 0 0 1-.667-2.121h-.826a1.758 1.758 0 0 0-.281.956c0 .926.714 1.69 1.623 1.765v5.196a1.775 1.775 0 0 0-1.623 1.767c0 .978.796 1.774 1.774 1.774h3.44c.978 0 1.774-.796 1.774-1.774 0-.918-.7-1.675-1.594-1.765z"/></g><g><path fill="#303392" d="M16.49 20.51v-5.2a1.778 1.778 0 0 0 1.56-2.112 1.706 1.706 0 0 0-.247-.607h-.825a1.164 1.164 0 0 1-.669 2.12h-1.18v.609h.753v5.18h-.754v.609h1.182a1.167 1.167 0 0 1 0 2.332h-3.44a1.167 1.167 0 0 1 0-2.332h1.18v-.61h-.723v-5.18h.724v-.607H12.87a1.167 1.167 0 0 1-.667-2.121h-.825a1.758 1.758 0 0 0-.281.956c0 .926.715 1.69 1.622 1.765v5.196a1.775 1.775 0 0 0-1.623 1.767c0 .978.796 1.774 1.775 1.774h3.44c.978 0 1.774-.796 1.774-1.774 0-.918-.7-1.675-1.594-1.765z"/></g><g><path fill="#303392" d="M25.354 20.51v-5.2a1.778 1.778 0 0 0 1.56-2.112 1.734 1.734 0 0 0-.247-.607h-.825a1.164 1.164 0 0 1-.668 2.12h-1.181v.609h.753v5.18h-.753v.609h1.181a1.167 1.167 0 0 1 0 2.332h-3.44a1.167 1.167 0 0 1 0-2.332h1.181v-.61h-.724v-5.18h.724v-.607h-1.18a1.167 1.167 0 0 1-.669-2.121h-.825a1.758 1.758 0 0 0-.281.956c0 .925.714 1.69 1.623 1.765v5.196a1.775 1.775 0 0 0-1.623 1.767c0 .978.796 1.774 1.774 1.774h3.44c.978 0 1.774-.796 1.774-1.774 0-.918-.7-1.675-1.594-1.765z"/></g><g><path fill="#303392" d="M26.231 10.669H2.815V7.672l11.707-6.67 11.71 6.67zM14.522.303L2.36 7.23l-.153.087v3.958h24.632V7.318z"/></g><g><g><g><g><g><path fill="#303392" d="M14.522 8.983a1.768 1.768 0 0 1 0-3.534 1.77 1.77 0 0 1 1.768 1.767 1.77 1.77 0 0 1-1.768 1.767zm0-4.141a2.377 2.377 0 0 0-2.373 2.374 2.377 2.377 0 0 0 2.373 2.375 2.377 2.377 0 0 0 2.376-2.375 2.377 2.377 0 0 0-2.376-2.374z"/></g></g></g></g></g><g><path fill="#303392" d="M27.572 12.59H1.474v-1.314h26.098zM.867 10.669v2.53H28.18v-2.53z"/></g><g><path fill="#303392" d="M1.17 24.05v-.609h26.705v.608z"/></g><g><path fill="#303392" d="M14.523 2.113L3.709 8.265v2.707h.607V8.62l10.207-5.807L24.746 8.62v2.353h.608V8.265z"/></g></g></g></svg>