<svg xmlns="http://www.w3.org/2000/svg" width="42" height="36" viewBox="0 0 42 36"><g><g><g><path fill="#122b3c" d="M10.97 30.758v-7.774a2.653 2.653 0 0 0 2.33-3.157 2.553 2.553 0 0 0-.368-.908h-1.234a1.73 1.73 0 0 1 .745 1.429c0 .96-.781 1.742-1.742 1.742H8.936V23h1.125v7.743H8.935v.91h1.766c.961 0 1.744.782 1.744 1.744 0 .961-.783 1.743-1.744 1.743H5.558a1.745 1.745 0 0 1-1.744-1.743c0-.962.783-1.744 1.744-1.744h1.766v-.91H6.242V23h1.08v-.91H5.559a1.744 1.744 0 0 1-.998-3.17H3.327c-.178.272-.305.58-.368.908a2.651 2.651 0 0 0 2.374 3.16v7.769a2.654 2.654 0 0 0-2.427 2.64 2.655 2.655 0 0 0 2.652 2.653h5.143a2.655 2.655 0 0 0 2.652-2.652 2.656 2.656 0 0 0-2.383-2.64z"/></g><g><path fill="#122b3c" d="M24.222 30.758v-7.773h.001a2.659 2.659 0 0 0 2.331-3.158 2.553 2.553 0 0 0-.368-.908h-1.234a1.741 1.741 0 0 1-1 3.17h-1.764V23h1.125v7.744h-1.126v.91h1.766c.961 0 1.744.782 1.744 1.744 0 .961-.783 1.743-1.744 1.743H18.81a1.745 1.745 0 0 1-1.743-1.743c0-.962.782-1.744 1.743-1.744h1.766v-.91h-1.082V23h1.083v-.91h-1.768a1.744 1.744 0 0 1-.997-3.17h-1.234a2.63 2.63 0 0 0-.42 1.429 2.653 2.653 0 0 0 2.426 2.64h.001v7.768a2.654 2.654 0 0 0-2.427 2.64 2.655 2.655 0 0 0 2.652 2.653h5.143a2.655 2.655 0 0 0 2.653-2.652 2.656 2.656 0 0 0-2.384-2.64z"/></g><g><path fill="#122b3c" d="M37.474 30.758v-7.773a2.658 2.658 0 0 0 2.332-3.158 2.595 2.595 0 0 0-.368-.908h-1.234a1.742 1.742 0 0 1-1 3.17H35.44V23h1.126v7.744H35.44v.91h1.766c.962 0 1.744.782 1.744 1.744 0 .961-.782 1.743-1.744 1.743h-5.143a1.745 1.745 0 0 1-1.744-1.743c0-.962.783-1.744 1.744-1.744h1.766v-.91h-1.082V23h1.082v-.91h-1.765a1.744 1.744 0 0 1-1.665-2.262 1.73 1.73 0 0 1 .666-.908H29.83a2.628 2.628 0 0 0-.42 1.429 2.652 2.652 0 0 0 2.426 2.64h.001v7.768a2.654 2.654 0 0 0-2.427 2.64 2.655 2.655 0 0 0 2.652 2.653h5.143a2.655 2.655 0 0 0 2.653-2.652 2.656 2.656 0 0 0-2.384-2.64z"/></g><g><path fill="#122b3c" d="M38.786 16.046H3.779v-4.48L21.28 1.593l17.505 9.971zM21.28.549L3.099 10.906l-.23.13v5.918h36.825v-5.918z"/></g><g><g><g><g><g><path fill="#122b3c" d="M21.281 13.526a2.644 2.644 0 0 1-2.64-2.642 2.643 2.643 0 0 1 2.64-2.64 2.645 2.645 0 0 1 2.642 2.64 2.646 2.646 0 0 1-2.642 2.642zm0-6.191a3.554 3.554 0 0 0-3.549 3.549 3.553 3.553 0 0 0 3.549 3.55 3.554 3.554 0 0 0 3.551-3.55 3.554 3.554 0 0 0-3.551-3.549z"/></g></g></g></g></g><g><path fill="#122b3c" d="M40.79 18.92H1.774v-1.966h39.014zM.865 16.044v3.782h40.832v-3.782z"/></g><g><path fill="#122b3c" d="M1.32 36.05v-.91h39.923v.91z"/></g><g><path fill="#122b3c" d="M21.281 3.255L5.115 12.451V16.5h.908v-3.518L21.282 4.3l15.283 8.68v3.518h.91v-4.048z"/></g></g></g></svg>