<svg width="14" height="18" viewBox="0 0 14 18" fill="none" xmlns="http://www.w3.org/2000/svg">
<path d="M12.1781 5.4722C12.1781 2.44999 9.85978 0 7 0V14.8966H12.4717C13.3158 14.8966 14 14.2123 14 13.3683C14 13.0444 13.8975 12.729 13.7031 12.47C13.3447 11.9925 12.7224 11.1799 12.1781 10.5524V5.4722Z" fill="#FFBE1B"/>
<path d="M1.82192 5.4722C1.82192 2.44999 4.14022 0 7 0V14.8966H1.52826C0.684224 14.8966 0 14.2123 0 13.3683C0 13.0444 0.102459 12.729 0.296919 12.47C0.655282 11.9925 1.27765 11.1799 1.82192 10.5524V5.4722Z" fill="#FFE37B"/>
<path d="M7 18C8.65685 18 10 17.1046 10 16H4C4 17.1046 5.34315 18 7 18Z" fill="#6857E5"/>
</svg>
