<svg width="14" height="18" viewBox="0 0 14 18" fill="none" xmlns="http://www.w3.org/2000/svg">
<mask id="path-1-inside-1" fill="white">
<path fill-rule="evenodd" clip-rule="evenodd" d="M7 0C4.14022 0 1.82192 2.44999 1.82192 5.4722V10.5524C1.27765 11.1799 0.655282 11.9925 0.296919 12.47C0.102459 12.729 0 13.0444 0 13.3683C0 14.2123 0.684224 14.8966 1.52826 14.8966H7H12.4717C13.3158 14.8966 14 14.2123 14 13.3683C14 13.0444 13.8975 12.729 13.7031 12.47C13.3447 11.9925 12.7224 11.1799 12.1781 10.5524V5.4722C12.1781 2.44999 9.85978 0 7 0Z"/>
</mask>
<path d="M1.82192 10.5524L2.57734 11.2077L2.82192 10.9257V10.5524H1.82192ZM0.296919 12.47L-0.502839 11.8696L-0.502839 11.8696L0.296919 12.47ZM13.7031 12.47L12.9033 13.0703L13.7031 12.47ZM12.1781 10.5524H11.1781V10.9257L11.4227 11.2077L12.1781 10.5524ZM2.82192 5.4722C2.82192 2.9495 4.74384 1 7 1V-1C3.5366 -1 0.821918 1.95048 0.821918 5.4722H2.82192ZM2.82192 10.5524V5.4722H0.821918V10.5524H2.82192ZM1.09668 13.0703C1.45295 12.5957 2.05761 11.8069 2.57734 11.2077L1.0665 9.89718C0.497683 10.553 -0.14238 11.3894 -0.502839 11.8696L1.09668 13.0703ZM1 13.3683C1 13.2552 1.03559 13.1517 1.09668 13.0703L-0.502839 11.8696C-0.83067 12.3064 -1 12.8336 -1 13.3683H1ZM1.52826 13.8966C1.23651 13.8966 1 13.66 1 13.3683H-1C-1 14.7646 0.131939 15.8966 1.52826 15.8966V13.8966ZM7 13.8966H1.52826V15.8966H7V13.8966ZM7 15.8966H12.4717V13.8966H7V15.8966ZM12.4717 15.8966C13.8681 15.8966 15 14.7646 15 13.3683H13C13 13.66 12.7635 13.8966 12.4717 13.8966V15.8966ZM15 13.3683C15 12.8336 14.8307 12.3064 14.5028 11.8696L12.9033 13.0703C12.9644 13.1517 13 13.2552 13 13.3683H15ZM14.5028 11.8696C14.1424 11.3894 13.5023 10.553 12.9335 9.89718L11.4227 11.2077C11.9424 11.8069 12.5471 12.5957 12.9033 13.0703L14.5028 11.8696ZM13.1781 10.5524V5.4722H11.1781V10.5524H13.1781ZM13.1781 5.4722C13.1781 1.95048 10.4634 -1 7 -1V1C9.25616 1 11.1781 2.9495 11.1781 5.4722H13.1781Z" fill="white" mask="url(#path-1-inside-1)"/>
<path d="M7 18C8.65685 18 10 17.1046 10 16H4C4 17.1046 5.34315 18 7 18Z" fill="white"/>
</svg>
