<svg xmlns="http://www.w3.org/2000/svg" width="63" height="61" viewBox="0 0 63 61"><g><g><g><path fill="#f7941d" d="M45.06 9.208l-.14 7.928-2.813-2.957-.953.943 4.344 4.56 4.582-4.498-.923-.97-2.915 2.857.136-7.84c.075-4.283 3.558-7.697 7.78-7.623 4.224.074 7.587 3.606 7.513 7.89l-.014.771 1.328.023.014-.77c.087-5.029-3.86-9.175-8.816-9.26-4.956-.087-9.045 3.918-9.132 8.945z"/></g><g><g><path fill="#f7941d" d="M24.485 12.017a24.447 24.447 0 0 0-16.21 6.131.882.882 0 1 0 1.169 1.322c9.107-8.035 22.925-7.482 31.36 1.255 8.437 8.736 8.507 22.564.159 31.385-8.35 8.821-22.16 9.513-31.348 1.57C.428 45.736-.884 31.97 6.638 22.435a.882.882 0 0 0-1.385-1.093A24.234 24.234 0 0 0 0 36.5c0 13.522 10.962 24.484 24.484 24.484 13.522 0 24.484-10.961 24.484-24.483S38.007 12.017 24.485 12.017z"/></g><g><path fill="#f7941d" d="M38.912 48.513a.884.884 0 0 0 1.237-.171c6.285-8.309 4.99-20.079-2.95-26.823-7.94-6.745-19.764-6.118-26.946 1.427-7.183 7.546-7.226 19.386-.099 26.985 7.128 7.598 18.947 8.31 26.936 1.624a.882.882 0 1 0-1.133-1.352A17.872 17.872 0 1 1 42.354 36.5a17.711 17.711 0 0 1-3.61 10.777.883.883 0 0 0 .168 1.236z"/></g><g><path fill="#f7941d" d="M21.366 37.048h5.324a3.12 3.12 0 0 1 3.116 3.116v.36a3.12 3.12 0 0 1-3.116 3.115h-5.324zm4.822-7.993a3.116 3.116 0 0 1 0 6.23h-4.822v-6.232zm-1.955 18.95a.882.882 0 0 0 .883-.882v-1.72h1.574a4.887 4.887 0 0 0 4.88-4.88v-.36a4.876 4.876 0 0 0-2.36-4.17 4.876 4.876 0 0 0-3.022-8.704h-1.072v-1.412a.882.882 0 1 0-1.765 0v1.412h-1.985v-1.412a.882.882 0 1 0-1.765 0v1.412h-1.32a.882.882 0 1 0 0 1.765h1.32v14.584h-1.32a.882.882 0 1 0 0 1.765h1.32v1.718a.882.882 0 1 0 1.765 0v-1.718h1.985v1.718a.881.881 0 0 0 .882.884z"/></g></g></g></g></svg>