<svg xmlns="http://www.w3.org/2000/svg" width="63" height="61" viewBox="0 0 63 61"><g><g><g><path fill="#f7941d" d="M44.453 10.722V2.599L41.49 5.577l-.968-.984L45.095 0l4.655 4.69-.971.976-2.963-2.978v8.034c0 4.39 3.539 7.947 7.905 7.947s7.906-3.557 7.906-7.947v-.79H63v.79c0 5.151-4.154 9.328-9.278 9.328-5.125 0-9.28-4.177-9.28-9.328z"/></g><g><g><path fill="#f7941d" d="M24.263 11.975A24.226 24.226 0 0 0 8.2 18.05a.874.874 0 1 0 1.158 1.31c9.025-7.962 22.717-7.414 31.077 1.244 8.36 8.657 8.429 22.36.156 31.1-8.273 8.742-21.959 9.427-31.063 1.556C.424 45.388-.876 31.747 6.578 22.298a.874.874 0 0 0-1.373-1.083A24.015 24.015 0 0 0 0 36.236c0 13.4 10.863 24.261 24.261 24.262 13.4 0 24.263-10.862 24.263-24.261 0-13.4-10.862-24.262-24.261-24.262z"/></g><g><path fill="#f7941d" d="M38.56 48.14a.876.876 0 0 0 1.225-.17c6.228-8.233 4.945-19.896-2.922-26.58-7.869-6.683-19.586-6.062-26.703 1.415-7.117 7.478-7.16 19.21-.098 26.74 7.063 7.529 18.775 8.235 26.691 1.61a.874.874 0 1 0-1.122-1.34 17.71 17.71 0 1 1 6.34-13.579 17.55 17.55 0 0 1-3.58 10.679.875.875 0 0 0 .168 1.225z"/></g><g><path fill="#f7941d" d="M21.172 36.78h5.276a3.091 3.091 0 0 1 3.087 3.086v.357a3.091 3.091 0 0 1-3.087 3.087h-5.276zm4.779-7.922a3.088 3.088 0 0 1 0 6.174h-4.779v-6.176zm-1.937 18.779a.874.874 0 0 0 .874-.874v-1.705h1.56a4.842 4.842 0 0 0 4.836-4.835v-.357a4.832 4.832 0 0 0-2.34-4.133 4.832 4.832 0 0 0-2.993-8.625h-1.063V25.71a.874.874 0 1 0-1.749 0v1.398h-1.967V25.71a.874.874 0 1 0-1.749 0v1.398h-1.307a.874.874 0 1 0 0 1.749h1.307v14.452h-1.307a.874.874 0 1 0 0 1.749h1.307v1.703a.874.874 0 1 0 1.75 0v-1.703h1.966v1.703a.873.873 0 0 0 .875.876z"/></g></g></g></g></svg>