<svg xmlns="http://www.w3.org/2000/svg" width="33" height="23" viewBox="0 0 33 23"><g><g><g><path fill="#f7941d" d="M13.545 19.166l-6.152 2.801v-7.89l6.152-2.802zm-6.772 2.801L.62 19.166v-7.891l6.154 2.801zm.31-13.916l2.134.972.62.282 3.27 1.488-6.024 2.743-6.026-2.743zm6.772 2.402l-4.019-1.83-.619-.281-2.134-.972-6.772 3.083-.311.142v8.968l6.773 3.084.31.14.31-.14 6.771-3.084v-8.97z"/></g><g><path fill="#f7941d" d="M31.977 19.166l-6.153 2.801v-7.89l6.153-2.802zm-6.772 2.801l-6.153-2.801v-7.891l6.153 2.801zM22.761 9.305l.62-.282 2.134-.972 6.024 2.742-6.024 2.743-6.025-2.743zm9.525 1.148L25.515 7.37l-2.135.972-.619.281-4.018 1.83-.31.14v8.97l6.772 3.084.31.14.31-.14 6.771-3.084v-8.97z"/></g><g><path fill="#f7941d" d="M16.299 6.169l-6.026-2.745L16.299.682l6.024 2.742zm6.771-3.085L16.3 0 9.527 3.084l-.31.14v8.441h.62v-7.76l6.152 2.802v7.891l-1.825-.831-.619-.282-2.03-.924-.258.564 2.288 1.041.62.282 1.824.831.31.141.31-.14 1.824-.832.62-.282 2.15-.98-.256-.563-1.895.862-.619.282-1.825.831v-7.89l6.153-2.802v7.76h.62V3.223z"/></g></g></g></svg>
