<svg xmlns="http://www.w3.org/2000/svg" width="29" height="29" viewBox="0 0 29 29"><defs><clipPath id="vlyoa"><path fill="#fff" d="M0 14.5C0 6.492 6.492 0 14.5 0S29 6.492 29 14.5 22.508 29 14.5 29 0 22.508 0 14.5z"/></clipPath></defs><g><g><path fill="none" stroke="#303392" stroke-miterlimit="50" stroke-width="2" d="M0 14.5C0 6.492 6.492 0 14.5 0S29 6.492 29 14.5 22.508 29 14.5 29 0 22.508 0 14.5z" clip-path="url(&quot;#vlyoa&quot;)"/></g><g><path fill="#303392" d="M17.116 20.353H11.91v-6.068h3.393v.001h3.128a2.878 2.878 0 0 1 2.875 2.876v.316a2.878 2.878 0 0 1-2.875 2.875zM11.91 8.466h5.326a2.14 2.14 0 0 1 2.138 2.138v.25a2.14 2.14 0 0 1-2.138 2.137h-1.933v.001H11.91zm8.981 4.756a3.42 3.42 0 0 0 .954-2.368v-.25a3.436 3.436 0 0 0-3.433-3.432h-1.357V4.466H15.76v2.706h-2.408V4.466H12.06v2.706H7v1.294c1.17 0 2.12.948 2.12 2.12v7.647A2.12 2.12 0 0 1 7 20.353v1.294h5.06v2.706h1.293v-2.706h2.408v2.706h1.294v-2.706h2.481a4.17 4.17 0 0 0 4.17-4.17v-.315a4.173 4.173 0 0 0-2.815-3.94z"/></g></g></svg>