<svg xmlns="http://www.w3.org/2000/svg" width="72" height="71" viewBox="0 0 72 71"><g><g><g><g><g><g><g><path fill="#f7941d" d="M69.517 35.538c0 18.5-15.052 33.553-33.554 33.553-18.501 0-33.553-15.052-33.553-33.553 0-18.503 15.052-33.555 33.553-33.555 18.502 0 33.554 15.052 33.554 33.555zm1.91 0C71.427 15.982 55.52.073 35.963.073 16.408.073.5 15.982.5 35.538.5 55.092 16.41 71 35.963 71c19.556 0 35.464-15.909 35.464-35.463z"/></g></g></g></g></g><g><g><g><g><g><path fill="#f7941d" d="M30.44 23.075l10.416.002c1.99 0 3.61 1.617 3.61 3.609v.534c0 1.99-1.62 3.609-3.61 3.609l-10.417.002zm10.416 9.665a5.526 5.526 0 0 0 5.52-5.52v-.534a5.531 5.531 0 0 0-4.564-5.438v-.082H28.529V32.74zM30.44 35.5l12.97.004a5.19 5.19 0 0 1 5.185 5.186v.674a5.191 5.191 0 0 1-5.186 5.185l-12.969.001zm12.97 12.957c3.912 0 7.095-3.183 7.095-7.093v-.674c0-3.915-3.183-7.099-7.096-7.099l-14.88-.002v14.872H40.6zm-23.456-.08a5.492 5.492 0 0 0 4.527-5.4V26.646a5.492 5.492 0 0 0-4.527-5.4v-.933h10.804v-5.778h1.92v5.778h4.918v-5.778h1.92v5.778h3.855v-.002a6.382 6.382 0 0 1 6.374 6.375v.534a6.342 6.342 0 0 1-1.772 4.398l-1.03 1.075 1.409.486a7.958 7.958 0 0 1 5.367 7.512v.674c0 4.383-3.567 7.948-7.95 7.948l-6.253-.002v5.78l-1.92.001v-5.781h-4.918v5.78l-1.92.001v-5.781H19.953zm21.472 8.623v-5.777h4.343c5.436 0 9.86-4.422 9.86-9.86v-.673a9.866 9.866 0 0 0-5.426-8.799 8.214 8.214 0 0 0 1.452-4.672v-.534c0-4.246-3.21-7.755-7.33-8.23v-.053h-.801c-.05-.002-.102-.002-.153-.002l-1.945.002v-5.78l-5.74.003v5.777h-1.098v-5.78l-5.74.002v5.778H18.042v4.672h.955a3.575 3.575 0 0 1 3.572 3.571v16.332a3.576 3.576 0 0 1-3.572 3.573h-.955v4.671h10.805v5.781l5.74-.002v-5.779h1.098v5.781z"/></g></g></g></g></g></g></g></svg>