<?xml version="1.0" encoding="UTF-8" standalone="no"?>
<svg
   xmlns:dc="http://purl.org/dc/elements/1.1/"
   xmlns:cc="http://creativecommons.org/ns#"
   xmlns:rdf="http://www.w3.org/1999/02/22-rdf-syntax-ns#"
   xmlns:svg="http://www.w3.org/2000/svg"
   xmlns="http://www.w3.org/2000/svg"
   id="svg108"
   version="1.1"
   viewBox="0 0 43 43"
   height="43"
   width="43">
  <metadata
     id="metadata114">
    <rdf:RDF>
      <cc:Work
         rdf:about="">
        <dc:format>image/svg+xml</dc:format>
        <dc:type
           rdf:resource="http://purl.org/dc/dcmitype/StillImage" />
        <dc:title></dc:title>
      </cc:Work>
    </rdf:RDF>
  </metadata>
  <defs
     id="defs112" />
  <g
     style="fill:#b53438;fill-opacity:1"
     id="g6">
    <g
       style="fill:#b53438;fill-opacity:1"
       id="g4">
      <path
         d="M 0,21.506 C 0,9.628 9.629,0 21.506,0 33.383,0 43.012,9.629 43.012,21.506 43.012,33.383 33.383,43.012 21.506,43.012 9.628,43.012 0,33.383 0,21.506 Z"
         id="path2"
         style="fill:#b53438;fill-opacity:1" />
    </g>
  </g>
  <g
     style="fill:#ffffff"
     transform="matrix(0.03665786,0,0,0.03665786,9.397733,16.284554)"
     id="g44">
    <path
       style="fill:#ffffff"
       d="m 637.77734,266.38672 c -6.35937,-20.48828 -25.75781,-34.16797 -47.20312,-33.30859 L 586,233.26563 c -13.41797,0.54687 -26.03906,6.07812 -35.49219,15.53125 l -70.71484,69.97265 c -1.67578,-2.55859 -3.59766,-4.99219 -5.78516,-7.26172 -9.29687,-9.66015 -22.32031,-15.19531 -35.72656,-15.19531 h -99.74609 c -18.82032,0 -37.17188,-2.44141 -54.55469,-7.25 -45.27344,-12.53125 -88.47266,-3.48438 -124.92969,26.16016 -15.3789,12.51171 -26.43359,26.16406 -33.21484,35.8125 -7.67969,-5.33985 -16.81641,-8.14063 -26.292971,-7.98047 -12.019531,0.20703 -23.230469,5.08203 -31.5625,13.74219 L 3.507812,423.72266 c -4.761718,4.9414 -4.664062,12.79687 0.226563,17.62109 l 51.847656,51.14062 c 4.925781,4.85547 12.867188,4.80469 17.730469,-0.125 4.855469,-4.92968 4.804688,-12.86328 -0.125,-17.72656 l -43.027344,-42.4375 55.875,-58.00781 c 3.675782,-3.81641 8.625,-5.97266 13.925782,-6.05859 5.351562,-0.0977 10.316402,1.89453 14.125002,5.58593 l 99.6914,96.74219 c 3.80079,3.69141 5.9375,8.63672 6.01172,13.93359 0.0742,5.30079 -1.92187,10.30469 -5.62109,14.10157 l -54.90625,56.33593 -14.12891,-13.45703 c -5.01562,-4.77734 -12.94922,-4.58203 -17.72656,0.4336 -4.76953,5.01562 -4.57422,12.94922 0.44141,17.71875 l 23.09765,22.0039 c 2.42969,2.3086 5.53907,3.45703 8.64453,3.45703 3.26563,0 6.52344,-1.26953 8.98047,-3.78515 L 232.125,515.98828 c 8.37891,-8.59375 12.89844,-19.94141 12.73438,-31.94141 -0.0781,-5.48828 -1.14063,-10.8125 -3.08594,-15.77343 l 22.38672,-2.60547 c 10.38671,-1.20703 20.95312,-1.82422 31.41015,-1.82422 h 151.76953 c 2.32422,0 4.67579,-0.0977 6.99219,-0.29297 l 14.54297,-1.21094 c 14.74219,-1.22265 28.94922,-6.33984 41.09375,-14.78515 5.96094,-4.14844 11.36719,-9.05469 16.07031,-14.58985 L 628.30859,312.64453 c 10.92969,-12.85547 14.46485,-30.14453 9.46875,-46.25781 z m -28.57031,30.01953 -102.27344,120.32031 c -3.30078,3.88281 -7.09765,7.32813 -11.28515,10.24219 -8.52735,5.93359 -18.50782,9.52344 -28.85157,10.38672 l -14.55078,1.21094 c -1.62109,0.13671 -3.27734,0.20703 -4.90625,0.20703 H 295.57031 c -11.42187,0 -22.96484,0.66797 -34.30469,1.98437 l -36.25,4.21875 -80.19531,-77.32812 c 5.46094,-8.09375 15.4961,-21.14063 30.05078,-32.97266 30.32032,-24.65234 64.77735,-31.87109 102.42188,-21.45312 19.55859,5.41406 40.16406,8.15625 61.24219,8.15625 h 99.74609 c 6.62891,0 13.07031,2.74218 17.67187,7.51562 3.36329,3.49219 5.4961,7.77344 6.375,12.26172 -0.0156,1.13281 0.125,2.26172 0.41797,3.35937 0.33203,5.87891 -1.42968,11.8711 -5.34375,16.74219 l -0.38672,0.48438 c -4.67578,5.82812 -11.64843,9.17578 -19.125,9.17578 h -86.83593 c -6.92578,0 -12.53516,5.60937 -12.53516,12.53125 0,6.92578 5.60938,12.53906 12.53516,12.53906 h 86.83593 c 15.1211,0 29.21875,-6.76562 38.6836,-18.56641 l 0.38672,-0.48046 c 7.25,-9.03125 10.84375,-19.96094 10.8789,-30.86719 l 80.34375,-79.50391 c 5.03907,-5.03515 11.72657,-7.96875 18.83985,-8.25781 l 4.57812,-0.18359 c 10.10938,-0.42969 19.23828,6.03515 22.23047,15.6875 2.44141,7.86718 0.71094,16.3125 -4.625,22.58984 z m 0,0"
       id="path18" />
    <path
       style="fill:#ffffff"
       d="m 99.679688,394.56641 c -18.71875,0 -33.945313,15.23046 -33.945313,33.94531 0,18.72265 15.226563,33.95312 33.945313,33.95312 18.718752,0 33.949222,-15.23047 33.949222,-33.95312 0,-18.71485 -15.23047,-33.94531 -33.949222,-33.94531 z m 0,42.82421 c -4.894532,0 -8.878907,-3.98046 -8.878907,-8.8789 0,-4.89063 3.984375,-8.8711 8.878907,-8.8711 4.890622,0 8.875002,3.98047 8.875002,8.8711 0,4.89844 -3.98438,8.8789 -8.875002,8.8789 z m 0,0"
       id="path20" />
    <path
       style="fill:#ffffff"
       d="m 297.78906,372.76562 -0.64453,0.15235 c -6.73828,1.58203 -10.92578,8.33203 -9.33594,15.07031 1.35157,5.77344 6.50391,9.67188 12.19141,9.67188 0.94531,0 1.91406,-0.11328 2.875,-0.33985 l 0.64844,-0.14844 c 6.73828,-1.58203 10.91797,-8.33203 9.33593,-15.07031 -1.58203,-6.73828 -8.32812,-10.91015 -15.07031,-9.33594 z m 0,0"
       id="path22" />
    <path
       style="fill:#ffffff"
       d="m 98.066406,505.4375 -0.648437,0.15234 c -6.738281,1.58594 -10.917969,8.32813 -9.335938,15.06641 1.355469,5.77734 6.503907,9.67187 12.191409,9.67187 0.95312,0 1.91406,-0.10546 2.88281,-0.33203 l 0.64453,-0.14843 c 6.73828,-1.58204 10.92188,-8.33204 9.33594,-15.07032 -1.58203,-6.74218 -8.33203,-10.91797 -15.070314,-9.33984 z m 0,0"
       id="path24" />
    <path
       style="fill:#ffffff"
       d="m 366.89062,263.92969 c 73.15625,0 132.67188,-59.51563 132.67188,-132.67188 0,-73.156248 -59.51563,-132.675779 -132.67188,-132.675779 -30.00781,0 -58.3125,9.773438 -81.85546,28.257813 -5.37891,4.21875 -10.46875,8.890625 -15.13282,13.890625 -6.97656,7.472656 -13.08984,15.75 -18.16406,24.589843 -11.46484,19.980469 -17.51953,42.785158 -17.51953,65.937498 0,73.15625 59.51562,132.67188 132.67187,132.67188 z M 273.48437,77.796875 c 4.11719,-7.175781 9.07422,-13.890625 14.74219,-19.957031 3.78516,-4.0625 7.92188,-7.851563 12.28516,-11.277344 19.09375,-14.984375 42.04687,-22.90625 66.3789,-22.90625 59.32813,0 107.60157,48.265625 107.60157,107.60156 0,59.33203 -48.27344,107.60156 -107.60157,107.60156 -59.33203,0 -107.60546,-48.26953 -107.60546,-107.60156 0,-18.78515 4.91015,-37.269529 14.19921,-53.460935 z m 0,0"
       id="path26" />
    <path
       style="fill:#ffffff"
       d="m 378.00781,174.16406 c -5.05469,3.00391 -11.62109,4.07031 -16.07422,4.07031 -8.45312,0 -15.86328,-9.96093 -15.86328,-21.3125 0,-6.92187 -5.61328,-12.53515 -12.53515,-12.53515 C 326.60938,144.38672 321,150 321,156.92187 c 0,21.71094 13.22656,39.97657 31.03125,45.00391 0.40625,6.55859 5.83594,11.75781 12.49609,11.75781 6.83985,0 12.39063,-5.48047 12.52344,-12.29297 18.10547,-4.69921 33.73047,-18.17968 33.73047,-41.73828 0,-28.24609 -28.84375,-43.65625 -43.65625,-43.65625 -0.1875,0 -18.58984,-1.63671 -18.58984,-13.40625 0,-18.074215 18.40234,-18.582028 18.58984,-18.582028 3.48437,0 7.72266,2.070313 11.0625,5.410157 1.60547,1.609375 1.77734,1.777343 1.77734,8.535156 0,6.921875 5.61719,12.507815 12.53516,12.507815 6.92187,0 12.53906,-5.63281 12.53906,-12.558596 0,-8.011719 0,-17.089844 -9.12109,-26.214844 -5.48438,-5.476562 -12.05469,-9.375 -18.89063,-11.320312 -0.38281,-6.582032 -5.82031,-11.808594 -12.5,-11.808594 -6.92187,0 -12.53515,5.617187 -12.53515,12.539062 v 0.820313 c -13.69531,5.089843 -28.52735,17.253906 -28.52735,40.671871 0,28.72266 29.85547,38.4336 43.57032,38.47266 3.76562,0.30469 18.67187,6.90625 18.67187,18.58594 0,6.875 -2.37109,11.34765 -7.69922,14.51562 z m 0,0"
       id="path28" />
  </g>
  <g
     id="text48"
     style="font-style:normal;font-weight:normal;font-size:15.1637249px;line-height:1.25;font-family:sans-serif;letter-spacing:0px;word-spacing:0px;fill:#ffffff;fill-opacity:1;stroke:none;stroke-width:0.37909308"
     transform="scale(-1,1)"
     aria-label="!">
    <path
       id="path50"
       style="fill:#ffffff;stroke-width:0.37909308"
       d="m -22.25146,11.715895 h 1.503045 v 1.880657 h -1.503045 z m 0,-9.1737578 h 1.503045 v 4.8497265 l -0.148084,2.6432863 h -1.199474 L -22.25146,7.3918637 Z" />
  </g>
</svg>
