<?xml version="1.0" encoding="UTF-8" standalone="no"?>
<svg
   xmlns:dc="http://purl.org/dc/elements/1.1/"
   xmlns:cc="http://creativecommons.org/ns#"
   xmlns:rdf="http://www.w3.org/1999/02/22-rdf-syntax-ns#"
   xmlns:svg="http://www.w3.org/2000/svg"
   xmlns="http://www.w3.org/2000/svg"
   xmlns:xlink="http://www.w3.org/1999/xlink"
   id="svg58"
   version="1.1"
   viewBox="0 0 62 59"
   height="59"
   width="62">
  <metadata
     id="metadata62">
    <rdf:RDF>
      <cc:Work
         rdf:about="">
        <dc:format>image/svg+xml</dc:format>
        <dc:type
           rdf:resource="http://purl.org/dc/dcmitype/StillImage" />
        <dc:title></dc:title>
      </cc:Work>
    </rdf:RDF>
  </metadata>
  <defs
     id="defs12">
    <path
       d="M791.72 694.743l-1.904 1.925c.56.393 1.217.601 1.902.601h.015c.683 0 1.34-.204 1.9-.59zm.003 3.771a4.52 4.52 0 0 1-2.788-.954 4.09 4.09 0 0 1-.468-.412l-.437-.43 3.696-3.74 3.686 3.732-.427.432a4.387 4.387 0 0 1-.475.418 4.52 4.52 0 0 1-2.787.954z"
       id="90z8a" />
    <path
       d="M800.955 703.99a3.336 3.336 0 0 0 .001 3.806l1.922-1.901zm-.046 5.597v-.001l-.441-.432a3.995 3.995 0 0 1-.36-.406 4.582 4.582 0 0 1 .353-6.114l.435-.429 3.744 3.69-3.73 3.69z"
       id="90z8b" />
    <path
       d="M806.56 727.409c-1.635 0-3.167.75-3.998 1.958-.857 1.247-.857 2.796 0 4.041.83 1.208 2.36 1.958 3.992 1.959l.132-.002h11.075v-7.955h-11.075a5.44 5.44 0 0 0-.126-.001zm12.614 9.17h-.002l-12.486-.001a6.718 6.718 0 0 1-.142.001c-2.139 0-4.138-.98-5.221-2.56-1.113-1.622-1.113-3.639 0-5.262 1.082-1.578 3.079-2.56 5.212-2.56l.151.002h12.488v10.379z"
       id="90z8c" />
    <path
       d="M804.64 730.35a2.076 2.076 0 1 1 4.153 0 2.076 2.076 0 0 1-4.153 0z"
       id="90z8d" />
    <path
       d="M791.427 694.701l2.022 1.89.933.87 5.402 5.042.932.874 2.023 1.89.058.051-6.794 6.346h1.843l1.305-1.219 5.49-5.127-3.967-3.704-5.336-4.984-3.91-3.653-3.905 3.647-16.103 15.04h1.846l18.161-16.963z"
       id="90z8e" />
    <path
       d="M815.022 724.989v-5.67c-.004-4.226-3.475-7.652-7.757-7.655h-39.997v37.372h39.997c4.281-.003 7.751-3.427 7.757-7.652v-6.458h-1.33v6.458c-.006 3.5-2.88 6.336-6.427 6.34h-38.667V712.986h38.667c3.547.005 6.42 2.842 6.426 6.342V725z"
       id="90z8f" />
    <path
       d="M794.223 711.664a5.728 5.728 0 0 0 0-1.277c-.296-2.82-2.515-4.952-5.156-4.952-2.64 0-4.86 2.132-5.156 4.952a6.119 6.119 0 0 0 0 1.277h1.187a4.712 4.712 0 0 1 0-1.277c.295-2.106 1.979-3.664 3.96-3.664 1.982 0 3.665 1.558 3.96 3.664.061.423.061.854 0 1.277z"
       id="90z8g" />
    <path
       d="M793.859 717.892h-20.363v2.077H804.64v-2.077H793.86z"
       id="90z8h" />
    <path
       d="M773.496 744.884v-2.076h31.144v2.076z"
       id="90z8i" />
    <path
       d="M811.398 698.439l-.133 7.57-2.687-2.823-.91.9 4.148 4.354 4.375-4.295-.881-.926-2.784 2.728.13-7.486c.072-4.09 3.398-7.35 7.43-7.279 4.033.07 7.244 3.443 7.173 7.533l-.013.737 1.268.022.013-.736c.084-4.801-3.685-8.76-8.418-8.842-4.732-.083-8.637 3.742-8.72 8.542z"
       id="90z8j" />
  </defs>
  <use
     transform="translate(-767,-690)"
     xlink:href="#90z8j"
     id="use50"
     style="fill:#f7941d"
     x="0"
     y="0"
     width="100%"
     height="100%" />
  <g
     style="fill:#f7941d;fill-opacity:1"
     transform="matrix(0.16849929,0,0,0.16849929,1.3711382,11.078934)"
     id="g162">
    <path
       style="fill:#f7941d;fill-opacity:1"
       d="M 138.75391,0.25 C 104.91797,0.226562 72.242188,12.585938 46.894531,34.996094 c -2.070312,1.828125 -2.265625,4.988281 -0.433593,7.058594 1.828124,2.070312 4.988281,2.261718 7.054687,0.433593 C 105.12891,-3.046875 183.42969,0.0859375 231.23828,49.597656 279.04687,99.105469 279.44141,177.46875 232.13281,227.45703 184.82031,277.44531 106.55469,281.36328 54.488281,236.35156 2.425781,191.33594 -5.007812,113.32422 37.617188,59.289062 c 1.710937,-2.167968 1.339843,-5.3125 -0.828126,-7.023437 -2.167968,-1.710937 -5.3125,-1.339844 -7.023437,0.828125 C 10.378906,77.515625 -0.117188,107.8125 0,138.99609 c 0,76.62891 62.121094,138.7461 138.74609,138.75 76.62891,0 138.75,-62.11718 138.75,-138.74609 C 277.5,62.371094 215.38281,0.25 138.75391,0.25 Z m 0,0"
       id="path145" />
    <path
       style="fill:#f7941d;fill-opacity:1"
       d="m 220.51172,207.07031 c 2.20312,1.66406 5.33984,1.23047 7.00781,-0.96875 C 263.13672,159.01562 255.80078,92.316406 210.80859,54.097656 165.8125,15.875 98.804688,19.425781 58.101562,62.1875 17.398438,104.94922 17.152344,172.04687 57.542969,215.10547 c 40.390625,43.05859 107.371091,47.09765 152.640621,9.20703 1.41407,-1.13281 2.10547,-2.94141 1.80469,-4.73047 -0.30078,-1.78516 -1.54297,-3.26953 -3.25,-3.87891 -1.70703,-0.60937 -3.60937,-0.24609 -4.97266,0.94532 -36.40234,30.48047 -89.08984,31.58203 -126.73437,2.65234 C 39.386719,190.37109 26.894531,139.17187 46.980469,96.15625 67.0625,53.136719 114.33984,29.84375 160.6875,40.128906 c 46.34766,10.289063 79.33203,51.390625 79.33203,98.867184 0.0742,22.05078 -7.12109,43.51563 -20.46484,61.07032 -1.66797,2.19921 -1.23828,5.33203 0.95703,7.0039 z m 0,0"
       id="path147" />
    <path
       style="fill:#f7941d;fill-opacity:1"
       d="m 137.32812,204.19531 c 2.76172,0 5,-2.23828 5,-5 v -9.75 H 151.25 c 15.26172,-0.0195 27.63281,-12.38672 27.65625,-27.64844 v -2.03906 c -0.0156,-9.67969 -5.08594,-18.64453 -13.37891,-23.63672 9.2461,-7.28906 12.85547,-19.63671 8.9961,-30.75781 -3.85938,-11.121092 -14.34375,-18.574218 -26.11719,-18.566405 h -6.07813 v -8 c 0,-2.761719 -2.23828,-5 -5,-5 -2.76171,0 -5,2.238281 -5,5 v 8 h -11.24999 v -8 c 0,-2.761719 -2.23829,-5 -5,-5 -2.76172,0 -5,2.238281 -5,5 v 8 h -7.47657 c -2.76172,0 -4.999998,2.238281 -4.999998,5 0,2.761719 2.238278,5 4.999998,5 h 7.47657 v 82.648435 h -7.47657 c -2.76172,0 -4.999998,2.23828 -4.999998,5 0,2.76172 2.238278,5 4.999998,5 h 7.47657 v 9.73828 c 0,2.76172 2.23828,5 5,5 2.76171,0 5,-2.23828 5,-5 v -9.73828 h 11.24999 v 9.73828 c -0.004,1.32813 0.52344,2.60547 1.46094,3.54297 0.9375,0.94141 2.21094,1.46875 3.53906,1.46875 z M 148.40625,96.804688 c 9.64453,0.144531 17.39062,8.007812 17.39062,17.652342 0,9.64844 -7.74609,17.51172 -17.39062,17.65625 H 121.07813 V 96.792969 Z M 121.07813,142.10156 H 151.25 c 9.74609,0.0117 17.64453,7.91016 17.65625,17.65625 v 2.03906 c -0.0117,9.7461 -7.91016,17.64454 -17.65625,17.65625 h -30.17187 z m 0,0"
       id="path149" />
  </g>
</svg>
