<svg xmlns="http://www.w3.org/2000/svg" width="32" height="26" viewBox="0 0 32 26"><g><g><g><path fill="#fff" d="M27.22 6.952a1.125 1.125 0 1 0 0 2.251 1.125 1.125 0 0 0 0-2.25zm-4.865 7.25a6.528 6.528 0 0 1-6.52 6.52 6.529 6.529 0 0 1-6.523-6.52 6.53 6.53 0 0 1 6.523-6.523 6.529 6.529 0 0 1 6.52 6.522zm1.22 0c0-4.269-3.472-7.742-7.74-7.742-4.27 0-7.743 3.473-7.743 7.742 0 4.268 3.474 7.74 7.743 7.74 4.268 0 7.74-3.472 7.74-7.74zM9.537 4.688l.705-2.381a.606.606 0 0 1 .595-.478h9.993c.283 0 .533.2.594.477l.668 2.382h5.916a2.442 2.442 0 0 1 2.44 2.44V21.97a2.442 2.442 0 0 1-2.44 2.44H3.66a2.442 2.442 0 0 1-2.44-2.44V7.128a2.442 2.442 0 0 1 2.44-2.44zm18.47 20.942a3.665 3.665 0 0 0 3.661-3.66V7.128a3.664 3.664 0 0 0-3.66-3.66h-4.992l-.396-1.41-.012-.05A1.84 1.84 0 0 0 20.831.61h-9.994c-.863 0-1.597.59-1.774 1.392l-.435 1.467H3.66A3.664 3.664 0 0 0 0 7.128V21.97a3.664 3.664 0 0 0 3.66 3.66h24.348z"/></g></g></g></svg>