<svg xmlns="http://www.w3.org/2000/svg" width="41" height="30" viewBox="0 0 41 30"><g><g><g><g><g><g><g><g><g><path fill="#f7941d" d="M39.62 27.405V28.5h.012v-1.095z"/></g><g><path fill="#f7941d" d="M39.632 27.405V28.5h-3.866c.02-.192.052-.381.097-.564.044-.182.1-.359.164-.531h-.957a5.167 5.167 0 0 0-.22 1.188H5.862a5.173 5.173 0 0 0-.22-1.188h-.957c.064.17.118.347.164.526.043.186.077.377.097.569H1.08v-1.095H.173V29.5h40.355v-2.095z"/></g></g></g></g></g></g></g><g><g><g><path fill="#f7941d" d="M39.632 25.312v1.096h-3.866c.02-.194.052-.382.097-.566.044-.18.098-.358.164-.53h-.957a5.126 5.126 0 0 0-.22 1.187H5.862a5.132 5.132 0 0 0-.22-1.187h-.957a5.1 5.1 0 0 1 .164.526c.043.186.077.374.097.57H1.08v-1.096H.173v2.093h40.355v-2.093z"/></g><g><g><g><g><g><path fill="#f7941d" d="M39.621 25.312v1.096h.011v-1.096z"/></g></g></g></g></g></g></g><g><path fill="#f7941d" d="M39.632 23.216v1.096h-3.866c.02-.191.052-.377.095-.56v-.002c.046-.183.102-.362.166-.534h-.957c-.118.381-.193.778-.22 1.189H5.865a5.168 5.168 0 0 0-.22-1.189h-.96a4.42 4.42 0 0 1 .261 1.096H1.08v-1.096H.173v2.095h40.355v-2.095z"/></g><g><g><g><path fill="#f7941d" d="M39.632 21.123v1.095h-3.866c.02-.193.052-.381.097-.565.044-.181.1-.358.164-.53h-.957a5.113 5.113 0 0 0-.22 1.186H5.865a5.119 5.119 0 0 0-.22-1.186h-.96c.064.17.118.347.164.526.043.186.077.376.097.569H1.08v-1.095H.173v2.093h40.355v-2.093z"/></g><g><g><g><g><g><path fill="#f7941d" d="M39.621 21.123v1.095h.011v-1.095z"/></g></g></g></g></g></g></g><g><g><path fill="#f7941d" d="M35.766 20.125a4.371 4.371 0 0 1 2.907-3.656c.302-.103.62-.174.948-.208v3.864zm-29.901.09A5.24 5.24 0 0 0 3.185 16a5.129 5.129 0 0 0-2.104-.648V6.174a5.165 5.165 0 0 0 1.992-.588A5.2 5.2 0 0 0 4.85 4.062c.136-.182.258-.373.367-.57a5.139 5.139 0 0 0 .642-2.093h28.999a5.143 5.143 0 0 0 .641 2.093c.11.197.23.386.365.565a5.298 5.298 0 0 0 1.776 1.53c.601.32 1.272.524 1.982.585v9.18c-.324.027-.64.084-.943.17-.404.111-.79.272-1.148.477a5.24 5.24 0 0 0-2.68 4.217zm-4.785-.09V16.26c.333.034.653.107.96.21a4.364 4.364 0 0 1 2.906 3.656zm0-18.726h3.866a4.239 4.239 0 0 1-.3 1.186A4.368 4.368 0 0 1 2.842 4.68a4.343 4.343 0 0 1-1.761.586zm38.54 0v3.865a4.346 4.346 0 0 1-1.75-.584 4.352 4.352 0 0 1-1.297-1.188 4.108 4.108 0 0 1-.508-.907 4.24 4.24 0 0 1-.3-1.186zm.92 4.796V.492H.172v20.631h40.355v-.09h.011V15.33h-.011V6.195z"/></g><g><g><path fill="#f7941d" d="M25.63 10.962a4.803 4.803 0 0 1-.1.894c0 .005-.003.009-.003.013a5.316 5.316 0 0 1-.428 1.254 5.273 5.273 0 0 1-.857 1.252 5.228 5.228 0 0 1-1.975 1.354 4.907 4.907 0 0 1-.86.254c-.12.025-.242.045-.367.061-.075.01-.152.018-.23.025a.87.87 0 0 1-.106.007 4.76 4.76 0 0 1-.603.006 4.88 4.88 0 0 1-.882-.115 5.44 5.44 0 0 1-1.197-.42 5.3 5.3 0 0 1-1.914-1.598 5.273 5.273 0 0 1-.932-2.08c0-.004-.003-.008-.003-.013a4.802 4.802 0 0 1-.1-.894c-.004-.052-.004-.102-.004-.154a5.193 5.193 0 0 1 .197-1.43 5.174 5.174 0 0 1 .832-1.696c.245-.337.531-.64.849-.908a5.242 5.242 0 0 1 3.403-1.247 5.25 5.25 0 0 1 3.406 1.248c.318.266.604.57.848.906a5.183 5.183 0 0 1 .928 2.093c.068.335.102.68.102 1.034 0 .052 0 .102-.005.154zm.823-1.188a5.736 5.736 0 0 0-.225-.907 5.83 5.83 0 0 0-.54-1.186 6.066 6.066 0 0 0-.648-.907 6.097 6.097 0 0 0-1.374-1.186 6.092 6.092 0 0 0-2.447-.907 6.063 6.063 0 0 0-1.737 0 6.07 6.07 0 0 0-2.445.907c-.514.324-.98.726-1.374 1.186a6.08 6.08 0 0 0-.648.907 5.828 5.828 0 0 0-.54 1.186 5.75 5.75 0 0 0-.225.907 5.978 5.978 0 0 0-.083 1.188 5.52 5.52 0 0 0 .088.907c.059.356.152.701.272 1.032a5.925 5.925 0 0 0 .612 1.238 6.604 6.604 0 0 0 .465.635c.064.077.13.15.195.222.204.223.426.431.662.62.19.156.39.298.6.428.303.195.625.36.96.494.214.091.434.166.66.227.02.01.041.014.064.018a.473.473 0 0 0 .077.023l.018.002c.406.104.828.166 1.26.181a4.757 4.757 0 0 0 .603-.004 5.624 5.624 0 0 0 .864-.111c.112-.02.221-.046.33-.073a6.19 6.19 0 0 0 .782-.263c.338-.133.66-.301.964-.494a5.58 5.58 0 0 0 .599-.429c.235-.188.455-.396.662-.619a6.602 6.602 0 0 0 .778-1.047c.197-.33.362-.681.494-1.048.12-.331.213-.676.272-1.032.002-.004.002-.008.002-.013.052-.29.082-.59.087-.894.004-.05.004-.102.004-.154 0-.352-.03-.699-.088-1.034z"/></g><g><path fill="#f7941d" d="M22.398 11.869a1.313 1.313 0 0 0-.478-.726c-.03-.02-.06-.043-.089-.06a1.274 1.274 0 0 0-.193-.12c-.317-.178-.707-.305-1.14-.443-.377-.125-.699-.236-.93-.388a.81.81 0 0 1-.32-.358.697.697 0 0 1-.052-.273c0-.28.125-.496.338-.635l.007-.004c.184-.12.435-.184.726-.184.253 0 .555.061.857.18.004 0 .009 0 .011.002.005.002.01.002.014.006.222.084.44.203.64.346l.156-.196.122-.15.175-.214c-.402-.314-.991-.561-1.538-.659v-1.18h-.603v1.142c-.791.036-1.331.39-1.57.911a1.27 1.27 0 0 0-.09.246 1.636 1.636 0 0 0-.04.662 1.232 1.232 0 0 0 .405.789 2.236 2.236 0 0 0 .699.415c.188.081.39.152.596.22l.17.054c.157.05.3.095.433.145.35.128.612.265.764.472a.459.459 0 0 1 .048.068c.07.12.109.265.109.44 0 .031-.002.063-.005.095a.755.755 0 0 1-.215.467.595.595 0 0 1-.14.12 1.258 1.258 0 0 1-.56.2 1.563 1.563 0 0 1-.239.016c-.12 0-.242-.012-.365-.034a2.315 2.315 0 0 1-.608-.188 2.67 2.67 0 0 1-.66-.427c-.038-.032-.072-.065-.108-.1l-.02.026-.452.54a2.717 2.717 0 0 0 .222.194 3.116 3.116 0 0 0 1.626.69v1.104h.603v-1.095c.105-.01.204-.02.3-.04.127-.024.247-.056.358-.099a1.645 1.645 0 0 0 .803-.58 1.58 1.58 0 0 0 .285-.94c0-.029 0-.056-.002-.083a1.846 1.846 0 0 0-.05-.374z"/></g></g></g></g></g></svg>