<svg xmlns="http://www.w3.org/2000/svg" width="68" height="44" viewBox="0 0 68 44"><g><g><g><g><g><g><g><path fill="#f7941d" d="M35.655 15.261a6.585 6.585 0 0 1 6.578 6.578 6.585 6.585 0 0 1-6.578 6.578 6.586 6.586 0 0 1-6.578-6.578 6.586 6.586 0 0 1 6.578-6.578zm7.707 6.578c0-4.25-3.457-7.707-7.707-7.707s-7.708 3.458-7.708 7.707c0 4.25 3.458 7.708 7.708 7.708s7.707-3.458 7.707-7.708z"/></g></g></g></g></g><g><g><g><g><g><g><path fill="#f7941d" d="M66.87 33.648c0 4.775-3.885 8.66-8.66 8.66-4.776 0-8.662-3.885-8.662-8.66 0-4.776 3.886-8.661 8.661-8.661 4.776 0 8.661 3.885 8.661 8.661zm1.13 0c0-5.399-4.392-9.791-9.79-9.791-5.4 0-9.791 4.392-9.791 9.791 0 5.398 4.392 9.79 9.79 9.79 5.399 0 9.791-4.392 9.791-9.79z"/></g></g></g></g></g><g><path fill="#f7941d" d="M61.294 36.687a3.92 3.92 0 0 1-2.469.876 3.919 3.919 0 0 1-3.875-3.386h5.077v-1.06H54.95a3.918 3.918 0 0 1 3.875-3.385c.765 0 1.505.22 2.141.637l.58-.888a4.953 4.953 0 0 0-2.72-.809 4.981 4.981 0 0 0-4.947 4.445H52.52v1.06h1.36a4.981 4.981 0 0 0 4.945 4.446c1.14 0 2.255-.395 3.138-1.113z"/></g></g><g><path fill="#f7941d" d="M55.832 12.687a5.33 5.33 0 0 1-.543-.958 5.293 5.293 0 0 1-.429-1.61h4.801v4.813a5.403 5.403 0 0 1-3.83-2.245zM51.435 8.99a5.312 5.312 0 0 1-.562-.67 5.21 5.21 0 0 1-.543-.957 5.307 5.307 0 0 1-.43-1.607h4.802V8.99zm-39.983 0a6.427 6.427 0 0 0 1.198-3.234h36.118c.006.088.015.173.029.258a6.428 6.428 0 0 0 .946 2.643c.068.113.144.226.223.333zm.21 5.945V10.12h4.815a5.416 5.416 0 0 1-4.816 4.815zm.96 13.88c.324.097.638.224.934.376.562.288 1.07.673 1.494 1.13a5.4 5.4 0 0 1 1.427 3.12H11.66v-4.814c.33.033.65.099.96.189zm-2.09.26h-3.83V24.26a5.348 5.348 0 0 1 1.892.565 5.372 5.372 0 0 1 1.938 1.667zM6.702 10.57V5.756h4.815a5.418 5.418 0 0 1-4.815 4.813zm3.83 14.234a6.529 6.529 0 0 0-3.83-1.675V11.704a6.512 6.512 0 0 0 3.83-1.675zM7.69 1.39h36.118c.102 1.2.531 2.31 1.2 3.236H6.493a6.47 6.47 0 0 0 1.198-3.236zM5.572 20.437a6.518 6.518 0 0 0-3.83-1.675V7.338a6.515 6.515 0 0 0 3.83-1.674zm0 4.273h-3.83v-4.815a5.413 5.413 0 0 1 3.83 2.23zM1.742 1.39h4.816a5.418 5.418 0 0 1-4.815 4.813zm48 0v3.237h-3.264a5.406 5.406 0 0 1-1.536-3.236zm6.104 7.6V4.627h-4.96V.26H.614v25.695h4.96v4.366h4.959v4.366h37.951a9.764 9.764 0 0 1-.056-1.042v-.087h-30.81a6.454 6.454 0 0 0-1.123-3.237 6.456 6.456 0 0 0-.98-1.13 6.495 6.495 0 0 0-3.853-1.697V16.07a6.543 6.543 0 0 0 5.948-5.95h36.119c.005.088.014.175.028.26.05.423.147.836.276 1.228.167.503.393.977.67 1.415.313.503.695.96 1.13 1.358 1.03.941 2.36 1.56 3.83 1.687v7.896c.383.057.762.135 1.129.237V8.99z"/></g><g><path fill="#f7941d" d="M39.234 18.776l-.593-.628-2.99 2.822-2.99-2.822-.593.628 2.42 2.285H32.33v.864h2.89V23.1h-2.89v.864h2.89v1.765h.864v-1.765h3.075v-.864h-3.075v-1.176h3.075v-.864h-2.344z"/></g></g></g></svg>