<svg xmlns="http://www.w3.org/2000/svg" width="34" height="25" viewBox="0 0 34 25"><g><g><g><g><g><g><g><g><g><path fill="#fff" d="M32.783 22.774v.902h.01v-.902z"/></g><g><path fill="#fff" d="M32.792 22.774v.902h-3.184c.017-.158.043-.314.08-.465.036-.149.083-.295.135-.437h-.788c-.097.314-.159.641-.181.978H4.979a4.264 4.264 0 0 0-.18-.978H4.01c.052.14.097.286.135.434.035.152.063.31.08.468H1.041v-.902H.294V24.5H33.53v-1.726z"/></g></g></g></g></g></g></g><g><g><g><path fill="#fff" d="M32.792 21.05v.903h-3.184a3.487 3.487 0 0 1 .215-.902h-.788c-.097.312-.159.639-.181.977H4.979a4.23 4.23 0 0 0-.18-.977H4.01c.052.14.097.286.135.433.035.154.063.308.08.47H1.041v-.903H.294v1.723H33.53v-1.723z"/></g><g><g><g><g><g><path fill="#fff" d="M32.783 21.05v.903h.01v-.902z"/></g></g></g></g></g></g></g><g><path fill="#fff" d="M32.792 19.325v.902h-3.184c.017-.157.043-.31.079-.462v-.001c.037-.15.084-.298.136-.439h-.788c-.097.313-.159.64-.181.979H4.98a4.252 4.252 0 0 0-.18-.979h-.79a3.59 3.59 0 0 1 .214.902H1.041v-.902H.294v1.725H33.53v-1.725z"/></g><g><g><g><path fill="#fff" d="M32.792 17.601v.901h-3.184a3.495 3.495 0 0 1 .215-.9h-.788a4.212 4.212 0 0 0-.181.975H4.98a4.211 4.211 0 0 0-.18-.976h-.79c.051.14.096.285.134.433.035.153.063.31.08.468H1.041v-.9H.294v1.723H33.53V17.6z"/></g><g><g><g><g><g><path fill="#fff" d="M32.783 17.601v.901h.01v-.9z"/></g></g></g></g></g></g></g><g><g><path fill="#fff" d="M29.608 16.78a3.598 3.598 0 0 1 2.394-3.01c.249-.087.51-.145.781-.173v3.182zm-24.627.074a4.318 4.318 0 0 0-2.207-3.474 4.119 4.119 0 0 0-.947-.393 4.343 4.343 0 0 0-.786-.141V5.289a4.252 4.252 0 0 0 1.641-.483 4.301 4.301 0 0 0 1.765-1.727 4.241 4.241 0 0 0 .529-1.723h23.883a4.241 4.241 0 0 0 .529 1.723c.09.163.188.318.3.466.133.183.282.355.443.514.3.295.644.548 1.02.747a4.232 4.232 0 0 0 1.632.481v7.56a4.16 4.16 0 0 0-.777.14c-.332.092-.65.225-.945.393a4.319 4.319 0 0 0-2.207 3.474zm-3.94-.075v-3.184c.274.028.538.088.79.174a3.592 3.592 0 0 1 2.394 3.01zm0-15.423h3.184a3.49 3.49 0 0 1-.247.977 3.599 3.599 0 0 1-1.487 1.726 3.588 3.588 0 0 1-1.45.482zm31.742 0V4.54a3.583 3.583 0 0 1-1.442-.48 3.585 3.585 0 0 1-1.068-.98 3.36 3.36 0 0 1-.418-.746 3.495 3.495 0 0 1-.247-.977zm.756 3.95V.61H.294v16.992H33.53v-.075h.01V12.83h-.01V5.307z"/></g><g><g><path fill="#fff" d="M21.26 9.232a3.965 3.965 0 0 1-.082.736l-.002.011a4.39 4.39 0 0 1-.353 1.032 4.354 4.354 0 0 1-1.263 1.543 4.292 4.292 0 0 1-1.07.604 4.269 4.269 0 0 1-1.784.291 4.063 4.063 0 0 1-.727-.095 4.096 4.096 0 0 1-.683-.21 4.218 4.218 0 0 1-1.03-.59 4.342 4.342 0 0 1-.557-.511A4.353 4.353 0 0 1 12.65 9.98l-.002-.012a3.957 3.957 0 0 1-.082-.736c-.004-.043-.004-.084-.004-.127a4.278 4.278 0 0 1 .305-1.598c.138-.35.32-.68.543-.977.202-.277.437-.527.699-.747a4.322 4.322 0 0 1 3.464-.978c.809.124 1.546.471 2.144.978.262.22.497.47.699.747a4.266 4.266 0 0 1 .763 1.724c.057.276.085.56.085.851 0 .043 0 .084-.004.127zm.678-.978a4.712 4.712 0 0 0-.185-.747 4.788 4.788 0 0 0-.445-.977 4.948 4.948 0 0 0-.534-.747 5.034 5.034 0 0 0-1.132-.978 5.026 5.026 0 0 0-2.73-.796 4.94 4.94 0 0 0-.715.05 5.007 5.007 0 0 0-2.014.746 5.035 5.035 0 0 0-1.666 1.725 4.792 4.792 0 0 0-.444.977c-.08.24-.144.49-.185.747a4.914 4.914 0 0 0-.07.978 4.553 4.553 0 0 0 .074.747c.048.293.125.577.224.85a4.887 4.887 0 0 0 .609 1.177c.087.127.18.248.278.366a4.731 4.731 0 0 0 .706.692c.157.13.321.246.493.354.25.16.515.297.792.407a4.264 4.264 0 0 0 .596.202.358.358 0 0 0 .063.018l.015.002c.334.086.682.136 1.038.149a4.145 4.145 0 0 0 .497-.003l.234-.016c.16-.018.32-.042.478-.076.091-.016.18-.038.27-.06a4.79 4.79 0 0 0 .645-.216c.278-.11.543-.25.794-.407.172-.108.336-.224.493-.354.194-.154.375-.326.545-.51.054-.06.108-.119.16-.182a5.572 5.572 0 0 0 .48-.68 4.89 4.89 0 0 0 .408-.863c.099-.273.175-.557.224-.85.002-.004.002-.007.002-.01.043-.24.067-.486.07-.737.005-.04.005-.084.005-.127 0-.29-.025-.575-.073-.851z"/></g><g><path fill="#fff" d="M18.598 9.98a1.08 1.08 0 0 0-.394-.598c-.024-.017-.048-.036-.073-.05a1.04 1.04 0 0 0-.158-.1c-.262-.146-.583-.25-.94-.364-.31-.103-.575-.194-.765-.32a.669.669 0 0 1-.264-.294.576.576 0 0 1-.043-.225c0-.23.103-.409.279-.523.001-.001.003-.003.005-.003.151-.1.359-.152.598-.152a1.99 1.99 0 0 1 .715.15c.004.002.008.002.011.005.183.07.363.167.527.285l.129-.162.1-.123.145-.177c-.331-.258-.817-.461-1.267-.542v-.972h-.497v.941c-.651.03-1.096.32-1.292.75a1.35 1.35 0 0 0-.108.748 1.015 1.015 0 0 0 .334.65 1.838 1.838 0 0 0 .575.341c.155.067.321.125.491.181l.14.045c.13.041.247.079.357.12.288.105.504.218.63.388a.356.356 0 0 1 .039.056c.058.1.09.219.09.363 0 .026-.002.051-.004.078a.621.621 0 0 1-.178.385.488.488 0 0 1-.115.099c-.01.009-.021.014-.032.02a1.036 1.036 0 0 1-.43.144 1.666 1.666 0 0 1-.497-.015 1.892 1.892 0 0 1-.5-.155 2.2 2.2 0 0 1-.544-.351c-.031-.026-.06-.054-.09-.082l-.016.02-.372.445a2.179 2.179 0 0 0 .183.16 2.569 2.569 0 0 0 1.34.569v.909h.496v-.903c.086-.006.168-.016.247-.033.104-.019.203-.045.295-.08a1.354 1.354 0 0 0 .661-.479c.153-.212.235-.476.235-.773 0-.024 0-.046-.002-.069a1.523 1.523 0 0 0-.04-.308z"/></g></g></g></g></g></svg>