<svg xmlns="http://www.w3.org/2000/svg" xmlns:xlink="http://www.w3.org/1999/xlink" width="26" height="26" viewBox="0 0 26 26"><defs><path id="gxmca" d="M420.883 921.623a3.282 3.282 0 0 0-3.278 3.278v17.533a3.281 3.281 0 0 0 3.278 3.277h18.165a3.281 3.281 0 0 0 3.279-3.277v-17.533a3.282 3.282 0 0 0-3.279-3.278zm18.165 24.762h-18.165a3.956 3.956 0 0 1-3.951-3.95V924.9a3.956 3.956 0 0 1 3.951-3.951h18.165A3.956 3.956 0 0 1 443 924.9v17.534a3.956 3.956 0 0 1-3.952 3.951z"/><path id="gxmcb" d="M438.541 942.436h-17.413v-17.345h17.413v3.467h-.673v-2.794H421.8v16h16.067v-2.903h.673z"/><path id="gxmcc" d="M437.545 938.525h1.319v-3.366h-1.319zm1.992.674h-2.665v-4.713h2.665z"/><path id="gxmcd" d="M437.545 932.26h1.319v-3.365h-1.319zm1.992.674h-2.665v-4.712h2.665z"/><path id="gxmce" d="M429.689 930.507a3.357 3.357 0 0 0-3.353 3.353 3.357 3.357 0 0 0 3.353 3.352 3.357 3.357 0 0 0 3.353-3.352 3.357 3.357 0 0 0-3.353-3.353zm0 7.38a4.03 4.03 0 0 1-4.026-4.027 4.031 4.031 0 0 1 4.026-4.027 4.031 4.031 0 0 1 4.026 4.027 4.03 4.03 0 0 1-4.026 4.026z"/><path id="gxmcf" d="M429.689 932.347c-.834 0-1.513.678-1.513 1.512 0 .835.679 1.514 1.513 1.514.834 0 1.513-.679 1.513-1.514 0-.834-.679-1.512-1.513-1.512zm0 3.699a2.189 2.189 0 0 1-2.186-2.187c0-1.205.98-2.186 2.186-2.186 1.205 0 2.186.98 2.186 2.186s-.98 2.187-2.186 2.187z"/><path id="gxmcg" d="M429.352 937.55v-1.84h.674v1.84z"/><path id="gxmch" d="M429.352 932.01v-1.84h.674v1.84z"/><path id="gxmci" d="M431.539 934.196v-.674h1.84v.674z"/><path id="gxmcj" d="M426 934.196v-.674h1.84v.674z"/><path id="gxmck" d="M437.868 934.822v-2.224h.673v2.224z"/></defs><g><g transform="translate(-417 -921)"><g><g><g><g><g><use fill="#303392" xlink:href="#gxmca"/></g></g></g></g></g><g><g><g><g><g><use fill="#303392" xlink:href="#gxmcb"/></g></g></g></g></g><g><g><g><g><g><use fill="#303392" xlink:href="#gxmcc"/></g></g></g></g></g><g><g><g><g><g><use fill="#303392" xlink:href="#gxmcd"/></g></g></g></g></g><g><g><g><g><g><use fill="#303392" xlink:href="#gxmce"/></g></g></g></g></g><g><g><g><g><g><use fill="#303392" xlink:href="#gxmcf"/></g></g></g></g></g><g><g><g><g><g><use fill="#303392" xlink:href="#gxmcg"/></g></g></g></g></g><g><g><g><g><g><use fill="#303392" xlink:href="#gxmch"/></g></g></g></g></g><g><g><g><g><g><use fill="#303392" xlink:href="#gxmci"/></g></g></g></g></g><g><g><g><g><g><use fill="#303392" xlink:href="#gxmcj"/></g></g></g></g></g><g><g><g><g><g><use fill="#303392" xlink:href="#gxmck"/></g></g></g></g></g></g></g></svg>