<svg xmlns="http://www.w3.org/2000/svg" width="40" height="34" viewBox="0 0 40 34"><g><g><g><path fill="#f7941d" d="M39.044 20.97a1.935 1.935 0 0 1-1.933 1.933H21.033a10.116 10.116 0 0 0-16.39-7.697V3.461a1.935 1.935 0 0 1 1.932-1.933h30.536a1.934 1.934 0 0 1 1.933 1.933zM10.914 32.31a9.165 9.165 0 1 1 9.166-9.165 9.175 9.175 0 0 1-9.166 9.165zM37.111.572H6.575A2.892 2.892 0 0 0 3.686 3.46v12.606a10.116 10.116 0 0 0 7.228 17.198c5.34 0 9.728-4.158 10.096-9.406H37.11a2.892 2.892 0 0 0 2.89-2.889V3.46A2.892 2.892 0 0 0 37.11.573z"/></g><g><path fill="#f7941d" d="M31.506 20.112c-.2 0-.4-.024-.596-.07a3.573 3.573 0 0 0 0-5.108 2.623 2.623 0 1 1 .596 5.178zm-.478-2.624a2.62 2.62 0 0 1-1.072 2.114 2.62 2.62 0 0 1 0-4.228 2.621 2.621 0 0 1 1.072 2.114zm-2.623 2.624a2.623 2.623 0 1 1 .597-5.178 3.572 3.572 0 0 0 0 5.108c-.196.046-.396.07-.597.07zm3.101-6.204c-.536 0-1.067.12-1.55.354a3.58 3.58 0 1 0 0 6.452 3.58 3.58 0 1 0 1.55-6.805z"/></g><g><path fill="#f7941d" d="M7.31 5.9h12.758a.478.478 0 0 0 0-.956H7.31a.478.478 0 1 0 0 .956z"/></g><g><path fill="#f7941d" d="M23.182 4.944h-1.381a.478.478 0 0 0 0 .956h1.381a.478.478 0 0 0 0-.956z"/></g><g><path fill="#f7941d" d="M7.906 7.355H7.31a.478.478 0 1 0 0 .956h.596a.478.478 0 1 0 0-.956z"/></g><g><path fill="#f7941d" d="M17.657 7.355H9.691a.478.478 0 1 0 0 .956h7.966a.478.478 0 0 0 0-.956z"/></g><g><path fill="#f7941d" d="M23.182 7.355H19.39a.478.478 0 1 0 0 .956h3.792a.478.478 0 0 0 0-.956z"/></g><g><path fill="#f7941d" d="M14.899 22.666h-3.506V19.16a.478.478 0 1 0-.957 0v3.506H6.93a.478.478 0 0 0 0 .956h3.506v3.506a.478.478 0 1 0 .957 0v-3.506h3.506a.478.478 0 1 0 0-.956z"/></g></g></g></svg>