<svg xmlns="http://www.w3.org/2000/svg" width="101" height="96" viewBox="0 0 101 96"><g><g><g><path fill="#ffda85" d="M15.563 95.904c.994-.492 1.969-.061 5.012-1.6 1.358-.685 2.929-2.053 3.738-2.947 2.99-3.299 2.976-4.283 3.88-9.464l58.38-.08V22.973L0 22.98v55.256c0 6.682.189 11.333 6.478 15.511 3.062 2.04 5.498 2.158 9.085 2.158z"/></g><g><path fill="#6b4af1" d="M.002 22.979l86.57-.003V7.96l-36.845-.057-.063 7.709-12.61-.016-.343-7.604L0 7.96z"/></g><g><path fill="#2e2f92" d="M15.563 95.904h61.782c7.396 0 14.91 1.25 19.86-4.878 1.902-2.357 3.303-5.04 3.303-9.256l-13.936.042-58.379.08c-.904 5.182-.89 6.166-3.88 9.465-.81.894-2.38 2.262-3.738 2.948-3.043 1.538-4.018 1.107-5.012 1.6z"/></g><g><path fill="#f5f5f5" d="M36.829 15.32l12.838-.02L49.664.5H36.711z"/></g><g><path fill="#f0e3c7" d="M36.829 15.318c.331.478-.289.156.658.336l5.702.014c2.11 0 4.387.076 6.473-.057l.067-7.708c-.341.331-.223-.331-.341.828l-.038 2.957a28.562 28.562 0 0 1-.038 3.649z"/></g><g><path fill="#2f3192" d="M18.785 68.592H14.27V36.987h4.515z"/></g><g><path fill="#2f3192" d="M27.514 68.592h-4.515V49.987h4.515z"/></g><g><path fill="#2f3192" d="M54.514 68.592h-4.515V49.987h4.515z"/></g><g><path fill="#2f3192" d="M36.292 68.592h-4.515V36.987h4.515z"/></g><g><path fill="#2f3192" d="M45.07 68.592h-4.515V42.987h4.516z"/></g></g><g><g><text dominant-baseline="text-before-edge" style="font-kerning:normal" fill="#6b46f2" font-family="'Mukta','Mukta-Bold'" font-size="18" font-style="none" font-weight="700" transform="translate(67 48)"><tspan>$</tspan></text></g></g></g></svg>