<svg xmlns="http://www.w3.org/2000/svg" width="40" height="33" viewBox="0 0 40 33"><g><g><path fill="#f7941d" d="M33.34 6.699h-4.079a.68.68 0 0 1 0-1.36h4.08V1.26a.68.68 0 0 1 1.36 0v4.08h4.079a.68.68 0 0 1 0 1.36H34.7v4.08a.68.68 0 0 1-1.36 0z"/></g><g><g><g><g><path fill="#f7941d" d="M11.635 13.16v-1.05h1.049v1.05z"/></g></g></g><g><g><g><path fill="#f7941d" d="M11.635 15.257v-1.049h1.049v1.05z"/></g></g></g><g><g><g><path fill="#f7941d" d="M11.635 17.355v-1.049h1.049v1.049z"/></g></g></g><g><g><g><path fill="#f7941d" d="M11.635 19.453v-1.05h1.049v1.05z"/></g></g></g><g><g><g><path fill="#f7941d" d="M13.733 13.16v-1.05h1.049v1.05z"/></g></g></g><g><g><g><path fill="#f7941d" d="M13.733 15.257v-1.049h1.049v1.05z"/></g></g></g><g><g><g><path fill="#f7941d" d="M13.733 17.355v-1.049h1.049v1.049z"/></g></g></g><g><g><g><path fill="#f7941d" d="M13.733 19.453v-1.05h1.049v1.05z"/></g></g></g><g><g><g><path fill="#f7941d" d="M15.83 13.16v-1.05h1.05v1.05z"/></g></g></g><g><g><g><path fill="#f7941d" d="M15.83 15.257v-1.049h1.05v1.05z"/></g></g></g><g><g><g><path fill="#f7941d" d="M15.83 17.355v-1.049h1.05v1.049z"/></g></g></g><g><g><g><path fill="#f7941d" d="M15.83 19.453v-1.05h1.05v1.05z"/></g></g></g><g><g><g><path fill="#f7941d" d="M17.928 13.16v-1.05h1.05v1.05z"/></g></g></g><g><g><g><path fill="#f7941d" d="M13.733 11.062v-1.05h1.049v1.05z"/></g></g></g><g><g><g><path fill="#f7941d" d="M15.83 11.062v-1.05h1.05v1.05z"/></g></g></g><g><g><g><path fill="#f7941d" d="M17.928 11.062v-1.05h1.05v1.05z"/></g></g></g><g><g><g><path fill="#f7941d" d="M17.928 15.257v-1.049h1.05v1.05z"/></g></g></g><g><g><g><path fill="#f7941d" d="M17.928 17.355v-1.049h1.05v1.049z"/></g></g></g><g><g><g><path fill="#f7941d" d="M17.928 19.453v-1.05h1.05v1.05z"/></g></g></g><g><g><g><path fill="#f7941d" d="M20.026 13.16v-1.05h1.049v1.05z"/></g></g></g><g><g><g><path fill="#f7941d" d="M20.026 15.257v-1.049h1.049v1.05z"/></g></g></g><g><g><g><path fill="#f7941d" d="M20.026 17.355v-1.049h1.049v1.049z"/></g></g></g><g><g><g><path fill="#f7941d" d="M20.026 19.453v-1.05h1.049v1.05z"/></g></g></g><g><g><g><path fill="#f7941d" d="M31.04 28.368h-.951a3.167 3.167 0 0 0-1.203-1.182 2.098 2.098 0 1 0-3.035 0 3.16 3.16 0 0 0-.66.489 3.155 3.155 0 0 0-1.55-2.062 2.07 2.07 0 0 0 .056-2.814V10.537h7.342v17.831zm-4.72-2.622a1.049 1.049 0 1 1 2.097 0 1.049 1.049 0 0 1-2.098 0zm3.146 6.293H25.27v-2.098a2.098 2.098 0 0 1 4.196 0zm-5.244 0h-4.196v-3.671a2.098 2.098 0 0 1 4.196 0zm-4.673-5.474a3.694 3.694 0 0 0-1.505-1.453 2.622 2.622 0 1 0-3.378 0 3.694 3.694 0 0 0-1.505 1.453 3.168 3.168 0 0 0-1.057-.952 2.083 2.083 0 0 0-2.042-3.464V2.671h12.586v19.478a2.074 2.074 0 0 0-.524-.074 2.092 2.092 0 0 0-1.518 3.538c-.42.233-.781.559-1.057.952zm-4.767-3.441a1.573 1.573 0 1 1 3.146 0 1.573 1.573 0 0 1-3.146 0zm4.195 8.915h-5.244v-3.671a2.622 2.622 0 0 1 5.244 0zm-6.293 0H8.489v-3.671a2.098 2.098 0 0 1 4.195 0zm-5.165-4.364a3.161 3.161 0 0 0-.66-.489 2.098 2.098 0 1 0-3.034 0c-.501.278-.917.687-1.204 1.182h-.95v-17.83h7.342V22.8a2.07 2.07 0 0 0 .056 2.813 3.156 3.156 0 0 0-1.55 2.062zm-3.226-1.93a1.049 1.049 0 1 1 2.098 0 1.049 1.049 0 0 1-2.098 0zM7.44 32.04H3.244v-2.098a2.098 2.098 0 0 1 4.196 0zm3.146-8.915a1.049 1.049 0 1 1 0 2.097 1.049 1.049 0 0 1 0-2.097zm12.587 1.049a1.049 1.049 0 1 1-2.098 0 1.049 1.049 0 0 1 2.098 0zm8.39-14.685h-7.866V2.146a.524.524 0 0 0-.524-.524H9.537a.524.524 0 0 0-.524.524v7.342H1.146a.524.524 0 0 0-.524.524v18.88c0 .29.234.525.524.525h1.097c-.03.173-.047.348-.048.524v2.622c0 .29.235.525.524.525H29.99c.29 0 .525-.234.525-.524V29.94a3.133 3.133 0 0 0-.048-.524h1.097c.29 0 .524-.235.524-.524v-18.88a.524.524 0 0 0-.524-.525z"/></g></g></g><g><g><g><path fill="#f7941d" d="M25.27 22.075v-8.391h1.05v8.39z"/></g></g></g><g><g><g><path fill="#f7941d" d="M28.417 22.075v-8.391h1.049v8.39z"/></g></g></g><g><g><g><path fill="#f7941d" d="M3.244 22.075v-8.391h1.05v8.39z"/></g></g></g><g><g><g><path fill="#f7941d" d="M6.39 22.075v-8.391h1.05v8.39z"/></g></g></g><g><g><g><path fill="#f7941d" d="M18.977 7.915h-5.244V4.77h5.244zm.525-4.195h-6.294a.524.524 0 0 0-.524.524V8.44c0 .289.234.524.524.524h6.294c.29 0 .524-.234.524-.524V4.244a.524.524 0 0 0-.524-.524z"/></g></g></g></g></g></svg>