<?xml version="1.0" encoding="UTF-8" standalone="no"?>
<svg
   xmlns:dc="http://purl.org/dc/elements/1.1/"
   xmlns:cc="http://creativecommons.org/ns#"
   xmlns:rdf="http://www.w3.org/1999/02/22-rdf-syntax-ns#"
   xmlns:svg="http://www.w3.org/2000/svg"
   xmlns="http://www.w3.org/2000/svg"
   xmlns:sodipodi="http://sodipodi.sourceforge.net/DTD/sodipodi-0.dtd"
   xmlns:inkscape="http://www.inkscape.org/namespaces/inkscape"
   width="42"
   height="39"
   viewBox="0 0 42 39"
   version="1.1"
   id="svg102"
   sodipodi:docname="competition-secondary.svg"
   inkscape:version="0.92.4 5da689c313, 2019-01-14">
  <metadata
     id="metadata108">
    <rdf:RDF>
      <cc:Work
         rdf:about="">
        <dc:format>image/svg+xml</dc:format>
        <dc:type
           rdf:resource="http://purl.org/dc/dcmitype/StillImage" />
        <dc:title></dc:title>
      </cc:Work>
    </rdf:RDF>
  </metadata>
  <defs
     id="defs106" />
  <sodipodi:namedview
     pagecolor="#ffffff"
     bordercolor="#666666"
     borderopacity="1"
     objecttolerance="10"
     gridtolerance="10"
     guidetolerance="10"
     inkscape:pageopacity="0"
     inkscape:pageshadow="2"
     inkscape:window-width="1366"
     inkscape:window-height="697"
     id="namedview104"
     showgrid="false"
     inkscape:zoom="4.2789026"
     inkscape:cx="16.050722"
     inkscape:cy="19.74818"
     inkscape:window-x="0"
     inkscape:window-y="29"
     inkscape:window-maximized="1"
     inkscape:current-layer="svg102" />
  <g
     id="g1039"
     transform="matrix(0.07536718,0,0,0.07536718,1.7060019,0.20596424)"
     style="fill:#f7941d;fill-opacity:1">
    <g
       id="g919"
       style="fill:#f7941d;fill-opacity:1">
	<g
   id="g917"
   style="fill:#f7941d;fill-opacity:1">
		<path
   id="path915"
   d="m 511.982,97.701 c -0.51,-43.455 -22.748,-67.388 -62.619,-67.388 -15.432,0 -30.302,3.592 -40.023,6.589 0.968,-17.762 0.983,-28.726 0.983,-29.271 l 0.001,-7.604 H 101.683 V 7.63 c 0,0.26 0.026,11.397 1.005,29.281 -9.72,-2.999 -24.604,-6.598 -40.051,-6.598 -39.87,0 -62.109,23.932 -62.619,67.388 -0.502,42.75 9.248,80.804 28.977,113.107 19.37,31.715 44.128,50.826 61.487,61.271 27.803,16.732 55.59,20.244 74.006,20.244 4.54,0 8.914,-0.214 13.005,-0.636 0.271,-0.028 0.522,-0.06 0.787,-0.089 8.904,9.589 18.503,17.27 28.76,22.978 7.561,4.207 12.82,11.544 14.622,19.977 -10.195,3.173 -17.618,12.698 -17.618,23.923 0,11.477 7.763,21.17 18.31,24.12 v 31.91 h -41.142 v 33.301 h -40.6 v 64.167 h 230.781 v -64.167 h -40.6 v -33.301 h -41.142 v -31.91 c 10.548,-2.951 18.311,-12.643 18.311,-24.12 0,-11.226 -7.423,-20.75 -17.618,-23.923 1.802,-8.433 7.06,-15.769 14.622,-19.977 10.232,-5.693 19.897,-13.416 28.779,-22.974 3.147,0.349 7.866,0.72 13.766,0.72 0.002,0 10e-4,0 0.004,0 18.414,0 46.2,-3.514 74.001,-20.244 17.358,-10.446 42.117,-29.556 61.487,-61.271 19.732,-32.302 29.481,-70.357 28.979,-113.106 z M 394.992,15.233 c -0.068,2.781 -0.176,6.277 -0.342,10.369 H 117.387 C 117.215,21.511 117.1,18.01 117.026,15.233 Z m 10.342,69.813 c 10.302,-3.429 23.654,-6.887 35.615,-6.887 10.029,0 17.25,2.45 21.463,7.282 4.842,5.554 6.403,14.884 4.637,27.734 -7.353,53.526 -30.562,95.308 -65.354,117.647 -12.119,7.782 -25.171,10.997 -36.109,12.139 23.137,-48.631 34.335,-109.647 39.748,-157.915 z m -290.839,52.963 c 7.479,40.115 17.805,74.563 30.693,102.386 0.399,0.864 0.805,1.715 1.209,2.566 -10.934,-1.145 -23.978,-4.359 -36.092,-12.137 -34.791,-22.34 -58.001,-64.121 -65.354,-117.647 -1.765,-12.851 -0.205,-22.182 4.638,-27.734 4.213,-4.832 11.435,-7.281 21.463,-7.281 11.971,0 25.335,3.463 35.641,6.894 1.841,16.462 4.358,34.481 7.802,52.953 z m 49.993,139.108 c -16.488,0 -41.353,-3.135 -66.164,-18.066 -25.375,-15.27 -84.27,-61.544 -83.1,-161.171 0.414,-35.233 15.923,-52.36 47.413,-52.36 16.841,0 33.474,5.077 41.077,7.755 0.379,5.101 0.804,10.217 1.274,15.312 -10.335,-3.036 -22.512,-5.634 -33.936,-5.634 -14.618,0 -25.695,4.203 -32.925,12.493 -7.859,9.013 -10.632,22.403 -8.242,39.798 4.094,29.801 12.65,56.141 25.431,78.287 12.201,21.142 27.938,37.994 46.772,50.086 18.396,11.813 38.293,14.792 52.486,15.077 0.048,0.084 0.097,0.164 0.145,0.247 0.778,1.363 1.564,2.703 2.358,4.026 0.247,0.413 0.496,0.823 0.745,1.232 0.757,1.244 1.52,2.476 2.291,3.683 0.29,0.454 0.584,0.897 0.876,1.347 0.525,0.807 1.053,1.607 1.585,2.398 0.514,0.765 1.03,1.522 1.549,2.271 0.509,0.733 1.019,1.462 1.533,2.181 0.241,0.338 0.478,0.689 0.719,1.023 -0.612,0.01 -1.241,0.015 -1.887,0.015 z m 191.7,185.898 v 33.753 H 155.82 v -33.753 h 25.393 149.581 z m -66.535,-33.301 h 25.934 v 18.094 H 196.42 v -18.094 h 25.935 z m -52.092,-15.207 v -30.982 h 36.885 v 30.982 z m 55.196,-56.031 c 0,5.427 -4.416,9.842 -9.842,9.842 h -53.822 c -5.427,0 -9.842,-4.415 -9.842,-9.842 0,-5.427 4.415,-9.842 9.842,-9.842 h 53.822 c 5.427,0 9.842,4.415 9.842,9.842 z m 38.034,-86.924 c -0.084,0.109 -0.168,0.218 -0.252,0.327 -0.748,0.968 -1.502,1.912 -2.26,2.843 -0.186,0.227 -0.369,0.458 -0.556,0.684 -0.833,1.012 -1.673,2.002 -2.517,2.968 -0.041,0.046 -0.079,0.094 -0.12,0.14 -8.479,9.673 -17.735,17.334 -27.512,22.774 -12.051,6.704 -20.245,18.611 -22.499,32.139 h -38.142 c -2.255,-13.529 -10.449,-25.435 -22.5,-32.139 -9.436,-5.249 -17.958,-12.266 -25.657,-20.651 l -1.86,-2.122 c -7.56,-8.622 -14.686,-19.068 -21.179,-31.045 l -1.989,-3.671 C 131.051,180.622 121.161,89.311 118.179,40.808 h 275.705 c -0.127,2.11 -0.266,4.289 -0.42,6.552 -0.007,0.105 -0.015,0.213 -0.022,0.318 -0.168,2.452 -0.348,4.911 -0.539,7.372 -0.005,0.072 -0.011,0.144 -0.016,0.217 -0.608,7.8 -1.328,15.629 -2.149,23.365 l -0.497,4.678 c -5.525,49.528 -17.194,112.625 -41.801,160.153 l -2.173,4.006 c -4.835,8.916 -10.021,16.982 -15.476,24.083 z m 82.886,-12.501 c -24.813,14.932 -49.673,18.066 -66.16,18.066 -10e-4,0 -0.003,0 -0.004,0 -0.647,0 -1.276,-0.005 -1.889,-0.015 0.01,-0.014 0.02,-0.029 0.03,-0.043 0.987,-1.362 1.959,-2.744 2.916,-4.145 0.117,-0.171 0.232,-0.346 0.349,-0.517 0.809,-1.192 1.606,-2.4 2.394,-3.62 0.203,-0.313 0.406,-0.627 0.607,-0.942 0.872,-1.369 1.735,-2.747 2.581,-4.149 0.133,-0.219 0.262,-0.444 0.394,-0.665 0.693,-1.158 1.378,-2.327 2.054,-3.507 0.158,-0.276 0.321,-0.54 0.48,-0.818 14.193,-0.285 34.09,-3.264 52.486,-15.077 18.834,-12.094 34.571,-28.946 46.772,-50.086 12.78,-22.146 21.336,-48.486 25.431,-78.287 2.388,-17.396 -0.384,-30.786 -8.242,-39.798 -7.229,-8.291 -18.307,-12.494 -32.925,-12.494 -11.423,0 -23.602,2.596 -33.936,5.633 0.479,-5.195 0.89,-10.178 1.242,-14.914 0.01,-0.132 0.021,-0.265 0.031,-0.396 7.605,-2.679 24.237,-7.755 41.077,-7.755 31.49,0 46.999,17.127 47.414,52.358 1.166,99.627 -57.727,145.9 -83.102,161.171 z"
   inkscape:connector-curvature="0"
   style="fill:#f7941d;fill-opacity:1" />

	</g>

</g>
    <g
       id="g925"
       style="fill:#f7941d;fill-opacity:1">
	<g
   id="g923"
   style="fill:#f7941d;fill-opacity:1">
		<path
   id="path921"
   d="m 192.356,246.237 -12.7,8.367 c 4.336,6.583 8.996,12.564 13.851,17.776 l 11.128,-10.366 c -4.277,-4.591 -8.408,-9.9 -12.279,-15.777 z"
   inkscape:connector-curvature="0"
   style="fill:#f7941d;fill-opacity:1" />

	</g>

</g>
    <g
       id="g931"
       style="fill:#f7941d;fill-opacity:1">
	<g
   id="g929"
   style="fill:#f7941d;fill-opacity:1">
		<path
   id="path927"
   d="m 159.716,161.922 -14.826,3.382 c 7.292,31.965 17.027,58.799 28.933,79.756 l 13.222,-7.512 c -11.172,-19.665 -20.367,-45.109 -27.329,-75.626 z"
   inkscape:connector-curvature="0"
   style="fill:#f7941d;fill-opacity:1" />

	</g>

</g>
    <g
       id="g937"
       style="fill:#f7941d;fill-opacity:1">
	<g
   id="g935"
   style="fill:#f7941d;fill-opacity:1">
		<polygon
   id="polygon933"
   points="402.774,318.33 402.784,333.537 415.621,333.528 415.63,346.364 430.837,346.354 430.828,333.517 443.666,333.509 443.655,318.302 430.818,318.31 430.809,305.473 415.602,305.483 415.611,318.321 "
   style="fill:#f7941d;fill-opacity:1" />

	</g>

</g>
    <g
       id="g943"
       style="fill:#f7941d;fill-opacity:1">
	<g
   id="g941"
   style="fill:#f7941d;fill-opacity:1">
		<polygon
   id="polygon939"
   points="76.016,397.305 76.033,412.512 86.805,412.501 86.816,423.275 102.023,423.259 102.012,412.486 112.785,412.475 112.769,397.268 101.997,397.279 101.986,386.506 86.779,386.522 86.79,397.294 "
   style="fill:#f7941d;fill-opacity:1" />

	</g>

</g>
    <g
       id="g949"
       style="fill:#f7941d;fill-opacity:1">
	<g
   id="g947"
   style="fill:#f7941d;fill-opacity:1">
		<rect
   id="rect945"
   height="15.207"
   width="14.345"
   y="288.16101"
   x="48.845001"
   style="fill:#f7941d;fill-opacity:1" />

	</g>

</g>
    <g
       id="g955"
       style="fill:#f7941d;fill-opacity:1">
	<g
   id="g953"
   style="fill:#f7941d;fill-opacity:1">
		<rect
   id="rect951"
   height="15.207"
   width="14.345"
   y="333.15302"
   x="141.039"
   style="fill:#f7941d;fill-opacity:1" />

	</g>

</g>
    <g
       id="g961"
       style="fill:#f7941d;fill-opacity:1">
	<g
   id="g959"
   style="fill:#f7941d;fill-opacity:1">
		<rect
   id="rect957"
   height="15.207"
   width="14.345"
   y="378.905"
   x="372.254"
   style="fill:#f7941d;fill-opacity:1" />

	</g>

</g>
    <g
       id="g963"
       style="fill:#f7941d;fill-opacity:1">
</g>
    <g
       id="g965"
       style="fill:#f7941d;fill-opacity:1">
</g>
    <g
       id="g967"
       style="fill:#f7941d;fill-opacity:1">
</g>
    <g
       id="g969"
       style="fill:#f7941d;fill-opacity:1">
</g>
    <g
       id="g971"
       style="fill:#f7941d;fill-opacity:1">
</g>
    <g
       id="g973"
       style="fill:#f7941d;fill-opacity:1">
</g>
    <g
       id="g975"
       style="fill:#f7941d;fill-opacity:1">
</g>
    <g
       id="g977"
       style="fill:#f7941d;fill-opacity:1">
</g>
    <g
       id="g979"
       style="fill:#f7941d;fill-opacity:1">
</g>
    <g
       id="g981"
       style="fill:#f7941d;fill-opacity:1">
</g>
    <g
       id="g983"
       style="fill:#f7941d;fill-opacity:1">
</g>
    <g
       id="g985"
       style="fill:#f7941d;fill-opacity:1">
</g>
    <g
       id="g987"
       style="fill:#f7941d;fill-opacity:1">
</g>
    <g
       id="g989"
       style="fill:#f7941d;fill-opacity:1">
</g>
    <g
       id="g991"
       style="fill:#f7941d;fill-opacity:1">
</g>
  </g>
</svg>
