<svg xmlns="http://www.w3.org/2000/svg" width="91" height="127" viewBox="0 0 91 127"><g><g><g><path fill="#0000a0" d="M85.73 11.62H4.703A3.711 3.711 0 0 0 1 15.32v106.536c0 2.089 1.708 3.801 3.8 3.801h80.93c2.092 0 3.8-1.712 3.8-3.8V15.42a3.81 3.81 0 0 0-3.8-3.8z"/><path fill="none" stroke="#36505f" stroke-miterlimit="50" stroke-width=".57" d="M85.73 11.62v0H4.703A3.711 3.711 0 0 0 1 15.32v106.536c0 2.089 1.708 3.801 3.8 3.801h80.93c2.092 0 3.8-1.712 3.8-3.8V15.42a3.81 3.81 0 0 0-3.8-3.8z"/></g><g><path fill="#fff9e8" d="M9.153 118.054V19.22h72.223v98.833z"/></g><g><path fill="#6b4ef0" d="M39.052 7.628a6.033 6.033 0 0 1 11.727 0zm14.587 0c-.684-4.203-4.33-7.413-8.723-7.413-4.394 0-8.043 3.21-8.723 7.413H27.81c-1.567 0-2.657 1.295-2.849 2.848l-1.426 11.405h42.761L64.87 10.476c-.192-1.553-1.281-2.848-2.848-2.848z"/></g><g><g><path fill="#0000a0" d="M13.05 56.968v-2.472h64.43v2.472z"/></g><g><path fill="#0000a0" d="M13.05 75.172v-2.47h64.43v2.47z"/></g><g><path fill="#0000a0" d="M13.05 82.775v-2.47h64.43v2.47z"/></g><g><path fill="#0000a0" d="M13.524 34.16v-2.471h29.65v2.47z"/></g><g><path fill="#0000a0" d="M13.524 41.762v-2.47h29.65v2.47z"/></g><g><path fill="#0000a0" d="M13.524 49.365v-2.47h29.65v2.47z"/></g><g><g><text dominant-baseline="text-before-edge" style="font-kerning:normal" fill="#6b46f2" font-family="'Mukta','Mukta-Bold'" font-size="25" font-style="none" font-weight="700" transform="translate(49 21)"><tspan>ID</tspan></text></g></g></g></g><g><g><path fill="none" stroke="#0000a0" stroke-miterlimit="50" stroke-width=".5" d="M26.477 101.381c-.011-1.645-1.023-3.243-2.504-3.958-1.482-.714-3.363-.51-4.656.506-1.339 1.05-1.962 2.785-2.176 4.472a14.416 14.416 0 0 0-.016 3.324c.115 1.093.346 2.198.906 3.143.56.946 1.494 1.718 2.582 1.869 1.619.224 3.1-.913 4.204-2.118 1.584-1.73 2.877-3.807 3.28-6.118.167-.955.152-2.022-.442-2.79-.197-.254-.47-.472-.79-.516-.234-.032-.471.032-.691.119-.874.342-1.575 1.038-2.068 1.837-.312.504-.555 1.08-.52 1.672.035.593.41 1.193.984 1.343"/></g><g><path fill="none" stroke="#0000a0" stroke-miterlimit="50" stroke-width=".5" d="M27.223 109.542c.426-.82 1.045-1.76 1.968-1.728.245.576-.205 1.183-.437 1.763-.028.07-.053.147-.034.22.055.207.366.17.547.054.843-.535 1.272-1.725 2.256-1.887a2.152 2.152 0 0 1-.375 1.665 3.259 3.259 0 0 0 1.808-1.782c-.257.296-.1.81.244.997.344.188.787.102 1.113-.116.326-.218.56-.547.778-.872.215.145.211.463.354.68.164.247.506.325.797.262.291-.063.543-.238.786-.409l1.612-1.134v0"/></g><g><path fill="none" stroke="#0000a0" stroke-miterlimit="50" stroke-width=".5" d="M19.32 112.6c8.795-1.149 17.597-2.255 26.403-3.32"/></g></g></g></svg>