<svg xmlns="http://www.w3.org/2000/svg" xmlns:xlink="http://www.w3.org/1999/xlink" width="33" height="38" viewBox="0 0 33 38"><defs><path id="7wcya" d="M332.119 208.441h-3.908a.651.651 0 0 1 0-1.302h3.908v-3.908a.651.651 0 0 1 1.302 0v3.908h3.908a.651.651 0 0 1 0 1.302h-3.908v3.908a.651.651 0 0 1-1.302 0z"/><path id="7wcyb" d="M314.83 222.299v-.936h.937v.936z"/><path id="7wcyc" d="M314.83 224.171v-.936h.937v.936z"/><path id="7wcyd" d="M314.83 226.044v-.936h.937v.936z"/><path id="7wcye" d="M314.83 227.916v-.936h.937v.936z"/><path id="7wcyf" d="M316.703 222.299v-.936h.937v.936z"/><path id="7wcyg" d="M316.703 224.171v-.936h.937v.936z"/><path id="7wcyh" d="M316.703 226.044v-.936h.937v.936z"/><path id="7wcyi" d="M316.703 227.916v-.936h.937v.936z"/><path id="7wcyj" d="M318.576 222.299v-.936h.936v.936z"/><path id="7wcyk" d="M318.576 224.171v-.936h.936v.936z"/><path id="7wcyl" d="M318.576 226.044v-.936h.936v.936z"/><path id="7wcym" d="M318.576 227.916v-.936h.936v.936z"/><path id="7wcyn" d="M320.448 222.299v-.936h.937v.936z"/><path id="7wcyo" d="M316.703 220.426v-.936h.937v.936z"/><path id="7wcyp" d="M318.576 220.426v-.936h.936v.936z"/><path id="7wcyq" d="M320.448 220.426v-.936h.937v.936z"/><path id="7wcyr" d="M320.448 224.171v-.936h.937v.936z"/><path id="7wcys" d="M320.448 226.044v-.936h.937v.936z"/><path id="7wcyt" d="M320.448 227.916v-.936h.937v.936z"/><path id="7wcyu" d="M322.32 222.299v-.936h.937v.936z"/><path id="7wcyv" d="M322.32 224.171v-.936h.937v.936z"/><path id="7wcyw" d="M322.32 226.044v-.936h.937v.936z"/><path id="7wcyx" d="M322.32 227.916v-.936h.937v.936z"/><path id="7wcyy" d="M331.303 235.875a2.827 2.827 0 0 0-1.074-1.055 1.873 1.873 0 1 0-2.709 0 2.82 2.82 0 0 0-.589.436 2.817 2.817 0 0 0-1.383-1.84c.67-.696.693-1.79.05-2.512v-10.946h6.554v15.917zm-3.365-2.34a.936.936 0 1 1 1.873-.001.936.936 0 0 1-1.873 0zm2.81 5.617h-3.746v-1.873a1.873 1.873 0 0 1 3.745 0zm-4.682-1.873v1.873h-3.745v-3.277a1.873 1.873 0 0 1 3.745 0zm-4.171-3.014a3.297 3.297 0 0 0-1.343-1.297 2.34 2.34 0 1 0-3.016 0 3.297 3.297 0 0 0-1.343 1.297 2.827 2.827 0 0 0-.944-.85 1.86 1.86 0 0 0-1.823-3.091v-17.388h11.236v17.388a1.85 1.85 0 0 0-.469-.067 1.868 1.868 0 0 0-1.354 3.159 2.827 2.827 0 0 0-.944.85zm-4.255-3.072a1.404 1.404 0 1 1 2.808 0 1.404 1.404 0 0 1-2.808 0zm3.745 7.959h-4.682v-3.277a2.34 2.34 0 0 1 4.682 0zm-5.618 0h-3.745v-3.277a1.873 1.873 0 0 1 3.745 0zm-4.61-3.896a2.822 2.822 0 0 0-.59-.436 1.873 1.873 0 1 0-2.708 0 2.827 2.827 0 0 0-1.075 1.055h-.848v-15.917h6.554v10.946a1.847 1.847 0 0 0 .05 2.512 2.817 2.817 0 0 0-1.383 1.84zm-2.88-1.722a.936.936 0 1 1 1.872 0 .936.936 0 0 1-1.872 0zm2.809 5.618h-3.745v-1.873a1.873 1.873 0 0 1 3.745 0zm2.808-7.959a.936.936 0 1 1 0 1.873.936.936 0 0 1 0-1.873zm11.236.937a.936.936 0 1 1-1.873 0 .936.936 0 0 1 1.873 0zm7.49-13.108h-7.022v-6.554a.468.468 0 0 0-.468-.468h-12.172a.468.468 0 0 0-.468.468v6.554h-7.022a.468.468 0 0 0-.468.468v16.853c0 .258.21.468.468.468h.979a2.81 2.81 0 0 0-.043.468v2.34c0 .26.21.469.468.469h24.343c.259 0 .468-.21.468-.468v-2.34c0-.158-.015-.314-.042-.469h.979c.258 0 .468-.21.468-.468V219.49a.468.468 0 0 0-.468-.468z"/><path id="7wcyz" d="M327.002 230.257v-7.49h.936v7.49z"/><path id="7wcyA" d="M329.811 230.257v-7.49h.936v7.49z"/><path id="7wcyB" d="M307.34 230.257v-7.49h.937v7.49z"/><path id="7wcyC" d="M310.15 230.257v-7.49h.936v7.49z"/><path id="7wcyD" d="M321.385 217.618h-4.682v-2.81h4.682zm.468-3.745h-5.618a.468.468 0 0 0-.468.467v3.746c0 .258.21.468.468.468h5.618c.258 0 .468-.21.468-.468v-3.745a.468.468 0 0 0-.468-.468z"/></defs><g><g transform="translate(-305 -202)"><use fill="#f7941d" xlink:href="#7wcya"/></g><g transform="translate(-305 -202)"><g><g><g><use fill="#f8ab4d" xlink:href="#7wcyb"/></g></g></g><g><g><g><use fill="#f8ab4d" xlink:href="#7wcyc"/></g></g></g><g><g><g><use fill="#f8ab4d" xlink:href="#7wcyd"/></g></g></g><g><g><g><use fill="#f8ab4d" xlink:href="#7wcye"/></g></g></g><g><g><g><use fill="#f8ab4d" xlink:href="#7wcyf"/></g></g></g><g><g><g><use fill="#f8ab4d" xlink:href="#7wcyg"/></g></g></g><g><g><g><use fill="#f8ab4d" xlink:href="#7wcyh"/></g></g></g><g><g><g><use fill="#f8ab4d" xlink:href="#7wcyi"/></g></g></g><g><g><g><use fill="#f8ab4d" xlink:href="#7wcyj"/></g></g></g><g><g><g><use fill="#f8ab4d" xlink:href="#7wcyk"/></g></g></g><g><g><g><use fill="#f8ab4d" xlink:href="#7wcyl"/></g></g></g><g><g><g><use fill="#f8ab4d" xlink:href="#7wcym"/></g></g></g><g><g><g><use fill="#f8ab4d" xlink:href="#7wcyn"/></g></g></g><g><g><g><use fill="#f8ab4d" xlink:href="#7wcyo"/></g></g></g><g><g><g><use fill="#f8ab4d" xlink:href="#7wcyp"/></g></g></g><g><g><g><use fill="#f8ab4d" xlink:href="#7wcyq"/></g></g></g><g><g><g><use fill="#f8ab4d" xlink:href="#7wcyr"/></g></g></g><g><g><g><use fill="#f8ab4d" xlink:href="#7wcys"/></g></g></g><g><g><g><use fill="#f8ab4d" xlink:href="#7wcyt"/></g></g></g><g><g><g><use fill="#f8ab4d" xlink:href="#7wcyu"/></g></g></g><g><g><g><use fill="#f8ab4d" xlink:href="#7wcyv"/></g></g></g><g><g><g><use fill="#f8ab4d" xlink:href="#7wcyw"/></g></g></g><g><g><g><use fill="#f8ab4d" xlink:href="#7wcyx"/></g></g></g><g><g><g><use fill="#f8ab4d" xlink:href="#7wcyy"/></g></g></g><g><g><g><use fill="#f8ab4d" xlink:href="#7wcyz"/></g></g></g><g><g><g><use fill="#f8ab4d" xlink:href="#7wcyA"/></g></g></g><g><g><g><use fill="#f8ab4d" xlink:href="#7wcyB"/></g></g></g><g><g><g><use fill="#f8ab4d" xlink:href="#7wcyC"/></g></g></g><g><g><g><use fill="#f8ab4d" xlink:href="#7wcyD"/></g></g></g></g></g></svg>