<svg xmlns="http://www.w3.org/2000/svg" xmlns:xlink="http://www.w3.org/1999/xlink" width="28" height="28" viewBox="0 0 28 28"><defs><path id="zp0wa" d="M749.83 392.299v-.936h.937v.936z"/><path id="zp0wb" d="M749.83 394.171v-.936h.937v.936z"/><path id="zp0wc" d="M749.83 396.044v-.936h.937v.936z"/><path id="zp0wd" d="M749.83 397.916v-.936h.937v.936z"/><path id="zp0we" d="M751.703 392.299v-.936h.937v.936z"/><path id="zp0wf" d="M751.703 394.171v-.936h.937v.936z"/><path id="zp0wg" d="M751.703 396.044v-.936h.937v.936z"/><path id="zp0wh" d="M751.703 397.916v-.936h.937v.936z"/><path id="zp0wi" d="M753.576 392.299v-.936h.936v.936z"/><path id="zp0wj" d="M753.576 394.171v-.936h.936v.936z"/><path id="zp0wk" d="M753.576 396.044v-.936h.936v.936z"/><path id="zp0wl" d="M753.576 397.916v-.936h.936v.936z"/><path id="zp0wm" d="M755.448 392.299v-.936h.937v.936z"/><path id="zp0wn" d="M751.703 390.426v-.936h.937v.936z"/><path id="zp0wo" d="M753.576 390.426v-.936h.936v.936z"/><path id="zp0wp" d="M755.448 390.426v-.936h.937v.936z"/><path id="zp0wq" d="M755.448 394.171v-.936h.937v.936z"/><path id="zp0wr" d="M755.448 396.044v-.936h.937v.936z"/><path id="zp0ws" d="M755.448 397.916v-.936h.937v.936z"/><path id="zp0wt" d="M757.32 392.299v-.936h.937v.936z"/><path id="zp0wu" d="M757.32 394.171v-.936h.937v.936z"/><path id="zp0wv" d="M757.32 396.044v-.936h.937v.936z"/><path id="zp0ww" d="M757.32 397.916v-.936h.937v.936z"/><path id="zp0wx" d="M766.303 405.875a2.827 2.827 0 0 0-1.074-1.055 1.873 1.873 0 1 0-2.709 0 2.82 2.82 0 0 0-.589.436 2.817 2.817 0 0 0-1.383-1.84c.67-.696.693-1.79.05-2.512v-10.946h6.554v15.917zm-3.365-2.341a.936.936 0 1 1 1.873 0 .936.936 0 0 1-1.873 0zm2.81 5.618h-3.746v-1.873a1.873 1.873 0 0 1 3.745 0zm-4.682-1.873v1.873h-3.745v-3.277a1.873 1.873 0 0 1 3.745 0zm-4.171-3.014a3.297 3.297 0 0 0-1.343-1.297 2.34 2.34 0 1 0-3.016 0 3.297 3.297 0 0 0-1.343 1.297 2.827 2.827 0 0 0-.944-.85 1.86 1.86 0 0 0-1.823-3.091v-17.388h11.236v17.388a1.85 1.85 0 0 0-.469-.067 1.868 1.868 0 0 0-1.354 3.159 2.827 2.827 0 0 0-.944.85zm-4.255-3.072a1.404 1.404 0 1 1 2.808 0 1.404 1.404 0 0 1-2.808 0zm3.745 7.959h-4.682v-3.277a2.34 2.34 0 0 1 4.682 0zm-5.618 0h-3.745v-3.277a1.873 1.873 0 0 1 3.745 0zm-4.61-3.896a2.822 2.822 0 0 0-.59-.436 1.873 1.873 0 1 0-2.708 0 2.827 2.827 0 0 0-1.075 1.055h-.848v-15.917h6.554v10.946a1.847 1.847 0 0 0 .05 2.512 2.817 2.817 0 0 0-1.383 1.84zm-2.88-1.722a.936.936 0 1 1 1.872 0 .936.936 0 0 1-1.872 0zm2.809 5.618h-3.745v-1.873a1.873 1.873 0 0 1 3.745 0zm2.808-7.959a.936.936 0 1 1 0 1.873.936.936 0 0 1 0-1.873zm11.236.937a.936.936 0 1 1-1.873 0 .936.936 0 0 1 1.873 0zm7.49-13.108h-7.022v-6.554a.468.468 0 0 0-.468-.468h-12.172a.468.468 0 0 0-.468.468v6.554h-7.022a.468.468 0 0 0-.468.468v16.853c0 .258.21.468.468.468h.979a2.81 2.81 0 0 0-.043.468v2.34c0 .26.21.469.468.469h24.343c.259 0 .468-.21.468-.468v-2.34c0-.158-.015-.314-.042-.469h.979c.258 0 .468-.21.468-.468V389.49a.468.468 0 0 0-.468-.468z"/><path id="zp0wy" d="M762.002 400.257v-7.49h.936v7.49z"/><path id="zp0wz" d="M764.811 400.257v-7.49h.936v7.49z"/><path id="zp0wA" d="M742.34 400.257v-7.49h.937v7.49z"/><path id="zp0wB" d="M745.15 400.257v-7.49h.936v7.49z"/><path id="zp0wC" d="M756.385 387.618h-4.682v-2.81h4.682zm.468-3.745h-5.618a.468.468 0 0 0-.468.467v3.746c0 .258.21.468.468.468h5.618c.258 0 .468-.21.468-.468v-3.745a.468.468 0 0 0-.468-.468z"/></defs><g><g transform="translate(-740 -382)"><g><g><g><use fill="#303392" xlink:href="#zp0wa"/></g></g></g><g><g><g><use fill="#303392" xlink:href="#zp0wb"/></g></g></g><g><g><g><use fill="#303392" xlink:href="#zp0wc"/></g></g></g><g><g><g><use fill="#303392" xlink:href="#zp0wd"/></g></g></g><g><g><g><use fill="#303392" xlink:href="#zp0we"/></g></g></g><g><g><g><use fill="#303392" xlink:href="#zp0wf"/></g></g></g><g><g><g><use fill="#303392" xlink:href="#zp0wg"/></g></g></g><g><g><g><use fill="#303392" xlink:href="#zp0wh"/></g></g></g><g><g><g><use fill="#303392" xlink:href="#zp0wi"/></g></g></g><g><g><g><use fill="#303392" xlink:href="#zp0wj"/></g></g></g><g><g><g><use fill="#303392" xlink:href="#zp0wk"/></g></g></g><g><g><g><use fill="#303392" xlink:href="#zp0wl"/></g></g></g><g><g><g><use fill="#303392" xlink:href="#zp0wm"/></g></g></g><g><g><g><use fill="#303392" xlink:href="#zp0wn"/></g></g></g><g><g><g><use fill="#303392" xlink:href="#zp0wo"/></g></g></g><g><g><g><use fill="#303392" xlink:href="#zp0wp"/></g></g></g><g><g><g><use fill="#303392" xlink:href="#zp0wq"/></g></g></g><g><g><g><use fill="#303392" xlink:href="#zp0wr"/></g></g></g><g><g><g><use fill="#303392" xlink:href="#zp0ws"/></g></g></g><g><g><g><use fill="#303392" xlink:href="#zp0wt"/></g></g></g><g><g><g><use fill="#303392" xlink:href="#zp0wu"/></g></g></g><g><g><g><use fill="#303392" xlink:href="#zp0wv"/></g></g></g><g><g><g><use fill="#303392" xlink:href="#zp0ww"/></g></g></g><g><g><g><use fill="#303392" xlink:href="#zp0wx"/></g></g></g><g><g><g><use fill="#303392" xlink:href="#zp0wy"/></g></g></g><g><g><g><use fill="#303392" xlink:href="#zp0wz"/></g></g></g><g><g><g><use fill="#303392" xlink:href="#zp0wA"/></g></g></g><g><g><g><use fill="#303392" xlink:href="#zp0wB"/></g></g></g><g><g><g><use fill="#303392" xlink:href="#zp0wC"/></g></g></g></g></g></svg>