<svg xmlns="http://www.w3.org/2000/svg" width="91" height="127" viewBox="0 0 91 127"><g><g><g><path fill="#0000a0" d="M85.73 11.62H4.703A3.711 3.711 0 0 0 1 15.32v106.536c0 2.089 1.708 3.801 3.8 3.801h80.93c2.092 0 3.8-1.712 3.8-3.8V15.42a3.81 3.81 0 0 0-3.8-3.8z"/><path fill="none" stroke="#36505f" stroke-miterlimit="50" stroke-width=".57" d="M85.73 11.62v0H4.703A3.711 3.711 0 0 0 1 15.32v106.536c0 2.089 1.708 3.801 3.8 3.801h80.93c2.092 0 3.8-1.712 3.8-3.8V15.42a3.81 3.81 0 0 0-3.8-3.8z"/></g><g><path fill="#fff9e8" d="M9.153 118.054V19.22h72.223v98.833z"/></g><g><path fill="#6b4ef0" d="M39.052 7.628a6.033 6.033 0 0 1 11.727 0zm14.587 0c-.684-4.203-4.33-7.413-8.723-7.413-4.394 0-8.043 3.21-8.723 7.413H27.81c-1.567 0-2.657 1.295-2.849 2.848l-1.426 11.405h42.761L64.87 10.476c-.192-1.553-1.281-2.848-2.848-2.848z"/></g><g><g><path fill="#0000a0" d="M77.48 71.297v2.472H13.05v-2.472z"/></g><g><path fill="#0000a0" d="M77.48 63.695v2.471H13.05v-2.471z"/></g><g><path fill="#0000a0" d="M77.48 56.093v2.47H13.05v-2.47z"/></g><g><path fill="#6b4af1" d="M28.54 105.264c-5.48 0-9.92-4.445-9.92-9.925a9.92 9.92 0 0 1 9.92-9.921 9.92 9.92 0 0 1 9.922 9.921c0 5.48-4.441 9.925-9.921 9.925zm0 4.52c7.978 0 14.446-6.464 14.446-14.445 0-7.977-6.468-14.442-14.445-14.442-7.978 0-14.446 6.465-14.446 14.442 0 7.981 6.468 14.446 14.446 14.446z"/></g><g><path fill="#0000a0" d="M77.48 48.49v2.47H13.05v-2.47z"/></g><g><path fill="#0000a0" d="M77.006 109.31v2.471h-29.65v-2.47z"/></g><g><path fill="#0000a0" d="M77.006 101.707v2.472h-29.65v-2.472z"/></g><g><path fill="#0000a0" d="M77.006 94.106v2.47h-29.65v-2.47z"/></g><g><path fill="#0000a0" d="M77.006 86.503v2.47h-29.65v-2.47z"/></g><g><path fill="#0000a0" d="M77.006 78.9v2.47h-29.65V78.9z"/></g><g><path fill="#ffbe00" d="M77.48 29.483V43.36H13.05V29.483z"/></g></g></g></g></svg>