<svg width="48" height="42" viewBox="0 0 48 42" fill="none" xmlns="http://www.w3.org/2000/svg">
<mask id="path-1-inside-1" fill="white">
<path fill-rule="evenodd" clip-rule="evenodd" d="M24 35C31.732 35 38 28.732 38 21C38 13.268 31.732 7 24 7C16.268 7 10 13.268 10 21C10 28.732 16.268 35 24 35ZM24 36C32.2843 36 39 29.2843 39 21C39 12.7157 32.2843 6 24 6C15.7157 6 9 12.7157 9 21C9 29.2843 15.7157 36 24 36Z"/>
</mask>
<path fill-rule="evenodd" clip-rule="evenodd" d="M24 35C31.732 35 38 28.732 38 21C38 13.268 31.732 7 24 7C16.268 7 10 13.268 10 21C10 28.732 16.268 35 24 35ZM24 36C32.2843 36 39 29.2843 39 21C39 12.7157 32.2843 6 24 6C15.7157 6 9 12.7157 9 21C9 29.2843 15.7157 36 24 36Z" fill="#F7941D"/>
<path d="M37 21C37 28.1797 31.1797 34 24 34V36C32.2843 36 39 29.2843 39 21H37ZM24 8C31.1797 8 37 13.8203 37 21H39C39 12.7157 32.2843 6 24 6V8ZM11 21C11 13.8203 16.8203 8 24 8V6C15.7157 6 9 12.7157 9 21H11ZM24 34C16.8203 34 11 28.1797 11 21H9C9 29.2843 15.7157 36 24 36V34ZM38 21C38 28.732 31.732 35 24 35V37C32.8366 37 40 29.8366 40 21H38ZM24 7C31.732 7 38 13.268 38 21H40C40 12.1634 32.8366 5 24 5V7ZM10 21C10 13.268 16.268 7 24 7V5C15.1634 5 8 12.1634 8 21H10ZM24 35C16.268 35 10 28.732 10 21H8C8 29.8366 15.1634 37 24 37V35Z" fill="#F7941D" mask="url(#path-1-inside-1)"/>
<path d="M19.9504 20.2271C19.9504 19.8822 19.8416 19.6088 19.6241 19.4069C19.4113 19.2008 19.0473 19.0116 18.5319 18.8391C18.0165 18.6667 17.5721 18.4963 17.1986 18.3281C16.8251 18.1556 16.5035 17.96 16.234 17.7413C15.9693 17.5184 15.7612 17.2576 15.6099 16.959C15.4634 16.6604 15.3901 16.3049 15.3901 15.8927C15.3901 15.1819 15.6454 14.5994 16.156 14.1451C16.6667 13.6909 17.3452 13.4259 18.1915 13.3502V12H19.3262V13.3691C20.1631 13.4742 20.818 13.7855 21.2908 14.3028C21.7636 14.816 22 15.4827 22 16.3028H19.9504C19.9504 15.7981 19.8322 15.4217 19.5957 15.1735C19.3641 14.9211 19.052 14.795 18.6596 14.795C18.2719 14.795 17.9716 14.8938 17.7589 15.0915C17.5461 15.285 17.4397 15.5542 17.4397 15.8991C17.4397 16.2187 17.5437 16.4753 17.7518 16.6688C17.9598 16.8623 18.3452 17.0599 18.9078 17.2618C19.4752 17.4637 19.9409 17.6551 20.305 17.836C20.669 18.0126 20.9764 18.2145 21.227 18.4416C21.4775 18.6646 21.669 18.9211 21.8014 19.2114C21.9338 19.4974 22 19.8318 22 20.2145C22 20.9295 21.7494 21.51 21.2482 21.9558C20.747 22.4017 20.0567 22.6646 19.1773 22.7445V24H18.0496V22.7508C17.0804 22.6583 16.3286 22.3533 15.7943 21.836C15.2648 21.3144 15 20.6225 15 19.7603H17.0496C17.0496 20.2608 17.182 20.6456 17.4468 20.9148C17.7163 21.1798 18.1017 21.3123 18.6028 21.3123C19.0189 21.3123 19.3475 21.2156 19.5887 21.0221C19.8298 20.8244 19.9504 20.5594 19.9504 20.2271Z" fill="#F7941D"/>
<path fill-rule="evenodd" clip-rule="evenodd" d="M23.3369 0.65625C23.3369 0.293813 23.6338 0 24 0C35.6629 0 45.128 9.31349 45.2171 20.8359H48L44.5547 26.25L41.1093 20.8359H43.8909C43.8019 10.0384 34.9305 1.3125 24 1.3125C23.6338 1.3125 23.3369 1.01869 23.3369 0.65625ZM4.10906 21.1641H6.89066L3.44533 15.75L0 21.1641H2.78291C2.87199 32.6865 12.3371 42 24 42C24.3662 42 24.6631 41.7062 24.6631 41.3438C24.6631 40.9813 24.3662 40.6875 24 40.6875C13.0695 40.6875 4.19811 31.9616 4.10906 21.1641Z" fill="#F7941D"/>
<path d="M30.0552 25.9799H27.5072C27.5358 26.834 27.7434 27.4721 28.1299 27.8942C28.5212 28.3164 29.0794 28.5274 29.8047 28.5274C30.3296 28.5274 30.8187 28.4465 31.272 28.2845L31.4724 29.7865C30.8998 29.9288 30.3081 30 29.6974 30C28.4758 30 27.5143 29.6466 26.8129 28.9398C26.1115 28.2329 25.7417 27.2463 25.7035 25.9799H24.4724V24.9418H25.7035V23.9993H24.4724V22.9612H25.7107C25.7727 21.7095 26.1616 20.7376 26.8773 20.0455C27.5931 19.3485 28.5546 19 29.7618 19C30.2676 19 30.8378 19.0761 31.4724 19.2282L31.272 20.7376C30.7853 20.5707 30.301 20.4873 29.819 20.4873C29.0985 20.4873 28.545 20.6983 28.1585 21.1205C27.772 21.5426 27.5573 22.1562 27.5143 22.9612H30.0552V23.9993H27.5072V24.9418H30.0552V25.9799Z" fill="#F7941D"/>
</svg>
