<svg xmlns="http://www.w3.org/2000/svg" width="72" height="72" viewBox="0 0 72 72"><g><g><g><path fill="#f7941d" d="M22.253 44.505C9.983 44.505 0 34.523 0 22.252 0 9.983 9.983 0 22.253 0s22.252 9.983 22.252 22.252H42.28c0-11.042-8.985-20.027-20.027-20.027-11.043 0-20.028 8.985-20.028 20.027 0 11.043 8.985 20.028 20.027 20.028z"/></g><g><path fill="#f7941d" d="M10.014 21.14v-2.225h12.239v2.225z"/></g><g><path fill="#f7941d" d="M10.014 25.59v-2.225h12.239v2.225z"/></g><g><path fill="#f7941d" d="M22.252 32.267c-5.52 0-10.014-4.493-10.014-10.015 0-5.52 4.493-10.014 10.014-10.014 2.888 0 5.493 1.293 7.532 3.738l-1.71 1.426c-1.626-1.95-3.583-2.938-5.822-2.938-4.294 0-7.788 3.494-7.788 7.788 0 4.295 3.494 7.789 7.788 7.789 2.24 0 4.196-.988 5.822-2.938l1.71 1.425c-2.039 2.446-4.644 3.74-7.532 3.74z"/></g><g><path fill="#f7941d" d="M68.984 48.957C68.984 60 60 68.984 48.957 68.984c-11.044 0-20.03-8.984-20.03-20.027 0-11.044 8.986-20.03 20.03-20.03 11.043 0 20.027 8.986 20.027 20.03zm2.226 0c0-12.27-9.983-22.254-22.253-22.254s-22.254 9.983-22.254 22.254c0 12.27 9.983 22.253 22.254 22.253 12.27 0 22.253-9.983 22.253-22.253z"/></g><g><path fill="#f7941d" d="M48.957 50.069c-1.446 0-2.83-.59-3.903-1.661-1.072-1.072-1.66-2.457-1.66-3.903 0-1.445.588-2.83 1.66-3.902s2.457-1.66 3.903-1.66c1.445 0 2.83.588 3.902 1.66 1.07 1.073 1.66 2.457 1.66 3.902h-2.224c0-.851-.36-1.677-1.01-2.327a3.264 3.264 0 0 0-4.658 0c-.65.65-1.009 1.476-1.009 2.327 0 .85.358 1.678 1.009 2.329.652.652 1.478 1.009 2.33 1.009z"/></g><g><path fill="#f7941d" d="M48.957 58.97c-1.446 0-2.83-.59-3.903-1.66-1.072-1.073-1.66-2.459-1.66-3.904h2.224c0 .853.358 1.679 1.009 2.33a3.264 3.264 0 0 0 4.658 0c.65-.651 1.01-1.477 1.01-2.33 0-.85-.36-1.678-1.01-2.328-.651-.65-1.478-1.01-2.328-1.01v-2.225c1.445 0 2.83.59 3.902 1.662 1.07 1.07 1.66 2.457 1.66 3.901 0 1.445-.59 2.831-1.66 3.903-1.072 1.071-2.457 1.661-3.902 1.661z"/></g><g><path fill="#f7941d" d="M47.844 40.055v-3.338h2.225v3.338z"/></g><g><path fill="#f7941d" d="M47.844 61.195v-3.337h2.225v3.337z"/></g><g><path fill="#f7941d" d="M36.717 50.069v-2.226h2.225v2.226z"/></g><g><path fill="#f7941d" d="M58.97 50.069v-2.226h2.226v2.226z"/></g><g><path fill="#f7941d" d="M50.069 10.013h-2.225V7.788h2.225zm4.45 0h-2.224V7.788h2.225zm4.451 0h-2.226V7.788h2.226zm4.451 0h-2.226V7.788h2.226zm0 4.45h-2.226v-2.225h2.226zm0 4.452h-2.226V16.69h2.226zm0 4.45h-2.226v-2.224h2.226z"/></g><g><path fill="#f7941d" d="M10.013 50.069H7.788v-2.226h2.225zm0 4.45H7.788v-2.224h2.225zm0 4.451H7.788v-2.226h2.225zm0 4.451H7.788v-2.226h2.225zm4.45 0h-2.225v-2.226h2.226zm4.452 0H16.69v-2.226h2.225zm4.45 0h-2.224v-2.226h2.225z"/></g></g></g></svg>