<svg width="28" height="28" viewBox="0 0 28 28" fill="none" xmlns="http://www.w3.org/2000/svg">
<circle cx="14" cy="14" r="14" fill="#DC3545" fill-opacity="0.3"/>
<circle cx="14" cy="14" r="10" fill="#DC3545"/>
<path d="M24 14C24 19.5228 19.5228 24 14 24C8.47715 24 4 19.5228 4 14C4 8.47715 8.47715 4 14 4C19.5228 4 24 8.47715 24 14Z" fill="white"/>
<path fill-rule="evenodd" clip-rule="evenodd" d="M22 14C22 18.4183 18.4183 22 14 22C12.1513 22 10.449 21.3729 9.09433 20.3198L20.3198 9.09433C21.3729 10.449 22 12.1513 22 14ZM7.68012 18.9056L18.9056 7.68012C17.5509 6.62707 15.8487 6 14 6C9.58172 6 6 9.58172 6 14C6 15.8487 6.62707 17.5509 7.68012 18.9056ZM24 14C24 19.5228 19.5228 24 14 24C8.47715 24 4 19.5228 4 14C4 8.47715 8.47715 4 14 4C19.5228 4 24 8.47715 24 14Z" fill="#DC3545"/>
</svg>
