<svg xmlns="http://www.w3.org/2000/svg" width="45" height="31" viewBox="0 0 45 31"><g><g><g><path fill="#122b3c" d="M39.659.114h-28.11a4.574 4.574 0 0 0-4.568 4.569v2.28h.994v-2.28a3.579 3.579 0 0 1 3.575-3.575h28.109a3.579 3.579 0 0 1 3.575 3.575v14.974a3.579 3.579 0 0 1-3.575 3.574h-2.91v.995h2.91c2.52 0 4.569-2.05 4.569-4.57V4.684c0-2.52-2.05-4.57-4.57-4.57z"/></g><g><g><g><g><path fill="#122b3c" d="M5.272 26.964v-.994h2.536v.994z"/></g></g></g></g><g><g><g><g><path fill="#122b3c" d="M8.873 26.964v-.994h2.536v.994z"/></g></g></g></g><g><g><g><g><path fill="#122b3c" d="M32.234 22.794a.81.81 0 0 1 .809.809v1.558a.81.81 0 0 1-.81.81h-3.412a.81.81 0 0 1-.81-.81v-1.558a.81.81 0 0 1 .81-.81zm1.803 2.367v-1.558c0-.995-.81-1.804-1.803-1.804H28.82c-.994 0-1.803.81-1.803 1.804v1.558c0 .994.809 1.803 1.803 1.803h3.413c.994 0 1.803-.809 1.803-1.803z"/></g></g></g></g><g><path fill="#122b3c" d="M36.252 16.928H.994v-5.185h35.258zm0 8.796a3.864 3.864 0 0 1-3.859 3.86H4.853a3.864 3.864 0 0 1-3.859-3.86v-7.802h35.258zM4.854 7.46h27.539a3.862 3.862 0 0 1 3.812 3.29H1.041a3.862 3.862 0 0 1 3.813-3.29zm27.539-.994H4.853A4.86 4.86 0 0 0 0 11.32v14.404a4.86 4.86 0 0 0 4.854 4.854h27.539a4.86 4.86 0 0 0 4.854-4.854V11.32a4.86 4.86 0 0 0-4.854-4.854z"/></g></g></g></svg>