<svg xmlns="http://www.w3.org/2000/svg" width="36" height="37" viewBox="0 0 36 37"><g><g><path fill="#303392" d="M3.651 19.07h.543a.55.55 0 0 0 .098-.014v.008a.562.562 0 0 0 .056.007H8.73a.639.639 0 0 0 0-1.278H4.216c-1.087-.08-1.92-.895-1.92-1.897v-.058c0-1.03.88-1.879 2.007-1.879h4.01a.639.639 0 1 0 0-1.278H5.165c-1.127 0-2.043-.845-2.043-1.88 0-1.028.916-1.874 2.043-1.874h2.968a.639.639 0 1 0 0-1.277H6.527c-1.127 0-2.074-.808-2.074-1.836v-.057c0-1.026.944-1.862 2.068-1.865 4.775-.011 14.225-.004 21.173.002v15.11c-.639 1.405-2.743 2.79-4.281 3.807-.248.163-.488.318-.703.464a6.579 6.579 0 0 0-2.798 4.89l-.54 7.05-.746-.116-.018-.003a3.832 3.832 0 0 1-3.33-3.704l.22-7.954a.639.639 0 0 0-.639-.656L3.65 22.77c-1.125-.001-2.042-.822-2.042-1.85 0-1.029.917-1.85 2.044-1.85zM28.972 1.9h5.51v20.846h-5.51zM.329 20.904c0 1.733 1.49 3.143 3.32 3.144l10.553.011-.203 7.313v.029a5.09 5.09 0 0 0 4.438 4.962l1.421.221a.64.64 0 0 0 .736-.583l.59-7.74c.072-.949.4-1.862.947-2.641.349-.504.785-.94 1.29-1.289.207-.141.453-.293.697-.455 1.126-.744 2.538-1.67 3.576-2.73v2.208c0 .353.256.668.61.668h6.788a.691.691 0 0 0 .669-.668V1.23c0-.352-.316-.609-.67-.609h-6.788a.59.59 0 0 0-.609.61v1.385c-4.313-.003-9.479-.008-13.964-.008-2.818 0-5.377.002-7.22.006-1.826.004-3.335 1.415-3.335 3.144v.056a3.05 3.05 0 0 0 .829 2.059c-1.268.443-2.167 1.6-2.167 2.956a3.07 3.07 0 0 0 .98 2.205c-1.08.52-1.799 1.581-1.799 2.804v.058a3.041 3.041 0 0 0 1.012 2.275c-1.004.54-1.7 1.564-1.7 2.733z"/></g></g></svg>