<svg xmlns="http://www.w3.org/2000/svg" width="68" height="59" viewBox="0 0 68 59"><g><g><g><path fill="#f7941d" d="M62.844 23.78a3.126 3.126 0 0 1-3.123-3.122c0-1.722 1.4-3.122 3.123-3.122 1.721 0 3.122 1.4 3.122 3.122s-1.4 3.123-3.122 3.123zM31.592 49.199c-9.502 0-17.233-7.73-17.233-17.233 0-9.502 7.73-17.233 17.233-17.233 9.502 0 17.233 7.731 17.233 17.233 0 9.503-7.73 17.233-17.233 17.233zm23.466 3.38c0 1.72-1.4 3.121-3.122 3.121a3.125 3.125 0 0 1-3.123-3.122c0-1.721 1.4-3.122 3.123-3.122 1.721 0 3.122 1.4 3.122 3.122zM7.504 57.666a6.09 6.09 0 0 1-6.083-6.083A6.09 6.09 0 0 1 7.504 45.5a6.09 6.09 0 0 1 6.083 6.083 6.09 6.09 0 0 1-6.083 6.083zM4.758 21.65a3.294 3.294 0 0 1-3.29-3.29 3.294 3.294 0 0 1 3.29-3.29 3.294 3.294 0 0 1 3.29 3.29 3.294 3.294 0 0 1-3.29 3.29zM44.136 7.262c0-2.978 2.422-5.4 5.4-5.4 2.977 0 5.4 2.422 5.4 5.4s-2.423 5.4-5.4 5.4a5.406 5.406 0 0 1-5.4-5.4zm18.708 8.853a4.548 4.548 0 0 0-4.544 4.543c0 .186.015.368.037.548l-9.847 2.87a18.762 18.762 0 0 0-5.255-6.67l2.883-4.25a6.774 6.774 0 0 0 3.418.927 6.829 6.829 0 0 0 6.82-6.82A6.828 6.828 0 0 0 49.537.44a6.828 6.828 0 0 0-6.821 6.821c0 2.005.874 3.805 2.256 5.054l-2.877 4.242a18.546 18.546 0 0 0-10.502-3.247c-7.406 0-13.818 4.34-16.827 10.61l-5.822-3.407a4.677 4.677 0 0 0 .526-2.154 4.717 4.717 0 0 0-4.711-4.712A4.717 4.717 0 0 0 .047 18.36a4.716 4.716 0 0 0 4.71 4.711 4.695 4.695 0 0 0 3.348-1.4l6.094 3.565a18.55 18.55 0 0 0-1.26 6.73c0 4.294 1.462 8.251 3.91 11.407l-3.768 3.208a7.478 7.478 0 0 0-5.577-2.5C3.366 44.08 0 47.445 0 51.583c0 4.137 3.366 7.504 7.504 7.504 4.137 0 7.504-3.367 7.504-7.504a7.448 7.448 0 0 0-1.08-3.857l3.83-3.262c3.417 3.776 8.353 6.154 13.834 6.154 4.807 0 9.194-1.827 12.504-4.824l4.272 3.978a4.516 4.516 0 0 0-.975 2.804 4.548 4.548 0 0 0 4.543 4.543 4.548 4.548 0 0 0 4.543-4.543 4.548 4.548 0 0 0-4.543-4.543c-.934 0-1.802.284-2.525.768l-4.3-4.003c3.179-3.348 5.135-7.865 5.135-12.834 0-2.312-.426-4.526-1.198-6.571l9.68-2.822a4.545 4.545 0 0 0 4.116 2.63 4.548 4.548 0 0 0 4.543-4.544 4.548 4.548 0 0 0-4.543-4.543z"/></g><g><path fill="#f7941d" d="M31.978 30.241c-1.997-.654-3.445-1.202-3.445-2.697 0-1.402 1.168-2.184 2.838-2.184 1.18 0 2.768.502 4.028 1.413l1.203-1.483c-1.063-.83-2.627-1.484-4.075-1.74v-3.13h-1.6v3.025c-2.92.14-4.543 1.903-4.543 4.227 0 2.85 2.382 3.667 4.998 4.508 2.207.689 3.585 1.261 3.585 2.978 0 1.506-1.308 2.382-3.071 2.382-1.542 0-3.27-.677-4.613-1.985l-1.25 1.495c1.414 1.366 3.118 2.148 4.894 2.347v2.92h1.6V39.42c2.907-.233 4.624-1.95 4.624-4.39v-.001c0-3.071-2.23-3.853-5.173-4.788z"/></g></g></g></svg>