<svg width="128" height="139" viewBox="0 0 128 139" fill="none" xmlns="http://www.w3.org/2000/svg">
<circle cx="52" cy="52" r="52" fill="#F7941D" fill-opacity="0.15"/>
<g opacity="0.5">
<rect x="18.5" y="28.5" width="92" height="109" rx="4.5" stroke="#303392" stroke-width="3"/>
<line x1="34" y1="23" x2="34" y2="36" stroke="#303392" stroke-width="4" stroke-linecap="round"/>
<line x1="56" y1="23" x2="56" y2="36" stroke="#303392" stroke-width="4" stroke-linecap="round"/>
<line x1="78" y1="23" x2="78" y2="36" stroke="#303392" stroke-width="4" stroke-linecap="round"/>
<line x1="100" y1="23" x2="100" y2="36" stroke="#303392" stroke-width="4" stroke-linecap="round"/>
<g filter="url(#filter0_dd)">
<path d="M117.25 52L127.642 58L94.1423 116.024L83.1962 122.983L83.75 110.024L117.25 52Z" fill="white"/>
<path d="M117.799 54.049L125.593 58.549L93.0272 114.955L84.8175 120.175L85.2329 110.455L117.799 54.049Z" stroke="#303392" stroke-width="3"/>
</g>
<line x1="33" y1="65" x2="93" y2="65" stroke="#303392" stroke-width="4" stroke-linecap="round"/>
<line x1="33" y1="82" x2="76" y2="82" stroke="#303392" stroke-width="4" stroke-linecap="round"/>
<line x1="33" y1="101" x2="71" y2="101" stroke="#303392" stroke-width="4" stroke-linecap="round"/>
</g>
<defs>
<filter id="filter0_dd" x="78" y="46" width="49.6423" height="85.983" filterUnits="userSpaceOnUse" color-interpolation-filters="sRGB">
<feFlood flood-opacity="0" result="BackgroundImageFix"/>
<feColorMatrix in="SourceAlpha" type="matrix" values="0 0 0 0 0 0 0 0 0 0 0 0 0 0 0 0 0 0 127 0"/>
<feOffset dy="6"/>
<feColorMatrix type="matrix" values="0 0 0 0 1 0 0 0 0 1 0 0 0 0 1 0 0 0 1 0"/>
<feBlend mode="normal" in2="BackgroundImageFix" result="effect1_dropShadow"/>
<feColorMatrix in="SourceAlpha" type="matrix" values="0 0 0 0 0 0 0 0 0 0 0 0 0 0 0 0 0 0 127 0"/>
<feOffset dy="-6"/>
<feColorMatrix type="matrix" values="0 0 0 0 1 0 0 0 0 1 0 0 0 0 1 0 0 0 1 0"/>
<feBlend mode="normal" in2="effect1_dropShadow" result="effect2_dropShadow"/>
<feBlend mode="normal" in="SourceGraphic" in2="effect2_dropShadow" result="shape"/>
</filter>
</defs>
</svg>
