<svg xmlns="http://www.w3.org/2000/svg" xmlns:xlink="http://www.w3.org/1999/xlink" width="42" height="39" viewBox="0 0 42 39"><defs><path id="bj8ya" d="M831.067 196.07a3.23 3.23 0 0 0-3.226 3.224 3.229 3.229 0 0 0 3.225 3.227 3.229 3.229 0 0 0 3.226-3.227 3.229 3.229 0 0 0-3.225-3.225zm0 7.32a4.1 4.1 0 0 1-4.094-4.096 4.098 4.098 0 0 1 4.094-4.092 4.098 4.098 0 0 1 4.093 4.092 4.099 4.099 0 0 1-4.094 4.096z"/><path id="bj8yb" d="M830.227 212.721l.78.633.78-.633-.67-5.842h-.22zm.78 1.747l-1.697-1.371.815-7.086h1.765l.814 7.086z"/><path id="bj8yc" d="M838.995 219.324a1.404 1.404 0 0 1-2.805.031V217.89h2.805zm-11.838 1.403v-1.37l.002-.033v-2.302h-.002v-6.045h-.867v6.045h-2.81v-7.792a4.141 4.141 0 0 1 4.136-4.137h1.173l1.522 1.785h1.382l1.641-1.785h1.53A4.14 4.14 0 0 1 839 209.23v7.792h-2.81v-6.045h-.868v7.412l-.001.932.001.034v1.372zm-2.27 0a1.398 1.398 0 0 1-1.403-1.403l.003-1.434h2.803v1.467a1.403 1.403 0 0 1-1.402 1.37zm7.27-15.634l-.844.919h-.601l-.783-.919zm7.71 4.137a5.01 5.01 0 0 0-5.003-5.005h-7.248a5.01 5.01 0 0 0-5.004 5.005v9.617h.006l-.001.474c-.001.607.235 1.18.664 1.608a2.26 2.26 0 0 0 3.009.18v.488h9.9v-.488c.398.315.886.488 1.402.488a2.274 2.274 0 0 0 2.27-2.273v-.477h.005z"/><path id="bj8yd" d="M854.894 207.972a3.23 3.23 0 0 0-3.225 3.226 3.23 3.23 0 0 0 3.225 3.225 3.23 3.23 0 0 0 3.226-3.225 3.23 3.23 0 0 0-3.226-3.226zm0 7.318a4.097 4.097 0 0 1-4.093-4.092 4.098 4.098 0 0 1 4.093-4.093 4.098 4.098 0 0 1 4.094 4.093 4.097 4.097 0 0 1-4.094 4.092z"/><path id="bj8ye" d="M857.337 202.025l-1.991 1.991V201.9a6.22 6.22 0 0 0-6.213-6.213h-9.151v.87h9.151a5.35 5.35 0 0 1 5.345 5.343v2.056l-1.99-1.992-.614.614 3.067 3.069 3.01-3.009z"/><path id="bj8yf" d="M862.823 231.23a1.405 1.405 0 0 1-2.397.993c-.258-.26-.401-.6-.408-.964V229.794h2.805zm-11.838 1.404v-1.37l.002-.034v-2.302h-.002v-6.045h-.868v6.045h-2.81v-7.794a4.14 4.14 0 0 1 4.137-4.135h.91a2.856 2.856 0 0 0 2.818 2.419 2.856 2.856 0 0 0 2.817-2.42h.702a4.14 4.14 0 0 1 4.137 4.136v7.794h-2.81v-6.045h-.868v7.45l-.002.892.002.033v1.376zm-2.27 0a1.4 1.4 0 0 1-1.403-1.408l.003-1.432h2.802v1.47a1.404 1.404 0 0 1-1.401 1.37zm8.395-15.635a1.988 1.988 0 0 1-1.938 1.552c-.946 0-1.74-.664-1.939-1.552zm6.585 4.135a5.01 5.01 0 0 0-5.004-5.003h-.666v-.002h-5.707v.002h-.874a5.01 5.01 0 0 0-5.004 5.003v9.62h.005v.471a2.257 2.257 0 0 0 .663 1.609c.43.43 1 .666 1.608.666.529 0 1.015-.182 1.401-.486v.486h9.9v-.484a2.273 2.273 0 0 0 3.673-1.786v-.477h.005z"/><path id="bj8yg" d="M854.66 221.873a.514.514 0 1 1 1.028 0 .514.514 0 0 1-1.028 0z"/><path id="bj8yh" d="M854.66 225.286a.514.514 0 1 1 1.028 0 .514.514 0 0 1-1.028 0z"/><path id="bj8yi" d="M854.66 228.698a.514.514 0 1 1 1.028 0 .514.514 0 0 1-1.028 0z"/></defs><g><g transform="translate(-822 -195)"><g><g><g><g><g><g><g><use fill="#f7941d" xlink:href="#bj8ya"/></g></g></g></g></g><g><g><g><g><g><use fill="#f7941d" xlink:href="#bj8yb"/></g></g></g></g></g><g><use fill="#f7941d" xlink:href="#bj8yc"/></g></g><g><g><g><g><g><use fill="#f7941d" xlink:href="#bj8yd"/></g></g></g></g></g><g><use fill="#f7941d" xlink:href="#bj8ye"/></g></g><g><use fill="#f7941d" xlink:href="#bj8yf"/></g><g><g><g><g><g><use fill="#f7941d" xlink:href="#bj8yg"/></g></g></g></g></g><g><g><g><g><g><use fill="#f7941d" xlink:href="#bj8yh"/></g></g></g></g></g><g><g><g><g><g><use fill="#f7941d" xlink:href="#bj8yi"/></g></g></g></g></g><g><g><text fill="#f7941d" style="font-kerning:normal" dominant-baseline="text-before-edge" font-family="'Mukta','Mukta-Light'" font-size="1" font-style="none" font-weight="lighter" transform="translate(843 195)"><tspan>$</tspan></text></g></g></g></g></svg>