<svg xmlns="http://www.w3.org/2000/svg" width="37" height="38" viewBox="0 0 37 38"><g><g><g><path fill="#f7941d" d="M11.587 23.348c-6.368 0-11.55-5.181-11.55-11.55C.037 5.427 5.219.245 11.587.245c6.37 0 11.551 5.182 11.551 11.551h-1.155c0-5.732-4.664-10.396-10.396-10.396-5.732 0-10.396 4.664-10.396 10.396 0 5.732 4.664 10.396 10.396 10.396z"/></g><g><path fill="#f7941d" d="M5.234 11.22v-1.155h6.353v1.155z"/></g><g><path fill="#f7941d" d="M5.234 13.53v-1.155h6.353v1.155z"/></g><g><path fill="#f7941d" d="M11.587 16.996a5.205 5.205 0 0 1-5.198-5.199A5.205 5.205 0 0 1 11.587 6.6c1.5 0 2.851.67 3.91 1.94l-.888.74c-.844-1.012-1.86-1.525-3.022-1.525a4.047 4.047 0 0 0-4.043 4.043 4.047 4.047 0 0 0 4.043 4.043c1.162 0 2.178-.513 3.022-1.525l.887.74c-1.058 1.27-2.41 1.94-3.909 1.94z"/></g><g><path fill="#f7941d" d="M35.844 25.659c0 5.732-4.663 10.395-10.395 10.395-5.733 0-10.397-4.663-10.397-10.395 0-5.733 4.664-10.397 10.397-10.397 5.732 0 10.395 4.664 10.395 10.397zm1.156 0c0-6.37-5.182-11.552-11.55-11.552-6.37 0-11.552 5.183-11.552 11.552s5.182 11.55 11.551 11.55S37 32.029 37 25.66z"/></g><g><path fill="#f7941d" d="M25.45 26.236c-.752 0-1.47-.306-2.027-.862a2.858 2.858 0 0 1-.862-2.026c0-.75.306-1.469.862-2.025a2.857 2.857 0 0 1 2.026-.862c.75 0 1.469.305 2.025.862.556.556.862 1.275.862 2.025h-1.154c0-.442-.187-.87-.525-1.208a1.694 1.694 0 0 0-2.418 0 1.71 1.71 0 0 0-.523 1.208c0 .442.186.871.523 1.209a1.71 1.71 0 0 0 1.21.523z"/></g><g><path fill="#f7941d" d="M25.45 30.857c-.752 0-1.47-.307-2.027-.863a2.859 2.859 0 0 1-.862-2.025h1.155c0 .442.186.87.523 1.208a1.694 1.694 0 0 0 2.418 0c.338-.337.525-.766.525-1.208 0-.442-.187-.872-.525-1.21a1.712 1.712 0 0 0-1.208-.523V25.08c.75 0 1.469.307 2.025.863.556.556.862 1.276.862 2.026 0 .75-.306 1.469-.862 2.025-.556.556-1.275.863-2.025.863z"/></g><g><path fill="#f7941d" d="M24.871 21.038v-1.733h1.155v1.733z"/></g><g><path fill="#f7941d" d="M24.871 32.012v-1.733h1.155v1.733z"/></g><g><path fill="#f7941d" d="M19.095 26.236v-1.155h1.156v1.155z"/></g><g><path fill="#f7941d" d="M30.647 26.236v-1.155h1.155v1.155z"/></g><g><path fill="#f7941d" d="M26.026 5.444h-1.155V4.289h1.155zm2.31 0h-1.154V4.289h1.154zm2.31 0h-1.155V4.289h1.156zm2.311 0h-1.155V4.289h1.155zm0 2.31h-1.155V6.6h1.155zm0 2.31h-1.155V8.91h1.155zm0 2.31h-1.155V11.22h1.155z"/></g><g><path fill="#f7941d" d="M5.234 26.236H4.08V25.08h1.155zm0 2.31H4.08v-1.154h1.155zm0 2.31H4.08v-1.155h1.155zm0 2.31H4.08v-1.155h1.155zm2.31 0H6.39v-1.155h1.155zm2.31 0H8.7v-1.155h1.155zm2.311 0H11.01v-1.155h1.155z"/></g></g></g></svg>