<?xml version="1.0" encoding="UTF-8" standalone="no"?>
<svg
   xmlns:dc="http://purl.org/dc/elements/1.1/"
   xmlns:cc="http://creativecommons.org/ns#"
   xmlns:rdf="http://www.w3.org/1999/02/22-rdf-syntax-ns#"
   xmlns:svg="http://www.w3.org/2000/svg"
   xmlns="http://www.w3.org/2000/svg"
   width="28"
   height="28"
   viewBox="0 0 28 28"
   version="1.1"
   id="svg44">
  <metadata
     id="metadata50">
    <rdf:RDF>
      <cc:Work
         rdf:about="">
        <dc:format>image/svg+xml</dc:format>
        <dc:type
           rdf:resource="http://purl.org/dc/dcmitype/StillImage" />
        <dc:title></dc:title>
      </cc:Work>
    </rdf:RDF>
  </metadata>
  <defs
     id="defs48">















	

		
		
		
		
		
	</defs>
  <g
     transform="translate(-2.9845784,2.0352902)"
     id="g140">
    <path
       d="m 4.6870578,16.889859 c 0.055419,0 0.1163803,-0.01108 0.1717995,-0.02771 0.2604703,-0.09421 0.3990183,-0.382393 0.3048056,-0.642863 C 3.5177127,11.647203 4.6094709,6.6539331 8.001126,3.1791492 12.844764,-1.7753273 20.814045,-1.8695399 25.768521,2.9740982 l 0.07759,0.077587 -1.518486,0.016626 c -0.277096,0.00554 -0.498773,0.2327607 -0.498773,0.5098567 0.0055,0.277096 0.227219,0.4987728 0.504315,0.4987728 h 0.0055 l 2.732167,-0.033252 c 0.133006,0 0.26047,-0.055419 0.354683,-0.1496318 0.09421,-0.094213 0.144089,-0.2216768 0.144089,-0.3546829 l -0.03325,-2.73216654 c -0.0055,-0.277096 -0.227219,-0.50431472 -0.509857,-0.4987728 -0.277096,0.005542 -0.498772,0.23276064 -0.498772,0.50985664 l 0.01663,1.5184861 -0.07759,-0.077587 C 21.113309,-2.972382 12.506707,-2.8726274 7.2806764,2.4808673 5.4684685,4.3374105 4.2270784,6.6539331 3.700596,9.1865905 3.1851975,11.647203 3.3625389,14.196486 4.2104527,16.562886 c 0.077587,0.199509 0.2715541,0.326973 0.4766051,0.326973 z"
       id="path30"
       style="fill:#c83737;fill-opacity:1;stroke-width:0.0554192" />
    <path
       d="m 25.968031,20.747036 c -2.455071,2.516031 -5.719262,3.779589 -8.988995,3.774047 -3.169978,0 -6.339956,-1.185971 -8.7784009,-3.574538 l -0.077587,-0.07759 1.5184861,-0.01663 c 0.277096,-0.0055 0.4987728,-0.232761 0.4987728,-0.509857 -0.0055,-0.277096 -0.2272187,-0.498772 -0.5043147,-0.498772 h -0.00554 l -2.7321665,0.03879 c -0.277096,0.0055 -0.4987728,0.232761 -0.4987728,0.509857 l 0.033252,2.732166 c 0.00554,0.277096 0.2272187,0.498773 0.5043147,0.498773 h 0.00554 c 0.277096,-0.0055 0.4987728,-0.232761 0.4987728,-0.509857 l -0.016626,-1.518486 0.077587,0.07759 c 2.6379535,2.576993 6.0573185,3.857177 9.4822245,3.857177 3.524661,0 7.049323,-1.363313 9.703902,-4.078854 1.812208,-1.856543 3.053598,-4.173065 3.580081,-6.705723 0.515398,-2.460612 0.338057,-5.0098954 -0.509857,-7.3762953 -0.09421,-0.2604702 -0.382393,-0.3990182 -0.642863,-0.3048056 -0.26047,0.094213 -0.399018,0.3823925 -0.304805,0.6428628 1.640408,4.5720841 0.54865,9.5653541 -2.843005,13.0401381 z"
       id="path32"
       style="fill:#c83737;fill-opacity:1;stroke-width:0.0554192" />
    <path
       d="m 16.984578,4.1545271 c -2.238935,0 -4.062227,1.8232917 -4.062227,4.0622274 v 2.0283425 h -0.177342 c -0.720449,0 -1.307893,0.587444 -1.307893,1.307893 v 5.586256 c 0,0.720449 0.587444,1.307893 1.307893,1.307893 h 8.473596 c 0.72045,0 1.307893,-0.587444 1.307893,-1.307893 V 11.55299 c 0,-0.720449 -0.587443,-1.307893 -1.307893,-1.307893 H 21.041264 V 8.2112126 c 0.0055,-2.2389357 -1.81775,-4.0566855 -4.056686,-4.0566855 z M 13.93098,8.2112126 c 0,-1.6847437 1.368855,-3.0535979 3.053598,-3.0535979 1.684744,0 3.053598,1.3688542 3.053598,3.0535979 V 10.245097 H 13.93098 Z m 7.592431,3.3417774 v 5.586256 c 0,0.166257 -0.133006,0.299263 -0.299264,0.299263 h -8.473596 c -0.166257,0 -0.299263,-0.133006 -0.299263,-0.299263 V 11.55299 c 0,-0.166257 0.133006,-0.299263 0.299263,-0.299263 h 8.473596 c 0.160716,0 0.299264,0.133006 0.299264,0.299263 z"
       id="path34"
       style="fill:#c83737;fill-opacity:1;stroke-width:0.0554192" />
    <path
       d="m 17.13421,12.894135 c -0.371309,-0.07205 -0.764785,0.133006 -0.925501,0.493231 -0.166257,0.365767 -0.05542,0.781411 0.277096,1.025255 0.0665,0.04988 0.08313,0.09976 0.08313,0.1718 0,0.365766 0,0.731533 0,1.0973 v 0 c 0,0.304805 0.31589,0.532024 0.637321,0.365766 0.133006,-0.0665 0.210593,-0.216134 0.205051,-0.371308 v 0 c 0,-0.365767 0,-0.731534 0,-1.0973 0,-0.07759 0.01663,-0.133006 0.08867,-0.182884 0.227219,-0.166257 0.343599,-0.399018 0.343599,-0.681656 -0.01108,-0.40456 -0.299264,-0.737075 -0.709366,-0.820204 z"
       id="path36"
       style="fill:#c83737;fill-opacity:1;stroke-width:0.0554192" />
  </g>
</svg>
