<svg xmlns="http://www.w3.org/2000/svg" xmlns:xlink="http://www.w3.org/1999/xlink" width="55" height="55" viewBox="0 0 55 55"><defs><path id="1egra" d="M1044.717 924.85h-1.702v-3.828c0-.544-.057-1.02-.336-1.577l-.036-.083c-.213-.57-.598-1.001-.91-1.314l-5.446-5.444a3.86 3.86 0 0 1-.754-1.072l-.09-.178v-.203c0-.143-.021-.287-.04-.42a3.86 3.86 0 0 1-.046-.515V894.22c0-.912.341-1.716 1.016-2.389.673-.673 1.477-1.014 2.388-1.014.91 0 1.716.34 2.389 1.014.672.674 1.014 1.477 1.014 2.389v9.359h-1.701v-9.359c0-.456-.164-.834-.516-1.186-.705-.705-1.667-.705-2.37 0-.354.352-.518.73-.518 1.186v15.995c0 .086.017.183.031.288.018.135.036.278.047.422.108.194.214.336.355.477l5.446 5.444c.392.392.95 1.011 1.284 1.878.435.89.495 1.66.495 2.297z"/><path id="1egrb" d="M1056.628 924.85h-1.701v-9.954c0-.738-.151-1.491-.45-2.237a5.768 5.768 0 0 0-1.258-1.926l-5.625-5.795a1.528 1.528 0 0 0-1.108-.507c-.479-.027-.91.173-1.253.515a1.534 1.534 0 0 0-.516 1.118c-.01.464.174.908.516 1.252l4.381 5.065c1.058 1.056 1.058 2.196 1.058 3.11h-1.702c0-.784 0-1.349-.6-1.95l-4.382-5.065a3.402 3.402 0 0 1-.973-2.448 3.198 3.198 0 0 1 1.041-2.31c.638-.639 1.545-.993 2.466-.988.891.02 1.712.389 2.31 1.041l5.6 5.768a7.478 7.478 0 0 1 1.625 2.489c.38.947.571 1.912.571 2.868z"/><path id="1egrc" d="M1059.181 929.105h-1.702v-3.403h-15.315v3.403h-1.701V924h18.718z"/><path id="1egrd" d="M1053.225 929.105v-1.702h1.702v1.702z"/><path id="1egre" d="M1082.154 924.85h-1.702v-3.828c0-.638.06-1.407.496-2.297.333-.867.891-1.486 1.285-1.878l5.445-5.444c.175-.176.298-.353.437-.63.08-.161.08-.353.08-.557V894.22c0-.456-.164-.834-.516-1.186-.806-.686-1.748-.707-2.455 0-.354.352-.519.73-.519 1.186v9.359h-1.701v-9.359c0-.912.342-1.716 1.016-2.39.672-.672 1.476-1.014 2.387-1.014.87 0 1.664.318 2.426.971.722.718 1.063 1.521 1.063 2.433v15.995c0 .298 0 .797-.259 1.316a3.922 3.922 0 0 1-.755 1.072l-5.446 5.446c-.312.31-.696.743-.911 1.314l-.036.082c-.279.557-.335 1.032-.335 1.576z"/><path id="1egrf" d="M1070.241 924.85h-1.7v-9.954c0-.955.191-1.92.57-2.868.411-1.028 1.038-1.82 1.597-2.457l5.645-5.818a3.439 3.439 0 0 1 2.5-1.023c.893.02 1.714.389 2.311 1.041a3.412 3.412 0 0 1 .989 2.465 3.194 3.194 0 0 1-1.003 2.273l-4.309 4.986c-.643.647-.643 1.212-.643 1.996h-1.702c0-.914 0-2.054 1.1-3.154l4.365-5.046c.307-.28.48-.67.49-1.092a1.71 1.71 0 0 0-.516-1.253 1.533 1.533 0 0 0-1.118-.514c-.463-.041-.908.172-1.251.514l-5.607 5.777c-.459.524-.953 1.149-1.268 1.936a6.025 6.025 0 0 0-.45 2.237z"/><path id="1egrg" d="M1084.705 929.105h-1.701v-3.403h-15.315v3.403h-1.702V924h18.718z"/><path id="1egrh" d="M1070.242 929.105v-1.702h1.701v1.702z"/><path id="1egri" d="M1061.733 918.895v-22.973h1.702v22.973z"/><path id="1egrj" d="M1061.733 929.105v-1.702h1.702v1.702z"/><path id="1egrk" d="M1061.733 925.701V924h1.702v1.701z"/><path id="1egrl" d="M1061.733 922.298v-1.701h1.702v1.7z"/><path id="1egrm" d="M1062.585 886.563c-.86 0-1.755-.38-2.39-1.015-.673-.672-1.014-1.477-1.014-2.389 0-.91.341-1.714 1.015-2.387.674-.674 1.477-1.016 2.389-1.016.91 0 1.715.341 2.388 1.016.673.673 1.014 1.476 1.014 2.387h-1.7c0-.455-.166-.832-.518-1.184-.705-.706-1.666-.706-2.37 0-.352.352-.516.729-.516 1.184 0 .457.164.833.517 1.185.38.382.86.517 1.185.517z"/><path id="1egrn" d="M1062.585 891.668c-.86 0-1.755-.379-2.39-1.016-.673-.672-1.014-1.476-1.014-2.387h1.702c0 .456.164.833.517 1.185.38.38.86.517 1.185.517.456 0 .833-.164 1.184-.517.382-.38.517-.862.517-1.185 0-.456-.165-.833-.517-1.185-.351-.353-.728-.517-1.184-.517v-1.702c.91 0 1.715.341 2.388 1.015.673.673 1.014 1.477 1.014 2.389 0 .86-.378 1.753-1.014 2.389-.673.673-1.478 1.014-2.388 1.014z"/><path id="1egro" d="M1061.733 880.607v-2.552h1.702v2.552z"/><path id="1egrp" d="M1061.733 893.37v-2.553h1.702v2.553z"/><path id="1egrq" d="M1062.585 876.354c-5.16 0-9.36 4.198-9.36 9.358s4.2 9.36 9.36 9.36c5.16 0 9.358-4.2 9.358-9.36 0-5.16-4.198-9.358-9.358-9.358zm0 20.418c-6.1 0-11.06-4.961-11.06-11.06 0-6.098 4.96-11.06 11.06-11.06 6.098 0 11.06 4.962 11.06 11.06 0 6.099-4.962 11.06-11.06 11.06z"/><path id="1egrr" d="M1068.54 886.563v-1.702h1.702v1.702z"/><path id="1egrs" d="M1054.927 886.563v-1.702h1.701v1.702z"/><path id="1egrt" d="M1066.84 904.43h2.55c.652 0 1.285-.274 1.781-.771.5-.498.772-1.13.772-1.781v-2.553h-2.552c-.65 0-1.283.274-1.781.772s-.771 1.13-.771 1.78zm2.55 1.702h-4.253v-4.254c0-1.106.45-2.164 1.27-2.984.819-.82 1.879-1.27 2.983-1.27h4.255v4.254c0 1.106-.451 2.165-1.27 2.985-.82.818-1.879 1.27-2.984 1.27z"/><path id="1egru" d="M1053.225 899.325v2.553c0 .65.274 1.283.772 1.78.498.498 1.13.773 1.78.773h2.553v-2.553c0-.651-.274-1.283-.772-1.78-.498-.499-1.13-.773-1.78-.773zm6.807 6.807h-4.255c-1.105 0-2.163-.45-2.983-1.27-.82-.82-1.27-1.878-1.27-2.984v-4.255h4.253c1.106 0 2.165.452 2.984 1.271.82.819 1.27 1.878 1.27 2.984z"/></defs><g><g transform="translate(-1035 -874)"><g><use fill="#0a2a7f" xlink:href="#1egra"/></g><g><use fill="#0a2a7f" xlink:href="#1egrb"/></g><g><use fill="#f87f0f" xlink:href="#1egrc"/></g><g><use fill="#f87f0f" xlink:href="#1egrd"/></g><g><use fill="#0a2a7f" xlink:href="#1egre"/></g><g><use fill="#0a2a7f" xlink:href="#1egrf"/></g><g><use fill="#f87f0f" xlink:href="#1egrg"/></g><g><use fill="#f87f0f" xlink:href="#1egrh"/></g><g><use fill="#0a2a7f" xlink:href="#1egri"/></g><g><use fill="#0a2a7f" xlink:href="#1egrj"/></g><g><use fill="#0a2a7f" xlink:href="#1egrk"/></g><g><use fill="#0a2a7f" xlink:href="#1egrl"/></g><g><use fill="#f87f0f" xlink:href="#1egrm"/></g><g><use fill="#f87f0f" xlink:href="#1egrn"/></g><g><use fill="#f87f0f" xlink:href="#1egro"/></g><g><use fill="#f87f0f" xlink:href="#1egrp"/></g><g><use fill="#f87f0f" xlink:href="#1egrq"/></g><g><use fill="#0a2a7f" xlink:href="#1egrr"/></g><g><use fill="#0a2a7f" xlink:href="#1egrs"/></g><g><use fill="#f87f0f" xlink:href="#1egrt"/></g><g><use fill="#f87f0f" xlink:href="#1egru"/></g></g></g></svg>