<svg xmlns="http://www.w3.org/2000/svg" xmlns:xlink="http://www.w3.org/1999/xlink" width="49" height="54" viewBox="0 0 49 54"><defs><path id="jdlta" d="M941.233 1057.086h-6.183v-1.668h5.493l4.514-4.515v-5.492h1.668v6.183z"/><path id="jdltb" d="M948.393 1060.422H935.05v-1.668h13.343v-50.036H935.05v-1.668h13.343c.456 0 .84.161 1.173.494.333.334.494.717.494 1.174v50.036c0 .42-.19.869-.494 1.173a1.588 1.588 0 0 1-1.173.495z"/><path id="jdltc" d="M946.725 1022.061h-1.668v-5.492l-4.514-4.515h-5.493v-1.668h6.183l5.492 5.492z"/><path id="jdltd" d="M935.884 1044.577h-.834v-1.668h.834c5.057 0 9.173-4.115 9.173-9.173s-4.116-9.174-9.173-9.174h-.834v-1.667h.834c5.978 0 10.841 4.863 10.841 10.841 0 5.978-4.863 10.841-10.84 10.841z"/><path id="jdlte" d="M935.05 1019.56v-4.17h1.668v4.17z"/><path id="jdltf" d="M935.05 1052.083v-4.17h1.668v4.17z"/><path id="jdltg" d="M935.884 1038.74h-.834v-1.669h.834a3.3 3.3 0 0 0 3.335-3.335 3.3 3.3 0 0 0-3.335-3.336h-.834v-1.668h.834c2.805 0 5.004 2.199 5.004 5.004 0 2.805-2.199 5.004-5.004 5.004z"/><path id="jdlth" d="M916.703 1012.888v-1.668h5.004v1.668z"/><path id="jdlti" d="M913.368 1012.888v-1.668h1.668v1.668z"/><path id="jdltj" d="M915.036 1056.252v-1.668h5.003v1.668z"/><path id="jdltk" d="M913.368 1048.747v-1.668h1.668v1.668z"/><path id="jdltl" d="M916.703 1048.747v-1.668h1.668v1.668z"/><path id="jdltm" d="M920.04 1048.747v-1.668h1.667v1.668z"/><path id="jdltn" d="M905.863 1008.718a2.505 2.505 0 0 0-2.502 2.502v45.032a2.505 2.505 0 0 0 2.502 2.502h23.35a2.505 2.505 0 0 0 2.501-2.502v-45.032a2.505 2.505 0 0 0-2.502-2.502zm23.35 51.704h-23.35c-2.3 0-4.17-1.87-4.17-4.17v-45.032c0-2.299 1.87-4.17 4.17-4.17h23.35c2.299 0 4.169 1.871 4.169 4.17v45.032c0 2.3-1.87 4.17-4.17 4.17z"/><path id="jdlto" d="M917.538 1034.57c-1.084 0-2.123-.442-2.925-1.245-.804-.802-1.245-1.842-1.245-2.925 0-1.083.441-2.122 1.245-2.924.802-.803 1.841-1.246 2.925-1.246 1.083 0 2.122.443 2.924 1.246.803.802 1.245 1.841 1.245 2.924h-1.668c0-.638-.268-1.257-.756-1.744a2.445 2.445 0 0 0-3.49 0c-.489.487-.757 1.106-.757 1.744 0 .638.268 1.258.756 1.745.488.489 1.107.757 1.746.757z"/><path id="jdltp" d="M917.538 1041.241c-1.084 0-2.122-.441-2.925-1.245-.804-.802-1.245-1.84-1.245-2.925h1.668c0 .639.268 1.258.756 1.746a2.448 2.448 0 0 0 3.491 0c.488-.488.756-1.107.756-1.746 0-.637-.268-1.256-.756-1.745-.488-.487-1.107-.756-1.745-.756v-1.668c1.083 0 2.122.442 2.924 1.245.803.802 1.245 1.842 1.245 2.924 0 1.084-.442 2.123-1.245 2.925-.803.804-1.841 1.245-2.924 1.245z"/><path id="jdltq" d="M916.703 1027.065v-2.502h1.668v2.502z"/><path id="jdltr" d="M916.703 1042.91v-2.503h1.668v2.502z"/><path id="jdlts" d="M908.364 1034.57v-1.668h1.668v1.668z"/><path id="jdltt" d="M925.043 1034.57v-1.668h1.668v1.668z"/><path id="jdltu" d="M902.527 1017.058v-1.668h30.021v1.668z"/><path id="jdltv" d="M902.527 1052.083v-1.668h30.021v1.668z"/></defs><g><g transform="translate(-901 -1007)"><g><use fill="#f87f0f" xlink:href="#jdlta"/></g><g><use fill="#f87f0f" xlink:href="#jdltb"/></g><g><use fill="#f87f0f" xlink:href="#jdltc"/></g><g><use fill="#f87f0f" xlink:href="#jdltd"/></g><g><use fill="#f87f0f" xlink:href="#jdlte"/></g><g><use fill="#f87f0f" xlink:href="#jdltf"/></g><g><use fill="#f87f0f" xlink:href="#jdltg"/></g><g><use fill="#0a2c7c" xlink:href="#jdlth"/></g><g><use fill="#0a2c7c" xlink:href="#jdlti"/></g><g><use fill="#0a2c7c" xlink:href="#jdltj"/></g><g><use fill="#0a2c7c" xlink:href="#jdltk"/></g><g><use fill="#0a2c7c" xlink:href="#jdltl"/></g><g><use fill="#0a2c7c" xlink:href="#jdltm"/></g><g><use fill="#0a2c7c" xlink:href="#jdltn"/></g><g><use fill="#f87f0f" xlink:href="#jdlto"/></g><g><use fill="#f87f0f" xlink:href="#jdltp"/></g><g><use fill="#f87f0f" xlink:href="#jdltq"/></g><g><use fill="#f87f0f" xlink:href="#jdltr"/></g><g><use fill="#0a2c7c" xlink:href="#jdlts"/></g><g><use fill="#0a2c7c" xlink:href="#jdltt"/></g><g><use fill="#0a2c7c" xlink:href="#jdltu"/></g><g><use fill="#0a2c7c" xlink:href="#jdltv"/></g></g></g></svg>