<svg xmlns="http://www.w3.org/2000/svg" width="43" height="43" viewBox="0 0 43 43"><g><g><g><path fill="#f7941d" d="M0 21.506C0 9.628 9.629 0 21.506 0s21.506 9.629 21.506 21.506-9.629 21.506-21.506 21.506C9.628 43.012 0 33.383 0 21.506z"/></g></g><g><g><g><path fill="#fff" d="M11.683 27.947H7.754a2.124 2.124 0 0 0 .21-.266l.058-.091a2.2 2.2 0 0 0 .267-.658c.008-.028.015-.055.019-.083l.018-.104a2.26 2.26 0 0 0 .013-.108c.002-.013.004-.026.004-.039.005-.058.007-.119.007-.18V8.402c0-.037.002-.072.004-.107l.005-.066c.006-.059.015-.115.028-.17a1.344 1.344 0 0 1 .071-.246 1.303 1.303 0 0 1 .178-.344c.03-.042.06-.085.091-.125 0-.002.002-.002.004-.004a.857.857 0 0 1 .066-.075l.053-.055a.031.031 0 0 1 .011-.01c.008-.008.013-.015.02-.02l.06-.052a.682.682 0 0 1 .08-.063l.13-.09a1.808 1.808 0 0 1 .306-.144c.124-.044.255-.073.388-.088l.06-.005c.04-.002.08-.004.12-.004a1.672 1.672 0 0 1 .57.106c.03.011.058.024.088.037a1.733 1.733 0 0 1 1 1.587zM4.56 26.419V21.86h3.057v4.558a1.53 1.53 0 0 1-1.528 1.528 1.53 1.53 0 0 1-1.529-1.528zM30.011 6H10.02c-.053 0-.108.001-.16.005l-.089.007c-.288.03-.566.113-.823.239l-.073.038a1.737 1.737 0 0 0-.1.06 1.69 1.69 0 0 0-.098.061 1.77 1.77 0 0 0-.18.132l-.005.006c-.05.04-.097.082-.141.127l-.007.006c-.008.008-.017.014-.024.02a1.508 1.508 0 0 0-.106.118c-.028.03-.054.06-.077.092-.006.005-.01.013-.015.02a2.038 2.038 0 0 0-.147.21 2.501 2.501 0 0 0-.12.219 2.81 2.81 0 0 0-.128.326c-.01.03-.02.06-.028.092a3.462 3.462 0 0 0-.032.137c-.009.038-.014.077-.022.116a2.48 2.48 0 0 0-.027.37v12.727h-3.79v5.29a2.264 2.264 0 0 0 2.261 2.262h5.595v3.777h16.662a5.002 5.002 0 0 1-.322-.733H12.416V8.4c0-.647-.258-1.233-.676-1.666h18.271c.96 0 1.743.78 1.743 1.743v16.356c.238-.06.484-.103.733-.129V8.476A2.478 2.478 0 0 0 30.011 6z"/></g></g><g><g><g><g><g><path fill="#fff" d="M16.175 10.654v-.733h12.011v.733z"/></g></g></g></g></g><g><g><g><g><g><path fill="#fff" d="M16.175 14.26v-.733h12.011v.733z"/></g></g></g></g></g><g><g><g><g><g><path fill="#fff" d="M16.175 17.864v-.733h12.011v.733z"/></g></g></g></g></g><g><g><g><g><g><path fill="#fff" d="M16.175 21.47v-.733h12.011v.733z"/></g></g></g></g></g><g><g><g><g><g><path fill="#fff" d="M16.175 25.075v-.733h8.184v.733z"/></g></g></g></g></g><g><g><g><g><g><path fill="#fff" d="M16.175 28.68v-.733h6.105v.733z"/></g></g></g></g></g><g><path fill="#fff" d="M38.258 30.703c-.363 2.603-2.613 4.564-5.236 4.564a5.289 5.289 0 0 1-5-3.542 5.252 5.252 0 0 1-.248-2.486 5.315 5.315 0 0 1 4.713-4.535 5.442 5.442 0 0 1 1.261.025 5.26 5.26 0 0 1 3.493 2.053 5.256 5.256 0 0 1 1.017 3.921zm-.432-4.363a5.982 5.982 0 0 0-3.977-2.337 5.844 5.844 0 0 0-1.362-.034 6.056 6.056 0 0 0-5.441 5.17 5.983 5.983 0 0 0 .205 2.585A6.029 6.029 0 0 0 33.021 36c2.987 0 5.55-2.234 5.965-5.193a5.989 5.989 0 0 0-1.16-4.467z"/></g><g><g><g><g><g><g><path fill="#fff" d="M33.145 29.59a5.149 5.149 0 0 1-.658-.248c-.311-.154-.506-.345-.506-.664 0-.334.195-.562.506-.668a1.38 1.38 0 0 1 .453-.07c.4 0 .936.17 1.363.478l.405-.502c-.359-.28-.887-.5-1.376-.588V26.27h-.54v1.023a2.298 2.298 0 0 0-.305.035c-.295.053-.54.162-.733.315-.326.256-.498.638-.498 1.08 0 .472.194.78.498 1.004.203.151.456.263.733.364.147.055.3.105.458.154.746.233 1.212.427 1.212 1.006 0 .51-.442.805-1.04.805-.203 0-.417-.035-.63-.105a2.34 2.34 0 0 1-.927-.566l-.284.34-.14.166c.253.244.534.433.83.566.266.12.543.196.825.228v.985h.541v-.978c.982-.08 1.561-.658 1.561-1.483v-.002c0-1.037-.753-1.301-1.748-1.618z"/></g></g></g></g></g></g></g></g></svg>