<svg xmlns="http://www.w3.org/2000/svg" xmlns:xlink="http://www.w3.org/1999/xlink" width="52" height="57" viewBox="0 0 52 57"><defs><path id="tk3ea" d="M802.756 1158.749v-1.742h1.743v1.742z"/><path id="tk3eb" d="M802.756 1162.235v-1.743h1.743v1.743z"/><path id="tk3ec" d="M802.756 1165.72v-1.742h1.743v1.743z"/><path id="tk3ed" d="M795.785 1158.749v-1.742h1.743v1.742z"/><path id="tk3ee" d="M795.785 1162.235v-1.743h1.743v1.743z"/><path id="tk3ef" d="M795.785 1165.72v-1.742h1.743v1.743z"/><path id="tk3eg" d="M811.574 1153.934c-1.036-1.924-2.98-3.026-5.332-3.026-2.353 0-4.297 1.102-5.333 3.026l-1.535-.827c1.35-2.506 3.854-3.943 6.868-3.943 3.014 0 5.516 1.437 6.867 3.943z"/><path id="tk3eh" d="M799.375 1153.934c-1.036-1.924-2.98-3.026-5.333-3.026-2.352 0-4.296 1.102-5.332 3.026l-1.535-.827c1.35-2.506 3.854-3.943 6.867-3.943 3.015 0 5.518 1.437 6.867 3.943z"/><path id="tk3ei" d="M787.176 1153.934c-1.036-1.924-2.98-3.026-5.333-3.026-2.352 0-4.297 1.102-5.333 3.026l-1.533-.827c1.349-2.506 3.853-3.943 6.866-3.943 3.015 0 5.518 1.437 6.867 3.943z"/><path id="tk3ej" d="M823.773 1153.934c-1.036-1.924-2.98-3.026-5.332-3.026s-4.297 1.102-5.332 3.026l-1.535-.827c1.35-2.506 3.853-3.943 6.867-3.943s5.517 1.437 6.867 3.943z"/><path id="tk3ek" d="M825.412 1154.392h-1.742c0-12.972-10.555-23.527-23.527-23.527-12.974 0-23.528 10.555-23.528 23.527h-1.743c0-13.934 11.336-25.269 25.27-25.269 13.933 0 25.27 11.335 25.27 25.27z"/><path id="tk3el" d="M813.213 1154.392h-1.742c0-12.754-5.189-23.527-11.328-23.527-6.14 0-11.328 10.773-11.328 23.527h-1.744c0-14.17 5.743-25.269 13.072-25.269 7.328 0 13.07 11.1 13.07 25.27z"/><path id="tk3em" d="M799.27 1177.048v-49.668h1.743v49.668z"/><path id="tk3en" d="M805.37 1183.149c-1.581 0-3.1-.649-4.275-1.825-1.132-1.036-1.825-2.646-1.825-4.276h1.744c0 1.151.481 2.278 1.285 3.018.875.873 1.955 1.339 3.07 1.339 1.153 0 2.28-.481 3.02-1.286.872-.874 1.338-1.955 1.338-3.071h1.744c0 1.581-.648 3.1-1.825 4.276-1.035 1.132-2.645 1.825-4.276 1.825z"/><path id="tk3eo" d="M812.834 1162.234h2.499l2.01-3.35-.882-.88-2.377.793-2.378-.793-.882.882zm3.486 1.744h-4.473l-3.217-5.364 2.604-2.604 2.85.95 2.85-.95 2.605 2.604z"/><path id="tk3ep" d="M816.698 1183.149h-5.227v-1.744h5.227c3.47 0 5.23-1.76 5.23-5.228 0-3.744-2.202-6.124-4.144-8.225-1.263-1.366-2.381-2.578-2.722-3.974h-1.954c-.343 1.396-1.461 2.608-2.724 3.974-1.942 2.101-4.142 4.481-4.142 8.225 0 1.016.108 1.69.36 2.26l-1.592.708c-.454-1.018-.511-2.12-.511-2.968 0-4.425 2.554-7.188 4.606-9.408 1.27-1.374 2.366-2.56 2.366-3.664v-.87h5.227v.87c0 1.104 1.097 2.29 2.366 3.664 2.05 2.22 4.606 4.983 4.606 9.408 0 4.43-2.541 6.972-6.972 6.972z"/><path id="tk3eq" d="M809.727 1163.978v-1.743h8.714v1.743z"/><path id="tk3er" d="M787.943 1165.72c-4.324 0-7.842 3.519-7.842 7.842 0 4.326 3.518 7.843 7.842 7.843s7.843-3.517 7.843-7.843c0-4.323-3.519-7.842-7.843-7.842zm0 17.429c-5.285 0-9.585-4.301-9.585-9.587 0-5.285 4.3-9.584 9.585-9.584 5.285 0 9.585 4.3 9.585 9.584 0 5.286-4.3 9.587-9.585 9.587z"/><path id="tk3es" d="M788.815 1177.92h-3.486v-1.743h3.486a.847.847 0 0 0 .604-.269.848.848 0 0 0 .267-.602.85.85 0 0 0-.269-.604.84.84 0 0 0-.602-.268h-1.744a2.586 2.586 0 0 1-1.834-.777 2.59 2.59 0 0 1-.78-1.837c0-.682.277-1.334.778-1.836a2.587 2.587 0 0 1 1.836-.778h3.486v1.742h-3.486a.844.844 0 0 0-.603.27.845.845 0 0 0-.268.602c0 .22.093.428.269.603a.843.843 0 0 0 .602.268h1.744c.681 0 1.334.276 1.835.777.502.504.779 1.156.779 1.838a2.59 2.59 0 0 1-.78 1.836 2.584 2.584 0 0 1-1.834.777z"/><path id="tk3et" d="M787.072 1170.077v-2.614h1.743v2.614z"/><path id="tk3eu" d="M787.072 1179.662v-2.614h1.743v2.614z"/></defs><g><g transform="translate(-774 -1127)"><g><use fill="#0a2a7f" xlink:href="#tk3ea"/></g><g><use fill="#0a2a7f" xlink:href="#tk3eb"/></g><g><use fill="#0a2a7f" xlink:href="#tk3ec"/></g><g><use fill="#0a2a7f" xlink:href="#tk3ed"/></g><g><use fill="#0a2a7f" xlink:href="#tk3ee"/></g><g><use fill="#0a2a7f" xlink:href="#tk3ef"/></g><g><use fill="#0a2a7f" xlink:href="#tk3eg"/></g><g><use fill="#0a2a7f" xlink:href="#tk3eh"/></g><g><use fill="#0a2a7f" xlink:href="#tk3ei"/></g><g><use fill="#0a2a7f" xlink:href="#tk3ej"/></g><g><use fill="#0a2a7f" xlink:href="#tk3ek"/></g><g><use fill="#0a2a7f" xlink:href="#tk3el"/></g><g><use fill="#0a2a7f" xlink:href="#tk3em"/></g><g><use fill="#0a2a7f" xlink:href="#tk3en"/></g><g><use fill="#f87f0f" xlink:href="#tk3eo"/></g><g><use fill="#f87f0f" xlink:href="#tk3ep"/></g><g><use fill="#0a2a7f" xlink:href="#tk3eq"/></g><g><use fill="#f87f0f" xlink:href="#tk3er"/></g><g><use fill="#f87f0f" xlink:href="#tk3es"/></g><g><use fill="#f87f0f" xlink:href="#tk3et"/></g><g><use fill="#f87f0f" xlink:href="#tk3eu"/></g></g></g></svg>