<svg xmlns="http://www.w3.org/2000/svg" xmlns:xlink="http://www.w3.org/1999/xlink" width="54" height="54" viewBox="0 0 54 54"><defs><path id="cpkla" d="M793.208 907.792c-9.137 0-16.571-7.434-16.571-16.57 0-9.137 7.434-16.57 16.571-16.57 9.136 0 16.57 7.433 16.57 16.57h-1.657c0-8.223-6.69-14.914-14.913-14.914-8.224 0-14.914 6.691-14.914 14.914 0 8.223 6.69 14.913 14.914 14.913z"/><path id="cpklb" d="M784.094 890.393v-1.657h9.114v1.657z"/><path id="cpklc" d="M784.094 893.707v-1.657h9.114v1.657z"/><path id="cpkld" d="M793.208 898.679c-4.112 0-7.457-3.346-7.457-7.457 0-4.112 3.345-7.457 7.457-7.457 2.15 0 4.09.962 5.607 2.784l-1.272 1.061c-1.211-1.453-2.669-2.188-4.335-2.188a5.806 5.806 0 0 0-5.8 5.8c0 3.198 2.601 5.8 5.8 5.8 1.666 0 3.124-.737 4.335-2.188l1.272 1.061c-1.516 1.82-3.456 2.784-5.607 2.784z"/><path id="cpkle" d="M813.092 896.192c-8.223 0-14.914 6.691-14.914 14.914 0 8.223 6.691 14.914 14.914 14.914 8.223 0 14.914-6.691 14.914-14.914 0-8.223-6.69-14.914-14.914-14.914zm0 31.485c-9.137 0-16.57-7.434-16.57-16.571s7.433-16.57 16.57-16.57c9.138 0 16.57 7.433 16.57 16.57s-7.432 16.571-16.57 16.571z"/><path id="cpklf" d="M813.092 911.934c-1.077 0-2.107-.438-2.905-1.236-.799-.798-1.237-1.83-1.237-2.906s.438-2.107 1.237-2.906c.798-.798 1.828-1.237 2.905-1.237 1.076 0 2.108.44 2.906 1.237.797.799 1.237 1.83 1.237 2.906h-1.657c0-.634-.267-1.25-.752-1.734a2.432 2.432 0 0 0-3.468 0c-.484.485-.751 1.1-.751 1.734 0 .633.267 1.25.751 1.734.485.485 1.1.752 1.734.752z"/><path id="cpklg" d="M813.092 918.563c-1.077 0-2.107-.44-2.905-1.238-.799-.798-1.237-1.828-1.237-2.905h1.657c0 .634.267 1.25.751 1.734.97.97 2.5.97 3.468 0 .485-.485.752-1.1.752-1.734 0-.633-.267-1.25-.752-1.734-.484-.484-1.1-.752-1.734-.752v-1.656c1.076 0 2.108.439 2.906 1.236.797.798 1.237 1.83 1.237 2.906 0 1.077-.44 2.107-1.237 2.905-.798.799-1.83 1.238-2.906 1.238z"/><path id="cpklh" d="M812.264 904.478v-2.486h1.657v2.486z"/><path id="cpkli" d="M812.264 920.22v-2.486h1.657v2.486z"/><path id="cpklj" d="M803.978 911.935v-1.657h1.658v1.657z"/><path id="cpklk" d="M820.549 911.935v-1.657h1.657v1.657z"/><path id="cpkll" d="M813.92 882.109h-1.657v-1.658h1.657zm3.316 0h-1.658v-1.658h1.657zm3.313 0h-1.657v-1.658h1.657zm3.314 0h-1.657v-1.658h1.657zm0 3.314h-1.657v-1.658h1.657zm0 3.313h-1.657v-1.657h1.657zm0 3.314h-1.657v-1.656h1.657z"/><path id="cpklm" d="M784.094 911.934h-1.656v-1.656h1.656zm0 3.315h-1.656v-1.657h1.656zm0 3.314h-1.656v-1.658h1.656zm0 3.314h-1.656v-1.657h1.656zm3.314 0h-1.657v-1.657h1.657zm3.315 0h-1.658v-1.657h1.658zm3.313 0h-1.657v-1.657h1.657z"/></defs><g><g transform="translate(-776 -874)"><g><use fill="#0a2a7f" xlink:href="#cpkla"/></g><g><use fill="#f87f0f" xlink:href="#cpklb"/></g><g><use fill="#f87f0f" xlink:href="#cpklc"/></g><g><use fill="#f87f0f" xlink:href="#cpkld"/></g><g><use fill="#0a2a7f" xlink:href="#cpkle"/></g><g><use fill="#f87f0f" xlink:href="#cpklf"/></g><g><use fill="#f87f0f" xlink:href="#cpklg"/></g><g><use fill="#f87f0f" xlink:href="#cpklh"/></g><g><use fill="#f87f0f" xlink:href="#cpkli"/></g><g><use fill="#0a2a7f" xlink:href="#cpklj"/></g><g><use fill="#0a2a7f" xlink:href="#cpklk"/></g><g><use fill="#0a2a7f" xlink:href="#cpkll"/></g><g><use fill="#0a2a7f" xlink:href="#cpklm"/></g></g></g></svg>