<svg width="132" height="80" viewBox="0 0 132 80" fill="none" xmlns="http://www.w3.org/2000/svg">
<path d="M2.95625 79.8823C1.47662 79.8803 -0.00200424 78.4064 2.03936e-06 76.9356L0.0702217 2.93964C0.0692186 1.46883 1.55085 -0.00199366 3.03048 2.02859e-06L129.043 0.117747C130.522 0.118745 132.001 1.59256 132 3.06438L131.93 77.0584C131.929 78.5302 130.447 80.001 128.967 80L2.95625 79.8823Z" fill="#0200A0"/>
<path d="M72.878 10.3V28H67.328V10.3H72.878Z" fill="white"/>
<path d="M82.7596 10.3C84.6096 10.3 86.2263 10.675 87.6096 11.425C89.0096 12.175 90.0846 13.2167 90.8346 14.55C91.5846 15.8834 91.9596 17.4 91.9596 19.1C91.9596 20.7834 91.5846 22.3 90.8346 23.65C90.0846 25 89.0096 26.0667 87.6096 26.85C86.2263 27.6167 84.6096 28 82.7596 28H75.3846V10.3H82.7596ZM82.2596 23.05C83.5096 23.05 84.5013 22.7084 85.2346 22.025C85.968 21.3417 86.3346 20.3667 86.3346 19.1C86.3346 17.8334 85.968 16.8584 85.2346 16.175C84.5013 15.4917 83.5096 15.15 82.2596 15.15H80.9346V23.05H82.2596Z" fill="white"/>
<path d="M94.064 62.18L66.616 62.154L66.619 59.295L94.066 59.321L94.064 62.18Z" fill="white"/>
<path d="M94.058 67.8991L66.611 67.8731L66.614 65.0131L94.061 65.0391L94.058 67.8991Z" fill="white"/>
<path d="M94.053 73.6171L66.606 73.5911L66.608 70.7311L94.056 70.7581L94.053 73.6171Z" fill="white"/>
<path d="M121.532 39.333L66.6379 39.282L66.6409 36.422L121.535 36.474L121.532 39.333Z" fill="white"/>
<path d="M121.527 45.051L66.6329 45L66.6349 42.14L121.53 42.192L121.527 45.051Z" fill="white"/>
<path d="M121.522 50.77L66.627 50.718L66.63 47.859L121.524 47.911L121.522 50.77Z" fill="white"/>
<path d="M121.5 73.642L96.912 73.619L96.926 59.324L121.514 59.347L121.5 73.642Z" fill="white"/>
<path d="M54.746 73.789L9 73.746L9.043 28L54.789 28.043L54.746 73.789Z" fill="white"/>
<mask id="mask0" mask-type="alpha" maskUnits="userSpaceOnUse" x="9" y="28" width="46" height="46">
<path d="M54.746 73.789L9 73.746L9.043 28L54.789 28.043L54.746 73.789Z" fill="white"/>
</mask>
<g mask="url(#mask0)">
<path d="M55.1719 102.208L39.0779 102.083C37.1678 92.0267 35.4257 82.7297 35.3576 81.8095C35.2694 80.6103 35.8148 75.9689 36.3047 72.0906L36.3358 71.8317L36.4114 71.2401L36.4476 70.9729L36.4812 70.6947L37.019 66.4382V66.4323C37.1291 65.4625 37.8905 62.1431 38.2914 60.4371L38.3258 60.2884C38.4014 59.9556 38.467 59.6749 38.5191 59.4698L38.5359 59.4026L38.1426 59.3438C38.1426 59.3438 38.493 59.0362 38.6157 59.0278C38.7317 59.0194 40.5301 59.6387 40.8184 59.7404L50.0398 61.1018C50.528 61.2901 52.097 62.291 52.2558 63.0843C52.4138 63.8776 53.7298 72.2233 53.5441 77.7799C53.4248 81.3195 53.5315 86.2567 53.7828 90.4964C53.9282 92.91 54.1215 95.0958 54.345 96.6681C54.5122 97.8278 54.8156 99.8498 55.1719 102.207V102.208Z" fill="#F2F5FA"/>
<path d="M25.2295 60.2992C25.0186 60.3614 24.753 60.4421 24.448 60.5362L24.3312 60.2278C24.5371 60.127 24.6867 60.0606 24.7177 60.0572C24.8362 60.0471 25.2018 60.2816 25.2304 60.2992H25.2295Z" fill="#F2F5FA"/>
<path d="M48.3238 65.4357C47.8205 67.6903 46.7917 69.794 45.3212 71.5755C43.6858 73.5571 41.695 74.9252 39.5983 75.5101C37.457 76.1085 35.2502 75.8942 33.0812 75.5942C30.85 75.2849 28.6053 74.8841 26.4825 73.8529C24.3614 72.8226 22.058 71.5722 20.684 69.0351C19.31 66.4988 18.6469 63.0642 19.252 59.9574C19.7411 57.4497 21.2823 54.8815 21.742 52.3629C22.0504 50.6687 21.9798 48.8375 21.5403 47.2089C21.2739 46.2156 20.8764 45.3038 20.6117 44.3121C19.8881 41.6187 20.331 38.5699 21.7084 36.1538C22.9126 34.0436 24.811 32.7604 26.9523 32.0242C28.286 31.5662 29.6903 31.3082 31.1105 31.1973C32.5559 31.083 34.0165 31.1216 35.4384 31.2527C45.5195 32.1897 41.6471 45.2399 43.8758 51.3553C43.8993 51.42 43.9228 51.4822 43.948 51.5452C44.9397 54.0941 46.7566 55.6193 47.8255 58.1186C48.7457 60.2666 48.8541 63.0197 48.3238 65.4357V65.4357Z" fill="#0600A0"/>
<g opacity="0.33">
<path opacity="0.33" d="M24.4488 50.2678L24.7497 52.794C24.8219 53.4066 24.4152 54.3461 24.2992 54.9479C24.0614 56.1916 23.6992 57.4891 23.6454 58.7858C23.6185 59.4733 23.6723 60.1725 23.89 60.8305C24.0698 61.375 24.5648 61.886 24.2623 62.4801C23.7051 63.5701 43.8488 64.2399 43.5967 61.9423C43.5799 61.8011 43.5665 61.6574 43.5404 61.5196C43.5303 61.9717 43.4505 62.0994 43.1639 61.7036C42.5026 60.7842 42.4261 59.5531 42.0597 58.5077C41.4454 56.7572 40.3596 55.3101 39.5133 53.6789C38.7293 52.1645 38.1183 50.4855 37.9603 48.7795C36.2208 30.2031 37.9603 48.7795 37.9603 48.7795" fill="#000005"/>
</g>
<path d="M52.2021 99.9136C52.25 100.541 52.3374 101.423 52.4542 102.462L17.14 102.188C16.7215 98.0051 13.6727 84.9096 13.4399 81.7657C13.2004 78.5379 11.9524 67.0668 12.286 66.2037C12.6222 65.3406 13.2878 64.033 13.7735 63.8305C14.0895 63.696 19.1956 62.1371 22.6504 61.085C23.3294 60.8774 23.9462 60.6883 24.4479 60.5362L26.3186 65.4726C26.3186 65.4726 26.4556 65.1087 26.2522 64.0599C25.7093 62.6061 25.1177 61.0447 24.8538 60.4161L25.232 60.2992L25.7564 60.1396L25.7959 60.1278L31.6928 60.8236L37.5611 59.2563C37.5611 59.2563 49.3532 61.0245 49.8633 61.1556C50.3709 61.2875 51.2231 62.4809 51.6802 63.2851C52.1391 64.0902 52.5945 75.6184 52.834 78.8463C53.0736 82.0767 51.9231 96.1344 52.2038 99.9144L52.2021 99.9136Z" fill="white"/>
<path d="M39.5099 59.5496C39.4553 59.8345 39.3166 60.1034 39.1015 60.348C35.0484 64.9188 30.9482 65.755 26.4034 62.8842C26.047 62.658 25.6991 62.4186 25.3605 62.1666C25.0546 61.9405 24.7462 61.6959 24.4344 61.4346C24.1823 61.2237 24.0067 60.9757 23.9109 60.7001L24.7361 60.4497L25.7958 60.1278L25.8723 60.1362L27.2673 60.3026L31.6927 60.8236L37.1132 59.3757L37.5585 59.2563H37.5611L38.6527 59.4194C38.9048 59.4589 39.1939 59.5017 39.5099 59.5496V59.5496Z" fill="white"/>
<g opacity="0.14">
<path opacity="0.14" d="M38.5553 59.4051C37.9368 59.311 37.5611 59.2563 37.5594 59.2563C37.6351 59.2732 37.6888 59.2832 37.693 59.2774C37.3813 59.7186 37.0291 60.1118 36.6426 60.4589L36.6737 60.464C36.6737 60.464 37.9796 60.706 38.341 60.2261C38.4796 60.0379 38.5813 59.7278 38.6519 59.4194L38.5553 59.4051Z" fill="#0600A0"/>
</g>
<path d="M55.2156 102.483L39.13 102.357C39.1116 102.265 39.0964 102.175 39.0779 102.083C37.1678 92.0267 35.4257 82.7297 35.3576 81.8095C35.2694 80.6102 35.8148 75.9689 36.3047 72.0905L36.3358 71.8317L36.4114 71.2401L36.4476 70.9728L36.4812 70.6947C36.7526 68.5795 36.977 66.9004 37.0131 66.4911L37.0199 66.4382V66.4323L37.0283 66.3701C37.1568 65.3524 37.8703 62.2346 38.2687 60.5354L38.2914 60.4371L38.3258 60.2883L38.3409 60.2262L38.3426 60.2152C38.4157 59.9001 38.4729 59.6597 38.5065 59.5261L38.5191 59.4698L38.5359 59.4026L40.8184 59.7404L43.984 60.2085L44.7908 60.3262L44.9379 60.3488C45.532 60.4354 46.127 60.5253 46.7211 60.6119C47.3539 60.706 47.9851 60.8001 48.617 60.8917H48.6212L49.6532 61.0455L49.87 61.0791L50.0398 61.1018C50.528 61.2901 52.097 62.291 52.255 63.0843C52.276 63.1952 52.3239 63.4624 52.3861 63.8507C52.7567 66.1953 53.703 73.015 53.5441 77.779C53.4248 81.3195 53.5315 86.2567 53.7828 90.4964L53.7912 90.6334C53.9357 92.9915 54.124 95.1252 54.345 96.6673C54.5122 97.8278 54.8156 99.8497 55.1719 102.207L55.2156 102.483Z" fill="#0600A0"/>
<g opacity="0.13">
<path opacity="0.13" d="M38.4948 59.9884C38.4948 59.9884 38.8797 59.6817 39.0141 59.6724C39.1511 59.664 41.4798 60.3994 41.4798 60.3994C41.4798 60.3994 44.4808 65.0458 44.532 65.6668C44.5505 65.8988 43.9883 66.7341 42.5857 67.9484C40.2217 69.9914 36.4838 72.7352 36.4838 72.7352L37.2737 67.0148C37.2737 67.0148 38.5368 61.428 38.9259 60.0481L38.4948 59.9884Z" fill="#606060"/>
</g>
<path d="M43.9623 65.2668C44.0077 65.8886 36.3048 72.0906 36.3048 72.0906L36.3359 71.8317L36.4115 71.2401L36.4477 70.9729L36.4813 70.6947L37.0191 66.4382V66.4324L37.0275 66.3702C37.0275 66.3702 37.7939 62.6557 38.2688 60.5346L38.2915 60.4371L38.3259 60.2884L38.341 60.2262C38.3898 60.2346 40.0638 60.5699 41.3899 60.6144C42.2681 62.0473 43.9278 64.8096 43.9623 65.2668V65.2668Z" fill="#6B51EF"/>
<path d="M13.9097 63.8213C13.9097 63.8213 11.9012 64.8549 10.5465 67.1475C9.78344 68.4433 1.69569 92.4184 1.17717 93.9789C0.662026 95.5387 1.23684 99.1834 3.34198 101.152C3.56888 101.367 3.91595 101.686 4.35295 102.087L13.1046 102.155C10.8053 99.6506 8.72625 97.3782 8.51363 97.1236C8.02622 96.5345 7.73545 95.9362 8.2674 94.7285C8.79768 93.5201 16.2846 80.7767 16.2846 80.7767C16.2846 80.7767 18.8385 67.3374 13.9097 63.8213V63.8213Z" fill="#0600A0"/>
<path d="M24.8538 60.416C24.8538 60.416 27.1152 66.0322 27.4035 67.2029C27.6892 68.3735 31.1482 80.0656 31.2995 82.1094C31.3667 83.0195 31.0255 92.2267 30.6246 102.291L14.7122 102.167C14.7139 101.116 14.7122 100.234 14.7097 99.6043C14.6836 95.2285 13.7222 86.2718 12.718 80.806C11.7162 75.3385 11.786 66.886 11.8255 66.0801C11.865 65.2717 13.2693 64.0506 13.7247 63.7943L24.8538 60.416Z" fill="#0600A0"/>
<g opacity="0.14">
<path opacity="0.14" d="M27.2691 66.8106C27.2052 67.0921 26.1749 64.3794 25.3606 62.1667C25.1245 61.5221 24.9068 60.9212 24.7362 60.4498L25.7959 60.1279L25.8724 60.1363C26.1406 60.4145 26.4315 60.6697 26.7422 60.8994C26.5447 61.1876 26.4043 61.507 26.3783 61.8524C26.3531 62.1852 26.3657 62.5306 26.4035 62.8844C26.5842 64.608 27.359 66.4206 27.2691 66.8106V66.8106Z" fill="#0600A0"/>
</g>
<g opacity="0.13">
<path opacity="0.13" d="M24.7732 60.2968C24.7732 60.2968 24.3824 60.0447 24.2605 60.0531C24.1353 60.0631 22.1478 61.1018 22.1478 61.1018C22.1478 61.1018 19.8452 66.392 19.8914 67.013C19.9368 67.6349 28.4716 72.6351 28.4716 72.6351L26.9136 67.0828C26.9136 67.0828 24.9471 61.7246 24.3925 60.4136L24.7732 60.2968Z" fill="#606060"/>
</g>
<path d="M27.3716 67.0861C27.3716 67.0861 26.8396 65.6364 26.2522 64.0599C25.7093 62.6061 25.1177 61.0446 24.8538 60.416L25.232 60.2992H25.2295C25.2017 60.2816 24.8362 60.0471 24.7185 60.0572C24.6866 60.0606 24.537 60.127 24.3319 60.2278C23.7891 60.4892 22.8596 60.974 22.6503 61.085L22.6083 61.1051C22.6083 61.1051 20.3057 66.3945 20.3502 67.0163C20.3973 67.6382 28.9305 72.6376 28.9305 72.6376L27.3716 67.0861Z" fill="#6B51EF"/>
<path d="M37.6931 59.2774C37.2555 59.8981 36.7203 60.4439 36.1081 60.8935C33.3921 62.8961 29.4331 62.8969 26.7422 60.8993C26.8926 60.6792 27.0783 60.4783 27.2683 60.3027C27.8162 59.7892 28.4179 59.4808 28.4179 59.4808L28.3818 59.4606C28.6969 59.1774 28.8885 58.7438 28.8633 58.3202C28.8515 58.0992 28.8196 57.542 28.7784 56.8496L28.7028 55.5167L28.5145 52.2469L28.2683 49.6837C28.2683 49.6837 29.9306 49.8585 31.655 50.1661C33.3223 49.5375 34.9468 49.0518 34.9468 49.0518L34.9972 51.6334L35.14 54.1125C35.2258 55.5991 35.3224 57.2807 35.3484 57.7051C35.4014 58.6303 36.3149 58.9766 37.088 59.1379C37.1183 59.1455 37.3906 59.2178 37.5586 59.2564C37.6359 59.2732 37.6889 59.2833 37.6931 59.2774V59.2774Z" fill="#FFBD00"/>
<path d="M28.4178 59.4807C28.4178 59.4807 27.8161 59.7892 27.2682 60.3026C27.0774 60.4783 26.8925 60.6791 26.7421 60.8993C26.4314 60.6693 26.1404 60.4138 25.8723 60.1354L25.842 60.1026C25.8866 60.0589 26.0362 60.0581 26.095 60.048C26.2824 60.0119 26.4715 59.9816 26.6606 59.9522C27.1497 59.8715 27.6799 59.8824 28.1279 59.6413C28.2195 59.5908 28.3043 59.5312 28.3816 59.4606L28.4178 59.4807Z" fill="#DD9F05"/>
<path d="M22.6604 47.039C22.6086 47.051 22.557 47.0641 22.5058 47.0785H22.5033C22.0414 47.2179 21.6402 47.5094 21.365 47.9056C21.0897 48.3018 20.9566 48.7795 20.9872 49.261C21.0051 49.5405 21.0779 49.8138 21.2014 50.0652C21.325 50.3166 21.4969 50.5412 21.7073 50.7261C21.9177 50.911 22.1626 51.0526 22.4278 51.1428C22.693 51.233 22.9733 51.2701 23.2529 51.2518C23.5325 51.2343 23.8059 51.1617 24.0575 51.0384C24.309 50.915 24.5337 50.7431 24.7187 50.5328C24.9038 50.3224 25.0454 50.0775 25.1357 49.8123C25.2259 49.547 25.2629 49.2666 25.2446 48.987C25.2243 48.6627 25.13 48.3473 24.9689 48.0651C24.8078 47.783 24.5841 47.5415 24.3151 47.3592C24.421 47.9811 24.3857 48.7677 23.5924 48.9122L23.5134 47.6836C23.4806 47.1878 22.9991 46.9978 22.6604 47.039V47.039Z" fill="#FFBD00"/>
<path d="M37.5594 59.2564L37.114 59.3757C36.9249 59.7261 36.7383 60.0732 36.5459 60.4203C36.3845 60.7043 34.7332 59.511 34.5668 59.3967C33.655 58.774 32.9096 58.0395 31.7137 58.0899C29.9061 58.1656 29.4472 57.2622 28.7783 56.8487C27.9749 56.3529 27.8035 55.71 27.8035 55.71L28.7027 55.5167L35.1399 54.1133C35.2256 55.5991 35.3223 57.2815 35.3483 57.705C35.4013 58.6303 36.3156 58.9765 37.0879 59.1379C37.1182 59.1454 37.3904 59.2177 37.5585 59.2564H37.5594Z" fill="#DD9F05"/>
<path d="M38.0049 45.76C38.4954 45.784 38.9627 45.9765 39.3278 46.3051C39.6929 46.6336 39.9335 47.0781 40.0089 47.5634C40.0844 48.0487 39.9901 48.5452 39.742 48.9691C39.4938 49.393 39.1071 49.7183 38.647 49.8901C38.1868 50.0619 37.6815 50.0697 37.2163 49.9122C36.7511 49.7547 36.3544 49.4415 36.0933 49.0255C35.8322 48.6095 35.7226 48.1161 35.7831 47.6287C35.8435 47.1413 36.0702 46.6896 36.425 46.35C36.4224 46.9802 36.5888 47.7509 37.3964 47.7601L37.2687 46.5374C37.22 46.0407 37.6628 45.7735 38.0049 45.76V45.76Z" fill="#FFBD00"/>
<path d="M29.4693 36.0327C25.8263 36.3117 22.3799 38.9336 22.7749 43.6658L23.3253 50.2862C23.6598 54.2898 27.2095 57.2924 31.2114 56.9588C35.2158 56.6243 38.2176 53.0763 37.8839 49.0719L37.3335 42.4523C36.9478 37.8159 33.1089 35.7537 29.4693 36.0318V36.0327Z" fill="#FFBD00"/>
<path d="M55.2156 102.483L53.6223 102.47C53.4164 100.686 52.5197 97.7429 50.1045 92.8931C44.0933 80.8194 47.264 65.9894 47.3128 65.7557C46.9707 67.7004 47.0548 69.7996 47.1615 71.4837C47.3043 73.7006 47.7472 75.9007 48.2909 78.0941C48.6027 79.3547 50.9885 87.3466 53.7828 90.4963C53.9282 92.9099 54.1206 95.0957 54.345 96.668C54.5181 97.8723 54.84 100.007 55.2156 102.483V102.483Z" fill="#6B51EF"/>
<path d="M40.9798 42.8254C40.7302 44.1397 40.0772 45.4146 39.4965 46.5692C38.7612 46.5466 38.5099 47.0945 38.4965 47.5676L38.3763 51.3955C36.4199 51.3199 36.0367 47.4827 36.3065 44.2557L36.9763 45.223L38.0242 40.4547L28.7667 38.1798L24.0841 38.1428L21.8596 40.7892L23.2908 45.6675C23.2908 45.6675 23.4773 45.4431 23.753 45.1356C23.7404 45.3036 23.7253 45.4709 23.7118 45.6381C23.6059 46.9474 23.2244 48.3164 23.216 49.6215C23.2143 46.0289 21.7176 42.9019 20.9932 39.4698C20.7226 38.1756 20.605 36.7982 21.0487 35.5511C22.1327 32.514 26.3069 30.9627 29.1062 32.5342C30.3768 33.2443 31.7693 33.7258 33.2299 33.825C33.5072 33.8443 33.7862 33.8502 34.0652 33.8502C34.54 34.2099 35.0384 34.5519 35.556 34.8696C38.2847 36.5335 40.2352 39.2227 40.8806 42.3531C40.9117 42.5086 40.947 42.6657 40.9798 42.8254V42.8254Z" fill="#0600A0"/>
<path d="M58.5797 69.9123C58.0436 69.3291 53.5173 63.6423 51.1071 61.7086C50.5634 61.2741 50.1281 61.0295 49.8701 61.0783C49.8279 61.0845 49.788 61.1012 49.7541 61.127C49.6877 61.18 49.6222 61.2304 49.5583 61.2875C48.2742 62.3825 47.6238 64.0087 47.3145 65.7533L48.4062 67.9046C48.1263 67.4021 47.3053 66.2844 47.312 65.781C47.1002 69.3459 46.8052 73.0065 47.4338 76.5437C48.0246 79.8463 49.3272 82.9666 50.834 85.9474C51.1811 86.6391 52.4189 89.1199 53.7921 90.6325C54.7123 91.6494 55.6939 92.2267 56.5107 91.5376C56.6477 91.42 56.7965 91.3115 56.9494 91.2073C58.7075 90.0199 61.479 89.5468 63.5934 88.5711C63.9077 88.4274 64.2102 88.2686 64.4892 88.0963C65.2775 87.6122 65.9044 87.0097 66.2498 86.1954C69.0239 79.6354 62.5698 74.257 58.5797 69.9123Z" fill="#0600A0"/>
<path d="M28.7665 38.1799L24.084 38.1429L21.8595 40.7893L23.2907 45.6676C23.2907 45.6676 23.4772 45.4433 23.7529 45.1357C23.7865 44.7844 23.8201 44.4323 23.8453 44.081C23.8705 43.7247 23.8949 43.3692 23.9075 43.0137C23.9176 42.6986 23.9193 42.3835 23.8688 42.0708C23.8542 41.9822 23.8374 41.8939 23.8184 41.8061C23.7848 41.6011 23.7713 41.4002 23.8848 41.2019C24.0117 40.9784 24.2462 40.8288 24.4899 40.7582C24.9647 40.6237 25.4815 40.7263 25.9521 40.8338C26.3849 40.9347 26.8706 40.9943 27.2463 40.7573C27.6076 40.5296 27.7883 40.0666 28.1749 39.8783C28.5657 39.6867 29.0287 39.8355 29.4355 39.9859C30.7775 40.48 32.1179 41.1321 33.555 41.2632C34.6222 41.3599 35.7122 41.3935 36.7845 41.3179C36.5711 42.107 36.4005 43.144 36.3064 44.2558L36.9761 45.2231L38.0241 40.4548L28.7665 38.1799Z" fill="#0600A0"/>
<path d="M36.7846 41.3178C36.5712 42.1069 36.4006 43.1439 36.3064 44.2557L35.2518 42.7296C35.2518 42.7296 30.7625 41.3169 29.1969 41.8556C27.6313 42.3934 26.5203 43.6725 25.9724 43.3918C25.5858 43.196 24.4143 44.4028 23.7538 45.1356C23.7857 44.7843 23.8202 44.4322 23.8462 44.0809C23.8714 43.7246 23.895 43.3691 23.9076 43.0136C23.9177 42.6985 23.9193 42.3833 23.8689 42.0707C23.8543 41.9821 23.8375 41.8938 23.8185 41.806C23.7849 41.601 23.7714 41.4001 23.8849 41.2018C24.0118 40.9782 24.2462 40.8287 24.49 40.7581C24.9648 40.6236 25.4816 40.7261 25.9522 40.8337C26.385 40.9345 26.8707 40.9942 27.2464 40.7572C27.6077 40.5295 27.7884 40.0664 28.175 39.8782C28.5658 39.6866 29.0288 39.8353 29.4355 39.9858C30.7776 40.4799 32.118 41.132 33.5551 41.2631C34.6223 41.3598 35.7123 41.3934 36.7846 41.3178V41.3178Z" fill="#DD9F05"/>
<path d="M37.693 59.2774C37.3898 59.7068 37.0395 60.1008 36.6485 60.4522C36.64 60.4606 36.6039 60.4497 36.5476 60.4303L37.1132 59.3757L37.5586 59.2563C37.6359 59.2732 37.6888 59.2832 37.693 59.2774V59.2774Z" fill="#FDB2D0"/>
<path d="M41.3899 60.6144C40.0638 60.5699 38.3898 60.2354 38.341 60.2262L38.3427 60.2152C38.4049 59.943 38.4604 59.7085 38.5066 59.5261L38.5192 59.4698L38.536 59.4026L38.1427 59.3438C38.1427 59.3438 38.4931 59.0362 38.6158 59.0278C38.7318 59.0194 40.5302 59.6387 40.8184 59.7404L40.8571 59.7522C40.8571 59.7522 41.0714 60.0967 41.3899 60.6144V60.6144Z" fill="#FF5500"/>
<path d="M41.3899 60.6144C40.0638 60.5699 38.3898 60.2354 38.341 60.2262L38.3427 60.2152C38.4049 59.943 38.4604 59.7085 38.5066 59.5261L38.5192 59.4698L38.536 59.4026L38.1427 59.3438C38.1427 59.3438 38.4931 59.0362 38.6158 59.0278C38.7318 59.0194 40.5302 59.6387 40.8184 59.7404L40.8571 59.7522C40.8571 59.7522 41.0714 60.0967 41.3899 60.6144V60.6144Z" fill="#0600A0"/>
<path d="M43.9842 60.2086C43.4841 60.2136 43.0547 60.2708 42.8278 60.4203C42.5631 60.5918 42.016 60.6363 41.3899 60.6136C41.0714 60.0968 40.8571 59.7522 40.8571 59.7522L40.8185 59.7405L43.9842 60.2086Z" fill="#FF7F00"/>
<path d="M49.8002 61.1337C49.7834 61.1474 49.7706 61.1653 49.7633 61.1857C49.756 61.2062 49.7545 61.2282 49.759 61.2494C49.7634 61.2706 49.7736 61.2902 49.7884 61.3059C49.8033 61.3217 49.8222 61.3331 49.8431 61.3388C50.1524 61.4211 50.4364 61.5758 50.6683 61.796C51.086 62.1909 51.7171 62.8624 52.3861 63.8507C53.0987 64.9028 53.8508 66.3155 54.4299 68.1332C55.9535 72.9191 61.6319 74.7083 62.879 79.6774C63.6177 82.6154 61.7184 87.382 62.8084 88.9518C63.1218 88.8072 64.2101 88.2686 64.4891 88.0963C65.2774 87.6122 65.9043 87.0097 66.2497 86.1954C69.0238 79.6354 62.5697 74.257 58.5796 69.9123C58.0435 69.3291 53.5172 63.6423 51.107 61.7086C50.5633 61.2741 50.128 61.0295 49.87 61.0783L49.8002 61.1337Z" fill="#6B51EF"/>
<path d="M49.692 61.0573C49.5802 61.1178 49.4315 61.1506 49.3138 61.17C48.6482 61.2775 47.9759 61.2187 47.3087 61.1657C46.6355 61.1111 45.9641 61.0204 45.2977 60.9153C44.8647 60.8439 44.4325 60.7683 44.001 60.6884C43.6108 60.618 43.2136 60.594 42.8177 60.617C42.5908 60.6287 42.3673 60.6498 42.1404 60.6363C42.0479 60.633 41.4303 60.68 41.3899 60.6145C41.0714 60.0968 40.8571 59.7522 40.8571 59.7522L40.8185 59.7405L43.9842 60.2086L44.7909 60.3262L44.938 60.3489C45.5321 60.4355 46.1271 60.5254 46.7213 60.6119C47.3541 60.7061 47.9852 60.8002 48.6171 60.8918H48.6213L49.6533 61.0456L49.692 61.0573Z" fill="#6B51EF"/>
<path d="M40.9798 42.8254C40.9462 42.6657 40.9117 42.5086 40.8806 42.3531C40.2352 39.2219 38.2839 36.5335 35.556 34.8696C35.0428 34.5542 34.5453 34.214 34.0652 33.8502C34.6123 33.8544 35.1594 33.8418 35.7014 33.8864C37.1527 34.0065 38.3864 34.741 39.0293 36.0663C39.2973 36.6209 39.2436 37.2563 39.4469 37.8302C39.9201 39.153 41.0445 40.153 41.0857 41.6262C41.0957 42.0271 41.0571 42.4279 40.9798 42.8254V42.8254Z" fill="#0600A0"/>
<g opacity="0.33">
<path opacity="0.33" d="M41.0075 42.8304C40.6789 41.0447 40.373 39.2505 39.5267 37.6227C38.9469 36.505 38.6553 35.0595 37.4342 34.4511C35.693 33.5847 34.1458 33.9721 32.6121 32.5367C32.4466 32.3796 31.4197 31.2257 31.2877 31.2686C32.9861 30.7198 35.6165 31.0988 37.2981 31.6316C43.8698 33.7132 42.7101 41.9934 43.1328 47.3785C43.2454 48.7794 43.5975 50.1081 43.9227 51.4712C42.5151 48.7458 41.5663 45.8423 41.0066 42.8304H41.0075Z" fill="#000005"/>
</g>
</g>
</svg>
