<svg width="132" height="81" viewBox="0 0 132 81" fill="none" xmlns="http://www.w3.org/2000/svg">
<path d="M2.947 80.055C1.472 80.053 -0.00199797 78.577 2.03298e-06 77.102L0.070002 2.947C0.070002 1.472 1.547 -0.00199797 3.022 2.03298e-06L128.64 0.118006C130.115 0.119006 131.589 1.596 131.588 3.071L131.518 77.225C131.517 78.7 130.04 80.174 128.565 80.173L2.947 80.055Z" fill="#FFBD00"/>
<path d="M54.538 54.199L14.186 54.161L14.19 49.958L54.542 49.996L54.538 54.199Z" fill="#0200A0"/>
<path d="M54.5301 62.606L14.1781 62.568L14.1821 58.365L54.5341 58.402L54.5301 62.606Z" fill="#0200A0"/>
<path d="M54.522 71.012L14.17 70.975L14.174 66.771L54.526 66.809L54.522 71.012Z" fill="#0200A0"/>
<path d="M14.218 20.5341L14.268 16.3081L120.356 15.5181L120.306 19.7451L14.218 20.5341Z" fill="white"/>
<path d="M14.2101 28.941L14.2601 24.715L120.348 23.925L120.298 28.151L14.2101 28.941Z" fill="white"/>
<path d="M14.202 37.3481L14.252 33.1211L120.34 32.3311L120.29 36.5581L14.202 37.3481Z" fill="white"/>
<path d="M90.134 62.416V60.2621C90.134 59.4121 89.443 58.722 88.594 58.722C87.744 58.722 87.053 59.4121 87.053 60.2621V62.2061C87.0545 64.5461 86.1884 66.8036 84.622 68.5421L82.46 70.944C82.3802 71.0419 82.3411 71.1667 82.3508 71.2926C82.3605 71.4185 82.4182 71.5358 82.512 71.6203C82.6057 71.7049 82.7284 71.7501 82.8546 71.7467C82.9808 71.7433 83.1009 71.6915 83.19 71.6021L85.353 69.2C87.0819 67.281 88.0378 64.7891 88.036 62.2061V60.2621C88.0445 60.1201 88.1069 59.9867 88.2104 59.8892C88.3139 59.7917 88.4508 59.7374 88.593 59.7374C88.7352 59.7374 88.872 59.7917 88.9756 59.8892C89.0791 59.9867 89.1415 60.1201 89.15 60.2621V62.416C89.15 65.3 88.082 68.0631 86.142 70.1971L84.035 72.515C83.9554 72.6126 83.9163 72.737 83.9257 72.8625C83.935 72.9881 83.9922 73.1053 84.0853 73.19C84.1785 73.2747 84.3006 73.3204 84.4264 73.3178C84.5523 73.3152 84.6724 73.2645 84.762 73.176L86.869 70.8591C88.9718 68.5501 90.1362 65.539 90.134 62.416V62.416Z" fill="#0200A0"/>
<path d="M92.2311 60.262C92.23 59.2975 91.8464 58.3728 91.1644 57.6907C90.4823 57.0087 89.5576 56.6251 88.5931 56.624C87.6287 56.6253 86.7042 57.0091 86.0224 57.6911C85.3406 58.3731 84.9571 59.2977 84.9561 60.262V62.206C84.9572 64.0279 84.2827 65.7856 83.0631 67.139L81.5261 68.847C81.4482 68.9451 81.4107 69.0692 81.4212 69.1939C81.4316 69.3187 81.4892 69.4348 81.5823 69.5186C81.6754 69.6024 81.7969 69.6475 81.9221 69.6448C82.0473 69.6421 82.1667 69.5917 82.2561 69.504L83.7941 67.797C85.176 66.2632 85.9403 64.2715 85.9391 62.207V60.262C85.9396 59.5582 86.2194 58.8834 86.7169 58.3856C87.2145 57.8878 87.8893 57.6078 88.5931 57.607C89.2971 57.6075 89.9721 57.8874 90.4699 58.3852C90.9677 58.883 91.2475 59.558 91.2481 60.262V62.416C91.2481 65.822 89.9861 69.087 87.6941 71.608L85.9161 73.564C85.8685 73.611 85.831 73.6671 85.8059 73.7291C85.7807 73.791 85.7685 73.8574 85.7699 73.9242C85.7712 73.9911 85.7862 74.0569 85.8139 74.1178C85.8415 74.1786 85.8813 74.2332 85.9308 74.2781C85.9802 74.3231 86.0383 74.3575 86.1015 74.3793C86.1647 74.4011 86.2317 74.4097 86.2983 74.4048C86.365 74.3998 86.4299 74.3813 86.4892 74.3504C86.5485 74.3195 86.6008 74.2768 86.6431 74.225L88.4211 72.269C90.8747 69.5743 92.2335 66.0604 92.2311 62.416V60.262Z" fill="#0200A0"/>
<path d="M94.328 60.262C94.3267 58.7413 93.7221 57.2832 92.6469 56.2079C91.5717 55.1325 90.1137 54.5276 88.593 54.526C87.0723 54.5276 85.6144 55.1325 84.5392 56.2079C83.464 57.2832 82.8594 58.7413 82.858 60.262V62.206C82.858 63.512 82.378 64.766 81.504 65.736L80.12 67.273C80.0403 67.3709 80.0012 67.4957 80.0108 67.6215C80.0205 67.7474 80.0782 67.8648 80.172 67.9493C80.2658 68.0338 80.3885 68.0791 80.5147 68.0757C80.6409 68.0722 80.7609 68.0205 80.85 67.931L82.235 66.394C83.2701 65.2448 83.8423 63.7526 83.841 62.206V60.262C83.8424 59.0021 84.3434 57.7942 85.2343 56.9033C86.1252 56.0124 87.3331 55.5113 88.593 55.51C89.8529 55.5113 91.0609 56.0124 91.9517 56.9033C92.8426 57.7942 93.3437 59.0021 93.345 60.262V62.416C93.3479 66.3379 91.8857 70.1194 89.245 73.019L88.754 73.56C88.6745 73.6576 88.6353 73.7819 88.6447 73.9075C88.6541 74.0331 88.7112 74.1502 88.8044 74.2349C88.8975 74.3196 89.0196 74.3654 89.1455 74.3628C89.2713 74.3602 89.3914 74.3095 89.481 74.221L89.973 73.681C92.7782 70.6002 94.3314 66.5826 94.328 62.416V60.262V60.262Z" fill="#0200A0"/>
<path d="M80.761 60.262C80.758 60.3284 80.7685 60.3947 80.7918 60.457C80.8152 60.5192 80.8509 60.5761 80.8968 60.6241C80.9428 60.6722 80.998 60.7104 81.0591 60.7365C81.1202 60.7627 81.186 60.7761 81.2525 60.7761C81.319 60.7761 81.3848 60.7627 81.4459 60.7365C81.507 60.7104 81.5622 60.6722 81.6082 60.6241C81.6541 60.5761 81.6898 60.5192 81.7132 60.457C81.7365 60.3947 81.747 60.3284 81.744 60.262C81.7442 58.6056 82.3454 57.0056 83.436 55.759C84.512 54.5253 85.9941 53.7175 87.614 53.482C87.7385 53.4583 87.849 53.3876 87.9226 53.2845C87.9963 53.1814 88.0273 53.0539 88.0093 52.9285C87.9912 52.8031 87.9255 52.6895 87.8258 52.6114C87.7261 52.5332 87.6001 52.4965 87.474 52.509C85.6215 52.778 83.9266 53.7014 82.696 55.112C81.4487 56.5377 80.7611 58.3676 80.761 60.262V60.262Z" fill="#0200A0"/>
<path d="M81.744 62.2061C81.747 62.1397 81.7365 62.0733 81.7132 62.0111C81.6898 61.9488 81.6541 61.892 81.6082 61.8439C81.5622 61.7959 81.507 61.7576 81.4459 61.7315C81.3848 61.7054 81.319 61.6919 81.2525 61.6919C81.1861 61.6919 81.1203 61.7054 81.0591 61.7315C80.998 61.7576 80.9428 61.7959 80.8969 61.8439C80.8509 61.892 80.8152 61.9488 80.7919 62.0111C80.7685 62.0733 80.758 62.1397 80.761 62.2061C80.761 62.9931 80.471 63.7481 79.945 64.3331L78.715 65.7001C78.668 65.7473 78.631 65.8036 78.6064 65.8656C78.5818 65.9275 78.57 65.9938 78.5718 66.0605C78.5736 66.1271 78.589 66.1927 78.6169 66.2533C78.6448 66.3138 78.6847 66.368 78.7342 66.4127C78.7838 66.4573 78.8419 66.4914 78.905 66.5129C78.9681 66.5344 79.0349 66.5429 79.1014 66.5378C79.1678 66.5327 79.2326 66.5141 79.2916 66.4832C79.3507 66.4523 79.4029 66.4097 79.445 66.3581L80.675 64.9901C81.3639 64.2264 81.7451 63.2345 81.745 62.2061H81.744Z" fill="#0200A0"/>
<path d="M95.4611 66.5951C95.3351 66.5622 95.2012 66.5805 95.0887 66.6461C94.9763 66.7117 94.8944 66.8192 94.8611 66.9451C94.6789 67.6413 94.4548 68.3259 94.1901 68.9951C94.163 69.0557 94.1484 69.1212 94.1473 69.1876C94.1462 69.254 94.1585 69.3199 94.1835 69.3814C94.2086 69.4429 94.2458 69.4987 94.293 69.5455C94.3402 69.5922 94.3963 69.6289 94.458 69.6533C94.5198 69.6778 94.5858 69.6895 94.6522 69.6877C94.7186 69.686 94.7839 69.6708 94.8443 69.6431C94.9047 69.6154 94.9588 69.5758 95.0034 69.5267C95.0481 69.4775 95.0823 69.4198 95.1041 69.3571C95.3821 68.6541 95.6201 67.9271 95.8121 67.1941C95.845 67.068 95.8265 66.934 95.7607 66.8215C95.6949 66.709 95.5871 66.6272 95.4611 66.5941V66.5951Z" fill="#0200A0"/>
<path d="M93.825 54.4361C93.728 54.3488 93.6002 54.3037 93.4699 54.3106C93.3395 54.3176 93.2173 54.376 93.13 54.4731C93.0428 54.5701 92.9977 54.6979 93.0046 54.8282C93.0115 54.9586 93.07 55.0808 93.167 55.1681C93.8821 55.8104 94.4541 56.5957 94.8462 57.4733C95.2383 58.3508 95.4416 59.3009 95.443 60.2621V62.4161C95.443 63.2331 95.386 64.0561 95.275 64.8641C95.2633 64.9293 95.2649 64.9963 95.2797 65.0609C95.2945 65.1256 95.3223 65.1865 95.3612 65.2402C95.4002 65.2938 95.4496 65.339 95.5065 65.3731C95.5634 65.4072 95.6266 65.4294 95.6922 65.4384C95.7579 65.4475 95.8248 65.4431 95.8887 65.4257C95.9527 65.4083 96.0125 65.3781 96.0645 65.3369C96.1165 65.2958 96.1597 65.2446 96.1914 65.1863C96.2231 65.1281 96.2427 65.0641 96.249 64.9981C96.366 64.1471 96.426 63.2781 96.426 62.4151V60.2621C96.4247 59.1631 96.1924 58.0767 95.7444 57.0733C95.2963 56.0698 94.6424 55.1717 93.825 54.4371V54.4361Z" fill="#0200A0"/>
<path d="M91.527 54.073C91.5853 54.1009 91.6485 54.117 91.713 54.1204C91.7776 54.1238 91.8421 54.1144 91.903 54.0927C91.9639 54.0711 92.0199 54.0376 92.0678 53.9942C92.1157 53.9508 92.1545 53.8984 92.182 53.84C92.2379 53.7222 92.2447 53.5871 92.201 53.4643C92.1573 53.3415 92.0667 53.241 91.949 53.185C91.2417 52.8481 90.4875 52.6202 89.712 52.509C89.586 52.4965 89.4599 52.5332 89.3602 52.6114C89.2605 52.6895 89.1948 52.8031 89.1768 52.9285C89.1587 53.0539 89.1898 53.1814 89.2634 53.2845C89.337 53.3876 89.4476 53.4583 89.572 53.482C90.2497 53.5789 90.9088 53.7778 91.527 54.072V54.073Z" fill="#0200A0"/>
<path d="M88.593 50.332C88.409 50.332 88.223 50.337 88.04 50.347C87.9741 50.3485 87.9091 50.3632 87.849 50.3903C87.7888 50.4174 87.7348 50.4563 87.69 50.5047C87.6452 50.5532 87.6106 50.6101 87.5882 50.6721C87.5659 50.7342 87.5562 50.8001 87.5598 50.8659C87.5634 50.9318 87.5803 50.9962 87.6093 51.0555C87.6383 51.1147 87.679 51.1674 87.7288 51.2106C87.7786 51.2539 87.8366 51.2866 87.8994 51.3069C87.9621 51.3273 88.0283 51.3348 88.094 51.329C88.26 51.319 88.427 51.315 88.594 51.315C93.526 51.315 97.54 55.328 97.54 60.261V62.415C97.537 62.4814 97.5475 62.5478 97.5708 62.61C97.5942 62.6723 97.6299 62.7291 97.6758 62.7772C97.7218 62.8252 97.777 62.8635 97.8381 62.8896C97.8992 62.9157 97.965 62.9292 98.0315 62.9292C98.098 62.9292 98.1638 62.9157 98.2249 62.8896C98.286 62.8635 98.3412 62.8252 98.3871 62.7772C98.4331 62.7291 98.4688 62.6723 98.4922 62.61C98.5155 62.5478 98.526 62.4814 98.523 62.415V60.262C98.523 54.786 94.069 50.332 88.593 50.332V50.332Z" fill="#0200A0"/>
<path d="M83.2181 52.999C83.3182 52.9989 83.4159 52.9682 83.4981 52.911C84.3115 52.3444 85.2139 51.9179 86.1681 51.649C86.2905 51.611 86.3933 51.5267 86.4546 51.4141C86.5159 51.3015 86.5307 51.1694 86.4961 51.046C86.4614 50.9225 86.3799 50.8175 86.269 50.7533C86.158 50.689 86.0264 50.6706 85.9021 50.702C84.8425 51.0008 83.8403 51.4746 82.9371 52.104C82.8514 52.164 82.787 52.2497 82.7534 52.3488C82.7198 52.4479 82.7186 52.555 82.75 52.6548C82.7815 52.7546 82.8439 52.8417 82.9282 52.9036C83.0126 52.9655 83.1145 52.9989 83.2191 52.999H83.2181Z" fill="#0200A0"/>
<path d="M79.6471 62.206V60.262C79.6471 57.975 80.5131 55.797 82.0851 54.129C82.1664 54.0329 82.2079 53.9092 82.2008 53.7834C82.1937 53.6577 82.1387 53.5395 82.047 53.4531C81.9554 53.3667 81.8341 53.3187 81.7082 53.3191C81.5822 53.3194 81.4612 53.3681 81.3701 53.455C79.6298 55.2938 78.6613 57.7302 78.6641 60.262V62.206C78.6641 62.474 78.5651 62.731 78.3861 62.93L77.7801 63.603C77.7003 63.7008 77.6612 63.8256 77.6709 63.9515C77.6806 64.0774 77.7382 64.1947 77.832 64.2793C77.9258 64.3638 78.0485 64.409 78.1747 64.4056C78.3009 64.4022 78.421 64.3505 78.5101 64.261L79.1171 63.587C79.4591 63.207 79.6471 62.717 79.6471 62.207V62.206Z" fill="#0200A0"/>
<path d="M99.996 56.434C99.4596 54.8366 98.5916 53.3706 97.449 52.132C97.4063 52.0812 97.3537 52.0395 97.2944 52.0096C97.2351 51.9796 97.1704 51.962 97.1041 51.9577C97.0378 51.9534 96.9713 51.9626 96.9087 51.9847C96.8461 52.0068 96.7885 52.0414 96.7396 52.0863C96.6907 52.1312 96.6514 52.1856 96.6241 52.2462C96.5967 52.3067 96.5819 52.3721 96.5805 52.4385C96.5792 52.505 96.5913 52.571 96.6161 52.6326C96.6409 52.6942 96.678 52.7501 96.725 52.797C97.7746 53.9341 98.572 55.2802 99.065 56.747C99.1121 56.8632 99.2017 56.9571 99.3156 57.0094C99.4294 57.0618 99.559 57.0687 99.6778 57.0287C99.7967 56.9888 99.8957 56.905 99.9549 56.7945C100.014 56.684 100.029 56.555 99.996 56.434V56.434Z" fill="#0200A0"/>
<path d="M92.478 48.878C92.4161 48.8535 92.3499 48.8418 92.2833 48.8436C92.2167 48.8454 92.1512 48.8607 92.0907 48.8886C92.0302 48.9164 91.9761 48.9563 91.9314 49.0058C91.8868 49.0552 91.8527 49.1132 91.8311 49.1762C91.8096 49.2392 91.8011 49.306 91.8061 49.3724C91.8111 49.4388 91.8295 49.5035 91.8603 49.5626C91.891 49.6216 91.9334 49.6739 91.985 49.716C92.0365 49.7582 92.0961 49.7895 92.16 49.808C93.244 50.179 94.261 50.717 95.185 51.405C95.2367 51.4438 95.2955 51.472 95.3581 51.488C95.4207 51.504 95.4859 51.5075 95.5498 51.4982C95.6138 51.4889 95.6753 51.467 95.7307 51.4339C95.7862 51.4007 95.8346 51.357 95.873 51.305C95.9506 51.2006 95.9836 51.0696 95.9649 50.9409C95.9461 50.8121 95.8772 50.696 95.773 50.618C94.772 49.87 93.6603 49.2829 92.478 48.878V48.878Z" fill="#0200A0"/>
<path d="M80.955 52.292C83.0064 50.3163 85.7449 49.2141 88.593 49.218C89.123 49.218 89.658 49.256 90.179 49.331C90.2429 49.3402 90.308 49.3367 90.3705 49.3208C90.4331 49.3048 90.4918 49.2767 90.5435 49.238C90.5952 49.1993 90.6388 49.1509 90.6717 49.0954C90.7046 49.0399 90.7263 48.9784 90.7355 48.9145C90.7447 48.8506 90.7412 48.7855 90.7253 48.723C90.7093 48.6605 90.6812 48.6017 90.6425 48.55C90.6038 48.4983 90.5554 48.4548 90.4999 48.4218C90.4444 48.3889 90.3829 48.3672 90.319 48.358C89.7474 48.2757 89.1706 48.2342 88.593 48.234C85.4912 48.2299 82.509 49.4302 80.275 51.582C78.0392 53.7142 76.7145 56.6285 76.578 59.715C76.5748 59.7798 76.5843 59.8445 76.6062 59.9056C76.628 59.9666 76.6617 60.0228 76.7054 60.0708C76.749 60.1187 76.8016 60.1576 76.8603 60.1852C76.919 60.2127 76.9826 60.2284 77.0474 60.2313C77.1122 60.2342 77.1769 60.2243 77.2378 60.2021C77.2987 60.1799 77.3547 60.1458 77.4024 60.102C77.4501 60.0581 77.4887 60.0052 77.5159 59.9463C77.5432 59.8875 77.5585 59.8238 77.561 59.759C77.6862 56.9253 78.9024 54.2497 80.955 52.292V52.292Z" fill="#0200A0"/>
<path d="M88.593 46.137C87.494 46.137 86.399 46.264 85.338 46.516C85.272 46.5276 85.2091 46.5526 85.1531 46.5894C85.0971 46.6262 85.0492 46.674 85.0123 46.73C84.9755 46.786 84.9505 46.8489 84.9388 46.9149C84.9271 46.9808 84.9291 47.0485 84.9445 47.1137C84.9599 47.1789 84.9885 47.2403 85.0284 47.2941C85.0684 47.3479 85.119 47.3929 85.177 47.4264C85.235 47.46 85.2992 47.4813 85.3658 47.4892C85.4323 47.497 85.4998 47.4911 85.564 47.472C86.5569 47.2377 87.5738 47.1195 88.594 47.12C92.198 47.12 95.563 48.556 98.068 51.164C98.1126 51.2107 98.166 51.2482 98.2251 51.2742C98.2843 51.3002 98.348 51.3143 98.4126 51.3156C98.4772 51.3169 98.5414 51.3054 98.6015 51.2818C98.6617 51.2582 98.7165 51.2229 98.763 51.178C98.8569 51.0876 98.9111 50.9637 98.9137 50.8334C98.9164 50.7031 98.8672 50.5771 98.777 50.483C97.4836 49.1324 95.9346 48.0524 94.22 47.306C92.4454 46.5313 90.5293 46.1332 88.593 46.137V46.137Z" fill="#0200A0"/>
<path d="M77.551 52.259C77.6017 52.299 77.6599 52.3286 77.7221 52.346C77.7843 52.3634 77.8493 52.3684 77.9134 52.3606C77.9776 52.3528 78.0395 52.3324 78.0957 52.3005C78.1519 52.2687 78.2013 52.226 78.241 52.175C79.6408 50.3861 81.4778 48.9879 83.575 48.115C83.6869 48.0597 83.7736 47.9639 83.8175 47.847C83.8614 47.7301 83.8592 47.6009 83.8114 47.4856C83.7636 47.3703 83.6737 47.2774 83.56 47.2259C83.4463 47.1743 83.3172 47.168 83.199 47.2081C80.9457 48.1451 78.9716 49.6467 77.467 51.5681C77.4271 51.6189 77.3976 51.6772 77.3803 51.7394C77.3629 51.8017 77.358 51.8668 77.3658 51.931C77.3736 51.9951 77.394 52.0571 77.4257 52.1134C77.4575 52.1697 77.5001 52.2192 77.551 52.259V52.259Z" fill="#0200A0"/>
<path d="M81.778 46.578C81.8519 46.5777 81.9247 46.5606 81.991 46.528C84.061 45.529 86.281 45.023 88.593 45.023C89.798 45.023 90.998 45.164 92.159 45.444C92.2837 45.469 92.4133 45.4447 92.5205 45.3763C92.6277 45.3078 92.7043 45.2004 92.734 45.0767C92.7638 44.953 92.7445 44.8226 92.6801 44.7128C92.6158 44.6031 92.5115 44.5225 92.389 44.488C91.1457 44.1898 89.8715 44.0394 88.593 44.04C86.133 44.04 83.767 44.58 81.563 45.643C81.4627 45.6915 81.3818 45.7726 81.3336 45.873C81.2853 45.9734 81.2726 46.0872 81.2974 46.1958C81.3223 46.3044 81.3833 46.4013 81.4704 46.4708C81.5575 46.5402 81.6656 46.578 81.777 46.578H81.778Z" fill="#0200A0"/>
<path d="M94.213 46.0961C94.72 46.2981 95.222 46.5301 95.704 46.7861C95.761 46.8167 95.8235 46.8358 95.8879 46.8421C95.9523 46.8484 96.0173 46.8419 96.0791 46.8229C96.141 46.804 96.1985 46.7729 96.2482 46.7316C96.298 46.6902 96.339 46.6394 96.369 46.5821C96.4301 46.4668 96.4429 46.332 96.4047 46.2073C96.3664 46.0826 96.2802 45.9782 96.165 45.9171C95.6493 45.644 95.1192 45.399 94.577 45.1831C94.5167 45.1577 94.452 45.1446 94.3866 45.1445C94.3212 45.1445 94.2564 45.1575 94.1961 45.1827C94.1357 45.208 94.081 45.2451 94.0352 45.2917C93.9894 45.3384 93.9533 45.3937 93.9291 45.4545C93.9049 45.5153 93.893 45.5803 93.8942 45.6457C93.8955 45.7111 93.9097 45.7756 93.9361 45.8354C93.9626 45.8952 94.0007 45.9492 94.0482 45.9941C94.0958 46.039 94.1518 46.074 94.213 46.0971V46.0961Z" fill="#0200A0"/>
</svg>
