<svg xmlns="http://www.w3.org/2000/svg" width="133" height="172" viewBox="0 0 133 172"><defs><clipPath id="s84ea"><path d="M56.964 73.627l-45.746-.043.043-45.746 45.746.043z"/></clipPath></defs><g><g><g><g><g><g><path fill="#0200a0" d="M3.869 80.669C2.394 80.667.92 79.19.922 77.716L.992 3.56C.991 2.086 2.468.612 3.943.614l125.618.118c1.475.001 2.949 1.478 2.948 2.953l-.07 74.154c-.001 1.475-1.478 2.949-2.953 2.948z"/></g><g><g><text dominant-baseline="text-before-edge" style="line-height:9.833520889282227px;font-kerning:normal" fill="#fff" font-family="'Poppins-Black','Poppins-Black'" font-size="25" transform="translate(36 4)"><tspan font-family="Poppins Black" font-style="none" font-weight="400">ID</tspan></text></g></g><g><path fill="#c6c6c5" d="M56.964 73.627l-45.746-.043.043-45.746 45.746.043z"/></g><g><g><path fill="#fff" d="M56.964 73.627l-45.746-.043.043-45.746 45.746.043z"/></g></g><g><g><g><path fill="#fff" d="M94.986 61.18l-27.448-.026.003-2.859 27.447.026z"/></g><g><path fill="#fff" d="M94.98 66.899l-27.447-.026.003-2.86 27.447.026z"/></g><g><path fill="#fff" d="M94.975 72.617l-27.447-.026.002-2.86 27.448.027z"/></g></g><g><g><path fill="#fff" d="M122.454 38.333l-54.894-.051.003-2.86 54.894.052z"/></g><g><path fill="#fff" d="M122.449 44.051L67.555 44l.002-2.86 54.895.052z"/></g><g><path fill="#fff" d="M122.444 49.77l-54.895-.052.003-2.859 54.894.052z"/></g></g><g><path fill="#fff" d="M122.422 72.642l-24.588-.023.014-14.295 24.588.023z"/></g></g></g></g></g><g><g><g/><g clip-path="url(#s84ea)"><g><path fill="#f2f5fa" d="M62.517 114.51l-19.151-.149c-2.273-11.966-4.346-23.029-4.427-24.124-.105-1.427.544-6.95 1.127-11.565l.037-.308.09-.704.043-.318.04-.331.64-5.065v-.007c.131-1.154 1.037-5.104 1.514-7.134l.041-.177c.09-.396.168-.73.23-.974l.02-.08-.468-.07s.417-.366.563-.376c.138-.01 2.278.727 2.621.848l10.973 1.62c.581.224 2.448 1.415 2.637 2.359.188.944 1.754 10.875 1.533 17.487-.142 4.212-.015 10.087.284 15.132.173 2.872.403 5.473.669 7.344.199 1.38.56 3.786.984 6.591z"/></g><g><path fill="#f2f5fa" d="M26.887 64.641c-.251.074-.567.17-.93.282l-.139-.367c.245-.12.423-.199.46-.203.141-.012.576.267.61.288z"/></g><g><path fill="#f2f5fa" d="M66.615 114.214l-.007.012-.005.007-.017-.02z"/></g><g><path fill="#f2f5fa" d="M70.928 116.877l.03.007"/></g><g><path fill="#0600a0" d="M54.368 70.753a17.45 17.45 0 0 1-3.573 7.306c-1.946 2.358-4.315 3.986-6.81 4.682-2.548.712-5.174.457-7.755.1-2.655-.368-5.326-.845-7.852-2.072-2.524-1.226-5.265-2.714-6.9-5.733-1.635-3.018-2.424-7.105-1.704-10.802.582-2.984 2.416-6.04 2.963-9.037.367-2.016.283-4.195-.24-6.133-.317-1.182-.79-2.267-1.105-3.447-.861-3.205-.334-6.833 1.305-9.708 1.433-2.511 3.692-4.038 6.24-4.914 1.587-.545 3.258-.852 4.948-.984 1.72-.136 3.458-.09 5.15.066 11.996 1.115 7.388 16.644 10.04 23.921.028.077.056.151.086.226 1.18 3.033 3.342 4.848 4.614 7.822 1.095 2.556 1.224 5.832.593 8.707z"/></g><g opacity=".33"><path fill="#000005" d="M25.958 52.704l.358 3.006c.086.729-.398 1.847-.536 2.563-.283 1.48-.714 3.024-.778 4.567-.032.818.032 1.65.291 2.433.214.648.803 1.256.443 1.963-.663 1.297 23.307 2.094 23.007-.64-.02-.168-.036-.339-.067-.503-.012.538-.107.69-.448.219-.787-1.094-.878-2.559-1.314-3.803-.731-2.083-2.023-3.805-3.03-5.746-.933-1.802-1.66-3.8-1.848-5.83-2.07-22.105 0 0 0 0"/></g><g><path fill="#fff" d="M58.983 111.78c.057.747.161 1.796.3 3.033l-42.022-.327c-.498-4.977-4.126-20.56-4.403-24.301-.285-3.841-1.77-17.491-1.373-18.518.4-1.027 1.192-2.583 1.77-2.824.376-.16 6.452-2.015 10.563-3.267.808-.247 1.542-.472 2.139-.653l2.226 5.874s.163-.433-.079-1.681c-.646-1.73-1.35-3.588-1.664-4.336l.45-.139.624-.19.047-.014 7.017.828 6.983-1.865S55.593 65.504 56.2 65.66c.604.157 1.618 1.577 2.162 2.534.546.958 1.088 14.676 1.373 18.517.285 3.844-1.084 20.572-.75 25.07z"/></g><g><path fill="#fff" d="M43.88 63.749c-.065.339-.23.659-.486.95-4.823 5.439-9.702 6.434-15.11 3.018a20.24 20.24 0 0 1-1.241-.854c-.364-.269-.731-.56-1.102-.871-.3-.251-.509-.546-.623-.874l.982-.298 1.261-.383.091.01 1.66.198 5.266.62 6.45-1.723.53-.142h.003l1.299.194c.3.047.644.098 1.02.155z"/></g><g opacity=".14"><path fill="#0600a0" d="M42.744 63.577c-.736-.112-1.183-.177-1.185-.177.09.02.154.032.159.025-.371.525-.79.993-1.25 1.406l.037.006s1.554.288 1.984-.283c.165-.224.286-.593.37-.96z"/></g><g><path fill="#0600a0" d="M62.569 114.837l-19.141-.149c-.022-.11-.04-.217-.062-.327-2.273-11.966-4.346-23.029-4.427-24.124-.105-1.427.544-6.95 1.127-11.565l.037-.308.09-.704.043-.318.04-.331c.323-2.517.59-4.515.633-5.002l.008-.063v-.007l.01-.074c.153-1.211 1.002-4.921 1.476-6.943l.027-.117.041-.177.018-.074.002-.013c.087-.375.155-.661.195-.82l.015-.067.02-.08 2.716.402 3.767.557.96.14.175.027c.707.103 1.415.21 2.122.313.753.112 1.504.224 2.256.333h.005l1.228.183.258.04.202.027c.581.224 2.448 1.415 2.636 2.359.025.132.082.45.156.912.441 2.79 1.567 10.905 1.378 16.574-.142 4.213-.015 10.088.284 15.133l.01.163c.172 2.806.396 5.345.659 7.18.199 1.381.56 3.787.984 6.592z"/></g><g opacity=".13"><path fill="#606060" d="M42.672 64.271s.458-.365.618-.376c.163-.01 2.934.865 2.934.865s3.571 5.529 3.632 6.268c.022.276-.647 1.27-2.316 2.715-2.813 2.431-7.261 5.696-7.261 5.696l.94-6.807s1.503-6.648 1.966-8.29z"/></g><g><path fill="#6b51ef" d="M49.178 70.552c.054.74-9.112 8.12-9.112 8.12l.037-.308.09-.704.043-.318.04-.331.64-5.065v-.007l.01-.074s.912-4.42 1.477-6.944l.027-.116.041-.177.018-.074c.058.01 2.05.409 3.628.462 1.045 1.705 3.02 4.992 3.061 5.536z"/></g><g><path fill="#0600a0" d="M13.417 68.832s-2.39 1.23-4.002 3.958c-.908 1.542-10.532 30.071-11.149 31.928-.613 1.856.071 6.193 2.576 8.536.27.255.683.635 1.203 1.112l10.414.081c-2.736-2.98-5.21-5.684-5.463-5.987-.58-.701-.926-1.413-.293-2.85.631-1.438 9.54-16.602 9.54-16.602s3.039-15.992-2.826-20.176z"/></g><g><path fill="#0600a0" d="M26.44 64.78s2.691 6.683 3.034 8.076c.34 1.393 4.456 15.306 4.636 17.738.08 1.083-.326 12.039-.803 24.015l-18.935-.148c.002-1.25 0-2.3-.003-3.049-.031-5.207-1.175-15.865-2.37-22.369-1.192-6.506-1.109-16.564-1.062-17.523.047-.962 1.718-2.415 2.26-2.72z"/></g><g opacity=".14"><path fill="#0600a0" d="M29.314 72.389c-.076.335-1.302-2.893-2.271-5.526-.281-.767-.54-1.482-.743-2.043l1.261-.383.091.01a8.26 8.26 0 0 0 1.035.908c-.235.343-.402.723-.433 1.134-.03.396-.015.807.03 1.228.215 2.051 1.137 4.208 1.03 4.672z"/></g><g opacity=".13"><path fill="#606060" d="M26.344 64.638s-.465-.3-.61-.29c-.149.012-2.514 1.248-2.514 1.248s-2.74 6.295-2.685 7.034c.054.74 10.21 6.69 10.21 6.69l-1.854-6.607s-2.34-6.376-3-7.936z"/></g><g><path fill="#6b51ef" d="M29.436 72.717s-.633-1.725-1.332-3.601c-.646-1.73-1.35-3.588-1.664-4.336l.45-.139h-.003c-.033-.021-.468-.3-.608-.288-.038.004-.216.083-.46.203-.646.311-1.752.888-2.001 1.02l-.05.024s-2.74 6.294-2.687 7.034c.056.74 10.21 6.689 10.21 6.689z"/></g><g><path fill="#ffbd00" d="M41.718 63.425a8.368 8.368 0 0 1-1.886 1.923c-3.232 2.383-7.943 2.384-11.145.007.179-.262.4-.501.626-.71.652-.611 1.368-.978 1.368-.978l-.043-.024c.375-.337.603-.853.573-1.357-.014-.263-.052-.926-.101-1.75l-.09-1.586-.224-3.891-.293-3.05s1.978.208 4.03.574c1.984-.748 3.917-1.326 3.917-1.326l.06 3.072.17 2.95c.102 1.769.217 3.77.248 4.275.063 1.101 1.15 1.513 2.07 1.705.036.009.36.095.56.141.092.02.155.032.16.025z"/></g><g><path fill="#dd9f05" d="M30.681 63.667s-.716.367-1.368.978c-.227.209-.447.448-.626.71a8.255 8.255 0 0 1-1.035-.909l-.036-.039c.053-.052.231-.053.301-.065.223-.043.448-.079.673-.114.582-.096 1.213-.083 1.746-.37.109-.06.21-.131.302-.215z"/></g><g><path fill="#ffbd00" d="M23.83 48.862a3.99 3.99 0 0 0-.184.047h-.003a2.544 2.544 0 0 0-1.804 2.597 2.536 2.536 0 0 0 2.696 2.369 2.534 2.534 0 0 0 2.37-2.695 2.53 2.53 0 0 0-1.106-1.937c.126.74.084 1.676-.86 1.848l-.094-1.462c-.039-.59-.612-.816-1.015-.767z"/></g><g><path fill="#dd9f05" d="M41.559 63.4l-.53.142c-.225.417-.447.83-.676 1.243-.192.338-2.157-1.082-2.355-1.218-1.085-.741-1.972-1.615-3.395-1.555-2.151.09-2.697-.985-3.493-1.477-.956-.59-1.16-1.355-1.16-1.355l1.07-.23 7.66-1.67c.102 1.768.217 3.77.248 4.274.063 1.101 1.151 1.513 2.07 1.705.036.009.36.095.56.141z"/></g><g><path fill="#ffbd00" d="M42.089 47.34a2.539 2.539 0 1 1-1.88.702c-.003.75.195 1.667 1.156 1.678l-.152-1.455c-.058-.591.469-.909.876-.925z"/></g><g><path fill="#ffbd00" d="M31.932 35.765c-4.335.332-8.436 3.452-7.966 9.083l.655 7.878c.398 4.764 4.622 8.337 9.384 7.94 4.765-.398 8.337-4.62 7.94-9.385l-.655-7.877c-.459-5.517-5.027-7.971-9.358-7.64z"/></g><g><path fill="#6b51ef" d="M62.569 114.837l-1.896-.015c-.245-2.123-1.312-5.625-4.186-11.396-7.153-14.367-3.38-32.014-3.322-32.292-.407 2.314-.307 4.812-.18 6.816.17 2.638.697 5.256 1.344 7.866.371 1.5 3.21 11.01 6.535 14.758.173 2.872.402 5.473.669 7.344.206 1.433.589 3.973 1.036 6.919z"/></g><g><path fill="#0600a0" d="M45.629 43.848c-.297 1.564-1.074 3.081-1.765 4.455-.875-.027-1.174.625-1.19 1.188l-.143 4.555c-2.328-.09-2.784-4.656-2.463-8.496l.797 1.151 1.247-5.674-11.016-2.707-5.572-.044-2.647 3.149 1.703 5.805s.222-.267.55-.633c-.015.2-.033.399-.049.598-.126 1.558-.58 3.187-.59 4.74-.002-4.275-1.783-7.996-2.645-12.08-.322-1.54-.462-3.179.066-4.663 1.29-3.614 6.257-5.46 9.588-3.59 1.512.845 3.169 1.418 4.907 1.536.33.023.662.03.994.03.565.428 1.158.835 1.774 1.213 3.247 1.98 5.568 5.18 6.336 8.905.037.185.079.372.118.562z"/></g><g><path fill="#0600a0" d="M66.572 76.08c-.638-.694-6.024-7.461-8.892-9.762-.647-.517-1.165-.808-1.472-.75a.3.3 0 0 0-.138.058c-.079.063-.157.123-.233.191-1.528 1.303-2.302 3.238-2.67 5.314l1.299 2.56c-.333-.598-1.31-1.928-1.302-2.527-.252 4.242-.603 8.598.145 12.807.703 3.93 2.253 7.643 4.046 11.19.413.823 1.886 3.775 3.52 5.575 1.095 1.21 2.263 1.897 3.235 1.077.163-.14.34-.269.522-.393 2.092-1.413 5.39-1.976 7.906-3.137.374-.171.734-.36 1.066-.565.938-.576 1.684-1.293 2.095-2.262C79 87.65 71.32 81.25 66.572 76.08z"/></g><g><path fill="#fda118" d="M59.54 118.092l.712-.44"/></g><g><path fill="#0600a0" d="M31.096 38.32l-5.572-.044-2.647 3.149 1.703 5.805s.222-.267.55-.633c.04-.418.08-.837.11-1.255.03-.424.059-.847.074-1.27.012-.375.014-.75-.046-1.122a6.41 6.41 0 0 0-.06-.315c-.04-.244-.056-.483.079-.719.151-.266.43-.444.72-.528.565-.16 1.18-.038 1.74.09.515.12 1.093.191 1.54-.091.43-.271.645-.822 1.105-1.046.465-.228 1.016-.051 1.5.128 1.597.588 3.192 1.364 4.902 1.52 1.27.115 2.567.155 3.843.065-.254.939-.457 2.173-.569 3.496l.797 1.151 1.247-5.674z"/></g><g><path fill="#dd9f05" d="M40.637 42.054c-.254.939-.457 2.173-.569 3.496l-1.255-1.816s-5.342-1.681-7.205-1.04c-1.863.64-3.185 2.162-3.837 1.828-.46-.233-1.854 1.203-2.64 2.075.038-.418.079-.837.11-1.255.03-.424.058-.847.073-1.27.012-.375.014-.75-.046-1.122a6.362 6.362 0 0 0-.06-.315c-.04-.244-.056-.483.079-.719.151-.266.43-.444.72-.528.565-.16 1.18-.038 1.74.09.515.12 1.093.191 1.54-.091.43-.271.645-.822 1.105-1.046.465-.228 1.016-.051 1.5.128 1.597.588 3.192 1.364 4.902 1.52 1.27.115 2.567.155 3.843.065z"/></g><g><path fill="#fdb2d0" d="M41.718 63.425a8.37 8.37 0 0 1-1.243 1.398c-.01.01-.053-.003-.12-.026l.673-1.255.53-.142c.092.02.155.032.16.025z"/></g><g><path fill="#f50" d="M46.117 65.016c-1.578-.053-3.57-.451-3.628-.462l.002-.013c.074-.324.14-.603.195-.82l.015-.067.02-.08-.468-.07s.417-.366.563-.376c.138-.01 2.278.727 2.621.848l.046.014s.255.41.634 1.026z"/></g><g><path fill="#0600a0" d="M46.117 65.016c-1.578-.053-3.57-.451-3.628-.462l.002-.013c.074-.324.14-.603.195-.82l.015-.067.02-.08-.468-.07s.417-.366.563-.376c.138-.01 2.278.727 2.621.848l.046.014s.255.41.634 1.026z"/></g><g><path fill="#ff7f00" d="M49.204 64.533c-.595.006-1.106.074-1.376.252-.315.204-.966.257-1.711.23-.379-.615-.634-1.025-.634-1.025l-.046-.014z"/></g><g><path fill="#6b51ef" d="M56.125 65.634a.14.14 0 0 0 .051.244c.368.098.706.282.982.544.497.47 1.248 1.269 2.044 2.445.848 1.252 1.743 2.933 2.432 5.096 1.813 5.695 8.57 7.824 10.054 13.737.879 3.496-1.381 9.168-.084 11.036.373-.172 1.668-.813 2-1.018.938-.576 1.684-1.293 2.095-2.262C79 87.65 71.32 81.25 66.572 76.08c-.638-.694-6.024-7.461-8.892-9.762-.647-.517-1.165-.808-1.472-.75z"/></g><g><path fill="#6b51ef" d="M55.996 65.543c-.133.072-.31.111-.45.134-.792.128-1.592.058-2.386-.005-.801-.065-1.6-.173-2.393-.298a79.99 79.99 0 0 1-1.543-.27 5.975 5.975 0 0 0-1.408-.085c-.27.014-.536.039-.806.023-.11-.004-.845.052-.893-.026-.379-.616-.634-1.026-.634-1.026l-.046-.014 3.767.557.96.14.175.027c.707.103 1.415.21 2.122.313.753.112 1.504.224 2.256.333h.005l1.228.183z"/></g><g><path fill="#0600a0" d="M45.629 43.848c-.04-.19-.081-.377-.118-.562-.768-3.726-3.09-6.925-6.336-8.905a22.087 22.087 0 0 1-1.774-1.213c.651.005 1.302-.01 1.947.043 1.727.143 3.195 1.017 3.96 2.594.319.66.255 1.416.497 2.099.563 1.574 1.901 2.764 1.95 4.517.012.477-.034.954-.126 1.427z"/></g><g opacity=".33"><path fill="#000005" d="M45.662 43.854c-.391-2.125-.755-4.26-1.762-6.197-.69-1.33-1.037-3.05-2.49-3.774-2.072-1.031-3.913-.57-5.738-2.278-.197-.187-1.419-1.56-1.576-1.509 2.021-.653 5.151-.202 7.152.432 7.82 2.477 6.44 12.33 6.943 18.738.134 1.667.553 3.248.94 4.87-1.675-3.243-2.804-6.698-3.47-10.282z"/></g></g></g></g></g><g><g><g><g><g><path fill="#ffbd00" d="M3.869 171.669c-1.475-.002-2.949-1.478-2.947-2.953l.07-74.155c0-1.475 1.477-2.949 2.952-2.947l125.618.118c1.475.001 2.949 1.478 2.948 2.953l-.07 74.154c-.001 1.475-1.478 2.949-2.953 2.948z"/></g><g><g><g><path fill="#0200a0" d="M55.46 145.813l-40.352-.038.004-4.203 40.352.038z"/></g><g><path fill="#0200a0" d="M55.452 154.22l-40.352-.038.004-4.203 40.352.037z"/></g><g><path fill="#0200a0" d="M55.444 162.626l-40.352-.037.004-4.204 40.352.038z"/></g></g><g><g><path fill="#fff" d="M15.14 112.148l.05-4.226 106.088-.79-.05 4.227z"/></g><g><path fill="#fff" d="M15.132 120.555l.05-4.226 106.088-.79-.05 4.226z"/></g><g><path fill="#fff" d="M15.124 128.962l.05-4.227 106.088-.79-.05 4.227z"/></g></g></g></g></g></g></g><g><g><path fill="#0200a0" d="M91.056 154.03v-2.154c0-.85-.691-1.54-1.54-1.54-.85 0-1.541.69-1.541 1.54v1.944a9.456 9.456 0 0 1-2.431 6.336l-2.162 2.402a.492.492 0 0 0 .73.658l2.163-2.402a10.438 10.438 0 0 0 2.683-6.994v-1.944a.558.558 0 0 1 1.114 0v2.154c0 2.884-1.068 5.647-3.008 7.781l-2.107 2.318a.492.492 0 0 0 .727.661l2.107-2.317a12.526 12.526 0 0 0 3.265-8.443z"/></g><g><path fill="#0200a0" d="M93.153 151.876a3.642 3.642 0 0 0-3.638-3.638 3.642 3.642 0 0 0-3.637 3.638v1.944a7.362 7.362 0 0 1-1.893 4.933l-1.537 1.708a.492.492 0 0 0 .73.657l1.538-1.707a8.344 8.344 0 0 0 2.145-5.59v-1.945a2.657 2.657 0 0 1 2.654-2.655 2.657 2.657 0 0 1 2.655 2.655v2.154c0 3.406-1.262 6.671-3.554 9.192l-1.778 1.956a.492.492 0 1 0 .727.661l1.778-1.956a14.62 14.62 0 0 0 3.81-9.853z"/></g><g><path fill="#0200a0" d="M95.25 151.876a5.741 5.741 0 0 0-5.735-5.736 5.741 5.741 0 0 0-5.735 5.736v1.944c0 1.306-.48 2.56-1.354 3.53l-1.384 1.537a.492.492 0 0 0 .73.658l1.385-1.537a6.25 6.25 0 0 0 1.606-4.188v-1.944a4.757 4.757 0 0 1 4.752-4.752 4.757 4.757 0 0 1 4.752 4.752v2.154a15.73 15.73 0 0 1-4.1 10.603l-.491.541a.492.492 0 0 0 .727.661l.492-.54a16.712 16.712 0 0 0 4.355-11.265v-2.154z"/></g><g><path fill="#0200a0" d="M81.683 151.876a.492.492 0 1 0 .983 0 6.84 6.84 0 0 1 1.692-4.503 6.852 6.852 0 0 1 4.178-2.277.492.492 0 0 0-.14-.973 7.835 7.835 0 0 0-4.778 2.603 7.822 7.822 0 0 0-1.935 5.15z"/></g><g><path fill="#0200a0" d="M82.666 153.82a.492.492 0 1 0-.983 0c0 .787-.29 1.542-.816 2.127l-1.23 1.367a.492.492 0 1 0 .73.658l1.23-1.368a4.156 4.156 0 0 0 1.07-2.784z"/></g><g><path fill="#0200a0" d="M96.383 158.209a.492.492 0 0 0-.6.35 17.852 17.852 0 0 1-.671 2.05.492.492 0 1 0 .914.362c.278-.703.516-1.43.708-2.163a.492.492 0 0 0-.351-.6z"/></g><g><path fill="#0200a0" d="M94.747 146.05a.491.491 0 1 0-.658.732 6.861 6.861 0 0 1 2.276 5.094v2.154c0 .817-.057 1.64-.168 2.448a.492.492 0 1 0 .974.134c.117-.851.177-1.72.177-2.583v-2.153a7.845 7.845 0 0 0-2.601-5.825z"/></g><g><path fill="#0200a0" d="M92.449 145.687a.49.49 0 0 0 .655-.233.492.492 0 0 0-.233-.655 7.77 7.77 0 0 0-2.237-.676.492.492 0 0 0-.14.973 6.788 6.788 0 0 1 1.955.59z"/></g><g><path fill="#0200a0" d="M89.515 141.946c-.184 0-.37.005-.553.015a.492.492 0 1 0 .054.982c.166-.01.333-.014.5-.014 4.932 0 8.946 4.013 8.946 8.946v2.154a.492.492 0 1 0 .983 0v-2.153c0-5.476-4.454-9.93-9.93-9.93z"/></g><g><path fill="#0200a0" d="M84.14 144.613a.49.49 0 0 0 .28-.088 8.894 8.894 0 0 1 2.67-1.262.492.492 0 0 0-.266-.947 9.876 9.876 0 0 0-2.965 1.402.492.492 0 0 0 .282.895z"/></g><g><path fill="#0200a0" d="M80.569 153.82v-1.944c0-2.287.866-4.465 2.438-6.133a.492.492 0 0 0-.715-.674 9.887 9.887 0 0 0-2.706 6.807v1.944c0 .268-.099.525-.278.724l-.606.673a.492.492 0 0 0 .73.658l.607-.674c.342-.38.53-.87.53-1.38z"/></g><g><path fill="#0200a0" d="M100.918 148.048a11.96 11.96 0 0 0-2.547-4.302.492.492 0 1 0-.724.665 10.983 10.983 0 0 1 2.34 3.95.492.492 0 0 0 .931-.313z"/></g><g><path fill="#0200a0" d="M93.4 140.492a.492.492 0 1 0-.318.93c1.084.371 2.101.909 3.025 1.597a.49.49 0 0 0 .688-.1.492.492 0 0 0-.1-.687 11.997 11.997 0 0 0-3.295-1.74z"/></g><g><path fill="#0200a0" d="M81.877 143.906a10.989 10.989 0 0 1 7.638-3.074c.53 0 1.065.038 1.586.113a.491.491 0 1 0 .14-.973 12.136 12.136 0 0 0-1.726-.124 11.967 11.967 0 0 0-8.318 3.348 11.969 11.969 0 0 0-3.697 8.133.492.492 0 1 0 .983.044 10.989 10.989 0 0 1 3.394-7.467z"/></g><g><path fill="#0200a0" d="M89.515 137.751c-1.099 0-2.194.127-3.255.379a.492.492 0 1 0 .226.956 13.168 13.168 0 0 1 3.03-.352c3.604 0 6.969 1.436 9.474 4.044a.49.49 0 0 0 .695.014.492.492 0 0 0 .014-.695 14.105 14.105 0 0 0-4.557-3.177 13.996 13.996 0 0 0-5.627-1.169z"/></g><g><path fill="#0200a0" d="M78.473 143.873a.49.49 0 0 0 .69-.084 13.226 13.226 0 0 1 5.334-4.06.492.492 0 0 0-.376-.907 14.212 14.212 0 0 0-5.732 4.36.492.492 0 0 0 .084.691z"/></g><g><path fill="#0200a0" d="M82.7 138.192a.489.489 0 0 0 .213-.05c2.07-.999 4.29-1.505 6.602-1.505 1.205 0 2.405.141 3.566.421a.492.492 0 0 0 .23-.956 16.241 16.241 0 0 0-3.796-.448c-2.46 0-4.826.54-7.03 1.603a.492.492 0 0 0 .214.935z"/></g><g><path fill="#0200a0" d="M95.135 137.71c.507.202 1.009.434 1.491.69a.489.489 0 0 0 .665-.204.492.492 0 0 0-.204-.665 16.215 16.215 0 0 0-1.588-.734.492.492 0 1 0-.364.914z"/></g></g></g></svg>