<svg xmlns="http://www.w3.org/2000/svg" width="174" height="188" viewBox="0 0 174 188"><defs><clipPath id="uepxa"><path d="M71.749 123.516l-11.95-.429.428-11.95 11.95.428z"/></clipPath></defs><g><g><path fill="#f2f5fa" d="M143.348 187.383h-42.459c-5.246-26.486-10.033-50.97-10.232-53.4-.259-3.159 1.088-15.411 2.3-25.652l.08-.683.186-1.565.084-.707.088-.735 1.33-11.24.002-.016c.269-2.555 2.21-11.327 3.231-15.84l.087-.39a91.144 91.144 0 0 1 .536-2.342l-1.035-.147s.914-.817 1.24-.844c.3-.024 5.058 1.575 5.822 1.834l24.356 3.406c1.289.484 5.448 3.093 5.881 5.179.434 2.09 4.077 24.082 3.701 38.74-.24 9.34.14 22.363.895 33.537.43 6.363.983 12.126 1.608 16.268.462 3.057 1.308 8.384 2.299 14.597z"/></g><g><path fill="#f2f5fa" d="M63.5 77.453c-.556.172-1.252.39-2.056.642l-.315-.814c.543-.268.935-.448 1.017-.455.313-.029 1.282.581 1.355.627z"/></g><g><path fill="#f2f5fa" d="M152.424 186.656l-.017.027-.01.017c-.012-.015-.024-.03-.038-.044z"/></g><g><path fill="#0600a0" d="M124.524 90.524c-1.352 6.38-4.27 11.92-7.795 16.261-4.273 5.26-9.495 8.912-15.013 10.496-5.64 1.62-11.463 1.1-17.19.356-5.893-.768-11.823-1.78-17.44-4.457-5.617-2.674-11.722-5.925-15.396-12.589-3.675-6.663-5.494-15.708-3.96-23.918 1.237-6.624 5.248-13.426 6.406-20.083.78-4.476.555-9.304-.635-13.592-.724-2.613-1.79-5.009-2.511-7.622-1.963-7.09-.86-15.143 2.727-21.544 3.13-5.587 8.11-9.014 13.747-11C70.974 1.596 74.67.887 78.414.564c3.809-.329 7.665-.26 11.42.06 26.611 2.265 16.663 36.767 22.67 52.853.063.167.126.335.194.5 2.662 6.702 7.487 10.687 10.363 17.258 2.47 5.647 2.814 12.906 1.463 19.29z"/></g><g opacity=".33"><path fill="#000005" d="M61.234 51.006l.847 6.662c.205 1.61-.853 4.1-1.143 5.686-.602 3.288-1.53 6.716-1.645 10.138-.062 1.816.1 3.658.685 5.388.486 1.434 1.799 2.773 1.013 4.343-1.445 2.89 51.705 4.24 50.99-1.815-.044-.373-.086-.749-.155-1.116-.02 1.198-.228 1.535-.99.493-1.762-2.406-1.99-5.655-2.977-8.402-1.658-4.607-4.552-8.401-6.818-12.687-2.102-3.977-3.744-8.395-4.2-12.888-4.965-48.971 0 0 0 0"/></g><g><path fill="#fff" d="M135.465 181.395c.136 1.652.388 3.98.717 6.715H43.025c-1.194-11.022-9.503-45.506-10.181-53.793-.698-8.51-4.227-38.738-3.362-41.022.864-2.284 2.597-5.745 3.868-6.293.836-.358 14.272-4.58 23.363-7.426l4.731-1.48 5.036 12.98s.351-.959-.206-3.723c-1.46-3.822-3.05-7.93-3.764-9.582l.996-.315-.003-.003 1.383-.433.104-.032 15.57 1.717 15.448-4.257s31.142 4.425 32.486 4.757c1.342.334 3.614 3.466 4.84 5.579 1.226 2.114 2.664 32.511 3.362 41.024.697 8.512-2.05 45.619-1.23 55.587z"/></g><g><path fill="#fff" d="M101.155 75.181c-.142.753-.498 1.463-1.065 2.113-10.593 12.14-21.392 14.43-33.443 6.952a43.342 43.342 0 0 1-2.761-1.868 52.835 52.835 0 0 1-2.459-1.914c-.668-.554-1.138-1.2-1.4-1.925.802-.253 1.534-.48 2.173-.681l2.79-.87.204.022 3.682.407 11.685 1.288 14.265-3.93 1.177-.325.005-.002a5210.718 5210.718 0 0 0 5.147.733z"/></g><g opacity=".14"><path fill="#0600a0" d="M98.63 74.82a378.221 378.221 0 0 0-2.627-.37c.2.041.344.067.354.053a18.692 18.692 0 0 1-2.75 3.134l.085.015s3.45.61 4.39-.664c.365-.496.627-1.318.809-2.131z"/></g><g><path fill="#0600a0" d="M143.464 188.11h-42.432c-.048-.243-.097-.485-.143-.727-5.246-26.486-10.033-50.97-10.232-53.4-.259-3.159 1.088-15.41 2.3-25.652l.08-.683.186-1.565.084-.707.088-.735c.673-5.583 1.225-10.016 1.317-11.099.005-.043.007-.089.013-.14l.002-.017.02-.16c.319-2.689 2.135-10.927 3.153-15.415l.058-.265.087-.39.036-.167h.003c0-.01.003-.019.005-.027.189-.83.334-1.465.414-1.823l.034-.146.044-.179 6.027.843 8.362 1.17 2.131.298.388.053c1.569.22 3.14.441 4.709.659 1.668.232 3.337.468 5.007.7h.009l2.725.383.577.08.448.063c1.289.484 5.448 3.093 5.881 5.179.06.298.19.995.359 2.02 1.03 6.177 3.665 24.145 3.342 36.72-.24 9.34.14 22.363.895 33.537l.023.363c.43 6.218.972 11.843 1.585 15.905a2277.416 2277.416 0 0 0 2.415 15.324z"/></g><g opacity=".13"><path fill="#606060" d="M98.487 76.361s1.004-.817 1.363-.844c.36-.026 6.515 1.869 6.515 1.869s8.011 12.191 8.16 13.831c.054.611-1.408 2.822-5.088 6.056-6.19 5.44-15.996 12.754-15.996 12.754l1.968-15.106s3.218-14.767 4.216-18.411z"/></g><g><path fill="#6b51ef" d="M113.016 90.17c.133 1.64-20.06 18.16-20.06 18.16l.08-.682.187-1.565.084-.707.088-.735 1.33-11.24.002-.016.02-.16s1.942-9.812 3.153-15.415l.058-.265.087-.39.036-.167h.003c.126.025 4.55.875 8.05.964 2.347 3.762 6.782 11.015 6.881 12.218z"/></g><g><path fill="#0600a0" d="M33.712 86.974s-5.278 2.771-8.8 8.846C22.921 99.255 2.081 162.664.751 166.787c-1.33 4.124.26 13.73 5.852 18.882a475.81 475.81 0 0 0 2.685 2.44h26.685c-4.08-4.374-5.685-6.98-8.153-9.652-.92-.996-2.018-2.637-2.204-2.86-1.297-1.543-2.078-3.116-.704-6.314 1.375-3.196 15.413-37.63 15.413-37.63s6.46-35.506-6.613-44.68z"/></g><g><path fill="#0600a0" d="M62.509 77.77s6.087 14.768 6.866 17.85c.779 3.081 10.144 33.849 10.586 39.24.197 2.395-.517 26.692-1.367 53.25H36.62c-.019-2.772-.04-5.1-.061-6.76-.157-11.546-2.881-35.15-5.64-49.549-2.757-14.4-2.744-36.694-2.656-38.824.088-2.13 3.767-5.382 4.96-6.07z"/></g><g opacity=".14"><path fill="#0600a0" d="M69.017 94.586c-.165.742-2.94-6.392-5.131-12.208a986.335 986.335 0 0 1-1.686-4.52l2.79-.87.204.022c.72.737 1.492 1.4 2.308 1.996-.513.76-.879 1.611-.94 2.522-.057.874-.018 1.79.085 2.718.516 4.546 2.6 9.313 2.37 10.34z"/></g><g opacity=".13"><path fill="#606060" d="M62.294 77.456s-1.033-.658-1.36-.631c-.327.026-5.543 2.807-5.543 2.807s-5.968 14-5.833 15.64c.134 1.641 22.746 14.652 22.746 14.652L68.08 95.311s-5.292-14.092-6.781-17.54z"/></g><g><path fill="#6b51ef" d="M69.29 95.31s-1.431-3.812-3.016-7.957c-1.46-3.822-3.05-7.93-3.764-9.582l.996-.315-.003-.003H63.5c-.072-.046-1.041-.656-1.354-.627-.082.007-.474.187-1.017.455-1.421.703-3.866 2.001-4.416 2.295-.072.036-.11.057-.11.057s-5.97 14-5.834 15.639c.133 1.64 22.746 14.652 22.746 14.652z"/></g><g><path fill="#ffbd00" d="M96.357 74.503a18.694 18.694 0 0 1-4.152 4.292c-7.119 5.342-17.561 5.421-24.703.211a9.43 9.43 0 0 1 1.374-1.589 15.245 15.245 0 0 1 3.015-2.187l-.096-.053c.828-.756 1.325-1.905 1.25-3.021l-.252-3.876-.23-3.517-.565-8.616-.702-6.759s4.389.43 8.94 1.202c4.39-1.688 8.665-3.006 8.665-3.006l.187 6.811s.2 3.064.429 6.533c.254 3.92.545 8.357.62 9.476.16 2.44 2.577 3.331 4.62 3.743.079.014.798.203 1.246.303.2.04.344.067.354.053z"/></g><g><path fill="#dd9f05" d="M71.891 75.23s-1.576.826-3.015 2.187a9.43 9.43 0 0 0-1.374 1.59 18.31 18.31 0 0 1-2.393-2.082c.12-.119.516-.126.669-.155.494-.097.993-.179 1.49-.264 1.29-.22 2.686-.2 3.863-.85.24-.13.463-.293.664-.48z"/></g><g><path fill="#ffbd00" d="M56.448 42.528a5.504 5.504 0 0 0-.405.108l-.004.002a5.629 5.629 0 1 0 4.781.7c.294 1.641.217 3.713-1.875 4.11l-.234-3.236c-.095-1.31-1.369-1.8-2.262-1.684z"/></g><g><path fill="#dd9f05" d="M96.003 74.45l-1.177.325c-.486.924-.973 1.847-1.475 2.763-.418.756-4.798-2.358-5.238-2.655-2.416-1.627-4.403-3.546-7.554-3.391-4.765.235-5.996-2.136-7.766-3.212-2.132-1.293-2.597-2.982-2.597-2.982l2.367-.535 16.954-3.835c.254 3.92.545 8.358.62 9.476.16 2.44 2.577 3.331 4.62 3.743.079.014.798.203 1.246.303z"/></g><g><path fill="#ffbd00" d="M96.899 38.839c.14.006.28.016.417.032l.004.001a5.63 5.63 0 0 1-.036 11.184 5.63 5.63 0 0 1-4.54-9.63c.009 1.667.46 3.69 2.59 3.703l-.357-3.226C94.834 39.597 96 38.884 96.9 38.84z"/></g><g><path fill="#ffbd00" d="M74.181 13.355c-9.6.81-18.637 7.794-17.5 20.271l1.592 17.454c.963 10.553 10.387 18.4 20.94 17.437 10.552-.962 18.4-10.384 17.438-20.938L95.06 30.126c-1.114-12.218-11.278-17.58-20.879-16.77z"/></g><g><path fill="#6b51ef" d="M143.464 188.11h-4.203c-.579-4.702-3.006-12.446-9.476-25.192-16.101-31.723-8.047-70.906-7.919-71.524-.862 5.137-.6 10.668-.28 15.108.419 5.845 1.634 11.641 3.112 17.416.848 3.316 7.306 24.352 14.743 32.6.43 6.363.983 12.126 1.608 16.268.48 3.176 1.373 8.8 2.415 15.324z"/></g><g><path fill="#0600a0" d="M104.688 31.034c-.633 3.472-2.33 6.85-3.835 9.91-1.945-.048-2.592 1.406-2.621 2.65l-.235 10.099c-5.164-.158-6.254-10.27-5.606-18.788l1.786 2.537 2.665-12.597-24.466-5.813H60.022l-5.813 7.025 3.875 12.838s.49-.593 1.214-1.412c-.036.443-.07.886-.104 1.33-.252 3.454-1.228 7.07-1.228 10.52-.075-9.481-4.089-17.7-6.066-26.736-.746-3.41-1.082-7.038.065-10.337C54.76 4.222 65.736.05 73.154 4.133c3.367 1.85 7.049 3.088 10.902 3.32.734.046 1.47.054 2.207.054a48.572 48.572 0 0 0 3.954 2.652c7.23 4.336 12.431 11.39 14.2 19.633.086.41.178.823.27 1.242z"/></g><g><path fill="#0600a0" d="M151.67 102.124c-1.426-1.528-13.484-16.435-19.882-21.483-1.44-1.136-2.594-1.773-3.272-1.642a.667.667 0 0 0-.308.133c-.174.138-.346.279-.513.426-3.365 2.914-5.049 7.217-5.826 11.828l2.923 5.65c-.748-1.318-2.933-4.252-2.933-5.575-.482 9.404-1.187 19.067.548 28.383 1.623 8.7 5.125 16.905 9.158 24.737.933 1.816 4.247 8.337 7.9 12.3 2.45 2.66 5.052 4.167 7.191 2.33a13.1 13.1 0 0 1 1.151-.879c4.612-3.17 11.916-4.474 17.47-7.092.828-.388 1.62-.81 2.357-1.27 2.066-1.29 3.71-2.894 4.602-5.05 7.182-17.359-9.953-31.416-20.565-42.796z"/></g><g><path fill="#0600a0" d="M72.376 19.032H60.022l-5.813 7.025 3.875 12.838s.49-.593 1.214-1.412c.077-.928.157-1.853.22-2.784.06-.937.114-1.877.138-2.817.025-.828.02-1.661-.118-2.483-.041-.234-.093-.47-.136-.7-.097-.54-.138-1.067.158-1.593.334-.594.942-.991 1.586-1.18 1.253-.366 2.618-.112 3.859.17 1.143.256 2.427.401 3.413-.23.952-.614 1.42-1.837 2.435-2.343 1.024-.511 2.247-.128 3.326.26 3.546 1.273 7.099 2.97 10.89 3.284 2.82.232 5.695.3 8.52.08-.544 2.083-.974 4.825-1.198 7.758l1.786 2.537 2.665-12.597z"/></g><g><path fill="#dd9f05" d="M93.589 27.147c-.544 2.083-.974 4.825-1.198 7.758l-2.817-4.004s-11.87-3.633-15.987-2.18c-4.117 1.454-7.024 4.845-8.478 4.118-1.022-.511-4.086 2.699-5.811 4.644.077-.928.157-1.853.22-2.784.06-.937.114-1.876.138-2.817.025-.828.02-1.661-.118-2.483-.041-.234-.092-.47-.136-.7-.097-.54-.138-1.067.158-1.593.334-.594.942-.991 1.586-1.18 1.253-.366 2.618-.111 3.859.17 1.143.256 2.427.401 3.413-.23.952-.614 1.42-1.837 2.435-2.343 1.024-.511 2.247-.128 3.326.26 3.546 1.273 7.099 2.97 10.89 3.284 2.82.232 5.695.3 8.52.08z"/></g><g><path fill="#fdb2d0" d="M96.357 74.503a18.693 18.693 0 0 1-2.732 3.118c-.025.021-.121-.003-.264-.056l1.465-2.79 1.177-.325c.2.041.344.067.354.053z"/></g><g><path fill="#f50" d="M106.134 77.952c-3.5-.089-7.924-.94-8.05-.964h-.003l.008-.027a81.577 81.577 0 0 1 .492-2.148l-1.035-.147s.914-.817 1.24-.844c.3-.024 5.058 1.575 5.821 1.834l.105.034s.574.904 1.422 2.262z"/></g><g><path fill="#0600a0" d="M106.134 77.952c-3.5-.089-7.924-.94-8.05-.964h-.003l.008-.027a81.577 81.577 0 0 1 .492-2.148l-1.035-.147s.914-.817 1.24-.844c.3-.024 5.058 1.575 5.821 1.834l.105.034s.574.904 1.422 2.262z"/></g><g><path fill="#ff7f00" d="M112.97 76.826c-1.321.024-2.45.184-3.048.584-.693.46-2.136.586-3.788.542-.848-1.358-1.422-2.262-1.422-2.262l-.105-.034z"/></g><g><path fill="#6b51ef" d="M128.332 79.147c-.201.162-.13.482.119.545a5.032 5.032 0 0 1 2.185 1.189c1.108 1.03 2.788 2.789 4.568 5.38 1.902 2.761 3.919 6.472 5.482 11.254 4.117 12.596 19.136 17.198 22.527 30.279 2.005 7.734-2.907 20.347 0 24.465.829-.387 3.684-1.829 4.42-2.289 2.067-1.29 3.711-2.894 4.603-5.05 7.182-17.359-9.953-31.416-20.565-42.796-1.427-1.528-13.485-16.435-19.883-21.483-1.44-1.136-2.594-1.773-3.272-1.642z"/></g><g><path fill="#6b51ef" d="M128.046 78.948c-.296.165-.688.252-.998.305-1.757.3-3.527.155-5.288.029-1.78-.126-3.549-.351-5.312-.62-1.143-.177-2.285-.37-3.425-.572-1.073-.188-2.03-.218-3.123-.16-.598.035-1.187.093-1.783.066-.25-.01-1.877.128-1.983-.044-.848-1.358-1.422-2.262-1.422-2.262l-.105-.034 8.363 1.17 2.131.298.388.053 4.709.66c1.668.232 3.337.467 5.007.7h.009l2.725.382c.037.007.073.02.107.029z"/></g><g><path fill="#0600a0" d="M104.688 31.034c-.093-.419-.185-.833-.272-1.242-1.768-8.243-6.969-15.297-14.2-19.633a48.565 48.565 0 0 1-3.953-2.653c1.442-.001 2.882-.046 4.32.06 3.826.285 7.097 2.198 8.816 5.682.722 1.458.594 3.137 1.144 4.643 1.272 3.481 4.258 6.097 4.396 9.978a14.381 14.381 0 0 1-.251 3.165z"/></g><g opacity=".33"><path fill="#000005" d="M104.762 31.048c-.907-4.7-1.75-9.43-4.013-13.708-1.552-2.933-2.356-6.741-5.588-8.321-4.608-2.252-8.684-1.195-12.756-4.952-.444-.41-3.175-3.431-3.52-3.316C83.352-.733 90.3.216 94.741 1.585c17.383 5.355 14.492 27.221 15.721 41.418.32 3.692 1.28 7.19 2.16 10.781-3.762-7.164-6.328-14.803-7.861-22.736z"/></g><g><path fill="#ffe8d0" d="M48.447 151.401l1.641-49.163 66.86 2.232-1.64 49.163z"/></g><g><g><g><g><path fill="#0600a0" d="M108.39 135.388l-52.68-1.538.114-3.914 52.68 1.538z"/></g></g><g><g><path fill="#0600a0" d="M108.213 141.02l-52.68-1.539.113-3.91 52.681 1.537z"/></g></g><g><g><path fill="#0600a0" d="M101.185 146.469l-45.83-1.338.114-3.91 45.83 1.337z"/></g></g></g></g><g><g><g><g><path fill="#0200a0" d="M59.991 124.95c-1.474-.054-2.895-1.58-2.842-3.055l.538-15.016c.053-1.475 1.58-2.896 3.054-2.843l28.461 1.02c1.474.053 2.896 1.58 2.843 3.054l-.539 15.017c-.053 1.474-1.58 2.896-3.054 2.843z"/></g><g><g><text dominant-baseline="text-before-edge" style="line-height:9.833520889282227px;font-kerning:normal" fill="#fff" font-family="'Poppins-Black','Poppins-Black'" font-size="8.19" transform="translate(66 106)"><tspan font-family="Poppins Black" font-style="none" font-weight="400">ID</tspan></text></g></g><g><path fill="#c6c6c5" d="M71.749 123.516l-11.95-.429.428-11.95 11.95.428z"/></g><g><g><path fill="#fff" d="M71.749 123.516l-11.95-.429.428-11.95 11.95.428z"/></g></g><g><g><g><path fill="#fff" d="M81.795 120.611l-7.17-.257.027-.747 7.17.257z"/></g><g><path fill="#fff" d="M81.742 122.105l-7.17-.257.026-.747 7.17.257z"/></g><g><path fill="#fff" d="M81.688 123.599l-7.17-.257.027-.747 7.17.257z"/></g></g><g><g><path fill="#fff" d="M89.18 114.893l-14.34-.514.026-.747 14.34.514z"/></g><g><path fill="#fff" d="M89.126 116.387l-14.34-.514.027-.747 14.34.514z"/></g><g><path fill="#fff" d="M89.073 117.88l-14.34-.514.026-.747 14.34.515z"/></g></g><g><path fill="#fff" d="M88.858 123.856l-6.423-.23.134-3.735 6.423.23z"/></g></g></g></g></g><g><g><path fill="#ffbc00" d="M91.41 120.403c.084-.057.138-.1.166-.118a2.9 2.9 0 0 0-.174.224l-.002.004c-.217.325-.484.94-.052 1.574.56.816 2.492.032 3.759-.598.6-.3 1.05-.566 1.134-.614a.97.97 0 0 0-.256.387c-.097.252-.122.61.179 1.056 1.155 1.717 8.23-2.045 10.586-3.095 2.347-1.054 7.521-2.206 9.56-2.675 2.032-.465 4.433-1.387 5.273.86.837 2.25 1.98 5.282 1.98 5.282l7.807-11.117s-6.137-9.287-8.508-10.668c-2.375-1.384-19.48-3.363-21.011-2.596-1.54.772-11.184 12.18-11.878 12.998-.695.82-3.178 3.542-1.893 4.689.684.611 1.398.487 1.852.294.15-.058.269-.13.352-.184a.107.107 0 0 1-.046.04c-.131.096-.327.25-.557.44-1.174.975-3.277 2.986-2.244 4.206 1.15 1.354 3.324.046 3.97-.385z"/></g><g><path fill="#f6af94" d="M89.932 116.29c.15-.058.269-.13.352-.184.342-.29.807-.695 1.365-1.181 1.168-1.009 2.702-2.381 4.246-3.744.777-.68 1.555-1.35 2.272-1.996.345-.339.69-.653 1-.971.313-.31.605-.611.87-.89.27-.279.502-.546.716-.778.214-.231.4-.436.544-.61.298-.342.458-.548.458-.548l-.046-.048s-.216.144-.578.418c-.185.132-.403.297-.649.494-.243.2-.529.415-.824.661-.298.248-.618.517-.951.808-.34.285-.677.606-1.035.929-.7.664-1.427 1.4-2.155 2.122-1.47 1.443-2.949 2.875-4.038 3.971-.694.697-1.238 1.24-1.547 1.547z"/></g><g><path fill="#f6af94" d="M91.402 120.51c.286-.214.991-.745 1.934-1.456 1.244-.929 2.883-2.202 4.527-3.465.822-.629 1.653-1.244 2.418-1.845.369-.316.74-.609 1.072-.904.336-.292.652-.573.937-.834.289-.263.541-.512.775-.73.23-.214.426-.411.586-.572.323-.326.5-.52.5-.52l-.047-.056s-.224.133-.609.38c-.193.12-.426.276-.68.454-.259.183-.564.38-.878.61-.317.225-.653.475-1.012.74-.357.267-.72.565-1.105.862-.742.622-1.526 1.306-2.307 1.981-1.58 1.35-3.165 2.683-4.333 3.707-.835.727-1.474 1.28-1.77 1.54.084-.056.138-.099.166-.117a2.92 2.92 0 0 0-.174.224z"/></g><g><path fill="#f6af94" d="M95.985 121.262c1.107-.711 2.385-1.54 3.66-2.36.876-.56 1.756-1.107 2.563-1.643.396-.285.789-.544 1.142-.813.36-.26.698-.514 1.002-.755.312-.236.583-.467.835-.66.245-.196.463-.374.63-.524.349-.297.538-.476.538-.476l-.038-.06s-.235.114-.638.33c-.2.104-.444.241-.718.394-.273.162-.588.332-.923.537-.333.197-.692.418-1.065.656-.38.235-.768.503-1.175.77-.797.555-1.626 1.172-2.468 1.783-1.506 1.085-3.023 2.167-4.223 3.048.6-.3 1.05-.566 1.134-.614a.97.97 0 0 0-.256.387z"/></g><g><path fill="#ffe367" d="M88.474 115.537c-.885-.837.322-1.928 1.176-2.83.492-.102 1.607.87 1.586 1.5-1.176 1.243-2.037 2.014-2.762 1.33z"/></g></g><g><g><g/><g clip-path="url(#uepxa)"><g><path fill="#f2f5fa" d="M72.826 134.247l-5.001-.214c-.485-3.146-.926-6.055-.937-6.342-.014-.374.206-1.81.4-3.011l.013-.08.03-.184.014-.082.013-.086.214-1.318v-.002c.044-.3.317-1.323.46-1.85l.013-.045c.027-.103.05-.19.069-.253l.005-.02-.121-.023s.112-.092.15-.093c.036-.001.589.21.677.245l2.852.524c.15.063.627.392.667.64.041.248.36 2.857.242 4.582-.076 1.1-.096 2.636-.064 3.956.019.752.055 1.434.107 1.925.04.362.112.994.197 1.73z"/></g><g><path fill="#f2f5fa" d="M63.973 120.894l-.245.065-.033-.097a.865.865 0 0 1 .122-.049c.037-.002.148.075.156.081z"/></g><g><path fill="#f2f5fa" d="M73.9 134.207l-.002.003-.002.002-.004-.005z"/></g><g><path fill="#f2f5fa" d="M75.002 134.942l.008.002"/></g><g><path fill="#0600a0" d="M71.097 122.741a4.562 4.562 0 0 1-1 1.876c-.53.599-1.164 1.002-1.822 1.161-.672.163-1.356.073-2.027-.044-.69-.12-1.384-.27-2.032-.613-.648-.343-1.351-.757-1.75-1.56-.4-.804-.57-1.879-.347-2.838.18-.775.686-1.556.856-2.334a3.723 3.723 0 0 0-.006-1.604c-.073-.312-.186-.6-.258-.911-.196-.845-.025-1.788.43-2.524.397-.643 1.001-1.022 1.675-1.227a5.23 5.23 0 0 1 1.301-.212c.45-.02.905.008 1.345.064 3.124.4 1.778 4.416 2.405 6.34l.02.06c.28.804.829 1.298 1.134 2.086.263.678.267 1.535.076 2.28z"/></g><g opacity=".33"><path fill="#000005" d="M63.84 117.767l.066.789c.015.19-.121.478-.164.664-.087.384-.214.784-.245 1.186-.016.214-.006.432.054.638.05.172.198.336.098.517-.185.333 6.07.76 6.016.043-.004-.044-.006-.089-.013-.132-.008.14-.034.18-.119.053-.195-.293-.206-.676-.308-1.005-.172-.551-.494-1.013-.74-1.53-.227-.478-.398-1.007-.43-1.539-.338-5.794 0 0 0 0"/></g><g><path fill="#fff" d="M71.928 133.501c.008.196.026.471.05.796l-10.974-.47c-.085-1.304-.89-5.408-.929-6.388-.04-1.006-.302-4.585-.19-4.85.114-.265.335-.664.488-.722.1-.038 1.704-.467 2.79-.757l.565-.151.528 1.555s.046-.112-.006-.44a42.64 42.64 0 0 0-.395-1.148l.119-.032.165-.044.012-.003 1.826.28 1.841-.423s3.647.677 3.804.723c.156.047.408.427.541.682.134.255.15 3.844.19 4.85.04 1.007-.47 5.364-.425 6.542z"/></g><g><path fill="#fff" d="M68.42 120.816a.528.528 0 0 1-.135.244c-1.31 1.377-2.593 1.592-3.975.65a5.283 5.283 0 0 1-.596-.472.522.522 0 0 1-.155-.234l.26-.069.332-.088.024.003.432.067 1.37.21 1.7-.391.14-.032h.001l.338.062.265.05z"/></g><g opacity=".14"><path fill="#0600a0" d="M68.125 120.76a34.657 34.657 0 0 0-.266-.049 2.185 2.185 0 0 1-.34.356l.01.002s.403.09.52-.055a.733.733 0 0 0 .107-.248z"/></g><g><path fill="#0600a0" d="M72.837 134.333l-5-.214-.012-.086c-.485-3.146-.926-6.055-.937-6.342-.014-.374.206-1.81.4-3.011l.013-.08.03-.184.014-.082.013-.086c.107-.655.195-1.174.211-1.301l.003-.017v-.002l.003-.019c.051-.315.307-1.276.45-1.8l.007-.03.013-.046.005-.02v-.003l.059-.213.005-.017.005-.02.706.13.98.18.249.045.045.008.552.101.586.108h.002l.319.06.067.012.052.009c.15.063.627.392.668.64.005.035.017.118.032.24.09.733.31 2.863.209 4.342-.076 1.1-.096 2.636-.064 3.956l.001.043c.02.735.055 1.4.106 1.882.04.362.112.994.197 1.73z"/></g><g opacity=".13"><path fill="#606060" d="M68.1 120.941s.123-.091.165-.092c.043-.002.759.253.759.253s.882 1.476.892 1.67c.003.072-.181.326-.63.688-.757.61-1.95 1.422-1.95 1.422l.309-1.77s.453-1.723.589-2.148z"/></g><g><path fill="#6b51ef" d="M69.743 122.641c.007.194-2.455 2.039-2.455 2.039l.013-.08.03-.184.014-.082.013-.086.214-1.318v-.002l.003-.019s.279-1.146.45-1.8l.007-.03.013-.046.005-.02c.015.004.532.126.944.154.257.455.743 1.332.749 1.474z"/></g><g><path fill="#0600a0" d="M60.416 121.866s-.636.3-1.081.997c-.252.395-3.026 7.76-3.204 8.24-.178.479-.038 1.618.595 2.253.068.07.172.172.304.302l2.72.116c-.688-.804-1.31-1.533-1.373-1.614-.145-.189-.23-.378-.05-.747.178-.37 2.643-4.25 2.643-4.25s.94-4.15-.554-5.297z"/></g><g><path fill="#0600a0" d="M63.855 120.926s.642 1.77.72 2.138c.075.367 1.024 4.039 1.048 4.676.012.284-.195 3.142-.428 6.266l-4.946-.211.027-.797c.04-1.36-.162-4.155-.415-5.865-.252-1.71-.138-4.337-.117-4.587.02-.251.47-.616.615-.69z"/></g><g opacity=".14"><path fill="#0600a0" d="M64.537 122.94c-.023.087-.314-.767-.543-1.464l-.176-.54.333-.09.024.004c.081.09.169.173.262.247a.609.609 0 0 0-.124.292c-.01.103-.01.21-.003.321.038.538.259 1.11.227 1.23z"/></g><g opacity=".13"><path fill="#606060" d="M63.831 120.888s-.118-.083-.156-.081c-.04.002-.668.303-.668.303s-.774 1.62-.766 1.813c.007.194 2.606 1.84 2.606 1.84l-.424-1.742s-.553-1.687-.711-2.1z"/></g><g><path fill="#6b51ef" d="M64.566 123.027s-.15-.457-.316-.953c-.153-.458-.32-.95-.395-1.148l.119-.032c-.01-.006-.12-.083-.157-.08-.01 0-.057.019-.122.048-.172.075-.466.216-.532.248l-.013.006s-.774 1.62-.767 1.813c.008.194 2.607 1.84 2.607 1.84z"/></g><g><path fill="#ffbd00" d="M67.859 120.711a2.184 2.184 0 0 1-.51.486c-.867.593-2.097.55-2.912-.1.05-.067.109-.127.17-.18.176-.154.366-.243.366-.243l-.01-.006a.453.453 0 0 0 .161-.35c0-.069-.005-.242-.01-.458l-.01-.415-.022-1.019-.049-.799s.515.072 1.048.187a17.58 17.58 0 0 1 1.035-.311l-.012.803.017.772.026 1.12c.007.288.287.405.525.464l.145.042c.024.006.04.01.042.007z"/></g><g><path fill="#dd9f05" d="M64.973 120.674s-.19.09-.366.243c-.061.053-.12.113-.17.18a2.16 2.16 0 0 1-.262-.247l-.01-.01c.015-.014.062-.012.08-.015.059-.01.118-.016.177-.024.153-.02.318-.01.46-.08a.41.41 0 0 0 .08-.054z"/></g><g><path fill="#ffbd00" d="M63.319 116.744l-.049.01a.665.665 0 0 0 .187 1.306.662.662 0 0 0 .373-1.199c.026.195.006.439-.242.475l-.011-.383c-.005-.154-.153-.218-.258-.21z"/></g><g><path fill="#dd9f05" d="M67.817 120.704l-.14.032-.187.318c-.053.087-.554-.302-.604-.34-.277-.203-.5-.44-.873-.437-.563.004-.696-.281-.9-.417-.243-.163-.29-.365-.29-.365l.282-.05 2.016-.367.026 1.12c.007.288.287.405.525.464l.145.042z"/></g><g><path fill="#ffbd00" d="M68.102 116.513a.664.664 0 1 1-.498.166c-.007.196.037.437.288.449l-.027-.382c-.01-.155.131-.233.237-.233z"/></g><g><path fill="#ffbd00" d="M65.555 113.396c-1.136.047-2.236.825-2.164 2.3l.099 2.064a2.279 2.279 0 0 0 2.38 2.16 2.279 2.279 0 0 0 2.159-2.379l-.1-2.064c-.069-1.445-1.24-2.128-2.374-2.08z"/></g><g><path fill="#6b51ef" d="M72.837 134.333l-.495-.021c-.045-.557-.292-1.482-.99-3.016-1.737-3.818-.59-8.394-.573-8.466-.127.6-.124 1.254-.109 1.779.02.69.134 1.38.28 2.067.083.395.737 2.906 1.572 3.915.019.752.055 1.434.108 1.925.04.376.117 1.043.207 1.817z"/></g><g><path fill="#0600a0" d="M69.06 115.633c-.093.406-.31.795-.502 1.148-.229-.015-.313.152-.322.3l-.08 1.188c-.606-.045-.684-1.242-.565-2.242l.198.308.377-1.471-2.853-.808-1.455-.062-.72.798.391 1.532s.06-.067.15-.16l-.018.156c-.048.405-.18.827-.198 1.233.039-1.117-.393-2.105-.58-3.18-.07-.406-.092-.835.06-1.218.369-.932 1.684-1.369 2.537-.85a3.065 3.065 0 0 0 1.527.463c.144.117.295.228.453.333a3.583 3.583 0 0 1 1.574 2.384c.007.049.017.098.025.148z"/></g><g><path fill="#0600a0" d="M74.236 124.244c-.16-.187-1.505-2.004-2.234-2.63-.164-.142-.296-.223-.377-.21a.078.078 0 0 0-.037.013c-.021.016-.042.031-.062.048-.411.327-.631.825-.746 1.364l.316.68c-.082-.158-.325-.515-.318-.671-.104 1.106-.235 2.24-.078 3.347.147 1.033.518 2.017.954 2.96.1.219.459 1.004.87 1.489.274.326.573.516.834.31.044-.034.092-.067.14-.097.56-.35 1.427-.467 2.094-.748.1-.041.195-.087.284-.138.25-.141.452-.322.568-.572.933-2.008-1.014-3.75-2.208-5.145z"/></g><g><path fill="#fda118" d="M72.016 135.156l.19-.109"/></g><g><path fill="#0600a0" d="M65.313 114.056l-1.455-.062-.72.798.391 1.532s.06-.067.15-.16c.014-.109.028-.218.04-.327.012-.11.023-.22.031-.33a1.511 1.511 0 0 0-.014-.377c-.009-.065-.01-.127.026-.187a.313.313 0 0 1 .194-.132c.149-.037.308 0 .453.04.134.036.284.06.403-.01.115-.067.176-.209.299-.263.123-.056.266-.004.39.047.412.168.822.385 1.267.442.331.041.67.063 1.003.052-.074.243-.139.563-.18.908l.197.308.378-1.471z"/></g><g><path fill="#dd9f05" d="M67.771 115.119a5.4 5.4 0 0 0-.18.908l-.311-.486s-1.38-.488-1.873-.338c-.493.15-.852.536-1.02.443-.118-.065-.495.297-.708.518.014-.109.028-.218.04-.327.012-.11.023-.22.031-.331a1.512 1.512 0 0 0-.014-.376c-.009-.065-.011-.127.026-.187a.312.312 0 0 1 .194-.132c.149-.036.308.001.453.04.134.036.284.06.403-.01.115-.067.176-.209.299-.263.123-.056.266-.004.39.047.412.168.822.385 1.267.442.331.041.67.063 1.003.052z"/></g><g><path fill="#fdb2d0" d="M67.859 120.711c-.101.133-.214.251-.338.354-.002.003-.013 0-.03-.007l.187-.322.14-.032c.023.005.04.01.04.007z"/></g><g><path fill="#f50" d="M68.994 121.167c-.412-.028-.929-.15-.944-.153v-.004l.059-.213.005-.017.006-.02-.122-.023s.112-.092.15-.093c.037-.001.589.21.677.245l.012.004.157.274z"/></g><g><path fill="#0600a0" d="M68.994 121.167c-.412-.028-.929-.15-.944-.153v-.004l.059-.213.005-.017.006-.02-.122-.023s.112-.092.15-.093c.037-.001.589.21.677.245l.012.004.157.274z"/></g><g><path fill="#ff7f00" d="M69.805 121.07c-.156-.005-.29.009-.362.053-.084.05-.255.058-.45.044l-.156-.274-.012-.004z"/></g><g><path fill="#6b51ef" d="M71.603 121.42a.036.036 0 0 0 .01.064c.096.03.183.08.252.151.126.128.315.343.512.658.21.335.429.782.589 1.353.421 1.505 2.167 2.122 2.501 3.68.198.922-.445 2.383-.123 2.883.1-.041.443-.197.532-.248.25-.142.452-.322.568-.572.933-2.008-1.014-3.75-2.208-5.145-.16-.187-1.505-2.004-2.234-2.631-.164-.141-.296-.222-.377-.21z"/></g><g><path fill="#6b51ef" d="M71.57 121.395a.388.388 0 0 1-.12.03c-.207.027-.416.002-.622-.022a8.3 8.3 0 0 1-.623-.1 20.859 20.859 0 0 1-.4-.085 1.56 1.56 0 0 0-.368-.034c-.07 0-.14.005-.21-.002-.03-.002-.222.006-.234-.015l-.156-.274-.012-.004.98.18.249.046.045.008.552.101c.196.036.39.073.586.108h.002l.319.06z"/></g><g><path fill="#0600a0" d="M69.06 115.633c-.01-.05-.018-.1-.026-.148a3.583 3.583 0 0 0-1.574-2.384 5.762 5.762 0 0 1-.453-.333c.17.007.34.009.508.029.45.053.826.294 1.011.713.078.176.054.373.111.553.133.417.472.74.468 1.198a1.739 1.739 0 0 1-.046.372z"/></g><g opacity=".33"><path fill="#000005" d="M69.068 115.635c-.083-.56-.158-1.12-.404-1.635-.168-.354-.243-.807-.616-1.009-.532-.288-1.017-.185-1.478-.647-.05-.051-.357-.42-.398-.409.534-.152 1.347-.006 1.864.178 2.02.718 1.57 3.28 1.643 4.959.02.436.115.853.201 1.28a9.694 9.694 0 0 1-.812-2.717z"/></g></g></g></g></g></svg>