<svg width="77" height="47" viewBox="0 0 77 47" fill="none" xmlns="http://www.w3.org/2000/svg">
<path d="M0.247314 8.08602C0.247314 3.62024 3.86755 0 8.33334 0H68.4731C72.9389 0 76.5591 3.62024 76.5591 8.08602V38.914C76.5591 43.3798 72.9389 47 68.4731 47H8.33334C3.86755 47 0.247314 43.3798 0.247314 38.914V8.08602Z" fill="#FFE37B"/>
<mask id="path-2-inside-1" fill="white">
<path fill-rule="evenodd" clip-rule="evenodd" d="M68.4731 2.52688H8.33334C5.26311 2.52688 2.7742 5.01579 2.7742 8.08602V38.914C2.7742 41.9842 5.26311 44.4731 8.33334 44.4731H68.4731C71.5434 44.4731 74.0323 41.9842 74.0323 38.914V8.08602C74.0323 5.01579 71.5434 2.52688 68.4731 2.52688ZM8.33334 0C3.86755 0 0.247314 3.62024 0.247314 8.08602V38.914C0.247314 43.3798 3.86755 47 8.33334 47H68.4731C72.9389 47 76.5592 43.3798 76.5592 38.914V8.08602C76.5592 3.62024 72.9389 0 68.4731 0H8.33334Z"/>
</mask>
<path fill-rule="evenodd" clip-rule="evenodd" d="M68.4731 2.52688H8.33334C5.26311 2.52688 2.7742 5.01579 2.7742 8.08602V38.914C2.7742 41.9842 5.26311 44.4731 8.33334 44.4731H68.4731C71.5434 44.4731 74.0323 41.9842 74.0323 38.914V8.08602C74.0323 5.01579 71.5434 2.52688 68.4731 2.52688ZM8.33334 0C3.86755 0 0.247314 3.62024 0.247314 8.08602V38.914C0.247314 43.3798 3.86755 47 8.33334 47H68.4731C72.9389 47 76.5592 43.3798 76.5592 38.914V8.08602C76.5592 3.62024 72.9389 0 68.4731 0H8.33334Z" fill="#303392"/>
<path d="M8.33334 12.5269H68.4731V-7.47312H8.33334V12.5269ZM12.7742 8.08602C12.7742 10.5386 10.786 12.5269 8.33334 12.5269V-7.47312C-0.259739 -7.47312 -7.2258 -0.507054 -7.2258 8.08602H12.7742ZM12.7742 38.914V8.08602H-7.2258V38.914H12.7742ZM8.33334 34.4731C10.786 34.4731 12.7742 36.4614 12.7742 38.914H-7.2258C-7.2258 47.5071 -0.259739 54.4731 8.33334 54.4731V34.4731ZM68.4731 34.4731H8.33334V54.4731H68.4731V34.4731ZM64.0323 38.914C64.0323 36.4614 66.0205 34.4731 68.4731 34.4731V54.4731C77.0662 54.4731 84.0323 47.5071 84.0323 38.914H64.0323ZM64.0323 8.08602V38.914H84.0323V8.08602H64.0323ZM68.4731 12.5269C66.0205 12.5269 64.0323 10.5386 64.0323 8.08602H84.0323C84.0323 -0.507055 77.0662 -7.47312 68.4731 -7.47312V12.5269ZM10.2473 8.08602C10.2473 9.14308 9.3904 10 8.33334 10V-10C-1.6553 -10 -9.75269 -1.90261 -9.75269 8.08602H10.2473ZM10.2473 38.914V8.08602H-9.75269V38.914H10.2473ZM8.33334 37C9.3904 37 10.2473 37.8569 10.2473 38.914H-9.75269C-9.75269 48.9026 -1.6553 57 8.33334 57V37ZM68.4731 37H8.33334V57H68.4731V37ZM66.5592 38.914C66.5592 37.8569 67.4161 37 68.4731 37V57C78.4618 57 86.5592 48.9026 86.5592 38.914H66.5592ZM66.5592 8.08602V38.914H86.5592V8.08602H66.5592ZM68.4731 10C67.4161 10 66.5592 9.14308 66.5592 8.08602H86.5592C86.5592 -1.90261 78.4618 -10 68.4731 -10V10ZM8.33334 10H68.4731V-10H8.33334V10Z" fill="#303392" mask="url(#path-2-inside-1)"/>
<path d="M18.9194 24.9075C15.4103 24.9075 12.5656 27.3407 12.5656 33.0892H25.2732C25.2732 27.3407 22.4285 24.9075 18.9194 24.9075Z" fill="#303392"/>
<path d="M22.9685 19.818C22.9685 22.0455 21.1628 23.8513 18.9352 23.8513C16.7076 23.8513 14.9019 22.0455 14.9019 19.818C14.9019 17.5904 16.7076 15.7846 18.9352 15.7846C21.1628 15.7846 22.9685 17.5904 22.9685 19.818Z" fill="#303392"/>
<path d="M2.77405 8.08603C2.77405 5.0158 5.26296 2.52689 8.33319 2.52689H68.473C71.5432 2.52689 74.0321 5.0158 74.0321 8.08603V10.3602H2.77405V8.08603Z" fill="#6857E5"/>
<path d="M21.0899 7.83334H20.4977V4.95901H21.0899V7.83334Z" fill="white"/>
<path d="M22.2472 7.83334V4.95901H23.1316C23.3842 4.95901 23.61 5.01626 23.8087 5.13076C24.0087 5.24394 24.1647 5.40582 24.2766 5.61639C24.3884 5.82565 24.4444 6.06386 24.4444 6.33103V6.46329C24.4444 6.73046 24.3891 6.96801 24.2785 7.17595C24.1693 7.38389 24.0147 7.54511 23.8146 7.65961C23.6146 7.77411 23.3889 7.83202 23.1375 7.83334H22.2472ZM22.8394 5.43872V7.35757H23.1256C23.3573 7.35757 23.5343 7.2819 23.6567 7.13055C23.7791 6.9792 23.8416 6.7627 23.8442 6.48106V6.32905C23.8442 6.03688 23.7837 5.81578 23.6626 5.66574C23.5415 5.5144 23.3645 5.43872 23.1316 5.43872H22.8394Z" fill="white"/>
<path d="M27.2125 6.58766H26.0754V7.35757H27.4099V7.83334H25.4831V4.95901H27.4059V5.43872H26.0754V6.12374H27.2125V6.58766Z" fill="white"/>
<path d="M30.7012 7.83334H30.1089L28.956 5.94212V7.83334H28.3638V4.95901H28.956L30.1109 6.85417V4.95901H30.7012V7.83334Z" fill="white"/>
<path d="M33.9292 5.43872H33.0488V7.83334H32.4565V5.43872H31.5879V4.95901H33.9292V5.43872Z" fill="white"/>
<path d="M35.505 7.83334H34.9128V4.95901H35.505V7.83334Z" fill="white"/>
<path d="M38.7666 5.43872H37.8862V7.83334H37.2939V5.43872H36.4253V4.95901H38.7666V5.43872Z" fill="white"/>
<path d="M40.7352 6.25403L41.3334 4.95901H41.9809L41.0373 6.791V7.83334H40.4352V6.791L39.4915 4.95901H40.141L40.7352 6.25403Z" fill="white"/>
<path d="M46.7196 6.87588C46.6972 7.18516 46.5827 7.42864 46.3761 7.60631C46.1708 7.78398 45.8997 7.87282 45.5628 7.87282C45.1943 7.87282 44.9041 7.74911 44.6922 7.50168C44.4816 7.25294 44.3763 6.91208 44.3763 6.47908V6.30339C44.3763 6.02701 44.425 5.78353 44.5224 5.57296C44.6198 5.36239 44.7586 5.20117 44.9389 5.0893C45.1206 4.97612 45.3311 4.91953 45.5707 4.91953C45.9023 4.91953 46.1695 5.00836 46.3722 5.18603C46.5748 5.3637 46.692 5.6131 46.7236 5.93423H46.1313C46.1168 5.74866 46.0649 5.61442 45.9754 5.5315C45.8872 5.44727 45.7523 5.40516 45.5707 5.40516C45.3733 5.40516 45.2252 5.47623 45.1265 5.61837C45.0291 5.75919 44.9791 5.97831 44.9765 6.27575V6.4929C44.9765 6.8035 45.0232 7.03052 45.1166 7.17398C45.2114 7.31743 45.3601 7.38916 45.5628 7.38916C45.7457 7.38916 45.8819 7.3477 45.9714 7.26479C46.0622 7.18056 46.1142 7.05092 46.1274 6.87588H46.7196Z" fill="white"/>
<path d="M49.3377 7.2411H48.2993L48.1019 7.83334H47.4721L48.5421 4.95901H49.0909L50.1668 7.83334H49.5371L49.3377 7.2411ZM48.4592 6.76139H49.1778L48.8165 5.68549L48.4592 6.76139Z" fill="white"/>
<path d="M52.1058 6.78113H51.634V7.83334H51.0418V4.95901H52.1098C52.4493 4.95901 52.7112 5.03468 52.8955 5.18603C53.0797 5.33738 53.1718 5.55125 53.1718 5.82762C53.1718 6.02372 53.1291 6.18757 53.0435 6.31918C52.9593 6.44947 52.831 6.55344 52.6586 6.63109L53.2804 7.8057V7.83334H52.6447L52.1058 6.78113ZM51.634 6.30141H52.1117C52.2605 6.30141 52.3756 6.26391 52.4572 6.18889C52.5388 6.11256 52.5796 6.00793 52.5796 5.875C52.5796 5.73945 52.5408 5.63284 52.4631 5.55519C52.3868 5.47754 52.269 5.43872 52.1098 5.43872H51.634V6.30141Z" fill="white"/>
<path d="M54.2304 7.83334V4.95901H55.1148C55.3675 4.95901 55.5932 5.01626 55.7919 5.13076C55.9919 5.24394 56.1479 5.40582 56.2598 5.61639C56.3716 5.82565 56.4276 6.06386 56.4276 6.33103V6.46329C56.4276 6.73046 56.3723 6.96801 56.2617 7.17595C56.1525 7.38389 55.9979 7.54511 55.7978 7.65961C55.5978 7.77411 55.3721 7.83202 55.1207 7.83334H54.2304ZM54.8226 5.43872V7.35757H55.1088C55.3405 7.35757 55.5175 7.2819 55.6399 7.13055C55.7623 6.9792 55.8248 6.7627 55.8274 6.48106V6.32905C55.8274 6.03688 55.7669 5.81578 55.6458 5.66574C55.5247 5.5144 55.3477 5.43872 55.1148 5.43872H54.8226Z" fill="white"/>
<rect x="32.0859" y="15.9193" width="33.6075" height="3.53763" rx="1.76882" fill="#FFBE1B"/>
<rect x="32.0859" y="22.4893" width="28.0484" height="3.53763" rx="1.76882" fill="#FFBE1B"/>
<rect x="31.9875" y="29.2987" width="33.5714" height="3.05195" rx="1.52597" fill="#FFBE1B"/>
<rect x="6.69824" y="38.7059" width="63.5882" height="2.76471" rx="1.38235" fill="#6857E5"/>
</svg>
