<svg width="62" height="72" viewBox="0 0 62 72" fill="none" xmlns="http://www.w3.org/2000/svg">
<path opacity="0.6" d="M43.7876 34.5222C42.5692 31.8824 43.28 28.6842 43.7876 27.415C44.3799 26.992 45.8182 25.689 46.8335 23.8614C48.1027 21.577 48.3565 19.0387 48.3565 16.5005C48.3565 14.4699 48.6949 11.7624 48.8642 10.6625C47.6458 1.32168 40.7417 0.340221 37.442 1.01709C25.5121 0.00178295 27.5427 13.9622 27.5427 18.5311C27.5427 22.1862 29.9118 25.6382 31.0963 26.9074C31.3501 29.0226 31.3501 33.3038 29.3195 33.5068C26.7813 33.7607 14.8514 37.8219 12.8208 40.8678C11.1963 43.3045 10.1133 48.4826 9.7749 50.767L27.2889 69.0425C28.8119 74.119 61.3016 72.0884 61.5555 67.2657C61.8093 62.443 61.8093 44.1675 60.0325 40.8678C58.6111 38.228 57.0712 37.7373 56.4789 37.8219C54.0422 36.8066 47.0027 35.199 43.7876 34.5222Z" fill="#FFE37B"/>
<path fill-rule="evenodd" clip-rule="evenodd" d="M27.7983 10.0239C27.7989 12.4161 27.9028 17.675 28.2956 20.0315C28.4754 21.1106 29.0534 22.3677 29.7474 23.5367C30.3871 24.6143 31.0909 25.5601 31.573 26.1381L36.6335 28.5479C37.0424 28.5857 37.6261 28.6268 38.1829 28.6396C38.4929 28.6467 38.7843 28.6448 39.0276 28.6304C39.2884 28.6149 39.4333 28.5879 39.485 28.5707C39.5689 28.5427 39.777 28.4467 40.1068 28.2724C40.4187 28.1077 40.7953 27.897 41.1924 27.6686C41.9713 27.2206 42.8108 26.7148 43.3573 26.3789C46.3806 24.0968 47.2669 21.0173 47.3407 19.859C47.4264 18.2306 47.5932 14.9521 47.5932 14.5728C47.5932 14.4302 47.6133 14.1894 47.6357 13.929C47.6407 13.8711 47.646 13.8102 47.6515 13.7466C47.6727 13.5023 47.6975 13.2165 47.7224 12.8952C47.7843 12.0974 47.8453 11.0959 47.847 10.0494C47.3564 6.01578 45.698 3.94849 43.7871 2.84659C41.814 1.70886 39.45 1.5265 37.4419 1.5265C33.5913 1.5265 31.2544 2.92288 29.8449 4.63186C28.4161 6.3641 27.8804 8.49232 27.7983 10.0239ZM30.3863 27.0985C29.8555 26.4601 29.1118 25.4564 28.4347 24.3159C27.7073 23.0905 27.0161 21.6401 26.7899 20.2825C26.3715 17.7721 26.2718 12.3593 26.2718 10.004V9.9844L26.2728 9.96486C26.3634 8.19808 26.9715 5.71648 28.6672 3.66054C30.3882 1.5741 33.1702 0 37.4419 0C39.4951 0 42.2076 0.173714 44.5496 1.52419C46.9467 2.90644 48.8366 5.44827 49.3682 9.91373L49.3736 9.95868V10.004C49.3736 11.1225 49.3085 12.1849 49.2444 13.0131C49.2188 13.3423 49.1932 13.637 49.172 13.8817C49.1666 13.9444 49.1614 14.0038 49.1566 14.0597C49.1314 14.3532 49.1197 14.5124 49.1197 14.5728C49.1197 15.0054 48.9484 18.3552 48.8648 19.9433L48.8646 19.947L48.8644 19.9508C48.7676 21.4992 47.6949 25.0339 44.2456 27.6209L44.2175 27.642L44.1876 27.6603C43.6332 28.0015 42.7634 28.526 41.9535 28.9918C41.5489 29.2245 41.1546 29.4453 40.8198 29.6222C40.5029 29.7896 40.1885 29.9453 39.9677 30.0188C39.7148 30.1031 39.4008 30.1374 39.118 30.1542C38.8176 30.172 38.4808 30.1733 38.1478 30.1657C37.4811 30.1503 36.7885 30.098 36.3507 30.0542L36.2185 30.041L32.037 28.0498C32.1455 30.0873 31.5037 31.6239 30.7139 32.6582C31.7598 33.2048 33.2461 33.8094 34.9492 34.1843C37.1454 34.6677 39.6445 34.7571 42.0061 33.907C42.4027 33.7642 42.84 33.97 42.9828 34.3666C43.1256 34.7632 42.9198 35.2004 42.5232 35.3432C39.8082 36.3206 36.9986 36.1985 34.621 35.6751C32.5456 35.2182 30.7557 34.4463 29.5756 33.7763C29.4385 33.874 29.3036 33.958 29.1737 34.028L29.1204 34.0567L18.0483 37.919L17.9421 37.9253C16.529 38.0084 15.3342 38.8948 14.348 40.1533C13.3673 41.4049 12.6769 42.9223 12.2674 44.0279C12.121 44.4232 11.6819 44.625 11.2866 44.4786C10.8913 44.3322 10.6895 43.893 10.8359 43.4978C11.2725 42.3189 12.0289 40.6381 13.1465 39.2118C14.2385 37.8182 15.7575 36.5674 17.7424 36.4091L28.4982 32.657C28.6384 32.576 28.811 32.4533 28.9972 32.2839C29.8516 31.5061 30.9004 29.8294 30.3863 27.0985Z" fill="#FFBE1B"/>
<path d="M1.15527 49.8421C1.15527 48.8849 1.93122 48.109 2.88839 48.109H34.0845C35.0417 48.109 35.8176 48.8849 35.8176 49.8421V68.9064C35.8176 69.8636 35.0417 70.6395 34.0845 70.6395H2.88839C1.93122 70.6395 1.15527 69.8636 1.15527 68.9064V49.8421Z" fill="#6857E5"/>
<path fill-rule="evenodd" clip-rule="evenodd" d="M2.88853 46.9536H34.0847C35.6799 46.9536 36.9732 48.2468 36.9732 49.8421V68.9064C36.9732 70.5017 35.6799 71.7949 34.0847 71.7949H2.88853C1.29324 71.7949 0 70.5017 0 68.9064V49.8421C0 48.2468 1.29324 46.9536 2.88853 46.9536ZM2.88853 48.109C1.93136 48.109 1.15541 48.8849 1.15541 49.8421V68.9064C1.15541 69.8636 1.93136 70.6395 2.88853 70.6395H34.0847C35.0418 70.6395 35.8178 69.8636 35.8178 68.9064V49.8421C35.8178 48.8849 35.0418 48.109 34.0847 48.109H2.88853Z" fill="#303392"/>
<rect x="4.04395" y="54.4637" width="16.1758" height="1.73312" rx="0.866559" fill="#FFE37B"/>
<rect x="4.04395" y="59.6631" width="18.4866" height="1.73312" rx="0.866559" fill="#FFE37B"/>
<rect x="4.04395" y="64.8624" width="6.35477" height="1.73312" rx="0.866559" fill="#FFE37B"/>
<rect x="11.5544" y="64.8624" width="13.8649" height="1.73312" rx="0.866559" fill="#FFE37B"/>
<path d="M26.5745 52.9853C26.5745 51.8875 27.4644 50.9975 28.5623 50.9975H43.3466C44.4444 50.9975 45.3344 51.8875 45.3344 52.9853V60.5638C45.3344 61.6616 44.4444 62.5516 43.3466 62.5516H28.5623C27.4644 62.5516 26.5745 61.6616 26.5745 60.5638V52.9853Z" fill="#FFE37B"/>
<mask id="path-10-inside-1" fill="white">
<path fill-rule="evenodd" clip-rule="evenodd" d="M43.3466 51.6187H28.5623C27.8075 51.6187 27.1957 52.2305 27.1957 52.9853V60.5638C27.1957 61.3186 27.8075 61.9304 28.5623 61.9304H43.3466C44.1013 61.9304 44.7132 61.3186 44.7132 60.5638V52.9853C44.7132 52.2305 44.1013 51.6187 43.3466 51.6187ZM28.5623 50.9975C27.4644 50.9975 26.5745 51.8875 26.5745 52.9853V60.5638C26.5745 61.6616 27.4644 62.5516 28.5623 62.5516H43.3466C44.4444 62.5516 45.3344 61.6616 45.3344 60.5638V52.9853C45.3344 51.8875 44.4444 50.9975 43.3466 50.9975H28.5623Z"/>
</mask>
<path fill-rule="evenodd" clip-rule="evenodd" d="M43.3466 51.6187H28.5623C27.8075 51.6187 27.1957 52.2305 27.1957 52.9853V60.5638C27.1957 61.3186 27.8075 61.9304 28.5623 61.9304H43.3466C44.1013 61.9304 44.7132 61.3186 44.7132 60.5638V52.9853C44.7132 52.2305 44.1013 51.6187 43.3466 51.6187ZM28.5623 50.9975C27.4644 50.9975 26.5745 51.8875 26.5745 52.9853V60.5638C26.5745 61.6616 27.4644 62.5516 28.5623 62.5516H43.3466C44.4444 62.5516 45.3344 61.6616 45.3344 60.5638V52.9853C45.3344 51.8875 44.4444 50.9975 43.3466 50.9975H28.5623Z" fill="#303392"/>
<path d="M28.5623 61.6187H43.3466V41.6187H28.5623V61.6187ZM37.1957 52.9853C37.1957 57.7534 33.3304 61.6187 28.5623 61.6187V41.6187C22.2847 41.6187 17.1957 46.7077 17.1957 52.9853H37.1957ZM37.1957 60.5638V52.9853H17.1957V60.5638H37.1957ZM28.5623 51.9304C33.3304 51.9304 37.1957 55.7957 37.1957 60.5638H17.1957C17.1957 66.8414 22.2847 71.9304 28.5623 71.9304V51.9304ZM43.3466 51.9304H28.5623V71.9304H43.3466V51.9304ZM34.7132 60.5638C34.7132 55.7957 38.5785 51.9304 43.3466 51.9304V71.9304C49.6242 71.9304 54.7132 66.8414 54.7132 60.5638H34.7132ZM34.7132 52.9853V60.5638H54.7132V52.9853H34.7132ZM43.3466 61.6187C38.5785 61.6187 34.7132 57.7534 34.7132 52.9853H54.7132C54.7132 46.7077 49.6242 41.6187 43.3466 41.6187V61.6187ZM36.5745 52.9853C36.5745 57.4103 32.9873 60.9975 28.5623 60.9975V40.9975C21.9416 40.9975 16.5745 46.3646 16.5745 52.9853H36.5745ZM36.5745 60.5638V52.9853H16.5745V60.5638H36.5745ZM28.5623 52.5516C32.9873 52.5516 36.5745 56.1388 36.5745 60.5638H16.5745C16.5745 67.1845 21.9416 72.5516 28.5623 72.5516V52.5516ZM43.3466 52.5516H28.5623V72.5516H43.3466V52.5516ZM35.3344 60.5638C35.3344 56.1388 38.9216 52.5516 43.3466 52.5516V72.5516C49.9673 72.5516 55.3344 67.1845 55.3344 60.5638H35.3344ZM35.3344 52.9853V60.5638H55.3344V52.9853H35.3344ZM43.3466 60.9975C38.9216 60.9975 35.3344 57.4103 35.3344 52.9853H55.3344C55.3344 46.3646 49.9673 40.9975 43.3466 40.9975V60.9975ZM28.5623 60.9975H43.3466V40.9975H28.5623V60.9975Z" fill="#303392" mask="url(#path-10-inside-1)"/>
<path d="M31.1648 57.1206C30.3021 57.1206 29.6028 57.7187 29.6028 59.1319H32.7267C32.7267 57.7187 32.0274 57.1206 31.1648 57.1206Z" fill="#303392"/>
<path d="M32.1601 55.8694C32.1601 56.417 31.7161 56.8609 31.1685 56.8609C30.6209 56.8609 30.177 56.417 30.177 55.8694C30.177 55.3218 30.6209 54.8779 31.1685 54.8779C31.7161 54.8779 32.1601 55.3218 32.1601 55.8694Z" fill="#303392"/>
<path d="M27.1958 52.9853C27.1958 52.2305 27.8077 51.6187 28.5624 51.6187H43.3467C44.1015 51.6187 44.7133 52.2305 44.7133 52.9853V53.5444H27.1958V52.9853Z" fill="#6857E5"/>
<path d="M31.6982 52.9232H31.5526V52.2166H31.6982V52.9232Z" fill="white"/>
<path d="M31.9827 52.9232V52.2166H32.2001C32.2622 52.2166 32.3177 52.2306 32.3666 52.2588C32.4157 52.2866 32.4541 52.3264 32.4816 52.3782C32.5091 52.4296 32.5228 52.4882 32.5228 52.5539V52.5864C32.5228 52.652 32.5092 52.7104 32.4821 52.7616C32.4552 52.8127 32.4172 52.8523 32.368 52.8805C32.3188 52.9086 32.2634 52.9228 32.2016 52.9232H31.9827ZM32.1283 52.3345V52.8062H32.1986C32.2556 52.8062 32.2991 52.7876 32.3292 52.7504C32.3593 52.7132 32.3747 52.66 32.3753 52.5907V52.5534C32.3753 52.4815 32.3604 52.4272 32.3307 52.3903C32.3009 52.3531 32.2574 52.3345 32.2001 52.3345H32.1283Z" fill="white"/>
<path d="M33.2033 52.6169H32.9238V52.8062H33.2519V52.9232H32.7782V52.2166H33.2509V52.3345H32.9238V52.5029H33.2033V52.6169Z" fill="white"/>
<path d="M34.061 52.9232H33.9154L33.6319 52.4583V52.9232H33.4864V52.2166H33.6319L33.9158 52.6825V52.2166H34.061V52.9232Z" fill="white"/>
<path d="M34.8545 52.3345H34.6381V52.9232H34.4925V52.3345H34.279V52.2166H34.8545V52.3345Z" fill="white"/>
<path d="M35.2419 52.9232H35.0963V52.2166H35.2419V52.9232Z" fill="white"/>
<path d="M36.0437 52.3345H35.8273V52.9232H35.6817V52.3345H35.4681V52.2166H36.0437V52.3345Z" fill="white"/>
<path d="M36.5277 52.5349L36.6747 52.2166H36.8339L36.6019 52.6669V52.9232H36.4539V52.6669L36.2219 52.2166H36.3816L36.5277 52.5349Z" fill="white"/>
<path d="M37.9988 52.6878C37.9933 52.7638 37.9652 52.8237 37.9144 52.8674C37.8639 52.911 37.7972 52.9329 37.7144 52.9329C37.6238 52.9329 37.5525 52.9025 37.5004 52.8416C37.4486 52.7805 37.4228 52.6967 37.4228 52.5903V52.5471C37.4228 52.4791 37.4347 52.4193 37.4587 52.3675C37.4826 52.3157 37.5167 52.2761 37.5611 52.2486C37.6057 52.2208 37.6575 52.2069 37.7164 52.2069C37.7979 52.2069 37.8636 52.2287 37.9134 52.2724C37.9632 52.3161 37.992 52.3774 37.9998 52.4563H37.8542C37.8506 52.4107 37.8379 52.3777 37.8159 52.3573C37.7942 52.3366 37.761 52.3262 37.7164 52.3262C37.6678 52.3262 37.6314 52.3437 37.6072 52.3787C37.5832 52.4133 37.5709 52.4671 37.5703 52.5403V52.5937C37.5703 52.67 37.5818 52.7258 37.6047 52.7611C37.628 52.7963 37.6646 52.814 37.7144 52.814C37.7594 52.814 37.7929 52.8038 37.8149 52.7834C37.8372 52.7627 37.85 52.7308 37.8532 52.6878H37.9988Z" fill="white"/>
<path d="M38.6424 52.7776H38.3872L38.3386 52.9232H38.1838L38.4468 52.2166H38.5818L38.8462 52.9232H38.6914L38.6424 52.7776ZM38.4265 52.6597H38.6031L38.5143 52.3952L38.4265 52.6597Z" fill="white"/>
<path d="M39.3229 52.6645H39.2069V52.9232H39.0613V52.2166H39.3239C39.4074 52.2166 39.4717 52.2352 39.517 52.2724C39.5623 52.3096 39.585 52.3622 39.585 52.4301C39.585 52.4783 39.5745 52.5186 39.5534 52.5509C39.5327 52.583 39.5012 52.6085 39.4588 52.6276L39.6117 52.9164V52.9232H39.4554L39.3229 52.6645ZM39.2069 52.5466H39.3244C39.3609 52.5466 39.3892 52.5374 39.4093 52.5189C39.4294 52.5001 39.4394 52.4744 39.4394 52.4418C39.4394 52.4084 39.4298 52.3822 39.4108 52.3631C39.392 52.344 39.363 52.3345 39.3239 52.3345H39.2069V52.5466Z" fill="white"/>
<path d="M39.8452 52.9232V52.2166H40.0626C40.1247 52.2166 40.1802 52.2306 40.2291 52.2588C40.2783 52.2866 40.3166 52.3264 40.3441 52.3782C40.3716 52.4296 40.3853 52.4882 40.3853 52.5539V52.5864C40.3853 52.652 40.3718 52.7104 40.3446 52.7616C40.3177 52.8127 40.2797 52.8523 40.2305 52.8805C40.1814 52.9086 40.1259 52.9228 40.0641 52.9232H39.8452ZM39.9908 52.3345V52.8062H40.0612C40.1181 52.8062 40.1616 52.7876 40.1917 52.7504C40.2218 52.7132 40.2372 52.66 40.2378 52.5907V52.5534C40.2378 52.4815 40.2229 52.4272 40.1932 52.3903C40.1634 52.3531 40.1199 52.3345 40.0626 52.3345H39.9908Z" fill="white"/>
<rect x="34.4014" y="54.911" width="8.26182" height="0.869665" rx="0.434832" fill="#FFBE1B"/>
<rect x="34.4014" y="56.5261" width="6.8952" height="0.869665" rx="0.434832" fill="#FFBE1B"/>
<rect x="34.3773" y="58.2001" width="8.25294" height="0.750268" rx="0.375134" fill="#FFBE1B"/>
<rect x="28.225" y="60.751" width="15.4555" height="0.450161" rx="0.22508" fill="#6857E5"/>
<path d="M32.0626 51.8641L30.3295 53.3083L28.0187 51.8641L25.419 52.1529L24.2636 50.7087L21.9528 50.9975L20.2197 49.8421H18.4865L16.7534 48.9755V42.9096L17.3311 42.3319C19.4109 41.6387 20.1234 42.8133 20.2197 43.4873L20.7974 41.7542C23.397 40.8876 24.2636 42.3319 24.2636 43.4873L24.5525 40.3099L25.7079 40.0211C27.7298 39.4434 28.3075 40.9839 28.3075 41.4654L29.1741 41.1765C31.4849 41.1765 32.0626 42.7171 32.0626 43.4873V51.8641Z" fill="#FFE37B"/>
<path d="M17.3838 42.3319C16.8796 42.3319 16.7535 42.9578 16.7535 43.2707V48.161C16.7535 49.0894 17.5062 49.8421 18.4347 49.8421H18.7014C19.2703 49.8421 19.8161 49.6171 20.2198 49.2163V49.2163" stroke="#FFBE1B" stroke-width="2" stroke-linecap="round"/>
<path d="M20.9551 41.7542C20.3669 41.7542 20.2198 42.5245 20.2198 42.9096V49.0662C20.2198 50.1328 21.0845 50.9975 22.1512 50.9975H22.4637C23.1438 50.9975 23.7942 50.7192 24.2638 50.2272V50.2272" stroke="#FFBE1B" stroke-width="2" stroke-linecap="round"/>
<path d="M28.308 51.1419V51.1419C27.846 51.7771 27.108 52.1529 26.3226 52.1529H26.0538C25.0653 52.1529 24.264 51.3516 24.264 50.3632V41.5376C24.264 41.1721 24.264 40.6935 24.5419 40.3471C24.7768 40.0543 25.192 40.0211 25.5675 40.0211H26.286" stroke="#FFBE1B" stroke-width="2" stroke-linecap="round"/>
<path d="M32.0628 43.7762V51.4308C32.0628 52.4677 31.2222 53.3083 30.1853 53.3083V53.3083C29.1483 53.3083 28.3077 52.4677 28.3077 51.4308V42.693C28.3077 42.3275 28.3077 41.8489 28.5856 41.5025C28.8205 41.2097 29.2357 41.1765 29.6112 41.1765H30.3297" stroke="#FFBE1B" stroke-width="2" stroke-linecap="round"/>
<path opacity="0.35" d="M32.8729 1.52472C36.325 6.80431 44.8028 8.97029 48.6102 9.39334C48.6102 8.37803 47.8487 5.63671 44.8028 2.79385C41.7568 -0.0490012 35.5804 0.763243 32.8729 1.52472Z" fill="#FFBE1B"/>
<path fill-rule="evenodd" clip-rule="evenodd" d="M32.5756 1.3656C32.8036 1.2014 33.1216 1.25317 33.2858 1.48123C35.0319 3.90637 37.9326 5.65827 40.9066 6.85917C43.8722 8.05665 46.8475 8.68092 48.6676 8.88775C48.9468 8.91948 49.1474 9.17156 49.1157 9.45078C49.084 9.73 48.8319 9.93064 48.5527 9.89891C46.6499 9.68269 43.5842 9.03783 40.5256 7.80281C37.4755 6.5712 34.3689 4.72723 32.4599 2.07585C32.2957 1.8478 32.3475 1.52981 32.5756 1.3656Z" fill="#FFBE1B"/>
<path opacity="0.35" d="M33.6347 8.12421C32.2133 9.13952 28.812 9.56256 27.2891 9.64717C27.6952 3.96146 31.0118 2.03238 32.6194 1.77856C34.2439 3.60611 36.3422 5.0783 37.1883 5.58595C37.1883 6.19513 34.8192 7.53195 33.6347 8.12421Z" fill="#FFBE1B"/>
<path fill-rule="evenodd" clip-rule="evenodd" d="M34.0487 7.82845C34.2121 8.05712 34.1591 8.37491 33.9304 8.53825C33.1236 9.11453 31.8221 9.48959 30.5995 9.73367C29.3541 9.98233 28.0988 10.1118 27.3172 10.1552C27.0366 10.1708 26.7965 9.95597 26.7809 9.67538C26.7654 9.39479 26.9802 9.15469 27.2608 9.13911C28.0021 9.09792 29.209 8.97355 30.4003 8.7357C31.6145 8.49329 32.7243 8.14917 33.3389 7.71014C33.5676 7.5468 33.8854 7.59977 34.0487 7.82845Z" fill="#FFBE1B"/>
</svg>
