<svg width="28" height="28" viewBox="0 0 28 28" fill="none" xmlns="http://www.w3.org/2000/svg">
<circle cx="14" cy="14" r="14" fill="#38A1DC" fill-opacity="0.3"/>
<circle cx="14" cy="14" r="10" fill="#38A1DC"/>
<path d="M16.6668 19V17.3333C16.6668 17.2361 16.6355 17.1562 16.573 17.0938C16.5105 17.0312 16.4307 17 16.3335 17H15.3335V11.6667C15.3335 11.5694 15.3022 11.4896 15.2397 11.4271C15.1772 11.3646 15.0973 11.3333 15.0001 11.3333H11.6668C11.5696 11.3333 11.4897 11.3646 11.4272 11.4271C11.3647 11.4896 11.3335 11.5694 11.3335 11.6667V13.3333C11.3335 13.4306 11.3647 13.5104 11.4272 13.5729C11.4897 13.6354 11.5696 13.6667 11.6668 13.6667H12.6668V17H11.6668C11.5696 17 11.4897 17.0312 11.4272 17.0938C11.3647 17.1562 11.3335 17.2361 11.3335 17.3333V19C11.3335 19.0972 11.3647 19.1771 11.4272 19.2396C11.4897 19.3021 11.5696 19.3333 11.6668 19.3333H16.3335C16.4307 19.3333 16.5105 19.3021 16.573 19.2396C16.6355 19.1771 16.6668 19.0972 16.6668 19ZM15.3335 9.66667V8C15.3335 7.90278 15.3022 7.82292 15.2397 7.76042C15.1772 7.69792 15.0973 7.66667 15.0001 7.66667H13.0001C12.9029 7.66667 12.823 7.69792 12.7605 7.76042C12.698 7.82292 12.6668 7.90278 12.6668 8V9.66667C12.6668 9.76389 12.698 9.84375 12.7605 9.90625C12.823 9.96875 12.9029 10 13.0001 10H15.0001C15.0973 10 15.1772 9.96875 15.2397 9.90625C15.3022 9.84375 15.3335 9.76389 15.3335 9.66667ZM20.9272 9.98958C21.6425 11.2118 22.0001 12.5486 22.0001 14C22.0001 15.4514 21.6425 16.7917 20.9272 18.0208C20.2119 19.2431 19.2397 20.2118 18.0105 20.9271C16.7883 21.6424 15.4515 22 14.0001 22C12.5487 22 11.2085 21.6424 9.97929 20.9271C8.75707 20.2118 7.78832 19.2431 7.07304 18.0208C6.35776 16.7917 6.00012 15.4514 6.00012 14C6.00012 12.5486 6.35776 11.2118 7.07304 9.98958C7.78832 8.76042 8.75707 7.78819 9.97929 7.07292C11.2085 6.35764 12.5487 6 14.0001 6C15.4515 6 16.7883 6.35764 18.0105 7.07292C19.2397 7.78819 20.2119 8.76042 20.9272 9.98958Z" fill="white"/>
</svg>
