<svg xmlns="http://www.w3.org/2000/svg" width="72" height="72" viewBox="0 0 72 72"><g><g><g><path fill="#f7941d" d="M12.24 65.647h-2.225V60.64c0-.712-.075-1.333-.44-2.062l-.046-.108c-.28-.747-.784-1.311-1.191-1.718l-7.12-7.12a5.055 5.055 0 0 1-.987-1.403l-.119-.233v-.263c0-.19-.027-.377-.052-.552a5.394 5.394 0 0 1-.06-.672V25.591c0-1.192.447-2.244 1.328-3.123.881-.88 1.931-1.327 3.123-1.327 1.191 0 2.243.446 3.124 1.327.88.881 1.327 1.931 1.327 3.123v12.24H6.676V25.59c0-.597-.214-1.089-.675-1.55-.921-.921-2.179-.921-3.1 0-.46.461-.675.953-.675 1.55v20.918c0 .11.022.238.04.377.023.177.048.363.062.552.141.253.28.438.464.624l7.12 7.118c.515.514 1.244 1.322 1.68 2.456.57 1.163.648 2.17.648 3.004z"/></g><g><path fill="#f7941d" d="M27.817 65.647h-2.226V52.628c0-.964-.197-1.95-.59-2.924a7.533 7.533 0 0 0-1.644-2.52l-7.355-7.578a1.993 1.993 0 0 0-1.449-.663c-.627-.035-1.19.226-1.638.674a2.006 2.006 0 0 0-.674 1.462 2.24 2.24 0 0 0 .674 1.637l5.73 6.623c1.383 1.383 1.383 2.872 1.383 4.069h-2.226c0-1.026 0-1.765-.786-2.553l-5.728-6.623c-.815-.81-1.298-1.997-1.273-3.2a4.182 4.182 0 0 1 1.362-3.02c.833-.837 2.019-1.298 3.224-1.293a4.176 4.176 0 0 1 3.02 1.362l7.324 7.542a9.787 9.787 0 0 1 2.125 3.254c.495 1.24.747 2.501.747 3.751z"/></g><g><path fill="#f7941d" d="M31.155 71.21h-2.227v-4.451H8.902v4.45H6.676v-6.675h24.479z"/></g><g><path fill="#f7941d" d="M23.366 71.21v-2.226h2.225v2.226z"/></g><g><path fill="#f7941d" d="M61.196 65.647H58.97V60.64c0-.834.079-1.84.649-3.004.438-1.134 1.167-1.942 1.68-2.456l7.122-7.12a2.99 2.99 0 0 0 .572-.825c.103-.21.103-.46.103-.726V25.591c0-.597-.214-1.089-.674-1.55-1.054-.896-2.287-.926-3.212 0-.462.461-.676.953-.676 1.55v12.24h-2.226V25.59c0-1.192.447-2.244 1.328-3.124.88-.88 1.931-1.326 3.123-1.326 1.138 0 2.175.415 3.171 1.269.945.939 1.39 1.99 1.39 3.18v20.92c0 .388 0 1.04-.338 1.72-.292.58-.586.999-.987 1.402l-7.123 7.121c-.407.406-.91.972-1.19 1.717l-.046.108c-.366.729-.44 1.35-.44 2.062z"/></g><g><path fill="#f7941d" d="M45.619 65.647h-2.225V52.628c0-1.248.251-2.51.746-3.751.538-1.344 1.358-2.379 2.088-3.214l7.383-7.605a4.495 4.495 0 0 1 3.27-1.34 4.174 4.174 0 0 1 3.02 1.363 4.454 4.454 0 0 1 1.294 3.222 4.18 4.18 0 0 1-1.312 2.974l-5.633 6.52c-.842.846-.842 1.585-.842 2.61H51.18c0-1.196 0-2.685 1.44-4.124l5.708-6.6c.401-.367.629-.874.641-1.427a2.239 2.239 0 0 0-.675-1.638 1.996 1.996 0 0 0-1.462-.673c-.604-.054-1.188.224-1.636.673l-7.332 7.554c-.6.685-1.247 1.502-1.657 2.532-.39.976-.589 1.96-.589 2.924z"/></g><g><path fill="#f7941d" d="M64.534 71.21h-2.226v-4.451H42.28v4.45h-2.226v-6.675h24.48z"/></g><g><path fill="#f7941d" d="M45.619 71.21v-2.226h2.225v2.226z"/></g><g><path fill="#f7941d" d="M34.492 57.858V27.816h2.226v30.042z"/></g><g><path fill="#f7941d" d="M34.492 71.21v-2.226h2.226v2.226z"/></g><g><path fill="#f7941d" d="M34.492 66.759v-2.225h2.226v2.225z"/></g><g><path fill="#f7941d" d="M34.492 62.308v-2.225h2.226v2.225z"/></g><g><path fill="#f7941d" d="M35.606 15.577c-1.126 0-2.294-.496-3.124-1.327-.881-.88-1.327-1.932-1.327-3.124 0-1.191.446-2.243 1.327-3.122.88-.881 1.932-1.329 3.124-1.329 1.191 0 2.243.446 3.122 1.329.881.88 1.327 1.93 1.327 3.122H37.83c0-.596-.215-1.088-.675-1.55-.922-.922-2.178-.922-3.1 0-.46.462-.676.954-.676 1.55 0 .597.216 1.09.677 1.55.498.498 1.127.677 1.55.677z"/></g><g><path fill="#f7941d" d="M35.606 22.253c-1.126 0-2.294-.497-3.124-1.327-.881-.88-1.327-1.933-1.327-3.124h2.224c0 .597.216 1.09.677 1.551.498.497 1.127.675 1.55.675.596 0 1.088-.215 1.55-.675.498-.498.674-1.128.674-1.551 0-.597-.215-1.089-.675-1.55-.46-.46-.953-.675-1.55-.675v-2.224c1.192 0 2.244.445 3.123 1.326.881.88 1.327 1.931 1.327 3.123 0 1.125-.495 2.294-1.327 3.126-.88.879-1.93 1.325-3.122 1.325z"/></g><g><path fill="#f7941d" d="M34.492 7.789V4.451h2.226V7.79z"/></g><g><path fill="#f7941d" d="M34.492 24.479V21.14h2.226v3.338z"/></g><g><path fill="#f7941d" d="M47.844 14.464c0 6.75-5.49 12.24-12.238 12.24-6.748 0-12.24-5.49-12.24-12.24 0-6.748 5.492-12.238 12.24-12.238s12.238 5.49 12.238 12.238zm2.226 0C50.07 6.49 43.58 0 35.606 0 27.629 0 21.14 6.49 21.14 14.464c0 7.976 6.488 14.464 14.465 14.464 7.974 0 14.464-6.488 14.464-14.464z"/></g><g><path fill="#f7941d" d="M43.394 15.578v-2.226h2.225v2.226z"/></g><g><path fill="#f7941d" d="M25.591 15.578v-2.226h2.226v2.226z"/></g><g><path fill="#f7941d" d="M41.168 35.606c0-.852.358-1.68 1.01-2.33.65-.652 1.478-1.008 2.328-1.008h3.338v3.338c0 .85-.357 1.677-1.009 2.327-.65.65-1.477 1.01-2.33 1.01h-3.337zm7.24 3.902c1.071-1.072 1.662-2.457 1.662-3.902v-5.564h-5.564c-1.445 0-2.832.59-3.902 1.661-1.072 1.072-1.66 2.456-1.66 3.903v5.562h5.562c1.445 0 2.83-.59 3.902-1.66z"/></g><g><path fill="#f7941d" d="M26.704 32.268c.852 0 1.677.356 2.33 1.008.65.65 1.008 1.478 1.008 2.33v3.337h-3.338c-.852 0-1.678-.36-2.33-1.01-.65-.65-1.008-1.477-1.008-2.327v-3.338zm5.564 3.338c0-1.447-.59-2.832-1.662-3.903-1.07-1.071-2.457-1.661-3.902-1.661H21.14v5.564c0 1.445.59 2.83 1.66 3.902 1.072 1.07 2.458 1.66 3.903 1.66h5.564z"/></g></g></g></svg>