<?xml version="1.0" encoding="UTF-8" standalone="no"?>
<svg
   xmlns:dc="http://purl.org/dc/elements/1.1/"
   xmlns:cc="http://creativecommons.org/ns#"
   xmlns:rdf="http://www.w3.org/1999/02/22-rdf-syntax-ns#"
   xmlns:svg="http://www.w3.org/2000/svg"
   xmlns="http://www.w3.org/2000/svg"
   id="svg102"
   version="1.1"
   viewBox="0 0 42 39"
   height="39"
   width="42">
  <metadata
     id="metadata108">
    <rdf:RDF>
      <cc:Work
         rdf:about="">
        <dc:format>image/svg+xml</dc:format>
        <dc:type
           rdf:resource="http://purl.org/dc/dcmitype/StillImage" />
        <dc:title></dc:title>
      </cc:Work>
    </rdf:RDF>
  </metadata>
  <defs
     id="defs106">















	

		
	
			
			
			
			
			
			
			
			
			
		</defs>
  <path
     style="fill:#f7941d;fill-opacity:1;stroke-width:0.07535952"
     d="M 33.213593,22.64577 H 30.183537 8.7864073 c -2.3998993,0 -4.3523138,1.95249 -4.3523138,4.352389 0,2.399899 1.9524898,4.352314 4.3523138,4.352314 h 2.5510707 l -0.329246,0.267451 c -0.379134,0.30807 -0.549748,0.795872 -0.445299,1.272973 0.104448,0.477176 0.463235,0.849151 0.936417,0.970555 l 0.170991,0.04393 -0.843876,3.28786 c -0.103469,0.403174 0.13949,0.813808 0.542588,0.917276 l 2.562902,0.657814 c 0.06172,0.0159 0.124645,0.02366 0.187344,0.02366 0.133839,0 0.266547,-0.03572 0.383655,-0.104975 0.172046,-0.101811 0.296615,-0.267753 0.346277,-0.461276 l 0.843952,-3.288011 0.17099,0.04393 c 0.473183,0.121405 0.966712,-0.03173 1.288045,-0.399707 0.321333,-0.367905 0.40664,-0.877561 0.222763,-1.33002 l -0.772963,-1.901546 h 13.581519 3.030056 v 7.5e-5 c 2.399899,0 4.352314,-1.952415 4.352314,-4.352314 0,-2.399899 -1.952566,-4.352389 -4.352314,-4.352389 z m -21.380024,10.623356 -3.01e-4,0.0011 c 1.51e-4,-4.52e-4 2.26e-4,-9.8e-4 3.77e-4,-0.0014 -7.6e-5,1.51e-4 -7.6e-5,2.26e-4 -7.6e-5,3.01e-4 z m 3.598568,0.04567 c -0.220125,-0.05667 -0.449067,-0.02412 -0.644776,0.09164 -0.195633,0.115677 -0.334445,0.300609 -0.390814,0.520509 l -0.819836,3.194264 -1.103113,-0.283202 0.819761,-3.193887 c 0.05659,-0.2202 0.02404,-0.449218 -0.09179,-0.644927 -0.115828,-0.195633 -0.300835,-0.334445 -0.520433,-0.390513 l -0.381621,-0.09804 1.428289,-1.160235 0.937548,-0.761584 0.309577,0.761584 0.838224,2.062137 z m 13.99773,-3.471511 H 15.989346 l -0.310934,-0.7649 c -0.08998,-0.221255 -0.279433,-0.38682 -0.510787,-0.446128 -0.231504,-0.05953 -0.477176,-0.0057 -0.662561,0.144992 l -1.31231,1.066036 H 8.7864073 c -1.5688345,0 -2.8451234,-1.276365 -2.8451234,-2.845124 0,-1.568834 1.2763642,-2.845198 2.8451234,-2.845198 H 29.429942 v 5.690322 z m 3.783726,0 h -2.276461 v -5.690322 h 2.276461 c 1.568834,0 2.845123,1.276364 2.845123,2.845198 -7.5e-5,1.568759 -1.276439,2.845124 -2.845123,2.845124 z"
     id="path110" />
  <path
     style="fill:#f7941d;fill-opacity:1;stroke-width:0.07535952"
     d="m 33.650452,25.271748 c -0.258106,-0.326457 -0.732042,-0.381997 -1.0585,-0.12374 -0.326533,0.258106 -0.381847,0.732042 -0.12374,1.058499 l 0.507546,0.641988 -0.507546,0.641988 c -0.258107,0.326457 -0.202717,0.800393 0.12374,1.0585 0.13836,0.109422 0.303171,0.162475 0.466852,0.162475 0.222537,-7.5e-5 0.442888,-0.09812 0.591648,-0.286216 l 0.877185,-1.109367 c 0.216658,-0.273932 0.216658,-0.660903 0,-0.93476 z"
     id="path112" />
  <path
     style="fill:#f7941d;fill-opacity:1;stroke-width:0.07535952"
     d="m 9.0162538,27.286108 c 0.01884,0.04597 0.042201,0.08968 0.069331,0.130372 0.027883,0.04145 0.059534,0.07988 0.094199,0.114546 0.034665,0.03474 0.073099,0.06639 0.1145465,0.09345 0.040694,0.02713 0.084403,0.05049 0.1296184,0.06933 0.045969,0.01884 0.092692,0.03316 0.1409223,0.04295 0.048984,0.0098 0.097967,0.01507 0.1477047,0.01507 0.048984,0 0.097967,-0.0053 0.146951,-0.01507 0.04823,-0.0098 0.095707,-0.02411 0.1409223,-0.04295 0.04522,-0.01884 0.08968,-0.0422 0.130372,-0.06933 0.04069,-0.02705 0.07988,-0.0587 0.114547,-0.09345 0.03467,-0.03467 0.06632,-0.0731 0.09345,-0.114546 0.02713,-0.04069 0.05049,-0.0844 0.06933,-0.130372 0.01884,-0.04522 0.03316,-0.09262 0.04295,-0.140847 0.0098,-0.04831 0.01507,-0.09804 0.01507,-0.146951 0,-0.04898 -0.0053,-0.0988 -0.01507,-0.147705 -0.0098,-0.04748 -0.02412,-0.09495 -0.04295,-0.140922 -0.01884,-0.04529 -0.0422,-0.08892 -0.06933,-0.129618 -0.02713,-0.04152 -0.05878,-0.07996 -0.09345,-0.114622 -0.03467,-0.03467 -0.07385,-0.06632 -0.114547,-0.0942 -0.04069,-0.02713 -0.08516,-0.05049 -0.130372,-0.06933 -0.045216,-0.01884 -0.092692,-0.03316 -0.1409223,-0.04295 -0.2449184,-0.04891 -0.5049088,0.0309 -0.6797429,0.206485 -0.034665,0.03467 -0.066316,0.0731 -0.094199,0.114622 -0.027129,0.04069 -0.050491,0.08433 -0.069331,0.129618 -0.01884,0.04597 -0.033158,0.09345 -0.042955,0.140922 -0.0098,0.04891 -0.014318,0.09872 -0.014318,0.147705 0,0.04891 0.00452,0.09872 0.014318,0.146951 0.0098,0.04823 0.024115,0.09571 0.042955,0.140847 z"
     id="path114" />
  <path
     style="fill:#f7941d;fill-opacity:1;stroke-width:0.07535952"
     d="m 13.023948,27.286108 c 0.01884,0.04597 0.0422,0.08968 0.06933,0.130372 0.02788,0.04145 0.05953,0.07988 0.0942,0.114546 0.03467,0.03474 0.0731,0.06639 0.114546,0.09345 0.04069,0.02713 0.0844,0.05049 0.129618,0.06933 0.04597,0.01884 0.09345,0.03316 0.140923,0.04295 0.04898,0.0098 0.09872,0.01507 0.147704,0.01507 0.04898,0 0.09872,-0.0053 0.146951,-0.01507 0.04823,-0.0098 0.09571,-0.02411 0.140923,-0.04295 0.04597,-0.01884 0.08968,-0.0422 0.130372,-0.06933 0.04145,-0.02705 0.07988,-0.0587 0.114546,-0.09345 0.03467,-0.03467 0.06632,-0.0731 0.09345,-0.114546 0.02713,-0.04069 0.05049,-0.0844 0.06933,-0.130372 0.01884,-0.04522 0.03316,-0.09262 0.04295,-0.140847 0.0098,-0.04831 0.01507,-0.09804 0.01507,-0.146951 0,-0.04898 -0.0053,-0.0988 -0.01507,-0.147705 -0.0098,-0.04748 -0.02412,-0.09495 -0.04295,-0.140922 -0.01884,-0.04529 -0.0422,-0.08892 -0.06933,-0.129618 -0.02713,-0.04152 -0.05878,-0.07996 -0.09345,-0.114622 -0.174834,-0.175588 -0.434824,-0.255469 -0.680496,-0.206485 -0.04748,0.0098 -0.09495,0.02412 -0.140923,0.04295 -0.04521,0.01884 -0.08892,0.0422 -0.129618,0.06933 -0.04145,0.02788 -0.07988,0.05953 -0.114546,0.0942 -0.03467,0.03467 -0.06632,0.0731 -0.0942,0.114622 -0.02713,0.04069 -0.05049,0.08433 -0.06933,0.129618 -0.01884,0.04597 -0.03316,0.09345 -0.04296,0.140922 -0.0098,0.04891 -0.01432,0.09872 -0.01432,0.147705 0,0.04891 0.0045,0.09872 0.01432,0.146951 0.0098,0.04823 0.02412,0.09571 0.04296,0.140847 z"
     id="path116" />
  <path
     style="fill:#f7941d;fill-opacity:1;stroke-width:0.07535952"
     d="m 17.032246,27.286108 c 0.01884,0.04597 0.0422,0.08968 0.06933,0.130372 0.02713,0.04145 0.05878,0.07988 0.09345,0.114546 0.03467,0.03474 0.0731,0.06639 0.114547,0.09345 0.04069,0.02713 0.0844,0.05049 0.130372,0.06933 0.04522,0.01884 0.09269,0.03316 0.140922,0.04295 0.04823,0.0098 0.09797,0.01507 0.146951,0.01507 0.04898,0 0.09872,-0.0053 0.146951,-0.01507 0.04823,-0.0098 0.09571,-0.02411 0.140923,-0.04295 0.04597,-0.01884 0.08968,-0.0422 0.130372,-0.06933 0.04145,-0.02705 0.07988,-0.0587 0.114546,-0.09345 0.03467,-0.03467 0.06632,-0.0731 0.09345,-0.114546 0.02713,-0.04069 0.05049,-0.0844 0.06933,-0.130372 0.01884,-0.04522 0.03316,-0.09262 0.04295,-0.140847 0.0098,-0.04831 0.01507,-0.09804 0.01507,-0.146951 0,-0.04898 -0.0053,-0.0988 -0.01507,-0.147705 -0.009,-0.04748 -0.02412,-0.09495 -0.04295,-0.140922 -0.01884,-0.04529 -0.0422,-0.08892 -0.06933,-0.129618 -0.02713,-0.04152 -0.05878,-0.07996 -0.09345,-0.114622 -0.174834,-0.175588 -0.435578,-0.255469 -0.679743,-0.206485 -0.04823,0.0098 -0.09571,0.02412 -0.141676,0.04295 -0.04521,0.01884 -0.08892,0.0422 -0.129618,0.06933 -0.04145,0.02788 -0.07988,0.05953 -0.114547,0.0942 -0.03467,0.03467 -0.06632,0.0731 -0.09345,0.114622 -0.02713,0.04069 -0.05049,0.08433 -0.06933,0.129618 -0.01884,0.04597 -0.03391,0.09345 -0.04295,0.140922 -0.0098,0.04891 -0.01507,0.09872 -0.01507,0.147705 0,0.04891 0.0053,0.09872 0.01507,0.146951 0.009,0.04823 0.02411,0.09571 0.04295,0.140847 z"
     id="path118" />
  <path
     style="fill:#f7941d;fill-opacity:1;stroke-width:0.07535952"
     d="m 21.039941,27.286108 c 0.01884,0.04597 0.0422,0.08968 0.06933,0.130372 0.02713,0.04145 0.05878,0.07988 0.09345,0.114546 0.03467,0.03474 0.0731,0.06639 0.114547,0.09345 0.04069,0.02713 0.0844,0.05049 0.130372,0.06933 0.04522,0.01884 0.09269,0.03316 0.140922,0.04295 0.04823,0.0098 0.09797,0.01507 0.146951,0.01507 0.04898,0 0.09872,-0.0053 0.146951,-0.01507 0.04823,-0.0098 0.09571,-0.02411 0.140922,-0.04295 0.04597,-0.01884 0.08968,-0.0422 0.130372,-0.06933 0.04145,-0.02705 0.07988,-0.0587 0.114547,-0.09345 0.03467,-0.03467 0.06632,-0.0731 0.09345,-0.114546 0.02713,-0.04069 0.05049,-0.0844 0.06933,-0.130372 0.01884,-0.04522 0.03391,-0.09262 0.04296,-0.140847 0.0098,-0.04831 0.01507,-0.09804 0.01507,-0.146951 0,-0.04898 -0.0053,-0.0988 -0.01507,-0.147705 -0.009,-0.04748 -0.02412,-0.09495 -0.04296,-0.140922 -0.01884,-0.04529 -0.0422,-0.08892 -0.06933,-0.129618 -0.02713,-0.04152 -0.05878,-0.07996 -0.09345,-0.114622 -0.174834,-0.175588 -0.435578,-0.255469 -0.679743,-0.206485 -0.04823,0.0098 -0.09571,0.02412 -0.140922,0.04295 -0.04597,0.01884 -0.08968,0.0422 -0.130372,0.06933 -0.04145,0.02788 -0.07988,0.05953 -0.114547,0.0942 -0.03467,0.03467 -0.06632,0.0731 -0.09345,0.114622 -0.02713,0.04069 -0.05049,0.08433 -0.06933,0.129618 -0.01884,0.04597 -0.03316,0.09345 -0.04295,0.140922 -0.0098,0.04891 -0.01507,0.09872 -0.01507,0.147705 0,0.04891 0.0053,0.09872 0.01507,0.146951 0.0098,0.04823 0.02412,0.09571 0.04295,0.140847 z"
     id="path120" />
  <path
     style="fill:#f7941d;fill-opacity:1;stroke-width:0.07535952"
     d="m 25.04756,27.286108 c 0.01884,0.04597 0.0422,0.08968 0.06933,0.130372 0.02713,0.04145 0.05878,0.07988 0.09345,0.114546 0.03467,0.03474 0.0731,0.06639 0.114547,0.09345 0.04069,0.02713 0.0844,0.05049 0.130372,0.06933 0.04522,0.01884 0.09269,0.03316 0.140922,0.04295 0.04823,0.0098 0.09797,0.01507 0.146951,0.01507 0.04898,0 0.09872,-0.0053 0.147705,-0.01507 0.04748,-0.0098 0.09495,-0.02411 0.140922,-0.04295 0.04522,-0.01884 0.08892,-0.0422 0.129619,-0.06933 0.04145,-0.02705 0.07988,-0.0587 0.114546,-0.09345 0.03467,-0.03467 0.06632,-0.0731 0.0942,-0.114546 0.02713,-0.04069 0.05049,-0.0844 0.06933,-0.130372 0.01884,-0.04522 0.03316,-0.09262 0.04295,-0.140847 0.0098,-0.04831 0.01432,-0.09804 0.01432,-0.146951 0,-0.04898 -0.0045,-0.0988 -0.01432,-0.147705 -0.0098,-0.04748 -0.02411,-0.09495 -0.04295,-0.140922 -0.01884,-0.04529 -0.0422,-0.08892 -0.06933,-0.129618 -0.02788,-0.04152 -0.05953,-0.07996 -0.0942,-0.114622 -0.03467,-0.03467 -0.0731,-0.06632 -0.114546,-0.0942 -0.04069,-0.02713 -0.0844,-0.05049 -0.129619,-0.06933 -0.04597,-0.01884 -0.09345,-0.03316 -0.140922,-0.04295 -0.09721,-0.01959 -0.197442,-0.01959 -0.294656,0 -0.04823,0.0098 -0.09571,0.02412 -0.140922,0.04295 -0.04597,0.01884 -0.08968,0.0422 -0.130372,0.06933 -0.04145,0.02788 -0.07988,0.05953 -0.114547,0.0942 -0.03467,0.03467 -0.06632,0.0731 -0.09345,0.114622 -0.02713,0.04069 -0.05049,0.08433 -0.06933,0.129618 -0.01884,0.04597 -0.03316,0.09345 -0.04295,0.140922 -0.0098,0.04891 -0.01507,0.09872 -0.01507,0.147705 0,0.04891 0.0053,0.09872 0.01507,0.146951 0.0098,0.04823 0.02411,0.09571 0.04295,0.140847 z"
     id="path122" />
  <path
     style="fill:#f7941d;fill-opacity:1;stroke-width:0.07535952"
     d="m 14.38788,19.256099 c 0.01846,0.01756 0.03753,0.03459 0.05788,0.05034 1.730481,1.338837 3.776341,2.096577 5.947751,2.209617 0.01545,8.29e-4 0.03097,0.0016 0.04642,0.0023 0.06888,0.0033 0.137983,0.0059 0.207088,0.0079 0.02035,6.03e-4 0.04069,0.0014 0.06104,0.0019 0.08523,0.002 0.170539,0.0032 0.256147,0.0032 0.08606,0 0.171895,-0.0013 0.257654,-0.0032 0.01959,-4.52e-4 0.03904,-0.0012 0.05855,-0.0018 0.07084,-0.002 0.14145,-0.0047 0.211986,-0.0081 0.01356,-6.78e-4 0.02705,-0.0014 0.04054,-0.0021 2.206978,-0.114169 4.280194,-0.892483 6.026651,-2.269226 0.02396,-0.01891 0.0465,-0.03934 0.06775,-0.06074 2.435921,-1.955655 3.99835,-4.956773 3.99835,-8.316451 C 31.625768,4.9908432 26.843,0.20800056 20.964204,0.20800056 c -5.878796,0 -10.661789,4.78284264 -10.661789,10.66171444 0,3.399694 1.59943,6.432764 4.085465,8.386384 z m 7.555244,0.715614 c -0.04672,0.0049 -0.09352,0.0094 -0.140394,0.01364 -0.05185,0.0047 -0.10362,0.0095 -0.155693,0.01334 -0.09036,0.0066 -0.180938,0.01183 -0.271822,0.01575 -0.03112,0.0014 -0.06225,0.0025 -0.09345,0.0035 -0.105578,0.0035 -0.211383,0.0061 -0.31764,0.0061 -0.104901,0 -0.209349,-0.0025 -0.313646,-0.006 -0.03075,-0.0011 -0.06142,-0.0022 -0.09201,-0.0035 -0.08674,-0.0038 -0.173177,-0.0087 -0.259463,-0.01485 -0.05019,-0.0036 -0.100228,-0.008 -0.150192,-0.01243 -0.05411,-0.0047 -0.108141,-0.0099 -0.162098,-0.01552 -0.06021,-0.0064 -0.120349,-0.01304 -0.18026,-0.02065 -0.01063,-0.0014 -0.02118,-0.0029 -0.0318,-0.0043 -1.519172,-0.19797 -2.922442,-0.769647 -4.114328,-1.619703 v -1.364384 c 0,-1.795591 0.891804,-3.385752 2.254757,-4.354197 0.851864,0.665726 1.922346,1.064001 3.084766,1.064001 1.162421,0 2.232978,-0.3982 3.084767,-1.064001 1.362952,0.968445 2.254757,2.558606 2.254757,4.354197 v 1.31216 h 7.5e-5 c -1.261518,0.918256 -2.765393,1.522564 -4.396324,1.69672 z M 20.964204,1.715191 c 5.047807,0 9.154524,4.1066416 9.154524,9.154524 0,2.307659 -0.858646,4.418328 -2.272768,6.030118 -0.01997,-2.200423 -1.082991,-4.156078 -2.717765,-5.395516 0.561654,-0.810567 0.891879,-1.7930288 0.891879,-2.8516793 0,-0.2490633 -0.01846,-0.4995583 -0.05494,-0.7445521 -0.06127,-0.4116137 -0.444395,-0.6956437 -0.85631,-0.6344518 -0.411689,0.061267 -0.695719,0.4445458 -0.634452,0.8562349 0.02555,0.1717443 0.03851,0.3476334 0.03851,0.522769 0,0.7764291 -0.25366,1.4945303 -0.681853,2.0766823 -0.347407,0.472353 -0.809889,0.854652 -1.345846,1.10575 -0.451403,0.211534 -0.954579,0.330452 -1.48511,0.330452 -0.530531,0 -1.033706,-0.118918 -1.48511,-0.330452 -0.535957,-0.251098 -0.998438,-0.633397 -1.345845,-1.10575 -0.428193,-0.582152 -0.681853,-1.3001779 -0.681853,-2.0766823 0,-1.9369658 1.575843,-3.5128087 3.512808,-3.5128087 0.266622,0 0.532114,0.029842 0.789241,0.088849 0.406112,0.09337 0.810039,-0.1604405 0.902957,-0.5661761 0.09299,-0.4056603 -0.16044,-0.8098888 -0.5661,-0.9028824 -0.367378,-0.084252 -0.746286,-0.1269808 -1.126022,-0.1269808 -2.768031,0 -5.019999,2.2519685 -5.019999,5.0199991 0,1.0586505 0.330225,2.0411122 0.89188,2.8516792 -1.650449,1.25127 -2.718595,3.232396 -2.718595,5.458516 v 0.01673 C 12.697039,15.357977 11.80968,13.215657 11.80968,10.869715 11.809605,5.8218326 15.916322,1.715191 20.964204,1.715191 Z"
     id="path124" />
  <path
     style="fill:#f7941d;fill-opacity:1;stroke-width:0.07535952"
     d="m 23.431023,6.0385666 c 0.01884,0.045216 0.0422,0.088924 0.06933,0.1296184 0.02713,0.041448 0.05878,0.079881 0.09344,0.1145465 0.03467,0.035494 0.0731,0.066392 0.114547,0.094199 0.04069,0.027129 0.0844,0.050566 0.130372,0.069406 0.04521,0.01884 0.09269,0.033083 0.140922,0.04288 0.04823,0.0098 0.09797,0.014318 0.146951,0.014318 0.04898,0 0.09872,-0.0046 0.146951,-0.014318 0.04823,-0.0098 0.09571,-0.02404 0.141676,-0.04288 0.04522,-0.01884 0.08892,-0.042277 0.129618,-0.069406 0.04145,-0.027808 0.07988,-0.058705 0.114547,-0.094199 0.03467,-0.034665 0.06632,-0.073099 0.09345,-0.1145465 0.02713,-0.040694 0.05049,-0.084403 0.06933,-0.1296184 0.01884,-0.045969 0.03391,-0.092692 0.04295,-0.1409223 0.0098,-0.048984 0.01507,-0.097967 0.01507,-0.1477046 0,-0.048984 -0.0053,-0.098796 -0.01507,-0.1469511 -0.009,-0.04823 -0.02411,-0.095782 -0.04295,-0.1409223 -0.01884,-0.04514 -0.0422,-0.089602 -0.06933,-0.1302966 -0.02713,-0.041523 -0.05878,-0.079956 -0.09345,-0.1146218 -0.03466,-0.034665 -0.0731,-0.066316 -0.114547,-0.093446 -0.04069,-0.027054 -0.0844,-0.050491 -0.129618,-0.069331 -0.04597,-0.01884 -0.09345,-0.033083 -0.141676,-0.04288 -0.09721,-0.019669 -0.196688,-0.019669 -0.293902,0 -0.04823,0.0098 -0.09571,0.02404 -0.140922,0.04288 -0.04597,0.01884 -0.08968,0.042277 -0.130372,0.069331 -0.04145,0.02713 -0.07988,0.058781 -0.114547,0.093446 -0.03467,0.034665 -0.06632,0.073099 -0.09344,0.1146218 -0.02713,0.040694 -0.05049,0.085156 -0.06933,0.1302966 -0.01884,0.04514 -0.03316,0.092692 -0.04295,0.1409223 -0.0098,0.04823 -0.01507,0.097967 -0.01507,0.1469511 0,0.049737 0.0053,0.098721 0.01507,0.1477046 0.0098,0.04823 0.02411,0.094953 0.04295,0.1409223 z"
     id="path126" />
</svg>
