<svg width="108" height="50" viewBox="0 0 108 50" fill="none" xmlns="http://www.w3.org/2000/svg">
<path d="M0.0230783 6.96924H35.9308C41.1462 6.96924 44.8846 7.98462 47.1923 10.0154C49.5 12.0462 50.6308 15.3462 50.6308 19.9385V42.3923H41.2154V21.1615C41.2154 18.5539 40.8231 16.8462 40.0385 16.0154C39.2539 15.1846 37.6385 14.7692 35.1693 14.7692H29.9077V42.4154H20.3538V14.7462H9.41539V42.3923H0V6.96924H0.0230783Z" fill="#434142"/>
<path d="M66.5538 42.3231H56.7461V6.90002H66.5538V42.3231Z" fill="#434142"/>
<path d="M104.216 10.2461C101.816 8.07691 98.2617 6.96924 93.5771 6.92309V0H86.1694V6.92309H74.1233V14.2385H89.7463C91.2463 14.2385 92.5156 14.3308 93.5771 14.5154C94.7771 14.7231 95.7002 15.0692 96.3463 15.5077C97.5925 16.3615 98.1925 17.8385 98.1925 19.9385V20.8154H85.8925C80.8386 20.8154 77.2156 21.6923 75.0463 23.4462C72.8771 25.2 71.7925 28.0846 71.7925 32.1C71.7925 35.3539 72.7386 37.8692 74.6309 39.6462C76.5232 41.4231 79.2233 42.3 82.754 42.3H86.1694V49.2923H93.5771V42.3H101.723C105.162 42.1154 107.885 39.2539 107.885 35.7692V20.1231C107.885 15.7616 106.662 12.4615 104.216 10.2461ZM98.2617 32.7C98.2617 34.0846 97.154 35.1923 95.7694 35.1923H86.5617C86.4233 35.1923 86.3079 35.1923 86.1694 35.1923C84.3232 35.1692 83.1002 34.9154 82.4771 34.4539C81.8079 33.9692 81.4848 33.0923 81.4848 31.8462C81.4848 30.3692 81.9002 29.3539 82.7309 28.7539C83.4232 28.2692 84.5771 27.9692 86.1925 27.9C86.5386 27.8769 86.8848 27.8769 87.254 27.8769H98.2848V32.7H98.2617Z" fill="#70A63B"/>
</svg>
