<svg xmlns="http://www.w3.org/2000/svg" width="45" height="36" viewBox="0 0 45 36"><g><g><g><path fill="#fff" d="M20.761 27.627c0 .886-.72 1.607-1.607 1.607h-7.501a.86.86 0 0 0-.86.86v2.439l-3.047-3.047a.86.86 0 0 0-.608-.252H4.15c-.886 0-1.607-.72-1.607-1.607V19.7c0-.886.721-1.606 1.607-1.606h6.26v.24a4.915 4.915 0 0 0 4.91 4.91h5.44zM43.998 14.41a.86.86 0 0 0-.86.86v3.065a3.194 3.194 0 0 1-3.19 3.19h-4.902a.86.86 0 0 0-.608.252l-5.943 5.943v-5.335a.86.86 0 0 0-.86-.86H15.32a3.194 3.194 0 0 1-3.19-3.19V5.325a3.194 3.194 0 0 1 3.19-3.19h24.627c1.76 0 3.19 1.432 3.19 3.19V8.39a.86.86 0 1 0 1.72 0V5.325a4.915 4.915 0 0 0-4.91-4.91H15.321a4.915 4.915 0 0 0-4.91 4.91v11.05h-6.26A3.33 3.33 0 0 0 .824 19.7v7.926a3.33 3.33 0 0 0 3.327 3.327h2.63l4.263 4.263a.86.86 0 0 0 1.469-.608v-3.655h6.64a3.33 3.33 0 0 0 3.328-3.327v-4.382h4.294v6.551a.86.86 0 0 0 1.468.608l7.16-7.159h4.545a4.915 4.915 0 0 0 4.91-4.91V15.27a.86.86 0 0 0-.86-.86z"/></g><g><path fill="#fff" d="M36.02 6.052H19.25a.86.86 0 0 0 0 1.72h16.77a.86.86 0 1 0 0-1.72z"/></g><g><path fill="#fff" d="M36.88 11.556a.86.86 0 0 0-.86-.86H19.25a.86.86 0 0 0 0 1.72h16.77a.86.86 0 0 0 .86-.86z"/></g><g><path fill="#fff" d="M19.25 15.34a.86.86 0 0 0 0 1.72h9.675a.86.86 0 1 0 0-1.72z"/></g><g><path fill="#fff" d="M43.998 10.97a.862.862 0 0 0-.86.86c0 .474.387.86.86.86.474 0 .86-.386.86-.86a.862.862 0 0 0-.86-.86z"/></g></g></g></svg>