<svg xmlns="http://www.w3.org/2000/svg" width="38" height="30" viewBox="0 0 38 30"><g><g><g><path fill="#fff" d="M17.656 22.848c0 .749-.609 1.357-1.357 1.357H9.966a.726.726 0 0 0-.726.726v2.059l-2.572-2.572a.726.726 0 0 0-.514-.213H3.633a1.358 1.358 0 0 1-1.357-1.357v-6.69c0-.749.609-1.357 1.357-1.357h5.285v.203a4.15 4.15 0 0 0 4.145 4.145h4.593zM37.274 11.69a.726.726 0 0 0-.726.726v2.588a2.696 2.696 0 0 1-2.693 2.693h-4.139a.726.726 0 0 0-.513.212l-5.018 5.018v-4.504a.726.726 0 0 0-.726-.726H13.063a2.696 2.696 0 0 1-2.693-2.693V4.02a2.696 2.696 0 0 1 2.693-2.693h20.792a2.696 2.696 0 0 1 2.693 2.693v2.588a.726.726 0 1 0 1.452 0V4.02a4.15 4.15 0 0 0-4.145-4.145H13.063A4.15 4.15 0 0 0 8.918 4.02v9.328H3.633a2.812 2.812 0 0 0-2.809 2.81v6.69c0 1.55 1.26 2.809 2.809 2.809h2.22l3.6 3.599a.726.726 0 0 0 1.24-.513v-3.086h5.606a2.812 2.812 0 0 0 2.809-2.809V19.15h3.625v5.531a.726.726 0 0 0 1.24.513l6.044-6.044h3.838A4.15 4.15 0 0 0 38 15.004v-2.588c0-.4-.325-.726-.726-.726z"/></g><g><path fill="#fff" d="M30.538 4.633H16.38a.726.726 0 0 0 0 1.453h14.158a.726.726 0 1 0 0-1.453z"/></g><g><path fill="#fff" d="M31.264 9.28a.726.726 0 0 0-.726-.726H16.38a.726.726 0 0 0 0 1.453h14.158c.401 0 .726-.325.726-.726z"/></g><g><path fill="#fff" d="M16.38 12.475a.726.726 0 0 0 0 1.453h8.168a.726.726 0 1 0 0-1.453z"/></g><g><path fill="#fff" d="M37.274 8.786c-.4 0-.726.326-.726.726 0 .4.326.726.726.726.4 0 .726-.326.726-.726 0-.4-.326-.726-.726-.726z"/></g></g></g></svg>