<svg width="14" height="14" viewBox="0 0 14 14" fill="none" xmlns="http://www.w3.org/2000/svg">
<path d="M13 7C13 10.3137 10.3137 13 7 13C3.68629 13 1 10.3137 1 7C1 3.68629 3.68629 1 7 1C10.3137 1 13 3.68629 13 7Z" fill="#B3B3B3"/>
<path fill-rule="evenodd" clip-rule="evenodd" d="M14 7C14 10.866 10.866 14 7 14C3.13401 14 0 10.866 0 7C0 3.13401 3.13401 0 7 0C10.866 0 14 3.13401 14 7ZM7 13C10.3137 13 13 10.3137 13 7C13 3.68629 10.3137 1 7 1C3.68629 1 1 3.68629 1 7C1 10.3137 3.68629 13 7 13Z" fill="white"/>
<path d="M6.12451 8.52686C6.12451 8.02555 6.18538 7.6263 6.30713 7.3291C6.42887 7.0319 6.65088 6.74007 6.97314 6.45361C7.29899 6.16357 7.51562 5.92904 7.62305 5.75C7.73047 5.56738 7.78418 5.37581 7.78418 5.17529C7.78418 4.57015 7.50488 4.26758 6.94629 4.26758C6.68132 4.26758 6.46826 4.34993 6.30713 4.51465C6.14958 4.67578 6.06722 4.89958 6.06006 5.18604H4.50244C4.5096 4.50212 4.72982 3.9668 5.16309 3.58008C5.59993 3.19336 6.19434 3 6.94629 3C7.7054 3 8.29443 3.18441 8.71338 3.55322C9.13232 3.91846 9.3418 4.43587 9.3418 5.10547C9.3418 5.40983 9.27376 5.69808 9.1377 5.97021C9.00163 6.23877 8.76351 6.53776 8.42334 6.86719L7.98828 7.28076C7.71615 7.54215 7.56038 7.84831 7.521 8.19922L7.49951 8.52686H6.12451ZM5.96875 10.1758C5.96875 9.93587 6.04932 9.73893 6.21045 9.58496C6.37516 9.42741 6.58464 9.34863 6.83887 9.34863C7.0931 9.34863 7.30078 9.42741 7.46191 9.58496C7.62663 9.73893 7.70898 9.93587 7.70898 10.1758C7.70898 10.4121 7.62842 10.6073 7.46729 10.7612C7.30973 10.9152 7.10026 10.9922 6.83887 10.9922C6.57747 10.9922 6.36621 10.9152 6.20508 10.7612C6.04753 10.6073 5.96875 10.4121 5.96875 10.1758Z" fill="white"/>
</svg>
