<svg xmlns="http://www.w3.org/2000/svg" width="26" height="20" viewBox="0 0 26 20"><g><g><g><g><g><g><g><path fill="#2f3291" d="M.47 2.562v12.902h21.285v.47H0V2.091h21.99v.47z"/></g></g></g></g></g><g><g><g><g><g><path fill="#2f3291" d="M22.225 1.642h1.987v13.821h-1.987zm2.457-.47h-2.926v14.76h2.923z"/></g></g></g></g></g><g><g><g><g><g><path fill="#2f3291" d="M2.679 4.659H19.88v1.656H2.68zm17.672-.47H2.21v2.596h18.142z"/></g></g></g></g></g><g><g><g><g><g><path fill="#2f3291" d="M12.829 10.744v-.47h7.287v.47z"/></g></g></g></g></g><g><g><g><g><g><path fill="#2f3291" d="M12.829 13.297v-.47h7.287v.47z"/></g></g></g></g></g><g><g><g><g><g><path fill="#2f3291" d="M25.84 6.426h-.47V.47H23.22V0h2.62z"/></g></g></g></g></g><g><g><g><g><g><path fill="#2f3291" d="M24.212 16.352c-.036.18-.327 1.521-.993 2.207-.667-.686-.958-2.026-.994-2.207v-.419h1.987zm-2.457-.889v.912l.005.042c.014.077.357 1.87 1.311 2.642l.148.12.147-.12c.955-.772 1.297-2.565 1.312-2.642l.002-.954z"/></g></g></g></g></g><g><g><g><g><g><path fill="#2f3291" d="M22.984 19.597v-.721h.47v.72z"/></g></g></g></g></g><g><g><g><g><g><g><path fill="#2f3291" d="M5.436 12.305c0 .488-.344.833-.927.88v.58h-.32v-.585a1.675 1.675 0 0 1-.981-.471l.25-.3c.27.263.616.399.925.399.353 0 .615-.176.615-.478 0-.344-.276-.459-.718-.597-.524-.169-1.002-.333-1.002-.903 0-.466.325-.82.91-.848v-.606h.321v.627c.29.052.604.183.817.35l-.241.296a1.487 1.487 0 0 0-.808-.283c-.334 0-.568.157-.568.438 0 .3.29.41.69.54.59.188 1.037.344 1.037.96z"/></g></g></g></g></g></g></g></g></svg>