<svg xmlns="http://www.w3.org/2000/svg" width="26" height="23" viewBox="0 0 26 23"><g><g><g><g><path fill="#303392" d="M17.444 8.396V2.11A2.11 2.11 0 0 0 15.335 0H5.812a2.11 2.11 0 0 0-2.11 2.109v18.884a2.11 2.11 0 0 0 2.11 2.109h9.523a2.11 2.11 0 0 0 2.11-2.109V9.477l-.574-.32v11.836c0 .846-.688 1.535-1.536 1.535H5.812a1.537 1.537 0 0 1-1.536-1.535V2.11c0-.847.689-1.536 1.536-1.536h9.523c.848 0 1.536.689 1.536 1.536v6.544z"/></g><g><g><g><g><g><path fill="#303392" d="M9.592 1.991v-.573h1.964v.573z"/></g></g></g></g></g><g><g><g><g><g><path fill="#303392" d="M11.377 21.23H9.77a.438.438 0 0 1 0-.874h1.607a.438.438 0 0 1 0 .875zm0-1.448H9.77a1.012 1.012 0 0 0 0 2.022h1.607a1.011 1.011 0 0 0 0-2.022z"/></g></g></g></g></g><g><path fill="#303392" d="M14.802 18.355h-8.46V3.381h8.46zm.573-14.974h.003v-.573h-9.61v16.12h9.61v-.573h-.003z"/></g></g><g><g><g><g><g><g><path fill="#303392" d="M10.688 11.031c-.593-.194-1.023-.358-1.023-.802 0-.416.347-.649.843-.649.35 0 .822.15 1.197.42l.357-.44c-.315-.247-.78-.44-1.21-.517v-.932h-.476v.9c-.867.043-1.35.566-1.35 1.257 0 .846.708 1.088 1.486 1.34.655.204 1.064.373 1.064.883 0 .448-.388.71-.912.71-.459 0-.971-.203-1.371-.59l-.371.444c.42.405.927.638 1.454.697v.866h.475v-.86c.864-.07 1.374-.58 1.374-1.304 0-.912-.662-1.146-1.537-1.423z"/></g></g></g></g></g></g><g><path fill="#303392" d="M21.523 11.698l-1.563-.844-.966-.521 5.533-4.68zm-2.75.549v-1.381l.647.348zm-1.329-2.77l-.573-.32-.503-.28.503-.224.573-.257 6.235-2.776-5.225 4.42zm8.174-4.747l-.51-.32-.051-.03-7.613 3.39-.573.255-1.496.666-.286.128.286.16 1.496.834.573.32.543.301-.006.005.22.12v2.688l.53.152 1.193-1.911 1.848.995 3.852-7.75z"/></g><g><path fill="#303392" d="M13.046 5.311l-.405.405.94.94h-9.93a2.902 2.902 0 0 0-2.899 2.9c0 1.598 1.3 2.899 2.899 2.899h4.156v-.574H3.65a2.329 2.329 0 0 1-2.326-2.325 2.329 2.329 0 0 1 2.326-2.327h10.147L12.61 8.417l.405.406 1.772-1.771z"/></g></g></g></svg>