<svg xmlns="http://www.w3.org/2000/svg" width="24" height="15" viewBox="0 0 24 15"><g><g><g><g><g><g><path fill="#2f3291" d="M3.993 12.767v-.62h1.545v.62z"/></g></g></g></g><g><g><g><g><path fill="#2f3291" d="M6.186 12.767v-.62h1.545v.62z"/></g></g></g></g><g><g><g><g><path fill="#2f3291" d="M20.411 10.17c.272 0 .493.226.493.503v.971a.499.499 0 0 1-.493.504h-2.078a.499.499 0 0 1-.493-.504v-.97c0-.278.221-.504.493-.504zm0 2.597c.606 0 1.098-.504 1.098-1.123v-.97c0-.62-.492-1.124-1.098-1.124h-2.078c-.605 0-1.098.504-1.098 1.123v.971c0 .62.493 1.123 1.098 1.123z"/></g></g></g></g><g><path fill="#2f3291" d="M22.858 6.516H1.388v-3.23h21.47zm0 5.479c0 1.325-1.054 2.404-2.35 2.404H3.738c-1.295 0-2.35-1.079-2.35-2.404v-4.86h21.47zM3.738.619h16.77c1.178 0 2.153.891 2.322 2.049H1.417C1.586 1.51 2.561.619 3.74.619zM20.509 0H3.738C2.11 0 .784 1.356.784 3.023v8.972c0 1.667 1.326 3.023 2.956 3.023h16.77c1.629 0 2.955-1.356 2.955-3.023V3.023C23.464 1.356 22.138 0 20.508 0z"/></g></g></g></svg>