<svg xmlns="http://www.w3.org/2000/svg" width="37" height="23" viewBox="0 0 37 23"><g><g><g><path fill="#303392" d="M24.643 6.718h1.468V8.19a1.84 1.84 0 0 1-1.468-1.472zM8.89 8.192V6.718h1.474A1.846 1.846 0 0 1 8.89 8.192zm0 4.607v-3.93a2.51 2.51 0 0 0 2.152-2.151h12.921a2.512 2.512 0 0 0 2.139 2.15h.002c.001.002.003.002.006.002v.716c.237-.084.462-.188.672-.312v-.38h.005V6.045H8.22v6.73z"/></g><g><path fill="#303392" d="M26.111 13.479v1.472h-1.468a1.845 1.845 0 0 1 1.468-1.472zm.672-1.22h-.672v.54a2.514 2.514 0 0 0-2.152 2.194H13.912l.4.134c.29.096.533.284.697.537h11.774v-.042h.005v-2.846h-.005z"/></g></g><g><path fill="#303392" d="M19.301 12.228a2.231 2.231 0 0 1-.55.516 2.247 2.247 0 0 1-1.25.377 2.268 2.268 0 0 1-2.265-2.266A2.268 2.268 0 0 1 17.5 8.59c.623 0 1.185.252 1.595.658.178.176.326.38.436.605.029-.002.06-.004.09-.004h.639a2.935 2.935 0 0 0-5.695 1.007 2.94 2.94 0 0 0 2.935 2.938 2.933 2.933 0 0 0 2.58-1.535h-.512c-.09 0-.18-.01-.267-.03z"/></g><g><path fill="#303392" d="M35.61 9.892h-.191a7.537 7.537 0 0 0-4.143 1.237c-1.13.74-2.388 1.13-3.642 1.13h-8.066a1.186 1.186 0 0 1-.881-.381 1.197 1.197 0 0 1-.322-.905c.038-.603.544-1.08 1.166-1.121.029-.002.06-.004.09-.004h4.944c.546 0 1.07-.09 1.546-.262.237-.084.462-.188.672-.312.332-.193.63-.433.878-.713.824-.937 1.069-2.328.592-3.386-.5-1.114-1.712-1.843-2.957-1.759-1.454.097-2.451.901-3.348 1.717-.083.075-.214.2-.359.336-.184.175-.471.448-.606.562-.486.002-2.486.004-3.619.004a85.5 85.5 0 0 1 2.782-2.794c.675-.65 1.705-1.579 2.865-2.145.723-.354 1.435-.533 2.113-.533 1.447 0 2.886.599 3.836 1.1a9.174 9.174 0 0 0 4.275 1.055h2.375zm-2.375-7.846a8.505 8.505 0 0 1-3.961-.975c-1.018-.539-2.565-1.18-4.15-1.18-.78 0-1.59.203-2.407.601-1.247.608-2.33 1.585-3.036 2.266-1.27 1.227-1.622 1.591-2.93 2.944l-.33.344-.638.662.79-.002 4.52-.003c.159 0 .19-.019.864-.657l.094-.088c.14-.133.268-.256.349-.328.843-.767 1.7-1.46 2.94-1.544.971-.064 1.913.502 2.3 1.364.371.825.173 1.922-.483 2.666-.11.126-.235.243-.37.35 0 0-.003 0-.004.002a3.04 3.04 0 0 1-.672.397c-.001.001-.003.003-.006.003h-.002c-.458.201-.984.309-1.538.309H19.62c-.18 0-.357.025-.525.07-.769.212-1.348.877-1.4 1.682a1.861 1.861 0 0 0 1.056 1.815c.253.12.532.186.817.186h8.066c1.385 0 2.771-.428 4.01-1.24a6.871 6.871 0 0 1 3.775-1.127h.863V2.046z"/></g><g><path fill="#303392" d="M24.553 17.624a1.325 1.325 0 0 1-.788.647l-.114.034c.206-.446.24-.946.095-1.419a1.973 1.973 0 0 0-.874-1.128l.118-.036a1.335 1.335 0 0 1 1.662.887c.103.34.068.7-.1 1.015zm-11.655 3.954c-.15.045-.312.08-.489.106a4.04 4.04 0 0 1-.36.04 7.348 7.348 0 0 1-.412.018 9.884 9.884 0 0 1-.987-.028c-.163-.01-.325-.026-.488-.042L10 21.653a9.369 9.369 0 0 1-.316-.037 28.29 28.29 0 0 1-.525-.073c-.07-.012-.14-.022-.207-.032-.272-.046-.513-.09-.711-.128l-.096-.018c-.089-.017-.166-.034-.23-.047l-.064-.014-.153-.033-1.91-.623c-.327-.107-.607-.212-.856-.302-.995-.371-1.598-.593-2.998-.168l-1.257.33-.007-7.113 1.83-.698a7.794 7.794 0 0 1 4.742.068l.977.326.671.225 1.758.588 3.263 1.089.4.134a1.322 1.322 0 0 1 .773.668c.16.318.185.68.072 1.018-.112.339-.349.612-.668.772-.317.159-.68.184-1.017.072l-4.646-1.544-.213.637 4.647 1.545c.413.137.85.137 1.256.003l2.152-.655 2.465-.748.075-.022.33-.1a1.336 1.336 0 0 1 1.565 1.903 1.33 1.33 0 0 1-.783.646zm9.56-5.286a1.328 1.328 0 0 1 .546 1.804 1.29 1.29 0 0 1-.72.625l-.537.163c.207-.447.24-.945.096-1.42a1.993 1.993 0 0 0-.873-1.126l.47-.145h.002c.339-.102.7-.069 1.015.1zm2.836.122a2.005 2.005 0 0 0-2.5-1.334l-1.822.554-.1.03h-.003l-1.51.46-.017.005-3.63 1.103a1.982 1.982 0 0 0-.029-1.739 2.006 2.006 0 0 0-1.158-1.004l-5.634-1.881-.671-.225-.764-.255a8.455 8.455 0 0 0-5.161-.07L0 12.934l.008 8.443 2.11-.552c1.197-.364 1.63-.203 2.582.151.253.094.54.2.881.31l1.939.632.027.008.127.029a32.975 32.975 0 0 0 1.2.225h.004l.25.039c.06.01.122.018.183.026l.21.029a18.95 18.95 0 0 0 1.089.11c.282.02.566.033.84.033.04 0 .076 0 .113-.002.037 0 .074 0 .111-.002.004 0 .007-.002.01 0 .146-.005.29-.012.43-.022.072-.006.14-.012.211-.02a4.652 4.652 0 0 0 .77-.15l7.423-2.257 1.894-.576c.032-.01.064-.02.095-.032l.005-.001.005-.002 1.443-.439a1.99 1.99 0 0 0 1.185-.973 1.99 1.99 0 0 0 .15-1.526z"/></g></g></svg>