<svg xmlns="http://www.w3.org/2000/svg" width="23" height="15" viewBox="0 0 23 15"><g><g><g><g><path fill="#2f3291" d="M18.192 5.342a1.68 1.68 0 0 1-.383-.044 2.293 2.293 0 0 0 0-3.28 1.684 1.684 0 1 1 .383 3.324zm-.307-1.684c0 .537-.255 1.04-.688 1.358a1.682 1.682 0 0 1 0-2.715c.432.317.688.82.688 1.357zm-1.684 1.684a1.684 1.684 0 1 1 .383-3.323 2.294 2.294 0 0 0 0 3.279c-.125.03-.254.044-.383.044zm1.991-3.982c-.344 0-.685.077-.995.227a2.298 2.298 0 1 0 0 4.142 2.298 2.298 0 1 0 .995-4.369z"/></g></g><g><g><path fill="#2f3291" d="M2.85 10.552h8.189a.307.307 0 0 0 0-.614h-8.19a.307.307 0 1 0 0 .614z"/></g></g><g><g><path fill="#2f3291" d="M13.039 9.938h-.888a.307.307 0 0 0 0 .614h.888a.307.307 0 0 0 0-.614z"/></g></g><g><g><path fill="#2f3291" d="M3.232 11.485h-.383a.307.307 0 1 0 0 .614h.383a.307.307 0 1 0 0-.614z"/></g></g><g><g><path fill="#2f3291" d="M9.492 11.485H4.378a.307.307 0 1 0 0 .614h5.114a.307.307 0 0 0 0-.614z"/></g></g><g><g><path fill="#2f3291" d="M13.039 11.485h-2.435a.307.307 0 1 0 0 .614h2.435a.307.307 0 0 0 0-.614z"/></g></g><g><g><path fill="#2f3291" d="M20.263.512c1.059 0 1.92.86 1.92 1.919v9.372c0 1.058-.861 1.92-1.92 1.92H2.53a1.922 1.922 0 0 1-1.92-1.92V2.431c0-1.058.861-1.92 1.92-1.92zm2.431 11.291V2.431c0-1.34-1.09-2.431-2.43-2.431H2.528A2.434 2.434 0 0 0 .098 2.431v9.372c0 1.34 1.09 2.431 2.43 2.431h17.735c1.34 0 2.431-1.09 2.431-2.431z"/></g></g></g></g></svg>