<svg xmlns="http://www.w3.org/2000/svg" width="21" height="24" viewBox="0 0 21 24"><g><g><g><g><g><g><g><path fill="#303392" d="M10.699 7.692a4.18 4.18 0 0 1 3.362 1.672c.676.897.963 2.003.808 3.116a4.22 4.22 0 0 1-4.16 3.624 4.21 4.21 0 0 1-4.17-4.787 4.22 4.22 0 0 1 4.16-3.625zm.01 8.994a4.805 4.805 0 0 0 4.737-4.126 4.756 4.756 0 0 0-.92-3.547 4.756 4.756 0 0 0-3.16-1.856 4.83 4.83 0 0 0-.667-.047 4.805 4.805 0 0 0-4.736 4.126 4.793 4.793 0 0 0 4.747 5.45z"/></g></g></g></g></g><g><g><g><g><g><g><path fill="#303392" d="M12.196 12.88c0 .656-.46 1.116-1.241 1.18v.777h-.43v-.784a2.238 2.238 0 0 1-1.313-.63l.335-.402c.36.351.825.533 1.239.533.473 0 .824-.235.824-.64 0-.46-.37-.614-.962-.799-.703-.225-1.342-.445-1.342-1.21 0-.624.436-1.097 1.22-1.135v-.812h.429v.84c.389.07.809.245 1.094.467l-.323.399c-.338-.245-.765-.38-1.081-.38-.449 0-.762.21-.762.586 0 .402.389.55.925.725.79.25 1.388.46 1.388 1.285z"/></g></g></g></g></g></g><g><g><g><g><g><path fill="#303392" d="M17.29 3.334V1.352l2.884 3.57L17.29 8.49V6.3h-6.638a7.988 7.988 0 0 0-7.29 4.732l-.146.328v-.628c0-4.08 3.319-7.398 7.398-7.398zM3.894 11.269a7.406 7.406 0 0 1 6.758-4.386h6.056v3.254l4.214-5.216-4.214-5.216v3.046h-6.094c-4.4 0-7.98 3.58-7.98 7.981v3.365z"/></g></g></g></g></g><g><g><g><g><g><path fill="#303392" d="M3.658 15.278v2.19h6.639a7.99 7.99 0 0 0 7.289-4.731l.146-.329v.628c0 4.08-3.319 7.398-7.398 7.398H3.658v1.982L.775 18.847zm.582 5.739h6.094c4.4 0 7.98-3.58 7.98-7.98V9.671l-1.26 2.827a7.406 7.406 0 0 1-6.757 4.387H4.24V13.63L.026 18.847l4.214 5.216z"/></g></g></g></g></g></g></g></svg>