<svg xmlns="http://www.w3.org/2000/svg" width="28" height="28" viewBox="0 0 28 28"><g><g><g><g><g><g><g><path fill="#303392" d="M23.745.723a3.534 3.534 0 0 1 3.53 3.53V23.13a3.533 3.533 0 0 1-3.53 3.529H4.187a3.533 3.533 0 0 1-3.53-3.53V4.254a3.534 3.534 0 0 1 3.53-3.53zM28 23.131V4.253a4.26 4.26 0 0 0-4.255-4.254H4.187A4.26 4.26 0 0 0-.068 4.253V23.13a4.26 4.26 0 0 0 4.255 4.254h19.558A4.26 4.26 0 0 0 28 23.131z"/></g></g></g></g></g><g><g><g><g><g><path fill="#303392" d="M23.199 23.133H4.449L4.45 4.458h18.749V8.19h-.725V5.182h-17.3V22.41h17.3v-3.124h.725z"/></g></g></g></g></g><g><g><g><g><g><path fill="#303392" d="M22.127 15.297h1.42v3.626h-1.42zm2.144-.724h-2.87v5.074h2.87z"/></g></g></g></g></g><g><g><g><g><g><path fill="#303392" d="M22.127 8.552h1.42v3.625h-1.42zm2.144-.724h-2.87v5.074h2.87z"/></g></g></g></g></g><g><g><g><g><g><path fill="#303392" d="M13.668 10.29c1.99 0 3.61 1.62 3.61 3.61 0 1.99-1.62 3.609-3.61 3.609-1.99 0-3.61-1.62-3.61-3.61 0-1.99 1.62-3.61 3.61-3.61zm4.335 3.61a4.34 4.34 0 0 0-4.335-4.337A4.34 4.34 0 0 0 9.333 13.9a4.34 4.34 0 0 0 4.335 4.335 4.34 4.34 0 0 0 4.335-4.335z"/></g></g></g></g></g><g><g><g><g><g><path fill="#303392" d="M15.297 13.899c0 .898-.731 1.63-1.63 1.63a1.631 1.631 0 0 1-1.628-1.63c0-.899.73-1.629 1.629-1.629.898 0 1.629.73 1.629 1.629zm.725 0a2.356 2.356 0 0 0-2.354-2.354 2.356 2.356 0 0 0-2.354 2.354 2.357 2.357 0 0 0 2.354 2.354 2.357 2.357 0 0 0 2.354-2.354z"/></g></g></g></g></g><g><g><g><g><g><path fill="#303392" d="M13.305 17.872V15.89h.725v1.98z"/></g></g></g></g></g><g><g><g><g><g><path fill="#303392" d="M13.305 11.908v-1.98h.725v1.98z"/></g></g></g></g></g><g><g><g><g><g><path fill="#303392" d="M15.66 14.26v-.724h1.98v.725z"/></g></g></g></g></g><g><g><g><g><g><path fill="#303392" d="M9.695 14.26v-.724h1.981v.725z"/></g></g></g></g></g><g><g><g><g><g><path fill="#303392" d="M22.474 14.935V12.54h.725v2.395z"/></g></g></g></g></g></g></g></svg>
