<svg xmlns="http://www.w3.org/2000/svg" width="41" height="29" viewBox="0 0 41 29"><g><g><g><g><g><path fill="#3d525f" d="M40.056 6.763a.643.643 0 0 0 .642-.643v-2.5A2.976 2.976 0 0 0 37.726.646H2.972A2.976 2.976 0 0 0 0 3.619v22.522a2.976 2.976 0 0 0 2.972 2.972h34.754a2.976 2.976 0 0 0 2.972-2.972V8.205a.643.643 0 1 0-1.285 0V26.14a1.69 1.69 0 0 1-1.687 1.688H2.972a1.69 1.69 0 0 1-1.687-1.688V3.62c0-.931.757-1.688 1.687-1.688h34.754c.93 0 1.687.757 1.687 1.687V6.12c0 .355.288.643.643.643z"/></g></g></g><g><g><g><path fill="#3d525f" d="M27.894 14.473c-.493 2.96-2.304 4.398-5.535 4.398h-.315c-1.034 0-1.494.84-1.557 1.423l-.61 3.78c-.056.225-.155.225-.242.225h-2.893l.236-1.44a.714.714 0 0 0 .007-.034l.915-5.591.004-.009.006-.012.005-.01.01-.02a.653.653 0 0 0 .022-.057c.051-.154.198-.285.261-.3h1.844c.13 0 .259-.003.386-.007.042 0 .083-.003.125-.005.084-.003.168-.007.251-.012l.146-.01c.074-.006.148-.01.221-.018.052-.004.102-.01.153-.016.069-.007.137-.014.205-.023.052-.006.103-.014.154-.021l.195-.029.153-.026a9.186 9.186 0 0 0 .838-.192 8.303 8.303 0 0 0 .313-.095l.138-.046.167-.06.131-.05c.056-.022.111-.046.166-.07.041-.017.082-.033.123-.052.058-.026.115-.054.172-.081l.107-.051a6.672 6.672 0 0 0 .526-.297c.034-.021.067-.044.1-.066.05-.033.101-.065.15-.1.036-.024.072-.051.107-.077.045-.033.09-.065.134-.1l.107-.084.125-.103a5.94 5.94 0 0 0 1.019-1.106l.083-.115c.032-.046.063-.094.094-.141l.076-.117.092-.154c.023-.038.047-.076.069-.115l.095-.176.056-.104c.047-.092.092-.185.136-.28l.026-.058c.038-.083.075-.167.11-.253l.046-.115c.026-.066.053-.131.077-.198.017-.044.032-.089.047-.133l.067-.192.044-.143.044-.138c.073.128.136.264.188.406.216.632.244 1.486.08 2.47zm-1.334-3.89l-.027.115-.022.092-.022.092c-.01.042-.022.083-.034.125l-.02.075c-.01.032-.018.066-.027.098-.012.043-.026.084-.04.126-.004.017-.01.034-.015.05-.011.038-.022.076-.034.112l-.045.128-.01.03-.043.12-.05.129-.007.015c-.016.041-.032.083-.05.124l-.056.13c-.02.042-.038.086-.057.128-.02.043-.041.084-.062.125l-.06.123c-.022.042-.045.082-.068.122-.02.039-.042.079-.064.117l-.071.118-.068.11c-.025.04-.051.077-.077.115l-.07.104c-.027.038-.056.074-.084.111l-.072.097-.089.107-.076.092c-.03.035-.062.069-.094.103l-.078.086-.1.099-.082.08c-.034.032-.07.063-.105.094l-.085.075-.11.09-.088.07c-.038.029-.078.056-.117.084l-.09.065c-.04.028-.082.054-.123.08l-.092.06-.13.076-.094.054c-.045.025-.092.048-.138.072-.031.016-.062.033-.094.048-.047.023-.095.044-.143.066l-.098.045-.148.06c-.034.013-.067.028-.102.04-.05.02-.101.037-.152.055l-.106.037c-.051.017-.104.032-.156.048-.037.01-.074.023-.111.034l-.16.041c-.039.01-.077.021-.116.03-.056.014-.113.025-.169.037l-.116.026-.175.031c-.04.007-.078.015-.118.021-.06.01-.12.018-.18.026l-.122.017c-.062.008-.124.014-.187.02l-.124.014c-.062.006-.126.01-.19.014l-.13.01c-.069.004-.14.006-.21.009l-.118.005c-.11.003-.223.005-.337.005h-1.89l.791-5.138c.05-.223.16-.236.245-.24h3.762l.043-.001h1.712l.028.001c.27.007.967.052 1.633.326.05.022.11.051.18.088l.004.008zM15.804 22.08h-3.118l2.439-15.973c.06-.136.188-.247.245-.262h6.163c2.029 0 3.483.436 4.204 1.261.538.615.796 1.22.848 2.089a6.225 6.225 0 0 0-1.828-.318h-1.8l-.042.001h-3.753c-.75.028-1.314.517-1.47 1.279a.611.611 0 0 0-.006.032l-.983 6.386zM29.027 11.58a3.872 3.872 0 0 0-1.156-1.657c.067-1.593-.274-2.643-1.166-3.664-.987-1.128-2.727-1.7-5.172-1.7h-6.17c-.7 0-1.282.607-1.473 1.179a.636.636 0 0 0-.025.107l-2.468 16.163a.65.65 0 0 0-.007.097c0 .694.51 1.259 1.135 1.259h3.068l-.161.981a.643.643 0 0 0-.009.104c0 .669.468 1.136 1.136 1.136h3.076c.748 0 1.323-.475 1.499-1.24a.654.654 0 0 0 .008-.04l.617-3.826a.632.632 0 0 0 .005-.045c.01-.104.058-.278.28-.278h.315c1.794 0 3.269-.403 4.383-1.199 1.286-.919 2.1-2.356 2.42-4.273.202-1.215.157-2.26-.135-3.104z"/></g></g></g></g></g></svg>