<svg xmlns="http://www.w3.org/2000/svg" width="31" height="42" viewBox="0 0 31 42"><g><g><g><g><g><path fill="#303392" d="M16.635 23.367c-.124.083-.249.166-.373.207-.166.042-.29.083-.415.083h-1.702v-4.982h.996c.457 0 .83.042 1.162.166.332.083.582.333.79.706.207.374.331.914.331 1.62-.041 1.079-.29 1.785-.789 2.2zm1.08-5.148a2.899 2.899 0 0 0-.997-.54 5.879 5.879 0 0 0-1.287-.125h-1.91c-.331 0-.539.083-.705.208-.125.125-.208.374-.208.706v5.355c0 .25 0 .416.083.582.042.166.125.249.25.332.124.083.332.124.622.124h1.91c.332 0 .623-.041.913-.083.25-.041.499-.124.748-.207.249-.125.456-.25.622-.415.25-.25.457-.499.623-.79.166-.29.29-.622.374-.996.083-.373.124-.747.124-1.204 0-1.287-.373-2.283-1.162-2.947z"/></g><g><path fill="#303392" d="M29.215 38.977c0 .29-.125.54-.332.747-.208.208-.457.332-.747.332H2.893c-.291 0-.54-.124-.748-.29-.207-.208-.29-.457-.29-.748V3.605c0-.29.124-.54.332-.747l.041-.042c.208-.166.457-.29.706-.29h18.6v4.69c0 .831.332 1.578.913 2.16.54.54 1.328.872 2.159.872h4.608v28.729zM23.237 3.812l4.69 4.692h-3.445c-.332 0-.664-.125-.872-.374a1.295 1.295 0 0 1-.373-.872V3.812zm7.68 5.19l-.041-.041v-.042l-7.889-7.888-.041-.042s-.042 0-.042-.041c0 0-.041 0-.041-.042-.125-.083-.25-.083-.415-.083H2.894c-.748 0-1.454.29-1.952.79l-.041.04a2.9 2.9 0 0 0-.83 1.993v35.33c0 .79.332 1.495.83 1.994a2.9 2.9 0 0 0 1.993.83h25.283c.789 0 1.495-.332 1.993-.83a2.9 2.9 0 0 0 .83-1.993V9.417c0-.166-.041-.29-.083-.415z"/></g><g><path fill="#303392" d="M9.702 20.46c-.124.167-.29.291-.54.374a2.76 2.76 0 0 1-.871.125h-.997v-2.242h.997c.664 0 1.08.124 1.328.332.208.208.29.457.29.789-.04.249-.082.457-.207.623zm.997-2.324c-.208-.208-.457-.332-.79-.416-.29-.083-.746-.124-1.286-.124h-1.91c-.332 0-.581.083-.706.208-.166.124-.207.373-.207.705v5.647c0 .29.083.498.207.664.125.166.332.207.54.207.208 0 .374-.083.54-.249.124-.166.207-.373.207-.664v-2.076h1.37c.914 0 1.578-.207 2.035-.581.456-.374.705-.955.705-1.702 0-.332-.041-.664-.166-.955-.166-.25-.332-.498-.54-.664z"/></g><g><path fill="#303392" d="M21.078 17.513c-.25.041-.415.083-.54.166a.501.501 0 0 0-.29.29c-.084.125-.084.291-.084.54v5.605c0 .29.083.54.208.664.124.166.332.208.54.208.207 0 .373-.083.54-.208.124-.166.207-.373.207-.664v-2.408h2.45c.207 0 .373-.041.498-.166.124-.083.166-.25.166-.415a.533.533 0 0 0-.166-.415.89.89 0 0 0-.499-.166h-2.45v-1.869h2.907c.25 0 .415-.041.54-.166a.533.533 0 0 0 .166-.415.533.533 0 0 0-.166-.415c-.125-.125-.29-.166-.54-.166z"/></g></g></g></g></g></svg>