<?xml version="1.0" encoding="UTF-8" standalone="no"?>
<svg
   xmlns:dc="http://purl.org/dc/elements/1.1/"
   xmlns:cc="http://creativecommons.org/ns#"
   xmlns:rdf="http://www.w3.org/1999/02/22-rdf-syntax-ns#"
   xmlns:svg="http://www.w3.org/2000/svg"
   xmlns="http://www.w3.org/2000/svg"
   xmlns:sodipodi="http://sodipodi.sourceforge.net/DTD/sodipodi-0.dtd"
   xmlns:inkscape="http://www.inkscape.org/namespaces/inkscape"
   width="43"
   height="43"
   viewBox="0 0 43 43"
   version="1.1"
   id="svg108"
   sodipodi:docname="pdfDown.svg"
   inkscape:version="0.92.4 5da689c313, 2019-01-14">
  <metadata
     id="metadata114">
    <rdf:RDF>
      <cc:Work
         rdf:about="">
        <dc:format>image/svg+xml</dc:format>
        <dc:type
           rdf:resource="http://purl.org/dc/dcmitype/StillImage" />
        <dc:title></dc:title>
      </cc:Work>
    </rdf:RDF>
  </metadata>
  <defs
     id="defs112" />
  <sodipodi:namedview
     pagecolor="#ffffff"
     bordercolor="#666666"
     borderopacity="1"
     objecttolerance="10"
     gridtolerance="10"
     guidetolerance="10"
     inkscape:pageopacity="0"
     inkscape:pageshadow="2"
     inkscape:window-width="1366"
     inkscape:window-height="697"
     id="namedview110"
     showgrid="false"
     inkscape:zoom="0.68604651"
     inkscape:cx="-300.94389"
     inkscape:cy="88.024651"
     inkscape:window-x="0"
     inkscape:window-y="29"
     inkscape:window-maximized="1"
     inkscape:current-layer="svg108" />
  <g
     id="g6"
     style="fill:#b53438;fill-opacity:1">
    <g
       id="g4"
       style="fill:#b53438;fill-opacity:1">
      <path
         style="fill:#b53438;fill-opacity:1"
         inkscape:connector-curvature="0"
         id="path2"
         d="M 0,21.506 C 0,9.628 9.629,0 21.506,0 33.383,0 43.012,9.629 43.012,21.506 43.012,33.383 33.383,43.012 21.506,43.012 9.628,43.012 0,33.383 0,21.506 Z" />
    </g>
  </g>
  <g
     id="g1053"
     transform="translate(5.5596402e-8,-2.0000002)">
    <g
       transform="matrix(0.08413058,0,0,0.08413058,6.6526807,-2.2594096)"
       id="g935"
       style="fill:#ffffff">
      <path
         id="path927"
         d="m 52.964844,485.51562 c -4.871094,0 -8.828125,-3.95312 -8.828125,-8.82421 v -88.27735 c 0,-4.875 3.957031,-8.82812 8.828125,-8.82812 4.875,0 8.828125,3.95312 8.828125,8.82812 v 88.27735 c 0,4.87109 -3.953125,8.82421 -8.828125,8.82421 z m 0,0"
         inkscape:connector-curvature="0"
         style="fill:#ffffff" />
      <path
         id="path929"
         d="m 300.13672,397.24219 h -52.96484 c -4.8711,0 -8.82813,-3.95703 -8.82813,-8.82813 0,-4.875 3.95703,-8.82812 8.82813,-8.82812 h 52.96484 c 4.875,0 8.82812,3.95312 8.82812,8.82812 0,4.8711 -3.95312,8.82813 -8.82812,8.82813 z m 0,0"
         inkscape:connector-curvature="0"
         style="fill:#ffffff" />
      <path
         id="path931"
         d="m 300.13672,441.37891 h -52.96484 c -4.8711,0 -8.82813,-3.95313 -8.82813,-8.82813 0,-4.87109 3.95703,-8.82812 8.82813,-8.82812 h 52.96484 c 4.875,0 8.82812,3.95703 8.82812,8.82812 0,4.875 -3.95312,8.82813 -8.82812,8.82813 z m 0,0"
         inkscape:connector-curvature="0"
         style="fill:#ffffff" />
      <path
         id="path933"
         d="m 247.17187,485.51562 c -4.87109,0 -8.82812,-3.95312 -8.82812,-8.82421 v -88.27735 c 0,-4.875 3.95703,-8.82812 8.82812,-8.82812 4.875,0 8.82813,3.95312 8.82813,8.82812 v 88.27735 c 0,4.87109 -3.95313,8.82421 -8.82813,8.82421 z m 0,0"
         inkscape:connector-curvature="0"
         style="fill:#ffffff" />
    </g>
    <path
       id="path937"
       d="m 20.971967,9.7444979 c -0.07263,0.023662 -0.983933,1.2839771 0.07132,2.3503981 0.702621,-1.545571 -0.03911,-2.3602578 -0.07132,-2.3503981 m 0.449574,6.1855691 c -0.52976,1.808479 -1.228438,3.7609 -1.979369,5.528298 1.546228,-0.592528 3.228511,-1.110129 4.807274,-1.476228 -0.998723,-1.145951 -1.997116,-2.577155 -2.827905,-4.05207 m 5.528299,4.810231 c 0.603045,0.458118 0.749945,0.689806 1.145293,0.689806 0.172862,0 0.6668,-0.0072 0.894873,-0.322063 0.11075,-0.153144 0.153802,-0.251077 0.169904,-0.302344 -0.09038,-0.04831 -0.21164,-0.143943 -0.869567,-0.143943 -0.374316,0 -0.843607,0.0161 -1.340503,0.07854 M 16.857785,23.98787 c -1.582049,0.877127 -2.226502,1.598481 -2.272511,2.005331 -0.0076,0.0677 -0.0276,0.244505 0.318447,0.50577 0.11075,-0.03484 0.754547,-0.324692 1.954064,-2.511101 m -1.970496,3.746111 c -0.257649,0 -0.504783,-0.08249 -0.715767,-0.23826 -0.77032,-0.571825 -0.874169,-1.207077 -0.825202,-1.63989 0.134412,-1.189001 1.624114,-2.435185 4.429343,-3.704374 1.113088,-2.409223 2.172278,-5.377784 2.803586,-7.857664 -0.738114,-1.587637 -1.456511,-3.647193 -0.933652,-4.8555832 0.183378,-0.4232824 0.413095,-0.7483024 0.839334,-0.8889577 0.169247,-0.054883 0.595486,-0.1245528 0.752246,-0.1245528 0.388446,0 0.761447,0.4633754 0.940881,0.7647336 0.334222,0.5593367 0.335865,1.2106911 0.282955,1.8390421 -0.05127,0.610274 -0.155116,1.217264 -0.274738,1.817352 -0.08742,0.441028 -0.186336,0.880085 -0.291828,1.317498 0.997407,2.033922 2.40988,4.106952 3.764514,5.525998 0.970789,-0.172862 1.805521,-0.260608 2.485796,-0.260608 1.157781,0 1.86106,0.266523 2.146973,0.815344 0.237931,0.454503 0.139669,0.986563 -0.288871,1.579092 -0.412108,0.569524 -0.979332,0.870225 -1.642517,0.870225 -0.901118,0 -1.948149,-0.561308 -3.117104,-1.670123 -2.09965,0.433799 -4.551267,1.206748 -6.533265,2.062513 -0.61882,1.296466 -1.211349,2.340868 -1.763785,3.107246 -0.756846,1.051632 -1.411158,1.540969 -2.058899,1.540969"
       inkscape:connector-curvature="0"
       style="fill:#ffffff;stroke-width:0.08413058" />
    <path
       id="path939"
       d="m 13.33679,35.616768 h -2.228146 c -0.409809,0 -0.742716,-0.332579 -0.742716,-0.742715 V 30.41809 c 0,-0.410137 0.332907,-0.742715 0.742716,-0.742715 h 2.228146 c 1.638245,0 2.970531,1.332286 2.970531,2.970861 0,1.638245 -1.332286,2.970532 -2.970531,2.970532 z m -1.485431,-1.485431 h 1.485431 c 0.818958,0 1.485101,-0.666143 1.485101,-1.485101 0,-0.819288 -0.666143,-1.485431 -1.485101,-1.485431 h -1.485431 z m 0,0"
       inkscape:connector-curvature="0"
       style="fill:#ffffff;stroke-width:0.08413058" />
    <path
       id="path941"
       d="m 20.020898,38.5873 h -0.742715 c -0.410137,0 -0.742715,-0.332578 -0.742715,-0.742386 V 30.41809 c 0,-0.410137 0.332578,-0.742715 0.742715,-0.742715 h 0.742715 c 2.456547,0 4.455963,1.998429 4.455963,4.455962 0,2.457533 -1.999416,4.455963 -4.455963,4.455963 z m 0,-1.485101 h 0.0072 z m 0,-5.941394 v 5.941394 c 1.638245,0 2.970532,-1.332616 2.970532,-2.970862 0,-1.638246 -1.332287,-2.970532 -2.970532,-2.970532 z m 0,0"
       inkscape:connector-curvature="0"
       style="fill:#ffffff;stroke-width:0.08413058" />
  </g>
</svg>
