<svg xmlns="http://www.w3.org/2000/svg" xmlns:xlink="http://www.w3.org/1999/xlink" width="18" height="27" viewBox="0 0 18 27"><defs><path id="1ys1a" d="M571.306 686.972a3.23 3.23 0 0 0-3.225 3.226 3.23 3.23 0 0 0 3.225 3.225 3.23 3.23 0 0 0 3.227-3.225 3.23 3.23 0 0 0-3.227-3.226zm0 7.318a4.097 4.097 0 0 1-4.093-4.092 4.098 4.098 0 0 1 4.093-4.093 4.098 4.098 0 0 1 4.094 4.093 4.097 4.097 0 0 1-4.094 4.092z"/><path id="1ys1b" d="M579.235 710.23a1.405 1.405 0 0 1-2.397.993c-.258-.26-.401-.6-.408-.964V708.794h2.805zm-11.838 1.404v-1.37l.002-.034v-2.302h-.002v-6.045h-.867v6.045h-2.81v-7.794a4.14 4.14 0 0 1 4.136-4.135h.91a2.856 2.856 0 0 0 2.818 2.419 2.856 2.856 0 0 0 2.817-2.42h.702a4.14 4.14 0 0 1 4.137 4.136v7.794h-2.81v-6.045h-.868v7.45l-.002.892.002.033v1.376zm-2.27 0a1.4 1.4 0 0 1-1.403-1.408l.003-1.432h2.803v1.47a1.404 1.404 0 0 1-1.402 1.37zm8.395-15.635a1.988 1.988 0 0 1-1.938 1.552c-.946 0-1.74-.664-1.939-1.552zm6.585 4.135a5.01 5.01 0 0 0-5.004-5.003h-.666v-.002h-5.707v.002h-.874a5.01 5.01 0 0 0-5.004 5.003v9.62h.006l-.001.471a2.257 2.257 0 0 0 .663 1.609c.43.43 1 .666 1.608.666.529 0 1.015-.182 1.402-.486v.486h9.9v-.484a2.273 2.273 0 0 0 3.673-1.786v-.477h.004z"/></defs><g><g transform="translate(-562 -686)"><g><g><g><g><g><use fill="#303392" xlink:href="#1ys1a"/></g></g></g></g></g><g><use fill="#303392" xlink:href="#1ys1b"/></g></g></g></svg>