<svg xmlns="http://www.w3.org/2000/svg" xmlns:xlink="http://www.w3.org/1999/xlink" width="31" height="38" viewBox="0 0 31 38"><defs><path id="niq1a" d="M317.157 208.831a3.88 3.88 0 0 0-3.876 3.876 3.88 3.88 0 0 0 3.876 3.875 3.88 3.88 0 0 0 3.876-3.875 3.88 3.88 0 0 0-3.876-3.876zm0 8.792a4.922 4.922 0 0 1-4.918-4.916 4.923 4.923 0 0 1 4.918-4.917 4.923 4.923 0 0 1 4.918 4.917 4.922 4.922 0 0 1-4.918 4.916z"/><path id="niq1b" d="M326.682 236.772a1.688 1.688 0 0 1-2.88 1.193 1.68 1.68 0 0 1-.49-1.157v-1.76h3.37zm-14.222 1.687v-1.646l.002-.04v-2.766h-.002v-7.262h-1.042v7.262h-3.376v-9.364c0-2.74 2.23-4.968 4.97-4.968h1.094a3.431 3.431 0 0 0 3.384 2.907 3.431 3.431 0 0 0 3.384-2.907h.844c2.74 0 4.97 2.229 4.97 4.968v9.364h-3.376v-7.262h-1.043v8.95l-.002 1.072.002.04v1.652zm-2.726 0a1.683 1.683 0 0 1-1.686-1.691l.003-1.72h3.367v1.765a1.687 1.687 0 0 1-1.684 1.646zm10.084-18.784a2.388 2.388 0 0 1-2.328 1.865 2.389 2.389 0 0 1-2.329-1.865zm7.912 4.968a6.018 6.018 0 0 0-6.012-6.01h-.8v-.002h-6.856v.003h-1.05a6.018 6.018 0 0 0-6.012 6.01V236.2h.007l-.001.567a2.71 2.71 0 0 0 .797 1.932c.516.518 1.202.801 1.931.801a2.71 2.71 0 0 0 1.684-.585v.585h11.894v-.583a2.714 2.714 0 0 0 1.684.583 2.73 2.73 0 0 0 2.728-2.728v-.572h.006z"/><path id="niq1c" d="M332.119 208.441h-3.908a.651.651 0 0 1 0-1.302h3.908v-3.908a.651.651 0 0 1 1.302 0v3.908h3.908a.651.651 0 0 1 0 1.302h-3.908v3.908a.651.651 0 0 1-1.302 0z"/></defs><g><g transform="translate(-307 -202)"><g><g><g><g><g><use fill="#f7941d" xlink:href="#niq1a"/></g></g></g></g></g><g><use fill="#f7941d" xlink:href="#niq1b"/></g></g><g transform="translate(-307 -202)"><use fill="#f7941d" xlink:href="#niq1c"/></g></g></svg>