<svg xmlns="http://www.w3.org/2000/svg" width="94" height="75" viewBox="0 0 94 75"><g><g><g><g><path fill="#f7941d" d="M51.17 13.237v.023c0 .749-.277 1.377-.785 1.825h-4.828a4.807 4.807 0 0 1-.836-.651l.725-.869c.78.758 1.783 1.15 2.675 1.15 1.026 0 1.783-.508 1.783-1.38 0-.033 0-.065-.004-.098z"/></g><g><g><g><g><g><path fill="#f7941d" d="M88.79 38.433h-5.144v-1.848h5.144a2.639 2.639 0 0 0 2.636-2.636 2.079 2.079 0 0 0-2.077-2.077c-1.18 0-2.11.932-2.11 2.077H85.39a3.929 3.929 0 0 1 3.925-3.925c2.198 0 3.959 1.76 3.959 3.925a4.489 4.489 0 0 1-4.484 4.484z"/></g></g></g></g></g><g><g><g><g><g><g><path fill="#f7941d" d="M55.79 15.085a8.715 8.715 0 0 1-2.384 2.938H42.485a8.617 8.617 0 0 1-2.398-2.938 8.776 8.776 0 0 1-.929-3.945c0-4.847 3.941-8.792 8.788-8.792 4.846 0 8.791 3.945 8.791 8.792a8.58 8.58 0 0 1-.258 2.097 8.38 8.38 0 0 1-.689 1.848zM47.946.5C42.083.5 37.31 5.272 37.31 11.14c0 .711.074 1.413.213 2.097.13.633.314 1.252.55 1.848a10.657 10.657 0 0 0 1.774 2.938c.522.62 1.113 1.179 1.774 1.668l.245.18h12.16l.244-.18a10.364 10.364 0 0 0 1.784-1.668 10.628 10.628 0 0 0 2.32-4.786c.137-.684.211-1.386.211-2.097C58.585 5.272 53.813.5 47.945.5z"/></g></g></g></g></g><g><g><g><g><g><g><path fill="#f7941d" d="M48.172 10.484c-1.16-.38-2-.698-2-1.566 0-.813.679-1.266 1.649-1.266.684 0 1.603.29 2.333.822l.698-.864c-.615-.48-1.525-.86-2.361-1.007V4.787h-.929v1.756c-1.695.078-2.638 1.104-2.638 2.449 0 1.653 1.386 2.13 2.901 2.614 1.239.388 2.024.712 2.075 1.631.004.033.004.065.004.097 0 .873-.757 1.382-1.783 1.382-.892 0-1.894-.393-2.675-1.15l-.725.868c.263.254.54.471.836.651a4.678 4.678 0 0 0 2.005.712v1.69h.929v-1.676c.794-.065 1.441-.32 1.894-.726.508-.448.785-1.076.785-1.825v-.023c-.014-1.76-1.303-2.217-2.998-2.753z"/></g></g></g></g></g></g></g><g><g><g><g><g><path fill="#f7941d" d="M37.754 19.871v-1.848h19.584v1.848z"/></g></g></g></g></g><g><path fill="#f7941d" d="M60.309 13.237h-3.83a8.383 8.383 0 0 1-.689 1.848h4.519c11.17 0 20.263 9.088 20.263 20.259v5.798c0 8.787-5.678 16.433-13.722 19.182v-6.639h-1.848v19.247h-9.138V58.227h-1.848V61.4H38.364v-3.174h-1.848v14.705h-9.139V53.685H25.53v6.551a20.405 20.405 0 0 1-12.192-11.993c-.009-.019-.836-2.093-1.178-5.128l-.092-.823H2.596V31.03h13.536V29.18h-3.118a19.766 19.766 0 0 1 1.626-3.742l.116-.213.004-10.22c0-.812.448-1.482 1.197-1.792a1.9 1.9 0 0 1 2.12.42l7.72 7.725 1.308-1.307-3.16-3.16a20.303 20.303 0 0 1 8.376-1.807h7.766a8.507 8.507 0 0 1-.68-1.848h-7.086c-3.387 0-6.75.781-9.767 2.264l-3.174-3.174c-1.104-1.104-2.684-1.418-4.13-.822-1.441.6-2.338 1.94-2.338 3.502v9.739a22.107 22.107 0 0 0-1.834 4.435H.748v14.96h9.683c.412 2.845 1.16 4.712 1.183 4.776 2.36 6.288 7.544 11.218 13.915 13.269V74.78h12.835V63.249h15.652V74.78H66.85V62.264c9.093-2.813 15.57-11.318 15.57-21.122v-5.798c0-12.192-9.92-22.107-22.111-22.107z"/></g></g><g><g><g><g><g><path fill="#f7941d" d="M24.563 33.932v-1.848h3.777v1.848z"/></g></g></g></g></g></g></g></svg>