<svg xmlns="http://www.w3.org/2000/svg" xmlns:xlink="http://www.w3.org/1999/xlink" width="14" height="14" viewBox="0 0 14 14"><defs><path id="jyb5a" d="M984.699 534.965a6.274 6.274 0 0 1-6.267-6.266 6.274 6.274 0 0 1 6.267-6.267 6.274 6.274 0 0 1 6.266 6.267 6.274 6.274 0 0 1-6.266 6.266zm0-13.055a6.796 6.796 0 0 0-6.789 6.789 6.796 6.796 0 0 0 6.789 6.788 6.796 6.796 0 0 0 6.788-6.788 6.796 6.796 0 0 0-6.788-6.789z"/><path id="jyb5b" d="M984.699 531.57a.26.26 0 0 0-.261.262v.522a.26.26 0 1 0 .522 0v-.522a.26.26 0 0 0-.261-.261z"/><path id="jyb5c" d="M984.728 524.26h-.03c-.552 0-1.072.213-1.466.602a2.074 2.074 0 0 0-.622 1.487.26.26 0 1 0 .522 0c0-.423.166-.819.467-1.116.3-.296.702-.46 1.122-.45.826.011 1.533.718 1.544 1.543a1.56 1.56 0 0 1-.718 1.34c-.695.448-1.11 1.24-1.11 2.118v.742a.26.26 0 1 0 .523 0v-.742c0-.69.333-1.333.87-1.679.61-.393.967-1.06.957-1.786a2.103 2.103 0 0 0-2.059-2.059z"/></defs><g><g transform="translate(-978 -522)"><g><use fill="#303392" xlink:href="#jyb5a"/></g><g><use fill="#303392" xlink:href="#jyb5b"/></g><g><use fill="#303392" xlink:href="#jyb5c"/></g></g></g></svg>