<svg xmlns="http://www.w3.org/2000/svg" width="27" height="28" viewBox="0 0 27 28"><g><g><g><g><g><g><g><path fill="#ffa700" d="M25.589 16.039c0 .302-.022.583-.065.863-.237 1.662-1.1 3.13-2.417 4.1a6.142 6.142 0 0 1-4.62 1.21c-3.064-.432-5.373-3.087-5.373-6.173 0-.28.021-.583.065-.864a6.232 6.232 0 0 1 7.036-5.309c3.064.432 5.374 3.086 5.374 6.173zm-13.339.021c0 3.518 2.634 6.54 6.108 7.015a7.072 7.072 0 0 0 5.267-1.36 6.982 6.982 0 0 0 2.762-4.683c.043-.324.065-.67.065-.993 0-3.518-2.633-6.54-6.13-7.015-3.863-.54-7.467 2.159-8.007 6.044-.043.323-.065.669-.065.992z"/></g></g></g></g></g><g><g><g><g><g><g><path fill="#ffa700" d="M17.139 14.582c0-.971.69-1.662 1.835-1.748V11.69h.647v1.165a3.346 3.346 0 0 1 1.942.928l-.496.605c-.54-.518-1.23-.799-1.834-.799-.713 0-1.23.346-1.23.95 0 .69.539.906 1.424 1.187 1.036.345 1.985.669 1.985 1.791 0 .928-.647 1.619-1.813 1.684v1.208h-.625v-1.251c-.583-.108-1.21-.367-1.62-.691l.476-.583c.496.367 1.144.561 1.597.561.669 0 1.122-.302 1.122-.863 0-.604-.583-.82-1.381-1.08-1.144-.388-2.029-.69-2.029-1.92z"/></g></g></g></g></g></g><g><g><g><g><g><path fill="#ffa700" d="M12.833 5.614H9.596v9.842c0 4.662 2.762 8.914 7.014 10.813l.497.216h-.928c-6.044 0-10.965-4.921-10.965-10.964V5.614H2.28L7.567 1.32zm-8.503.864v9.043c0 6.518 5.309 11.827 11.827 11.827h4.986l-4.187-1.878c-3.95-1.748-6.497-5.697-6.497-10.014V6.478h4.835L7.567.218l-7.748 6.26z"/></g></g></g></g></g></g></g></svg>