<svg xmlns="http://www.w3.org/2000/svg" width="25" height="24" viewBox="0 0 25 24"><g><g><g><g><g><g><g><path fill="#f7941d" d="M18.235 5.032v-2.4l3.492 4.323-3.492 4.322V8.625h-8.04a9.674 9.674 0 0 0-8.828 5.73l-.177.398v-.76c0-4.941 4.02-8.96 8.96-8.96zm-16.223 9.61a8.969 8.969 0 0 1 8.183-5.312h7.335v3.942l5.103-6.317L17.53.638v3.689h-7.38c-5.33 0-9.665 4.335-9.665 9.665v4.074z"/></g></g></g></g></g><g><g><g><g><g><path fill="#f7941d" d="M7.19 12.753v2.651h8.04c3.811 0 7.276-2.25 8.828-5.73l.177-.398v.76c0 4.942-4.019 8.96-8.96 8.96H7.192v2.4l-3.492-4.322zm.706 6.95h7.38c5.329 0 9.665-4.337 9.665-9.666V5.963l-1.527 3.424A8.969 8.969 0 0 1 15.23 14.7H7.896v-3.941l-5.104 6.316 5.104 6.317z"/></g></g></g></g></g></g></g></svg>