<svg xmlns="http://www.w3.org/2000/svg" width="50" height="49" viewBox="0 0 50 49"><g><g><g><g><g><g><g><path fill="#122b3c" d="M42.434 1.705a6.284 6.284 0 0 1 6.277 6.276v33.57a6.284 6.284 0 0 1-6.277 6.278H7.652a6.284 6.284 0 0 1-6.277-6.277V7.982a6.284 6.284 0 0 1 6.277-6.277zM50 41.552V7.982C50 3.81 46.606.415 42.434.415H7.652C3.48.416.086 3.81.086 7.98v33.57c0 4.173 3.394 7.567 7.566 7.567h34.782c4.172 0 7.566-3.394 7.566-7.566z"/></g></g></g></g></g><g><g><g><g><g><path fill="#122b3c" d="M41.462 41.557H8.121V8.345h33.341v6.639h-1.289v-5.35H9.41v30.634h30.763v-5.556h1.29z"/></g></g></g></g></g><g><g><g><g><g><path fill="#122b3c" d="M39.555 27.622h2.525v6.445h-2.525zm3.814-1.29h-5.103v9.024h5.103z"/></g></g></g></g></g><g><g><g><g><g><path fill="#122b3c" d="M39.555 15.628h2.525v6.446h-2.525zm3.814-1.289h-5.103v9.024h5.103z"/></g></g></g></g></g><g><g><g><g><g><path fill="#122b3c" d="M30.933 25.135c0 3.54-2.88 6.42-6.42 6.42s-6.42-2.88-6.42-6.42 2.88-6.42 6.42-6.42 6.42 2.88 6.42 6.42zm1.289 0c0-4.251-3.458-7.71-7.71-7.71-4.25 0-7.708 3.459-7.708 7.71 0 4.25 3.458 7.708 7.709 7.708 4.25 0 7.709-3.458 7.709-7.708z"/></g></g></g></g></g><g><g><g><g><g><path fill="#122b3c" d="M27.41 25.135a2.9 2.9 0 0 1-2.897 2.897 2.9 2.9 0 0 1-2.897-2.897 2.9 2.9 0 0 1 2.897-2.897 2.9 2.9 0 0 1 2.897 2.897zm1.289 0a4.19 4.19 0 0 0-4.186-4.186 4.19 4.19 0 0 0-4.186 4.186 4.19 4.19 0 0 0 4.186 4.186 4.19 4.19 0 0 0 4.186-4.186z"/></g></g></g></g></g><g><g><g><g><g><path fill="#122b3c" d="M23.868 32.199v-3.523h1.29V32.2z"/></g></g></g></g></g><g><g><g><g><g><path fill="#122b3c" d="M23.868 21.593V18.07h1.29v3.523z"/></g></g></g></g></g><g><g><g><g><g><path fill="#122b3c" d="M28.054 25.78v-1.29h3.523v1.29z"/></g></g></g></g></g><g><g><g><g><g><path fill="#122b3c" d="M17.449 25.78v-1.29h3.522v1.29z"/></g></g></g></g></g><g><g><g><g><g><path fill="#122b3c" d="M40.173 26.977v-4.259h1.29v4.259z"/></g></g></g></g></g></g></g></svg>