<svg xmlns="http://www.w3.org/2000/svg" width="19" height="19" viewBox="0 0 19 19"><g><g opacity=".63"><path d="M12.458 12.642c.062-.06.123-.122.184-.184.05-.053.106-.102.155-.156l4.996 4.996-.496.495-4.995-4.996c.054-.049.103-.104.156-.155zM.7 7.355A6.662 6.662 0 0 1 7.355.701a6.662 6.662 0 0 1 6.655 6.654 6.662 6.662 0 0 1-6.655 6.655A6.662 6.662 0 0 1 .701 7.355zm18.082 9.943l-5.545-5.546a7.307 7.307 0 0 0 1.473-4.397C14.71 3.3 11.41 0 7.355 0S0 3.3 0 7.355c0 4.056 3.3 7.356 7.355 7.356 1.65 0 3.169-.552 4.397-1.473l5.546 5.545z"/></g></g></svg>