<svg xmlns="http://www.w3.org/2000/svg" width="55.582" height="71.598" viewBox="0 0 55.582 71.598"><defs><style>.a{opacity:0.79;}.b{fill:#4454cc;}.c{fill:#2f3192;}.d{fill:#eeeeef;}.e{fill:#fffffe;}.f{fill:#9fc3fd;}.g{fill:#7789f2;}.h{fill:#4052f2;}.i{fill:#fff;opacity:0.74;}.j,.k{fill:none;stroke:#fff;stroke-linecap:round;stroke-linejoin:round;}.j{stroke-width:8px;}</style></defs><g transform="translate(-596.46 -392.098)"><g transform="translate(596.46 392.098)"><g class="a" transform="translate(0 0)"><path class="b" d="M3226.358,757.5l-16.23-2.888-16.232-2.888a1.814,1.814,0,0,0-2.1,1.47l-8.081,45.418a1.814,1.814,0,0,0,1.468,2.1l16.232,2.888,16.23,2.888a1.815,1.815,0,0,0,2.1-1.469l8.081-45.418A1.815,1.815,0,0,0,3226.358,757.5Z" transform="translate(-3183.682 -751.695)"/><path class="c" d="M3299.853,769.371l16.23,2.888a1.815,1.815,0,0,1,1.468,2.105l-8.081,45.418a1.814,1.814,0,0,1-2.1,1.469l-16.23-2.887Z" transform="translate(-3273.406 -766.455)"/><rect class="d" width="38.116" height="26.317" transform="translate(5.727 44.245) rotate(-79.912)"/><rect class="e" width="38.116" height="13.16" transform="translate(5.727 44.245) rotate(-79.912)"/><g transform="translate(8.217 12.749)"><g transform="translate(0 0)"><g transform="translate(4.61)"><rect class="f" width="1.362" height="22.983" transform="translate(0 1.341) rotate(-79.912)"/></g><g transform="translate(4.239 2.085)"><rect class="f" width="1.362" height="22.983" transform="translate(0 1.341) rotate(-79.912)"/></g><g transform="translate(3.868 4.17)"><rect class="f" width="1.361" height="17.006" transform="translate(0 1.34) rotate(-79.912)"/></g><g transform="translate(0.742 21.739)"><rect class="f" width="1.364" height="22.983" transform="translate(0 1.342) rotate(-79.912)"/></g><g transform="translate(0.371 23.824)"><rect class="f" width="1.362" height="22.983" transform="translate(0 1.341) rotate(-79.912)"/></g><g transform="translate(0 25.909)"><rect class="f" width="1.362" height="19.994" transform="translate(0 1.341) rotate(-79.912)"/></g><g transform="translate(2.477 11.987)"><rect class="f" width="1.362" height="22.983" transform="translate(0 1.341) rotate(-79.912)"/></g><g transform="translate(2.106 14.074)"><rect class="f" width="1.361" height="19.994" transform="translate(0 1.34) rotate(-79.912)"/></g></g></g></g><g transform="translate(12.486 20.553)"><path class="g" d="M3291.305,880.306,3286,910.126a2.22,2.22,0,0,1-2.576,1.8l-19.9-3.54c-.136-.176-.272-.359-.4-.54a19.835,19.835,0,0,1-3.733-12.7c.03-.558.081-1.113.16-1.665.039-.307.09-.611.146-.911.1-.549.223-1.091.369-1.628.082-.3.17-.6.266-.89q.258-.809.587-1.592a19.822,19.822,0,0,1,5.041-7.09,19.214,19.214,0,0,1,1.656-1.336l.069-.048c.349-.251.7-.486,1.059-.707l.008-.043.049.009a19.2,19.2,0,0,1,2.4-1.267,19.988,19.988,0,0,1,20.111,2.334Z" transform="translate(-3259.357 -876.268)"/><path class="h" d="M3312.577,880.306l-5.305,29.82a2.221,2.221,0,0,1-2.577,1.8l-19.863-3.534,5.188-29.157.049.009a19.219,19.219,0,0,1,2.4-1.267,19.989,19.989,0,0,1,20.111,2.334Z" transform="translate(-3280.629 -876.268)"/><path class="d" d="M3285.457,877.255l-4.874,27.4-20.646-3.673a19.864,19.864,0,0,1-.551-5.837c.03-.558.081-1.113.16-1.665.039-.307.09-.611.146-.911.1-.549.223-1.091.369-1.628.082-.3.17-.6.266-.89q.258-.809.587-1.592a19.822,19.822,0,0,1,5.041-7.09,19.214,19.214,0,0,1,1.656-1.336l.069-.048c.349-.251.7-.486,1.059-.707l.008-.043.049.009a19.2,19.2,0,0,1,2.4-1.267A19.93,19.93,0,0,1,3285.457,877.255Z" transform="translate(-3259.357 -876.268)"/><path class="e" d="M3268.74,894.483l-4.012,22.557-4.791-.852a19.866,19.866,0,0,1-.551-5.837c.03-.558.081-1.113.16-1.665.039-.306.09-.611.146-.911.1-.549.223-1.091.369-1.628.082-.3.17-.6.266-.89q.258-.809.587-1.592a19.823,19.823,0,0,1,5.041-7.09,19.225,19.225,0,0,1,1.656-1.336l.069-.048C3268.03,894.939,3268.381,894.7,3268.74,894.483Z" transform="translate(-3259.357 -891.478)"/><g transform="translate(0.029 1.704)"><g transform="translate(0.941 10.482)"><path class="f" d="M3285.722,953.668l-.292,1.645-20.191-3.592q.257-.809.587-1.592Z" transform="translate(-3265.239 -950.128)"/></g><g transform="translate(0.306 12.964)"><path class="f" d="M3282.056,968.783l-.292,1.642-20.372-3.625c.1-.549.222-1.09.369-1.628Z" transform="translate(-3261.392 -965.172)"/></g><g transform="translate(0 15.503)"><path class="f" d="M3276.452,983.542l-.292,1.642-16.625-2.958c.03-.558.081-1.113.16-1.665Z" transform="translate(-3259.534 -980.561)"/></g><g transform="translate(9.41)"><path class="f" d="M3330.708,888.685l-.292,1.642-13.845-2.463a19.2,19.2,0,0,1,2.4-1.267Z" transform="translate(-3316.571 -886.596)"/></g><g transform="translate(6.57 2.009)"><path class="f" d="M3312.276,900.763l-.291,1.638-12.633-2.248a19.249,19.249,0,0,1,1.656-1.336l.069-.048Z" transform="translate(-3299.352 -898.77)"/></g></g></g><circle class="i" cx="18.389" cy="18.389" r="18.389" transform="translate(13.951 22.064)"/><path class="c" d="M3267.613,880.026a19.921,19.921,0,0,0,21.152,33.667l9.065,12.558a2.554,2.554,0,0,0,4.141-2.99l-9.064-12.558a19.922,19.922,0,0,0-25.294-30.678Zm23.882,29.2a17.879,17.879,0,1,1,2.273-23.513A17.988,17.988,0,0,1,3291.5,909.228Z" transform="translate(-3246.873 -855.711)"/><path class="j" d="M3360.713,916.935s9.29-2.048,14.785,6.211" transform="translate(-3331.505 -889.484)"/><path class="k" d="M3335.776,924.276" transform="translate(-3310.682 -895.802)"/></g></g></svg>