<svg width="82" height="96" viewBox="0 0 82 96" fill="none" xmlns="http://www.w3.org/2000/svg">
<path d="M13.8764 10.4371C13.8764 4.91429 18.3536 0.437134 23.8764 0.437134H57.2472C62.77 0.437134 67.2472 4.91429 67.2472 10.4371V30.4337H13.8764V10.4371Z" fill="#FFBE1B"/>
<path d="M20.2809 11.865C20.2809 9.10356 22.5195 6.86499 25.2809 6.86499H55.8427C58.6041 6.86499 60.8427 9.10357 60.8427 11.865V30.4337H20.2809V11.865Z" fill="#FFE37B"/>
<rect y="34.719" width="81.1236" height="61.0643" rx="8" fill="#303392"/>
<rect x="4.26965" y="39.0042" width="72.5843" height="52.4939" rx="4" fill="#6857E5"/>
<ellipse cx="40.5618" cy="59.1208" rx="7.47191" ry="7.49913" fill="white"/>
<path d="M35.5805 64.1204H45.5431V75.9519C45.5431 78.161 43.7522 79.9519 41.5431 79.9519H39.5805C37.3714 79.9519 35.5805 78.161 35.5805 75.9519V64.1204Z" fill="white"/>
</svg>
