<svg xmlns="http://www.w3.org/2000/svg" width="76" height="130" viewBox="0 0 76 130"><g><g><g><g><path fill="#ffbc00" d="M33.332 130v-29.763h27.08V130z"/></g><g><path fill="#ffbc00" d="M43.51 85.207c8.763 6.517 11.865 17.174 6.937 23.8-4.926 6.625-16.024 6.707-24.782.182-8.766-6.52-11.874-17.174-6.946-23.8 4.93-6.625 16.03-6.704 24.79-.182z"/></g><g><path fill="#ffc10c" d="M1.64 51.724c.09 2.753 3.605 7.76 3.605 7.76l9.937-5.393-.218-9.369z"/></g><g><path fill="#ffbd00" d="M1.008 67.31c1.452 4.805 5.713 8.957 5.713 8.957l11.16-5.087v-8.402z"/></g><g><path fill="#ffbd00" d="M6.189 79.293c.109 3.306 3.285 5.276 4.19 7.764.903 2.494.989 6.852.989 6.852l6.513-4.153V78.032z"/></g><g><g><g><path fill="#2f3192" d="M16.457 0h49.682c.704 0 1.275.571 1.275 1.275v99.609c0 .705-.572 1.277-1.277 1.277h-49.68a1.275 1.275 0 0 1-1.275-1.276V1.275c0-.704.57-1.275 1.275-1.275z"/></g></g><g><g><path fill="#ffe8d0" d="M18.915 91.156V6.755h44.771v84.401z"/></g></g></g><g><path fill="#ffc00e" d="M22.901 43.472a4.667 4.667 0 0 0-4.67-4.666c-.779 0-1.508.211-2.158.552l-.012-.014s-7.581 4.158-10.695 5.96c-3.112 1.806-5.1 4.494-3.009 8.24 2.223 3.991 5.702 2.644 10.166-.158 4.461-2.8 8.725-6.344 8.725-6.344l-.017-.017c1.014-.856 1.67-2.118 1.67-3.553z"/></g><g><path fill="#ffbc00" d="M31.62 55.097a5.606 5.606 0 0 0-5.599-5.605c-1.017 0-1.952.291-2.776.762l-.012-.02S10.523 56.108 6.01 58.99c-4.514 2.879-7.07 4.855-4.111 10.304 2.955 5.446 6.316 4.014 11.662.435 4.78-3.202 13.563-8.73 15.383-9.878.097-.062.2-.111.291-.185.024-.009.065-.038.065-.038l-.006-.006a5.581 5.581 0 0 0 2.326-4.526z"/></g><g><g><path fill="#ffcdb4" d="M30.082 47.86s-1.861 1.982-2.764-2.74c-.976-5.056-.93-7.796.8-8.376 1.109-.367 1.423.574 1.423.574z"/></g><g><path fill="#ffbd00" d="M33.888 54.982v3.57c0 1.3.585 2.532 1.593 3.356l3.115 2.54a4.337 4.337 0 0 0 5.455.015l3.161-2.555a4.332 4.332 0 0 0 1.611-3.367v-3.9z"/></g><g><path fill="#f6af94" d="M33.888 57.611c2.005 2.23 4.528 3.435 7.319 3.435 2.929 0 5.564-1.323 7.61-3.767v-2.64l-14.93.343z"/></g><g><path fill="#ffbd00" d="M41.207 59.261c6.817 0 12.042-7.143 12.042-18.98 0-14.759-4.323-18.179-12.042-18.179-7.725 0-12.051 3.42-12.051 18.18 0 11.836 5.226 18.98 12.051 18.98z"/></g><g><path fill="#ffcdb4" d="M52.5 47.86s1.858 1.982 2.76-2.74c.971-5.056.936-7.796-.796-8.376-1.109-.367-1.426.574-1.426.574z"/></g><g><path fill="#6b51ef" d="M29.559 43.934c-5.123-2.461-8.805-25.322 9.734-25.322 5.055 0 7.146 2.308 7.146 2.308 3.917-3.532 17.661 4.855 6.393 21.547 0 0 1.114-7.787-3.073-11.06-2.97-2.33-3.465-3.99-3.465-3.99s-2.014 3.552-7.895 5.04c-5.855 1.49-7.4 5.284-8.84 11.477z"/></g><g><path fill="#ffbc00" fill-opacity=".36" d="M63.686 72.332v18.824h-44.77V71.818a4.352 4.352 0 0 1 1.574-1.791l9.613-6.22 9.26 1.147 1.826.22h.036l2.17-.273.03-.017 8.883-1.112 9.622 6.24a4.267 4.267 0 0 1 1.756 2.32z"/></g><g><path fill="#fff" d="M33.895 58.315h-.758l-3.04 5.485 7.261 7.148 3.86-5.767z"/></g><g><path fill="#fff" d="M48.512 58.3h.758l3.044 5.48-7.265 7.144-3.86-5.757z"/></g></g><g><path fill="#ffbc00" d="M31.62 70.768a5.186 5.186 0 0 0-5.187-5.187c-.753 0-1.465.161-2.106.453v-.006S12.782 72.065 9.824 73.62c-2.959 1.558-5.055 3.814-2.644 8.64 2.414 4.82 5.682 2.723 9.26.855 3.091-1.611 10.666-6.599 12.68-7.937.127-.07.248-.153.368-.238l.144-.1-.005-.018c1.205-.947 1.993-2.402 1.993-4.055z"/></g><g><path fill="#ffbc00" d="M30.27 87.839a3.835 3.835 0 0 0-5.928-3.217v-.003c-3.388 1.455-8.678 3.87-10.78 4.878-2.1 1.012-4.203 2.491-2.647 6.226 1.555 3.738 3.893 3.814 6.966 2.026 3.073-1.79 10.49-6.596 10.49-6.596l-.006-.009a3.83 3.83 0 0 0 1.906-3.305z"/></g><g><path fill="#ffcdb4" d="M75.352 56.444c0 4.25-3.406 7.693-6.064 7.693-2.667 0-4.826-3.444-4.826-7.693 0-4.243 2.159-7.69 4.826-7.69 2.658 0 6.064 3.447 6.064 7.69z"/></g><g><path fill="#ffe367" d="M20.478 41.3c1.958 2.76-1.923 5.078-4.729 7.072-1.4.015-3.905-3.247-3.508-4.943 3.873-2.75 6.634-4.385 8.237-2.13z"/></g><g><path fill="#ffe367" d="M28.968 52.689c1.888 3.161-2.53 5.343-5.743 7.266-1.518-.108-3.964-3.86-3.385-5.672 4.446-2.647 7.587-4.182 9.128-1.594z"/></g><g><path fill="#ffe367" d="M28.927 68.513c1.826 2.57-1.791 4.725-4.4 6.578-1.302.018-3.634-3.014-3.267-4.6 3.606-2.555 6.179-4.078 7.667-1.978z"/></g><g><path fill="#ffe367" d="M28.474 85.922c1.602 2.243-1.565 4.134-3.85 5.755-1.138.017-3.181-2.641-2.86-4.026 3.16-2.241 5.41-3.567 6.71-1.73z"/></g></g></g></g></svg>