<svg width="64" height="72" viewBox="0 0 64 72" fill="none" xmlns="http://www.w3.org/2000/svg">
<path d="M1 6.85861C1 3.62299 3.62299 1 6.85861 1H27.4344C30.67 1 33.293 3.62299 33.293 6.85861V51.4396C33.293 54.6752 30.67 57.2982 27.4344 57.2982H6.85861C3.62299 57.2982 1 54.6752 1 51.4396V6.85861Z" fill="#6857E5" stroke="#303392" stroke-width="2"/>
<mask id="path-2-inside-1" fill="white">
<path fill-rule="evenodd" clip-rule="evenodd" d="M27.4344 1.71465H6.85861C4.01768 1.71465 1.71465 4.01768 1.71465 6.85861V51.4396C1.71465 54.2805 4.01768 56.5835 6.85861 56.5835H27.4344C30.2754 56.5835 32.5784 54.2805 32.5784 51.4396V6.85861C32.5784 4.01768 30.2754 1.71465 27.4344 1.71465ZM6.85861 0C3.0707 0 0 3.0707 0 6.85861V51.4396C0 55.2275 3.0707 58.2982 6.85861 58.2982H27.4344C31.2223 58.2982 34.293 55.2275 34.293 51.4396V6.85861C34.293 3.0707 31.2223 0 27.4344 0H6.85861Z"/>
</mask>
<path fill-rule="evenodd" clip-rule="evenodd" d="M27.4344 1.71465H6.85861C4.01768 1.71465 1.71465 4.01768 1.71465 6.85861V51.4396C1.71465 54.2805 4.01768 56.5835 6.85861 56.5835H27.4344C30.2754 56.5835 32.5784 54.2805 32.5784 51.4396V6.85861C32.5784 4.01768 30.2754 1.71465 27.4344 1.71465ZM6.85861 0C3.0707 0 0 3.0707 0 6.85861V51.4396C0 55.2275 3.0707 58.2982 6.85861 58.2982H27.4344C31.2223 58.2982 34.293 55.2275 34.293 51.4396V6.85861C34.293 3.0707 31.2223 0 27.4344 0H6.85861Z" fill="#303392"/>
<path d="M6.85861 3.71465H27.4344V-0.285348H6.85861V3.71465ZM3.71465 6.85861C3.71465 5.12225 5.12225 3.71465 6.85861 3.71465V-0.285348C2.91311 -0.285348 -0.285348 2.91311 -0.285348 6.85861H3.71465ZM3.71465 51.4396V6.85861H-0.285348V51.4396H3.71465ZM6.85861 54.5835C5.12225 54.5835 3.71465 53.1759 3.71465 51.4396H-0.285348C-0.285348 55.3851 2.91311 58.5835 6.85861 58.5835V54.5835ZM27.4344 54.5835H6.85861V58.5835H27.4344V54.5835ZM30.5784 51.4396C30.5784 53.1759 29.1708 54.5835 27.4344 54.5835V58.5835C31.3799 58.5835 34.5784 55.3851 34.5784 51.4396H30.5784ZM30.5784 6.85861V51.4396H34.5784V6.85861H30.5784ZM27.4344 3.71465C29.1708 3.71465 30.5784 5.12225 30.5784 6.85861H34.5784C34.5784 2.91311 31.3799 -0.285348 27.4344 -0.285348V3.71465ZM2 6.85861C2 4.17527 4.17527 2 6.85861 2V-2C1.96613 -2 -2 1.96613 -2 6.85861H2ZM2 51.4396V6.85861H-2V51.4396H2ZM6.85861 56.2982C4.17527 56.2982 2 54.1229 2 51.4396H-2C-2 56.332 1.96613 60.2982 6.85861 60.2982V56.2982ZM27.4344 56.2982H6.85861V60.2982H27.4344V56.2982ZM32.293 51.4396C32.293 54.1229 30.1178 56.2982 27.4344 56.2982V60.2982C32.3269 60.2982 36.293 56.332 36.293 51.4396H32.293ZM32.293 6.85861V51.4396H36.293V6.85861H32.293ZM27.4344 2C30.1178 2 32.293 4.17527 32.293 6.85861H36.293C36.293 1.96613 32.3269 -2 27.4344 -2V2ZM6.85861 2H27.4344V-2H6.85861V2Z" fill="#303392" mask="url(#path-2-inside-1)"/>
<circle cx="23.5765" cy="9.00193" r="1.28599" fill="white"/>
<rect x="9.43042" y="7.71594" width="12.0026" height="2.57198" fill="white"/>
<rect x="5.14404" y="12.8599" width="24.0051" height="35.1504" fill="white"/>
<circle cx="17.5751" cy="51.8682" r="2.14331" fill="white"/>
<path d="M17.1464 36.0077C11.938 36.0077 7.71582 39.5771 7.71582 48.0103H26.577C26.577 39.5771 22.3548 36.0077 17.1464 36.0077Z" fill="#303392"/>
<path fill-rule="evenodd" clip-rule="evenodd" d="M17.1465 35.1504C20.461 35.1504 23.1478 32.4635 23.1478 29.1491C23.1478 25.8347 20.461 23.1478 17.1465 23.1478C13.8321 23.1478 11.1453 25.8347 11.1453 29.1491C11.1453 32.4635 13.8321 35.1504 17.1465 35.1504ZM20.5757 30.0064C20.5757 31.9004 19.0404 33.4357 17.1464 33.4357C15.2525 33.4357 13.7171 31.9004 13.7171 30.0064C13.7171 30.0064 14.9499 30.8637 17.1464 30.8637C19.343 30.8637 20.5757 30.0064 20.5757 30.0064ZM15.3834 27.8724C15.225 27.9111 15.0459 28.0682 14.9311 28.2403C14.7998 28.4373 14.5336 28.4905 14.3367 28.3592C14.1397 28.2278 14.0865 27.9617 14.2178 27.7647C14.3888 27.5082 14.724 27.1509 15.1801 27.0395C15.4226 26.9803 15.6909 26.994 15.9572 27.1216C16.2167 27.2459 16.4453 27.464 16.6458 27.7647C16.7771 27.9617 16.7239 28.2278 16.5269 28.3592C16.3299 28.4905 16.0638 28.4373 15.9324 28.2403C15.79 28.0266 15.6685 27.9339 15.5868 27.8948C15.512 27.859 15.448 27.8566 15.3834 27.8724ZM18.3604 28.2403C18.4751 28.0682 18.6543 27.9111 18.8127 27.8724C18.8773 27.8566 18.9413 27.859 19.0161 27.8948C19.0978 27.9339 19.2193 28.0266 19.3617 28.2403C19.493 28.4373 19.7592 28.4905 19.9562 28.3592C20.1531 28.2278 20.2064 27.9617 20.0751 27.7647C19.8746 27.464 19.6459 27.2459 19.3865 27.1216C19.1201 26.994 18.8519 26.9803 18.6093 27.0395C18.1533 27.1509 17.8181 27.5082 17.6471 27.7647C17.5157 27.9617 17.569 28.2278 17.766 28.3592C17.9629 28.4905 18.2291 28.4373 18.3604 28.2403Z" fill="#303392"/>
<path d="M30.2597 19.3627C41.4049 15.9334 47.4062 30.9366 51.6928 38.6525L38.8329 66.087C37.4612 65.4011 35.1178 65.2296 34.1176 65.2296C25.973 66.087 25.5443 65.2296 16.5424 61.8003C15.0032 61.214 14.1457 59.1555 14.1458 58.2982H27.4344C29.3844 58.1068 30.7233 57.4982 32.1497 56.1548C33.4276 54.9513 33.7996 54.2685 34.1177 52.5421V34.7946V29.2219C28.7205 26.1484 24.687 21.0774 30.2597 19.3627Z" fill="#FFE37B"/>
<rect x="52.2338" y="37.4097" width="11.98" height="32.5899" transform="rotate(25.1766 52.2338 37.4097)" fill="#FFBE1B"/>
<path d="M29.1487 19.8089C27.4342 20.5758 26.0624 21.8618 29.1487 25.2911V19.8089Z" fill="#FFE37B"/>
</svg>
