<?xml version="1.0" encoding="UTF-8" standalone="no"?>
<svg
   xmlns:dc="http://purl.org/dc/elements/1.1/"
   xmlns:cc="http://creativecommons.org/ns#"
   xmlns:rdf="http://www.w3.org/1999/02/22-rdf-syntax-ns#"
   xmlns:svg="http://www.w3.org/2000/svg"
   xmlns="http://www.w3.org/2000/svg"
   xmlns:xlink="http://www.w3.org/1999/xlink"
   id="svg58"
   version="1.1"
   viewBox="0 0 62 60"
   height="60"
   width="62">
  <metadata
     id="metadata62">
    <rdf:RDF>
      <cc:Work
         rdf:about="">
        <dc:format>image/svg+xml</dc:format>
        <dc:type
           rdf:resource="http://purl.org/dc/dcmitype/StillImage" />
        <dc:title></dc:title>
      </cc:Work>
    </rdf:RDF>
  </metadata>
  <defs
     id="defs12">
    <path
       d="M389.085 693.577l-1.97 1.991a3.41 3.41 0 0 0 1.967.622h.015c.707 0 1.386-.212 1.965-.612zm.002 3.9a4.673 4.673 0 0 1-2.882-.987 4.228 4.228 0 0 1-.485-.426l-.451-.444 3.821-3.868 3.811 3.86-.441.446a4.535 4.535 0 0 1-.492.432 4.674 4.674 0 0 1-2.881.987z"
       id="xf1oa" />
    <path
       d="M398.632 703.138a3.45 3.45 0 0 0 .001 3.936l1.987-1.966zm-.047 5.788l-.001-.002-.456-.447a4.132 4.132 0 0 1-.372-.419 4.738 4.738 0 0 1 .365-6.322l.45-.443 3.871 3.815-3.856 3.816z"
       id="xf1ob" />
    <path
       d="M404.427 727.352c-1.69 0-3.274.776-4.133 2.024-.887 1.29-.887 2.891 0 4.18.858 1.248 2.44 2.024 4.127 2.024l.137-.002h11.45v-8.225h-11.45a5.642 5.642 0 0 0-.131-.001zm13.042 9.482h-.002l-12.91-.002-.146.001c-2.212 0-4.279-1.014-5.398-2.646-1.151-1.678-1.151-3.763 0-5.44 1.118-1.633 3.183-2.647 5.389-2.647l.156.001h12.911v10.73z"
       id="xf1oc" />
    <path
       d="M402.442 730.393a2.147 2.147 0 1 1 4.294 0 2.147 2.147 0 0 1-4.294 0z"
       id="xf1od" />
    <path
       d="M388.781 693.535l2.09 1.953.965.9 5.585 5.213.965.904 2.09 1.953.061.054-7.025 6.56h1.906l1.349-1.26 5.675-5.3-4.1-3.83-5.518-5.153-4.043-3.777-4.037 3.77-16.649 15.55h1.909l18.777-17.537z"
       id="xf1oe" />
    <path
       d="M413.176 724.85v-5.862c-.004-4.37-3.592-7.912-8.02-7.916h-41.354v38.641h41.355c4.426-.004 8.013-3.543 8.019-7.912v-6.677H411.8v6.677c-.005 3.619-2.977 6.55-6.643 6.554h-39.98V712.44h39.98c3.667.006 6.638 2.939 6.643 6.558v5.862z"
       id="xf1of" />
    <path
       d="M391.672 711.072c.05-.438.05-.88 0-1.32-.306-2.915-2.6-5.12-5.331-5.12-2.73 0-5.025 2.205-5.331 5.12a6.326 6.326 0 0 0 0 1.32h1.227a4.872 4.872 0 0 1 0-1.32c.305-2.177 2.046-3.788 4.095-3.788s3.79 1.611 4.094 3.789c.063.437.063.882 0 1.32z"
       id="xf1og" />
    <path
       d="M391.295 717.513H370.242v2.146H402.442v-2.146h-9.216z"
       id="xf1oh" />
    <path
       d="M370.242 745.42v-2.147h32.2v2.147z"
       id="xf1oi" />
    <path
       d="M407.207 700.914v-7.828l-2.855 2.87-.933-.948 4.406-4.426 4.486 4.52-.936.94-2.855-2.87v7.742c0 4.23 3.41 7.658 7.618 7.658 4.207 0 7.618-3.428 7.618-7.658v-.761h1.323v.761c0 4.964-4.003 8.989-8.94 8.989-4.939 0-8.942-4.025-8.942-8.989z"
       id="xf1oj" />
  </defs>
  <use
     transform="translate(-363,-690)"
     xlink:href="#xf1oj"
     id="use50"
     style="fill:#f7941d"
     x="0"
     y="0"
     width="100%"
     height="100%" />
  <g
     style="fill:#f7941d;fill-opacity:1"
     transform="matrix(0.16849929,0,0,0.16849929,1.3711382,12.078934)"
     id="g162">
    <path
       style="fill:#f7941d;fill-opacity:1"
       d="M 138.75391,0.25 C 104.91797,0.226562 72.242188,12.585938 46.894531,34.996094 c -2.070312,1.828125 -2.265625,4.988281 -0.433593,7.058594 1.828124,2.070312 4.988281,2.261718 7.054687,0.433593 C 105.12891,-3.046875 183.42969,0.0859375 231.23828,49.597656 279.04687,99.105469 279.44141,177.46875 232.13281,227.45703 184.82031,277.44531 106.55469,281.36328 54.488281,236.35156 2.425781,191.33594 -5.007812,113.32422 37.617188,59.289062 c 1.710937,-2.167968 1.339843,-5.3125 -0.828126,-7.023437 -2.167968,-1.710937 -5.3125,-1.339844 -7.023437,0.828125 C 10.378906,77.515625 -0.117188,107.8125 0,138.99609 c 0,76.62891 62.121094,138.7461 138.74609,138.75 76.62891,0 138.75,-62.11718 138.75,-138.74609 C 277.5,62.371094 215.38281,0.25 138.75391,0.25 Z m 0,0"
       id="path145" />
    <path
       style="fill:#f7941d;fill-opacity:1"
       d="m 220.51172,207.07031 c 2.20312,1.66406 5.33984,1.23047 7.00781,-0.96875 C 263.13672,159.01562 255.80078,92.316406 210.80859,54.097656 165.8125,15.875 98.804688,19.425781 58.101562,62.1875 17.398438,104.94922 17.152344,172.04687 57.542969,215.10547 c 40.390625,43.05859 107.371091,47.09765 152.640621,9.20703 1.41407,-1.13281 2.10547,-2.94141 1.80469,-4.73047 -0.30078,-1.78516 -1.54297,-3.26953 -3.25,-3.87891 -1.70703,-0.60937 -3.60937,-0.24609 -4.97266,0.94532 -36.40234,30.48047 -89.08984,31.58203 -126.73437,2.65234 C 39.386719,190.37109 26.894531,139.17187 46.980469,96.15625 67.0625,53.136719 114.33984,29.84375 160.6875,40.128906 c 46.34766,10.289063 79.33203,51.390625 79.33203,98.867184 0.0742,22.05078 -7.12109,43.51563 -20.46484,61.07032 -1.66797,2.19921 -1.23828,5.33203 0.95703,7.0039 z m 0,0"
       id="path147" />
    <path
       style="fill:#f7941d;fill-opacity:1"
       d="m 137.32812,204.19531 c 2.76172,0 5,-2.23828 5,-5 v -9.75 H 151.25 c 15.26172,-0.0195 27.63281,-12.38672 27.65625,-27.64844 v -2.03906 c -0.0156,-9.67969 -5.08594,-18.64453 -13.37891,-23.63672 9.2461,-7.28906 12.85547,-19.63671 8.9961,-30.75781 -3.85938,-11.121092 -14.34375,-18.574218 -26.11719,-18.566405 h -6.07813 v -8 c 0,-2.761719 -2.23828,-5 -5,-5 -2.76171,0 -5,2.238281 -5,5 v 8 h -11.24999 v -8 c 0,-2.761719 -2.23829,-5 -5,-5 -2.76172,0 -5,2.238281 -5,5 v 8 h -7.47657 c -2.76172,0 -4.999998,2.238281 -4.999998,5 0,2.761719 2.238278,5 4.999998,5 h 7.47657 v 82.648435 h -7.47657 c -2.76172,0 -4.999998,2.23828 -4.999998,5 0,2.76172 2.238278,5 4.999998,5 h 7.47657 v 9.73828 c 0,2.76172 2.23828,5 5,5 2.76171,0 5,-2.23828 5,-5 v -9.73828 h 11.24999 v 9.73828 c -0.004,1.32813 0.52344,2.60547 1.46094,3.54297 0.9375,0.94141 2.21094,1.46875 3.53906,1.46875 z M 148.40625,96.804688 c 9.64453,0.144531 17.39062,8.007812 17.39062,17.652342 0,9.64844 -7.74609,17.51172 -17.39062,17.65625 H 121.07813 V 96.792969 Z M 121.07813,142.10156 H 151.25 c 9.74609,0.0117 17.64453,7.91016 17.65625,17.65625 v 2.03906 c -0.0117,9.7461 -7.91016,17.64454 -17.65625,17.65625 h -30.17187 z m 0,0"
       id="path149" />
  </g>
</svg>
