<svg xmlns="http://www.w3.org/2000/svg" width="77" height="73" viewBox="0 0 77 73"><g><g><g><g><g><g><g><g><g><path fill="#f7941d" d="M21.717 8.276a6.035 6.035 0 0 1-6.029 6.03 6.035 6.035 0 0 1-6.03-6.03 6.038 6.038 0 0 1 6.03-6.03 6.037 6.037 0 0 1 6.03 6.03zm1.622 0c0-4.218-3.432-7.652-7.65-7.652-4.22 0-7.652 3.434-7.652 7.652s3.432 7.652 7.651 7.652c4.22 0 7.651-3.434 7.651-7.652z"/></g></g></g></g></g><g><g><g><g><g><path fill="#f7941d" d="M15.373 22.45h.408l1.255 10.923-1.46 1.178-1.458-1.178zm3.376 11.624L17.227 20.83h-3.3l-1.522 13.245 3.172 2.562z"/></g></g></g></g></g><g><path fill="#f7941d" d="M30.508 45.714a2.625 2.625 0 0 1-4.48 1.856 2.606 2.606 0 0 1-.764-1.798v-1.8l.002-.939h5.242zM8.38 48.337v-2.562c0-.02.003-.039.003-.061v-4.303h-.003V30.112H6.76v11.299H1.507V26.847c0-4.266 3.469-7.734 7.731-7.734h2.193l2.845 3.338h2.584l3.067-3.338h2.858c4.263 0 7.732 3.468 7.732 7.734V41.41h-5.253V30.112h-1.622v13.854l-.002 1.743.002.063v2.565zm-4.242 0a2.614 2.614 0 0 1-2.623-2.624l.005-2.68H6.76v2.742a2.622 2.622 0 0 1-2.62 2.562zm13.586-29.224l-1.577 1.717h-1.124l-1.463-1.717zm14.413 7.734c0-5.16-4.196-9.356-9.353-9.356H9.238c-5.157 0-9.353 4.197-9.353 9.356v17.976h.011l-.002.886a4.206 4.206 0 0 0 1.241 3.004 4.224 4.224 0 0 0 5.624.335v.915h18.505v-.912a4.21 4.21 0 0 0 2.62.912 4.252 4.252 0 0 0 4.245-4.249v-.89h.01z"/></g></g><g><g><g><g><g><path fill="#f7941d" d="M66.256 30.523a6.037 6.037 0 0 1-6.03 6.03 6.037 6.037 0 0 1-6.03-6.03 6.037 6.037 0 0 1 6.03-6.029 6.037 6.037 0 0 1 6.03 6.03zm1.621 0c0-4.218-3.432-7.65-7.651-7.65-4.22 0-7.652 3.432-7.652 7.65 0 4.22 3.433 7.65 7.652 7.65s7.651-3.43 7.651-7.65z"/></g></g></g></g></g><g><path fill="#f7941d" d="M64.791 13.373l-3.721 3.723v-3.954c0-6.402-5.21-11.611-11.612-11.611H32.352v1.621h17.106c5.508 0 9.99 4.481 9.99 9.99v3.841l-3.72-3.722-1.148 1.147 5.734 5.737 5.624-5.624z"/></g></g><g><path fill="#f7941d" d="M75.045 67.966a2.626 2.626 0 0 1-4.48 1.853 2.605 2.605 0 0 1-.763-1.8V66.39l.002-1.108h5.241zM52.92 70.59V68.03c0-.022.003-.044.003-.064v-4.305h-.003V52.365h-1.622V63.66h-5.252V49.096c0-4.264 3.468-7.73 7.73-7.73h1.703c.393 2.553 2.602 4.52 5.266 4.52 2.665 0 4.872-1.967 5.265-4.52h1.314c4.263 0 7.731 3.466 7.731 7.73v14.565h-5.252V52.365H68.18v13.922l-.003 1.67.003.06v2.572zm-4.242 0a2.61 2.61 0 0 1-1.857-.77 2.605 2.605 0 0 1-.766-1.86l.004-2.677h5.239v2.748a2.623 2.623 0 0 1-2.62 2.559zm15.69-29.224a3.716 3.716 0 0 1-3.623 2.899 3.716 3.716 0 0 1-3.623-2.899zm12.309 7.73c0-5.155-4.196-9.352-9.353-9.352h-1.245v-.002H55.41v.002h-1.634c-5.157 0-9.353 4.197-9.353 9.353v17.98h.01v.882a4.219 4.219 0 0 0 1.24 3.007 4.214 4.214 0 0 0 3.004 1.245c.989 0 1.898-.34 2.62-.91v.91h18.505v-.908a4.206 4.206 0 0 0 2.62.908 4.249 4.249 0 0 0 4.245-4.244v-.89h.009z"/></g><g><g><g><g><g><path fill="#f7941d" d="M59.788 50.478a.961.961 0 1 1 1.922 0 .961.961 0 0 1-1.922 0z"/></g></g></g></g></g><g><g><g><g><g><path fill="#f7941d" d="M59.788 56.856a.961.961 0 1 1 1.922 0 .961.961 0 0 1-1.922 0z"/></g></g></g></g></g><g><g><g><g><g><path fill="#f7941d" d="M59.788 63.234a.961.961 0 1 1 1.922 0 .961.961 0 0 1-1.922 0z"/></g></g></g></g></g><g><g><text fill="#f7941d" style="font-kerning:normal" dominant-baseline="text-before-edge" font-family="'Mukta','Mukta-Light'" font-size="23" font-style="none" font-weight="lighter" transform="translate(38 -1)"><tspan>$</tspan></text></g></g></g></g></svg>