<svg xmlns="http://www.w3.org/2000/svg" xmlns:xlink="http://www.w3.org/1999/xlink" width="41" height="39" viewBox="0 0 41 39"><defs><path id="7iwza" d="M591.359 562.673a3.15 3.15 0 0 0-3.146 3.145 3.148 3.148 0 0 0 3.146 3.145 3.148 3.148 0 0 0 3.145-3.145 3.149 3.149 0 0 0-3.145-3.145zm0 7.136c-2.201 0-3.992-1.79-3.992-3.99 0-2.201 1.791-3.992 3.992-3.992 2.2 0 3.99 1.79 3.99 3.991s-1.79 3.991-3.99 3.991z"/><path id="7iwzb" d="M590.54 578.911l.76.615.762-.615-.655-5.698h-.213zm.76 1.702l-1.654-1.336.794-6.91h1.721l.795 6.91z"/><path id="7iwzc" d="M599.09 585.348a1.37 1.37 0 0 1-2.337.968 1.36 1.36 0 0 1-.399-.938v-.938l.001-.49h2.735zm-11.543 1.368v-1.337l.002-.03v-2.246h-.002v-5.894h-.846v5.894h-2.74v-7.598a4.037 4.037 0 0 1 4.033-4.033h1.144l1.484 1.74h1.348l1.6-1.74h1.491a4.037 4.037 0 0 1 4.033 4.033v7.598h-2.74v-5.894h-.846v7.227l-.001.91.001.032v1.338zm-2.213 0a1.364 1.364 0 0 1-1.368-1.37l.002-1.396h2.733v1.43a1.369 1.369 0 0 1-1.367 1.336zm7.088-15.244l-.823.896h-.586l-.764-.896zm7.518 4.033c0-2.69-2.189-4.88-4.879-4.88h-7.067a4.885 4.885 0 0 0-4.879 4.88v9.378h.006l-.001.462c-.001.592.229 1.15.647 1.568a2.201 2.201 0 0 0 2.934.174v.477h9.653v-.476c.389.307.865.476 1.367.476a2.218 2.218 0 0 0 2.214-2.216v-.465h.005z"/><path id="7iwzd" d="M614.592 574.28a3.149 3.149 0 0 0-3.145 3.144 3.149 3.149 0 0 0 3.145 3.145 3.149 3.149 0 0 0 3.146-3.145 3.149 3.149 0 0 0-3.146-3.145zm0 7.135a3.995 3.995 0 0 1-3.991-3.99c0-2.202 1.79-3.992 3.991-3.992s3.992 1.79 3.992 3.991-1.79 3.99-3.992 3.99z"/><path id="7iwze" d="M616.974 568.478l-1.942 1.941v-2.062a6.064 6.064 0 0 0-6.057-6.057h-8.923v.846h8.923a5.217 5.217 0 0 1 5.211 5.21v2.005l-1.94-1.941-.6.597 2.992 2.993 2.934-2.933z"/><path id="7iwzf" d="M622.323 596.956a1.37 1.37 0 0 1-2.337.967 1.36 1.36 0 0 1-.399-.938v-.85l.001-.579h2.735zm-11.543 1.369v-1.335l.002-.034v-2.245h-.002v-5.893h-.846v5.893h-2.74v-7.598a4.037 4.037 0 0 1 4.033-4.033h.889a2.785 2.785 0 0 0 2.746 2.359 2.785 2.785 0 0 0 2.747-2.36h.685a4.037 4.037 0 0 1 4.033 4.034v7.598h-2.74v-5.893h-.846v7.263l-.001.872.001.03v1.342zm-2.213 0a1.36 1.36 0 0 1-.968-.402 1.361 1.361 0 0 1-.4-.97l.002-1.397h2.733v1.434a1.369 1.369 0 0 1-1.367 1.335zm8.185-15.245a1.939 1.939 0 0 1-1.89 1.512 1.939 1.939 0 0 1-1.89-1.512zm6.421 4.033a4.884 4.884 0 0 0-4.879-4.88h-7.067a4.884 4.884 0 0 0-4.878 4.88v9.379h.005v.46a2.2 2.2 0 0 0 .646 1.569 2.2 2.2 0 0 0 1.567.648 2.2 2.2 0 0 0 1.367-.473v.473h9.653v-.472a2.216 2.216 0 0 0 3.581-1.741v-.464h.005z"/><path id="7iwzg" d="M614.364 587.833a.501.501 0 1 1 1.002 0 .501.501 0 0 1-1.002 0z"/><path id="7iwzh" d="M614.364 591.16a.501.501 0 1 1 1.002 0 .501.501 0 0 1-1.002 0z"/><path id="7iwzi" d="M614.364 594.488a.501.501 0 1 1 1.002 0 .501.501 0 0 1-1.002 0z"/></defs><g><g transform="translate(-583 -561)"><g><g><g><g><g><g><g><use fill="#fff" xlink:href="#7iwza"/></g></g></g></g></g><g><g><g><g><g><use fill="#fff" xlink:href="#7iwzb"/></g></g></g></g></g><g><use fill="#fff" xlink:href="#7iwzc"/></g></g><g><g><g><g><g><use fill="#fff" xlink:href="#7iwzd"/></g></g></g></g></g><g><use fill="#fff" xlink:href="#7iwze"/></g></g><g><use fill="#fff" xlink:href="#7iwzf"/></g><g><g><g><g><g><use fill="#fff" xlink:href="#7iwzg"/></g></g></g></g></g><g><g><g><g><g><use fill="#fff" xlink:href="#7iwzh"/></g></g></g></g></g><g><g><g><g><g><use fill="#fff" xlink:href="#7iwzi"/></g></g></g></g></g><g><g><text fill="#fff" style="font-kerning:normal" dominant-baseline="text-before-edge" font-family="'Mukta','Mukta-Light'" font-size="9" font-style="none" font-weight="lighter" transform="translate(602 560)"><tspan>$</tspan></text></g></g></g></g></svg>