<svg xmlns="http://www.w3.org/2000/svg" width="28" height="27" viewBox="0 0 28 27"><g><g><g><g><g><g><g><path fill="#4bc300" d="M11.88 26.237c-.302 0-.583-.022-.863-.065-1.662-.237-3.13-1.1-4.101-2.417a6.142 6.142 0 0 1-1.209-4.619c.432-3.065 3.087-5.374 6.173-5.374.28 0 .583.021.863.065a6.232 6.232 0 0 1 5.31 7.036c-.432 3.064-3.087 5.374-6.173 5.374zm-.022-13.339c-3.518 0-6.54 2.634-7.014 6.108a7.072 7.072 0 0 0 1.36 5.267 6.982 6.982 0 0 0 4.683 2.762c.324.043.67.065.993.065 3.518 0 6.54-2.633 7.014-6.13.54-3.863-2.158-7.467-6.043-8.007a7.667 7.667 0 0 0-.993-.065z"/></g></g></g></g></g><g><g><g><g><g><g><path fill="#4bc300" d="M9.657 18.532c0-.972.69-1.662 1.834-1.749V15.64h.648v1.165a3.346 3.346 0 0 1 1.942.928l-.496.604c-.54-.518-1.23-.798-1.835-.798-.712 0-1.23.345-1.23.95 0 .69.54.906 1.425 1.187 1.036.345 1.985.669 1.985 1.79 0 .929-.647 1.62-1.813 1.684v1.209h-.626v-1.252c-.582-.108-1.208-.367-1.618-.69l.475-.583c.496.367 1.143.561 1.597.561.669 0 1.122-.302 1.122-.863 0-.605-.583-.82-1.381-1.08-1.144-.388-2.03-.69-2.03-1.92z"/></g></g></g></g></g></g><g><g><g><g><g><path fill="#4bc300" d="M22.304 13.481v-3.237h-9.841A11.872 11.872 0 0 0 1.65 17.258l-.216.497v-.928c0-6.044 4.92-10.965 10.964-10.965h9.906V2.927L26.6 8.215zm-.863-8.503h-9.043C5.88 4.978.57 10.287.57 16.805v4.986l1.877-4.187c1.748-3.95 5.698-6.497 10.015-6.497h8.978v4.835l6.26-7.727L21.44.467z"/></g></g></g></g></g></g></g></svg>