<svg xmlns="http://www.w3.org/2000/svg" width="98" height="99" viewBox="0 0 98 99"><g><g><g><g><path fill="#303392" d="M48.285 98.896H6.772A6.77 6.77 0 0 1 0 92.126V6.769A6.77 6.77 0 0 1 6.772 0h41.513a6.77 6.77 0 0 1 6.77 6.769v85.357c0 3.74-3.03 6.77-6.77 6.77"/></g><g><path fill="#303392" d="M33.052 95.952H22.003a1.906 1.906 0 0 1-1.908-1.904v-3.854c0-1.052.853-1.907 1.908-1.907h11.049c1.053 0 1.906.855 1.906 1.907v3.854c0 1.05-.853 1.904-1.906 1.904"/></g><g><path fill="#303392" d="M33.909 4.71H21.143a.668.668 0 0 1-.668-.667V2.686c0-.37.3-.67.668-.67h12.766c.373 0 .672.3.672.67v1.357a.67.67 0 0 1-.672.668"/></g><g><path fill="#ffbe1b" d="M44.393 86.168h-33.73a6.773 6.773 0 0 1-6.771-6.772v-65.73a6.77 6.77 0 0 1 6.772-6.77h33.73a6.77 6.77 0 0 1 6.771 6.77v65.73a6.773 6.773 0 0 1-6.772 6.772"/></g></g></g><g><g><g><path fill="#6857e5" d="M83.009 89.868l-39.074-6.189L56.058 7.135l39.074 6.189z"/></g><g><path fill="#330d84" d="M71.738 34.582c7.687 1.218 12.931 8.436 11.714 16.124-1.218 7.687-8.436 12.932-16.123 11.714-7.686-1.217-12.932-8.436-11.715-16.123 1.218-7.688 8.438-12.932 16.124-11.715z"/></g><g><path fill="#303392" d="M91.872 24.86l-8.4 53.028a12.891 12.891 0 0 0-12.196 8.859l-15.22-2.41a12.892 12.892 0 0 0-8.86-12.195l8.399-53.027c5.537-.012 10.472-3.602 12.195-8.86l15.22 2.41a12.893 12.893 0 0 0 8.862 12.195zM52.817 10.275L41.823 79.691a6.495 6.495 0 0 0 5.392 7.42l31.61 5.007a6.493 6.493 0 0 0 7.42-5.391L97.24 17.31a6.493 6.493 0 0 0-5.391-7.42l-31.61-5.007a6.495 6.495 0 0 0-7.422 5.391z"/></g><g><g><path fill="#fff" d="M75.258 48.39l-4.255-.675c.434-.9.84-1.497 1.217-1.792.376-.295.843-.4 1.396-.313.55.087.972.38 1.265.879.294.498.419 1.132.377 1.9zm-11.896-.332l4.091.648c-.423.839-.812 1.39-1.172 1.657-.357.267-.8.357-1.327.274a1.718 1.718 0 0 1-1.228-.814c-.292-.457-.413-1.046-.364-1.765zm16.127 1.001l-1.702-.27c.178-1.618-.09-2.985-.803-4.1-.71-1.115-1.757-1.783-3.137-2.001-1.379-.219-2.498.041-3.36.777-.857.737-1.643 1.979-2.357 3.724l-.011.07-4.445-.705a7.759 7.759 0 0 1 1.906-3.164l-1.933-1.88c-1.297 1.378-2.148 2.924-2.552 4.636l-1.203-.19-.24 1.515 1.181.187c-.163 1.54.115 2.855.829 3.947.716 1.091 1.755 1.743 3.12 1.96 1.364.215 2.457-.034 3.28-.752.826-.719 1.591-1.934 2.3-3.646l4.584.726c-.443 1.367-1.343 2.622-2.704 3.764l1.784 2.05c1.769-1.48 2.936-3.283 3.5-5.405l1.723.273z"/></g></g></g></g></g></svg>