<svg xmlns="http://www.w3.org/2000/svg" width="112" height="102" viewBox="0 0 112 102"><g><g><g><g><g><path fill="#ffbe1b" d="M63.067 33.523c0 16.33-13.243 29.568-29.575 29.568-16.33 0-29.572-13.238-29.572-29.568C3.92 17.188 17.162 3.95 33.492 3.95c16.332 0 29.575 13.238 29.575 29.573z"/></g><g><path fill="#ffe37b" d="M55.689 33.523c0 12.256-9.94 22.196-22.197 22.196-12.26 0-22.2-9.94-22.2-22.196 0-12.261 9.94-22.2 22.2-22.2 12.258 0 22.197 9.939 22.197 22.2z"/></g></g><g><g><text fill="#fff" style="line-height:31px;font-kerning:normal" dominant-baseline="text-before-edge" font-family="'Mukta','Mukta-Medium'" font-size="31" transform="translate(25 8)"><tspan>€</tspan></text></g></g></g><g><g><g><path fill="#ffbe1b" d="M103.78 69.13c0 16.332-13.241 29.57-29.571 29.57-16.332 0-29.575-13.238-29.575-29.57 0-16.334 13.243-29.572 29.575-29.572 16.33 0 29.571 13.238 29.571 29.572z"/></g><g><path fill="#ffe37b" d="M96.404 69.13c0 12.258-9.939 22.197-22.195 22.197-12.262 0-22.2-9.939-22.2-22.197 0-12.26 9.938-22.199 22.2-22.199 12.256 0 22.195 9.94 22.195 22.199z"/></g><g><g><path fill="#fff" d="M75.175 75.93v-5.721c1.271.38 2.142.79 2.609 1.222.467.435.698 1.023.698 1.766 0 .742-.297 1.358-.888 1.844-.594.489-1.399.786-2.42.888zM73.14 60.255v5.5c-1.185-.381-1.993-.778-2.414-1.193-.425-.41-.637-.973-.637-1.686 0-.707.27-1.302.809-1.778.543-.477 1.29-.757 2.242-.843zm2.035 21.367v-2.29c2.163-.103 3.9-.74 5.218-1.907 1.312-1.164 1.968-2.675 1.968-4.53 0-1.856-.573-3.27-1.717-4.245-1.143-.975-2.936-1.748-5.372-2.321h-.097v-5.977c1.634.23 3.148.845 4.547 1.843l2.066-2.926c-2.076-1.42-4.28-2.214-6.613-2.382v-1.624H73.14v1.588c-2.055.108-3.723.743-5.005 1.91-1.286 1.165-1.925 2.665-1.925 4.499 0 1.834.556 3.216 1.668 4.15 1.113.932 2.867 1.685 5.262 2.255v6.171c-1.885-.298-3.721-1.22-5.499-2.768l-2.322 2.768c2.311 2.013 4.919 3.168 7.821 3.464v2.322z"/></g></g></g></g><g><g><path fill="#3b3f96" d="M106.057 28.638a1.823 1.823 0 0 0-2.448.808l-3.425 6.796c-2.632-9.753-8.29-18.562-16.151-25.05A49.103 49.103 0 0 0 52.857 0a1.822 1.822 0 0 0 0 3.646c20.639 0 38.718 14.096 43.887 33.843l-7.282-3.548a1.82 1.82 0 0 0-2.436.838 1.82 1.82 0 0 0 .838 2.437l11.156 5.438a1.818 1.818 0 0 0 2.425-.815l5.417-10.751a1.824 1.824 0 0 0-.805-2.45z"/></g><g><path fill="#6857e5" d="M1.003 73.26a1.824 1.824 0 0 0 2.447-.81l3.424-6.794c2.632 9.752 8.294 18.562 16.153 25.047A49.083 49.083 0 0 0 54.2 101.896a1.825 1.825 0 0 0 1.825-1.823A1.825 1.825 0 0 0 54.2 98.25c-20.637 0-38.713-14.094-43.885-33.844l7.282 3.55a1.822 1.822 0 1 0 1.6-3.274L8.037 59.24a1.823 1.823 0 0 0-2.425.819L.195 70.81a1.827 1.827 0 0 0 .808 2.45z"/></g></g></g><g><g><path fill="#330d84" d="M108.716 51.29H94.281A3.28 3.28 0 0 0 91 54.57v7.826a3.283 3.283 0 0 0 3.28 3.283h2.375v4.428l4.504-4.428h7.557A3.286 3.286 0 0 0 112 62.396V54.57a3.284 3.284 0 0 0-3.283-3.28z"/></g><g><path fill="#8ac9f9" d="M100.368 62.972a1.36 1.36 0 0 1-.95-.388l-2.824-2.728a1.37 1.37 0 0 1 1.903-1.968l1.768 1.707 4.327-5.143a1.366 1.366 0 0 1 1.928-.165c.581.485.653 1.348.166 1.93l-5.269 6.266a1.376 1.376 0 0 1-.979.486c-.023.003-.044.003-.07.003z"/></g></g></g></svg>