<svg xmlns="http://www.w3.org/2000/svg" width="92" height="99" viewBox="0 0 92 99"><g><g><g><g><path fill="#330d84" d="M42.295 3.259L7.097 19.71c-2.99 1.399-4.83 4.588-4.613 7.998.612 9.578 2.933 29.207 11.72 43.851 11.08 18.473 24.842 23.308 29.656 24.478 1.165.28 2.366.28 3.528 0 4.817-1.17 18.578-6.005 29.659-24.478 8.786-14.644 11.104-34.277 11.718-43.85.217-3.41-1.621-6.6-4.615-8L48.956 3.26a7.834 7.834 0 0 0-6.661 0"/></g><g><path fill="#6857e5" d="M45.624 5.037c.785 0 1.547.17 2.264.506l35.195 16.453c2.041.955 3.314 3.188 3.164 5.55-.634 9.94-2.958 28.705-11.363 42.716-10.46 17.432-23.13 22.12-28.088 23.324a5.009 5.009 0 0 1-2.338 0c-4.963-1.204-17.636-5.892-28.093-23.324C7.958 56.248 5.638 37.482 5 27.549c-.15-2.365 1.12-4.598 3.164-5.553L43.363 5.543a5.283 5.283 0 0 1 2.261-.506zm0 93.734c.791 0 1.586-.097 2.36-.283 5.576-1.355 19.786-6.564 31.226-25.63C88.165 57.932 90.617 38.265 91.28 27.87c.28-4.422-2.156-8.615-6.063-10.444L50.024.976a10.395 10.395 0 0 0-8.797 0L6.03 17.426C2.122 19.255-.314 23.448-.03 27.87c.663 10.394 3.113 30.06 12.072 44.989C23.477 91.924 37.687 97.133 43.269 98.49c.772.183 1.565.28 2.355.28z"/></g></g><g><g><path fill="#ffbe1b" d="M70.623 50.63c-7.42 0-13.457 6.035-13.457 13.456v10.985a2.48 2.48 0 0 0 2.48 2.48 2.48 2.48 0 0 0 2.476-2.48V64.086c0-4.688 3.814-8.5 8.501-8.5 4.685 0 8.5 3.812 8.5 8.5v10.908a2.482 2.482 0 0 0 2.478 2.479 2.481 2.481 0 0 0 2.476-2.479V64.086c0-7.421-6.036-13.457-13.454-13.457z"/></g><g><path fill="#ffbe1b" d="M85.813 98.877H55.436a3.076 3.076 0 0 1-3.077-3.075v-19.94a3.074 3.074 0 0 1 3.077-3.073h30.377a3.073 3.073 0 0 1 3.073 3.073v19.94a3.074 3.074 0 0 1-3.073 3.075"/></g></g><g><path fill="#fff" d="M41.178 59.895a5.17 5.17 0 0 1-3.591-1.455L26.933 48.136a5.166 5.166 0 0 1-.12-7.306 5.165 5.165 0 0 1 7.307-.12l6.67 6.45 16.324-19.41a5.168 5.168 0 0 1 7.908 6.653l-19.888 23.65a5.176 5.176 0 0 1-3.956 1.842z"/></g></g></g></svg>