<svg xmlns="http://www.w3.org/2000/svg" width="166" height="85" viewBox="0 0 166 85"><g><g><g><path fill="#ffac5e" d="M54.758 78.1l.092-4.13c-1.216-1.27-1.078-3.384.308-4.75l2.456-2.42c1.665-1.594 4.18-1.667 5.62-.164 1.438 1.503 1.254 4.014-.41 5.607l-1.932 2.734c-.845 1.616-2.314 4.224-6.134 3.122z"/></g><g><path fill="#ffac5e" d="M73.182 83.734l-3.385-1.287a1.945 1.945 0 0 1-.394-2.687l2.93-4.04a3.582 3.582 0 1 1 5.693 4.35L75.548 83.1a2.094 2.094 0 0 1-2.366.633z"/></g><g><path fill="#ffac5e" d="M63.537 81.735l-.368-3.054c-1.215-1.27-1.078-3.384.309-4.751l2.455-2.42c1.665-1.593 4.181-1.666 5.62-.163 1.438 1.503 1.255 4.014-.41 5.607l-1.876 3.312c-1.419 1.399-3.343 2.755-5.73 1.47z"/></g><g><path fill="#ffac5e" d="M46.86 71.965l-.054-2.843c-1.216-1.27-1.078-3.385.308-4.751l2.456-2.42c1.665-1.593 4.18-1.667 5.62-.163 1.437 1.503 1.254 4.013-.41 5.607l-2.19 2.366c-.622 1.534-4.485 3.504-5.73 2.204z"/></g><g><path fill="#ffbe1b" d="M54.165 21.754l16.981-4.368s5.883-3.293 10.936 1.227c0 0-6.57 11.58 3.525 14.977 0 0 9.526 5.91 14.275 11.342 2.387 2.733 7.628 7.518 10.074 10.155.657.707 2.042 1.815 2.688 2.832.897 1.412 2.567 4.455-1.019 6.75 0 0-2.483 2.268-6.478-.953-3.712-2.993-9.572-9.23-13.488-12.449-.146-.12-.634-.579-.918-.233-.086.104-.062.414.45.95 1.766 1.845 9.358 9.3 9.358 9.3s2.892 2.601 3.504 3.814c.537 1.063 1.284 3.343-.907 5.44 0 0-3.14 3.209-7.398-.193l-11.793-10.81s-.805-.811-1.098-.5c-.202.217.045.653.572 1.113 0 0 11.931 10.988 12.209 12.191.792 3.429-2.073 7.35-7.056 4.653l-12.45-9.097s-.345-.283-.602.066c-.147.2.018.432.31.631 0 0 11.677 8.162 12.377 8.9.915.963-2.06 4.587-6.996 2.362-7.04-3.172-21.331-9.088-28.144-12.724-2.398-1.279-7.247-4.499-9.089-5.957 0 0-7.362-6.043-18.289-7.635l12.108-30.636s10.973 1.061 16.358-1.148z"/></g><g><path fill="#fff" d="M38.966 33.975a129.97 129.97 0 0 0 1.358-18.018l-18.657-3.162-9.157 40.242 20.814 4.266a130.265 130.265 0 0 0 5.642-23.328z"/></g><g><path fill="#ffe37b" d="M89.998 18.507s-6.504-2.991-12.34 1.556l-9.356 4.221s-3.86.76-5.63 5.571L57.69 37.56s-3.532 4.736 4.23 5.538a4.84 4.84 0 0 0 2.62-.468c1.981-.968 5.839-3.423 9.549-9.027l.108-1.094s.431 1.421 3.57 1.268c0 0 3.308-.696 7.876-1.595 0 0 .602.956 4.523 3.8 0 0 9.617 6.689 11.648 9.864l11.152 10.947s2.011-.523 7.713-7.332l11.11-2.438-7.312-28.684s-17.824 1.35-22.874 1.217z"/></g><g><g><path fill="#ffe37b" d="M45.346 71.676a4.642 4.642 0 0 1-1.466-6.46l1.094-1.702a4.643 4.643 0 1 1 7.9 4.881l-1.183 1.842a4.643 4.643 0 0 1-6.345 1.44z"/></g><g><path fill="#ffe37b" d="M53.236 77.611l-.21-.13a4.518 4.518 0 0 1-1.506-6.16l3.868-6.485a4.643 4.643 0 1 1 7.9 4.881l-3.796 6.364a4.52 4.52 0 0 1-6.256 1.53z"/></g><g><path fill="#ffe37b" d="M62.926 81.542l-1.279-.79a3.89 3.89 0 0 1-1.317-5.267l2.992-5.14a4.643 4.643 0 1 1 7.9 4.881l-2.888 4.964a3.891 3.891 0 0 1-5.408 1.352z"/></g><g><path fill="#ffe37b" d="M70.997 84.528l-1.12-.692a2.924 2.924 0 0 1-.978-3.978l2.363-3.985a3.583 3.583 0 0 1 6.095 3.766l-2.31 3.893a2.923 2.923 0 0 1-4.05.996z"/></g></g><g><path fill="#6857e5" d="M34.793 12.844L9.006 7.792.316 57.135l26.105 5.106z"/></g><g><g><path fill="#8ac9f9" d="M121.826 13.598l5.809 38.028 16.786-2.083-6.33-38.577z"/></g><g><path fill="#381499" d="M127.787 6.06l32.12-5.435 6.14 49.798-32.12 5.435z"/></g></g></g></g></svg>