<svg xmlns="http://www.w3.org/2000/svg" width="34" height="32" viewBox="0 0 34 32"><g><g><g><g><g><g><path fill="#f7941d" d="M1.177 6.993V1.246h20.776v5.747zM.431.5v28.33h13.611l.226-.746H1.178V7.74h20.775V19l.746.427V.5z"/></g></g></g></g><g><g><g><g><path fill="#f7941d" d="M4.234 14.694v-.747h14.954v.747z"/></g></g></g></g><g><g><g><g><path fill="#f7941d" d="M4.234 11v-.747h14.954V11z"/></g></g></g></g><g><g><g><g><path fill="#f7941d" d="M4.234 18.331v-.746h7.477v.746z"/></g></g></g></g><g><g><g><g><path fill="#f7941d" d="M4.186 21.969v-.746h5.082v.746z"/></g></g></g></g><g><g><g><g><path fill="#f7941d" d="M4.186 25.607v-.746h3.965v.746z"/></g></g></g></g><g><g><g><path fill="#f7941d" d="M20.651 25.794a2.677 2.677 0 0 1-2.32 1.345 2.67 2.67 0 0 1-2.315-3.992 2.677 2.677 0 0 1 2.32-1.345c.461 0 .918.121 1.32.352a2.644 2.644 0 0 1 1.25 1.614 2.651 2.651 0 0 1-.255 2.026zm-.625-4.289a3.41 3.41 0 0 0-4.657 1.272 3.42 3.42 0 0 0 1.272 4.658c.515.293 1.1.45 1.69.45 1.225 0 2.361-.66 2.967-1.722a3.394 3.394 0 0 0 .329-2.593 3.396 3.396 0 0 0-1.6-2.065z"/></g><g><path fill="#f7941d" d="M22.994 26.366c-.086.211-.185.413-.291.6l-.004.005c-.087.156-.188.31-.294.459l-.11.15.39 1.25.178.573-2.447 1.433-1.31-1.39-.186.02c-.371.045-.75.047-1.12.008l-.186-.019-1.294 1.403-2.464-1.406.186-.622.226-.746.138-.46-.11-.152a4.91 4.91 0 0 1-.515-.861l-.08-.17-1.873-.379-.076-2.837 1.85-.476.071-.173a5.11 5.11 0 0 1 .591-1.065l.108-.151-.57-1.823 2.449-1.432 1.311 1.39.187-.023a5.092 5.092 0 0 1 1.117-.005l.187.02 1.294-1.405 1.606.916.746.427.112.064-.112.373-.438 1.457.112.149c.12.16.23.33.326.506.067.115.129.233.187.354l.08.17 1.873.38.076 2.835-1.85.48zm.356.97c.094-.164.181-.336.26-.515l2.066-.533-.106-4.023-2.093-.424a5.76 5.76 0 0 0-.395-.664l.615-2.04-.998-.57-.746-.427-1.751-1-1.446 1.567c-.3-.022-.604-.02-.907.006l-1.462-1.552-3.475 2.031.638 2.037a6.053 6.053 0 0 0-.493.89l-2.066.534.106 4.023 2.091.423c.118.23.25.452.397.665l-.097.32-.224.746-.292.974 3.493 1.996 1.446-1.567c.302.022.604.02.907-.005l1.462 1.551 3.473-2.033-.636-2.035c.082-.123.16-.248.233-.375z"/></g></g><g><g><path fill="#f7941d" d="M31.574 17.499a3.229 3.229 0 0 1-.195.403c-.06.106-.127.21-.2.311l-.11.151.386 1.235-1.544.905-.888-.942-.187.02a3.39 3.39 0 0 1-.753.006l-.185-.019-.877.95-1.554-.888.372-1.237-.11-.151a3.383 3.383 0 0 1-.347-.58l-.079-.17-1.27-.256-.047-1.79 1.254-.323.069-.173a3.523 3.523 0 0 1 .397-.715l.11-.153-.386-1.233 1.545-.904.888.942.186-.023c.25-.03.504-.03.752-.003l.186.02.877-.951 1.554.888-.373 1.238.112.15c.132.178.25.372.345.578l.08.17 1.268.257L32.9 17l-1.254.324zm.454.772c.058-.1.112-.207.162-.315l1.47-.38-.078-2.978-1.489-.302a4.063 4.063 0 0 0-.228-.379l.439-1.453-2.586-1.475-1.03 1.115a3.965 3.965 0 0 0-.536.002l-1.041-1.104-2.57 1.503.453 1.45a4.564 4.564 0 0 0-.299.539l-1.47.38.079 2.977 1.488.3c.07.131.144.258.226.381l-.437 1.451 2.586 1.478 1.03-1.116c.179.011.358.01.537-.004l1.04 1.107 2.569-1.506-.453-1.447c.048-.075.095-.148.138-.224z"/></g><g><path fill="#f7941d" d="M29.954 17.088a1.747 1.747 0 0 1-2.373.648 1.743 1.743 0 0 1-.65-2.375 1.743 1.743 0 0 1 2.373-.647 1.742 1.742 0 0 1 .65 2.374zm-.278-3.022a2.493 2.493 0 0 0-1.231-.328c-.892 0-1.72.481-2.162 1.254a2.49 2.49 0 0 0 .927 3.39 2.49 2.49 0 0 0 3.391-.925 2.487 2.487 0 0 0-.925-3.39z"/></g></g></g></g></g></svg>
