<svg xmlns="http://www.w3.org/2000/svg" width="41" height="53" viewBox="0 0 41 53"><g><g><g><g><g><g><g><path fill="#122b3c" d="M20.162 7.366l13.262 4.957v12.904c0 6.59-3.304 12.66-8.839 16.238l-4.423 2.86-4.423-2.86A19.262 19.262 0 0 1 6.9 25.227V12.323zM25.21 42.43a20.407 20.407 0 0 0 9.364-17.204V11.524L20.162 6.14 5.75 11.524v13.703c0 6.982 3.5 13.414 9.364 17.204l5.048 3.263z"/></g></g></g></g></g><g><g><g><g><g><path fill="#122b3c" d="M20.162 1.228l19.012 7.105v16.894c0 8.55-4.287 16.426-11.467 21.068l-7.545 4.877-7.545-4.877A24.993 24.993 0 0 1 1.15 25.227V8.333zm8.17 46.032a26.136 26.136 0 0 0 11.992-22.033V7.535L20.162 0 0 7.535v17.692A26.137 26.137 0 0 0 11.992 47.26l8.17 5.282z"/></g></g></g></g></g><g><g><g><g><g><path fill="#122b3c" d="M18.79 29.617l-4.26-4.513.837-.79 3.458 3.665 8.006-7.771.801.824z"/></g></g></g></g></g></g></g></svg>