<svg xmlns="http://www.w3.org/2000/svg" width="30" height="23" viewBox="0 0 30 23"><g><g><g><g><g><g><g><g><path fill="#f7941d" d="M29.319 13.66h-6.12a2.562 2.562 0 0 1-2.554-2.553 2.562 2.562 0 0 1 2.553-2.553h6.12zm-6.101-5.905a3.332 3.332 0 0 0-3.333 3.333c0 1.832 1.5 3.333 3.333 3.333h6.9V7.755z"/></g></g></g></g></g><g><g><g><g><g><path fill="#f7941d" d="M24.465 11.088a.977.977 0 0 1-.974.974.977.977 0 0 1-.975-.974.99.99 0 0 1 .975-.975c.526 0 .974.43.974.975z"/></g></g></g></g></g><g><g><path fill="#f7941d" d="M28.286 8.145V4.772A4.546 4.546 0 0 0 23.744.231H.295v22.201h23.45a4.546 4.546 0 0 0 4.54-4.541v-3.84h-.779v3.84a3.764 3.764 0 0 1-3.762 3.762H1.074V1.01h22.67a3.764 3.764 0 0 1 3.762 3.762v3.373z"/></g><g><path fill="#f7941d" d="M16.142 2.98H4.135v.779h18.362v-.78h-5.263z"/></g></g><g><g><g><g><g><path fill="#f7941d" d="M4.135 19.47v-.78h18.362v.78z"/></g></g></g></g></g></g></g></g></svg>
