<svg xmlns="http://www.w3.org/2000/svg" width="117" height="94" viewBox="0 0 117 94"><g><g><g><g><path fill="#f7941d" d="M38.531 14.171a36.229 36.229 0 0 1 17.683 4.59L28.613 50.45l27.944 31.496a36.21 36.21 0 0 1-18.003 4.774 43.556 43.556 0 0 1-5.61-.427c-7.888-1.02-14.727-5.79-14.81-5.845A36.28 36.28 0 0 1 2.258 50.46c-.004-20.037 16.235-36.284 36.272-36.289zm0 74.8A38.434 38.434 0 0 0 58.88 83.17l1.122-.702L31.61 50.44l28.05-32.23-1.122-.69C41 6.838 18.167 11.788 6.63 28.774c-11.956 17.6-7.38 41.56 10.22 53.515.297.213 7.343 5.11 15.803 6.233 1.948.276 3.912.426 5.88.448z"/></g><g><path fill="#f7941d" d="M86.576 17.414c0 2.906-2.047 4.953-5.509 5.234v3.445h-1.885v-3.479a9.936 9.936 0 0 1-5.829-2.805l1.487-1.784a8.096 8.096 0 0 0 5.498 2.368c2.104 0 3.658-1.044 3.658-2.839 0-2.048-1.644-2.727-4.27-3.551-3.119-1.004-5.958-1.975-5.958-5.375 0-2.771 1.936-4.87 5.414-5.049V0h1.908v3.73c1.757.312 3.419 1.022 4.858 2.076L84.489 7.58a8.855 8.855 0 0 0-4.802-1.683c-1.991 0-3.366.931-3.366 2.603 0 1.784 1.728 2.435 4.107 3.215 3.506 1.122 6.17 2.048 6.17 5.705z"/></g><g><path fill="#f7941d" d="M98.116 28.286v2.244h8.275L85.718 56.477H46.492l-18.44 23.478 1.761 1.386 17.773-22.62h39.215l21.688-27.22v9.15h2.244V28.286z"/></g><g><path fill="#f7941d" d="M67.49 28.617c2.15 2.867 7.776 11.574 7.294 22.968 0 .073-.325 7.405-2.48 12.028l-.05.134a31.436 31.436 0 0 1-4.522 8.23L48.534 50.39zm1.145 45.823a34.001 34.001 0 0 0 5.711-9.935c2.323-5.038 2.66-12.505 2.66-12.82.633-14.9-8.253-25.132-8.629-25.559l-.847-.96-22.008 25.246 22.305 25.05z"/></g><g><path fill="#f7941d" d="M96.652 71.804h-4.886l9.688-9.027 9.706 9.043h-4.903v19.636h-9.6zm11.849 2.26h8.33L101.45 59.725l-15.383 14.34h8.342V93.7h14.093z"/></g></g></g></g></svg>