<svg xmlns="http://www.w3.org/2000/svg" width="51" height="50" viewBox="0 0 51 50"><g><g><g><path fill="#303392" d="M24.655 9.586a3.303 3.303 0 1 1 0-6.605 3.303 3.303 0 0 1 0 6.605zm4.954-3.302a4.954 4.954 0 1 0-9.908 0 4.954 4.954 0 0 0 9.908 0z"/></g><g><path fill="#303392" d="M47.086 25.732l.796 1.193h-2.586v-3.303h2.586l-.796 1.193a.826.826 0 0 0 0 .917zM6.491 24.448v-3.303h37.154v3.303zm25.595 4.954H17.224v-3.303h14.862zm-1.652 12.385a1.651 1.651 0 0 1-3.302 0V31.053h3.302zm-8.256 4.953a1.651 1.651 0 0 1-3.303 0V31.053h3.303zM4.84 26.925H2.254l.796-1.193a.826.826 0 0 0 0-.917l-.796-1.193H4.84zm9.082-10.733a4.133 4.133 0 0 1-4.129-4.129V3.394a1.239 1.239 0 0 1 2.477 0v7.018a2.477 2.477 0 0 0 2.477 2.477h5.842c.33 2.339 2.025 4.128 4.066 4.128s3.737-1.789 4.066-4.128h5.842a2.477 2.477 0 0 0 2.477-2.477V3.394a1.239 1.239 0 0 1 2.477 0v8.67a4.133 4.133 0 0 1-4.129 4.128h-2.477a.826.826 0 0 0-.825.825v2.477H17.224v-2.477a.826.826 0 0 0-.825-.825zm13.122-3.303c-.277 1.42-1.239 2.477-2.389 2.477-1.15 0-2.112-1.057-2.389-2.477zm21.72 12.385l1.346-2.019a.825.825 0 0 0-.686-1.284h-4.128V20.32a.826.826 0 0 0-.826-.826H33.737v-1.651h1.651a5.786 5.786 0 0 0 5.78-5.78V3.394a2.89 2.89 0 0 0-5.78 0v7.018c0 .456-.37.826-.825.826H14.747a.826.826 0 0 1-.825-.826V3.394a2.89 2.89 0 0 0-5.78 0v8.67a5.786 5.786 0 0 0 5.78 5.779h1.65v1.651H5.666a.826.826 0 0 0-.825.826v1.651H.71a.826.826 0 0 0-.687 1.284l1.348 2.019-1.346 2.018a.827.827 0 0 0 .685 1.284h4.954c.456 0 .826-.37.826-.825v-1.652h9.082v4.128c0 .456.37.826.826.826h.825V46.74a3.303 3.303 0 0 0 6.605 0V31.053h1.652v10.734a3.303 3.303 0 0 0 6.605 0V31.053h.825c.456 0 .826-.37.826-.825v-4.129h9.908v1.652c0 .456.37.825.825.825h4.954a.825.825 0 0 0 .687-1.284z"/></g></g></g></svg>