<svg width="28" height="28" viewBox="0 0 28 28" fill="none" xmlns="http://www.w3.org/2000/svg">
<circle cx="14" cy="14" r="14" fill="#1DBA44" fill-opacity="0.3"/>
<circle cx="14" cy="14" r="10" fill="#1DBA44"/>
<path fill-rule="evenodd" clip-rule="evenodd" d="M14 22C18.4183 22 22 18.4183 22 14C22 9.58172 18.4183 6 14 6C9.58172 6 6 9.58172 6 14C6 18.4183 9.58172 22 14 22ZM18.7179 11.6961C19.1024 11.2997 19.0926 10.6666 18.6961 10.2821C18.2997 9.89763 17.6666 9.90737 17.2821 10.3039L12.1818 15.5635L10.7179 14.0539C10.3334 13.6574 9.70034 13.6476 9.30385 14.0321C8.90737 14.4166 8.89763 15.0497 9.2821 15.4461L11.2844 17.5111C11.7755 18.0175 12.5881 18.0175 13.0792 17.5111L18.7179 11.6961Z" fill="white"/>
</svg>
