<svg width="97" height="98" viewBox="0 0 97 98" fill="none" xmlns="http://www.w3.org/2000/svg">
<line x1="1.5" y1="-1.5" x2="9.48106" y2="-1.5" transform="matrix(0.70925 0.704957 -0.70925 0.704957 56.3315 61.0281)" stroke="#303392" stroke-width="3" stroke-linecap="round"/>
<path d="M65.7676 39.5619C65.7676 54.4105 53.7742 66.4358 38.9943 66.4358C24.2143 66.4358 12.2209 54.4105 12.2209 39.5619C12.2209 24.7134 24.2143 12.6881 38.9943 12.6881C53.7742 12.6881 65.7676 24.7134 65.7676 39.5619Z" fill="#FFE37B" stroke="#FFBE1B" stroke-width="4"/>
<path d="M72.802 66.3784L91.9158 85.3579C94.2166 87.6426 94.2177 91.3491 91.9182 93.6351C89.6205 95.9192 85.8955 95.9202 83.5966 93.6374L64.4781 74.6533L72.802 66.3784Z" fill="#303392"/>
<path d="M72.8871 70.1404L89.9831 87.1124C91.2617 88.3818 91.2624 90.4415 89.9846 91.7118C88.7081 92.9808 86.6385 92.9815 85.3611 91.7133L68.262 74.7382L72.8871 70.1404Z" fill="#6857E5"/>
<rect width="23.9004" height="2.8009" rx="1.40045" transform="matrix(0.505969 -0.862552 0.869431 0.494055 32.1845 49.636)" fill="#6857E5"/>
<path fill-rule="evenodd" clip-rule="evenodd" d="M32.2695 39.146C34.357 39.146 36.0492 37.1281 36.0492 34.6389C36.0492 32.1497 34.357 30.1318 32.2695 30.1318C30.182 30.1318 28.4897 32.1497 28.4897 34.6389C28.4897 37.1281 30.182 39.146 32.2695 39.146ZM32.282 36.8847C33.124 36.8847 33.8065 35.8769 33.8065 34.6338C33.8065 33.3906 33.124 32.3828 32.282 32.3828C31.4401 32.3828 30.7576 33.3906 30.7576 34.6338C30.7576 35.8769 31.4401 36.8847 32.282 36.8847Z" fill="#6857E5"/>
<path fill-rule="evenodd" clip-rule="evenodd" d="M46.6325 49.6624C48.72 49.6624 50.4123 47.6445 50.4123 45.1553C50.4123 42.6661 48.72 40.6482 46.6325 40.6482C44.545 40.6482 42.8528 42.6661 42.8528 45.1553C42.8528 47.6445 44.545 49.6624 46.6325 49.6624ZM46.6451 47.3881C47.487 47.3881 48.1695 46.3804 48.1695 45.1372C48.1695 43.8941 47.487 42.8863 46.6451 42.8863C45.8031 42.8863 45.1206 43.8941 45.1206 45.1372C45.1206 46.3804 45.8031 47.3881 46.6451 47.3881Z" fill="#6857E5"/>
<path d="M75.9886 37.2743C75.9886 18.0343 60.448 2.43713 41.2779 2.43713" stroke="#6857E5" stroke-width="4" stroke-linecap="round" stroke-linejoin="round"/>
<path d="M2 41.8582C2 61.0982 17.5405 76.6953 36.7107 76.6953" stroke="#6857E5" stroke-width="4" stroke-linecap="round" stroke-linejoin="round"/>
</svg>
