<svg xmlns="http://www.w3.org/2000/svg" width="40.035" height="40.035" viewBox="0 0 40.035 40.035"><defs><style>.a{fill:#2f3192;}</style></defs><g transform="translate(-231 -516)"><path class="a" d="M246.255,527.734h-.138a4.08,4.08,0,0,0-4.073,4.073v1.519a4.021,4.021,0,0,0,1.035,2.692h3.037a2.7,2.7,0,0,1-2.692-2.692v-1.519a2.7,2.7,0,0,1,2.692-2.692h.138a2.7,2.7,0,0,1,2.692,2.692v1.519a2.7,2.7,0,0,1-2.692,2.692H249.3a4.049,4.049,0,0,0,1.028-2.692v-1.519A4.08,4.08,0,0,0,246.255,527.734Zm-6.281,12.176,1.871-2.34A6.787,6.787,0,0,0,239.973,539.911Zm.69-16.318h-4.142a.692.692,0,0,0-.69.69v22.088a.692.692,0,0,0,.69.69h3.451v-7.151a6.838,6.838,0,0,0-.69,3.01v2.761h-2.071V524.973h3.451a.69.69,0,1,0,0-1.38Zm28.3,12.425a2.077,2.077,0,0,0,2.071-2.071V521.522a.713.713,0,0,0-.2-.49L266,516.2a.713.713,0,0,0-.49-.2H256.54a2.077,2.077,0,0,0-2.071,2.071v2.761H236.225a3.315,3.315,0,0,0-3.154,3.451v22.088a3.633,3.633,0,0,0,.649,2.071H231.69a.692.692,0,0,0-.69.69V551.2a4.837,4.837,0,0,0,4.832,4.832H266.2a4.837,4.837,0,0,0,4.832-4.832v-2.071a.692.692,0,0,0-.69-.69h-2.029a3.633,3.633,0,0,0,.649-2.071Zm-34.513-11.734a1.942,1.942,0,0,1,1.774-2.071h18.244v1.381h-7.593a.69.69,0,1,0,0,1.38h7.593v8.973a2.077,2.077,0,0,0,2.071,2.071h8.283v9.664H253.088V542.92a6.838,6.838,0,0,0-.69-3.01,6.939,6.939,0,0,0-3.631-3.389,4.113,4.113,0,0,0,1.56-3.2v-1.519a4.08,4.08,0,0,0-4.073-4.073h-.138a4.08,4.08,0,0,0-4.073,4.073v1.519a4.021,4.021,0,0,0,1.035,2.692,3.621,3.621,0,0,0,.525.5,7.071,7.071,0,0,0-3.631,3.389,6.838,6.838,0,0,0-.69,3.01v2.761h-2.071V524.973h3.451a.69.69,0,1,0,0-1.38h-4.142a.692.692,0,0,0-.69.69v22.088a.692.692,0,0,0,.69.69h28.991a.692.692,0,0,0,.69-.69V536.018h1.381v10.354a1.942,1.942,0,0,1-1.774,2.071H236.225a1.942,1.942,0,0,1-1.774-2.071Zm6.212,18.637a5.522,5.522,0,0,1,11.044,0v2.761H240.664Zm2.761-9.595v-1.519a2.7,2.7,0,0,1,2.692-2.692h.138a2.7,2.7,0,0,1,2.692,2.692v1.519a2.7,2.7,0,0,1-2.692,2.692h-.138A2.7,2.7,0,0,1,243.425,533.326Zm11.044,16.5v.7a.685.685,0,0,1-.69.677h-5.522a.685.685,0,0,1-.69-.677v-.7Zm15.186,0V551.2a3.453,3.453,0,0,1-3.451,3.451H235.832a3.453,3.453,0,0,1-3.451-3.451v-1.381h13.805v.7a2.065,2.065,0,0,0,2.071,2.057h5.522a2.065,2.065,0,0,0,2.071-2.057v-.7ZM256.54,534.637a.692.692,0,0,1-.69-.69V518.071a.692.692,0,0,1,.69-.69h8.69l4.425,4.425v12.142a.692.692,0,0,1-.69.69Zm-15.876-11.044h-4.142a.692.692,0,0,0-.69.69v22.088a.692.692,0,0,0,.69.69h3.451v-7.151a6.838,6.838,0,0,0-.69,3.01v2.761h-2.071V524.973h3.451a.69.69,0,1,0,0-1.38Zm-.69,16.318,1.871-2.34A6.787,6.787,0,0,0,239.973,539.911Zm6.281-12.176h-.138a4.08,4.08,0,0,0-4.073,4.073v1.519a4.021,4.021,0,0,0,1.035,2.692h3.037a2.7,2.7,0,0,1-2.692-2.692v-1.519a2.7,2.7,0,0,1,2.692-2.692h.138a2.7,2.7,0,0,1,2.692,2.692v1.519a2.7,2.7,0,0,1-2.692,2.692H249.3a4.049,4.049,0,0,0,1.028-2.692v-1.519A4.08,4.08,0,0,0,246.255,527.734Zm-5.591-4.142h-4.142a.692.692,0,0,0-.69.69v22.088a.692.692,0,0,0,.69.69h3.451v-7.151a6.838,6.838,0,0,0-.69,3.01v2.761h-2.071V524.973h3.451a.69.69,0,1,0,0-1.38Zm5.591,4.142h-.138a4.08,4.08,0,0,0-4.073,4.073v1.519a4.021,4.021,0,0,0,1.035,2.692h3.037a2.7,2.7,0,0,1-2.692-2.692v-1.519a2.7,2.7,0,0,1,2.692-2.692h.138a2.7,2.7,0,0,1,2.692,2.692v1.519a2.7,2.7,0,0,1-2.692,2.692H249.3a4.049,4.049,0,0,0,1.028-2.692v-1.519A4.08,4.08,0,0,0,246.255,527.734Z"/><path class="a" d="M250.071,527.69a.692.692,0,0,1-.69.69h-.69a.69.69,0,0,1,0-1.38h.69A.692.692,0,0,1,250.071,527.69Z" transform="translate(-5.266 -3.407)"/><path class="a" d="M269.69,529.38h9.664a.69.69,0,1,0,0-1.38H269.69a.69.69,0,1,0,0,1.38Z" transform="translate(-11.77 -3.717)"/><path class="a" d="M269.69,534.38h9.664a.69.69,0,1,0,0-1.38H269.69a.69.69,0,1,0,0,1.38Z" transform="translate(-11.77 -5.266)"/><path class="a" d="M269.69,539.381h9.664a.69.69,0,1,0,0-1.381H269.69a.69.69,0,1,0,0,1.381Z" transform="translate(-11.77 -6.814)"/></g></svg>