<svg xmlns="http://www.w3.org/2000/svg" width="77" height="72" viewBox="0 0 77 72"><g><g><g><g><path fill="#f7941d" d="M51.617 25.928V6.566A6.499 6.499 0 0 0 45.124.073H15.797a6.499 6.499 0 0 0-6.493 6.493v58.15a6.499 6.499 0 0 0 6.493 6.493h29.327a6.499 6.499 0 0 0 6.493-6.493V29.253l-1.764-.983v36.446a4.732 4.732 0 0 1-4.73 4.73H15.798a4.735 4.735 0 0 1-4.729-4.73V6.566a4.735 4.735 0 0 1 4.73-4.73h29.326a4.732 4.732 0 0 1 4.729 4.73v20.151z"/></g><g><g><g><g><g><path fill="#f7941d" d="M27.437 6.205V4.44h6.05v1.765z"/></g></g></g></g></g><g><g><g><g><g><path fill="#f7941d" d="M32.935 65.449h-4.95a1.348 1.348 0 0 1 0-2.696h4.95a1.35 1.35 0 0 1 0 2.695zm0-4.46h-4.95a3.112 3.112 0 0 0 0 6.225h4.95a3.116 3.116 0 0 0 3.115-3.111 3.12 3.12 0 0 0-3.115-3.114z"/></g></g></g></g></g><g><path fill="#f7941d" d="M43.483 56.595H17.43V10.483h26.053zm1.764-46.112h.009V8.72H15.665v49.64h29.591v-1.764h-.009z"/></g></g><g><g><g><g><g><g><path fill="#f7941d" d="M30.813 34.04c-1.826-.6-3.15-1.103-3.15-2.47 0-1.284 1.068-1.999 2.595-1.999 1.08 0 2.532.459 3.687 1.293l1.099-1.354c-.97-.76-2.404-1.36-3.728-1.593V25.05h-1.464v2.77c-2.67.128-4.156 1.743-4.156 3.868 0 2.608 2.18 3.353 4.575 4.125 2.016.631 3.277 1.152 3.277 2.722 0 1.38-1.195 2.184-2.81 2.184-1.411 0-2.99-.622-4.221-1.818l-1.143 1.368c1.293 1.248 2.854 1.967 4.478 2.148v2.668h1.464V42.44c2.66-.216 4.23-1.787 4.23-4.019 0-2.81-2.037-3.528-4.733-4.38z"/></g></g></g></g></g></g><g><path fill="#f7941d" d="M64.176 36.095l-4.813-2.598-2.973-1.606 17.037-14.407zm-8.465 1.69v-4.252l1.99 1.071zm-4.094-8.531l-1.764-.984-1.549-.865 1.549-.689 1.764-.789 19.198-8.548-16.088 13.608zm25.171-14.616l-1.57-.983-.16-.097L51.619 24l-1.765.785-4.606 2.052-.882.391.882.494 4.606 2.568 1.764.984 1.672.93-.018.013.675.367v8.28l1.632.468 3.675-5.885 5.69 3.065 11.863-23.86z"/></g><g><path fill="#f7941d" d="M38.075 16.427l-1.248 1.248 2.895 2.895H9.144c-4.922 0-8.927 4.005-8.927 8.927 0 4.923 4.005 8.927 8.927 8.927H21.94V36.66H9.144c-3.95 0-7.163-3.213-7.163-7.163 0-3.949 3.213-7.162 7.163-7.162H40.39l-3.659 3.66 1.248 1.246 5.455-5.455z"/></g></g></g></svg>