<svg xmlns="http://www.w3.org/2000/svg" width="25" height="23" viewBox="0 0 25 23"><g><g><g><g><g><g><g><g><g><path fill="#f7941d" d="M7.31 2.548c0 1.022-.83 1.85-1.85 1.85s-1.85-.828-1.85-1.85C3.61 1.528 4.44.7 5.46.7s1.85.83 1.85 1.85zm.497 0A2.35 2.35 0 0 0 5.46.202a2.35 2.35 0 0 0-2.347 2.346A2.35 2.35 0 0 0 5.46 4.897a2.35 2.35 0 0 0 2.347-2.349z"/></g></g></g></g></g><g><g><g><g><g><path fill="#f7941d" d="M5.363 6.897h.126l.385 3.351-.448.363-.447-.363zM6.4 10.463L5.932 6.4H4.92l-.467 4.063.973.787z"/></g></g></g></g></g><g><path fill="#f7941d" d="M10.007 14.035a.805.805 0 0 1-1.61.017V13.5l.001-.289h1.609zm-6.789.804v-.786l.001-.018V9.248H2.72v3.466H1.11V8.246A2.375 2.375 0 0 1 3.48 5.874h.673l.873 1.023h.793l.94-1.023h.878a2.375 2.375 0 0 1 2.371 2.372v4.468H8.398V9.248H7.9V14.839zm-1.301 0a.8.8 0 0 1-.805-.804l.002-.824H2.72v.842a.805.805 0 0 1-.804.786zm4.168-8.965l-.484.526h-.344l-.45-.526zm4.422 2.372a2.873 2.873 0 0 0-2.87-2.87H3.482a2.873 2.873 0 0 0-2.869 2.87v5.515h.003v.272c0 .348.134.676.38.922a1.293 1.293 0 0 0 1.726.103v.28h5.677v-.28c.229.18.508.28.804.28.718 0 1.302-.585 1.302-1.303v-.274h.003z"/></g></g><g><g><g><g><g><path fill="#f7941d" d="M20.974 9.374c0 1.02-.83 1.85-1.85 1.85s-1.85-.83-1.85-1.85.83-1.85 1.85-1.85 1.85.83 1.85 1.85zm.497 0a2.35 2.35 0 0 0-2.347-2.347 2.35 2.35 0 0 0-2.347 2.347 2.35 2.35 0 0 0 2.347 2.347 2.35 2.35 0 0 0 2.347-2.347z"/></g></g></g></g></g><g><path fill="#f7941d" d="M20.524 4.115l-1.141 1.141V4.043A3.567 3.567 0 0 0 15.82.48h-5.247V.98h5.247a3.068 3.068 0 0 1 3.065 3.064v1.179L17.744 4.08l-.352.352 1.759 1.76 1.725-1.726z"/></g></g><g><path fill="#f7941d" d="M23.67 20.862a.806.806 0 0 1-1.374.569.802.802 0 0 1-.234-.553V20.038h1.608zm-6.788.805v-.786l.001-.02V16.076h-.498v3.466h-1.612v-4.469a2.374 2.374 0 0 1 2.372-2.371h.522c.121.783.799 1.387 1.616 1.387.817 0 1.495-.604 1.615-1.387h.403a2.374 2.374 0 0 1 2.372 2.371v4.469h-1.611v-3.466h-.498v5.591zm-1.301 0a.804.804 0 0 1-.805-.808l.001-.82h1.608v.842a.805.805 0 0 1-.804.785zm4.813-8.966a1.14 1.14 0 0 1-2.223 0zm3.777 2.371a2.872 2.872 0 0 0-2.87-2.868h-.382v-.002h-3.272v.002h-.502a2.872 2.872 0 0 0-2.87 2.868v5.516h.004v.27c-.001.35.134.676.38.923s.574.383.922.383c.303 0 .582-.105.804-.28v.28h5.677v-.279a1.304 1.304 0 0 0 2.106-1.023v-.274h.003z"/></g><g><g><g><g><g><path fill="#f7941d" d="M18.99 15.496a.295.295 0 1 1 .59 0 .295.295 0 0 1-.59 0z"/></g></g></g></g></g><g><g><g><g><g><path fill="#f7941d" d="M18.99 17.453a.295.295 0 1 1 .59 0 .295.295 0 0 1-.59 0z"/></g></g></g></g></g><g><g><g><g><g><path fill="#f7941d" d="M18.99 19.41a.295.295 0 1 1 .59 0 .295.295 0 0 1-.59 0z"/></g></g></g></g></g><g><g><text fill="#f7941d" style="font-kerning:normal" dominant-baseline="text-before-edge" font-family="'Mukta','Mukta-Light'" font-size="1" font-style="none" font-weight="lighter" transform="translate(12)"><tspan>$</tspan></text></g></g></g></g></svg>