<svg xmlns="http://www.w3.org/2000/svg" width="64" height="76" viewBox="0 0 64 76"><g><g><g><g><g><g><g><g><path fill="#f7941d" d="M50.593 30.342l-.13-7.494-22.78.398C16.891 23.434 7.162 30 2.937 39.918l-.48 1.158-.037-2.148c-.244-13.988 10.947-25.577 24.934-25.82l22.93-.4-.119-6.795 10.155 12.066zM48.25 10.694l-20.931.365C12.233 11.322.158 23.826.422 38.913l.201 11.54L4.8 40.685c3.887-9.212 12.926-15.267 22.917-15.44L48.5 24.88l.195 11.19 14.175-18.137L48.069.253z"/></g></g></g></g></g></g><g><g><g><g><g><g><g><path fill="#f7941d" d="M62.764 61.535h-9.745a4.08 4.08 0 0 1-4.066-4.066 4.08 4.08 0 0 1 4.066-4.065h9.745zM53.05 52.13a5.304 5.304 0 0 0-5.307 5.307c0 2.917 2.39 5.307 5.307 5.307h10.986V52.131z"/></g></g></g></g></g><g><g><g><g><g><path fill="#f7941d" d="M55.036 57.438c0 .87-.714 1.552-1.552 1.552a1.556 1.556 0 0 1-1.551-1.552c0-.838.714-1.552 1.551-1.552.838 0 1.552.683 1.552 1.552z"/></g></g></g></g></g><g><g><path fill="#f7941d" d="M61.119 52.752v-5.369c0-4.003-3.259-7.23-7.231-7.23H16.554V75.5h37.334c4.003 0 7.23-3.259 7.23-7.23v-6.115h-1.24v6.114c0 3.32-2.7 5.99-5.99 5.99H17.795V41.394h36.093c3.32 0 5.99 2.7 5.99 5.99v5.368z"/></g><g><path fill="#f7941d" d="M41.785 44.528H22.668v1.241H51.9v-1.241h-8.378z"/></g></g><g><g><g><g><g><path fill="#f7941d" d="M22.668 70.783V69.54h29.234v1.242z"/></g></g></g></g></g></g></g></g></g></svg>