<svg xmlns="http://www.w3.org/2000/svg" width="28" height="33" viewBox="0 0 28 33"><g><g opacity=".57"><g opacity=".57"><g opacity=".57"><g opacity=".57"><g opacity=".57"><g opacity=".57"><path fill="#797979" d="M21.999 12.993l-.057-3.237-9.84.172A11.872 11.872 0 0 0 1.413 17.13l-.207.5-.016-.928C1.084 10.66 5.919 5.654 11.96 5.548l9.905-.173-.051-2.935L26.2 7.652zm-1.012-8.487l-9.041.157C5.429 4.777.213 10.178.326 16.695l.087 4.985 1.805-4.219c1.679-3.98 5.583-6.595 9.9-6.67l8.976-.157.085 4.834 6.123-7.835-6.393-7.638z"/></g></g></g></g></g></g><g opacity=".57"><g opacity=".57"><g opacity=".57"><g opacity=".57"><g opacity=".57"><g opacity=".57"><g opacity=".57"><path fill="#797979" d="M27.256 26.467h-4.209c-.965 0-1.756-.79-1.756-1.756 0-.965.79-1.756 1.756-1.756h4.21zm-4.196-4.062a2.291 2.291 0 1 0 0 4.585h4.746v-4.585z"/></g></g></g></g></g><g opacity=".57"><g opacity=".57"><g opacity=".57"><g opacity=".57"><g opacity=".57"><path fill="#797979" d="M23.918 24.698c0 .375-.308.67-.67.67a.672.672 0 0 1-.67-.67c0-.362.308-.67.67-.67.362 0 .67.294.67.67z"/></g></g></g></g></g><g opacity=".57"><g opacity=".57"><path fill="#797979" d="M26.546 22.674v-2.32a3.127 3.127 0 0 0-3.124-3.123H7.295V32.5h16.127a3.127 3.127 0 0 0 3.124-3.124v-2.64h-.536v2.64a2.589 2.589 0 0 1-2.588 2.588H7.832V17.767h15.59a2.589 2.589 0 0 1 2.588 2.587v2.32z"/></g><g opacity=".57"><path fill="#797979" d="M18.194 19.121H9.936v.536h12.628v-.536h-3.62z"/></g></g><g opacity=".57"><g opacity=".57"><g opacity=".57"><g opacity=".57"><g opacity=".57"><path fill="#797979" d="M9.936 30.462v-.536h12.628v.536z"/></g></g></g></g></g></g></g></g></svg>