<svg width="268" height="187" viewBox="0 0 268 187" fill="none" xmlns="http://www.w3.org/2000/svg">
<g clip-path="url(#clip0)">
<path d="M26.8423 31.7492C34.0871 31.7492 39.9602 25.8761 39.9602 18.6313C39.9602 11.3865 34.0871 5.51349 26.8423 5.51349C19.5975 5.51349 13.7245 11.3865 13.7245 18.6313C13.7245 25.8761 19.5975 31.7492 26.8423 31.7492Z" fill="#303392"/>
<path opacity="0.1" d="M25.2396 45.3354C30.7475 57.7761 23.7216 72.1015 15.4513 82.8887C12.6833 86.5061 9.62747 90.2983 9.24373 94.8356C8.78098 100.386 12.5394 105.487 16.9976 108.822C25.1296 114.9 36.2356 116.78 45.9138 113.712C54.2772 111.063 61.3087 105.078 69.7455 102.666C83.8537 98.625 98.8084 105.324 110.891 113.67C119.443 119.57 128.602 126.76 138.912 125.496C146.167 124.607 152.324 119.514 156.503 113.518C158.52 110.623 160.275 107.378 163.213 105.425C164.959 104.263 167.01 103.648 169.062 103.207C187.795 99.2035 207.676 108.975 226.161 103.949C238.646 100.564 248.601 90.6877 254.792 79.325C260.983 67.9622 263.872 55.1322 266.279 42.4206C267.989 33.3914 269.408 23.6369 265.477 15.3328C261.318 6.54059 251.691 1.21049 242.015 0.211631C232.34 -0.787232 222.636 1.96952 213.723 5.85775C202.586 10.7279 191.669 17.545 179.513 17.5676C171.234 17.5845 163.339 14.4073 155.425 11.9835C142.191 7.93448 128.43 5.92264 114.717 4.066C101.588 2.28836 88.3288 0.634878 75.1207 1.68453C65.7754 2.42662 57.5221 5.99883 48.4533 7.65231C42.542 8.73018 36.6024 7.93448 30.8011 9.74033C23.6567 11.9751 16.3091 17.1528 15.9141 25.3074C15.5416 33.0697 22.3192 38.7356 25.2396 45.3354Z" fill="#303392"/>
<path d="M169.835 56.4132C168.63 53.2727 165.523 45.8913 163.478 47.3557C160.893 49.2067 166.062 57.3838 166.062 57.3838C166.209 58.8849 163.303 62.0085 161.745 63.5661C161.745 63.4419 161.745 63.3714 161.745 63.3714C161.73 63.4306 161.708 63.4875 161.678 63.5407L161.548 63.4701C161.513 63.5946 161.45 63.7094 161.364 63.8059C161.364 63.5943 161.35 63.4701 161.35 63.4701C161.051 64.737 155.831 66.3426 155.831 66.3426C155.831 66.3426 155.69 66.3426 155.447 66.3426C153.997 66.3426 150.222 66.0153 148.472 63.2162C147.567 61.6998 146.41 60.3495 145.05 59.2235C144.584 58.8586 144.018 58.644 143.427 58.6084C138.594 58.2981 134.68 55.8517 133.898 55.3297L133.755 55.2309L133.724 55.3212C133.54 55.0588 133.362 54.7794 133.196 54.4916L133.111 54.3365C134.281 53.7491 135.266 52.8493 135.956 51.7366C136.645 50.624 137.013 49.342 137.019 48.0329C137.019 47.9849 137.019 47.9341 137.019 47.8862C137.444 47.1512 137.668 46.3171 137.668 45.468V44.6215L138.771 43.6396C139.277 43.1909 139.799 42.7169 140.055 42.099C140.158 41.8489 140.205 41.579 140.191 41.3089C140.215 41.0775 140.181 40.8436 140.09 40.6293C139.999 40.415 139.855 40.2274 139.672 40.0843C138.825 39.5002 137.414 40.0843 136.802 39.2717C136.52 38.9049 136.571 38.4054 136.432 37.9737C136.15 37.0962 135.134 36.6222 134.195 36.608C133.255 36.5939 132.355 36.9354 131.452 37.1921C129.555 37.7307 127.575 37.9162 125.611 37.7395C125.08 37.645 124.535 37.6642 124.011 37.796C123.692 37.9281 123.408 38.1336 123.182 38.3958C122.957 38.6581 122.796 38.9697 122.713 39.3055C122.644 39.5579 122.602 39.8172 122.589 40.0787C121.802 40.9666 121.367 42.1116 121.365 43.2982V45.468C121.366 46.6264 121.782 47.7461 122.536 48.6254C122.625 49.6464 122.935 50.6357 123.445 51.5246C123.956 52.4134 124.653 53.1804 125.49 53.7721C125.49 53.8286 125.49 53.8859 125.49 53.9442L125.527 53.9668C125.481 54.6395 125.377 55.307 125.216 55.9617V55.8178C125.216 55.8178 121.266 57.9199 117.034 57.9707H116.568C115.733 57.9426 114.921 58.2471 114.311 58.8172C113.058 59.9967 110.863 61.8618 109.514 61.8618C109.232 61.8618 102.11 63.2529 100.93 63.4842L98.7267 61.3257L98.6589 61.4526L98.5291 61.3257C98.2882 61.3443 98.0487 61.3792 97.8124 61.4301C96.6838 60.0926 94.4265 56.9832 93.9045 52.8099C93.9045 52.8099 98.7775 47.2598 96.9857 42.0877C95.4564 37.6803 91.2437 47.1271 90.0473 49.9742C89.838 50.471 89.812 51.026 89.9739 51.5402L93.9327 64.2997C93.5557 65.2884 93.4477 66.3594 93.6195 67.4035H93.5743L96.4581 71.1027C96.4581 71.1027 98.6279 72.0282 102.022 72.0113C104.51 72.0153 106.976 71.5422 109.285 70.6174H109.954L109.827 70.6653H113.261L115.445 77.2708C115.372 77.8718 114.316 86.2606 113.47 88.137C113.219 88.7639 113.105 89.4375 113.137 90.1121C113.181 91.4083 113.393 92.6934 113.766 93.9354L115.679 93.8649L115.606 94.0145C113.986 97.3355 111.28 103.253 109.68 108.783L106.895 114.426L108.983 139.736H109.068L109.229 139.762C109.455 139.796 109.793 139.846 110.239 139.903L110.075 140.185L105.473 147.804C105.473 147.804 102.192 154.522 109.452 153.255C109.452 153.255 112.135 152.476 113.23 147.894L118.004 143.416C118.004 143.416 118.227 140.442 116.875 139.254C116.791 137.88 116.576 133.867 116.907 132.902C117.304 131.734 115.214 118.3 115.214 118.3C115.214 118.3 122.77 102.626 127.347 102.237C127.682 102.213 128.019 102.257 128.337 102.367C132.098 103.591 136.655 112.685 137.996 115.515L138.058 115.645V115.671L138.108 115.781V115.812L138.154 115.908V115.933L138.193 116.02V116.04L138.227 116.111V116.139L138.252 116.193V116.215L138.269 116.255V116.277V116.303L138.283 116.337L138.879 133.958L138.938 133.989H138.966L138.915 134.353L138.656 136.173C138.656 136.173 141.937 143.086 141.737 143.96C141.537 144.835 143.924 148.342 147.304 147.369C150.684 146.396 148.673 140.907 148.673 140.907L145.416 134.198L145.273 133.898C145.597 133.699 145.903 133.472 146.187 133.218C146.187 133.218 145.194 126.015 146.187 124.457C147.18 122.9 147.479 115.792 147.479 115.792C147.479 115.792 146.782 110.925 145.589 108.783L140.589 90.936C142.087 92.3299 143.252 92.8745 144.226 92.8378H144.387C144.814 92.8459 145.237 92.7408 145.611 92.5331C145.812 92.4197 146.001 92.2864 146.175 92.1352C146.209 92.1065 146.24 92.0754 146.269 92.0421V92.0421C147.66 90.874 144.677 86.2973 142.987 83.5772C141.359 80.9531 143.602 73.8227 143.771 73.2923C143.922 73.1817 144.084 73.0872 144.254 73.0101C144.604 72.8602 144.979 72.7788 145.36 72.7703C146.98 72.8267 148.972 73.7578 151.438 74.2262C153.152 74.5178 154.889 74.6528 156.627 74.6297H156.728C157.42 74.6297 158.046 74.6156 158.554 74.5959C159.017 74.5777 159.471 74.4552 159.88 74.2375V74.2375C160.231 74.0329 160.549 73.776 160.823 73.4757L165.151 68.5858L165.038 68.6394C165.248 68.0848 165.248 67.4727 165.038 66.9182L169.612 59.0176C169.843 58.6283 169.983 58.1919 170.022 57.7409C170.06 57.2899 169.996 56.8361 169.835 56.4132V56.4132Z" fill="url(#paint0_linear)"/>
<path d="M118.447 142.747L113.839 147.163C112.784 151.678 110.191 152.442 110.191 152.442C103.185 153.689 106.351 147.081 106.351 147.081L110.795 139.561L111.342 138.633C111.342 138.633 114.511 137.674 116.622 138.249C116.888 138.322 117.134 138.456 117.341 138.639C118.664 139.787 118.447 142.747 118.447 142.747Z" fill="#444176"/>
<path d="M146.858 146.683C143.594 147.643 141.291 144.189 141.497 143.323C141.703 142.456 138.515 135.654 138.515 135.654L138.763 133.859L138.994 132.197L144.355 132.581L144.861 133.642L148.004 140.258C148.004 140.258 150.123 145.724 146.858 146.683Z" fill="#444176"/>
<path opacity="0.1" d="M117.392 139.389C116.887 140.256 112.793 139.818 110.798 139.547L111.345 138.619C111.345 138.619 114.514 137.66 116.624 138.235C116.891 138.308 117.137 138.442 117.344 138.625C117.372 139.093 117.392 139.389 117.392 139.389Z" fill="black"/>
<path opacity="0.1" d="M144.866 133.636C142.121 135.464 139.197 134.082 138.757 133.853L138.989 132.191L144.35 132.575L144.866 133.636Z" fill="black"/>
<path d="M145.611 124.031C144.652 125.566 145.611 132.671 145.611 132.671C142.442 135.552 138.701 133.438 138.701 133.438L138.137 116.066C138.137 116.066 131.898 101.763 127.482 102.146C123.066 102.53 115.772 117.984 115.772 117.984C115.772 117.984 117.787 131.229 117.403 132.375C117.019 133.52 117.403 139.093 117.403 139.093C116.732 140.244 109.725 139.093 109.725 139.093L107.711 114.136L110.386 108.566C111.923 103.114 114.536 97.2791 116.099 94.006C116.875 92.3779 117.395 91.3847 117.395 91.3847L122.502 90.3209L139.079 86.8842L145.035 108.566C146.187 110.676 146.858 115.476 146.858 115.476C146.858 115.476 146.57 122.496 145.611 124.031Z" fill="#565387"/>
<g opacity="0.1">
<path opacity="0.1" d="M140.236 133.439L139.671 116.066C139.671 116.066 133.433 101.763 129.017 102.146C128.819 102.166 128.625 102.209 128.438 102.276C132.744 103.707 138.136 116.066 138.136 116.066L138.701 133.439C139.878 134.038 141.205 134.281 142.518 134.135C141.722 134.04 140.95 133.804 140.236 133.439V133.439Z" fill="black"/>
<path opacity="0.1" d="M111.249 139.102L109.234 114.144L111.921 108.566C113.458 103.114 116.071 97.2791 117.634 94.006C118.41 92.3779 118.93 91.3847 118.93 91.3847L124.037 90.3209L139.169 87.1748L139.087 86.8729L122.502 90.3209L117.395 91.3847C117.395 91.3847 116.875 92.3779 116.099 94.006C114.531 97.2791 111.923 103.126 110.386 108.566L107.699 114.133L109.714 139.09C109.714 139.09 113.54 139.719 115.809 139.581C114.282 139.498 112.76 139.338 111.249 139.102V139.102Z" fill="black"/>
</g>
<path d="M99.5758 61.7856C99.5758 61.7856 94.1047 62.0678 94.8721 67.8324L96.4071 68.0243L98.7096 65.5299L99.8608 63.4193V62.9396L99.5758 61.7856Z" fill="#CED2DF"/>
<path opacity="0.1" d="M99.5758 61.7856C99.5758 61.7856 94.1047 62.0678 94.8721 67.8324L96.4071 68.0243L98.7096 65.5299L99.8608 63.4193V62.9396L99.5758 61.7856Z" fill="black"/>
<path d="M160.442 63.8962C160.442 63.8962 164.956 66.2946 163.802 69.0795L162.363 69.6439L160.444 68.5886L160.162 66.0942L160.354 64.3674L160.442 63.8962Z" fill="#CED2DF"/>
<path opacity="0.1" d="M160.442 63.8962C160.442 63.8962 164.956 66.2946 163.802 69.0795L162.363 69.6439L160.444 68.5886L160.162 66.0942L160.354 64.3674L160.442 63.8962Z" fill="black"/>
<path d="M131.455 39.1306H127.615C124.328 39.1306 121.664 41.7949 121.664 45.0814C121.664 48.368 124.328 51.0323 127.615 51.0323H131.455C134.742 51.0323 137.406 48.368 137.406 45.0814C137.406 41.7949 134.742 39.1306 131.455 39.1306Z" fill="#88455E"/>
<path d="M99.5393 62.601L96.1788 67.9622L95.8966 67.0085L91.3312 52.1327C91.175 51.6256 91.2 51.08 91.4017 50.5893C92.5558 47.7846 96.6246 38.4562 98.1003 42.8157C99.8272 47.8946 95.1235 53.3743 95.1235 53.3743C95.6596 57.8212 98.1567 61.0435 99.1387 62.1609C99.387 62.4515 99.5393 62.601 99.5393 62.601Z" fill="#EC8C9C"/>
<path d="M159.722 64.9035C159.722 64.9035 165.001 59.912 164.801 57.8974C164.801 57.8974 159.81 49.8359 162.307 48.0216C164.282 46.5769 167.281 53.8568 168.444 56.9521C168.597 57.3644 168.659 57.8054 168.625 58.244C168.59 58.6827 168.46 59.1085 168.243 59.4916L161.934 70.6625L159.722 64.9035Z" fill="#EC8C9C"/>
<path d="M125.549 50.9871C125.549 50.9871 126.509 57.1299 123.726 59.4352C120.944 61.7404 131.695 61.7263 131.695 61.7263L135.535 58.1739C135.535 58.1739 131.119 54.0458 132.462 50.9759L125.549 50.9871Z" fill="#EC8C9C"/>
<path opacity="0.1" d="M125.357 57.9933C125.357 57.9933 129.485 61.0661 133.611 57.6096L140.329 71.5287L139.945 88.5179C139.945 88.5179 126.026 95.7159 120.267 91.3028C114.508 86.8898 119.308 84.5845 119.308 84.5845L117.964 71.5316L119.404 63.0835C119.404 63.0835 121.994 59.0514 122.189 59.0514C122.383 59.0514 125.357 57.9933 125.357 57.9933Z" fill="black"/>
<path d="M125.357 57.8014C125.357 57.8014 129.485 60.8799 133.613 57.4177L140.332 71.3369L139.948 88.326C139.948 88.326 126.029 95.524 120.27 91.111C114.511 86.6979 119.31 84.3926 119.31 84.3926L117.967 71.3397L119.406 62.8917C119.406 62.8917 121.997 58.8596 122.191 58.8596C122.386 58.8596 125.357 57.8014 125.357 57.8014Z" fill="#EBF1F6"/>
<path opacity="0.1" d="M125.357 56.3652C125.357 56.3652 121.444 58.5943 117.194 58.4843C116.796 58.4718 116.398 58.5387 116.026 58.6811C115.653 58.8235 115.313 59.0386 115.024 59.3138C113.814 60.4763 111.695 62.3161 110.383 62.3161C110.101 62.3161 101.935 63.947 101.935 63.947L99.7762 61.7884C99.7762 61.7884 96.5595 68.075 95.0245 67.7872L97.8095 71.4356C97.8095 71.4356 103.089 73.7381 109.999 70.9559H114.031L116.142 77.4824C116.142 77.4824 115.086 86.3142 114.223 88.2329C113.36 90.1516 114.505 93.8959 114.505 93.8959L122.087 93.6138C122.087 93.6138 122.471 89.8694 123.046 89.3813C123.622 88.8931 121.032 72.3921 121.032 72.3921C121.032 72.3921 119.305 63.0807 125.639 59.723L125.357 56.3652Z" fill="black"/>
<path opacity="0.1" d="M122.499 90.3322C122.22 91.4709 122.021 92.6278 121.904 93.7943L116.099 94.0144C116.875 92.3864 117.395 91.3931 117.395 91.3931L122.499 90.3322Z" fill="black"/>
<path opacity="0.1" d="M99.5394 62.6011L96.1788 67.9622L95.8966 67.0085C97.1297 65.7839 98.5743 63.2246 99.15 62.1581C99.387 62.4515 99.5394 62.6011 99.5394 62.6011Z" fill="black"/>
<path d="M125.357 56.3652C125.357 56.3652 121.249 58.5943 117.002 58.4843C116.604 58.4718 116.207 58.5387 115.834 58.6811C115.462 58.8235 115.121 59.0386 114.833 59.3138C113.622 60.4763 111.503 62.3161 110.191 62.3161C109.909 62.3161 101.743 63.947 101.743 63.947L99.5759 61.7856C99.5759 61.7856 96.3592 68.0722 94.8242 67.7844L97.6092 71.4328C97.6092 71.4328 102.888 73.7353 109.799 70.9531H113.831L115.941 77.4768C115.941 77.4768 114.886 86.3085 114.023 88.2272C113.159 90.146 114.305 93.8903 114.305 93.8903L121.887 93.6081C121.887 93.6081 122.27 89.8638 122.846 89.3756C123.422 88.8875 120.831 72.3865 120.831 72.3865C120.831 72.3865 119.104 63.0751 125.439 59.7173L125.357 56.3652Z" fill="#CED2DF"/>
<path opacity="0.1" d="M133.613 55.784C133.613 55.784 137.53 58.7693 142.758 59.1135C143.33 59.1494 143.877 59.3613 144.324 59.7202C145.643 60.8388 146.761 62.1749 147.629 63.6705C149.739 67.127 154.922 66.7432 154.922 66.7432C154.922 66.7432 159.962 65.1603 160.25 63.9216C160.25 63.9216 160.394 70.6935 163.562 69.057L159.395 73.8594C159.132 74.1628 158.81 74.4092 158.449 74.5834C158.087 74.7576 157.694 74.856 157.293 74.8724C155.727 74.9345 153.007 74.9542 150.71 74.5084C147.253 73.8369 144.759 72.2059 142.936 73.645C142.936 73.645 140.538 81.1308 142.169 83.8198C143.8 86.5089 146.683 91.0179 145.337 92.1719C143.991 93.326 142.36 93.2272 139.674 90.4451C136.988 87.6629 136.697 82.9592 136.697 82.9592L137.369 70.8657C137.369 70.8657 134.779 61.7461 132.29 59.9233L133.613 55.784Z" fill="black"/>
<path opacity="0.1" d="M163.943 68.9356L159.765 73.7579C159.487 74.0778 159.143 74.3338 158.757 74.5084V74.5084C158.414 74.6633 158.044 74.7504 157.668 74.7652C156.102 74.8301 153.382 74.8498 151.085 74.4012C147.852 73.772 145.459 72.3047 143.67 73.2951C143.543 73.3649 143.422 73.4452 143.309 73.5349C143.309 73.5349 140.91 81.0208 142.541 83.7098C144.172 86.3988 147.056 90.9078 145.71 92.0619C145.485 92.26 145.232 92.4244 144.959 92.55C143.752 93.0946 142.253 92.6234 140.047 90.335C137.361 87.5501 137.07 82.8492 137.07 82.8492L137.742 70.7556C137.742 70.7556 135.151 61.636 132.663 59.8133L133.76 55.8771C134.516 56.3906 138.292 58.8031 142.959 59.1107C143.531 59.1466 144.078 59.3585 144.525 59.7173C145.843 60.8361 146.961 62.1722 147.829 63.6676C149.94 67.1242 155.123 66.7404 155.123 66.7404C156.366 66.344 157.579 65.8612 158.754 65.2957V65.2957C159.491 64.9346 160.14 64.5395 160.447 64.1671C160.534 64.0698 160.596 63.9539 160.631 63.8285C160.631 63.8285 160.777 70.5666 163.943 68.9356Z" fill="black"/>
<path d="M163.751 69.0316L159.575 73.8594C159.346 74.1244 159.071 74.3461 158.763 74.514V74.514C158.368 74.7282 157.93 74.8489 157.482 74.8667C155.916 74.9316 153.196 74.9514 150.899 74.5027C147.781 73.8961 145.442 72.5078 143.678 73.3007C143.477 73.3884 143.287 73.5013 143.114 73.6365C143.114 73.6365 140.715 81.1223 142.346 83.8113C143.977 86.5004 146.861 91.0094 145.515 92.1634C145.341 92.3133 145.152 92.4447 144.951 92.5556C143.709 93.2413 142.174 92.8378 139.846 90.4366C137.16 87.6516 136.87 82.9508 136.87 82.9508L137.541 70.8572C137.541 70.8572 134.951 61.7376 132.462 59.9148L133.613 55.7868L133.752 55.8827C134.508 56.3962 138.283 58.8088 142.95 59.1163C143.522 59.1522 144.069 59.3641 144.516 59.723C145.835 60.8418 146.952 62.1778 147.82 63.6733C149.931 67.1298 155.114 66.746 155.114 66.746C156.357 66.3496 157.57 65.8669 158.746 65.3014V65.3014C159.618 64.8555 160.329 64.3674 160.439 63.9216C160.439 63.9216 160.439 64.009 160.439 64.1642C160.523 65.3296 160.947 70.4734 163.751 69.0316Z" fill="#CED2DF"/>
<path opacity="0.1" d="M132.547 51.1311H125.493C125.648 52.2526 125.692 53.3868 125.625 54.517C126.702 55.2748 127.965 55.725 129.278 55.8195C130.592 55.9139 131.906 55.649 133.08 55.0531C132.403 53.8003 131.991 52.3782 132.547 51.1311Z" fill="black"/>
<path d="M129.773 55.688C133.642 55.688 136.779 52.5513 136.779 48.6819C136.779 44.8125 133.642 41.6757 129.773 41.6757C125.904 41.6757 122.767 44.8125 122.767 48.6819C122.767 52.5513 125.904 55.688 129.773 55.688Z" fill="#EC8C9C"/>
<path opacity="0.1" d="M128.317 47.4347C129.099 47.3416 129.88 47.0651 130.651 47.2203C131.351 47.3613 131.946 47.8438 132.646 47.9906C133.994 48.2727 135.247 47.2795 136.266 46.354L138.467 44.3506C138.955 43.9076 139.457 43.4421 139.708 42.8326C139.959 42.2231 139.872 41.4218 139.336 41.038C138.532 40.4737 137.146 41.038 136.565 40.2367C136.303 39.8755 136.342 39.3902 136.207 38.9585C135.924 38.0951 134.954 37.6238 134.045 37.6126C133.137 37.6013 132.268 37.9342 131.399 38.1769C129.568 38.708 127.653 38.8908 125.755 38.7158C125.243 38.622 124.716 38.6403 124.212 38.7694C123.901 38.902 123.626 39.1056 123.408 39.3639C123.191 39.6221 123.037 39.9279 122.959 40.2564C122.524 41.7914 123.267 44.266 124.011 45.6401C124.756 47.0143 126.83 47.6181 128.317 47.4347Z" fill="black"/>
<path d="M128.317 47.2428C129.099 47.1497 129.88 46.8732 130.651 47.0284C131.351 47.1695 131.946 47.652 132.646 47.7987C133.994 48.0809 135.247 47.0876 136.266 46.1621L138.467 44.1588C138.955 43.7158 139.457 43.2502 139.708 42.6407C139.959 42.0312 139.872 41.2299 139.336 40.8462C138.532 40.2818 137.146 40.8462 136.565 40.0448C136.303 39.6836 136.342 39.1983 136.207 38.7666C135.924 37.9032 134.954 37.432 134.045 37.4207C133.137 37.4094 132.268 37.7423 131.399 37.985C129.568 38.5161 127.653 38.6989 125.755 38.5239C125.243 38.4301 124.716 38.4484 124.212 38.5776C123.901 38.7101 123.626 38.9137 123.408 39.172C123.191 39.4303 123.037 39.736 122.959 40.0646C122.524 41.5995 123.267 44.0741 124.011 45.4483C124.756 46.8224 126.83 47.4121 128.317 47.2428Z" fill="#88455E"/>
<path opacity="0.1" d="M116.097 77.5276C116.097 77.5276 117.632 77.7194 118.399 78.6788C119.167 79.6382 120.51 79.926 120.51 79.926" fill="black"/>
<path opacity="0.1" d="M102.273 64.8555C102.273 64.8555 103.526 67.6518 102.753 67.934C101.98 68.2161 102.273 70.2364 102.273 70.2364" fill="black"/>
<g opacity="0.1">
<path opacity="0.1" d="M102.705 63.8962C102.705 63.8962 110.863 62.2653 111.145 62.2653C112.46 62.2653 114.576 60.4256 115.786 59.2631C116.154 58.9104 116.607 58.6587 117.101 58.5322H116.997C116.598 58.5198 116.201 58.5867 115.829 58.7291C115.456 58.8715 115.116 59.0866 114.827 59.3618C113.616 60.5243 111.497 62.364 110.185 62.364C109.957 62.364 104.737 63.3996 102.618 63.82L102.705 63.8962Z" fill="black"/>
<path opacity="0.1" d="M125.369 56.7687V56.4104C123.406 57.4109 121.295 58.0866 119.116 58.4109C121.278 58.2185 123.391 57.6633 125.369 56.7687V56.7687Z" fill="black"/>
<path opacity="0.1" d="M115.281 93.8423C115.281 93.8423 114.13 90.098 114.999 88.1793C115.868 86.2605 116.918 77.4288 116.918 77.4288L114.813 70.9023H110.769L110.524 70.9983H113.839L115.941 77.5276C115.941 77.5276 114.886 86.3593 114.023 88.278C113.159 90.1967 114.305 93.9411 114.305 93.9411L121.887 93.6589V93.5996L115.281 93.8423Z" fill="black"/>
</g>
<g opacity="0.1">
<path opacity="0.1" d="M145.611 90.6285C145.437 90.7783 145.248 90.9098 145.047 91.0207C143.805 91.7064 142.27 91.3029 139.942 88.9016C137.809 86.6923 137.188 83.2583 137.022 81.9576L136.966 82.9508C136.966 82.9508 137.248 87.6545 139.942 90.4366C142.27 92.8463 143.805 93.2413 145.047 92.5557C145.248 92.4448 145.437 92.3133 145.611 92.1635C146.015 91.8164 146.037 91.1646 145.826 90.352C145.773 90.4574 145.7 90.5514 145.611 90.6285V90.6285Z" fill="black"/>
<path opacity="0.1" d="M162.394 69.1755L159.677 72.316C159.447 72.5809 159.172 72.8026 158.864 72.9706V72.9706C158.47 73.1847 158.032 73.3054 157.583 73.3233C156.017 73.3882 153.297 73.4079 151 72.9593C147.883 72.3526 145.543 70.9644 143.78 71.7573C143.578 71.845 143.389 71.9578 143.216 72.0931C143.216 72.0931 141.666 76.9294 141.903 80.2222C142.087 77.1438 143.216 73.628 143.216 73.628C143.389 73.4928 143.578 73.38 143.78 73.2923C145.546 72.4994 147.883 73.8876 151 74.4943C153.297 74.9401 156.015 74.9204 157.583 74.8583C158.032 74.8404 158.47 74.7197 158.864 74.5056C159.171 74.3401 159.447 74.1213 159.677 73.8594L163.856 69.0372C163.64 69.1719 163.395 69.2545 163.141 69.2784C162.888 69.3024 162.632 69.2672 162.394 69.1755V69.1755Z" fill="black"/>
</g>
<path d="M39.6836 103.738C39.7171 103.77 39.7601 103.791 39.8064 103.797C39.8526 103.803 39.8996 103.794 39.9404 103.772C39.8536 103.773 39.767 103.762 39.6836 103.738V103.738Z" fill="url(#paint1_linear)"/>
<path d="M68.4391 56.9973C67.9312 56.8505 67.206 56.6107 66.3341 56.306C67.2402 55.1403 67.9032 53.8047 68.2839 52.3782L68.2105 52.4064C68.2359 52.319 68.2613 52.2343 68.2839 52.144C66.6107 52.8241 64.7597 51.6728 63.5802 50.1943C62.4008 48.7157 61.6051 46.8817 60.3127 45.5216C59.7742 44.9806 59.195 44.4816 58.5803 44.029C58.1993 43.7468 57.7902 43.428 57.3246 43.4139C56.5712 43.3913 55.9815 44.1306 55.2564 44.3478C54.7792 44.4552 54.2823 44.4367 53.8145 44.2942C51.9437 43.8653 50.1463 43.0724 48.2361 42.8636C47.2141 42.7374 46.1767 42.8544 45.2085 43.2051C44.2491 43.569 43.8118 44.2942 43.0358 44.8755C42.1893 45.4991 40.5358 45.4849 39.5511 45.595C38.3561 45.7315 37.1528 45.7815 35.9506 45.7445C35.2598 45.6846 34.5642 45.7102 33.8796 45.8207C32.449 46.1339 31.3006 47.271 30.2283 48.3602C29.9357 48.6066 29.725 48.9363 29.6245 49.3055C29.6108 49.4094 29.6108 49.5147 29.6245 49.6187C29.6137 49.9031 29.6627 50.1867 29.7684 50.451C30.0985 51.4305 30.5649 52.3585 31.1538 53.2078C31.5912 53.8342 32.1019 54.4239 32.3502 55.166C32.4679 55.5308 32.5298 55.9114 32.5336 56.2947C32.5215 56.7017 32.479 57.1073 32.4067 57.508C32.2173 58.6158 31.906 59.6994 31.4783 60.7388C31.2128 61.2723 31.0302 61.8432 30.9366 62.4318C30.9285 62.552 30.9285 62.6727 30.9366 62.7929C30.866 64.6552 32.7453 65.9955 33.1092 67.8465C33.1392 68.0001 33.1571 68.1557 33.1629 68.3121C33.1234 69.4661 32.4659 70.5948 31.4953 71.0434C31.5799 71.0773 31.6674 71.1055 31.7549 71.1337C31.6714 71.1861 31.5847 71.2333 31.4953 71.2748C31.673 71.3425 31.8536 71.4018 32.037 71.4497C30.9339 72.4106 30.0067 73.5564 29.2972 74.8357C26.0326 80.9135 3.92213 92.8181 3.92213 92.8181L4.24944 93.0043L3.98421 93.1764C2.07113 94.449 -2.41811 98.1595 1.63942 102.852C1.63942 102.852 4.80813 97.8519 7.02876 95.7215C7.12752 95.6256 7.22628 95.5381 7.31093 95.4563C7.35972 95.5314 7.39243 95.6158 7.40699 95.7042C7.42156 95.7926 7.41767 95.883 7.39558 95.9698L21.9327 87.8012C21.9327 87.8012 27.0991 84.1838 28.541 83.3684C29.5559 82.7361 30.6602 82.2605 31.8169 81.9576L31.6476 82.0281C32.1912 81.8786 32.7516 81.7989 33.3152 81.7911C35.8886 81.8306 38.6764 83.7154 39.5934 91.1787C40.8236 101.173 40.2537 102.976 39.8586 103.221C39.8099 103.218 39.7617 103.209 39.7147 103.196C39.7269 103.207 39.7402 103.216 39.7542 103.224C39.7007 103.221 39.6477 103.211 39.5962 103.196C39.6246 103.222 39.6593 103.241 39.6968 103.249C39.7344 103.258 39.7736 103.257 39.8107 103.247C39.8374 103.255 39.8655 103.257 39.8932 103.254C39.9209 103.251 39.9475 103.241 39.9715 103.227C40.0363 103.231 40.1013 103.231 40.1662 103.227C40.1662 103.319 40.1596 103.413 40.1464 103.509C40.1267 103.509 40.0307 103.563 40.1464 103.569C40.1154 104.133 40.1182 104.745 40.1464 105.386C38.8682 105.456 37.59 105.532 36.4783 105.6L36.5771 105.072L36.6222 104.835C37.6041 104.756 38.5353 104.469 38.6453 103.673C38.8852 101.924 36.4839 100.99 34.4411 100.874C32.3982 100.758 20.1466 101.574 20.1466 101.574C20.1466 101.574 18.3097 103.952 24.1364 104.677C24.3095 104.768 24.4891 104.862 24.6753 104.96C26.9581 106.26 30.0534 108.656 31.5376 109.835L31.7436 109.999L31.0777 110.541C34.6809 111.356 38.1656 125.126 40.0872 131.421C42.0087 137.716 46.213 137.488 49.6977 136.554C52.9624 135.679 53.3659 126.198 53.4195 125.007V124.886L59.2264 132.059L59.6666 132.603C59.8359 132.692 60.0033 132.774 60.1688 132.852C64.565 134.942 69.421 130.933 68.0412 126.362C66.6445 121.754 64.4775 114.94 63.0328 112.059C61.8223 109.646 60.2591 105.64 59.3111 103.131C59.4342 103.082 59.5539 103.024 59.6694 102.959C59.6694 102.959 59.6468 102.846 59.6102 102.64L59.6694 102.609C59.6694 102.609 58.2586 95.3519 58.1965 90.1939C58.1965 90.1037 58.1965 90.0096 58.1965 89.9118C58.1965 89.8553 58.1965 89.7989 58.1965 89.7453C59.2462 89.5055 59.9121 89.4123 59.9121 89.4123L59.9318 89.1866L59.8105 89.212L60.3946 82.5275C60.3946 82.5275 62.539 77.9649 60.8968 76.066C60.3976 75.5106 60.0642 74.8263 59.9346 74.0908C59.6525 72.3442 59.9346 69.4294 63.758 67.0085C69.6439 63.2754 71.9408 60.2365 71.9408 60.2365C71.9408 60.2365 72.0423 58.0582 68.4391 56.9973ZM56.749 61.636V58.5464C57.841 58.4927 58.9555 58.6197 60.0532 58.5464C60.592 58.5087 61.1259 58.4189 61.6474 58.2783L61.9126 58.4617C60.3068 59.6969 58.5761 60.7608 56.749 61.636V61.636ZM40.059 110.067C40.4907 110.366 40.9252 110.676 41.3513 110.989C41.6165 112.513 41.8507 113.588 41.8676 113.664C41.3807 112.41 40.775 111.206 40.059 110.067V110.067Z" fill="url(#paint2_linear)"/>
<path d="M49.3873 107.527L49.1333 108.907L48.9386 109.962L48.5831 111.892L45.1351 114.305C45.1351 114.305 44.8247 114.04 44.3111 113.619C42.9003 112.457 39.9291 110.098 37.748 108.822C37.1875 108.465 36.5809 108.185 35.9449 107.99L49.3873 107.527Z" fill="#FFBDC6"/>
<path opacity="0.1" d="M49.3873 107.527L49.1333 108.907C48.3733 108.949 47.6109 108.911 46.8591 108.791L38.8146 108.907C38.4337 108.885 38.0781 108.853 37.7452 108.82C37.1847 108.462 36.5781 108.182 35.9421 107.987L49.3873 107.527Z" fill="black"/>
<path d="M46.8591 108.566C46.8591 108.566 50.8828 109.254 51.1114 107.53C51.3399 105.806 49.0431 104.898 47.0933 104.768C45.1436 104.638 33.414 105.462 33.414 105.462C33.414 105.462 31.3457 108.219 38.8146 108.679L46.8591 108.566Z" fill="#7679B4"/>
<path opacity="0.1" d="M49.3873 107.527L49.1333 108.907L48.9386 109.962L48.5831 111.892L45.1351 114.305C45.1351 114.305 44.8247 114.04 44.3111 113.619C42.9003 112.457 39.9291 110.098 37.748 108.822C37.1875 108.465 36.5809 108.185 35.9449 107.99L49.3873 107.527Z" fill="black"/>
<path opacity="0.1" d="M49.3873 107.527L49.1333 108.907C48.3733 108.949 47.6109 108.911 46.8591 108.791L38.8146 108.907C38.4337 108.885 38.0781 108.853 37.7452 108.82C37.1847 108.462 36.5781 108.182 35.9421 107.987L49.3873 107.527Z" fill="black"/>
<path opacity="0.1" d="M46.8591 108.566C46.8591 108.566 50.8828 109.254 51.1114 107.53C51.3399 105.806 49.0431 104.898 47.0933 104.768C45.1436 104.638 33.414 105.462 33.414 105.462C33.414 105.462 31.3457 108.219 38.8146 108.679L46.8591 108.566Z" fill="black"/>
<path d="M55.6485 51.9042H34.6188V76.8419H55.6485V51.9042Z" fill="#A66477"/>
<path opacity="0.1" d="M55.6485 51.9042H34.6188V76.8419H55.6485V51.9042Z" fill="black"/>
<path d="M9.96886 94.5985C9.6218 94.686 9.18162 95.0189 8.68783 95.5043C6.56313 97.6036 3.53268 102.527 3.53268 102.527C-0.349904 97.9055 3.94746 94.2515 5.79 92.9958C6.23582 92.6911 6.53491 92.5274 6.53491 92.5274L9.96886 94.5985Z" fill="#FFBDC6"/>
<path d="M49.1587 59.7766C49.1587 59.7766 50.1942 67.0169 53.7552 68.741C57.3161 70.465 49.1587 73.6817 49.1587 73.6817L38.0104 69.5451C38.0104 69.5451 44.3309 67.4769 43.0668 61.3849L49.1587 59.7766Z" fill="#FFBDC6"/>
<path d="M37.2175 103.332L36.9635 104.711L36.7688 105.767L36.4133 107.697L32.9652 110.109C32.9652 110.109 32.6549 109.844 32.1413 109.423C30.7305 108.261 27.7593 105.902 25.5782 104.627C25.0177 104.269 24.4111 103.989 23.7751 103.794L37.2175 103.332Z" fill="#FFBDC6"/>
<path opacity="0.1" d="M37.2175 103.332L36.9635 104.711C36.2035 104.754 35.4411 104.715 34.6893 104.596L26.6448 104.711C26.2639 104.689 25.9083 104.658 25.5754 104.624C25.0149 104.266 24.4083 103.986 23.7723 103.791L37.2175 103.332Z" fill="black"/>
<path d="M34.678 104.367C34.678 104.367 38.7017 105.056 38.9302 103.332C39.1588 101.607 36.862 100.688 34.9066 100.575C32.9512 100.462 21.23 101.263 21.23 101.263C21.23 101.263 19.1618 104.02 26.6307 104.48L34.678 104.367Z" fill="#7679B4"/>
<path opacity="0.1" d="M36.7576 105.769L36.4021 107.699L32.954 110.112C32.954 110.112 32.6437 109.847 32.1301 109.426L36.6899 105.688L36.7576 105.769Z" fill="black"/>
<path d="M59.5085 132.078C59.3505 132.001 59.1906 131.92 59.0288 131.833L58.6084 131.297L53.0554 124.243V124.367C53.0187 125.538 52.618 134.878 49.4973 135.738C46.1649 136.658 42.1412 136.887 40.3043 130.682C38.4674 124.477 35.1323 110.916 31.6842 110.112L36.797 105.916C36.797 105.916 40.183 109.866 41.5656 113.67C41.5148 113.427 39.1757 102.505 41.1057 100.575H57.8832C57.8832 100.575 60.4678 107.951 62.2511 111.607C63.6337 114.446 65.7076 121.156 67.0479 125.696C68.3741 130.188 63.7409 134.138 59.5085 132.078Z" fill="#7679B4"/>
<path opacity="0.1" d="M59.0401 102.64C56.4526 104.172 45.0758 103.549 41.3681 103.3L40.3608 103.227C40.2507 103.227 40.3777 103.165 40.3777 103.165L40.4821 102.121L43.2389 95.1121L58.0074 86.5568C57.7083 87.4569 57.6067 88.8367 57.6321 90.4197C57.7055 95.493 59.0401 102.64 59.0401 102.64Z" fill="black"/>
<path d="M59.0401 102.299C56.4527 103.831 45.0758 103.207 41.3681 102.959L40.3608 102.886H40.1943L40.3777 102.838L41.2863 102.598L43.2389 94.7819L58.0074 86.2211C57.7083 87.1212 57.6067 88.501 57.6321 90.0839C57.7055 95.1488 59.0401 102.299 59.0401 102.299Z" fill="#F2F1F2"/>
<path opacity="0.1" d="M57.6321 90.0726C54.6299 90.7639 48.0216 92.7983 45.4821 97.6911C43.7891 100.959 42.3783 102.361 41.371 102.948L40.3636 102.874L40.3806 102.812L41.2891 102.573L43.2417 94.7565L58.0102 86.1957C57.7055 87.1212 57.6067 88.4897 57.6321 90.0726Z" fill="black"/>
<path opacity="0.1" d="M6.52079 92.5303L9.96884 94.5985C9.62178 94.686 9.1816 95.019 8.68782 95.5043C8.40565 94.6578 6.59416 93.4953 5.77588 92.9987C6.2217 92.6939 6.52079 92.5303 6.52079 92.5303Z" fill="black"/>
<path opacity="0.1" d="M39.7569 103.018C39.7185 103.04 39.6742 103.048 39.6305 103.043C39.5868 103.037 39.5461 103.018 39.5143 102.987C39.5932 103.01 39.675 103.02 39.7569 103.018V103.018Z" fill="black"/>
<path d="M47.5476 68.281C47.5476 68.281 44.4438 68.6253 42.2598 66.3284C42.2598 66.3284 33.0669 68.9723 29.9631 74.9486C26.8593 80.9248 5.71387 92.6459 5.71387 92.6459C5.71387 92.6459 9.38201 94.7142 9.04623 95.7497L22.9513 87.7052C22.9513 87.7052 27.892 84.1415 29.2718 83.3373C30.6516 82.5332 38.2362 77.5925 39.8445 91.0376C41.4528 104.483 39.8445 102.889 39.8445 102.889C39.8445 102.889 42.1442 103.693 45.4878 97.2452C48.8315 90.7978 59.1643 89.3164 59.1643 89.3164L59.7287 82.5444C59.7287 82.5444 61.78 78.0524 60.2083 76.1788C59.7291 75.6275 59.4108 74.9549 59.2885 74.2347C59.0261 72.5135 59.2885 69.6439 62.9566 67.2596C68.5999 63.5914 70.7726 60.5949 70.7726 60.5949C70.7726 60.5949 70.8883 58.4109 67.4402 57.3782C63.9922 56.3455 49.9714 50.7135 49.9714 50.7135L49.5115 52.666L60.5441 60.482C60.5441 60.482 55.0278 64.9628 50.6684 64.8499C50.6514 64.8302 51.4556 68.1653 47.5476 68.281Z" fill="#565388"/>
<path opacity="0.1" d="M49.6779 62.9284C49.4062 62.0024 49.1942 61.0599 49.0431 60.1067L42.9511 61.7263C43.2178 62.8888 43.1701 64.1014 42.8129 65.2393C44.0579 65.5714 45.3732 65.5291 46.5943 65.1176C47.8153 64.706 48.888 63.9436 49.6779 62.9255V62.9284Z" fill="black"/>
<path d="M44.6186 65.1208C48.2371 65.1208 51.1705 62.1874 51.1705 58.5689C51.1705 54.9504 48.2371 52.0171 44.6186 52.0171C41.0001 52.0171 38.0668 54.9504 38.0668 58.5689C38.0668 62.1874 41.0001 65.1208 44.6186 65.1208Z" fill="#FFBDC6"/>
<path opacity="0.1" d="M48.1006 43.6678C49.9178 43.8738 51.6474 44.6554 53.4364 45.0786C53.8833 45.2188 54.3596 45.2373 54.8161 45.1322C55.5103 44.9178 56.0746 44.1898 56.7913 44.2124C57.2343 44.2124 57.6378 44.5284 57.9933 44.819C58.5823 45.2659 59.136 45.7574 59.6496 46.2891C60.8827 47.6294 61.6502 49.4353 62.776 50.8912C63.9018 52.3472 65.6767 53.4815 67.2765 52.8128C66.1902 57.0452 62.6236 60.2817 58.7693 60.5441C57.2315 60.6485 55.6655 60.3296 54.1672 60.7811C53.7959 60.9325 53.404 61.0276 53.0046 61.0633C52.1582 61.0633 51.4584 60.276 50.9223 59.5114C49.6695 57.7111 48.665 55.6683 47.2541 54.0289C46.7886 53.4871 46.2383 52.9708 45.5809 52.872C44.9234 52.7733 44.3168 53.0865 43.7299 53.3912C42.7621 53.8935 41.7717 54.4126 41.0211 55.2704C40.2706 56.1282 39.7965 57.412 40.1069 58.5746C40.2734 59.201 40.6571 59.7653 40.6712 60.4227C40.6712 61.4668 39.7627 62.2314 39.5792 63.2444C39.5388 63.672 39.5238 64.1017 39.5341 64.5311C39.4523 65.925 38.5437 67.0705 37.59 67.9424C37.2204 68.2839 36.8084 68.6478 36.7012 69.1755C36.6278 69.5338 36.7012 69.9148 36.6532 70.2788C36.5149 71.1845 35.612 71.6416 34.8135 71.7601C33.8809 71.8968 32.9287 71.7839 32.0539 71.4328C33.1826 70.9052 33.8569 69.4012 33.5974 68.0468C33.2418 66.1817 31.3683 64.8443 31.5263 62.9425C31.6146 62.3601 31.7896 61.7942 32.0454 61.2636C32.4543 60.2376 32.7514 59.1705 32.9314 58.0808C33.1161 57.2421 33.0977 56.3714 32.8778 55.5413C32.638 54.8105 32.1498 54.2292 31.7322 53.6113C31.1667 52.7712 30.7204 51.8567 30.4061 50.894C30.2922 50.6095 30.2486 50.3017 30.2791 49.9968C30.3701 49.637 30.5666 49.3127 30.8434 49.0656C31.8705 47.9906 32.9709 46.8704 34.3366 46.56C34.9891 46.4513 35.6528 46.4257 36.3118 46.4838C37.4622 46.5204 38.6138 46.4714 39.757 46.3371C40.6994 46.227 42.2965 46.2412 43.0922 45.626C43.8343 45.0617 44.2547 44.3422 45.1718 43.981C46.1077 43.6384 47.1134 43.5308 48.1006 43.6678V43.6678Z" fill="black"/>
<path opacity="0.1" d="M51.7434 111.32C51.7434 111.32 55.5357 118.789 54.3873 121.088Z" fill="black"/>
<path opacity="0.1" d="M58.6197 131.297L53.0667 124.243V124.367C53.0667 124.367 52.7451 122.087 53.8032 122.855C56.1198 124.531 59.8274 127.279 59.9064 127.753C59.9854 128.227 59.1559 130.129 58.6197 131.297Z" fill="black"/>
<g opacity="0.1">
<path opacity="0.1" d="M50.7613 64.8301C50.7613 64.8301 51.2297 66.7714 49.7145 67.7421C52.048 67.3414 52.1496 65.5271 52.079 64.737C51.6435 64.8075 51.2024 64.8387 50.7613 64.8301V64.8301Z" fill="black"/>
<path opacity="0.1" d="M7.09639 92.186C7.09639 92.186 28.2418 80.4649 31.3456 74.4887C33.5719 70.1998 38.9358 67.6292 41.7857 66.5175C39.7062 67.2144 32.7085 69.8865 30.0787 74.9486C26.9749 80.9248 5.82947 92.646 5.82947 92.646L7.09639 92.186Z" fill="black"/>
<path opacity="0.1" d="M54.8753 63.9188C58.4729 62.7901 61.9125 60.0051 61.9125 60.0051L50.8798 52.1892L51.1309 51.1169L50.0757 50.6937L49.6157 52.6463L60.6484 60.4622C58.8779 61.8539 56.9381 63.0154 54.8753 63.9188V63.9188Z" fill="black"/>
<path opacity="0.1" d="M54.9459 90.4027C56.3556 89.9215 57.8023 89.5563 59.2715 89.3108L59.2913 89.0878C57.811 89.413 56.3581 89.8526 54.9459 90.4027V90.4027Z" fill="black"/>
<path opacity="0.1" d="M41.5741 102.443H41.4725C41.434 102.464 41.3897 102.473 41.346 102.467C41.3024 102.462 41.2616 102.442 41.2298 102.412C41.3088 102.434 41.3905 102.444 41.4725 102.443C41.8506 102.223 42.4177 100.507 41.2298 90.5749C39.9601 79.9711 34.9771 80.8035 32.2485 82.0225C35.0363 81.255 38.8738 81.918 39.9657 91.0348C41.1536 100.967 40.5865 102.685 40.2084 102.903C40.6985 102.884 41.1728 102.725 41.5741 102.443Z" fill="black"/>
<path opacity="0.1" d="M40.2084 102.905C40.1264 102.907 40.0447 102.896 39.9657 102.874C39.9975 102.905 40.0382 102.924 40.0819 102.93C40.1256 102.935 40.1699 102.927 40.2084 102.905V102.905Z" fill="black"/>
</g>
<path d="M48.1006 43.4449C49.9178 43.6509 51.6474 44.4325 53.4364 44.8557C53.8833 44.9959 54.3596 45.0144 54.8161 44.9093C55.5103 44.6949 56.0746 43.9669 56.7913 43.9895C57.2343 43.9895 57.6378 44.3055 57.9933 44.5961C58.5823 45.043 59.136 45.5344 59.6496 46.0662C60.8827 47.4065 61.6502 49.2123 62.776 50.6683C63.9018 52.1243 65.6767 53.2586 67.2765 52.5898C66.1902 56.8223 62.6236 60.0587 58.7693 60.3212C57.2315 60.4256 55.6655 60.1067 54.1672 60.5582C53.7959 60.7096 53.404 60.8047 53.0046 60.8403C52.1582 60.8403 51.4584 60.0531 50.9223 59.2884C49.6695 57.4882 48.665 55.4454 47.2541 53.806C46.7886 53.2642 46.2383 52.7479 45.5809 52.6491C44.9234 52.5503 44.3168 52.8636 43.7299 53.1683C42.7621 53.6705 41.7717 54.1897 41.0211 55.0475C40.2706 55.9053 39.7965 57.1891 40.1069 58.3517C40.2734 58.9781 40.6571 59.5424 40.6712 60.1998C40.6712 61.2438 39.7627 62.0085 39.5792 63.0215C39.5388 63.4491 39.5238 63.8787 39.5341 64.3081C39.4523 65.702 38.5437 66.8476 37.59 67.7195C37.2204 68.0609 36.8084 68.4249 36.7012 68.9526C36.6278 69.3109 36.7012 69.6918 36.6532 70.0558C36.5149 70.9616 35.612 71.4187 34.8135 71.5372C33.8809 71.6739 32.9287 71.561 32.0539 71.2099C33.1826 70.6822 33.8569 69.1783 33.5974 67.8239C33.2418 65.9588 31.3683 64.6213 31.5263 62.7196C31.6146 62.1372 31.7896 61.5713 32.0454 61.0407C32.4543 60.0147 32.7514 58.9476 32.9314 57.8579C33.1161 57.0192 33.0977 56.1485 32.8778 55.3184C32.638 54.5876 32.1498 54.0063 31.7322 53.3884C31.1667 52.5483 30.7204 51.6338 30.4061 50.6711C30.2922 50.3866 30.2486 50.0788 30.2791 49.7739C30.3701 49.4141 30.5666 49.0898 30.8434 48.8427C31.8705 47.7677 32.9709 46.6475 34.3366 46.3371C34.9891 46.2284 35.6528 46.2028 36.3118 46.2609C37.4622 46.2975 38.6138 46.2485 39.757 46.1142C40.6994 46.0041 42.2965 46.0182 43.0922 45.4031C43.8343 44.8388 44.2547 44.1193 45.1718 43.7581C46.1077 43.4155 47.1134 43.3079 48.1006 43.4449V43.4449Z" fill="#A66477"/>
<path d="M235.184 28.7385C235.184 28.7018 235.184 28.6679 235.184 28.6341C235.184 28.6002 235.184 28.5607 235.167 28.5268H235.122C235.122 28.4507 235.122 28.3745 235.122 28.2927C235.009 25.677 231.392 20.1099 229.942 21.7351C228.672 23.1629 230.588 26.7746 231.564 28.3999L231.652 28.5466L231.604 28.5156C231.604 28.5156 227.566 40.5584 227.089 41.0267C226.612 41.4951 223.288 50.9646 218.906 52.0312C218.04 52.2372 217.32 52.4234 216.717 52.5955L216.765 52.4347C217.047 51.512 217.394 50.6401 217.535 49.613C217.676 48.5859 217.535 47.3416 217.016 46.8422C216.762 46.5939 216.451 46.56 216.243 46.165C216.107 45.8185 216.034 45.4506 216.028 45.0786L215.656 40.5132L215.915 40.4342C217.484 39.9319 219.005 38.7412 219.183 37.1385C219.128 37.1592 219.073 37.1771 219.016 37.1921C219.037 37.0989 219.053 37.0048 219.064 36.91C217.746 37.4291 216.525 36.0635 215.255 35.4512C213.164 34.4269 210.774 35.3919 208.616 35.6261C206.169 35.8942 203.847 34.8784 201.347 35.0618C199.987 35.1662 198.475 36.0889 198.548 37.4291C198.59 38.1656 199.112 38.7892 199.327 39.4946C199.869 41.2017 198.664 42.9144 197.608 44.3704C196.914 45.3269 196.248 46.4923 196.13 47.6153C193.7 45.0758 191.073 42.1413 190.769 41.038L183.74 28.9952C183.74 28.9952 183.574 29.173 183.305 29.4354C183.263 29.3056 183.212 29.1533 183.156 29.0009C182.259 26.4868 179.719 20.3949 176.5 21.5122C173.28 22.6296 177.834 28.8739 179.815 31.3626L180.097 31.7068C179.931 31.7477 179.757 31.7398 179.595 31.6843L187.434 45.1294C187.434 45.1294 188.858 47.7028 190.165 48.4025C190.165 48.4025 199.902 60.6795 200.021 63.1343C200.139 65.5892 204.4 72.1382 204.4 72.1382C204.4 72.1382 205.825 82.7787 203.331 84.6494H203.362H203.381H203.413H203.441H203.497H203.534H203.571H203.618H203.658H203.714H203.743C203.624 84.7651 203.503 84.8921 203.379 85.0303C201.53 87.0788 199.169 91.4693 202.397 98.9354C207.146 109.94 207.859 114.251 207.859 114.251C207.859 114.251 198.83 114.72 197.053 115.07C195.478 115.38 189.358 115.597 187.958 115.634C187.459 115.053 185.983 113.766 183.991 115.634C181.497 117.973 179.716 125.792 179.716 125.792C179.716 125.792 178.765 132.107 181.974 130.467C181.974 130.467 185.774 125.205 186.841 124.971C187.371 124.855 187.933 124.073 188.362 123.32L188.384 123.334C188.41 123.334 188.514 123.278 188.684 123.21C189.474 122.897 191.649 122.143 193.365 122.519C194.304 122.725 198.334 122.773 202.558 122.761C201.604 125.047 199.894 130.944 199.894 130.944C199.894 130.944 199.18 136.444 201.55 136.218C203.243 136.051 205.839 131.726 207.194 129.257C208.175 128.537 210.989 125.958 213.068 126.153L227.08 120.775C227.08 120.775 230.404 118.904 228.624 112.708C227.213 107.781 223.198 97.6967 221.612 93.7661L221.564 93.6646C221.18 92.7137 220.949 92.1493 220.949 92.1493C220.298 90.355 219.87 88.487 219.676 86.5879C219.662 86.4383 219.651 86.286 219.64 86.1364C219.836 86.054 220.021 85.9469 220.19 85.8176C220.19 85.8176 218.884 72.6066 220.19 71.2014L220.213 71.176V71.1591L220.235 71.1309L220.286 71.066L220.348 70.987C220.419 70.8939 220.503 70.7782 220.599 70.6371C221.347 69.5423 222.741 67.0423 222.34 64.0909C222.323 63.963 222.302 63.8341 222.278 63.7043C222.125 62.9039 221.851 62.1314 221.465 61.4131C221.409 61.1141 221.374 60.8114 221.361 60.5074C221.361 60.3353 221.361 60.1462 221.361 59.9431V59.9092C221.361 59.8547 221.361 59.8001 221.361 59.7456V59.706C221.361 59.5734 221.384 59.4239 221.403 59.2997V59.2489C221.403 59.1982 221.412 59.1464 221.429 59.0938V59.0289C221.429 58.9781 221.451 58.9273 221.463 58.8765V58.8229C221.48 58.7552 221.496 58.6874 221.519 58.6197V58.5859C221.536 58.5294 221.555 58.4739 221.575 58.4194L221.601 58.3545L221.657 58.219L221.686 58.1513C221.708 58.1005 221.733 58.0497 221.759 57.999L221.779 57.9566C221.812 57.8946 221.848 57.8334 221.886 57.7732L221.917 57.7253L222.01 57.5926L222.055 57.5334L222.154 57.4149L222.199 57.3641C222.25 57.3105 222.301 57.2569 222.357 57.2061C223.9 55.7952 230.788 45.3975 230.788 45.3975C230.788 45.3975 232.45 43.0583 232.45 41.5403C232.543 41.5064 235.481 31.7153 235.184 28.7385ZM216.694 116.139C216.525 114.536 216.355 112.55 216.2 110.496L218.886 114.683C218.886 114.683 218.632 115.958 216.694 116.139Z" fill="url(#paint3_linear)"/>
<path d="M188.686 115.253C188.686 115.253 187.078 112.714 184.663 115.024C182.247 117.335 180.526 125.022 180.526 125.022C180.526 125.022 179.606 131.229 182.71 129.618C182.71 129.618 186.378 124.446 187.422 124.217C188.466 123.989 189.606 121.114 189.606 121.114L188.686 115.253Z" fill="#493545"/>
<path d="M205.924 121.458C205.924 121.458 203.74 120.422 203.051 121.229C202.363 122.036 200.063 130.078 200.063 130.078C200.063 130.078 199.375 135.366 201.672 135.134C203.968 134.903 207.992 126.624 207.992 126.624L205.924 121.458Z" fill="#493545"/>
<path opacity="0.05" d="M205.924 121.458C205.924 121.458 203.74 120.422 203.051 121.229C202.363 122.036 200.063 130.078 200.063 130.078C200.063 130.078 199.375 135.366 201.672 135.134C203.968 134.903 207.992 126.624 207.992 126.624L205.924 121.458Z" fill="black"/>
<path d="M213.508 105.829L218.449 113.529C218.449 113.529 218.105 115.253 215.117 114.909L204.888 121.345C204.888 121.345 203.999 129.181 206.841 128.47C207.301 128.354 210.509 125.022 212.817 125.253L226.381 119.965C226.381 119.965 229.597 118.125 227.873 112.036C226.149 105.947 220.45 91.8277 220.45 91.8277L211.44 96.8671L213.508 105.829Z" fill="#3E3D77"/>
<path opacity="0.05" d="M213.508 105.829L218.449 113.529C218.449 113.529 218.105 115.253 215.117 114.909L204.888 121.345C204.888 121.345 203.999 129.181 206.841 128.47C207.301 128.354 210.509 125.022 212.817 125.253L226.381 119.965C226.381 119.965 229.597 118.125 227.873 112.036C226.149 105.947 220.45 91.8277 220.45 91.8277L211.44 96.8671L213.508 105.829Z" fill="black"/>
<path d="M216.612 117.206C217.301 121.573 213.396 121.918 213.396 121.918C213.396 121.918 195.811 122.262 193.743 121.802C191.674 121.342 188.915 122.606 188.915 122.606C185.351 120.422 188.226 115.022 188.226 115.022C188.226 115.022 195.582 114.793 197.306 114.457C199.031 114.122 207.764 113.645 207.764 113.645C207.764 113.645 207.075 109.392 202.476 98.5912C199.352 91.2549 201.629 86.9377 203.427 84.9259C203.885 84.3921 204.416 83.9248 205.004 83.5377L219.14 84.2261C219.125 84.9391 219.152 85.6523 219.219 86.3621C219.461 88.7992 220.095 91.1812 221.096 93.4163C220.292 93.4163 215.12 98.2441 215.12 98.2441C215.12 98.2441 215.921 112.84 216.612 117.206Z" fill="#3E3D77"/>
<path opacity="0.1" d="M189.259 115.482C189.259 115.482 196.615 115.253 198.339 114.917C200.063 114.581 208.796 114.113 208.796 114.113C208.796 114.113 208.108 109.861 203.508 99.0596C200.385 91.7233 202.662 87.4062 204.459 85.3943C204.918 84.8605 205.449 84.3932 206.037 84.0061L219.135 84.6438C219.135 84.5083 219.135 84.3616 219.135 84.2346L204.998 83.5461C204.411 83.9333 203.88 84.4006 203.421 84.9344C201.632 86.9491 199.347 91.2633 202.47 98.5996C207.081 109.392 207.764 113.645 207.764 113.645C207.764 113.645 199.016 114.105 197.306 114.449C195.597 114.793 188.226 115.013 188.226 115.013C188.226 115.013 185.354 120.417 188.915 122.609C188.915 122.609 189.022 122.558 189.197 122.485C186.83 120.05 189.259 115.482 189.259 115.482Z" fill="black"/>
<path d="M210.289 41.3569H203.164V59.3985H210.289V41.3569Z" fill="#493545"/>
<path opacity="0.1" d="M210.289 41.3569H203.164V59.3985H210.289V41.3569Z" fill="black"/>
<path d="M214.363 38.7102C214.609 38.7779 214.885 38.7864 215.052 39.125C215.155 39.3956 215.212 39.6819 215.218 39.9715L215.667 45.547C215.673 45.9121 215.744 46.2731 215.876 46.6136C216.065 46.9917 216.378 47.0369 216.624 47.2795C217.117 47.7705 217.261 49.0007 217.126 50.0024C216.99 51.0041 216.649 51.8619 216.381 52.7676C215.997 54.0656 215.743 55.5244 215.204 56.6192C214.665 57.714 213.686 58.3122 213.054 57.3923C212.422 56.4725 212.507 54.6158 212.388 53.0949C212.191 50.5555 211.2 48.3659 211.133 45.8094C211.076 43.7412 211.632 41.8112 211.979 39.8501C212.227 38.5042 212.242 36.8705 212.603 35.66C212.905 37.099 213.48 38.4675 214.363 38.7102Z" fill="#493545"/>
<path opacity="0.1" d="M214.363 38.7102C214.609 38.7779 214.885 38.7864 215.052 39.125C215.155 39.3956 215.212 39.6819 215.218 39.9715L215.667 45.547C215.673 45.9121 215.744 46.2731 215.876 46.6136C216.065 46.9917 216.378 47.0369 216.624 47.2795C217.117 47.7705 217.261 49.0007 217.126 50.0024C216.99 51.0041 216.649 51.8619 216.381 52.7676C215.997 54.0656 215.743 55.5244 215.204 56.6192C214.665 57.714 213.686 58.3122 213.054 57.3923C212.422 56.4725 212.507 54.6158 212.388 53.0949C212.191 50.5555 211.2 48.3659 211.133 45.8094C211.076 43.7412 211.632 41.8112 211.979 39.8501C212.227 38.5042 212.242 36.8705 212.603 35.66C212.905 37.099 213.48 38.4675 214.363 38.7102Z" fill="black"/>
<path d="M184.203 30.7842L181.446 33.0838C181.446 33.0838 181.119 32.7001 180.631 32.0793C178.715 29.6329 174.31 23.4958 177.422 22.3982C180.535 21.3006 182.995 27.2853 183.864 29.7571C184.084 30.3835 184.203 30.7842 184.203 30.7842Z" fill="#C77485"/>
<path d="M233.965 29.98C232.817 31.704 231.209 29.98 231.209 29.98C231.209 29.98 231.003 29.6724 230.712 29.1758C229.767 27.576 227.913 24.0292 229.14 22.624C230.551 21.0185 234.047 26.4981 234.154 29.0686C234.188 29.3847 234.121 29.7032 233.965 29.98V29.98Z" fill="#C77485"/>
<path d="M205.693 48.5972C205.693 48.5972 207.992 55.9533 207.301 58.1344C206.61 60.3155 212.244 62.855 212.244 62.855H218.681C218.681 62.855 220.98 58.1429 220.405 56.7631C219.829 55.3833 214.888 54.3506 214.888 54.3506C214.888 54.3506 212.016 54.3506 212.131 46.6503L205.693 48.5972Z" fill="#C77485"/>
<path opacity="0.1" d="M184.203 30.7842L181.446 33.0838C181.446 33.0838 181.119 32.7001 180.63 32.0793C181.632 31.9015 183.187 30.4399 183.867 29.7571C184.084 30.3835 184.203 30.7842 184.203 30.7842Z" fill="black"/>
<path opacity="0.1" d="M233.965 29.98C232.817 31.704 231.209 29.98 231.209 29.98C231.209 29.98 231.003 29.6724 230.712 29.1758L230.749 29.0602C231.494 29.5934 233.81 29.1392 234.154 29.0602C234.189 29.379 234.123 29.7008 233.965 29.98V29.98Z" fill="black"/>
<path opacity="0.1" d="M219.214 86.3593C215.659 87.9818 204.107 85.0924 203.413 84.9203C203.871 84.3864 204.402 83.9192 204.99 83.532L219.126 84.2205C219.114 84.9345 219.143 85.6487 219.214 86.3593V86.3593Z" fill="black"/>
<path d="M207.188 54.9177C207.188 54.9177 204.431 55.8376 200.523 52.2738C200.523 52.2738 191.776 43.6537 191.212 41.5854L184.44 29.7345C184.44 29.7345 181.567 32.8383 180.416 32.3784L188.001 45.595C188.001 45.595 189.381 48.1345 190.645 48.8117C190.645 48.8117 200.069 60.8799 200.182 63.2924C200.295 65.7049 204.428 72.1665 204.428 72.1665C204.428 72.1665 205.808 82.6235 203.393 84.4632C203.393 84.4632 216.838 87.9112 219.711 85.6116C219.711 85.6116 218.446 72.632 219.711 71.2466C219.711 71.2466 223.618 66.6501 220.975 61.5937C220.975 61.5937 220.41 58.837 221.894 57.4572C223.379 56.0774 230.055 45.849 230.055 45.849C230.055 45.849 231.663 43.5493 231.663 42.0567C231.663 42.0567 234.651 31.9439 234.202 29.3C234.202 29.3 231.559 29.8643 230.754 29.3C230.754 29.3 226.846 41.1509 226.387 41.5967C225.927 42.0425 222.718 51.3653 218.458 52.4008C214.197 53.4364 213.517 53.8935 213.517 53.8935C213.517 53.8935 221.79 59.0655 217.769 61.3624C213.748 63.6592 207.188 54.9177 207.188 54.9177Z" fill="#FFAAC4"/>
<path opacity="0.1" d="M212.411 50.3664C212.274 49.2838 212.218 48.1926 212.244 47.1017L205.808 49.0543C205.977 49.4831 206.112 49.9247 206.211 50.3749C206.948 50.6993 207.941 51.4668 208.796 51.4668C210.089 51.5091 211.36 51.1222 212.411 50.3664V50.3664Z" fill="black"/>
<path d="M208.68 51.1254C211.981 51.1254 214.657 48.4497 214.657 45.1492C214.657 41.8486 211.981 39.1729 208.68 39.1729C205.38 39.1729 202.704 41.8486 202.704 45.1492C202.704 48.4497 205.38 51.1254 208.68 51.1254Z" fill="#C77485"/>
<path opacity="0.1" d="M201.57 35.9421C200.255 36.0437 198.788 36.9523 198.861 38.27C198.901 38.9952 199.397 39.6075 199.615 40.3016C200.137 41.9805 198.974 43.665 197.953 45.0984C196.931 46.5318 195.978 48.4307 196.852 49.9488C197.102 50.3143 197.371 50.6656 197.659 51.0013C198.74 52.46 198.726 54.4296 199.205 56.1818C199.818 58.4235 201.266 60.3454 203.252 61.5525C205.238 62.7595 207.611 63.16 209.883 62.6716C209.027 61.5798 208.601 60.213 208.683 58.8285C208.748 57.824 209.073 56.7743 208.683 55.846C208.181 54.6525 206.708 54.1813 205.949 53.1372C205.19 52.0932 205.241 50.6457 205.608 49.4014C205.975 48.157 206.609 47.003 206.914 45.7333C206.989 45.3628 207.084 44.9964 207.196 44.6356C207.727 43.1289 209.313 42.2542 210.865 41.8789C212.416 41.5036 214.047 41.481 215.563 40.9872C217.078 40.4935 218.551 39.3366 218.726 37.748C217.45 38.2587 216.268 36.9269 215.038 36.3146C213.012 35.3101 210.701 36.2553 208.613 36.4867C206.234 36.752 203.977 35.7672 201.57 35.9421Z" fill="black"/>
<path d="M201.454 35.7136C200.139 35.8152 198.672 36.7237 198.746 38.0415C198.785 38.7666 199.282 39.3789 199.499 40.073C200.021 41.7519 198.858 43.4364 197.837 44.8698C196.815 46.3032 195.862 48.2022 196.736 49.7203C196.986 50.0857 197.255 50.4371 197.543 50.7727C198.624 52.2315 198.61 54.201 199.09 55.9533C199.702 58.195 201.15 60.1169 203.136 61.3239C205.122 62.531 207.495 62.9314 209.767 62.4431C208.912 61.3513 208.485 59.9844 208.568 58.6C208.633 57.5955 208.957 56.5458 208.568 55.6175C208.065 54.4239 206.593 53.9527 205.833 52.9087C205.074 51.8647 205.125 50.4172 205.492 49.1729C205.859 47.9285 206.494 46.7745 206.798 45.5047C206.874 45.1343 206.968 44.7679 207.081 44.4071C207.611 42.9003 209.197 42.0256 210.749 41.6503C212.301 41.2751 213.932 41.2525 215.447 40.7587C216.962 40.2649 218.435 39.108 218.61 37.5194C217.334 38.0302 216.152 36.6984 214.922 36.0861C212.896 35.0815 210.585 36.0268 208.497 36.2582C206.124 36.5206 203.875 35.5245 201.454 35.7136Z" fill="#493545"/>
<path opacity="0.1" d="M214.6 58.425C214.6 58.425 216.993 60.561 217.464 61.5034Z" fill="black"/>
<path opacity="0.1" d="M219.778 71.1817C219.778 71.1817 216.79 71.1817 215.41 71.5259C214.03 71.8702 210.698 71.5259 210.698 71.5259" fill="black"/>
<g opacity="0.1">
<path opacity="0.1" d="M217.761 61.3539C217.503 61.5013 217.224 61.6079 216.934 61.6699C217.683 61.8361 218.468 61.7237 219.14 61.3539C223.164 59.0542 214.888 53.885 214.888 53.885H213.508C213.508 53.885 221.784 59.0571 217.761 61.3539Z" fill="black"/>
<path opacity="0.1" d="M234.222 29.5003C234.222 29.427 234.205 29.3564 234.194 29.2915C233.721 29.3895 233.244 29.462 232.763 29.5088C233.248 29.5621 233.738 29.5593 234.222 29.5003V29.5003Z" fill="black"/>
<path opacity="0.1" d="M204.775 84.4547C207.188 82.615 205.811 72.158 205.811 72.158C205.811 72.158 201.674 65.7218 201.559 63.3093C201.443 60.8968 192.021 48.8286 192.021 48.8286C190.757 48.1401 189.378 45.6119 189.378 45.6119C189.378 45.6119 181.562 32.8553 180.413 32.3953L187.998 45.6119C187.998 45.6119 189.378 48.1514 190.642 48.8286C190.642 48.8286 200.066 60.8968 200.179 63.3093C200.292 65.7218 204.428 72.1664 204.428 72.1664C204.428 72.1664 205.808 82.6235 203.393 84.4632C203.393 84.4632 211.657 86.5822 216.612 86.3904C211.646 86.2154 204.775 84.4547 204.775 84.4547Z" fill="black"/>
<path opacity="0.1" d="M207.256 55.008L207.188 54.9205C207.109 54.9438 207.029 54.9617 206.948 54.9742C207.055 54.9883 207.157 54.9996 207.256 55.008Z" fill="black"/>
</g>
<g opacity="0.1">
<path opacity="0.1" d="M234.194 29.2774L234.123 29.2915C234.002 32.8214 231.553 41.1142 231.553 41.1142C231.553 42.6069 229.944 44.9065 229.944 44.9065C229.944 44.9065 223.28 55.135 221.784 56.5147C220.289 57.8945 220.864 60.6513 220.864 60.6513L220.879 60.6795C220.833 59.7512 220.946 58.3121 221.897 57.4318C223.39 56.052 230.057 45.8235 230.057 45.8235C230.057 45.8235 231.666 43.5239 231.666 42.0312C231.666 42.0482 234.654 31.9354 234.194 29.2774Z" fill="black"/>
<path opacity="0.1" d="M219.6 70.3183C219.772 71.2945 219.657 70.2618 219.716 71.2381C219.716 71.2381 222.538 67.9283 221.767 63.8369C221.999 67.4938 219.6 70.3183 219.6 70.3183Z" fill="black"/>
</g>
<path opacity="0.1" d="M132.558 186.658C199.204 186.658 253.231 181.468 253.231 175.066C253.231 168.665 199.204 163.475 132.558 163.475C65.9121 163.475 11.8848 168.665 11.8848 175.066C11.8848 181.468 65.9121 186.658 132.558 186.658Z" fill="#303392"/>
<path d="M85.7809 163.306C85.7809 163.306 81.6725 149.353 86.5512 139.085C88.6261 134.79 89.2519 129.939 88.3345 125.259C87.8814 123.04 87.2259 120.868 86.3763 118.769" stroke="#535461" stroke-width="2" stroke-miterlimit="10"/>
<path d="M89.4179 112.285C89.4179 113.995 86.3141 118.952 86.3141 118.952C86.3141 118.952 83.2102 113.995 83.2102 112.285C83.1787 111.859 83.2354 111.431 83.3767 111.028C83.5179 110.626 83.7408 110.256 84.0313 109.943C84.3218 109.631 84.6737 109.381 85.0651 109.21C85.4564 109.04 85.8787 108.952 86.3056 108.952C86.7325 108.952 87.1548 109.04 87.5461 109.21C87.9374 109.381 88.2894 109.631 88.5799 109.943C88.8704 110.256 89.0932 110.626 89.2345 111.028C89.3758 111.431 89.4324 111.859 89.4009 112.285H89.4179Z" fill="#303392"/>
<path d="M94.528 121.754C93.5997 123.19 88.3063 125.668 88.3063 125.668C88.3063 125.668 88.4022 119.824 89.3305 118.388C89.5364 118.015 89.8169 117.688 90.1544 117.429C90.4919 117.169 90.8793 116.981 91.2925 116.878C91.7056 116.774 92.1356 116.757 92.5558 116.826C92.976 116.896 93.3773 117.052 93.7348 117.283C94.0923 117.515 94.3983 117.817 94.6338 118.172C94.8693 118.527 95.0292 118.927 95.1036 119.346C95.178 119.766 95.1653 120.196 95.0663 120.61C94.9673 121.024 94.784 121.414 94.528 121.754V121.754Z" fill="#303392"/>
<path d="M94.3052 137.942C92.7786 138.712 86.9689 138.179 86.9689 138.179C86.9689 138.179 90.0021 133.182 91.5287 132.411C91.8946 132.192 92.3019 132.05 92.7252 131.995C93.1484 131.939 93.5785 131.972 93.9885 132.091C94.3986 132.209 94.7797 132.411 95.1082 132.684C95.4367 132.956 95.7055 133.294 95.8977 133.675C96.0899 134.056 96.2014 134.473 96.2253 134.899C96.2492 135.325 96.1849 135.751 96.0365 136.152C95.8881 136.552 95.6588 136.917 95.3628 137.225C95.0669 137.532 94.7106 137.775 94.3164 137.939L94.3052 137.942Z" fill="#303392"/>
<path d="M91.379 150.148C90.0048 151.164 84.1753 151.624 84.1753 151.624C84.1753 151.624 86.3197 146.187 87.6967 145.168C88.3593 144.765 89.1487 144.625 89.9094 144.776C90.6701 144.926 91.3471 145.355 91.8071 145.979C92.2671 146.603 92.4768 147.377 92.395 148.148C92.3131 148.919 91.9456 149.632 91.3648 150.145L91.379 150.148Z" fill="#303392"/>
<path d="M81.7996 126.001C83.027 127.191 88.7409 128.427 88.7409 128.427C88.7409 128.427 87.33 122.753 86.1139 121.559C85.8301 121.241 85.4839 120.985 85.0967 120.807C84.7096 120.628 84.2899 120.531 83.8637 120.522C83.4375 120.513 83.014 120.592 82.6197 120.754C82.2253 120.916 81.8685 121.157 81.5715 121.463C81.2744 121.769 81.0436 122.132 80.8933 122.531C80.743 122.93 80.6765 123.356 80.6979 123.781C80.7193 124.207 80.8282 124.624 81.0177 125.006C81.2073 125.388 81.4734 125.726 81.7996 126.001Z" fill="#303392"/>
<path d="M78.5631 140.323C80.0896 141.094 85.8994 140.56 85.8994 140.56C85.8994 140.56 82.8774 135.563 81.3509 134.807C80.6271 134.507 79.8165 134.491 79.0817 134.763C78.3469 135.036 77.7424 135.576 77.3895 136.276C77.0366 136.976 76.9615 137.783 77.1792 138.536C77.3969 139.289 77.8913 139.931 78.5631 140.335V140.323Z" fill="#303392"/>
<path d="M77.3215 154.674C78.6957 155.69 84.5252 156.15 84.5252 156.15C84.5252 156.15 82.3807 150.713 81.0038 149.694C80.681 149.409 80.3024 149.193 79.892 149.062C79.4815 148.931 79.0483 148.887 78.6198 148.932C78.1913 148.978 77.777 149.112 77.4033 149.326C77.0295 149.541 76.7045 149.831 76.4488 150.178C76.1932 150.524 76.0126 150.921 75.9185 151.341C75.8244 151.762 75.8189 152.197 75.9024 152.62C75.9858 153.043 76.1563 153.443 76.4031 153.796C76.6498 154.15 76.9674 154.448 77.3356 154.671L77.3215 154.674Z" fill="#303392"/>
<path opacity="0.1" d="M89.4179 112.285C89.4179 113.995 86.3141 118.952 86.3141 118.952C86.3141 118.952 83.2102 113.995 83.2102 112.285C83.1787 111.859 83.2354 111.431 83.3767 111.028C83.5179 110.626 83.7408 110.256 84.0313 109.943C84.3218 109.631 84.6737 109.381 85.0651 109.21C85.4564 109.04 85.8787 108.952 86.3056 108.952C86.7325 108.952 87.1548 109.04 87.5461 109.21C87.9374 109.381 88.2894 109.631 88.5799 109.943C88.8704 110.256 89.0932 110.626 89.2345 111.028C89.3758 111.431 89.4324 111.859 89.4009 112.285H89.4179Z" fill="#303392"/>
<path opacity="0.1" d="M94.528 121.754C93.5997 123.19 88.3063 125.668 88.3063 125.668C88.3063 125.668 88.4022 119.824 89.3305 118.388C89.5364 118.015 89.8169 117.688 90.1544 117.429C90.4919 117.169 90.8793 116.981 91.2925 116.878C91.7056 116.774 92.1356 116.757 92.5558 116.826C92.976 116.896 93.3773 117.052 93.7348 117.283C94.0923 117.515 94.3983 117.817 94.6338 118.172C94.8693 118.527 95.0292 118.927 95.1036 119.346C95.178 119.766 95.1653 120.196 95.0663 120.61C94.9673 121.024 94.784 121.414 94.528 121.754V121.754Z" fill="#303392"/>
<path opacity="0.1" d="M94.3052 137.942C92.7786 138.712 86.9689 138.179 86.9689 138.179C86.9689 138.179 90.0021 133.182 91.5287 132.411C91.8946 132.192 92.3019 132.05 92.7252 131.995C93.1484 131.939 93.5785 131.972 93.9885 132.091C94.3986 132.209 94.7797 132.411 95.1082 132.684C95.4367 132.956 95.7055 133.294 95.8977 133.675C96.0899 134.056 96.2014 134.473 96.2253 134.899C96.2492 135.325 96.1849 135.751 96.0365 136.152C95.8881 136.552 95.6588 136.917 95.3628 137.225C95.0669 137.532 94.7106 137.775 94.3164 137.939L94.3052 137.942Z" fill="#303392"/>
<path opacity="0.1" d="M91.379 150.148C90.0048 151.164 84.1753 151.624 84.1753 151.624C84.1753 151.624 86.3197 146.187 87.6967 145.168C88.3593 144.765 89.1487 144.625 89.9094 144.776C90.6701 144.926 91.3471 145.355 91.8071 145.979C92.2671 146.603 92.4768 147.377 92.395 148.148C92.3131 148.919 91.9456 149.632 91.3648 150.145L91.379 150.148Z" fill="#303392"/>
<path opacity="0.1" d="M81.7996 126.001C83.027 127.191 88.7409 128.427 88.7409 128.427C88.7409 128.427 87.33 122.753 86.1139 121.559C85.8301 121.241 85.4839 120.985 85.0967 120.807C84.7096 120.628 84.2899 120.531 83.8637 120.522C83.4375 120.513 83.014 120.592 82.6197 120.754C82.2253 120.916 81.8685 121.157 81.5715 121.463C81.2744 121.769 81.0436 122.132 80.8933 122.531C80.743 122.93 80.6765 123.356 80.6979 123.781C80.7193 124.207 80.8282 124.624 81.0177 125.006C81.2073 125.388 81.4734 125.726 81.7996 126.001Z" fill="#303392"/>
<path opacity="0.1" d="M78.5631 140.323C80.0896 141.094 85.8994 140.56 85.8994 140.56C85.8994 140.56 82.8774 135.563 81.3509 134.807C80.6271 134.507 79.8165 134.491 79.0817 134.763C78.3469 135.036 77.7424 135.576 77.3895 136.276C77.0366 136.976 76.9615 137.783 77.1792 138.536C77.3969 139.289 77.8913 139.931 78.5631 140.335V140.323Z" fill="#303392"/>
<path opacity="0.1" d="M77.3215 154.674C78.6957 155.69 84.5252 156.15 84.5252 156.15C84.5252 156.15 82.3807 150.713 81.0038 149.694C80.681 149.409 80.3024 149.193 79.892 149.062C79.4815 148.931 79.0483 148.887 78.6198 148.932C78.1913 148.978 77.777 149.112 77.4033 149.326C77.0295 149.541 76.7045 149.831 76.4488 150.178C76.1932 150.524 76.0126 150.921 75.9185 151.341C75.8244 151.762 75.8189 152.197 75.9024 152.62C75.9858 153.043 76.1563 153.443 76.4031 153.796C76.6498 154.15 76.9674 154.448 77.3356 154.671L77.3215 154.674Z" fill="#303392"/>
<path d="M168.918 163.506C168.918 163.506 164.81 149.553 169.688 139.285C171.763 134.991 172.389 130.139 171.472 125.459C171.018 123.24 170.363 121.068 169.513 118.969" stroke="#535461" stroke-width="2" stroke-miterlimit="10"/>
<path d="M172.549 112.482C172.549 114.192 169.445 119.15 169.445 119.15C169.445 119.15 166.342 114.192 166.342 112.482C166.4 111.701 166.751 110.97 167.325 110.437C167.899 109.904 168.654 109.607 169.437 109.607C170.221 109.607 170.975 109.904 171.549 110.437C172.123 110.97 172.475 111.701 172.532 112.482H172.549Z" fill="#303392"/>
<path d="M177.668 121.952C176.739 123.388 171.446 125.865 171.446 125.865C171.446 125.865 171.542 120.022 172.47 118.585C172.676 118.212 172.957 117.886 173.294 117.626C173.632 117.366 174.019 117.179 174.432 117.075C174.845 116.972 175.275 116.954 175.696 117.024C176.116 117.094 176.517 117.249 176.875 117.481C177.232 117.712 177.538 118.015 177.774 118.37C178.009 118.725 178.169 119.124 178.243 119.544C178.318 119.963 178.305 120.393 178.206 120.807C178.107 121.222 177.924 121.611 177.668 121.952V121.952Z" fill="#303392"/>
<path d="M177.453 138.139C175.927 138.91 170.117 138.376 170.117 138.376C170.117 138.376 173.15 133.379 174.677 132.609C175.043 132.387 175.452 132.244 175.876 132.187C176.301 132.131 176.732 132.163 177.144 132.282C177.555 132.4 177.938 132.603 178.267 132.877C178.597 133.15 178.866 133.489 179.058 133.872C179.25 134.254 179.361 134.673 179.384 135.1C179.406 135.528 179.34 135.956 179.189 136.357C179.039 136.757 178.807 137.123 178.508 137.43C178.209 137.736 177.85 137.978 177.453 138.139V138.139Z" fill="#303392"/>
<path d="M174.516 150.346C173.142 151.362 167.312 151.822 167.312 151.822C167.312 151.822 169.457 146.384 170.834 145.366C171.496 144.963 172.286 144.823 173.046 144.973C173.807 145.123 174.484 145.553 174.944 146.177C175.404 146.801 175.614 147.575 175.532 148.346C175.45 149.117 175.083 149.829 174.502 150.343L174.516 150.346Z" fill="#303392"/>
<path d="M164.942 126.198C166.17 127.389 171.883 128.625 171.883 128.625C171.883 128.625 170.473 122.95 169.256 121.757C168.973 121.439 168.626 121.183 168.239 121.004C167.852 120.826 167.432 120.729 167.006 120.72C166.58 120.711 166.157 120.79 165.762 120.952C165.368 121.113 165.011 121.355 164.714 121.66C164.417 121.966 164.186 122.33 164.036 122.729C163.886 123.128 163.819 123.553 163.84 123.979C163.862 124.405 163.971 124.821 164.16 125.203C164.35 125.585 164.616 125.924 164.942 126.198V126.198Z" fill="#303392"/>
<path d="M161.7 140.521C163.227 141.291 169.036 140.758 169.036 140.758C169.036 140.758 166.003 135.761 164.477 134.99C163.753 134.69 162.942 134.674 162.207 134.947C161.473 135.219 160.868 135.76 160.515 136.459C160.162 137.159 160.087 137.966 160.305 138.719C160.522 139.472 161.017 140.115 161.689 140.518L161.7 140.521Z" fill="#303392"/>
<path d="M160.461 154.872C161.836 155.888 167.665 156.347 167.665 156.347C167.665 156.347 165.521 150.91 164.144 149.892C163.481 149.489 162.692 149.349 161.931 149.499C161.17 149.649 160.493 150.078 160.033 150.703C159.573 151.327 159.363 152.101 159.445 152.872C159.527 153.643 159.895 154.355 160.475 154.869L160.461 154.872Z" fill="#303392"/>
<path opacity="0.1" d="M172.549 112.482C172.549 114.192 169.445 119.15 169.445 119.15C169.445 119.15 166.342 114.192 166.342 112.482C166.4 111.701 166.751 110.97 167.325 110.437C167.899 109.904 168.654 109.607 169.437 109.607C170.221 109.607 170.975 109.904 171.549 110.437C172.123 110.97 172.475 111.701 172.532 112.482H172.549Z" fill="#303392"/>
<path opacity="0.1" d="M177.668 121.952C176.739 123.388 171.446 125.865 171.446 125.865C171.446 125.865 171.542 120.022 172.47 118.585C172.676 118.212 172.957 117.886 173.294 117.626C173.632 117.366 174.019 117.179 174.432 117.075C174.845 116.972 175.275 116.954 175.696 117.024C176.116 117.094 176.517 117.249 176.875 117.481C177.232 117.712 177.538 118.015 177.774 118.37C178.009 118.725 178.169 119.124 178.243 119.544C178.318 119.963 178.305 120.393 178.206 120.807C178.107 121.222 177.924 121.611 177.668 121.952V121.952Z" fill="#303392"/>
<path opacity="0.1" d="M177.453 138.139C175.927 138.91 170.117 138.376 170.117 138.376C170.117 138.376 173.15 133.379 174.677 132.609C175.043 132.387 175.452 132.244 175.876 132.187C176.301 132.131 176.732 132.163 177.144 132.282C177.555 132.4 177.938 132.603 178.267 132.877C178.597 133.15 178.866 133.489 179.058 133.872C179.25 134.254 179.361 134.673 179.384 135.1C179.406 135.528 179.34 135.956 179.189 136.357C179.039 136.757 178.807 137.123 178.508 137.43C178.209 137.736 177.85 137.978 177.453 138.139V138.139Z" fill="#303392"/>
<path opacity="0.1" d="M174.516 150.346C173.142 151.362 167.312 151.822 167.312 151.822C167.312 151.822 169.457 146.384 170.834 145.366C171.496 144.963 172.286 144.823 173.046 144.973C173.807 145.123 174.484 145.553 174.944 146.177C175.404 146.801 175.614 147.575 175.532 148.346C175.45 149.117 175.083 149.829 174.502 150.343L174.516 150.346Z" fill="#303392"/>
<path opacity="0.1" d="M164.942 126.198C166.17 127.389 171.883 128.625 171.883 128.625C171.883 128.625 170.473 122.95 169.256 121.757C168.973 121.439 168.626 121.183 168.239 121.004C167.852 120.826 167.432 120.729 167.006 120.72C166.58 120.711 166.157 120.79 165.762 120.952C165.368 121.113 165.011 121.355 164.714 121.66C164.417 121.966 164.186 122.33 164.036 122.729C163.886 123.128 163.819 123.553 163.84 123.979C163.862 124.405 163.971 124.821 164.16 125.203C164.35 125.585 164.616 125.924 164.942 126.198V126.198Z" fill="#303392"/>
<path opacity="0.1" d="M161.7 140.521C163.227 141.291 169.036 140.758 169.036 140.758C169.036 140.758 166.003 135.761 164.477 134.99C163.753 134.69 162.942 134.674 162.207 134.947C161.473 135.219 160.868 135.76 160.515 136.459C160.162 137.159 160.087 137.966 160.305 138.719C160.522 139.472 161.017 140.115 161.689 140.518L161.7 140.521Z" fill="#303392"/>
<path opacity="0.1" d="M160.461 154.872C161.836 155.888 167.665 156.347 167.665 156.347C167.665 156.347 165.521 150.91 164.144 149.892C163.481 149.489 162.692 149.349 161.931 149.499C161.17 149.649 160.493 150.078 160.033 150.703C159.573 151.327 159.363 152.101 159.445 152.872C159.527 153.643 159.895 154.355 160.475 154.869L160.461 154.872Z" fill="#303392"/>
<path opacity="0.5" d="M189.022 4.31996H187.25C187.418 4.32796 187.586 4.30182 187.743 4.24311C187.901 4.1844 188.044 4.09435 188.166 3.97841C188.288 3.86247 188.384 3.72305 188.451 3.56859C188.517 3.41414 188.551 3.24786 188.551 3.07984C188.551 2.91182 188.517 2.74555 188.451 2.5911C188.384 2.43664 188.288 2.29722 188.166 2.18127C188.044 2.06533 187.901 1.97528 187.743 1.91657C187.586 1.85786 187.418 1.83172 187.25 1.83973H172.882C172.564 1.85493 172.263 1.99223 172.043 2.22313C171.823 2.45403 171.7 2.76081 171.7 3.07984C171.7 3.39887 171.823 3.70566 172.043 3.93656C172.263 4.16746 172.564 4.30475 172.882 4.31996H174.654C174.336 4.33516 174.035 4.47246 173.815 4.70336C173.595 4.93426 173.472 5.24104 173.472 5.56007C173.472 5.8791 173.595 6.18588 173.815 6.41678C174.035 6.64768 174.336 6.78498 174.654 6.80018H172.174C172.006 6.79218 171.839 6.81832 171.681 6.87703C171.524 6.93574 171.38 7.02579 171.258 7.14173C171.137 7.25767 171.04 7.39709 170.974 7.55155C170.908 7.706 170.873 7.87228 170.873 8.0403C170.873 8.20832 170.908 8.37459 170.974 8.52904C171.04 8.6835 171.137 8.82292 171.258 8.93886C171.38 9.05481 171.524 9.14486 171.681 9.20357C171.839 9.26228 172.006 9.28842 172.174 9.28041H186.531C186.698 9.28842 186.866 9.26228 187.024 9.20357C187.181 9.14486 187.325 9.05481 187.447 8.93886C187.568 8.82292 187.665 8.6835 187.731 8.52904C187.797 8.37459 187.831 8.20832 187.831 8.0403C187.831 7.87228 187.797 7.706 187.731 7.55155C187.665 7.39709 187.568 7.25767 187.447 7.14173C187.325 7.02579 187.181 6.93574 187.024 6.87703C186.866 6.81832 186.698 6.79218 186.531 6.80018H189.022C189.341 6.78498 189.641 6.64768 189.862 6.41678C190.082 6.18588 190.205 5.8791 190.205 5.56007C190.205 5.24104 190.082 4.93426 189.862 4.70336C189.641 4.47246 189.341 4.33516 189.022 4.31996Z" fill="#DEE3F3"/>
<path opacity="0.5" d="M106.004 11.5547H104.655C104.783 11.5617 104.911 11.5425 105.032 11.4982C105.153 11.4539 105.263 11.3855 105.356 11.2972C105.45 11.2089 105.524 11.1025 105.575 10.9844C105.626 10.8664 105.652 10.7393 105.652 10.6108C105.652 10.4823 105.626 10.3552 105.575 10.2372C105.524 10.1192 105.45 10.0127 105.356 9.92441C105.263 9.83607 105.153 9.76769 105.032 9.72342C104.911 9.67916 104.783 9.65995 104.655 9.66697H93.7294C93.488 9.68017 93.2609 9.78537 93.0946 9.96093C92.9284 10.1365 92.8358 10.3691 92.8358 10.6108C92.8358 10.8526 92.9284 11.0851 93.0946 11.2607C93.2609 11.4362 93.488 11.5414 93.7294 11.5547H95.0782C94.9499 11.5476 94.8215 11.5668 94.7009 11.6111C94.5803 11.6554 94.4699 11.7238 94.3767 11.8121C94.2834 11.9004 94.209 12.0068 94.1583 12.1249C94.1075 12.2429 94.0813 12.37 94.0813 12.4985C94.0813 12.627 94.1075 12.7541 94.1583 12.8721C94.209 12.9901 94.2834 13.0966 94.3767 13.1849C94.4699 13.2732 94.5803 13.3416 94.7009 13.3859C94.8215 13.4301 94.9499 13.4494 95.0782 13.4423H93.1905C93.0622 13.4353 92.9338 13.4545 92.8132 13.4988C92.6926 13.5431 92.5823 13.6114 92.489 13.6998C92.3957 13.7881 92.3214 13.8945 92.2706 14.0125C92.2198 14.1306 92.1936 14.2577 92.1936 14.3862C92.1936 14.5147 92.2198 14.6418 92.2706 14.7598C92.3214 14.8778 92.3957 14.9842 92.489 15.0726C92.5823 15.1609 92.6926 15.2293 92.8132 15.2736C92.9338 15.3178 93.0622 15.337 93.1905 15.33H104.116C104.244 15.337 104.373 15.3178 104.493 15.2736C104.614 15.2293 104.724 15.1609 104.817 15.0726C104.911 14.9842 104.985 14.8778 105.036 14.7598C105.087 14.6418 105.113 14.5147 105.113 14.3862C105.113 14.2577 105.087 14.1306 105.036 14.0125C104.985 13.8945 104.911 13.7881 104.817 13.6998C104.724 13.6114 104.614 13.5431 104.493 13.4988C104.373 13.4545 104.244 13.4353 104.116 13.4423H106.004C106.245 13.4291 106.472 13.3239 106.638 13.1484C106.805 12.9728 106.897 12.7403 106.897 12.4985C106.897 12.2567 106.805 12.0242 106.638 11.8486C106.472 11.673 106.245 11.5679 106.004 11.5547V11.5547Z" fill="#DEE3F3"/>
<path d="M14.3001 145.247C14.3001 145.247 19.2379 154.939 15.2143 160.241C11.1906 165.543 15.5811 179.993 15.5811 179.993" stroke="#303392" stroke-miterlimit="10"/>
<path d="M15.7729 142.217C15.7729 144.085 14.4016 145.603 14.4016 145.603C14.4016 145.603 13.0303 144.087 13.0303 142.217C13.0303 140.346 14.4016 138.831 14.4016 138.831C14.4016 138.831 15.7729 140.349 15.7729 142.217Z" fill="#303392"/>
<path d="M16.8594 145.247C16.8594 145.247 11.9215 154.939 15.9452 160.241C19.9688 165.543 15.5784 179.993 15.5784 179.993" stroke="#303392" stroke-miterlimit="10"/>
<path d="M15.3977 142.217C15.3977 144.085 16.769 145.603 16.769 145.603C16.769 145.603 18.1403 144.087 18.1403 142.217C18.1403 140.346 16.769 138.831 16.769 138.831C16.769 138.831 15.3977 140.349 15.3977 142.217Z" fill="#303392"/>
<path opacity="0.1" d="M15.3977 142.217C15.3977 144.085 16.769 145.603 16.769 145.603C16.769 145.603 18.1403 144.087 18.1403 142.217C18.1403 140.346 16.769 138.831 16.769 138.831C16.769 138.831 15.3977 140.349 15.3977 142.217Z" fill="black"/>
<path d="M18.8768 145.247C18.8768 145.247 23.8147 154.939 19.7911 160.241C15.7674 165.543 20.1579 179.993 20.1579 179.993" stroke="#303392" stroke-miterlimit="10"/>
<path d="M20.3357 142.217C20.3357 144.085 18.9643 145.603 18.9643 145.603C18.9643 145.603 17.593 144.087 17.593 142.217C17.593 140.346 18.9643 138.831 18.9643 138.831C18.9643 138.831 20.3357 140.349 20.3357 142.217Z" fill="#303392"/>
<path d="M19.5653 149.982C18.2702 151.328 16.2301 151.469 16.2301 151.469C16.2301 151.469 16.2922 149.426 17.5873 148.083C18.8824 146.74 20.9225 146.596 20.9225 146.596C20.9225 146.596 20.852 148.633 19.5653 149.982Z" fill="#303392"/>
<path d="M19.695 156.669C18.3999 158.015 16.3599 158.156 16.3599 158.156C16.3599 158.156 16.4219 156.113 17.7171 154.77C19.0122 153.427 21.0523 153.283 21.0523 153.283C21.0523 153.283 20.9902 155.32 19.695 156.669Z" fill="#303392"/>
<path d="M12.6692 160.346C13.8938 161.757 13.8515 163.799 13.8515 163.799C13.8515 163.799 11.8227 163.554 10.5981 162.143C9.3735 160.732 9.41583 158.689 9.41583 158.689C9.41583 158.689 11.4446 158.935 12.6692 160.346Z" fill="#303392"/>
<path d="M13.7979 146.094C15.3555 147.126 15.8606 149.107 15.8606 149.107C15.8606 149.107 13.8403 149.415 12.2827 148.382C10.7252 147.349 10.2201 145.368 10.2201 145.368C10.2201 145.368 12.2489 145.055 13.7979 146.094Z" fill="#303392"/>
<path opacity="0.1" d="M13.7979 146.094C15.3555 147.126 15.8606 149.107 15.8606 149.107C15.8606 149.107 13.8403 149.415 12.2827 148.382C10.7252 147.349 10.2201 145.368 10.2201 145.368C10.2201 145.368 12.2489 145.055 13.7979 146.094Z" fill="black"/>
<path d="M21.4304 145.247C21.4304 145.247 16.4925 154.939 20.5162 160.241C24.5399 165.543 20.1494 179.993 20.1494 179.993" stroke="#303392" stroke-miterlimit="10"/>
<path d="M19.9688 142.217C19.9688 144.085 21.3401 145.603 21.3401 145.603C21.3401 145.603 22.7114 144.087 22.7114 142.217C22.7114 140.346 21.3401 138.831 21.3401 138.831C21.3401 138.831 19.9688 140.349 19.9688 142.217Z" fill="#303392"/>
<path opacity="0.1" d="M19.9688 142.217C19.9688 144.085 21.3401 145.603 21.3401 145.603C21.3401 145.603 22.7114 144.087 22.7114 142.217C22.7114 140.346 21.3401 138.831 21.3401 138.831C21.3401 138.831 19.9688 140.349 19.9688 142.217Z" fill="black"/>
<path d="M20.3638 150.126C19.0518 151.458 18.953 153.512 18.953 153.512C18.953 153.512 20.9931 153.396 22.3051 152.064C23.6172 150.732 23.7159 148.678 23.7159 148.678C23.7159 148.678 21.6759 148.794 20.3638 150.126Z" fill="#303392"/>
<path opacity="0.1" d="M20.3638 150.126C19.0518 151.458 18.953 153.512 18.953 153.512C18.953 153.512 20.9931 153.396 22.3051 152.064C23.6172 150.732 23.7159 148.678 23.7159 148.678C23.7159 148.678 21.6759 148.794 20.3638 150.126Z" fill="black"/>
<path d="M22.9344 159.384C21.6223 160.715 21.5236 162.77 21.5236 162.77C21.5236 162.77 23.5636 162.654 24.8757 161.322C26.1877 159.99 26.2865 157.936 26.2865 157.936C26.2865 157.936 24.238 158.052 22.9344 159.384Z" fill="#303392"/>
<path d="M19.1589 157.349C19.1589 157.349 22.1301 152.665 26.3033 152.552" stroke="#303392" stroke-miterlimit="10"/>
<path d="M16.8368 154.519C16.8368 154.519 13.8656 149.835 9.69238 149.722" stroke="#303392" stroke-miterlimit="10"/>
<path d="M16.4502 161.206C16.4502 161.206 19.4214 156.522 23.5946 156.41" stroke="#303392" stroke-miterlimit="10"/>
<path d="M26.1595 153.297C26.5849 153.297 26.9298 152.952 26.9298 152.527C26.9298 152.102 26.5849 151.757 26.1595 151.757C25.734 151.757 25.3892 152.102 25.3892 152.527C25.3892 152.952 25.734 153.297 26.1595 153.297Z" fill="#303392"/>
<path d="M9.76567 150.532C10.1911 150.532 10.536 150.187 10.536 149.762C10.536 149.336 10.1911 148.991 9.76567 148.991C9.34024 148.991 8.99536 149.336 8.99536 149.762C8.99536 150.187 9.34024 150.532 9.76567 150.532Z" fill="#303392"/>
<path d="M18.637 162.741C18.637 162.741 15.6658 158.057 11.4926 157.945" stroke="#303392" stroke-miterlimit="10"/>
<path d="M11.566 158.76C11.9914 158.76 12.3363 158.415 12.3363 157.99C12.3363 157.564 11.9914 157.219 11.566 157.219C11.1405 157.219 10.7957 157.564 10.7957 157.99C10.7957 158.415 11.1405 158.76 11.566 158.76Z" fill="#303392"/>
<path d="M23.651 157.219C24.0765 157.219 24.4214 156.874 24.4214 156.449C24.4214 156.024 24.0765 155.679 23.651 155.679C23.2256 155.679 22.8807 156.024 22.8807 156.449C22.8807 156.874 23.2256 157.219 23.651 157.219Z" fill="#303392"/>
<path d="M35.0675 174.352C35.0675 174.352 27.9061 172.919 25.993 171.009C24.08 169.098 15.4909 165.758 14.5343 168.145C13.5778 170.532 1.64223 178.65 9.7601 180.083C17.878 181.517 28.8598 181.993 31.2469 181.037C33.6341 180.08 35.0675 174.352 35.0675 174.352Z" fill="#A8A8A8"/>
<path opacity="0.2" d="M9.76012 179.194C17.878 180.628 28.8598 181.105 31.247 180.148C33.0641 179.42 34.3282 175.916 34.8276 174.302L35.0675 174.352C35.0675 174.352 33.6341 180.083 31.247 181.037C28.8598 181.991 17.878 181.514 9.76012 180.083C7.41816 179.668 6.74661 178.698 7.00055 177.47C7.19807 178.26 8.01635 178.887 9.76012 179.194Z" fill="black"/>
<path d="M252.489 147.442C252.489 147.442 254.854 150.546 251.397 155.202C247.941 159.858 245.091 163.811 246.245 166.723C246.245 166.723 251.459 158.052 255.703 157.93C259.947 157.809 257.159 152.654 252.489 147.442Z" fill="#303392"/>
<path opacity="0.1" d="M252.489 147.442C252.695 147.741 252.858 148.068 252.972 148.413C257.114 153.277 259.318 157.818 255.339 157.933C251.632 158.04 247.185 164.668 246.118 166.345C246.153 166.474 246.196 166.601 246.245 166.725C246.245 166.725 251.46 158.055 255.703 157.933C259.947 157.812 257.159 152.654 252.489 147.442Z" fill="black"/>
<path d="M256.885 151.381C256.885 152.471 256.764 153.357 256.603 153.357C256.442 153.357 256.321 152.473 256.321 151.381C256.321 150.289 256.474 150.817 256.623 150.817C256.773 150.817 256.885 150.295 256.885 151.381Z" fill="#FFD037"/>
<path d="M258.395 152.682C257.439 153.204 256.606 153.529 256.536 153.385C256.465 153.241 257.179 152.722 258.136 152.202C259.092 151.683 258.714 152.061 258.787 152.202C258.861 152.344 259.349 152.16 258.395 152.682Z" fill="#FFD037"/>
<path d="M240.001 147.442C240.001 147.442 237.636 150.546 241.093 155.202C244.549 159.858 247.399 163.811 246.245 166.723C246.245 166.723 241.031 158.052 236.787 157.93C232.543 157.809 235.331 152.654 240.001 147.442Z" fill="#303392"/>
<path opacity="0.1" d="M240.001 147.442C239.795 147.741 239.632 148.068 239.518 148.413C235.376 153.277 233.173 157.818 237.151 157.933C240.859 158.04 245.306 164.668 246.372 166.345C246.337 166.474 246.295 166.601 246.245 166.725C246.245 166.725 241.031 158.055 236.787 157.933C232.543 157.812 235.331 152.654 240.001 147.442Z" fill="black"/>
<path d="M235.605 151.381C235.605 152.471 235.726 153.357 235.887 153.357C236.048 153.357 236.169 152.473 236.169 151.381C236.169 150.289 236.017 150.817 235.867 150.817C235.718 150.817 235.605 150.295 235.605 151.381Z" fill="#FFD037"/>
<path d="M234.095 152.682C235.052 153.204 235.884 153.529 235.954 153.385C236.025 153.241 235.311 152.722 234.355 152.202C233.398 151.683 233.776 152.061 233.703 152.202C233.629 152.344 233.138 152.16 234.095 152.682Z" fill="#FFD037"/>
<path d="M236.358 166.316C236.358 166.316 242.969 166.113 244.961 164.694C246.953 163.275 255.119 161.59 255.624 163.847C256.129 166.105 265.559 175.165 258.096 175.224C250.633 175.284 240.754 174.062 238.765 172.851C236.776 171.641 236.358 166.316 236.358 166.316Z" fill="#A8A8A8"/>
<path opacity="0.2" d="M258.229 174.443C250.765 174.502 240.887 173.28 238.897 172.07C237.382 171.147 236.778 167.837 236.578 166.311H236.358C236.358 166.311 236.776 171.644 238.765 172.854C240.754 174.065 250.633 175.289 258.096 175.227C260.252 175.21 260.994 174.443 260.954 173.308C260.655 174 259.845 174.429 258.229 174.443Z" fill="black"/>
<path opacity="0.5" d="M50.1801 21.0608H48.4081C48.576 21.0688 48.7437 21.0426 48.9011 20.9839C49.0585 20.9252 49.2024 20.8352 49.324 20.7192C49.4456 20.6033 49.5424 20.4639 49.6086 20.3094C49.6747 20.1549 49.7088 19.9887 49.7088 19.8207C49.7088 19.6526 49.6747 19.4864 49.6086 19.3319C49.5424 19.1775 49.4456 19.038 49.324 18.9221C49.2024 18.8061 49.0585 18.7161 48.9011 18.6574C48.7437 18.5987 48.576 18.5725 48.4081 18.5805H34.0516C33.7329 18.5957 33.4324 18.733 33.2122 18.9639C32.9921 19.1948 32.8692 19.5016 32.8692 19.8207C32.8692 20.1397 32.9921 20.4465 33.2122 20.6774C33.4324 20.9083 33.7329 21.0456 34.0516 21.0608H35.8236C35.5049 21.076 35.2043 21.2133 34.9842 21.4442C34.7641 21.6751 34.6412 21.9819 34.6412 22.3009C34.6412 22.6199 34.7641 22.9267 34.9842 23.1576C35.2043 23.3885 35.5049 23.5258 35.8236 23.541H33.3434C33.0247 23.5562 32.7241 23.6935 32.504 23.9244C32.2838 24.1553 32.161 24.4621 32.161 24.7811C32.161 25.1001 32.2838 25.4069 32.504 25.6378C32.7241 25.8687 33.0247 26.006 33.3434 26.0212H47.6999C47.8677 26.0292 48.0354 26.0031 48.1929 25.9444C48.3503 25.8857 48.4942 25.7956 48.6158 25.6797C48.7374 25.5637 48.8342 25.4243 48.9003 25.2699C48.9665 25.1154 49.0006 24.9491 49.0006 24.7811C49.0006 24.6131 48.9665 24.4468 48.9003 24.2924C48.8342 24.1379 48.7374 23.9985 48.6158 23.8825C48.4942 23.7666 48.3503 23.6765 48.1929 23.6178C48.0354 23.5591 47.8677 23.533 47.6999 23.541H50.1801C50.4988 23.5258 50.7994 23.3885 51.0195 23.1576C51.2397 22.9267 51.3625 22.6199 51.3625 22.3009C51.3625 21.9819 51.2397 21.6751 51.0195 21.4442C50.7994 21.2133 50.4988 21.076 50.1801 21.0608V21.0608Z" fill="#DEE3F3"/>
</g>
<defs>
<linearGradient id="paint0_linear" x1="129.937" y1="153.43" x2="129.937" y2="36.6137" gradientUnits="userSpaceOnUse">
<stop stop-color="#808080" stop-opacity="0.25"/>
<stop offset="0.54" stop-color="#808080" stop-opacity="0.12"/>
<stop offset="1" stop-color="#808080" stop-opacity="0.1"/>
</linearGradient>
<linearGradient id="paint1_linear" x1="108.033" y1="133.562" x2="108.033" y2="133.548" gradientUnits="userSpaceOnUse">
<stop stop-color="#808080" stop-opacity="0.25"/>
<stop offset="0.54" stop-color="#808080" stop-opacity="0.12"/>
<stop offset="1" stop-color="#808080" stop-opacity="0.1"/>
</linearGradient>
<linearGradient id="paint2_linear" x1="18170.2" y1="57053.4" x2="18170.2" y2="25579.8" gradientUnits="userSpaceOnUse">
<stop stop-color="#808080" stop-opacity="0.25"/>
<stop offset="0.54" stop-color="#808080" stop-opacity="0.12"/>
<stop offset="1" stop-color="#808080" stop-opacity="0.1"/>
</linearGradient>
<linearGradient id="paint3_linear" x1="51185.2" y1="69159.7" x2="51185.2" y2="22416.7" gradientUnits="userSpaceOnUse">
<stop stop-color="#808080" stop-opacity="0.25"/>
<stop offset="0.54" stop-color="#808080" stop-opacity="0.12"/>
<stop offset="1" stop-color="#808080" stop-opacity="0.1"/>
</linearGradient>
<clipPath id="clip0">
<rect width="268" height="186.658" fill="white"/>
</clipPath>
</defs>
</svg>
