<svg xmlns="http://www.w3.org/2000/svg" xmlns:xlink="http://www.w3.org/1999/xlink" width="23" height="22" viewBox="0 0 23 22"><defs><path id="ttcva" d="M548.701 650.096v19.13h15.036v-1.815a2.39 2.39 0 0 1-.504-.526v1.837h-14.028V650.6h14.028v13.431a2.45 2.45 0 0 1 .504-.526v-13.41z"/><path id="ttcvb" d="M551.27 658.565v-.503h10.096v.503z"/><path id="ttcvc" d="M551.27 655.98v-.505h10.096v.504z"/><path id="ttcvd" d="M551.27 653.393v-.504h10.096v.504z"/><path id="ttcve" d="M551.27 661.152v-.504h10.096v.504z"/><path id="ttcvf" d="M551.237 663.738v-.504h5.08v.504z"/><path id="ttcvg" d="M551.237 666.324v-.504h2.677v.504z"/><path id="ttcvh" d="M565.436 665.458a.615.615 0 1 1 1.23 0 .615.615 0 0 1-1.23 0z"/><path id="ttcvi" d="M565.246 667.929a2.466 2.466 0 0 1-2.013-1.045 2.531 2.531 0 0 1-.13-.2l-.071-.126h-1.412l-.488-.443-.569.55-.676-.665h-.777l-.757.7-1.26-.78v-.333h5.641v-.504h-4.988l.826-.498h4.359l.068-.148a2.473 2.473 0 0 1 2.247-1.45 2.474 2.474 0 0 1 2.47 2.471 2.474 2.474 0 0 1-2.47 2.47zm0-5.447c-.54 0-1.06.148-1.509.415a2.965 2.965 0 0 0-1.125 1.184h-4.18l-1.843 1.111v1.01l1.824 1.13.893-.827h.375l.88.863.581-.562.284.257h1.318a2.98 2.98 0 0 0 .993.954c.45.268.97.416 1.509.416a2.979 2.979 0 0 0 2.975-2.975 2.978 2.978 0 0 0-2.975-2.976z"/><path id="ttcvj" d="M565.189 659.66h.503v1.515h-.503z"/><path id="ttcvk" d="M569.677 661.119l.356.356-1.122 1.122-.356-.356z"/><path id="ttcvl" d="M565.697 671.4h-.504v-1.515h.504z"/><path id="ttcvm" d="M570.038 669.585l-.356.356-1.123-1.122.357-.356z"/><path id="ttcvn" d="M571.002 665.314v.504h-1.515v-.504z"/></defs><g><g transform="translate(-548 -650)"><g><g><g><g><g><g><use fill="#30318c" xlink:href="#ttcva"/></g></g></g></g></g><g><g><g><g><g><use fill="#30318c" xlink:href="#ttcvb"/></g></g></g></g></g><g><g><g><g><g><use fill="#30318c" xlink:href="#ttcvc"/></g></g></g></g></g><g><g><g><g><g><use fill="#30318c" xlink:href="#ttcvd"/></g></g></g></g></g><g><g><g><g><g><use fill="#30318c" xlink:href="#ttcve"/></g></g></g></g></g><g><g><g><g><g><use fill="#30318c" xlink:href="#ttcvf"/></g></g></g></g></g><g><g><g><g><g><use fill="#30318c" xlink:href="#ttcvg"/></g></g></g></g></g><g><g><g><g><g><use fill="#30318c" xlink:href="#ttcvh"/></g></g></g></g></g><g><use fill="#30318c" xlink:href="#ttcvi"/></g></g><g><g><use fill="#30318c" xlink:href="#ttcvj"/></g><g><use fill="#30318c" xlink:href="#ttcvk"/></g><g><use fill="#30318c" xlink:href="#ttcvl"/></g><g><use fill="#30318c" xlink:href="#ttcvm"/></g><g><use fill="#30318c" xlink:href="#ttcvn"/></g></g></g></g></svg>