<svg xmlns="http://www.w3.org/2000/svg" width="29" height="29" viewBox="0 0 29 29"><defs><clipPath id="8m8ba"><path fill="#303392" d="M0 14.5C0 6.492 6.492 0 14.5 0S29 6.492 29 14.5 22.508 29 14.5 29 0 22.508 0 14.5z"/></clipPath></defs><g><g><path fill="none" stroke="#303392" stroke-miterlimit="50" stroke-width="2" d="M0 14.5C0 6.492 6.492 0 14.5 0S29 6.492 29 14.5 22.508 29 14.5 29 0 22.508 0 14.5z" clip-path="url(&quot;#8m8ba&quot;)"/></g><g><g><g><g><g><g><path fill="#303392" d="M20.35 18.066c0 2.272-1.6 3.87-4.306 4.087v2.696h-1.49v-2.718c-1.652-.184-3.239-.913-4.554-2.185l1.163-1.392c1.25 1.218 2.859 1.849 4.294 1.849 1.642 0 2.859-.816 2.859-2.218 0-1.599-1.282-2.13-3.337-2.772-2.435-.783-4.653-1.544-4.653-4.196 0-2.164 1.51-3.805 4.229-3.936V4.466h1.489v2.913c1.348.24 2.805.848 3.794 1.62l-1.12 1.38c-1.174-.847-2.652-1.315-3.75-1.315-1.554 0-2.642.728-2.642 2.033 0 1.391 1.349 1.902 3.207 2.511 2.74.87 4.816 1.598 4.816 4.457z"/></g></g></g></g></g></g></g></svg>
