<svg xmlns="http://www.w3.org/2000/svg" xmlns:xlink="http://www.w3.org/1999/xlink" width="34" height="34" viewBox="0 0 34 34"><defs><path id="ou6ka" d="M162 103c0-9.389 7.611-17 17-17s17 7.611 17 17-7.611 17-17 17-17-7.611-17-17z"/><path id="ou6kb" d="M178.842 102.492c1.948 0 3.527-2.03 3.527-4.534 0-2.505-.518-4.535-3.527-4.535-3.008 0-3.527 2.03-3.527 4.535 0 2.504 1.58 4.534 3.527 4.534z"/><path id="ou6kc" d="M185.385 108.844c-.065-4.335-.594-5.57-4.644-6.352 0 0-.57.777-1.899.777-1.328 0-1.899-.777-1.899-.777-4.005.774-4.567 1.99-4.64 6.212-.007.344-.01.362-.01.322v.456s.964 2.08 6.55 2.08c5.584 0 6.549-2.08 6.549-2.08v-.337a2.985 2.985 0 0 1-.007-.3z"/></defs><g><g transform="translate(-162 -86)"><use fill="#f7941d" xlink:href="#ou6ka"/></g><g transform="translate(-162 -86)"><g><g><use fill="#fff" xlink:href="#ou6kb"/></g><g><use fill="#fff" xlink:href="#ou6kc"/></g></g></g></g></svg>