<svg xmlns="http://www.w3.org/2000/svg" width="30" height="22" viewBox="0 0 30 22"><g><g><g><g><g><g><g><g><path fill="#303392" d="M28.549 13.49h-6.04a2.528 2.528 0 0 1-2.519-2.519 2.528 2.528 0 0 1 2.52-2.52h6.039zm-6.02-5.827a3.287 3.287 0 0 0-3.289 3.289 3.3 3.3 0 0 0 3.289 3.289h6.808V7.663z"/></g></g></g></g></g><g><g><g><g><g><path fill="#303392" d="M23.846 10.948a.964.964 0 0 1-.961.962.964.964 0 0 1-.962-.962c0-.519.442-.961.962-.961.519 0 .961.423.961.961z"/></g></g></g></g></g><g><g><path fill="#303392" d="M27.53 8.163v-3.19c0-2.378-1.989-4.295-4.413-4.295H.337v21h22.78c2.443 0 4.413-1.936 4.413-4.296V13.75h-.758v3.632c0 1.973-1.647 3.558-3.655 3.558H1.095V1.416h22.022c2.027 0 3.655 1.605 3.655 3.559v3.19z"/></g><g><path fill="#303392" d="M15.974 3.39H4.126v.77h18.118v-.77H17.05z"/></g></g><g><g><g><g><g><path fill="#303392" d="M4.126 18.755v-.77h18.118v.77z"/></g></g></g></g></g></g></g><g><g><text fill="#303392" style="font-kerning:normal" dominant-baseline="text-before-edge" font-family="'Mukta','Mukta-Bold'" font-size="11" font-style="none" font-weight="700" letter-spacing="-.88" transform="translate(3 2)"><tspan>BsS.</tspan></text></g></g></g></svg>