<svg xmlns="http://www.w3.org/2000/svg" width="31" height="29" viewBox="0 0 31 29"><g><g><g><path fill="#303392" d="M13.468 3.282c-.27.187-.586.285-.915.285h-.007c-.33 0-.647-.1-.916-.29l.917-.927zm-.92.885c.49 0 .953-.159 1.342-.46.083-.063.16-.13.23-.201l.205-.208L12.55 1.5l-1.78 1.802.21.207c.071.073.147.14.226.198.389.301.853.46 1.342.46z"/></g><g><path fill="#303392" d="M17.92 7.721l-.925.916a1.607 1.607 0 0 1 0-1.833zM16.974 9.5l1.797-1.778-1.804-1.776-.21.206a2.207 2.207 0 0 0 .003 3.14l.213.208z"/></g><g><path fill="#303392" d="M19.755 18.084h5.334v3.831h-5.334l-.064.001c-.786 0-1.523-.361-1.922-.943a1.685 1.685 0 0 1 0-1.947c.4-.581 1.138-.943 1.925-.943l.06.001zm6.015-.583h-6.088c-1.027 0-1.99.472-2.51 1.232a2.198 2.198 0 0 0 0 2.534c.521.76 1.484 1.233 2.515 1.233h6.082z"/></g><g><path fill="#303392" d="M18.77 19.5a1 1 0 1 1 2 0 1 1 0 0 1-2 0z"/></g><g><path fill="#303392" d="M12.406 2.33l.974.91.449.42 2.601 2.428.45.421.974.91.028.025L14.61 10.5h.887l.629-.587 2.644-2.47-1.91-1.783-2.57-2.4-1.884-1.76-1.88 1.756L2.77 10.5h.889l8.747-8.17z"/></g><g><path fill="#303392" d="M23.77 16.918v-2.73c-.002-2.036-1.674-3.686-3.736-3.688H.77v18h19.264c2.062-.002 3.733-1.65 3.736-3.686v-3.11h-.641v3.11c-.003 1.686-1.387 3.052-3.095 3.054H1.41V11.137h18.624c1.708.003 3.092 1.369 3.095 3.055v2.73z"/></g><g><path fill="#303392" d="M13.752 10.5c.023-.204.023-.41 0-.615C13.61 8.527 12.541 7.5 11.27 7.5s-2.34 1.027-2.483 2.385c-.022.205-.022.41 0 .615h.571a2.27 2.27 0 0 1 0-.615c.142-1.014.953-1.764 1.908-1.764.954 0 1.765.75 1.907 1.764.03.204.03.411 0 .615z"/></g><g><path fill="#303392" d="M13.577 13.5H3.77v1h15v-1h-5.194z"/></g><g><path fill="#303392" d="M3.77 26.5v-1h15v1z"/></g><g><path fill="#303392" d="M22.024 4.13l-.064 3.646-1.294-1.36-.438.435 1.998 2.097 2.107-2.07-.425-.445-1.34 1.314.062-3.606c.035-1.97 1.637-3.54 3.58-3.506 1.941.034 3.488 1.659 3.453 3.629l-.006.354.611.011.006-.355C30.314 1.962 28.5.056 26.22.016c-2.28-.04-4.16 1.802-4.2 4.114z"/></g></g></g></svg>
