<svg xmlns="http://www.w3.org/2000/svg" width="67" height="75" viewBox="0 0 67 75"><g><g><g><path fill="#330d84" d="M57.167 63.34H6.679A6.677 6.677 0 0 1 0 56.662V24.1a6.676 6.676 0 0 1 6.679-6.674h50.488a6.673 6.673 0 0 1 6.672 6.674v32.563a6.674 6.674 0 0 1-6.672 6.676"/></g><g><g><g><path fill="#ffbe1b" d="M53.886 21.868c0 11.843-9.6 21.443-21.446 21.443-11.842 0-21.443-9.6-21.443-21.443 0-11.846 9.6-21.446 21.443-21.446 11.845 0 21.446 9.6 21.446 21.446z"/></g><g><path fill="#ffe37b" d="M48.538 21.868c0 8.888-7.206 16.095-16.098 16.095-8.889 0-16.096-7.207-16.096-16.095 0-8.893 7.207-16.097 16.096-16.097 8.892 0 16.098 7.204 16.098 16.097z"/></g></g></g><g><path fill="#6857e5" d="M60.009 74.59H6.679A6.677 6.677 0 0 1 0 67.915V23.902s.237 2.388 3.064 3.867c1.758.92 4.61.909 5.956.909H60.01a6.673 6.673 0 0 1 6.675 6.674v32.563a6.675 6.675 0 0 1-6.675 6.675"/></g><g><g><path fill="#303392" d="M48.649 58.666a2.99 2.99 0 0 1-2.99-2.992v-8.232a2.99 2.99 0 0 1 2.99-2.99h18.035v14.214z"/></g><g><path fill="#ffbe1b" d="M54.427 51.558a2.97 2.97 0 1 1-5.939 0 2.97 2.97 0 0 1 5.94 0z"/></g></g><g><g><path fill="#fff" d="M34.388 23.338c-.383.314-.902.506-1.56.572v-3.686c.82.245 1.38.51 1.682.788.3.28.45.659.45 1.137 0 .479-.192.875-.572 1.189zm-2.87-9.526v3.543c-.763-.245-1.284-.5-1.556-.768-.273-.265-.41-.627-.41-1.086 0-.456.175-.84.521-1.146.35-.308.83-.488 1.445-.543zm1.31 13.767v-1.476c1.394-.066 2.514-.477 3.363-1.229.845-.75 1.268-1.723 1.268-2.918 0-1.196-.37-2.108-1.107-2.736-.736-.628-1.891-1.126-3.46-1.495h-.063v-3.85a6.56 6.56 0 0 1 2.93 1.187l1.33-1.885c-1.337-.915-2.757-1.427-4.26-1.535v-1.047h-1.31v1.024c-1.325.07-2.4.479-3.226 1.23-.829.75-1.24 1.717-1.24 2.899s.358 2.072 1.075 2.673c.716.601 1.847 1.087 3.39 1.454v3.976c-1.215-.193-2.398-.787-3.543-1.784l-1.496 1.784c1.49 1.297 3.169 2.04 5.04 2.231v1.497z"/></g></g></g></g></svg>