<svg xmlns="http://www.w3.org/2000/svg" width="29" height="28" viewBox="0 0 29 28"><g><g><g><path fill="#fff" d="M12.619 2.282c-.27.187-.586.285-.915.285h-.007c-.33 0-.647-.1-.917-.29l.918-.927zm-.92.885c.49 0 .953-.159 1.342-.46.083-.063.16-.13.23-.201l.205-.208L11.7.5 9.92 2.302l.21.207c.072.073.148.14.226.198.39.301.854.46 1.343.46z"/></g><g><path fill="#fff" d="M17.072 6.721l-.926.916a1.607 1.607 0 0 1 0-1.833zM16.124 8.5l1.796-1.778-1.803-1.776-.21.206a2.207 2.207 0 0 0 .003 3.14l.213.208z"/></g><g><path fill="#fff" d="M18.906 17.084h5.334v3.831h-5.334l-.064.001c-.786 0-1.523-.361-1.923-.943a1.685 1.685 0 0 1 0-1.947c.4-.581 1.138-.943 1.926-.943l.06.001zm6.014-.583H18.833c-1.027 0-1.99.472-2.51 1.232a2.198 2.198 0 0 0 0 2.534c.521.76 1.484 1.233 2.514 1.233h6.083z"/></g><g><path fill="#fff" d="M17.92 18.5a1 1 0 1 1 2 0 1 1 0 0 1-2 0z"/></g><g><path fill="#fff" d="M11.557 1.33l.974.91.449.42 2.601 2.428.45.421.974.91.028.025L13.76 9.5h.887l.629-.587 2.643-2.47-1.91-1.783-2.57-2.4L11.557.5l-1.88 1.756L1.92 9.5h.89l8.747-8.17z"/></g><g><path fill="#fff" d="M22.92 15.918v-2.73c-.001-2.036-1.673-3.686-3.735-3.688H-.08v18h19.265c2.062-.002 3.733-1.65 3.735-3.686v-3.11h-.64v3.11c-.003 1.686-1.387 3.052-3.095 3.054H.56V10.137h18.624c1.708.003 3.092 1.369 3.095 3.055v2.73z"/></g><g><path fill="#fff" d="M12.903 9.5c.023-.204.023-.41 0-.615C12.761 7.527 11.692 6.5 10.42 6.5S8.079 7.527 7.936 8.885c-.021.205-.021.41 0 .615h.572a2.27 2.27 0 0 1 0-.615c.142-1.014.953-1.764 1.908-1.764.954 0 1.765.75 1.907 1.764.03.204.03.411 0 .615z"/></g><g><path fill="#fff" d="M12.728 12.5H2.92v1h15v-1H12.727z"/></g><g><path fill="#fff" d="M2.92 25.5v-1h15v1z"/></g><g><path fill="#fff" d="M20.14 4.768V1.122l-1.33 1.336-.435-.441 2.053-2.062 2.09 2.105-.437.439-1.33-1.337v3.606a3.558 3.558 0 0 0 3.55 3.567 3.558 3.558 0 0 0 3.548-3.567v-.355h.616v.355c0 2.312-1.864 4.187-4.165 4.187-2.3 0-4.165-1.875-4.165-4.187z"/></g></g></g></svg>