<?xml version="1.0" encoding="UTF-8" standalone="no"?>
<svg
   xmlns:dc="http://purl.org/dc/elements/1.1/"
   xmlns:cc="http://creativecommons.org/ns#"
   xmlns:rdf="http://www.w3.org/1999/02/22-rdf-syntax-ns#"
   xmlns:svg="http://www.w3.org/2000/svg"
   xmlns="http://www.w3.org/2000/svg"
   id="svg62"
   version="1.1"
   viewBox="0 0 30 22"
   height="22"
   width="30">
  <metadata
     id="metadata68">
    <rdf:RDF>
      <cc:Work
         rdf:about="">
        <dc:format>image/svg+xml</dc:format>
        <dc:type
           rdf:resource="http://purl.org/dc/dcmitype/StillImage" />
        <dc:title></dc:title>
      </cc:Work>
    </rdf:RDF>
  </metadata>
  <defs
     id="defs66" />
  <g
     id="g48">
    <g
       id="g12">
      <g
         id="g10">
        <g
           id="g8">
          <g
             id="g6">
            <g
               id="g4">
              <path
                 style="fill:#303392"
                 id="path2"
                 d="m 28.549,13.406 h -6.04 a 2.528,2.528 0 0 1 -2.519,-2.52 2.528,2.528 0 0 1 2.52,-2.519 h 6.039 z m -6.02,-5.827 a 3.287,3.287 0 0 0 -3.289,3.288 3.3,3.3 0 0 0 3.289,3.29 h 6.808 V 7.578 Z" />
            </g>
          </g>
        </g>
      </g>
    </g>
    <g
       id="g24">
      <g
         id="g22">
        <g
           id="g20">
          <g
             id="g18">
            <g
               id="g16">
              <path
                 style="fill:#303392"
                 id="path14"
                 d="m 23.846,10.864 a 0.964,0.964 0 0 1 -0.961,0.962 0.964,0.964 0 0 1 -0.962,-0.962 c 0,-0.52 0.442,-0.962 0.962,-0.962 0.519,0 0.961,0.424 0.961,0.962 z" />
            </g>
          </g>
        </g>
      </g>
    </g>
    <g
       id="g34">
      <g
         id="g28">
        <path
           style="fill:#303392"
           id="path26"
           d="M 27.53,8.08 V 4.89 c 0,-2.379 -1.989,-4.296 -4.413,-4.296 H 0.337 v 21 h 22.78 c 2.443,0 4.413,-1.936 4.413,-4.296 v -3.632 h -0.758 v 3.632 c 0,1.972 -1.647,3.558 -3.655,3.558 H 1.095 V 1.331 h 22.022 c 2.027,0 3.655,1.604 3.655,3.558 v 3.19 z" />
      </g>
      <g
         id="g32">
        <path
           style="fill:#303392"
           id="path30"
           d="M 15.974,3.305 H 4.126 v 0.77 H 22.244 V 3.305 H 17.05 Z" />
      </g>
    </g>
    <g
       id="g46">
      <g
         id="g44">
        <g
           id="g42">
          <g
             id="g40">
            <g
               id="g38">
              <path
                 style="fill:#303392"
                 id="path36"
                 d="M 4.126,18.67 V 17.9 h 18.118 v 0.77 z" />
            </g>
          </g>
        </g>
      </g>
    </g>
  </g>
  <g
     id="g56">
    <path
       d="M 14.837891,7.3879455 V 8.6359924 Q 14.304688,8.020758 13.806641,7.7570862 13.314453,7.4934143 12.716797,7.4934143 q -0.919922,0 -1.511719,0.5859375 -0.591797,0.5859375 -0.779297,1.6816406 h 3.38086 l -0.322266,0.7207026 h -3.152344 q -0.01172,0.140625 -0.01758,0.275391 0,0.134766 0,0.339844 0,0.1875 0,0.322265 0.0059,0.134766 0.01758,0.275391 h 2.613282 l -0.328125,0.720704 h -2.191407 q 0.1875,1.095703 0.779297,1.6875 0.591797,0.591796 1.511719,0.591796 0.597656,0 1.089844,-0.263671 0.498047,-0.263672 1.03125,-0.878907 v 1.236328 q -0.521485,0.421875 -1.066407,0.632813 -0.539062,0.210937 -1.101562,0.210937 -1.388672,0 -2.296875,-0.849609 Q 9.4707031,13.932868 9.2363281,12.41529 H 8 l 0.3222656,-0.720704 h 0.8144531 q 0,-0.134766 -0.00586,-0.269531 0,-0.140625 0,-0.328125 0,-0.205078 0,-0.339844 0.00586,-0.140625 0.00586,-0.275391 H 8 L 8.3222656,9.7609924 h 0.9140625 q 0.234375,-1.5058594 1.1425779,-2.3554687 0.908203,-0.8496094 2.291016,-0.8496094 0.574219,0 1.113281,0.2109375 0.544922,0.2050781 1.054688,0.6210937 z"
       style="font-weight:400;font-size:12px;font-family:'Helvetica Neue', HelveticaNeue;dominant-baseline:text-before-edge;fill:#303392"
       id="path4634" />
  </g>
</svg>
