<svg xmlns="http://www.w3.org/2000/svg" width="30" height="22" viewBox="0 0 30 22"><g><g><g><g><g><g><g><g><path fill="#303392" d="M28.549 13.406h-6.04a2.528 2.528 0 0 1-2.519-2.52 2.528 2.528 0 0 1 2.52-2.519h6.039zm-6.02-5.828a3.287 3.287 0 0 0-3.289 3.29 3.3 3.3 0 0 0 3.289 3.288h6.808V7.578z"/></g></g></g></g></g><g><g><g><g><g><path fill="#303392" d="M23.846 10.864a.964.964 0 0 1-.961.962.964.964 0 0 1-.962-.962c0-.52.442-.962.962-.962.519 0 .961.423.961.962z"/></g></g></g></g></g><g><g><path fill="#303392" d="M27.53 8.079v-3.19c0-2.378-1.989-4.295-4.413-4.295H.337v21h22.78c2.443 0 4.413-1.936 4.413-4.296v-3.632h-.758v3.632c0 1.972-1.647 3.558-3.655 3.558H1.095V1.331h22.022c2.027 0 3.655 1.604 3.655 3.558v3.19z"/></g><g><path fill="#303392" d="M15.974 3.305H4.126v.77h18.118v-.77H17.05z"/></g></g><g><g><g><g><g><path fill="#303392" d="M4.126 18.67v-.77h18.118v.77z"/></g></g></g></g></g></g></g><g><g><text fill="#303392" style="font-kerning:normal" dominant-baseline="text-before-edge" font-family="'Mukta','Mukta-Bold'" font-size="11" font-style="none" font-weight="700" letter-spacing="-.88" transform="translate(3 2)"><tspan>BsS.</tspan></text></g></g></g></svg>
