<svg xmlns="http://www.w3.org/2000/svg" xmlns:xlink="http://www.w3.org/1999/xlink" width="42" height="31" viewBox="0 0 42 31"><defs><path id="q185a" d="M446.691 1473.807h-8.586a3.595 3.595 0 0 1-3.582-3.582 3.595 3.595 0 0 1 3.582-3.582h8.586zm-8.559-8.285a4.674 4.674 0 0 0-4.676 4.676 4.692 4.692 0 0 0 4.676 4.676h9.68v-9.352z"/><path id="q185b" d="M439.882 1470.198c0 .765-.628 1.367-1.367 1.367a1.371 1.371 0 0 1-1.367-1.367 1.39 1.39 0 0 1 1.367-1.367c.738 0 1.367.601 1.367 1.367z"/><path id="q185c" d="M445.242 1466.069v-4.731c0-3.528-2.871-6.372-6.371-6.372h-32.897V1486.113h32.897c3.527 0 6.371-2.871 6.371-6.372v-5.387h-1.094v5.387a5.28 5.28 0 0 1-5.277 5.278h-31.803v-28.959h31.803a5.28 5.28 0 0 1 5.277 5.278v4.73z"/><path id="q185d" d="M428.206 1458.822H411.36v1.094H437.121v-1.094h-7.384z"/><path id="q185e" d="M411.361 1481.956v-1.093h25.76v1.093z"/></defs><g><g transform="translate(-406 -1455)"><g><g><g><g><g><g><use fill="#0a2a7f" xlink:href="#q185a"/></g></g></g></g></g><g><g><g><g><g><use fill="#0a2a7f" xlink:href="#q185b"/></g></g></g></g></g><g><g><use fill="#0a2a7f" xlink:href="#q185c"/></g><g><use fill="#0a2a7f" xlink:href="#q185d"/></g></g><g><g><g><g><g><use fill="#0a2a7f" xlink:href="#q185e"/></g></g></g></g></g></g></g></g></svg>