<?xml version="1.0" encoding="UTF-8" standalone="no"?>
<svg
   xmlns:dc="http://purl.org/dc/elements/1.1/"
   xmlns:cc="http://creativecommons.org/ns#"
   xmlns:rdf="http://www.w3.org/1999/02/22-rdf-syntax-ns#"
   xmlns:svg="http://www.w3.org/2000/svg"
   xmlns="http://www.w3.org/2000/svg"
   id="svg62"
   version="1.1"
   viewBox="0 0 30 22"
   height="22"
   width="30">
  <metadata
     id="metadata68">
    <rdf:RDF>
      <cc:Work
         rdf:about="">
        <dc:format>image/svg+xml</dc:format>
        <dc:type
           rdf:resource="http://purl.org/dc/dcmitype/StillImage" />
        <dc:title></dc:title>
      </cc:Work>
    </rdf:RDF>
  </metadata>
  <defs
     id="defs66" />
  <path
     style="fill:#303392"
     id="path2"
     d="m 28.549,13.406 h -6.04 a 2.528,2.528 0 0 1 -2.519,-2.52 2.528,2.528 0 0 1 2.52,-2.519 h 6.039 z m -6.02,-5.827 a 3.287,3.287 0 0 0 -3.289,3.288 3.3,3.3 0 0 0 3.289,3.29 h 6.808 V 7.578 Z" />
  <path
     style="fill:#303392"
     id="path14"
     d="m 23.846,10.864 a 0.964,0.964 0 0 1 -0.961,0.962 0.964,0.964 0 0 1 -0.962,-0.962 c 0,-0.52 0.442,-0.962 0.962,-0.962 0.519,0 0.961,0.424 0.961,0.962 z" />
  <path
     d="M 27.53,8.08 V 4.89 c 0,-2.379 -1.989,-4.296 -4.413,-4.296 H 0.337 v 21 h 22.78 c 2.443,0 4.413,-1.936 4.413,-4.296 v -3.632 h -0.758 v 3.632 c 0,1.972 -1.647,3.558 -3.655,3.558 H 1.095 V 1.331 h 22.022 c 2.027,0 3.655,1.604 3.655,3.558 v 3.19 z"
     id="path26"
     style="fill:#303392" />
  <path
     d="M 15.974,3.305 H 4.126 v 0.77 H 22.244 V 3.305 H 17.05 Z"
     id="path30"
     style="fill:#303392" />
  <path
     style="fill:#303392"
     id="path36"
     d="M 4.126,18.67 V 17.9 h 18.118 v 0.77 z" />
  <path
     d="M 15.457031,6.9924373 V 8.0588435 Q 15.011719,7.8186092 14.613281,7.7014217 14.214844,7.5783748 13.857422,7.5783748 q -0.867188,0 -1.207031,0.4570312 -0.339844,0.4511719 -0.339844,1.6933594 v 1.2597656 h 2.291016 v 0.837891 h -2.291016 v 2.724609 h 3.263672 v 0.996094 H 9.7558594 V 14.551031 H 11.138672 V 11.826422 H 9.9726563 V 10.988531 H 11.138672 V 9.5939998 q 0,-1.5292969 0.626953,-2.2382813 0.626953,-0.7148437 1.986328,-0.7148437 0.357422,0 0.796875,0.09375 0.445313,0.087891 0.908203,0.2578125 z"
     style="font-weight:400;font-size:12px;font-family:'Helvetica Neue', HelveticaNeue;dominant-baseline:text-before-edge;fill:#303392"
     id="path1007" />
</svg>
