<?xml version="1.0" encoding="UTF-8" standalone="no"?>
<svg
   xmlns:dc="http://purl.org/dc/elements/1.1/"
   xmlns:cc="http://creativecommons.org/ns#"
   xmlns:rdf="http://www.w3.org/1999/02/22-rdf-syntax-ns#"
   xmlns:svg="http://www.w3.org/2000/svg"
   xmlns="http://www.w3.org/2000/svg"
   id="svg62"
   version="1.1"
   viewBox="0 0 30 22"
   height="22"
   width="30">
  <metadata
     id="metadata68">
    <rdf:RDF>
      <cc:Work
         rdf:about="">
        <dc:format>image/svg+xml</dc:format>
        <dc:type
           rdf:resource="http://purl.org/dc/dcmitype/StillImage" />
        <dc:title></dc:title>
      </cc:Work>
    </rdf:RDF>
  </metadata>
  <defs
     id="defs66" />
  <g
     transform="translate(0,4.6535705)"
     id="text4"
     style="font-weight:700;font-size:12px;font-family:Mukta, Mukta-Bold;letter-spacing:-0.95999998;dominant-baseline:text-before-edge;fill:#303392"
     aria-label="$">
    <path
       id="path202"
       d="m 12.658203,11.880859 h -0.949219 l -0.0059,-1.763671 Q 10.970703,10.087891 10.285156,9.953125 9.5996094,9.8183594 8.9492188,9.578125 V 8.0429688 Q 9.6230469,8.3886719 10.308594,8.5761719 11,8.7578125 11.708984,8.78125 V 6.9589844 L 11.515625,6.9238281 Q 10.115234,6.6777344 9.5234375,6.1503906 8.9375,5.6230469 8.9375,4.6328125 8.9375,3.5839844 9.6523438,2.9980469 10.373047,2.40625 11.703125,2.3535156 L 11.708984,1 h 0.949219 v 1.3300781 q 0.585938,0.046875 1.171875,0.1464844 0.585938,0.099609 1.177735,0.2578125 V 4.2226562 Q 14.421875,3.9765625 13.835938,3.8417969 13.25,3.7011719 12.658203,3.671875 v 1.6816406 l 0.1875,0.035156 q 1.488281,0.234375 2.085938,0.7851562 0.603515,0.5449219 0.603515,1.6171875 0,1.078125 -0.714843,1.6582032 -0.714844,0.5742195 -2.16211,0.6562505 z M 11.708984,5.21875 V 3.6894531 q -0.416015,0.023437 -0.667968,0.2285157 -0.246094,0.1992187 -0.246094,0.5097656 0,0.3457031 0.228516,0.5449218 0.228515,0.1933594 0.685546,0.2460938 z m 0.949219,1.9101562 v 1.6289063 q 0.509766,-0.00586 0.761719,-0.1992187 0.257812,-0.1933594 0.257812,-0.5800782 0,-0.3984375 -0.234375,-0.5917969 Q 13.208984,7.1875 12.658203,7.1289062 Z" />
  </g>
  <path
     style="fill:#303392"
     id="path10"
     d="m 28.623,13.157 h -5.469 a 2.29,2.29 0 0 1 -2.282,-2.282 2.29,2.29 0 0 1 2.282,-2.282 h 5.47 z M 23.172,7.879 a 2.977,2.977 0 0 0 -2.979,2.979 2.988,2.988 0 0 0 2.979,2.978 h 6.165 V 7.879 Z" />
  <path
     style="fill:#303392"
     id="path22"
     d="m 23.81,10.862 c 0,0.488 -0.401,0.87 -0.871,0.87 -0.488,0 -0.871,-0.4 -0.871,-0.87 0,-0.47 0.4,-0.871 0.87,-0.871 0.47,0 0.872,0.383 0.872,0.87 z" />
  <path
     d="M 27.7,8.08 V 4.89 c 0,-2.379 -2,-4.296 -4.44,-4.296 H 0.337 v 21 H 23.26 c 2.458,0 4.44,-1.936 4.44,-4.296 v -3.632 h -0.762 v 3.632 c 0,1.972 -1.658,3.558 -3.678,3.558 H 1.1 V 1.331 h 22.16 c 2.04,0 3.678,1.604 3.678,3.558 v 3.19 z"
     id="path34"
     style="fill:#303392" />
  <path
     d="M 14.498,3.05 H 3.769 V 3.746 H 20.177 V 3.05 h -4.704 z"
     id="path38"
     style="fill:#303392" />
  <path
     style="fill:#303392"
     id="path44"
     d="m 3.769,18.946 v -0.697 h 16.407 v 0.697 z" />
</svg>
