<svg xmlns="http://www.w3.org/2000/svg" width="30" height="22" viewBox="0 0 30 22"><g><g><g><g><g><g><g><g><path fill="#303392" d="M28.623 13.157h-5.469a2.29 2.29 0 0 1-2.282-2.282 2.29 2.29 0 0 1 2.282-2.282h5.47zm-5.451-5.278a2.977 2.977 0 0 0-2.979 2.979 2.988 2.988 0 0 0 2.979 2.978h6.165V7.879z"/></g></g></g></g></g><g><g><g><g><g><path fill="#303392" d="M23.81 10.862c0 .488-.401.87-.871.87-.488 0-.871-.4-.871-.87s.4-.871.87-.871.872.383.872.87z"/></g></g></g></g></g><g><g><path fill="#303392" d="M27.7 8.079v-3.19c0-2.378-2-4.295-4.44-4.295H.337v21H23.26c2.458 0 4.44-1.936 4.44-4.296v-3.632h-.762v3.632c0 1.972-1.658 3.558-3.678 3.558H1.1V1.331h22.16c2.04 0 3.678 1.604 3.678 3.558v3.19z"/></g><g><path fill="#303392" d="M14.498 3.05H3.769v.696h16.408V3.05h-4.704z"/></g></g><g><g><g><g><g><path fill="#303392" d="M3.769 18.946v-.697h16.407v.697z"/></g></g></g></g></g></g></g><g><g><g><g><g><path fill="#303392" d="M12.5 13.986h-2.37v-2.763h2.969c.722 0 1.309.588 1.309 1.31v.143a1.31 1.31 0 0 1-1.31 1.31zm-2.37-5.412h2.425c.536 0 .973.436.973.973v.114a.974.974 0 0 1-.973.973H10.13zm4.089 2.165c.268-.28.434-.66.434-1.078v-.114c0-.861-.701-1.563-1.563-1.563v.097-.096h-.618V6.753h-.816v1.232h-.642V6.753h-.816v1.232H7.894v.589c.533 0 .966.432.966.965v3.482a.966.966 0 0 1-.966.965v.589h2.304v1.232h.816v-1.232h.642v1.232h.816v-1.232h1.129c1.049 0 1.899-.85 1.899-1.899v-.143a1.9 1.9 0 0 0-1.281-1.794z"/></g></g></g></g></g></g></svg>