<svg width="28" height="28" viewBox="0 0 28 28" fill="none" xmlns="http://www.w3.org/2000/svg">
<circle cx="14" cy="14" r="14" fill="#FFC107" fill-opacity="0.3"/>
<circle cx="14" cy="14" r="10" fill="#FFC107"/>
<path fill-rule="evenodd" clip-rule="evenodd" d="M22 14C22 18.4183 18.4183 22 14 22C9.58172 22 6 18.4183 6 14C6 9.58172 9.58172 6 14 6C18.4183 6 22 9.58172 22 14ZM13 10C13 9.44772 13.4477 9 14 9C14.5523 9 15 9.44772 15 10V15C15 15.5523 14.5523 16 14 16C13.4477 16 13 15.5523 13 15V10ZM14 20C14.5523 20 15 19.5523 15 19C15 18.4477 14.5523 18 14 18C13.4477 18 13 18.4477 13 19C13 19.5523 13.4477 20 14 20Z" fill="white"/>
</svg>
