<svg xmlns="http://www.w3.org/2000/svg" width="28" height="28" viewBox="0 0 28 28"><g><g><g><g><g><g><g><path fill="#303392" d="M1.682 11.528c0-.302.021-.583.064-.863.238-1.662 1.101-3.13 2.418-4.101a6.142 6.142 0 0 1 4.618-1.209c3.065.432 5.375 3.087 5.375 6.173 0 .28-.022.583-.065.863a6.232 6.232 0 0 1-7.036 5.31c-3.065-.432-5.374-3.087-5.374-6.173zm13.338-.022c0-3.518-2.633-6.54-6.108-7.014a7.072 7.072 0 0 0-5.266 1.36 6.982 6.982 0 0 0-2.763 4.683c-.043.324-.065.67-.065.993 0 3.518 2.633 6.54 6.13 7.014 3.863.54 7.468-2.158 8.007-6.043.043-.324.065-.669.065-.993z"/></g></g></g></g></g><g><g><g><g><g><g><path fill="#303392" d="M10.131 12.985c0 .97-.69 1.662-1.834 1.748v1.144h-.648V14.71a3.346 3.346 0 0 1-1.942-.928l.496-.604c.54.518 1.23.799 1.835.799.712 0 1.23-.346 1.23-.95 0-.69-.54-.907-1.424-1.187-1.036-.346-1.986-.67-1.986-1.792 0-.928.647-1.618 1.813-1.683V7.157h.626V8.41c.583.108 1.208.367 1.619.69l-.475.584c-.497-.367-1.144-.562-1.597-.562-.67 0-1.123.303-1.123.864 0 .604.583.82 1.382 1.079 1.144.388 2.028.69 2.028 1.92z"/></g></g></g></g></g></g><g><g><g><g><g><path fill="#303392" d="M14.437 21.952h3.238v-9.841c0-4.662-2.763-8.914-7.015-10.813l-.496-.216h.928c6.043 0 10.964 4.92 10.964 10.964v9.906h2.935l-5.288 4.295zm8.504-.863v-9.043C22.94 5.528 17.63.219 11.113.219H6.128l4.187 1.877c3.95 1.748 6.496 5.698 6.496 10.015v8.978h-4.834l7.726 6.26 7.749-6.26z"/></g></g></g></g></g></g></g></svg>
