<?xml version="1.0" encoding="UTF-8" standalone="no"?>
<svg
   xmlns:dc="http://purl.org/dc/elements/1.1/"
   xmlns:cc="http://creativecommons.org/ns#"
   xmlns:rdf="http://www.w3.org/1999/02/22-rdf-syntax-ns#"
   xmlns:svg="http://www.w3.org/2000/svg"
   xmlns="http://www.w3.org/2000/svg"
   id="svg44"
   version="1.1"
   viewBox="0 0 28 28"
   height="28"
   width="28">
  <metadata
     id="metadata50">
    <rdf:RDF>
      <cc:Work
         rdf:about="">
        <dc:format>image/svg+xml</dc:format>
        <dc:type
           rdf:resource="http://purl.org/dc/dcmitype/StillImage" />
        <dc:title></dc:title>
      </cc:Work>
    </rdf:RDF>
  </metadata>
  <defs
     id="defs48" />
  <g
     style="fill:#c83737"
     id="g42">
    <g
       style="fill:#c83737"
       id="g40">
      <g
         style="fill:#c83737"
         id="g12">
        <g
           style="fill:#c83737"
           id="g10">
          <g
             style="fill:#c83737"
             id="g8">
            <g
               style="fill:#c83737"
               id="g6">
              <g
                 style="fill:#c83737"
                 id="g4">
                <path
                   style="fill:#c83737"
                   id="path2"
                   d="M1.682 11.528c0-.302.021-.583.064-.863.238-1.662 1.101-3.13 2.418-4.101a6.142 6.142 0 0 1 4.618-1.209c3.065.432 5.375 3.087 5.375 6.173 0 .28-.022.583-.065.863a6.232 6.232 0 0 1-7.036 5.31c-3.065-.432-5.374-3.087-5.374-6.173zm13.338-.022c0-3.518-2.633-6.54-6.108-7.014a7.072 7.072 0 0 0-5.266 1.36 6.982 6.982 0 0 0-2.763 4.683c-.043.324-.065.67-.065.993 0 3.518 2.633 6.54 6.13 7.014 3.863.54 7.468-2.158 8.007-6.043.043-.324.065-.669.065-.993z"
                   fill="#303392" />
              </g>
            </g>
          </g>
        </g>
      </g>
      <g
         style="fill:#c83737"
         id="g26">
        <g
           style="fill:#c83737"
           id="g24">
          <g
             style="fill:#c83737"
             id="g22">
            <g
               style="fill:#c83737"
               id="g20">
              <g
                 style="fill:#c83737"
                 id="g18">
                <g
                   style="fill:#c83737"
                   id="g16">
                  <path
                     style="fill:#c83737"
                     id="path14"
                     d="M10.131 12.985c0 .97-.69 1.662-1.834 1.748v1.144h-.648V14.71a3.346 3.346 0 0 1-1.942-.928l.496-.604c.54.518 1.23.799 1.835.799.712 0 1.23-.346 1.23-.95 0-.69-.54-.907-1.424-1.187-1.036-.346-1.986-.67-1.986-1.792 0-.928.647-1.618 1.813-1.683V7.157h.626V8.41c.583.108 1.208.367 1.619.69l-.475.584c-.497-.367-1.144-.562-1.597-.562-.67 0-1.123.303-1.123.864 0 .604.583.82 1.382 1.079 1.144.388 2.028.69 2.028 1.92z"
                     fill="#303392" />
                </g>
              </g>
            </g>
          </g>
        </g>
      </g>
      <g
         style="fill:#c83737"
         id="g38">
        <g
           style="fill:#c83737"
           id="g36">
          <g
             style="fill:#c83737"
             id="g34">
            <g
               style="fill:#c83737"
               id="g32">
              <g
                 style="fill:#c83737"
                 id="g30">
                <path
                   style="fill:#c83737"
                   id="path28"
                   d="M14.437 21.952h3.238v-9.841c0-4.662-2.763-8.914-7.015-10.813l-.496-.216h.928c6.043 0 10.964 4.92 10.964 10.964v9.906h2.935l-5.288 4.295zm8.504-.863v-9.043C22.94 5.528 17.63.219 11.113.219H6.128l4.187 1.877c3.95 1.748 6.496 5.698 6.496 10.015v8.978h-4.834l7.726 6.26 7.749-6.26z"
                   fill="#303392" />
              </g>
            </g>
          </g>
        </g>
      </g>
    </g>
  </g>
</svg>
