<svg xmlns="http://www.w3.org/2000/svg" width="18" height="18" viewBox="0 0 18 18"><g><g><path fill="#fff" d="M12.325 15.26c1.002-1.66 1.427-3.908 1.504-5.835h2.75a7.13 7.13 0 0 1-4.254 5.834zm-2.82.576c-1.959 0-2.848-4.403-2.934-6.41h5.869c-.086 1.992-.978 6.41-2.935 6.41zm-3.932-1.173a.694.694 0 0 0-.686-.046L2.42 15.81l1.194-2.47a.694.694 0 0 0-.047-.685 7.072 7.072 0 0 1-1.145-3.23h2.76c.077 1.936.505 4.186 1.509 5.843a7.086 7.086 0 0 1-1.118-.605zM6.681 2.201c-.996 1.656-1.424 3.898-1.5 5.836h-2.76a7.13 7.13 0 0 1 4.26-5.836zm2.817-.583h.022c1.952.027 2.835 4.406 2.92 6.42H6.57c.092-2.164 1.023-6.406 2.928-6.42zm7.08 6.42H13.83c-.076-1.947-.505-4.18-1.496-5.831a7.13 7.13 0 0 1 4.246 5.83zM9.529.23h-.035A8.496 8.496 0 0 0 1 8.688c-.003.052-.002.04 0 .083a8.464 8.464 0 0 0 1.196 4.311l-1.894 3.92c-.285.589.336 1.212.927.926l3.916-1.894a8.462 8.462 0 0 0 4.355 1.2c4.698 0 8.5-3.803 8.5-8.503A8.496 8.496 0 0 0 9.529.23z"/></g></g></svg>