<svg xmlns="http://www.w3.org/2000/svg" xmlns:xlink="http://www.w3.org/1999/xlink" width="219" height="65" viewBox="0 0 219 65"><defs><path id="d" d="M250.3 77l-9.28 8.53L232.8 78l-2.98 12.52c-.19.8-.47 1.56-.82 2.3V100h6.02V88.22l6 5.46 5.96-5.49V100H253V77z"/><path id="e" d="M253 88.53c0 6.35 5.13 11.47 11.48 11.47 6.36 0 11.52-5.12 11.52-11.47a11.51 11.51 0 0 0-23 0m16.98-.03c0 3-2.46 5.49-5.5 5.49a5.5 5.5 0 0 1 0-10.98c3.04 0 5.5 2.45 5.5 5.49"/><path id="f" d="M296 100V77h-5.92v10.86L279.4 77H277v23h5.92V89.11L293.57 100z"/><path id="g" d="M297 100h15v-4.94h-8.66v-4.23H311v-5.09h-7.66V82H312v-5h-15z"/><path id="a" d="M311.05 77.04h22.93v22.92h-22.93z"/><path id="i" d="M333.98 77.04h-7l-4.48 7.64-4.44-7.64h-7.01l8.46 14.49v8.43h6.02v-8.43z"/><path id="j" d="M188.8 77c4.08 0 6.85 2.69 6.94 6.31l1.57-6.31h6.28l-4.21 16.93h8.6l-1.5 6.07h-14.9l3.1-12.42c-1.88 3.62-5.96 6.32-9.96 6.32h-3.92l-1.52 6.1H173l5.73-23zm29.64 0l-3.45 13.83c-.41 1.66.66 3 2.38 3a4.2 4.2 0 0 0 3.87-3L224.7 77h6.3l-3.47 13.92c-1.26 5.06-6.5 9.08-11.7 9.08-5.26 0-8.43-4.02-7.17-9.08L212.13 77zM182.1 88.68h3.89c1.91 0 3.8-1.44 4.26-3.28.46-1.84-.7-3.3-2.62-3.3h-3.89z"/><path id="b" d="M121 67.07h18v43.88h-18z"/><path id="l" d="M138 110.95a24.83 24.83 0 0 1-6.81-3.25 23.96 23.96 0 0 1-5.39-5.03 22.24 22.24 0 0 1-.29-27.25 24.25 24.25 0 0 1 11.54-8.35l1.12 2.9c-4.04 1.4-7.5 3.9-10 7.25a19.27 19.27 0 0 0 .25 23.6 21.35 21.35 0 0 0 10.57 7.19z"/><path id="m" d="M152.64 111l-1.18-2.92a20.87 20.87 0 0 0 9.58-7.37 19.87 19.87 0 0 0-.14-23.41 20.88 20.88 0 0 0-9.9-7.35l1.11-2.95a24.08 24.08 0 0 1 11.42 8.48 22.93 22.93 0 0 1 .16 27.02 24.08 24.08 0 0 1-11.05 8.5"/><path id="c" d="M135 61.04h19.97V102H135z"/><path id="o" d="M154.42 67.73c-1.35-3.8-3.9-6.01-7.66-6.62a1.17 1.17 0 0 1-.25-.07H135V102h11.87v-7.05h-5.21V81.1c1.53-.1 3.06.05 4.58-.05 1.93-.26 4.18-.94 5.9-2.54a8.74 8.74 0 0 0 2.51-4.63c.05-.42.14-.84.21-1.26.07-.59.11-1.2.11-1.85v-.64c-.18-.8-.27-1.64-.55-2.4m-5.02 3.46c-.07 1.98-1.6 3.64-3.43 3.69-1.37.04-2.74.01-4.1.01-.07 0-.13-.01-.2-.03V67.1c.09-.02.18-.04.28-.04 1.27 0 2.54-.03 3.8 0 2.18.06 3.73 1.84 3.65 4.13"/><path id="p" d="M154.99 77a9.13 9.13 0 0 1-1.71 2.04 11.4 11.4 0 0 1-5 2.5v10.84h.06v9.92h-.04v6.3a3.38 3.38 0 0 1-2.79 3.35 3.3 3.3 0 0 1-3.7-2.46 3.27 3.27 0 0 1-.11-.83l-.01-6.36H135v7.33c.17.79.27 1.6.53 2.36 1.43 4.07 4.26 6.37 8.43 6.94l.3.07h1.47c.84-.19 1.69-.3 2.5-.57a10.1 10.1 0 0 0 6.76-9.5c.02-8.32 0-16.63 0-24.95V77"/><clipPath id="h"><use xlink:href="#a"/></clipPath><clipPath id="k"><use xlink:href="#b"/></clipPath><clipPath id="n"><use xlink:href="#c"/></clipPath></defs><use fill="#c5c7cc" xlink:href="#d" transform="translate(-120 -59)"/><use fill="#c5c7cc" xlink:href="#e" transform="translate(-120 -59)"/><use fill="#c5c7cc" xlink:href="#f" transform="translate(-120 -59)"/><use fill="#c5c7cc" xlink:href="#g" transform="translate(-120 -59)"/><g clip-path="url(#h)" transform="translate(-120 -59)"><use fill="#c5c7cc" xlink:href="#i"/></g><use fill="#fff" xlink:href="#j" transform="translate(-120 -59)"/><g clip-path="url(#k)" transform="translate(-120 -59)"><use fill="#c5c7cc" xlink:href="#l"/></g><use fill="#c5c7cc" xlink:href="#m" transform="translate(-120 -59)"/><g><g clip-path="url(#n)" transform="translate(-120 -59)"><use fill="#fff" xlink:href="#o"/></g></g><g transform="translate(-120 -59)"><use fill="#fff" xlink:href="#p"/></g></svg>